<svg width="498" height="23" viewBox="0 0 498 23" fill="none" xmlns="http://www.w3.org/2000/svg">
<path d="M0.43 1.622H5.38C7.03733 1.622 8.47467 1.93 9.692 2.546C10.9093 3.162 11.8407 4.042 12.486 5.186C13.146 6.33 13.476 7.67933 13.476 9.234C13.476 11.786 12.7353 13.722 11.254 15.042C9.78733 16.3473 7.72667 17 5.072 17H0.43V1.622ZM5.05 15.13C7.10333 15.13 8.64333 14.624 9.67 13.612C10.6967 12.6 11.21 11.1407 11.21 9.234C11.21 7.474 10.704 6.08067 9.692 5.054C8.69467 4.02733 7.26467 3.514 5.402 3.514H2.674V15.13H5.05ZM21.7068 17.33C19.7561 17.33 18.2234 16.846 17.1088 15.878C16.0088 14.8953 15.4588 13.5167 15.4588 11.742C15.4588 10.0113 15.9501 8.64 16.9328 7.628C17.9301 6.616 19.3454 6.11 21.1788 6.11C22.3961 6.11 23.4301 6.34467 24.2808 6.814C25.1314 7.26867 25.7694 7.90667 26.1948 8.728C26.6348 9.53467 26.8548 10.4587 26.8548 11.5V12.6H17.5708C17.6441 13.5973 18.0621 14.3453 18.8248 14.844C19.6021 15.328 20.6508 15.57 21.9708 15.57C22.6454 15.57 23.3274 15.5113 24.0168 15.394C24.7061 15.262 25.3148 15.0933 25.8428 14.888V16.67C25.3734 16.8607 24.7501 17.0147 23.9728 17.132C23.2101 17.264 22.4548 17.33 21.7068 17.33ZM24.7648 11.038C24.7354 10.0407 24.4054 9.27067 23.7748 8.728C23.1588 8.17067 22.2788 7.892 21.1348 7.892C20.0201 7.892 19.1548 8.178 18.5388 8.75C17.9228 9.322 17.6001 10.0847 17.5708 11.038H24.7648ZM33.1775 17.33C32.4442 17.33 31.6668 17.2347 30.8455 17.044C30.0242 16.868 29.3788 16.626 28.9095 16.318V14.426C29.4815 14.7633 30.1415 15.042 30.8895 15.262C31.6375 15.4673 32.3635 15.57 33.0675 15.57C33.8595 15.57 34.4388 15.4747 34.8055 15.284C35.1722 15.0933 35.3555 14.7853 35.3555 14.36C35.3555 14.0373 35.2675 13.7807 35.0915 13.59C34.9302 13.3847 34.6442 13.2013 34.2335 13.04C33.8375 12.8787 33.2362 12.688 32.4295 12.468C31.5642 12.2187 30.8748 11.9693 30.3615 11.72C29.8628 11.456 29.4815 11.126 29.2175 10.73C28.9682 10.334 28.8435 9.82067 28.8435 9.19C28.8435 8.178 29.2395 7.41533 30.0315 6.902C30.8382 6.374 31.9162 6.11 33.2655 6.11C33.9695 6.11 34.6588 6.176 35.3335 6.308C36.0082 6.44 36.5508 6.62333 36.9615 6.858V8.706C36.5362 8.45667 36.0082 8.25867 35.3775 8.112C34.7615 7.96533 34.1308 7.892 33.4855 7.892C32.7082 7.892 32.1142 7.98733 31.7035 8.178C31.2928 8.36867 31.0875 8.706 31.0875 9.19C31.0875 9.498 31.1755 9.74733 31.3515 9.938C31.5275 10.1287 31.8062 10.2973 32.1875 10.444C32.5835 10.576 33.2068 10.752 34.0575 10.972C35.3922 11.3387 36.3162 11.7713 36.8295 12.27C37.3575 12.7687 37.6215 13.458 37.6215 14.338C37.6215 15.2473 37.2475 15.9733 36.4995 16.516C35.7515 17.0587 34.6442 17.33 33.1775 17.33ZM41.3452 4.372C40.9785 4.372 40.6705 4.24733 40.4212 3.998C40.1719 3.74867 40.0472 3.44067 40.0472 3.074C40.0472 2.70733 40.1719 2.39933 40.4212 2.15C40.6705 1.90067 40.9785 1.776 41.3452 1.776C41.7265 1.776 42.0419 1.90067 42.2912 2.15C42.5552 2.39933 42.6872 2.70733 42.6872 3.074C42.6872 3.44067 42.5552 3.74867 42.2912 3.998C42.0419 4.24733 41.7265 4.372 41.3452 4.372ZM40.2232 6.44H42.4892V17H40.2232V6.44ZM51.0692 22.06C50.3505 22.06 49.6465 22.0013 48.9572 21.884C48.2825 21.7667 47.7105 21.598 47.2412 21.378V19.552C48.3412 20.0507 49.6172 20.3 51.0692 20.3C52.4332 20.3 53.4232 19.9993 54.0392 19.398C54.6699 18.8113 54.9852 17.9167 54.9852 16.714V15.592C54.0172 16.7507 52.5945 17.33 50.7172 17.33C49.6465 17.33 48.6859 17.0953 47.8352 16.626C46.9845 16.1567 46.3172 15.4967 45.8332 14.646C45.3492 13.7953 45.1072 12.82 45.1072 11.72C45.1072 10.6053 45.3419 9.63 45.8112 8.794C46.2952 7.94333 46.9552 7.28333 47.7912 6.814C48.6419 6.34467 49.5952 6.11 50.6512 6.11C51.6339 6.11 52.4625 6.25667 53.1372 6.55C53.8265 6.82867 54.4645 7.298 55.0512 7.958V6.44H57.2072V16.472C57.2072 18.276 56.7012 19.6547 55.6892 20.608C54.6919 21.576 53.1519 22.06 51.0692 22.06ZM51.1572 15.57C52.0665 15.57 52.8659 15.328 53.5552 14.844C54.2592 14.36 54.7359 13.7147 54.9852 12.908V10.532C54.7065 9.71067 54.2225 9.06533 53.5332 8.596C52.8585 8.12667 52.0665 7.892 51.1572 7.892C50.4385 7.892 49.7859 8.05333 49.1992 8.376C48.6272 8.684 48.1725 9.13133 47.8352 9.718C47.5125 10.3047 47.3512 10.972 47.3512 11.72C47.3512 12.4827 47.5125 13.1573 47.8352 13.744C48.1725 14.316 48.6272 14.7633 49.1992 15.086C49.7859 15.4087 50.4385 15.57 51.1572 15.57ZM60.0706 6.44H62.2266V7.958C62.7253 7.32733 63.334 6.86533 64.0526 6.572C64.786 6.264 65.5486 6.11 66.3406 6.11C67.7486 6.11 68.7973 6.484 69.4866 7.232C70.176 7.98 70.5206 8.98467 70.5206 10.246V17H68.2986V10.466C68.2986 8.75 67.4773 7.892 65.8346 7.892C65.1306 7.892 64.4706 8.06067 63.8546 8.398C63.2533 8.72067 62.7326 9.21933 62.2926 9.894V17H60.0706V6.44ZM74.56 4.372C74.1934 4.372 73.8854 4.24733 73.636 3.998C73.3867 3.74867 73.262 3.44067 73.262 3.074C73.262 2.70733 73.3867 2.39933 73.636 2.15C73.8854 1.90067 74.1934 1.776 74.56 1.776C74.9414 1.776 75.2567 1.90067 75.506 2.15C75.77 2.39933 75.902 2.70733 75.902 3.074C75.902 3.44067 75.77 3.74867 75.506 3.998C75.2567 4.24733 74.9414 4.372 74.56 4.372ZM73.438 6.44H75.704V17H73.438V6.44ZM78.762 6.44H80.918V7.958C81.4167 7.32733 82.0254 6.86533 82.744 6.572C83.4774 6.264 84.24 6.11 85.032 6.11C86.44 6.11 87.4887 6.484 88.178 7.232C88.8674 7.98 89.212 8.98467 89.212 10.246V17H86.99V10.466C86.99 8.75 86.1687 7.892 84.526 7.892C83.822 7.892 83.162 8.06067 82.546 8.398C81.9447 8.72067 81.424 9.21933 80.984 9.894V17H78.762V6.44ZM97.4754 22.06C96.7568 22.06 96.0528 22.0013 95.3634 21.884C94.6888 21.7667 94.1168 21.598 93.6474 21.378V19.552C94.7474 20.0507 96.0234 20.3 97.4754 20.3C98.8394 20.3 99.8294 19.9993 100.445 19.398C101.076 18.8113 101.391 17.9167 101.391 16.714V15.592C100.423 16.7507 99.0008 17.33 97.1234 17.33C96.0528 17.33 95.0921 17.0953 94.2414 16.626C93.3908 16.1567 92.7234 15.4967 92.2394 14.646C91.7554 13.7953 91.5134 12.82 91.5134 11.72C91.5134 10.6053 91.7481 9.63 92.2174 8.794C92.7014 7.94333 93.3614 7.28333 94.1974 6.814C95.0481 6.34467 96.0014 6.11 97.0574 6.11C98.0401 6.11 98.8688 6.25667 99.5434 6.55C100.233 6.82867 100.871 7.298 101.457 7.958V6.44H103.613V16.472C103.613 18.276 103.107 19.6547 102.095 20.608C101.098 21.576 99.5581 22.06 97.4754 22.06ZM97.5634 15.57C98.4728 15.57 99.2721 15.328 99.9614 14.844C100.665 14.36 101.142 13.7147 101.391 12.908V10.532C101.113 9.71067 100.629 9.06533 99.9394 8.596C99.2648 8.12667 98.4728 7.892 97.5634 7.892C96.8448 7.892 96.1921 8.05333 95.6054 8.376C95.0334 8.684 94.5788 9.13133 94.2414 9.718C93.9188 10.3047 93.7574 10.972 93.7574 11.72C93.7574 12.4827 93.9188 13.1573 94.2414 13.744C94.5788 14.316 95.0334 14.7633 95.6054 15.086C96.1921 15.4087 96.8448 15.57 97.5634 15.57ZM118.403 17.33C117.127 17.33 116.101 17.0073 115.323 16.362C114.561 15.702 114.179 14.8147 114.179 13.7C114.179 12.5267 114.546 11.6247 115.279 10.994C116.027 10.3487 117.083 10.026 118.447 10.026C119.899 10.026 121.131 10.3193 122.143 10.906V10.356C122.143 9.52 121.887 8.904 121.373 8.508C120.875 8.09733 120.083 7.892 118.997 7.892C118.352 7.892 117.721 7.958 117.105 8.09C116.504 8.20733 115.961 8.376 115.477 8.596V6.792C115.917 6.58667 116.489 6.42533 117.193 6.308C117.897 6.176 118.579 6.11 119.239 6.11C120.985 6.11 122.275 6.49867 123.111 7.276C123.962 8.03867 124.387 9.102 124.387 10.466V17H122.297V15.812C121.843 16.3107 121.3 16.692 120.669 16.956C120.053 17.2053 119.298 17.33 118.403 17.33ZM118.953 15.636C119.657 15.636 120.295 15.4967 120.867 15.218C121.439 14.9393 121.865 14.5507 122.143 14.052V12.622C121.19 12.006 120.127 11.698 118.953 11.698C118.103 11.698 117.465 11.8667 117.039 12.204C116.629 12.5267 116.423 13.0253 116.423 13.7C116.423 14.9907 117.267 15.636 118.953 15.636ZM127.145 0.742H129.367V17H127.145V0.742ZM138.045 17.33C136.094 17.33 134.561 16.846 133.447 15.878C132.347 14.8953 131.797 13.5167 131.797 11.742C131.797 10.0113 132.288 8.64 133.271 7.628C134.268 6.616 135.683 6.11 137.517 6.11C138.734 6.11 139.768 6.34467 140.619 6.814C141.469 7.26867 142.107 7.90667 142.533 8.728C142.973 9.53467 143.193 10.4587 143.193 11.5V12.6H133.909C133.982 13.5973 134.4 14.3453 135.163 14.844C135.94 15.328 136.989 15.57 138.309 15.57C138.983 15.57 139.665 15.5113 140.355 15.394C141.044 15.262 141.653 15.0933 142.181 14.888V16.67C141.711 16.8607 141.088 17.0147 140.311 17.132C139.548 17.264 138.793 17.33 138.045 17.33ZM141.103 11.038C141.073 10.0407 140.743 9.27067 140.113 8.728C139.497 8.17067 138.617 7.892 137.473 7.892C136.358 7.892 135.493 8.178 134.877 8.75C134.261 9.322 133.938 10.0847 133.909 11.038H141.103ZM145.621 6.44H147.777V8.332C148.217 7.68667 148.833 7.21 149.625 6.902C150.432 6.594 151.363 6.44 152.419 6.44V8.178C151.29 8.178 150.322 8.36133 149.515 8.728C148.709 9.09467 148.151 9.674 147.843 10.466V17H145.621V6.44ZM158.479 17.33C157.408 17.33 156.579 17.022 155.993 16.406C155.421 15.79 155.135 14.9173 155.135 13.788V8.156H153.529V6.44H155.135V3.272H157.379V6.44H159.975V8.156H157.379V13.634C157.379 14.338 157.511 14.8367 157.775 15.13C158.053 15.4233 158.552 15.57 159.271 15.57C159.696 15.57 160.121 15.4747 160.547 15.284V17.044C159.989 17.2347 159.3 17.33 158.479 17.33ZM174.674 17.33C173.94 17.33 173.163 17.2347 172.342 17.044C171.52 16.868 170.875 16.626 170.406 16.318V14.426C170.978 14.7633 171.638 15.042 172.386 15.262C173.134 15.4673 173.86 15.57 174.564 15.57C175.356 15.57 175.935 15.4747 176.302 15.284C176.668 15.0933 176.852 14.7853 176.852 14.36C176.852 14.0373 176.764 13.7807 176.588 13.59C176.426 13.3847 176.14 13.2013 175.73 13.04C175.334 12.8787 174.732 12.688 173.926 12.468C173.06 12.2187 172.371 11.9693 171.858 11.72C171.359 11.456 170.978 11.126 170.714 10.73C170.464 10.334 170.34 9.82067 170.34 9.19C170.34 8.178 170.736 7.41533 171.528 6.902C172.334 6.374 173.412 6.11 174.762 6.11C175.466 6.11 176.155 6.176 176.83 6.308C177.504 6.44 178.047 6.62333 178.458 6.858V8.706C178.032 8.45667 177.504 8.25867 176.874 8.112C176.258 7.96533 175.627 7.892 174.982 7.892C174.204 7.892 173.61 7.98733 173.2 8.178C172.789 8.36867 172.584 8.706 172.584 9.19C172.584 9.498 172.672 9.74733 172.848 9.938C173.024 10.1287 173.302 10.2973 173.684 10.444C174.08 10.576 174.703 10.752 175.554 10.972C176.888 11.3387 177.812 11.7713 178.326 12.27C178.854 12.7687 179.118 13.458 179.118 14.338C179.118 15.2473 178.744 15.9733 177.996 16.516C177.248 17.0587 176.14 17.33 174.674 17.33ZM182.584 21.356C181.792 21.356 181.132 21.2753 180.604 21.114V19.376C180.985 19.5227 181.455 19.596 182.012 19.596C182.525 19.596 182.929 19.464 183.222 19.2C183.515 18.9507 183.779 18.54 184.014 17.968L184.52 16.736L179.9 6.44H182.188L185.708 14.558L188.986 6.44H191.274L186.522 18.188C186.082 19.288 185.554 20.0873 184.938 20.586C184.337 21.0993 183.552 21.356 182.584 21.356ZM196.158 17.33C195.425 17.33 194.647 17.2347 193.826 17.044C193.005 16.868 192.359 16.626 191.89 16.318V14.426C192.462 14.7633 193.122 15.042 193.87 15.262C194.618 15.4673 195.344 15.57 196.048 15.57C196.84 15.57 197.419 15.4747 197.786 15.284C198.153 15.0933 198.336 14.7853 198.336 14.36C198.336 14.0373 198.248 13.7807 198.072 13.59C197.911 13.3847 197.625 13.2013 197.214 13.04C196.818 12.8787 196.217 12.688 195.41 12.468C194.545 12.2187 193.855 11.9693 193.342 11.72C192.843 11.456 192.462 11.126 192.198 10.73C191.949 10.334 191.824 9.82067 191.824 9.19C191.824 8.178 192.22 7.41533 193.012 6.902C193.819 6.374 194.897 6.11 196.246 6.11C196.95 6.11 197.639 6.176 198.314 6.308C198.989 6.44 199.531 6.62333 199.942 6.858V8.706C199.517 8.45667 198.989 8.25867 198.358 8.112C197.742 7.96533 197.111 7.892 196.466 7.892C195.689 7.892 195.095 7.98733 194.684 8.178C194.273 8.36867 194.068 8.706 194.068 9.19C194.068 9.498 194.156 9.74733 194.332 9.938C194.508 10.1287 194.787 10.2973 195.168 10.444C195.564 10.576 196.187 10.752 197.038 10.972C198.373 11.3387 199.297 11.7713 199.81 12.27C200.338 12.7687 200.602 13.458 200.602 14.338C200.602 15.2473 200.228 15.9733 199.48 16.516C198.732 17.0587 197.625 17.33 196.158 17.33ZM206.775 17.33C205.705 17.33 204.876 17.022 204.289 16.406C203.717 15.79 203.431 14.9173 203.431 13.788V8.156H201.825V6.44H203.431V3.272H205.675V6.44H208.271V8.156H205.675V13.634C205.675 14.338 205.807 14.8367 206.071 15.13C206.35 15.4233 206.849 15.57 207.567 15.57C207.993 15.57 208.418 15.4747 208.843 15.284V17.044C208.286 17.2347 207.597 17.33 206.775 17.33ZM216.742 17.33C214.791 17.33 213.259 16.846 212.144 15.878C211.044 14.8953 210.494 13.5167 210.494 11.742C210.494 10.0113 210.985 8.64 211.968 7.628C212.965 6.616 214.381 6.11 216.214 6.11C217.431 6.11 218.465 6.34467 219.316 6.814C220.167 7.26867 220.805 7.90667 221.23 8.728C221.67 9.53467 221.89 10.4587 221.89 11.5V12.6H212.606C212.679 13.5973 213.097 14.3453 213.86 14.844C214.637 15.328 215.686 15.57 217.006 15.57C217.681 15.57 218.363 15.5113 219.052 15.394C219.741 15.262 220.35 15.0933 220.878 14.888V16.67C220.409 16.8607 219.785 17.0147 219.008 17.132C218.245 17.264 217.49 17.33 216.742 17.33ZM219.8 11.038C219.771 10.0407 219.441 9.27067 218.81 8.728C218.194 8.17067 217.314 7.892 216.17 7.892C215.055 7.892 214.19 8.178 213.574 8.75C212.958 9.322 212.635 10.0847 212.606 11.038H219.8ZM224.319 6.44H226.431V7.958C226.929 7.342 227.494 6.88 228.125 6.572C228.755 6.264 229.408 6.11 230.083 6.11C230.933 6.11 231.608 6.25667 232.107 6.55C232.605 6.82867 232.972 7.26133 233.207 7.848C233.676 7.276 234.248 6.84333 234.923 6.55C235.612 6.25667 236.301 6.11 236.991 6.11C238.281 6.11 239.213 6.44 239.785 7.1C240.357 7.74533 240.643 8.706 240.643 9.982V17H238.487V10.268C238.487 9.40267 238.325 8.794 238.003 8.442C237.68 8.07533 237.13 7.892 236.353 7.892C235.238 7.892 234.329 8.376 233.625 9.344C233.654 9.564 233.669 9.92333 233.669 10.422V17H231.513V10.268C231.513 9.40267 231.366 8.794 231.073 8.442C230.779 8.07533 230.251 7.892 229.489 7.892C228.374 7.892 227.377 8.52267 226.497 9.784V17H224.319V6.44ZM252.265 8.156H250.659V6.44H252.265V4.372C252.265 3.15467 252.61 2.23067 253.299 1.6C253.989 0.954666 254.913 0.632 256.071 0.632C256.673 0.632 257.237 0.719999 257.765 0.895999V2.744C257.355 2.55333 256.929 2.458 256.489 2.458C255.8 2.458 255.294 2.62667 254.971 2.964C254.649 3.28667 254.487 3.8 254.487 4.504V6.44H257.127V8.156H254.487V17H252.265V8.156ZM264.088 17.33C262.9 17.33 261.851 17.11 260.942 16.67C260.047 16.2153 259.343 15.57 258.83 14.734C258.331 13.8833 258.082 12.886 258.082 11.742C258.082 10.6127 258.331 9.62267 258.83 8.772C259.328 7.92133 260.032 7.26867 260.942 6.814C261.851 6.34467 262.9 6.11 264.088 6.11C265.276 6.11 266.324 6.34467 267.234 6.814C268.143 7.26867 268.847 7.92133 269.346 8.772C269.859 9.62267 270.116 10.6127 270.116 11.742C270.116 12.886 269.859 13.8833 269.346 14.734C268.847 15.57 268.143 16.2153 267.234 16.67C266.324 17.11 265.276 17.33 264.088 17.33ZM264.088 15.57C265.232 15.57 266.141 15.218 266.816 14.514C267.49 13.81 267.828 12.886 267.828 11.742C267.828 10.554 267.49 9.61533 266.816 8.926C266.141 8.23667 265.232 7.892 264.088 7.892C262.944 7.892 262.034 8.23667 261.36 8.926C260.685 9.61533 260.348 10.554 260.348 11.742C260.348 12.886 260.685 13.81 261.36 14.514C262.034 15.218 262.944 15.57 264.088 15.57ZM272.53 6.44H274.686V8.332C275.126 7.68667 275.742 7.21 276.534 6.902C277.34 6.594 278.272 6.44 279.328 6.44V8.178C278.198 8.178 277.23 8.36133 276.424 8.728C275.617 9.09467 275.06 9.674 274.752 10.466V17H272.53V6.44ZM290.757 4.372C290.391 4.372 290.083 4.24733 289.833 3.998C289.584 3.74867 289.459 3.44067 289.459 3.074C289.459 2.70733 289.584 2.39933 289.833 2.15C290.083 1.90067 290.391 1.776 290.757 1.776C291.139 1.776 291.454 1.90067 291.703 2.15C291.967 2.39933 292.099 2.70733 292.099 3.074C292.099 3.44067 291.967 3.74867 291.703 3.998C291.454 4.24733 291.139 4.372 290.757 4.372ZM289.635 6.44H291.901V17H289.635V6.44ZM294.959 6.44H297.115V7.958C297.614 7.32733 298.223 6.86533 298.941 6.572C299.675 6.264 300.437 6.11 301.229 6.11C302.637 6.11 303.686 6.484 304.375 7.232C305.065 7.98 305.409 8.98467 305.409 10.246V17H303.187V10.466C303.187 8.75 302.366 7.892 300.723 7.892C300.019 7.892 299.359 8.06067 298.743 8.398C298.142 8.72067 297.621 9.21933 297.181 9.894V17H294.959V6.44ZM312.045 17.33C311.311 17.33 310.534 17.2347 309.713 17.044C308.891 16.868 308.246 16.626 307.777 16.318V14.426C308.349 14.7633 309.009 15.042 309.757 15.262C310.505 15.4673 311.231 15.57 311.935 15.57C312.727 15.57 313.306 15.4747 313.673 15.284C314.039 15.0933 314.223 14.7853 314.223 14.36C314.223 14.0373 314.135 13.7807 313.959 13.59C313.797 13.3847 313.511 13.2013 313.101 13.04C312.705 12.8787 312.103 12.688 311.297 12.468C310.431 12.2187 309.742 11.9693 309.229 11.72C308.73 11.456 308.349 11.126 308.085 10.73C307.835 10.334 307.711 9.82067 307.711 9.19C307.711 8.178 308.107 7.41533 308.899 6.902C309.705 6.374 310.783 6.11 312.133 6.11C312.837 6.11 313.526 6.176 314.201 6.308C314.875 6.44 315.418 6.62333 315.829 6.858V8.706C315.403 8.45667 314.875 8.25867 314.245 8.112C313.629 7.96533 312.998 7.892 312.353 7.892C311.575 7.892 310.981 7.98733 310.571 8.178C310.16 8.36867 309.955 8.706 309.955 9.19C309.955 9.498 310.043 9.74733 310.219 9.938C310.395 10.1287 310.673 10.2973 311.055 10.444C311.451 10.576 312.074 10.752 312.925 10.972C314.259 11.3387 315.183 11.7713 315.697 12.27C316.225 12.7687 316.489 13.458 316.489 14.338C316.489 15.2473 316.115 15.9733 315.367 16.516C314.619 17.0587 313.511 17.33 312.045 17.33ZM322.662 17.33C321.591 17.33 320.763 17.022 320.176 16.406C319.604 15.79 319.318 14.9173 319.318 13.788V8.156H317.712V6.44H319.318V3.272H321.562V6.44H324.158V8.156H321.562V13.634C321.562 14.338 321.694 14.8367 321.958 15.13C322.237 15.4233 322.735 15.57 323.454 15.57C323.879 15.57 324.305 15.4747 324.73 15.284V17.044C324.173 17.2347 323.483 17.33 322.662 17.33ZM328.119 4.372C327.752 4.372 327.444 4.24733 327.195 3.998C326.945 3.74867 326.821 3.44067 326.821 3.074C326.821 2.70733 326.945 2.39933 327.195 2.15C327.444 1.90067 327.752 1.776 328.119 1.776C328.5 1.776 328.815 1.90067 329.065 2.15C329.329 2.39933 329.461 2.70733 329.461 3.074C329.461 3.44067 329.329 3.74867 329.065 3.998C328.815 4.24733 328.5 4.372 328.119 4.372ZM326.997 6.44H329.263V17H326.997V6.44ZM336.391 17.33C335.32 17.33 334.491 17.022 333.905 16.406C333.333 15.79 333.047 14.9173 333.047 13.788V8.156H331.441V6.44H333.047V3.272H335.291V6.44H337.887V8.156H335.291V13.634C335.291 14.338 335.423 14.8367 335.687 15.13C335.965 15.4233 336.464 15.57 337.183 15.57C337.608 15.57 338.033 15.4747 338.459 15.284V17.044C337.901 17.2347 337.212 17.33 336.391 17.33ZM344.644 17.33C343.221 17.33 342.143 16.9487 341.41 16.186C340.691 15.4233 340.332 14.404 340.332 13.128V6.44H342.554V13.04C342.554 14.7267 343.397 15.57 345.084 15.57C346.565 15.57 347.724 14.9027 348.56 13.568V6.44H350.782V17H348.626V15.504C348.127 16.1347 347.533 16.5967 346.844 16.89C346.169 17.1833 345.436 17.33 344.644 17.33ZM357.703 17.33C356.632 17.33 355.804 17.022 355.217 16.406C354.645 15.79 354.359 14.9173 354.359 13.788V8.156H352.753V6.44H354.359V3.272H356.603V6.44H359.199V8.156H356.603V13.634C356.603 14.338 356.735 14.8367 356.999 15.13C357.278 15.4233 357.776 15.57 358.495 15.57C358.92 15.57 359.346 15.4747 359.771 15.284V17.044C359.214 17.2347 358.524 17.33 357.703 17.33ZM363.16 4.372C362.793 4.372 362.485 4.24733 362.236 3.998C361.986 3.74867 361.862 3.44067 361.862 3.074C361.862 2.70733 361.986 2.39933 362.236 2.15C362.485 1.90067 362.793 1.776 363.16 1.776C363.541 1.776 363.856 1.90067 364.106 2.15C364.37 2.39933 364.502 2.70733 364.502 3.074C364.502 3.44067 364.37 3.74867 364.106 3.998C363.856 4.24733 363.541 4.372 363.16 4.372ZM362.038 6.44H364.304V17H362.038V6.44ZM372.928 17.33C371.74 17.33 370.691 17.11 369.782 16.67C368.887 16.2153 368.183 15.57 367.67 14.734C367.171 13.8833 366.922 12.886 366.922 11.742C366.922 10.6127 367.171 9.62267 367.67 8.772C368.168 7.92133 368.872 7.26867 369.782 6.814C370.691 6.34467 371.74 6.11 372.928 6.11C374.116 6.11 375.164 6.34467 376.074 6.814C376.983 7.26867 377.687 7.92133 378.186 8.772C378.699 9.62267 378.956 10.6127 378.956 11.742C378.956 12.886 378.699 13.8833 378.186 14.734C377.687 15.57 376.983 16.2153 376.074 16.67C375.164 17.11 374.116 17.33 372.928 17.33ZM372.928 15.57C374.072 15.57 374.981 15.218 375.656 14.514C376.33 13.81 376.668 12.886 376.668 11.742C376.668 10.554 376.33 9.61533 375.656 8.926C374.981 8.23667 374.072 7.892 372.928 7.892C371.784 7.892 370.874 8.23667 370.2 8.926C369.525 9.61533 369.188 10.554 369.188 11.742C369.188 12.886 369.525 13.81 370.2 14.514C370.874 15.218 371.784 15.57 372.928 15.57ZM381.369 6.44H383.525V7.958C384.024 7.32733 384.633 6.86533 385.351 6.572C386.085 6.264 386.847 6.11 387.639 6.11C389.047 6.11 390.096 6.484 390.785 7.232C391.475 7.98 391.819 8.98467 391.819 10.246V17H389.597V10.466C389.597 8.75 388.776 7.892 387.133 7.892C386.429 7.892 385.769 8.06067 385.153 8.398C384.552 8.72067 384.031 9.21933 383.591 9.894V17H381.369V6.44ZM398.023 17.33C396.747 17.33 395.72 17.0073 394.943 16.362C394.18 15.702 393.799 14.8147 393.799 13.7C393.799 12.5267 394.165 11.6247 394.899 10.994C395.647 10.3487 396.703 10.026 398.067 10.026C399.519 10.026 400.751 10.3193 401.763 10.906V10.356C401.763 9.52 401.506 8.904 400.993 8.508C400.494 8.09733 399.702 7.892 398.617 7.892C397.971 7.892 397.341 7.958 396.725 8.09C396.123 8.20733 395.581 8.376 395.097 8.596V6.792C395.537 6.58667 396.109 6.42533 396.813 6.308C397.517 6.176 398.199 6.11 398.859 6.11C400.604 6.11 401.895 6.49867 402.731 7.276C403.581 8.03867 404.007 9.102 404.007 10.466V17H401.917V15.812C401.462 16.3107 400.919 16.692 400.289 16.956C399.673 17.2053 398.917 17.33 398.023 17.33ZM398.573 15.636C399.277 15.636 399.915 15.4967 400.487 15.218C401.059 14.9393 401.484 14.5507 401.763 14.052V12.622C400.809 12.006 399.746 11.698 398.573 11.698C397.722 11.698 397.084 11.8667 396.659 12.204C396.248 12.5267 396.043 13.0253 396.043 13.7C396.043 14.9907 396.886 15.636 398.573 15.636ZM406.764 0.742H408.986V17H406.764V0.742ZM424.068 17.33C422.998 17.33 422.169 17.022 421.582 16.406C421.01 15.79 420.724 14.9173 420.724 13.788V8.156H419.118V6.44H420.724V3.272H422.968V6.44H425.564V8.156H422.968V13.634C422.968 14.338 423.1 14.8367 423.364 15.13C423.643 15.4233 424.142 15.57 424.86 15.57C425.286 15.57 425.711 15.4747 426.136 15.284V17.044C425.579 17.2347 424.89 17.33 424.068 17.33ZM428.227 6.44H430.383V8.332C430.823 7.68667 431.439 7.21 432.231 6.902C433.038 6.594 433.969 6.44 435.025 6.44V8.178C433.896 8.178 432.928 8.36133 432.121 8.728C431.314 9.09467 430.757 9.674 430.449 10.466V17H428.227V6.44ZM439.81 17.33C438.534 17.33 437.507 17.0073 436.73 16.362C435.967 15.702 435.586 14.8147 435.586 13.7C435.586 12.5267 435.952 11.6247 436.686 10.994C437.434 10.3487 438.49 10.026 439.854 10.026C441.306 10.026 442.538 10.3193 443.55 10.906V10.356C443.55 9.52 443.293 8.904 442.78 8.508C442.281 8.09733 441.489 7.892 440.404 7.892C439.758 7.892 439.128 7.958 438.512 8.09C437.91 8.20733 437.368 8.376 436.884 8.596V6.792C437.324 6.58667 437.896 6.42533 438.6 6.308C439.304 6.176 439.986 6.11 440.646 6.11C442.391 6.11 443.682 6.49867 444.518 7.276C445.368 8.03867 445.794 9.102 445.794 10.466V17H443.704V15.812C443.249 16.3107 442.706 16.692 442.076 16.956C441.46 17.2053 440.704 17.33 439.81 17.33ZM440.36 15.636C441.064 15.636 441.702 15.4967 442.274 15.218C442.846 14.9393 443.271 14.5507 443.55 14.052V12.622C442.596 12.006 441.533 11.698 440.36 11.698C439.509 11.698 438.871 11.8667 438.446 12.204C438.035 12.5267 437.83 13.0253 437.83 13.7C437.83 14.9907 438.673 15.636 440.36 15.636ZM453.655 17.33C452.599 17.33 451.646 17.1027 450.795 16.648C449.959 16.1787 449.299 15.526 448.815 14.69C448.346 13.8393 448.111 12.8567 448.111 11.742C448.111 10.642 448.346 9.66667 448.815 8.816C449.299 7.96533 449.959 7.30533 450.795 6.836C451.646 6.352 452.599 6.11 453.655 6.11C455.562 6.11 457.006 6.68933 457.989 7.848V0.742H460.211V17H458.055V15.46C457.468 16.1053 456.823 16.582 456.119 16.89C455.43 17.1833 454.608 17.33 453.655 17.33ZM454.161 15.57C455.07 15.57 455.862 15.3353 456.537 14.866C457.226 14.382 457.71 13.7367 457.989 12.93V10.554C457.74 9.74733 457.263 9.102 456.559 8.618C455.87 8.134 455.07 7.892 454.161 7.892C453.442 7.892 452.79 8.05333 452.203 8.376C451.631 8.69867 451.176 9.15333 450.839 9.74C450.516 10.3267 450.355 10.994 450.355 11.742C450.355 12.49 450.516 13.1573 450.839 13.744C451.176 14.3307 451.631 14.7853 452.203 15.108C452.79 15.416 453.442 15.57 454.161 15.57ZM468.883 17.33C466.932 17.33 465.399 16.846 464.285 15.878C463.185 14.8953 462.635 13.5167 462.635 11.742C462.635 10.0113 463.126 8.64 464.109 7.628C465.106 6.616 466.521 6.11 468.355 6.11C469.572 6.11 470.606 6.34467 471.457 6.814C472.307 7.26867 472.945 7.90667 473.371 8.728C473.811 9.53467 474.031 10.4587 474.031 11.5V12.6H464.747C464.82 13.5973 465.238 14.3453 466.001 14.844C466.778 15.328 467.827 15.57 469.147 15.57C469.821 15.57 470.503 15.5113 471.193 15.394C471.882 15.262 472.491 15.0933 473.019 14.888V16.67C472.549 16.8607 471.926 17.0147 471.149 17.132C470.386 17.264 469.631 17.33 468.883 17.33ZM471.941 11.038C471.911 10.0407 471.581 9.27067 470.951 8.728C470.335 8.17067 469.455 7.892 468.311 7.892C467.196 7.892 466.331 8.178 465.715 8.75C465.099 9.322 464.776 10.0847 464.747 11.038H471.941ZM476.459 6.44H478.615V8.332C479.055 7.68667 479.671 7.21 480.463 6.902C481.27 6.594 482.201 6.44 483.257 6.44V8.178C482.128 8.178 481.16 8.36133 480.353 8.728C479.547 9.09467 478.989 9.674 478.681 10.466V17H476.459V6.44ZM488.818 17.33C488.085 17.33 487.307 17.2347 486.486 17.044C485.665 16.868 485.019 16.626 484.55 16.318V14.426C485.122 14.7633 485.782 15.042 486.53 15.262C487.278 15.4673 488.004 15.57 488.708 15.57C489.5 15.57 490.079 15.4747 490.446 15.284C490.813 15.0933 490.996 14.7853 490.996 14.36C490.996 14.0373 490.908 13.7807 490.732 13.59C490.571 13.3847 490.285 13.2013 489.874 13.04C489.478 12.8787 488.877 12.688 488.07 12.468C487.205 12.2187 486.515 11.9693 486.002 11.72C485.503 11.456 485.122 11.126 484.858 10.73C484.609 10.334 484.484 9.82067 484.484 9.19C484.484 8.178 484.88 7.41533 485.672 6.902C486.479 6.374 487.557 6.11 488.906 6.11C489.61 6.11 490.299 6.176 490.974 6.308C491.649 6.44 492.191 6.62333 492.602 6.858V8.706C492.177 8.45667 491.649 8.25867 491.018 8.112C490.402 7.96533 489.771 7.892 489.126 7.892C488.349 7.892 487.755 7.98733 487.344 8.178C486.933 8.36867 486.728 8.706 486.728 9.19C486.728 9.498 486.816 9.74733 486.992 9.938C487.168 10.1287 487.447 10.2973 487.828 10.444C488.224 10.576 488.847 10.752 489.698 10.972C491.033 11.3387 491.957 11.7713 492.47 12.27C492.998 12.7687 493.262 13.458 493.262 14.338C493.262 15.2473 492.888 15.9733 492.14 16.516C491.392 17.0587 490.285 17.33 488.818 17.33ZM496.282 17C495.988 17 495.739 16.9047 495.534 16.714C495.343 16.5087 495.248 16.2593 495.248 15.966C495.248 15.6727 495.343 15.4233 495.534 15.218C495.739 15.0127 495.988 14.91 496.282 14.91C496.575 14.91 496.824 15.0127 497.03 15.218C497.235 15.4233 497.338 15.6727 497.338 15.966C497.338 16.2593 497.235 16.5087 497.03 16.714C496.824 16.9047 496.575 17 496.282 17Z" fill="white"/>
</svg>
