<svg width="378" height="30" viewBox="0 0 378 30" fill="none" xmlns="http://www.w3.org/2000/svg">
<path d="M0.37 0.76H14.44V4.18H4.15V9.4H13.9V12.82H4.15V18.58H14.98V22H0.37V0.76ZM18.3798 7.6H21.7998V9.91H21.8598C22.1998 9.19 22.7198 8.57 23.4198 8.05C24.1198 7.51 25.0698 7.24 26.2698 7.24C27.2298 7.24 28.0398 7.4 28.6998 7.72C29.3798 8.04 29.9298 8.46 30.3498 8.98C30.7698 9.5 31.0698 10.1 31.2498 10.78C31.4298 11.46 31.5198 12.17 31.5198 12.91V22H27.9198V14.71C27.9198 14.31 27.8998 13.87 27.8598 13.39C27.8198 12.89 27.7098 12.43 27.5298 12.01C27.3698 11.57 27.1098 11.21 26.7498 10.93C26.3898 10.63 25.8998 10.48 25.2798 10.48C24.6798 10.48 24.1698 10.58 23.7498 10.78C23.3498 10.98 23.0098 11.25 22.7298 11.59C22.4698 11.93 22.2798 12.32 22.1598 12.76C22.0398 13.2 21.9798 13.66 21.9798 14.14V22H18.3798V7.6ZM38.4864 16.06C38.6064 17.14 39.0264 17.98 39.7464 18.58C40.4664 19.18 41.3364 19.48 42.3564 19.48C43.2564 19.48 44.0064 19.3 44.6064 18.94C45.2264 18.56 45.7664 18.09 46.2264 17.53L48.8064 19.48C47.9664 20.52 47.0264 21.26 45.9864 21.7C44.9464 22.14 43.8564 22.36 42.7164 22.36C41.6364 22.36 40.6164 22.18 39.6564 21.82C38.6964 21.46 37.8664 20.95 37.1664 20.29C36.4664 19.63 35.9064 18.84 35.4864 17.92C35.0864 16.98 34.8864 15.94 34.8864 14.8C34.8864 13.66 35.0864 12.63 35.4864 11.71C35.9064 10.77 36.4664 9.97 37.1664 9.31C37.8664 8.65 38.6964 8.14 39.6564 7.78C40.6164 7.42 41.6364 7.24 42.7164 7.24C43.7164 7.24 44.6264 7.42 45.4464 7.78C46.2864 8.12 46.9964 8.62 47.5764 9.28C48.1764 9.94 48.6364 10.76 48.9564 11.74C49.2964 12.7 49.4664 13.81 49.4664 15.07V16.06H38.4864ZM45.8664 13.36C45.8464 12.3 45.5164 11.47 44.8764 10.87C44.2364 10.25 43.3464 9.94 42.2064 9.94C41.1264 9.94 40.2664 10.25 39.6264 10.87C39.0064 11.49 38.6264 12.32 38.4864 13.36H45.8664ZM52.833 7.6H56.433V9.88H56.493C56.893 9.04 57.463 8.39 58.203 7.93C58.943 7.47 59.793 7.24 60.753 7.24C60.973 7.24 61.183 7.26 61.383 7.3C61.603 7.34 61.823 7.39 62.043 7.45V10.93C61.743 10.85 61.443 10.79 61.143 10.75C60.863 10.69 60.583 10.66 60.303 10.66C59.463 10.66 58.783 10.82 58.263 11.14C57.763 11.44 57.373 11.79 57.093 12.19C56.833 12.59 56.653 12.99 56.553 13.39C56.473 13.79 56.433 14.09 56.433 14.29V22H52.833V7.6ZM78.7858 7.6V20.71C78.7858 22.01 78.6258 23.18 78.3058 24.22C77.9858 25.28 77.4858 26.17 76.8058 26.89C76.1458 27.63 75.3058 28.2 74.2858 28.6C73.2658 29 72.0558 29.2 70.6558 29.2C69.3158 29.2 68.0458 29.03 66.8458 28.69C65.6458 28.35 64.5358 27.73 63.5158 26.83L65.6758 23.89C66.3958 24.55 67.1458 25.06 67.9258 25.42C68.7058 25.78 69.6058 25.96 70.6258 25.96C71.4858 25.96 72.2058 25.84 72.7858 25.6C73.3858 25.36 73.8558 25.03 74.1958 24.61C74.5558 24.19 74.8058 23.68 74.9458 23.08C75.1058 22.5 75.1858 21.85 75.1858 21.13V20.08H75.1258C74.6058 20.78 73.9158 21.31 73.0558 21.67C72.1958 22.01 71.3158 22.18 70.4158 22.18C69.3358 22.18 68.3558 21.99 67.4758 21.61C66.5958 21.21 65.8358 20.68 65.1958 20.02C64.5758 19.36 64.0958 18.58 63.7558 17.68C63.4158 16.78 63.2458 15.82 63.2458 14.8C63.2458 13.74 63.4058 12.75 63.7258 11.83C64.0458 10.91 64.5158 10.11 65.1358 9.43C65.7558 8.75 66.4958 8.22 67.3558 7.84C68.2358 7.44 69.2358 7.24 70.3558 7.24C71.3758 7.24 72.3258 7.44 73.2058 7.84C74.0858 8.24 74.7858 8.88 75.3058 9.76H75.3658V7.6H78.7858ZM71.1058 10.48C70.4658 10.48 69.8858 10.59 69.3658 10.81C68.8458 11.01 68.3958 11.3 68.0158 11.68C67.6558 12.04 67.3658 12.49 67.1458 13.03C66.9458 13.55 66.8458 14.13 66.8458 14.77C66.8458 15.35 66.9458 15.89 67.1458 16.39C67.3658 16.89 67.6658 17.33 68.0458 17.71C68.4258 18.09 68.8758 18.39 69.3958 18.61C69.9158 18.83 70.4758 18.94 71.0758 18.94C71.7358 18.94 72.3258 18.83 72.8458 18.61C73.3858 18.39 73.8358 18.1 74.1958 17.74C74.5758 17.36 74.8658 16.91 75.0658 16.39C75.2658 15.87 75.3658 15.31 75.3658 14.71C75.3658 13.45 74.9858 12.43 74.2258 11.65C73.4658 10.87 72.4258 10.48 71.1058 10.48ZM80.9123 7.6H84.8723L88.8923 17.59H88.9523L92.5523 7.6H96.3023L89.4923 25.09C89.2323 25.77 88.9423 26.36 88.6223 26.86C88.3223 27.38 87.9623 27.81 87.5423 28.15C87.1223 28.51 86.6223 28.77 86.0423 28.93C85.4823 29.11 84.8023 29.2 84.0023 29.2C83.0623 29.2 82.1423 29.08 81.2423 28.84L81.6923 25.6C81.9723 25.7 82.2623 25.78 82.5623 25.84C82.8823 25.92 83.2023 25.96 83.5223 25.96C83.9623 25.96 84.3323 25.92 84.6323 25.84C84.9323 25.76 85.1823 25.63 85.3823 25.45C85.6023 25.29 85.7823 25.07 85.9223 24.79C86.0623 24.53 86.2123 24.21 86.3723 23.83L87.0623 22.12L80.9123 7.6ZM104.809 16.15H97.3989V13.09H104.809V16.15ZM115.562 11.59C114.862 10.61 113.922 10.12 112.742 10.12C112.262 10.12 111.792 10.24 111.332 10.48C110.872 10.72 110.642 11.11 110.642 11.65C110.642 12.09 110.832 12.41 111.212 12.61C111.592 12.81 112.072 12.98 112.652 13.12C113.232 13.26 113.852 13.41 114.512 13.57C115.192 13.71 115.822 13.94 116.402 14.26C116.982 14.56 117.462 14.98 117.842 15.52C118.222 16.06 118.412 16.8 118.412 17.74C118.412 18.6 118.222 19.33 117.842 19.93C117.482 20.51 117.002 20.98 116.402 21.34C115.822 21.7 115.162 21.96 114.422 22.12C113.682 22.28 112.942 22.36 112.202 22.36C111.082 22.36 110.052 22.2 109.112 21.88C108.172 21.56 107.332 20.98 106.592 20.14L108.992 17.89C109.452 18.41 109.942 18.84 110.462 19.18C111.002 19.5 111.652 19.66 112.412 19.66C112.672 19.66 112.942 19.63 113.222 19.57C113.502 19.51 113.762 19.41 114.002 19.27C114.242 19.13 114.432 18.96 114.572 18.76C114.732 18.54 114.812 18.29 114.812 18.01C114.812 17.51 114.622 17.14 114.242 16.9C113.862 16.66 113.382 16.47 112.802 16.33C112.222 16.17 111.592 16.03 110.912 15.91C110.252 15.77 109.632 15.56 109.052 15.28C108.472 14.98 107.992 14.57 107.612 14.05C107.232 13.53 107.042 12.81 107.042 11.89C107.042 11.09 107.202 10.4 107.522 9.82C107.862 9.22 108.302 8.73 108.842 8.35C109.382 7.97 110.002 7.69 110.702 7.51C111.402 7.33 112.112 7.24 112.832 7.24C113.792 7.24 114.742 7.41 115.682 7.75C116.622 8.07 117.382 8.63 117.962 9.43L115.562 11.59ZM130.212 20.02H130.122C129.602 20.84 128.942 21.44 128.142 21.82C127.342 22.18 126.462 22.36 125.502 22.36C124.842 22.36 124.192 22.27 123.552 22.09C122.932 21.91 122.372 21.64 121.872 21.28C121.392 20.92 121.002 20.47 120.702 19.93C120.402 19.39 120.252 18.76 120.252 18.04C120.252 17.26 120.392 16.6 120.672 16.06C120.952 15.5 121.322 15.04 121.782 14.68C122.262 14.3 122.812 14 123.432 13.78C124.052 13.56 124.692 13.4 125.352 13.3C126.032 13.18 126.712 13.11 127.392 13.09C128.072 13.05 128.712 13.03 129.312 13.03H130.212V12.64C130.212 11.74 129.902 11.07 129.282 10.63C128.662 10.17 127.872 9.94 126.912 9.94C126.152 9.94 125.442 10.08 124.782 10.36C124.122 10.62 123.552 10.98 123.072 11.44L121.182 9.55C121.982 8.73 122.912 8.14 123.972 7.78C125.052 7.42 126.162 7.24 127.302 7.24C128.322 7.24 129.182 7.36 129.882 7.6C130.582 7.82 131.162 8.11 131.622 8.47C132.082 8.83 132.432 9.25 132.672 9.73C132.932 10.19 133.112 10.66 133.212 11.14C133.332 11.62 133.402 12.09 133.422 12.55C133.442 12.99 133.452 13.38 133.452 13.72V22H130.212V20.02ZM130.002 15.55H129.252C128.752 15.55 128.192 15.57 127.572 15.61C126.952 15.65 126.362 15.75 125.802 15.91C125.262 16.05 124.802 16.27 124.422 16.57C124.042 16.85 123.852 17.25 123.852 17.77C123.852 18.11 123.922 18.4 124.062 18.64C124.222 18.86 124.422 19.05 124.662 19.21C124.902 19.37 125.172 19.49 125.472 19.57C125.772 19.63 126.072 19.66 126.372 19.66C127.612 19.66 128.522 19.37 129.102 18.79C129.702 18.19 130.002 17.38 130.002 16.36V15.55ZM135.375 7.6H139.305L143.145 17.68H143.205L147.075 7.6H150.765L145.095 22H141.255L135.375 7.6ZM152.942 7.6H156.542V22H152.942V7.6ZM152.432 2.71C152.432 2.13 152.642 1.63 153.062 1.21C153.502 0.769999 154.052 0.549999 154.712 0.549999C155.372 0.549999 155.922 0.759999 156.362 1.18C156.822 1.58 157.052 2.09 157.052 2.71C157.052 3.33 156.822 3.85 156.362 4.27C155.922 4.67 155.372 4.87 154.712 4.87C154.052 4.87 153.502 4.66 153.062 4.24C152.642 3.8 152.432 3.29 152.432 2.71ZM160.675 7.6H164.095V9.91H164.155C164.495 9.19 165.015 8.57 165.715 8.05C166.415 7.51 167.365 7.24 168.565 7.24C169.525 7.24 170.335 7.4 170.995 7.72C171.675 8.04 172.225 8.46 172.645 8.98C173.065 9.5 173.365 10.1 173.545 10.78C173.725 11.46 173.815 12.17 173.815 12.91V22H170.215V14.71C170.215 14.31 170.195 13.87 170.155 13.39C170.115 12.89 170.005 12.43 169.825 12.01C169.665 11.57 169.405 11.21 169.045 10.93C168.685 10.63 168.195 10.48 167.575 10.48C166.975 10.48 166.465 10.58 166.045 10.78C165.645 10.98 165.305 11.25 165.025 11.59C164.765 11.93 164.575 12.32 164.455 12.76C164.335 13.2 164.275 13.66 164.275 14.14V22H160.675V7.6ZM192.721 7.6V20.71C192.721 22.01 192.561 23.18 192.241 24.22C191.921 25.28 191.421 26.17 190.741 26.89C190.081 27.63 189.241 28.2 188.221 28.6C187.201 29 185.991 29.2 184.591 29.2C183.251 29.2 181.981 29.03 180.781 28.69C179.581 28.35 178.471 27.73 177.451 26.83L179.611 23.89C180.331 24.55 181.081 25.06 181.861 25.42C182.641 25.78 183.541 25.96 184.561 25.96C185.421 25.96 186.141 25.84 186.721 25.6C187.321 25.36 187.791 25.03 188.131 24.61C188.491 24.19 188.741 23.68 188.881 23.08C189.041 22.5 189.121 21.85 189.121 21.13V20.08H189.061C188.541 20.78 187.851 21.31 186.991 21.67C186.131 22.01 185.251 22.18 184.351 22.18C183.271 22.18 182.291 21.99 181.411 21.61C180.531 21.21 179.771 20.68 179.131 20.02C178.511 19.36 178.031 18.58 177.691 17.68C177.351 16.78 177.181 15.82 177.181 14.8C177.181 13.74 177.341 12.75 177.661 11.83C177.981 10.91 178.451 10.11 179.071 9.43C179.691 8.75 180.431 8.22 181.291 7.84C182.171 7.44 183.171 7.24 184.291 7.24C185.311 7.24 186.261 7.44 187.141 7.84C188.021 8.24 188.721 8.88 189.241 9.76H189.301V7.6H192.721ZM185.041 10.48C184.401 10.48 183.821 10.59 183.301 10.81C182.781 11.01 182.331 11.3 181.951 11.68C181.591 12.04 181.301 12.49 181.081 13.03C180.881 13.55 180.781 14.13 180.781 14.77C180.781 15.35 180.881 15.89 181.081 16.39C181.301 16.89 181.601 17.33 181.981 17.71C182.361 18.09 182.811 18.39 183.331 18.61C183.851 18.83 184.411 18.94 185.011 18.94C185.671 18.94 186.261 18.83 186.781 18.61C187.321 18.39 187.771 18.1 188.131 17.74C188.511 17.36 188.801 16.91 189.001 16.39C189.201 15.87 189.301 15.31 189.301 14.71C189.301 13.45 188.921 12.43 188.161 11.65C187.401 10.87 186.361 10.48 185.041 10.48ZM216.415 5.32C216.015 4.74 215.475 4.32 214.795 4.06C214.135 3.78 213.435 3.64 212.695 3.64C212.255 3.64 211.825 3.69 211.405 3.79C211.005 3.89 210.635 4.05 210.295 4.27C209.975 4.49 209.715 4.78 209.515 5.14C209.315 5.48 209.215 5.89 209.215 6.37C209.215 7.09 209.465 7.64 209.965 8.02C210.465 8.4 211.085 8.73 211.825 9.01C212.565 9.29 213.375 9.56 214.255 9.82C215.135 10.08 215.945 10.44 216.685 10.9C217.425 11.36 218.045 11.97 218.545 12.73C219.045 13.49 219.295 14.5 219.295 15.76C219.295 16.9 219.085 17.9 218.665 18.76C218.245 19.6 217.675 20.3 216.955 20.86C216.255 21.42 215.435 21.84 214.495 22.12C213.555 22.4 212.565 22.54 211.525 22.54C210.205 22.54 208.935 22.32 207.715 21.88C206.495 21.44 205.445 20.7 204.565 19.66L207.415 16.9C207.875 17.6 208.475 18.15 209.215 18.55C209.975 18.93 210.775 19.12 211.615 19.12C212.055 19.12 212.495 19.06 212.935 18.94C213.375 18.82 213.775 18.64 214.135 18.4C214.495 18.16 214.785 17.86 215.005 17.5C215.225 17.12 215.335 16.69 215.335 16.21C215.335 15.43 215.085 14.83 214.585 14.41C214.085 13.99 213.465 13.64 212.725 13.36C211.985 13.06 211.175 12.78 210.295 12.52C209.415 12.26 208.605 11.91 207.865 11.47C207.125 11.01 206.505 10.41 206.005 9.67C205.505 8.91 205.255 7.9 205.255 6.64C205.255 5.54 205.475 4.59 205.915 3.79C206.375 2.99 206.965 2.33 207.685 1.81C208.425 1.27 209.265 0.869998 210.205 0.609998C211.145 0.349999 212.105 0.22 213.085 0.22C214.205 0.22 215.285 0.389999 216.325 0.729998C217.385 1.07 218.335 1.63 219.175 2.41L216.415 5.32ZM222.751 7.6H226.171V9.85H226.231C226.551 9.17 227.061 8.57 227.761 8.05C228.481 7.51 229.441 7.24 230.641 7.24C232.901 7.24 234.401 8.13 235.141 9.91C235.661 8.99 236.311 8.32 237.091 7.9C237.871 7.46 238.801 7.24 239.881 7.24C240.841 7.24 241.651 7.4 242.311 7.72C242.971 8.04 243.501 8.48 243.901 9.04C244.321 9.6 244.621 10.26 244.801 11.02C244.981 11.76 245.071 12.56 245.071 13.42V22H241.471V13.84C241.471 13.4 241.431 12.98 241.351 12.58C241.271 12.16 241.131 11.8 240.931 11.5C240.731 11.18 240.461 10.93 240.121 10.75C239.781 10.57 239.341 10.48 238.801 10.48C238.241 10.48 237.761 10.59 237.361 10.81C236.981 11.01 236.661 11.29 236.401 11.65C236.161 11.99 235.981 12.39 235.861 12.85C235.761 13.29 235.711 13.74 235.711 14.2V22H232.111V13.42C232.111 12.52 231.921 11.81 231.541 11.29C231.161 10.75 230.531 10.48 229.651 10.48C229.051 10.48 228.541 10.58 228.121 10.78C227.721 10.98 227.381 11.25 227.101 11.59C226.841 11.93 226.651 12.32 226.531 12.76C226.411 13.2 226.351 13.66 226.351 14.14V22H222.751V7.6ZM258.005 20.02H257.915C257.395 20.84 256.735 21.44 255.935 21.82C255.135 22.18 254.255 22.36 253.295 22.36C252.635 22.36 251.985 22.27 251.345 22.09C250.725 21.91 250.165 21.64 249.665 21.28C249.185 20.92 248.795 20.47 248.495 19.93C248.195 19.39 248.045 18.76 248.045 18.04C248.045 17.26 248.185 16.6 248.465 16.06C248.745 15.5 249.115 15.04 249.575 14.68C250.055 14.3 250.605 14 251.225 13.78C251.845 13.56 252.485 13.4 253.145 13.3C253.825 13.18 254.505 13.11 255.185 13.09C255.865 13.05 256.505 13.03 257.105 13.03H258.005V12.64C258.005 11.74 257.695 11.07 257.075 10.63C256.455 10.17 255.665 9.94 254.705 9.94C253.945 9.94 253.235 10.08 252.575 10.36C251.915 10.62 251.345 10.98 250.865 11.44L248.975 9.55C249.775 8.73 250.705 8.14 251.765 7.78C252.845 7.42 253.955 7.24 255.095 7.24C256.115 7.24 256.975 7.36 257.675 7.6C258.375 7.82 258.955 8.11 259.415 8.47C259.875 8.83 260.225 9.25 260.465 9.73C260.725 10.19 260.905 10.66 261.005 11.14C261.125 11.62 261.195 12.09 261.215 12.55C261.235 12.99 261.245 13.38 261.245 13.72V22H258.005V20.02ZM257.795 15.55H257.045C256.545 15.55 255.985 15.57 255.365 15.61C254.745 15.65 254.155 15.75 253.595 15.91C253.055 16.05 252.595 16.27 252.215 16.57C251.835 16.85 251.645 17.25 251.645 17.77C251.645 18.11 251.715 18.4 251.855 18.64C252.015 18.86 252.215 19.05 252.455 19.21C252.695 19.37 252.965 19.49 253.265 19.57C253.565 19.63 253.865 19.66 254.165 19.66C255.405 19.66 256.315 19.37 256.895 18.79C257.495 18.19 257.795 17.38 257.795 16.36V15.55ZM265.118 7.6H268.718V9.88H268.778C269.178 9.04 269.748 8.39 270.488 7.93C271.228 7.47 272.078 7.24 273.038 7.24C273.258 7.24 273.468 7.26 273.668 7.3C273.888 7.34 274.108 7.39 274.328 7.45V10.93C274.028 10.85 273.728 10.79 273.428 10.75C273.148 10.69 272.868 10.66 272.588 10.66C271.748 10.66 271.068 10.82 270.548 11.14C270.048 11.44 269.658 11.79 269.378 12.19C269.118 12.59 268.938 12.99 268.838 13.39C268.758 13.79 268.718 14.09 268.718 14.29V22H265.118V7.6ZM275.098 10.66V7.6H278.068V3.43H281.668V7.6H285.628V10.66H281.668V16.96C281.668 17.68 281.798 18.25 282.058 18.67C282.338 19.09 282.878 19.3 283.678 19.3C283.998 19.3 284.348 19.27 284.728 19.21C285.108 19.13 285.408 19.01 285.628 18.85V21.88C285.248 22.06 284.778 22.18 284.218 22.24C283.678 22.32 283.198 22.36 282.778 22.36C281.818 22.36 281.028 22.25 280.408 22.03C279.808 21.83 279.328 21.52 278.968 21.1C278.628 20.66 278.388 20.12 278.248 19.48C278.128 18.84 278.068 18.1 278.068 17.26V10.66H275.098ZM297.645 0.76H301.425V9.22H311.355V0.76H315.135V22H311.355V12.64H301.425V22H297.645V0.76ZM318.832 14.8C318.832 13.66 319.032 12.63 319.432 11.71C319.852 10.77 320.412 9.97 321.112 9.31C321.812 8.65 322.642 8.14 323.602 7.78C324.562 7.42 325.582 7.24 326.662 7.24C327.742 7.24 328.762 7.42 329.722 7.78C330.682 8.14 331.512 8.65 332.212 9.31C332.912 9.97 333.462 10.77 333.862 11.71C334.282 12.63 334.492 13.66 334.492 14.8C334.492 15.94 334.282 16.98 333.862 17.92C333.462 18.84 332.912 19.63 332.212 20.29C331.512 20.95 330.682 21.46 329.722 21.82C328.762 22.18 327.742 22.36 326.662 22.36C325.582 22.36 324.562 22.18 323.602 21.82C322.642 21.46 321.812 20.95 321.112 20.29C320.412 19.63 319.852 18.84 319.432 17.92C319.032 16.98 318.832 15.94 318.832 14.8ZM322.432 14.8C322.432 15.36 322.522 15.9 322.702 16.42C322.902 16.94 323.182 17.4 323.542 17.8C323.922 18.2 324.372 18.52 324.892 18.76C325.412 19 326.002 19.12 326.662 19.12C327.322 19.12 327.912 19 328.432 18.76C328.952 18.52 329.392 18.2 329.752 17.8C330.132 17.4 330.412 16.94 330.592 16.42C330.792 15.9 330.892 15.36 330.892 14.8C330.892 14.24 330.792 13.7 330.592 13.18C330.412 12.66 330.132 12.2 329.752 11.8C329.392 11.4 328.952 11.08 328.432 10.84C327.912 10.6 327.322 10.48 326.662 10.48C326.002 10.48 325.412 10.6 324.892 10.84C324.372 11.08 323.922 11.4 323.542 11.8C323.182 12.2 322.902 12.66 322.702 13.18C322.522 13.7 322.432 14.24 322.432 14.8ZM337.712 7.6H341.132V9.85H341.192C341.512 9.17 342.022 8.57 342.722 8.05C343.442 7.51 344.402 7.24 345.602 7.24C347.862 7.24 349.362 8.13 350.102 9.91C350.622 8.99 351.272 8.32 352.052 7.9C352.832 7.46 353.762 7.24 354.842 7.24C355.802 7.24 356.612 7.4 357.272 7.72C357.932 8.04 358.462 8.48 358.862 9.04C359.282 9.6 359.582 10.26 359.762 11.02C359.942 11.76 360.032 12.56 360.032 13.42V22H356.432V13.84C356.432 13.4 356.392 12.98 356.312 12.58C356.232 12.16 356.092 11.8 355.892 11.5C355.692 11.18 355.422 10.93 355.082 10.75C354.742 10.57 354.302 10.48 353.762 10.48C353.202 10.48 352.722 10.59 352.322 10.81C351.942 11.01 351.622 11.29 351.362 11.65C351.122 11.99 350.942 12.39 350.822 12.85C350.722 13.29 350.672 13.74 350.672 14.2V22H347.072V13.42C347.072 12.52 346.882 11.81 346.502 11.29C346.122 10.75 345.492 10.48 344.612 10.48C344.012 10.48 343.502 10.58 343.082 10.78C342.682 10.98 342.342 11.25 342.062 11.59C341.802 11.93 341.612 12.32 341.492 12.76C341.372 13.2 341.312 13.66 341.312 14.14V22H337.712V7.6ZM366.846 16.06C366.966 17.14 367.386 17.98 368.106 18.58C368.826 19.18 369.696 19.48 370.716 19.48C371.616 19.48 372.366 19.3 372.966 18.94C373.586 18.56 374.126 18.09 374.586 17.53L377.166 19.48C376.326 20.52 375.386 21.26 374.346 21.7C373.306 22.14 372.216 22.36 371.076 22.36C369.996 22.36 368.976 22.18 368.016 21.82C367.056 21.46 366.226 20.95 365.526 20.29C364.826 19.63 364.266 18.84 363.846 17.92C363.446 16.98 363.246 15.94 363.246 14.8C363.246 13.66 363.446 12.63 363.846 11.71C364.266 10.77 364.826 9.97 365.526 9.31C366.226 8.65 367.056 8.14 368.016 7.78C368.976 7.42 369.996 7.24 371.076 7.24C372.076 7.24 372.986 7.42 373.806 7.78C374.646 8.12 375.356 8.62 375.936 9.28C376.536 9.94 376.996 10.76 377.316 11.74C377.656 12.7 377.826 13.81 377.826 15.07V16.06H366.846ZM374.226 13.36C374.206 12.3 373.876 11.47 373.236 10.87C372.596 10.25 371.706 9.94 370.566 9.94C369.486 9.94 368.626 10.25 367.986 10.87C367.366 11.49 366.986 12.32 366.846 13.36H374.226Z" fill="white"/>
</svg>
