<svg width="202" height="23" viewBox="0 0 202 23" fill="none" xmlns="http://www.w3.org/2000/svg">
<path d="M6.776 1.424H9.174L15.884 17H12.716L11.264 13.436H4.51L3.102 17H0L6.776 1.424ZM10.296 11.06L7.898 4.724L5.456 11.06H10.296ZM24.1247 1.424H30.2627C31.2894 1.424 32.2794 1.58533 33.2327 1.908C34.1861 2.216 35.0294 2.69267 35.7627 3.338C36.4961 3.98333 37.0827 4.79733 37.5227 5.78C37.9627 6.748 38.1827 7.892 38.1827 9.212C38.1827 10.5467 37.9261 11.7053 37.4127 12.688C36.9141 13.656 36.2614 14.4627 35.4547 15.108C34.6627 15.7387 33.7754 16.2153 32.7927 16.538C31.8247 16.846 30.8714 17 29.9327 17H24.1247V1.424ZM28.9647 14.492C29.8301 14.492 30.6441 14.3967 31.4067 14.206C32.1841 14.0007 32.8587 13.6927 33.4307 13.282C34.0027 12.8567 34.4501 12.314 34.7727 11.654C35.1101 10.9793 35.2787 10.1653 35.2787 9.212C35.2787 8.27333 35.1321 7.46667 34.8387 6.792C34.5454 6.11733 34.1347 5.57467 33.6067 5.164C33.0934 4.73867 32.4774 4.43067 31.7587 4.24C31.0547 4.03467 30.2774 3.932 29.4267 3.932H26.8967V14.492H28.9647ZM42.6881 12.644C42.7761 13.436 43.0841 14.052 43.6121 14.492C44.1401 14.932 44.7781 15.152 45.5261 15.152C46.1861 15.152 46.7361 15.02 47.1761 14.756C47.6307 14.4773 48.0267 14.1327 48.3641 13.722L50.2561 15.152C49.6401 15.9147 48.9507 16.4573 48.1881 16.78C47.4254 17.1027 46.6261 17.264 45.7901 17.264C44.9981 17.264 44.2501 17.132 43.5461 16.868C42.8421 16.604 42.2334 16.23 41.7201 15.746C41.2067 15.262 40.7961 14.6827 40.4881 14.008C40.1947 13.3187 40.0481 12.556 40.0481 11.72C40.0481 10.884 40.1947 10.1287 40.4881 9.454C40.7961 8.76467 41.2067 8.178 41.7201 7.694C42.2334 7.21 42.8421 6.836 43.5461 6.572C44.2501 6.308 44.9981 6.176 45.7901 6.176C46.5234 6.176 47.1907 6.308 47.7921 6.572C48.4081 6.82133 48.9287 7.188 49.3541 7.672C49.7941 8.156 50.1314 8.75733 50.3661 9.476C50.6154 10.18 50.7401 10.994 50.7401 11.918V12.644H42.6881ZM48.1001 10.664C48.0854 9.88667 47.8434 9.278 47.3741 8.838C46.9047 8.38333 46.2521 8.156 45.4161 8.156C44.6241 8.156 43.9934 8.38333 43.5241 8.838C43.0694 9.29267 42.7907 9.90133 42.6881 10.664H48.1001ZM58.8409 9.366C58.3276 8.64733 57.6382 8.288 56.7729 8.288C56.4209 8.288 56.0762 8.376 55.7389 8.552C55.4016 8.728 55.2329 9.014 55.2329 9.41C55.2329 9.73267 55.3722 9.96733 55.6509 10.114C55.9296 10.2607 56.2816 10.3853 56.7069 10.488C57.1322 10.5907 57.5869 10.7007 58.0709 10.818C58.5696 10.9207 59.0316 11.0893 59.4569 11.324C59.8822 11.544 60.2342 11.852 60.5129 12.248C60.7916 12.644 60.9309 13.1867 60.9309 13.876C60.9309 14.5067 60.7916 15.042 60.5129 15.482C60.2489 15.9073 59.8969 16.252 59.4569 16.516C59.0316 16.78 58.5476 16.9707 58.0049 17.088C57.4622 17.2053 56.9196 17.264 56.3769 17.264C55.5556 17.264 54.8002 17.1467 54.1109 16.912C53.4216 16.6773 52.8056 16.252 52.2629 15.636L54.0229 13.986C54.3602 14.3673 54.7196 14.6827 55.1009 14.932C55.4969 15.1667 55.9736 15.284 56.5309 15.284C56.7216 15.284 56.9196 15.262 57.1249 15.218C57.3302 15.174 57.5209 15.1007 57.6969 14.998C57.8729 14.8953 58.0122 14.7707 58.1149 14.624C58.2322 14.4627 58.2909 14.2793 58.2909 14.074C58.2909 13.7073 58.1516 13.436 57.8729 13.26C57.5942 13.084 57.2422 12.9447 56.8169 12.842C56.3916 12.7247 55.9296 12.622 55.4309 12.534C54.9469 12.4313 54.4922 12.2773 54.0669 12.072C53.6416 11.852 53.2896 11.5513 53.0109 11.17C52.7322 10.7887 52.5929 10.2607 52.5929 9.586C52.5929 8.99933 52.7102 8.49333 52.9449 8.068C53.1942 7.628 53.5169 7.26867 53.9129 6.99C54.3089 6.71133 54.7636 6.506 55.2769 6.374C55.7902 6.242 56.3109 6.176 56.8389 6.176C57.5429 6.176 58.2396 6.30067 58.9289 6.55C59.6182 6.78467 60.1756 7.19533 60.6009 7.782L58.8409 9.366ZM63.0283 6.44H65.6683V17H63.0283V6.44ZM62.6543 2.854C62.6543 2.42867 62.8083 2.062 63.1163 1.754C63.4389 1.43133 63.8423 1.27 64.3263 1.27C64.8103 1.27 65.2136 1.424 65.5363 1.732C65.8736 2.02533 66.0423 2.39933 66.0423 2.854C66.0423 3.30867 65.8736 3.69 65.5363 3.998C65.2136 4.29133 64.8103 4.438 64.3263 4.438C63.8423 4.438 63.4389 4.284 63.1163 3.976C62.8083 3.65333 62.6543 3.27933 62.6543 2.854ZM79.5671 6.44V16.054C79.5671 17.0073 79.4498 17.8653 79.2151 18.628C78.9805 19.4053 78.6138 20.058 78.1151 20.586C77.6311 21.1287 77.0151 21.5467 76.2671 21.84C75.5191 22.1333 74.6318 22.28 73.6051 22.28C72.6225 22.28 71.6911 22.1553 70.8111 21.906C69.9311 21.6567 69.1171 21.202 68.3691 20.542L69.9531 18.386C70.4811 18.87 71.0311 19.244 71.6031 19.508C72.1751 19.772 72.8351 19.904 73.5831 19.904C74.2138 19.904 74.7418 19.816 75.1671 19.64C75.6071 19.464 75.9518 19.222 76.2011 18.914C76.4651 18.606 76.6485 18.232 76.7511 17.792C76.8685 17.3667 76.9271 16.89 76.9271 16.362V15.592H76.8831C76.5018 16.1053 75.9958 16.494 75.3651 16.758C74.7345 17.0073 74.0891 17.132 73.4291 17.132C72.6371 17.132 71.9185 16.9927 71.2731 16.714C70.6278 16.4207 70.0705 16.032 69.6011 15.548C69.1465 15.064 68.7945 14.492 68.5451 13.832C68.2958 13.172 68.1711 12.468 68.1711 11.72C68.1711 10.9427 68.2885 10.2167 68.5231 9.542C68.7578 8.86733 69.1025 8.28067 69.5571 7.782C70.0118 7.28333 70.5545 6.89467 71.1851 6.616C71.8305 6.32267 72.5638 6.176 73.3851 6.176C74.1331 6.176 74.8298 6.32267 75.4751 6.616C76.1205 6.90933 76.6338 7.37867 77.0151 8.024H77.0591V6.44H79.5671ZM73.9351 8.552C73.4658 8.552 73.0405 8.63267 72.6591 8.794C72.2778 8.94067 71.9478 9.15333 71.6691 9.432C71.4051 9.696 71.1925 10.026 71.0311 10.422C70.8845 10.8033 70.8111 11.2287 70.8111 11.698C70.8111 12.1233 70.8845 12.5193 71.0311 12.886C71.1925 13.2527 71.4125 13.5753 71.6911 13.854C71.9698 14.1327 72.2998 14.3527 72.6811 14.514C73.0625 14.6753 73.4731 14.756 73.9131 14.756C74.3971 14.756 74.8298 14.6753 75.2111 14.514C75.6071 14.3527 75.9371 14.14 76.2011 13.876C76.4798 13.5973 76.6925 13.2673 76.8391 12.886C76.9858 12.5047 77.0591 12.094 77.0591 11.654C77.0591 10.73 76.7805 9.982 76.2231 9.41C75.6658 8.838 74.9031 8.552 73.9351 8.552ZM82.5565 6.44H85.0645V8.134H85.1085C85.3579 7.606 85.7392 7.15133 86.2525 6.77C86.7659 6.374 87.4625 6.176 88.3425 6.176C89.0465 6.176 89.6405 6.29333 90.1245 6.528C90.6232 6.76267 91.0265 7.07067 91.3345 7.452C91.6425 7.83333 91.8625 8.27333 91.9945 8.772C92.1265 9.27067 92.1925 9.79133 92.1925 10.334V17H89.5525V11.654C89.5525 11.3607 89.5379 11.038 89.5085 10.686C89.4792 10.3193 89.3985 9.982 89.2665 9.674C89.1492 9.35133 88.9585 9.08733 88.6945 8.882C88.4305 8.662 88.0712 8.552 87.6165 8.552C87.1765 8.552 86.8025 8.62533 86.4945 8.772C86.2012 8.91867 85.9519 9.11667 85.7465 9.366C85.5559 9.61533 85.4165 9.90133 85.3285 10.224C85.2405 10.5467 85.1965 10.884 85.1965 11.236V17H82.5565V6.44ZM112.633 5.076C112.061 4.46 111.504 4.04933 110.961 3.844C110.433 3.63867 109.898 3.536 109.355 3.536C108.548 3.536 107.815 3.68267 107.155 3.976C106.51 4.25467 105.952 4.65067 105.483 5.164C105.014 5.66267 104.647 6.24933 104.383 6.924C104.134 7.59867 104.009 8.32467 104.009 9.102C104.009 9.938 104.134 10.708 104.383 11.412C104.647 12.116 105.014 12.7247 105.483 13.238C105.952 13.7513 106.51 14.1547 107.155 14.448C107.815 14.7413 108.548 14.888 109.355 14.888C109.986 14.888 110.594 14.7413 111.181 14.448C111.782 14.14 112.34 13.656 112.853 12.996L115.141 14.624C114.437 15.592 113.579 16.296 112.567 16.736C111.555 17.176 110.477 17.396 109.333 17.396C108.13 17.396 107.023 17.2053 106.011 16.824C105.014 16.428 104.148 15.878 103.415 15.174C102.696 14.4553 102.132 13.5973 101.721 12.6C101.31 11.6027 101.105 10.4953 101.105 9.278C101.105 8.03133 101.31 6.902 101.721 5.89C102.132 4.86333 102.696 3.99067 103.415 3.272C104.148 2.55333 105.014 2.00333 106.011 1.622C107.023 1.226 108.13 1.028 109.333 1.028C110.389 1.028 111.364 1.21867 112.259 1.6C113.168 1.96667 114.012 2.59733 114.789 3.492L112.633 5.076ZM119.4 7.914H119.444C119.649 7.474 120.008 7.078 120.522 6.726C121.05 6.35933 121.724 6.176 122.546 6.176C123.25 6.176 123.844 6.29333 124.328 6.528C124.826 6.76267 125.23 7.07067 125.538 7.452C125.846 7.83333 126.066 8.27333 126.198 8.772C126.33 9.27067 126.396 9.79133 126.396 10.334V17H123.756V11.654C123.756 11.3607 123.741 11.038 123.712 10.686C123.682 10.3193 123.602 9.982 123.47 9.674C123.352 9.35133 123.162 9.08733 122.898 8.882C122.634 8.662 122.274 8.552 121.82 8.552C121.38 8.552 121.006 8.62533 120.698 8.772C120.404 8.91867 120.155 9.11667 119.95 9.366C119.759 9.61533 119.62 9.90133 119.532 10.224C119.444 10.5467 119.4 10.884 119.4 11.236V17H116.76V0.367999H119.4V7.914ZM135.992 15.548H135.926C135.545 16.1493 135.061 16.5893 134.474 16.868C133.888 17.132 133.242 17.264 132.538 17.264C132.054 17.264 131.578 17.198 131.108 17.066C130.654 16.934 130.243 16.736 129.876 16.472C129.524 16.208 129.238 15.878 129.018 15.482C128.798 15.086 128.688 14.624 128.688 14.096C128.688 13.524 128.791 13.04 128.996 12.644C129.202 12.2333 129.473 11.896 129.81 11.632C130.162 11.3533 130.566 11.1333 131.02 10.972C131.475 10.8107 131.944 10.6933 132.428 10.62C132.927 10.532 133.426 10.4807 133.924 10.466C134.423 10.4367 134.892 10.422 135.332 10.422H135.992V10.136C135.992 9.476 135.765 8.98467 135.31 8.662C134.856 8.32467 134.276 8.156 133.572 8.156C133.015 8.156 132.494 8.25867 132.01 8.464C131.526 8.65467 131.108 8.91867 130.756 9.256L129.37 7.87C129.957 7.26867 130.639 6.836 131.416 6.572C132.208 6.308 133.022 6.176 133.858 6.176C134.606 6.176 135.237 6.264 135.75 6.44C136.264 6.60133 136.689 6.814 137.026 7.078C137.364 7.342 137.62 7.65 137.796 8.002C137.987 8.33933 138.119 8.684 138.192 9.036C138.28 9.388 138.332 9.73267 138.346 10.07C138.361 10.3927 138.368 10.6787 138.368 10.928V17H135.992V15.548ZM135.838 12.27H135.288C134.922 12.27 134.511 12.2847 134.056 12.314C133.602 12.3433 133.169 12.4167 132.758 12.534C132.362 12.6367 132.025 12.798 131.746 13.018C131.468 13.2233 131.328 13.5167 131.328 13.898C131.328 14.1473 131.38 14.36 131.482 14.536C131.6 14.6973 131.746 14.8367 131.922 14.954C132.098 15.0713 132.296 15.1593 132.516 15.218C132.736 15.262 132.956 15.284 133.176 15.284C134.086 15.284 134.753 15.0713 135.178 14.646C135.618 14.206 135.838 13.612 135.838 12.864V12.27ZM141.253 0.367999H143.893V17H141.253V0.367999ZM146.989 0.367999H149.629V17H146.989V0.367999ZM154.772 12.644C154.86 13.436 155.168 14.052 155.696 14.492C156.224 14.932 156.862 15.152 157.61 15.152C158.27 15.152 158.82 15.02 159.26 14.756C159.715 14.4773 160.111 14.1327 160.448 13.722L162.34 15.152C161.724 15.9147 161.035 16.4573 160.272 16.78C159.509 17.1027 158.71 17.264 157.874 17.264C157.082 17.264 156.334 17.132 155.63 16.868C154.926 16.604 154.317 16.23 153.804 15.746C153.291 15.262 152.88 14.6827 152.572 14.008C152.279 13.3187 152.132 12.556 152.132 11.72C152.132 10.884 152.279 10.1287 152.572 9.454C152.88 8.76467 153.291 8.178 153.804 7.694C154.317 7.21 154.926 6.836 155.63 6.572C156.334 6.308 157.082 6.176 157.874 6.176C158.607 6.176 159.275 6.308 159.876 6.572C160.492 6.82133 161.013 7.188 161.438 7.672C161.878 8.156 162.215 8.75733 162.45 9.476C162.699 10.18 162.824 10.994 162.824 11.918V12.644H154.772ZM160.184 10.664C160.169 9.88667 159.927 9.278 159.458 8.838C158.989 8.38333 158.336 8.156 157.5 8.156C156.708 8.156 156.077 8.38333 155.608 8.838C155.153 9.29267 154.875 9.90133 154.772 10.664H160.184ZM165.293 6.44H167.801V8.134H167.845C168.094 7.606 168.476 7.15133 168.989 6.77C169.502 6.374 170.199 6.176 171.079 6.176C171.783 6.176 172.377 6.29333 172.861 6.528C173.36 6.76267 173.763 7.07067 174.071 7.452C174.379 7.83333 174.599 8.27333 174.731 8.772C174.863 9.27067 174.929 9.79133 174.929 10.334V17H172.289V11.654C172.289 11.3607 172.274 11.038 172.245 10.686C172.216 10.3193 172.135 9.982 172.003 9.674C171.886 9.35133 171.695 9.08733 171.431 8.882C171.167 8.662 170.808 8.552 170.353 8.552C169.913 8.552 169.539 8.62533 169.231 8.772C168.938 8.91867 168.688 9.11667 168.483 9.366C168.292 9.61533 168.153 9.90133 168.065 10.224C167.977 10.5467 167.933 10.884 167.933 11.236V17H165.293V6.44ZM188.794 6.44V16.054C188.794 17.0073 188.676 17.8653 188.442 18.628C188.207 19.4053 187.84 20.058 187.342 20.586C186.858 21.1287 186.242 21.5467 185.494 21.84C184.746 22.1333 183.858 22.28 182.832 22.28C181.849 22.28 180.918 22.1553 180.038 21.906C179.158 21.6567 178.344 21.202 177.596 20.542L179.18 18.386C179.708 18.87 180.258 19.244 180.83 19.508C181.402 19.772 182.062 19.904 182.81 19.904C183.44 19.904 183.968 19.816 184.394 19.64C184.834 19.464 185.178 19.222 185.428 18.914C185.692 18.606 185.875 18.232 185.978 17.792C186.095 17.3667 186.154 16.89 186.154 16.362V15.592H186.11C185.728 16.1053 185.222 16.494 184.592 16.758C183.961 17.0073 183.316 17.132 182.656 17.132C181.864 17.132 181.145 16.9927 180.5 16.714C179.854 16.4207 179.297 16.032 178.828 15.548C178.373 15.064 178.021 14.492 177.772 13.832C177.522 13.172 177.398 12.468 177.398 11.72C177.398 10.9427 177.515 10.2167 177.75 9.542C177.984 8.86733 178.329 8.28067 178.784 7.782C179.238 7.28333 179.781 6.89467 180.412 6.616C181.057 6.32267 181.79 6.176 182.612 6.176C183.36 6.176 184.056 6.32267 184.702 6.616C185.347 6.90933 185.86 7.37867 186.242 8.024H186.286V6.44H188.794ZM183.162 8.552C182.692 8.552 182.267 8.63267 181.886 8.794C181.504 8.94067 181.174 9.15333 180.896 9.432C180.632 9.696 180.419 10.026 180.258 10.422C180.111 10.8033 180.038 11.2287 180.038 11.698C180.038 12.1233 180.111 12.5193 180.258 12.886C180.419 13.2527 180.639 13.5753 180.918 13.854C181.196 14.1327 181.526 14.3527 181.908 14.514C182.289 14.6753 182.7 14.756 183.14 14.756C183.624 14.756 184.056 14.6753 184.438 14.514C184.834 14.3527 185.164 14.14 185.428 13.876C185.706 13.5973 185.919 13.2673 186.066 12.886C186.212 12.5047 186.286 12.094 186.286 11.654C186.286 10.73 186.007 9.982 185.45 9.41C184.892 8.838 184.13 8.552 183.162 8.552ZM193.895 12.644C193.983 13.436 194.291 14.052 194.819 14.492C195.347 14.932 195.985 15.152 196.733 15.152C197.393 15.152 197.943 15.02 198.383 14.756C198.838 14.4773 199.234 14.1327 199.571 13.722L201.463 15.152C200.847 15.9147 200.158 16.4573 199.395 16.78C198.632 17.1027 197.833 17.264 196.997 17.264C196.205 17.264 195.457 17.132 194.753 16.868C194.049 16.604 193.44 16.23 192.927 15.746C192.414 15.262 192.003 14.6827 191.695 14.008C191.402 13.3187 191.255 12.556 191.255 11.72C191.255 10.884 191.402 10.1287 191.695 9.454C192.003 8.76467 192.414 8.178 192.927 7.694C193.44 7.21 194.049 6.836 194.753 6.572C195.457 6.308 196.205 6.176 196.997 6.176C197.73 6.176 198.398 6.308 198.999 6.572C199.615 6.82133 200.136 7.188 200.561 7.672C201.001 8.156 201.338 8.75733 201.573 9.476C201.822 10.18 201.947 10.994 201.947 11.918V12.644H193.895ZM199.307 10.664C199.292 9.88667 199.05 9.278 198.581 8.838C198.112 8.38333 197.459 8.156 196.623 8.156C195.831 8.156 195.2 8.38333 194.731 8.838C194.276 9.29267 193.998 9.90133 193.895 10.664H199.307Z" fill="white" fill-opacity="0.8"/>
</svg>
