<svg width="25" height="25" viewBox="0 0 25 25" fill="none" xmlns="http://www.w3.org/2000/svg">
<circle cx="12.5" cy="12.5" r="12.5" fill="#CFDDE6"/>
<path d="M19.0023 15.1647C19.0298 15.3534 18.9655 15.5174 18.8095 15.6568L16.9779 17.2806C16.8953 17.3626 16.7874 17.4323 16.6543 17.4897C16.5212 17.5471 16.3904 17.584 16.2619 17.6004C16.2527 17.6004 16.2251 17.6025 16.1792 17.6066C16.1333 17.6107 16.0737 17.6128 16.0002 17.6128C15.8257 17.6128 15.5434 17.5861 15.1532 17.5328C14.763 17.4795 14.2857 17.3482 13.7211 17.1392C13.1564 16.93 12.5161 16.6163 11.8 16.1981C11.0839 15.7799 10.3219 15.2058 9.51396 14.4758C8.87131 13.91 8.33882 13.3687 7.91651 12.852C7.49419 12.3354 7.1545 11.8576 6.89744 11.4189C6.64036 10.9801 6.44756 10.5824 6.31903 10.2256C6.1905 9.86887 6.10328 9.56133 6.05738 9.303C6.01148 9.04466 5.99311 8.84168 6.0023 8.69406C6.01148 8.54644 6.01607 8.46443 6.01607 8.44803C6.03443 8.33322 6.07574 8.21635 6.14001 8.09743C6.20427 7.97852 6.28231 7.88215 6.37412 7.80834L8.20568 6.17222C8.33421 6.05741 8.4811 6 8.64636 6C8.76571 6 8.87129 6.03075 8.96309 6.09226C9.0549 6.15377 9.13294 6.22963 9.1972 6.31984L10.6707 8.81708C10.7533 8.9483 10.7763 9.09182 10.7396 9.24764C10.7029 9.40346 10.6248 9.53468 10.5055 9.64129L9.83068 10.2441C9.81232 10.2605 9.79625 10.2871 9.78248 10.324C9.76871 10.3609 9.76182 10.3917 9.76182 10.4163C9.79854 10.5885 9.88117 10.7853 10.0097 11.0068C10.1199 11.2036 10.2897 11.4435 10.5192 11.7264C10.7488 12.0094 11.0747 12.3353 11.497 12.7044C11.9101 13.0817 12.2774 13.3748 12.5987 13.584C12.9199 13.793 13.1886 13.9469 13.4043 14.0453C13.6201 14.1437 13.7853 14.2032 13.9001 14.2236L14.0721 14.2544C14.0905 14.2544 14.1204 14.2482 14.1617 14.2359C14.203 14.2236 14.2328 14.2093 14.2512 14.1928L15.0362 13.4794C15.2015 13.3482 15.3942 13.2825 15.6146 13.2825C15.7707 13.2825 15.8946 13.3071 15.9864 13.3564H16.0001L18.6579 14.7587C18.8508 14.8654 18.9655 15.0007 19.0023 15.1647Z" fill="white"/>
</svg>
