<svg width="30" height="30" viewBox="0 0 30 30" fill="none" xmlns="http://www.w3.org/2000/svg">
<path d="M15 30C23.2618 30 30 23.2615 30 15C30 6.73816 23.2618 0 15 0C6.73816 0 0 6.73846 0 15C0 23.2615 6.73846 30 15 30Z" fill="#FF757C"/>
<path d="M15 7.47913C22.3322 7.47913 28.2755 13.4227 28.2755 20.7547C28.2755 21.215 28.252 21.6697 28.2065 22.1178C25.6715 26.8111 20.7084 30 15 30C9.29156 30 4.32873 26.8114 1.79373 22.1181C1.74797 21.6699 1.72447 21.215 1.72447 20.7547C1.72447 13.4225 7.66834 7.47913 15 7.47913Z" fill="#0E7886"/>
<path d="M23.2943 10.3896C25.763 12.3677 27.5099 15.2085 28.0769 18.4557C28.0368 18.3943 27.996 18.3136 27.9548 18.1941C27.6956 18.279 27.6872 18.286 27.3811 18.337L27.3675 18.3557C27.2458 18.5292 27.3738 18.4558 27.1597 18.6366C26.9051 18.8509 26.7391 19.1434 26.4544 19.3169C26.42 19.6201 26.4796 19.6883 26.4033 20.0487C26.3735 20.1816 26.2247 20.5389 26.0504 20.5118C25.9952 20.5015 25.7613 19.9229 25.7061 19.763C25.6125 19.4907 25.5064 19.2899 25.4385 18.9768C25.4003 18.8098 25.3746 18.4899 25.3365 18.3776C25.1538 18.4046 25.1619 18.5207 24.9876 18.3981C24.8644 18.3094 24.9199 18.2552 24.8515 18.1223C24.7072 17.9862 24.5584 17.8501 24.4098 17.7139C24.2948 17.6766 23.8529 17.741 23.6655 17.7207C23.33 17.6898 23.3004 17.7104 23.1008 17.4417C22.7476 17.459 22.7776 17.5913 22.4331 17.2952C22.2079 17.1047 22.2504 16.7984 21.9232 16.9718C21.9108 17.2509 22.0466 17.3126 22.1698 17.4417C22.2588 17.5404 22.3695 17.6084 22.416 17.741C22.4204 17.7448 22.4417 17.8703 22.4461 17.8874C22.7649 17.9079 22.8412 17.755 23.0155 17.6257C23.1857 17.7854 23.0198 17.813 23.2664 17.9385C23.4618 18.0376 23.4237 17.9797 23.5508 18.1393C23.6147 18.3537 23.1135 18.9358 22.9473 19.0413C22.8199 19.1231 22.7522 19.0754 22.6372 19.1702C22.4672 19.3136 22.6585 19.293 22.3611 19.4018C22.0423 19.5177 21.7275 19.7626 21.392 19.7832C21.3197 19.5854 21.2475 19.3851 21.1752 19.1843C20.9625 18.5002 20.9711 18.7656 20.7541 18.4116C20.6521 18.2582 20.6945 18.1597 20.6266 18.0235C20.5795 17.9215 20.5078 17.8771 20.4437 17.7516C20.346 17.5575 20.2315 17.2547 20.0061 17.2853C19.9592 17.4382 20.2142 17.9556 20.2778 18.0814C20.3416 18.2075 20.4436 18.262 20.4734 18.4424C20.5159 18.6906 20.465 18.6598 20.6008 18.8265C20.8858 19.1699 20.5881 19.109 21.0303 19.4457C21.3616 19.6979 21.2769 19.7726 21.4171 20.1098C21.6339 20.1707 22.2799 19.8819 22.39 19.9669C22.5217 20.2015 22.2373 20.5758 22.1651 20.7801C21.9269 21.4642 21.5104 21.4542 21.1916 21.9782C21.0176 22.261 20.9367 22.2983 20.7751 22.6387C20.5922 23.0233 21.1448 24.0885 20.8135 24.5348C20.7413 24.6366 20.5075 24.698 20.2144 25.0079C19.9039 25.3445 20.2227 25.2869 20.1037 25.8482C20.0103 25.9775 19.8956 25.9843 19.7808 26.0766C19.7383 26.2089 19.7725 26.3142 19.6999 26.4779C19.6233 26.6752 19.6108 26.5697 19.4999 26.7299C19.4193 26.8554 19.4279 26.9066 19.3343 27.0224C19.2537 27.1283 19.2109 27.1583 19.1348 27.2268C18.7649 27.5672 17.97 27.5772 17.9021 27.5296C17.7149 27.3699 17.8426 27.329 17.796 27.1044C17.7506 26.9068 17.6458 26.7415 17.5584 26.5891L17.5495 26.5734C17.5073 26.4987 17.4689 26.427 17.4475 26.3588C17.2943 25.8755 17.3498 25.5085 17.0822 25.0181C16.7463 24.3848 17.2689 24.055 17.2475 23.6974C17.2392 23.6021 17.2053 23.5443 17.1964 23.4693C17.1328 23.0744 17.0949 22.7207 16.8313 22.4108C16.542 22.0741 16.5804 22.193 16.6738 21.6384C16.7926 21.0019 16.5208 21.1651 16.1382 21.1483C15.9509 20.57 15.5853 20.8519 15.22 21.0224C14.9902 21.1277 14.9055 20.9918 14.646 21.0292C14.0679 21.1074 14.5228 21.3561 13.7491 20.7434C13.4259 20.4879 13.6427 20.6173 13.4517 20.2974C13.3881 20.1816 13.1924 20.0287 13.1028 19.9126C12.8097 19.5451 13.1583 19.174 13.1071 18.7521C13.0178 17.9692 12.8903 18.6498 13.3283 17.7037C13.558 17.2 13.9063 17.1968 13.9959 16.9719C14.0725 16.7713 14.0214 16.6282 14.1659 16.4444C14.2934 16.2948 14.4763 16.3254 14.5486 16.0905C14.6506 15.8012 14.455 15.7641 14.2425 15.7568C14.1534 15.454 14.1534 15.5286 14.2211 15.2496C14.2595 15.0929 14.2254 15.0179 14.2595 14.8615C14.3445 14.4702 15.0119 14.8583 15.2033 14.6981C15.2923 14.5314 15.3053 14.3682 15.2033 14.2079C15.0966 14.048 14.9567 14.0683 14.8844 13.9154C15.046 13.8066 14.9269 13.9018 15.0671 13.871C15.2328 13.8337 15.2114 13.7858 15.407 13.7487C15.5816 13.7143 15.6923 13.5546 15.862 13.4459C16.1042 13.2892 15.9894 13.1493 16.2828 13.1021C16.7545 13.0202 16.4484 13.0339 16.4998 12.5947C16.5718 12.5677 16.6397 12.5365 16.7076 12.5062C16.8565 12.7003 16.6695 12.6221 16.8479 12.7512C16.8947 12.7241 16.9499 12.697 17.001 12.67C16.9753 12.4586 16.8779 12.4994 16.814 12.2378C16.5801 12.2751 16.4952 12.4724 16.3082 12.401C16.1255 12.333 16.1169 12.0708 16.1255 11.8529C16.1934 11.6897 16.5333 11.6013 16.6649 11.5601C16.8779 11.4887 16.8478 11.3458 17.0432 11.1515C17.2984 10.8963 17.1111 11.155 17.2345 10.8251C17.5152 10.8146 17.3833 10.8046 17.549 10.7196L17.5574 10.7164L17.5744 10.7093C17.6724 10.665 17.7998 10.655 17.9273 10.6109C18.3947 10.4544 18.586 10.5326 18.9259 10.6717C19.1896 10.7808 19.9844 10.7841 20.0439 11.118C19.8528 11.3183 19.6701 11.1721 19.3936 11.1894C19.4444 11.4479 19.4656 11.4479 19.6997 11.5193C19.7381 11.3967 19.6826 11.4446 19.7465 11.3661C19.8231 11.3832 19.8997 11.3967 19.976 11.4108C20.0529 11.1485 20.1419 11.1861 20.4015 11.1553C20.3587 10.9748 20.3119 11.0259 20.4096 10.8831C20.6778 10.9107 20.4608 10.8869 20.5925 11.1012C20.7796 11.0771 20.9625 10.8695 21.2215 10.8425C21.383 10.8254 21.3746 10.8868 21.6039 10.8627C21.7909 10.8425 21.7822 10.7743 21.9698 10.8527C22.0374 10.7266 21.9698 10.7299 22.1354 10.6996C22.3901 10.6552 22.6114 10.8116 22.8578 10.846C22.6754 10.6216 22.5008 10.6655 22.7262 10.2912C23.0109 10.2333 23.0364 10.2742 23.1598 10.4888C23.2296 10.4495 23.2594 10.4101 23.294 10.39L23.2943 10.3896ZM8.99765 28.7497C8.55544 28.5565 8.1246 28.3424 7.70595 28.1091C7.70079 28.0918 7.69622 28.0728 7.69212 28.0509C7.62855 27.6729 7.79009 27.632 7.6112 27.0022C7.49401 26.5857 7.54112 25.599 7.41714 25.0932C7.39739 25.0126 7.37302 24.9441 7.34355 24.8918C7.22882 24.7016 6.94816 24.6131 6.72327 24.4597C6.71026 24.4567 6.70189 24.4529 6.69784 24.4461C6.38741 24.2283 6.09409 23.3739 5.84753 23.0543C5.73304 22.9008 5.66079 22.9687 5.60964 22.7274C5.55444 22.5063 5.63941 22.5439 5.71194 22.3596C5.3336 21.6654 6.20067 21.6755 6.02237 20.8416C5.98394 20.6885 5.87378 20.4741 5.78015 20.4064C5.60155 20.4847 5.68622 20.5285 5.59288 20.6784C5.44862 20.5967 5.30413 20.5147 5.16392 20.4335C4.72605 20.0113 4.9596 20.3174 4.83673 20.0419C4.57312 19.4633 4.32198 19.787 4.00751 19.5009C3.86706 19.3816 3.84163 19.1943 3.60808 19.2287C3.25517 19.2763 3.45058 19.3307 3.08525 19.1602C2.77482 19.0138 2.45196 18.8439 2.23493 18.6463C2.22655 18.34 2.33724 18.3261 2.14587 18.0406C2.11206 17.9876 2.07386 17.9383 2.03519 17.8912C2.63325 15.17 4.06546 12.7619 6.05079 10.9487C6.20507 11.0026 6.40909 10.9671 6.56226 10.9609C6.61722 10.8589 6.65132 10.7701 6.74929 10.7327C6.78743 10.7192 6.83425 10.716 6.89788 10.7192C6.90626 10.7698 6.91927 10.8212 6.93198 10.8721C6.93198 10.8759 6.94065 10.9097 6.93632 10.903C6.94065 10.896 6.9447 10.9233 6.94874 10.9333C7.21692 10.7768 6.99151 10.7733 7.13577 10.4908C6.9106 10.4464 6.94036 10.4735 6.79991 10.3306C6.93632 10.181 7.19935 10.1298 7.39505 10.1436C7.38204 10.28 7.31847 10.2765 7.36985 10.392C7.52278 10.2967 7.62913 10.0418 7.8754 10.0892C7.92222 10.123 7.97771 10.1539 8.02856 10.1845C7.90083 10.3035 7.70976 10.3106 7.54411 10.3785C7.47157 11.1173 7.77796 10.4979 7.67566 11.005C7.85835 10.9915 8.03694 10.8586 8.10485 10.7225C8.03694 10.634 7.93898 10.634 7.88401 10.5284C7.92679 10.3923 8.01825 10.2892 8.14763 10.2278C8.23505 10.1863 8.33952 10.1642 8.45806 10.1642C9.80958 10.1745 9.16763 10.2356 9.5844 10.4265C9.67774 10.4671 9.84339 10.4879 9.89888 10.5694C9.98384 10.6987 9.90321 10.821 10.0391 10.9233C10.1582 11.0118 10.1752 10.9198 10.3325 11.1176C10.2987 11.2297 10.2177 11.3455 10.0521 11.349C9.82259 11.3522 9.95847 11.1956 9.7119 11.2196C9.71653 11.4507 9.94575 11.5395 9.733 11.6654C9.54597 11.7779 9.6648 11.6248 9.52487 11.703C9.52054 11.7065 9.50782 11.7133 9.50378 11.7168C9.4954 11.7235 9.48673 11.7339 9.48239 11.7406C9.4572 11.7679 9.43558 11.7918 9.41472 11.8158C9.07481 11.7235 9.13868 11.7647 8.93437 11.54C8.85808 11.4551 8.8453 11.4345 8.70919 11.4448C8.62423 11.448 8.51378 11.4854 8.43286 11.4107C8.59874 11.2031 8.67966 11.4039 8.92189 11.281C8.96437 11.2605 9.23202 11.0532 9.2748 11.0052C9.20255 10.8418 9.26612 10.9777 9.1603 10.8724C8.92212 10.631 8.85368 10.6918 8.53136 10.6918C8.38007 10.8659 8.26692 11.081 8.10216 11.1755C8.00255 11.2326 7.88431 11.2455 7.72786 11.1787C7.80011 11.4715 7.98714 11.2469 8.0039 11.6006C7.88073 11.5768 7.81687 11.5154 7.68942 11.5598C7.4172 11.6618 7.65966 11.6515 7.68075 11.7062C7.68075 11.7097 7.80819 11.7233 7.68075 11.7709C7.5403 11.8218 7.65937 11.7436 7.38767 11.5836C7.42581 11.5157 7.46425 11.4442 7.50239 11.3728C7.28155 11.441 7.00499 11.5498 6.74601 11.6756C6.45239 11.822 6.1763 11.989 6.01042 12.1419C6.00609 12.3974 6.0529 12.2269 6.07862 12.5303C6.47372 12.5538 6.34628 12.6726 6.74167 12.7852C6.81773 12.8061 6.91593 12.8263 7.03505 12.8466C7.03505 13.0374 6.86483 13.1803 6.9836 13.3779C7.25993 13.5714 7.26831 13.1938 7.33651 12.9524C8.27208 12.757 7.8212 12.4821 8.0629 11.9674C8.09917 11.8905 8.15056 11.8085 8.22474 11.72C8.29675 11.7235 8.59007 11.7544 8.65394 11.7676C8.86663 11.8049 8.75191 11.8561 8.98142 11.9582C8.97708 12.1422 8.88374 12.3803 9.15567 12.3362C9.36403 12.2991 9.31751 12.1354 9.57216 12.0945C9.68665 12.3635 9.65712 12.4793 9.70804 12.8025C10.3202 13.0409 10.0479 13.2347 9.92888 13.681C10.0058 13.7183 10.0861 13.7524 10.1671 13.7863C10.163 13.9157 10.1584 14.0418 10.1543 14.1678C10.1416 14.1678 9.49944 14.0279 9.4572 14.0147C9.55487 13.7354 9.73353 13.7321 9.84825 13.4464C9.61874 13.487 9.63556 13.5584 9.46991 13.6096C9.32132 13.6539 9.20659 13.6231 9.04933 13.6437C8.99413 13.8272 9.04499 13.4835 9.06233 13.7181C9.07071 13.8068 9.11349 13.7219 9.05366 13.8169C8.84097 13.7181 8.91345 13.4867 8.51806 13.701C8.60735 13.7419 8.69642 13.7793 8.79005 13.8169C8.77763 14.0785 8.75624 13.8813 8.70099 14.0551C8.56487 14.5008 9.07065 14.225 9.20249 14.2015C9.16839 14.4364 9.0239 14.4364 8.81981 14.5008C8.59493 14.569 8.52673 14.661 8.34808 14.7019C8.34808 14.4226 8.30583 14.6575 8.4287 14.4637C8.25011 14.4804 8.11827 14.5622 7.94835 14.6339L7.93159 14.6404C7.71321 14.7295 7.68017 14.7427 7.65503 15.0217C7.468 15.0794 7.25126 15.1446 7.11942 15.2807C6.98788 15.4066 6.85581 15.5321 6.72808 15.6547C6.71565 15.665 6.70669 15.6753 6.69884 15.6821C6.74566 16.0325 6.69884 16.0393 6.48585 16.176C6.30749 16.2913 6.24796 16.288 6.08232 16.4344C5.55105 16.911 5.80628 16.6894 5.83552 17.5099C5.72513 17.4761 5.61901 17.4385 5.517 17.4011C5.43608 16.8563 5.54648 17.0371 5.1089 16.911C4.63692 16.7749 4.7005 17.0062 4.50515 17.0471C4.28835 17.0944 4.182 16.8495 3.86753 17.0538C3.69351 17.1726 3.52763 17.2511 3.48515 17.4619C3.43429 17.7174 3.3195 17.9041 3.33632 18.187C3.36638 18.9531 4.06323 18.997 4.24183 18.6397C4.36066 18.4015 4.33112 18.2722 4.71784 18.3334C4.75599 18.5377 4.69646 18.6874 4.6453 18.8441C4.6115 18.9359 4.51786 19.1026 4.56468 19.2289C4.84101 19.3413 4.84939 19.1299 5.21501 19.3478C5.24073 19.7118 5.04937 20.1201 5.32974 20.3313C5.54624 20.4912 5.55925 20.3483 5.75032 20.3145C5.96302 20.2772 5.92487 20.4098 6.12052 20.4406C6.23091 20.3042 6.18409 20.3897 6.25663 20.2225C6.38407 19.9337 6.41794 20.0695 6.71993 19.8928C6.7494 19.8758 6.77489 19.8584 6.80489 19.8381C6.8387 19.9096 6.87714 19.9778 6.91071 20.0457C7.13185 19.7838 7.15728 20.039 7.41245 20.1104C7.52232 20.1405 7.60024 20.1513 7.6606 20.1521C7.84599 20.1548 7.86491 20.0647 8.11798 20.1543C8.14804 20.1683 8.18618 20.1783 8.22028 20.1886C8.22433 20.1886 8.23704 20.1954 8.23704 20.2025C8.24167 20.206 8.25409 20.216 8.25843 20.2198C8.30091 20.2672 8.30554 20.3151 8.33935 20.366C8.5136 20.5326 8.68792 20.6996 8.8579 20.8628C9.19347 20.9957 9.19347 20.747 9.57614 21.1178C9.73769 21.2709 9.66521 21.2679 9.7545 21.465C9.76751 21.4959 9.79294 21.5262 9.8097 21.5638C9.8438 21.6558 9.88194 21.744 9.92038 21.8325C10.0944 22.0607 10.3325 21.9177 10.5748 22.1527C10.715 22.2888 10.6089 22.2479 10.919 22.3023C11.3993 22.3805 11.2126 22.3364 11.578 22.6121C11.7182 22.7142 11.752 22.6563 11.8838 22.7447C12.0667 22.9999 12.0199 23.2757 11.867 23.5004C11.3951 24.1878 11.5566 24.0755 11.5352 24.6202C11.5182 24.933 11.4289 25.5799 11.1355 25.6581C10.0689 25.958 10.6892 26.1655 10.4089 26.693C10.3283 26.8429 10.2684 26.8802 10.2176 26.9996C10.0054 27.4962 10.154 27.6632 9.52476 27.5508C9.58458 27.6561 9.54614 27.5846 9.60567 27.6799C9.79271 27.9692 9.82247 28.1873 9.4398 28.2582C9.12099 28.3196 9.2571 28.2582 9.22733 28.6122C9.10394 28.6634 9.04874 28.6122 8.96806 28.6939L8.99812 28.75L8.99765 28.7497ZM6.19634 10.8185C6.2786 10.8077 6.27831 10.772 6.49376 10.7197C6.47671 10.6483 6.4637 10.6483 6.44694 10.6212L6.44021 10.6077C6.35823 10.6769 6.27673 10.7476 6.19634 10.8188V10.8185V10.8185ZM17.5577 14.7654L17.5493 14.7595C17.5196 14.7392 17.49 14.7189 17.4646 14.6951C17.2776 14.5281 17.2389 14.3787 17.0311 14.416C17.0265 14.5727 17.0481 14.5792 17.1244 14.6815C17.4135 15.0423 17.3242 14.92 17.5493 15.0526L17.5577 15.0574C17.611 15.088 17.6727 15.1308 17.7574 15.1922C17.4684 15.4468 17.7363 15.4742 17.5577 15.5594L17.5493 15.5635C17.5319 15.57 17.5155 15.577 17.5028 15.5838C17.4429 15.4338 17.5748 15.5055 17.4218 15.2877C17.3369 15.1754 17.2562 15.1413 17.1244 15.0796C16.7926 14.9231 16.8354 14.8008 16.6314 14.5965C16.4016 14.6035 16.453 14.6749 16.2915 14.7567C16.096 14.8516 16.1258 14.7399 15.8961 14.7599C15.709 15.0903 15.9767 14.8145 15.6368 15.0868C15.2287 15.4031 15.5645 15.7333 14.9102 15.8324C14.8634 15.8391 14.8463 15.8324 14.7998 15.8491C14.6761 15.8933 14.7483 15.8559 14.6761 15.9274C14.7316 16.057 14.655 16.0362 14.8761 16.067C15.2798 16.1211 15.331 15.8729 15.6244 15.8115C15.7686 15.7809 16.6741 15.7433 16.7378 15.7604C16.9332 15.9785 16.7719 16.1317 16.7719 16.3152C16.9849 16.4275 17.2863 16.4548 17.4097 16.5707C17.5499 16.7033 17.482 16.6827 17.5499 16.7065L17.5583 16.7092C17.584 16.7166 17.6211 16.7298 17.686 16.7544C17.856 16.8121 17.8474 16.8462 18.03 16.8597C18.1959 16.3049 18.0257 16.3628 18.8248 16.6178C19.6578 16.8906 19.2838 16.6418 19.6367 16.6792C19.8112 16.6965 19.7644 16.7506 20.0066 16.72C20.0532 16.6247 20.3974 15.7601 19.9512 15.8692C19.8194 15.903 19.9089 15.9506 19.7217 15.903C19.5262 15.8524 19.7133 15.8147 19.4968 15.8451C19.2838 15.876 19.0291 16.0632 18.8632 15.4199C18.7996 15.1883 18.6846 14.9877 18.4213 15.3379C18.4892 15.457 18.536 15.4673 18.6124 15.5831C18.5913 15.6169 18.519 15.7022 18.4935 15.7295C18.3493 15.8725 18.5533 15.8045 18.3193 15.8348C18.1918 15.7396 18.2175 15.617 18.0941 15.447C17.8773 15.1301 18.0175 15.2768 17.9071 14.9737C17.8202 14.8974 17.676 14.8403 17.5582 14.7653H17.5577V14.7654ZM22.0973 23.9287C21.9105 24.024 21.8848 24.2421 21.7447 24.3644C21.5917 24.504 21.3874 24.4396 21.3282 24.6981C21.2516 25.0212 21.4556 24.9227 21.2305 25.3446C21.1499 25.501 21.1455 25.8923 21.2689 26.0085C21.6384 26.3654 21.8383 25.464 21.9233 25.1814C21.9872 24.9806 22.0467 24.7527 22.1146 24.5652C22.1825 24.3644 22.2803 24.1877 22.0973 23.9287ZM21.4854 14.4325C21.5151 14.8482 21.7614 15.0079 21.936 15.1984C21.9149 15.396 21.8678 15.3448 21.8721 15.6203C22.0805 15.7705 22.2331 15.862 22.5057 15.7876C22.5438 15.4539 22.4375 15.4706 22.3357 15.2427C22.3527 15.2154 22.3993 15.1816 22.4077 15.1748C22.4846 15.0728 22.4461 15.2154 22.4846 15.0419C22.2848 14.9776 21.9617 14.7729 21.9366 14.5045C22.0342 14.4262 22.0045 14.4736 22.0765 14.4262C22.2337 14.3239 22.1149 14.4804 22.2083 14.3069C22.1276 14.1504 22.0383 14.1231 21.8429 14.2014C21.758 14.2355 21.5325 14.3954 21.4857 14.4327L21.4854 14.4325ZM19.7468 14.5416C19.6153 14.3581 19.6234 14.2658 19.3685 14.2591C19.2667 14.3681 19.1477 14.5313 19.0925 14.6981C19.0075 14.95 19.067 14.7763 19.0754 15.0488C19.0711 15.0588 19.0754 15.0729 19.0754 15.0829C19.0711 15.2461 19.0326 15.052 19.0584 15.202C19.2583 15.1608 19.1055 15.1643 19.2543 15.1167C19.3945 15.0691 19.8237 14.9397 19.9471 14.9706C20.2402 15.0385 20.4868 15.2702 20.8185 15.0385C20.8012 14.7424 20.4442 14.6301 20.1977 14.5005C20.2107 14.2285 20.2827 14.4428 20.2656 14.1806C20.1807 14.1771 20.1295 14.1636 20.0488 14.1977C19.8575 14.2826 19.9639 14.3067 19.9639 14.3373C19.9723 14.4834 20.1552 14.3067 19.9598 14.4872C19.9046 14.5346 19.815 14.5346 19.7471 14.5416H19.7468V14.5416ZM14.7821 12.4791C14.774 12.9557 14.9396 12.7955 15.0966 13.0307C15.0246 13.2315 15.0117 13.075 14.9313 13.2823C14.859 13.456 14.948 13.2997 14.9012 13.6022C15.0246 13.6092 15.2073 13.5651 15.3688 13.5513C15.5986 13.5308 15.594 13.5105 15.6749 13.2755C15.5475 13.1191 15.42 12.9624 15.2882 12.806C15.122 12.5537 15.2882 12.7275 15.2374 12.5164C15.1992 12.4414 15.1648 12.367 15.131 12.2917C14.9099 12.3671 14.9313 12.3465 14.7821 12.4791Z" fill="#15BDB1"/>
<path d="M23.1831 11.6358L23.0545 11.5072L22.5246 10.9773L22.3961 10.8488C21.9779 11.0074 21.4545 11.6929 21.248 12.1253L21.3122 12.1897L21.8421 12.7197L21.9065 12.784C22.339 12.5773 23.0245 12.0541 23.1831 11.636V11.6358V11.6358Z" fill="#FBB429"/>
<path d="M23.1831 11.6358L23.0545 11.5072L22.5246 10.9773L22.3961 10.8488C22.2994 10.8856 22.1977 10.9502 22.0948 11.0333L22.9985 11.937C23.0815 11.8344 23.1462 11.7323 23.183 11.636V11.6358H23.1831Z" fill="white"/>
<path d="M24.0705 14.1556L23.9419 14.027L23.412 13.4971L23.2835 13.3685C22.8653 13.5271 22.3419 14.2126 22.1354 14.6451L22.1998 14.7095L22.7297 15.2394L22.7941 15.3038C23.2266 15.0971 23.9121 14.5739 24.0707 14.1556H24.0705V14.1556Z" fill="#FBB429"/>
<path d="M24.0705 14.1556L23.9419 14.0273L23.412 13.4972L23.2835 13.3689C23.1868 13.4055 23.0851 13.4701 22.9822 13.5535L23.8859 14.4571C23.9689 14.3545 24.0339 14.2525 24.0704 14.1559V14.1556H24.0705Z" fill="white"/>
<path d="M16.836 5.2887L16.9645 5.41725L17.4945 5.94717L17.623 6.07573C17.4644 6.49385 16.7789 7.01727 16.3464 7.22399L16.282 7.15959L15.7521 6.62967L15.6877 6.56528C15.8945 6.13309 16.4176 5.44731 16.8357 5.2887H16.836V5.2887Z" fill="#FBB429"/>
<path d="M16.836 5.2887L16.9645 5.41725L17.4945 5.94717L17.623 6.07573C17.5864 6.17235 17.5218 6.27436 17.4384 6.37696L16.5347 5.47327C16.6373 5.38989 16.7394 5.32526 16.836 5.2887Z" fill="white"/>
<path d="M14.3161 4.4016L14.4446 4.53016L14.9746 5.06008L15.1031 5.18863C14.9445 5.60676 14.259 6.13018 13.8265 6.33666L13.7621 6.27227L13.2322 5.74234L13.1678 5.67795C13.3746 5.24576 13.8977 4.55998 14.3159 4.40137L14.3161 4.4016Z" fill="#FBB429"/>
<path d="M14.3161 4.40161L14.4446 4.53017L14.9748 5.06009L15.1031 5.18864C15.0665 5.28526 15.0019 5.38728 14.9188 5.48987L14.0149 4.58618C14.1175 4.5028 14.2195 4.43812 14.3161 4.40161Z" fill="white"/>
<path d="M12.4339 16.3478L13.9887 18.5583L14.4845 17.9588L13.6046 15.6343C13.715 15.5391 13.5075 15.728 13.9616 15.3193C14.4157 14.9107 16.4111 13.0764 18.2184 11.6071L23.4234 18.965L23.8981 18.4903L21.021 9.31945C22.1969 8.35007 23.1068 7.57687 23.3519 7.29673C24.1013 6.44044 24.7792 5.29839 24.2442 4.22806C23.1736 3.69274 22.0318 4.37097 21.1755 5.12003C20.8952 5.36524 20.1223 6.27509 19.1528 7.45095L9.98197 4.57399L9.50731 5.04866L16.865 10.2537C15.396 12.0613 13.5614 14.0563 13.153 14.5105C12.7441 14.9646 12.9333 14.7571 12.838 14.8675L10.5135 13.9876L9.91406 14.4834L12.1246 16.0382C11.8845 16.4512 12.0212 16.5879 12.4342 16.3478H12.4339V16.3478Z" fill="white"/>
<path d="M12.4339 16.3477L13.9887 18.5582L14.1083 18.4137L12.6011 16.2324L12.4341 16.3477H12.4339V16.3477Z" fill="#C8CACC"/>
<path d="M10.0583 14.3637L9.91377 14.4834L12.1243 16.0382L12.2396 15.8712L10.058 14.3637H10.0583Z" fill="#C8CACC"/>
<path d="M18.2186 11.6068L23.4237 18.9648L23.6066 18.7815L18.5261 11.3559L18.2186 11.6068Z" fill="#C8CACC"/>
<path d="M9.68996 4.86536L9.50703 5.04858L16.8647 10.2536L17.1156 9.9462L9.68966 4.86565L9.68996 4.86536Z" fill="#C8CACC"/>
<path d="M23.7969 4.67492C23.6916 4.56963 23.5641 4.49551 23.4226 4.45139L23.3368 4.69092C23.4261 4.74424 23.51 4.80916 23.5866 4.88551C23.6629 4.96209 23.7278 5.046 23.7812 5.13506L24.0207 5.04928C23.9766 4.90801 23.9024 4.78057 23.7972 4.67498H23.7969V4.67492ZM23.2313 4.41078C23.0129 4.38453 22.7733 4.41893 22.536 4.5101C22.7498 4.49223 22.9646 4.52334 23.1619 4.60373L23.2313 4.41078ZM23.8683 5.31008C23.949 5.50737 23.9798 5.722 23.962 5.93604C24.0534 5.69868 24.0875 5.4592 24.0613 5.24077L23.8683 5.31008Z" fill="#15BDB1"/>
<path d="M10.8309 17.7886L10.8328 17.7867L10.8642 17.7564L10.8953 17.7263L10.927 17.6958L10.9586 17.6652L10.9903 17.6346L11.0222 17.6037L11.0541 17.5728L11.0864 17.5419L11.1188 17.5108L11.151 17.4797L11.1835 17.4483L11.216 17.4167L11.2487 17.385L11.2815 17.3531L11.3145 17.3212L11.3477 17.2892L11.381 17.257L11.4143 17.2248L11.4479 17.1923L11.4815 17.1596L11.5153 17.1268L11.5491 17.0941L11.5829 17.061L11.617 17.0277L11.6511 16.9944L11.6855 16.9609L11.7199 16.9273L11.7545 16.8935L11.7891 16.8594L11.8238 16.8253L11.6303 16.6283L11.5957 16.6621L11.5613 16.6959L11.5269 16.7295L11.4925 16.7633L11.4584 16.7966L11.4246 16.8299L11.3907 16.8629L11.3569 16.8959L11.3234 16.9286L11.2898 16.9611L11.2562 16.9936L11.2229 17.026L11.1897 17.0583L11.1564 17.0905L11.1234 17.1224L11.0904 17.1544L11.0576 17.186L11.0249 17.2174L10.9924 17.249L10.96 17.2804L10.9275 17.3116L10.8953 17.3427L10.8631 17.3735L10.8311 17.4044L10.7992 17.435L10.7673 17.4656L10.7356 17.4962L10.7042 17.5265L10.6728 17.5571L10.6414 17.5871L10.6395 17.589L10.8311 17.7879L10.8309 17.7886ZM26.304 17.6746L26.2712 17.7602L26.2385 17.8446L26.2057 17.9277L26.173 18.0094L26.14 18.09L26.1069 18.1693L26.0739 18.2475L26.0409 18.3244L26.0079 18.4002L25.9746 18.4746L25.9416 18.5482L25.9083 18.6204L25.8751 18.6913L25.8418 18.7612L25.8401 18.7644L26.0883 18.8859L26.0908 18.881L26.1249 18.8093L26.159 18.7366L26.1928 18.6627L26.2269 18.5877L26.2607 18.5117L26.2945 18.4343L26.3283 18.3558L26.3619 18.276L26.3954 18.1953L26.4292 18.1131L26.4625 18.0297L26.4961 17.9452L26.5294 17.8595L26.5627 17.7723L26.3045 17.6744L26.304 17.6746ZM25.455 19.4852L25.438 19.5133L25.4041 19.569L25.3703 19.6237L25.3365 19.6775L25.3024 19.73L25.2683 19.7815L25.2342 19.8321L25.2001 19.8816L25.166 19.9303L25.1319 19.9779L25.0978 20.0247L25.0634 20.0705L25.0293 20.1154L24.9949 20.1593L24.9605 20.2023L24.9259 20.2445L24.8915 20.2857L24.8571 20.326L24.8227 20.3652L24.7881 20.4039L24.7537 20.4415L24.7191 20.4783L24.6844 20.5143L24.6498 20.5494L24.6438 20.5554L24.8373 20.7527L24.8457 20.7443L24.8828 20.7067L24.9196 20.6683L24.9564 20.629L24.9932 20.5889L25.0297 20.5481L25.0663 20.5064L25.1026 20.4637L25.1388 20.4201L25.1751 20.3754L25.2114 20.3302L25.2474 20.284L25.2833 20.2369L25.3193 20.1889L25.355 20.1399L25.3908 20.0899L25.4265 20.039L25.462 19.9871L25.4977 19.9343L25.5329 19.8804L25.5683 19.8258L25.6035 19.77L25.6389 19.7132L25.6741 19.6553L25.6908 19.6269L25.4541 19.4846L25.455 19.4852ZM24.0223 21.0521L24.0215 21.0527L23.9861 21.074L23.9506 21.0949L23.9152 21.1149L23.8797 21.1344L23.844 21.1534L23.8085 21.1715L23.7728 21.1893L23.737 21.2064L23.7013 21.2229L23.6656 21.2389L23.6296 21.2543L23.5936 21.2692L23.5576 21.2836L23.5216 21.2976L23.4854 21.3109L23.4491 21.3239L23.4128 21.3363L23.3766 21.3482L23.34 21.3599L23.3034 21.3707L23.2666 21.3812L23.2301 21.3916L23.1933 21.401L23.1565 21.4102L23.1194 21.4189L23.0823 21.4273L23.0452 21.4352L23.0079 21.4427L22.9706 21.4497L22.9333 21.4565L22.8956 21.463L22.858 21.469L22.8204 21.4746L22.7825 21.48L22.7803 21.4803L22.8155 21.7545L22.8201 21.7537L22.8607 21.748L22.901 21.742L22.9411 21.7355L22.9814 21.7288L23.0217 21.7214L23.062 21.7139L23.1021 21.7057L23.1422 21.6971L23.182 21.6882L23.2221 21.6787L23.2621 21.6686L23.3022 21.6581L23.3423 21.6473L23.3818 21.6359L23.4216 21.624L23.4611 21.6116L23.5006 21.5986L23.5403 21.585L23.5798 21.571L23.6191 21.5564L23.6586 21.5412L23.6978 21.5255L23.7371 21.5093L23.7764 21.4922L23.8156 21.4746L23.8546 21.4565L23.8935 21.4378L23.9325 21.4186L23.9715 21.3986L24.0104 21.378L24.0491 21.3566L24.0878 21.3347L24.1265 21.3123L24.1649 21.289L24.1657 21.2885L24.0215 21.0531L24.0223 21.0521ZM21.972 21.5265H21.9674L21.9276 21.5262L21.8875 21.5257L21.8474 21.5252L21.8071 21.5243L21.7668 21.5235L21.7265 21.5225L21.6859 21.5214L21.6453 21.5201L21.6045 21.5187L21.5636 21.5174L21.5228 21.516L21.4819 21.5144L21.4408 21.5127L21.3994 21.5114L21.358 21.5097L21.3165 21.5081L21.2751 21.5062L21.2337 21.5046L21.192 21.5029L21.1504 21.5013L21.1084 21.4997L21.0665 21.498L21.0245 21.4964L20.9823 21.4947L20.94 21.4931L20.8975 21.4915L20.855 21.4901L20.8126 21.4888L20.7698 21.4874L20.727 21.4861L20.6842 21.485L20.6412 21.484L20.5982 21.4831L20.5939 21.4828L20.589 21.7592H20.5928L20.6351 21.76L20.6773 21.761L20.7196 21.7621L20.7615 21.7635L20.8038 21.7648L20.846 21.7661L20.888 21.7675L20.9299 21.7691L20.9719 21.7708L21.0138 21.7724L21.0555 21.7741L21.0972 21.7757L21.1388 21.7773L21.1805 21.779L21.2221 21.7806L21.2638 21.7823L21.3055 21.7839L21.3471 21.7855L21.3888 21.7872L21.4302 21.7888L21.4716 21.7905L21.5133 21.7921L21.5544 21.7935L21.5958 21.7948L21.6373 21.7961L21.6787 21.7972L21.7201 21.7983L21.7615 21.7993L21.8027 21.8001L21.8438 21.801L21.8849 21.8015L21.9261 21.802L21.9672 21.8023H21.9718L21.9729 21.526L21.972 21.5265ZM19.7517 21.5019L19.716 21.5046L19.671 21.5084L19.6256 21.5124L19.5806 21.5168L19.5352 21.5214L19.4897 21.5266L19.4442 21.5319L19.3988 21.5376L19.353 21.5436L19.3072 21.5503L19.2612 21.5574L19.2152 21.5649L19.1692 21.5725L19.1232 21.5809L19.077 21.5895L19.0307 21.5985L18.9841 21.6079L18.9376 21.618L18.8911 21.6285L18.8443 21.6396L18.7975 21.6512L18.7504 21.6631L18.7035 21.6753L18.6564 21.6883L18.6093 21.7019L18.5622 21.7159L18.5149 21.7305L18.4675 21.7457L18.4199 21.7614L18.3723 21.7779L18.366 21.7801L18.4597 22.0402L18.4635 22.0388L18.5084 22.0234L18.5531 22.0088L18.5977 21.9945L18.6424 21.9807L18.687 21.9677L18.7317 21.9546L18.776 21.9425L18.8204 21.9306L18.8647 21.9192L18.9091 21.9084L18.9532 21.8978L18.9973 21.8881L19.0415 21.8786L19.0853 21.8697L19.1291 21.861L19.1732 21.8529L19.2171 21.8453L19.2609 21.8377L19.3047 21.8307L19.3483 21.8242L19.3921 21.818L19.4357 21.812L19.4793 21.8066L19.5229 21.8015L19.5662 21.7966L19.6095 21.792L19.6531 21.7876L19.6961 21.7838L19.7394 21.7803L19.7752 21.7776L19.7535 21.5021L19.7517 21.5019ZM17.5894 22.1305L17.5526 22.1511L17.5036 22.1792L17.4546 22.2082L17.4056 22.2377L17.3564 22.2682L17.3074 22.2993L17.2581 22.3313L17.2091 22.3637L17.1598 22.3973L17.1106 22.4314L17.061 22.4666L17.0115 22.5026L16.9623 22.5393L16.9127 22.5767L16.8632 22.6151L16.8137 22.6544L16.7639 22.6944L16.7141 22.7353L16.6643 22.7769L16.6143 22.8194L16.5642 22.8633L16.5144 22.9076L16.4644 22.9528L16.452 22.9644L16.6403 23.1666L16.6509 23.1571L16.699 23.1133L16.7472 23.0705L16.7951 23.0288L16.8431 22.988L16.8907 22.9479L16.9386 22.9087L16.986 22.8702L17.0336 22.8329L17.081 22.7963L17.1283 22.7604L17.1757 22.7252L17.2228 22.6911L17.2699 22.6578L17.317 22.6251L17.3638 22.5934L17.4106 22.5623L17.4574 22.532L17.5042 22.5026L17.5508 22.4738L17.5973 22.4457L17.6436 22.4184L17.6899 22.3916L17.7267 22.3711L17.59 22.1308L17.5894 22.1305ZM15.8633 23.566L15.8585 23.5711L15.8076 23.629L15.7581 23.6859L15.7086 23.7419L15.6591 23.7974L15.6098 23.852L15.5605 23.9062L15.5112 23.9595L15.4623 24.012L15.4133 24.064L15.3646 24.1154L15.3159 24.166L15.2672 24.2161L15.2187 24.2653L15.1703 24.314L15.1218 24.362L15.0737 24.4093L15.0255 24.4561L14.9776 24.5021L14.9296 24.5476L14.9204 24.556L15.1085 24.7581L15.1188 24.7486L15.1681 24.7021L15.2174 24.655L15.2667 24.6074L15.3159 24.5589L15.3655 24.5096L15.415 24.4598L15.4645 24.4092L15.5143 24.3583L15.5641 24.3067L15.6141 24.2544L15.6639 24.2014L15.714 24.1476L15.764 24.0932L15.8143 24.0382L15.8647 23.9825L15.915 23.926L15.9656 23.8688L16.0163 23.8112L16.0655 23.7549L16.0704 23.7497L15.8636 23.5665L15.8633 23.566ZM14.302 25.0905L14.2688 25.1167L14.2228 25.1527L14.1765 25.1881L14.1305 25.2231L14.0845 25.2575L14.0387 25.2913L13.9932 25.3243L13.9478 25.3567L13.9023 25.3886L13.8571 25.4201L13.812 25.4509L13.7668 25.4812L13.7218 25.511L13.6772 25.5402L13.6325 25.5686L13.5879 25.5965L13.5435 25.6241L13.4992 25.6509L13.4548 25.6772L13.411 25.7029L13.3672 25.7281L13.3233 25.7527L13.2798 25.7771L13.2362 25.8006L13.1929 25.8236L13.172 25.8345L13.2987 26.0802L13.3217 26.0683L13.3672 26.044L13.4126 26.0193L13.4581 25.9942L13.5039 25.9682L13.5496 25.9419L13.5954 25.9152L13.6414 25.8876L13.6874 25.8597L13.7337 25.8313L13.78 25.802L13.8265 25.7726L13.873 25.7423L13.9195 25.7114L13.9664 25.68L14.0132 25.648L14.0603 25.6156L14.1074 25.5825L14.1545 25.5487L14.2018 25.5143L14.2492 25.4794L14.2965 25.444L14.3442 25.408L14.3921 25.3712L14.4397 25.3339L14.4727 25.3076L14.302 25.0903L14.302 25.0905ZM12.4314 26.1516L12.3952 26.1635L12.3546 26.1765L12.314 26.1889L12.2736 26.2011L12.2336 26.2128L12.1935 26.2238L12.1537 26.2344L12.1139 26.2447L12.0744 26.2544L12.0352 26.2636L11.9959 26.2723L11.9566 26.2807L11.9177 26.2885L11.879 26.2961L11.8403 26.3031L11.8017 26.3099L11.7635 26.3161L11.7254 26.3218L11.6872 26.3271L11.6493 26.332L11.6117 26.3366L11.5741 26.3407L11.5368 26.3445L11.4994 26.3477L11.4621 26.3504L11.4253 26.3529L11.3885 26.3547L11.3517 26.3564L11.3152 26.3577L11.2789 26.3585L11.2429 26.3591H11.2069L11.171 26.3588L11.1355 26.3583L11.1217 26.3577L11.1117 26.6338L11.1287 26.6343L11.1674 26.6351L11.2061 26.6354H11.245L11.2843 26.6349L11.3235 26.6338L11.3628 26.6325L11.4023 26.6308L11.4424 26.6284L11.4822 26.6257L11.5222 26.6227L11.5623 26.6192L11.6026 26.6154L11.6432 26.6107L11.6838 26.6059L11.7247 26.6005L11.7653 26.5948L11.8064 26.5888L11.8475 26.5821L11.889 26.5748L11.9304 26.5674L11.9721 26.5593L12.0137 26.5509L12.0554 26.542L12.0973 26.5325L12.1396 26.5225L12.1818 26.5122L12.2241 26.5013L12.2665 26.49L12.3093 26.4781L12.3521 26.4657L12.3949 26.4529L12.4379 26.4397L12.4809 26.4259L12.5172 26.414L12.4319 26.1512L12.4314 26.1516ZM10.3378 26.2374L10.3243 26.2336L10.2926 26.2244L10.2612 26.2146L10.2296 26.2046L10.1982 26.1943L10.1668 26.1835L10.1357 26.1726L10.1051 26.1616L10.0742 26.1499L10.0436 26.138L10.0133 26.1258L9.98303 26.1134L9.95297 26.1007L9.92321 26.0877L9.89344 26.0744L9.86397 26.0606L9.83473 26.0468L9.80549 26.0327L9.77626 26.0184L9.74755 26.0038L9.71913 25.9889L9.69042 25.9735L9.662 25.9581L9.63387 25.9421L9.60598 25.9261L9.57809 25.9099L9.5502 25.8931L9.5229 25.8764L9.49553 25.8593L9.46846 25.842L9.44139 25.8244L9.41462 25.8065L9.38784 25.7887L9.36159 25.7703L9.33534 25.7519L9.30909 25.7329L9.28313 25.714L9.25741 25.6948L9.23198 25.6753L9.20655 25.6558L9.18135 25.636L9.16999 25.6268L8.99596 25.8415L9.00897 25.852L9.03604 25.8734L9.06335 25.8945L9.09071 25.9153L9.1186 25.9362L9.14649 25.9568L9.17462 25.9768L9.20303 25.9968L9.23174 26.0166L9.26046 26.0358L9.2894 26.055L9.31864 26.074L9.34788 26.0927L9.37735 26.1113L9.40712 26.1294L9.43688 26.1473L9.46717 26.1649L9.49747 26.1822L9.52805 26.1993L9.55893 26.216L9.58981 26.2326L9.62092 26.2488L9.65233 26.2647L9.68374 26.2802L9.71538 26.2956L9.74731 26.3107L9.77924 26.3253L9.81147 26.3397L9.84393 26.3537L9.87669 26.3676L9.90915 26.3811L9.94214 26.3943L9.97542 26.4074L10.0087 26.4198L10.0423 26.4322L10.0761 26.4441L10.1099 26.4558L10.144 26.4668L10.1784 26.4777L10.2128 26.4882L10.2474 26.4985L10.2609 26.5023L10.3378 26.2368V26.2374ZM8.60362 25.0639L8.59225 25.0499L8.57221 25.025L8.55217 25.0001L8.53266 24.9749L8.51315 24.9494L8.49393 24.924L8.47501 24.8986L8.45608 24.8728L8.43739 24.8469L8.41899 24.8209L8.40059 24.795L8.38272 24.7687L8.36485 24.7425L8.34727 24.7159L8.32993 24.6894L8.31258 24.6626L8.29583 24.6358L8.27907 24.6088L8.26255 24.5817L8.24631 24.5546L8.23008 24.5273L8.21409 24.5L8.19839 24.4724L8.18298 24.4451L8.1678 24.4175L8.15262 24.3896L8.13774 24.362L8.12315 24.3341L8.10856 24.3062L8.0945 24.2781L8.08044 24.2502L8.06661 24.2221L8.05307 24.1937L8.03983 24.1653L8.02682 24.1368L8.01411 24.1084L8.00139 24.08L7.98897 24.0516L7.97678 24.0229L7.96489 23.9945L7.95323 23.9658L7.94157 23.937L7.93208 23.913L7.67473 24.0128L7.68505 24.0391L7.69723 24.0696L7.70965 24.1002L7.72237 24.1308L7.73538 24.1611L7.74838 24.1914L7.76192 24.222L7.77575 24.2523L7.78981 24.2826L7.80387 24.3126L7.81823 24.3427L7.83282 24.3727L7.8477 24.4028L7.86288 24.4326L7.87805 24.4623L7.89346 24.4918L7.90946 24.5213L7.92546 24.5505L7.94169 24.58L7.95821 24.6092L7.97497 24.6385L7.99202 24.6674L8.00907 24.6964L8.02665 24.7253L8.04422 24.754L8.0618 24.7824L8.07991 24.8111L8.09801 24.8396L8.11641 24.868L8.1351 24.8961L8.15403 24.924L8.17325 24.9519L8.19276 24.9798L8.21227 25.0074L8.23231 25.035L8.25235 25.0623L8.27262 25.0896L8.29319 25.1167L8.31376 25.1438L8.33462 25.1706L8.35571 25.1973L8.3771 25.2241L8.38876 25.2382L8.60309 25.0639H8.60362V25.0639ZM7.71329 23.1419C7.63342 22.7035 7.62047 22.2616 7.7168 21.8245L7.44698 21.765C7.34145 22.2313 7.35604 22.7238 7.44159 23.1917L7.71329 23.1417V23.1419ZM7.97878 21.0746C8.16633 20.6765 8.44536 20.2935 8.72303 19.9539L8.51005 19.778C8.21995 20.1285 7.92469 20.5417 7.73034 20.9539L7.97878 21.0746ZM9.26643 19.3401L9.26831 19.3382L9.29186 19.3133L9.31542 19.2884L9.33921 19.2635L9.36329 19.2383L9.38737 19.2131L9.41145 19.1879L9.43583 19.1627L9.46044 19.1373L9.48505 19.1118L9.50965 19.0864L9.53456 19.061L9.55975 19.0353L9.58495 19.0095L9.61038 18.9838L9.63581 18.9581L9.66153 18.9321L9.68749 18.9059L9.71344 18.8796L9.7394 18.8537L9.76565 18.8274L9.7919 18.8012L9.81868 18.7746L9.84546 18.7481L9.87223 18.7216L9.8993 18.6948L9.92637 18.668L9.95368 18.6412L9.98104 18.6142L10.0086 18.5871L10.0362 18.56L10.0641 18.5327L10.092 18.5054L10.1201 18.4781L10.1483 18.4505L10.1767 18.4229L10.2051 18.3953L10.2338 18.3674L10.2357 18.3658L10.043 18.1677L10.0411 18.1695L10.0124 18.1974L9.98368 18.2253L9.95526 18.2529L9.92684 18.2808L9.89872 18.3081L9.87059 18.3357L9.8427 18.363L9.81481 18.3903L9.78721 18.4176L9.75962 18.4447L9.73202 18.4718L9.70466 18.4988L9.67758 18.5256L9.65051 18.5527L9.62374 18.5795L9.59696 18.606L9.57018 18.6328L9.54393 18.6593L9.51768 18.6856L9.49143 18.7121L9.46548 18.7384L9.43952 18.7646L9.4138 18.7909L9.38807 18.8168L9.36264 18.8428L9.33721 18.8687L9.31178 18.8947L9.28659 18.9204L9.26169 18.9461L9.23678 18.9719L9.21217 18.9976L9.18756 19.0233L9.16319 19.0487L9.13911 19.0739L9.11473 19.0994L9.09065 19.1248L9.06686 19.15L9.06499 19.1522L9.26632 19.3414V19.3401H9.26643Z" fill="white"/>
</svg>
