<svg width="30" height="30" viewBox="0 0 30 30" fill="none" xmlns="http://www.w3.org/2000/svg">
<path d="M18.2164 23.1313L15.2339 27.8371V19.9476H14.261V27.8371L11.2785 23.1314L10.4567 23.6522L14.3365 29.7739C14.4257 29.9147 14.5808 30 14.7475 30C14.9141 30 15.0691 29.9147 15.1584 29.7739L19.0383 23.6522L18.2164 23.1313Z" fill="#9AD6D4"/>
<path d="M10.9784 12.4336C9.22324 9.65625 5.54889 8.82761 2.7716 10.5828C-0.00574059 12.3379 -0.834373 16.0123 0.920802 18.7895C2.61891 21.4766 7.08029 22.6252 10.17 22.7645L10.1989 24.5576L12.2074 23.2847L10.5988 22.4936C11.7991 19.6431 12.6765 15.1206 10.9784 12.4336Z" fill="#FFAA0E"/>
<path d="M18.5164 12.4336C20.2716 9.65625 23.9459 8.82761 26.7232 10.5828C29.5005 12.338 30.3292 16.0123 28.574 18.7896C26.8759 21.4767 22.4145 22.6253 19.3248 22.7645L19.2959 24.5577L17.2874 23.2848L18.896 22.4937C17.6957 19.6431 16.8183 15.1206 18.5164 12.4336Z" fill="#57BAB7"/>
<path d="M2.55967 18.2471C2.39853 18.2471 2.24091 18.1671 2.14828 18.021C0.823179 15.9301 1.44603 13.1509 3.53683 11.8257C3.76389 11.682 4.06435 11.7493 4.2082 11.9762C4.35199 12.2031 4.28467 12.5036 4.05773 12.6475C2.42004 13.6855 1.93213 15.8624 2.97006 17.5001C3.11385 17.727 3.04652 18.0276 2.81959 18.1714C2.73885 18.2226 2.64873 18.2471 2.55967 18.2471Z" fill="white"/>
<path d="M22.5851 7.83774C22.5851 3.50906 19.0761 0 14.7474 0C10.4187 0 6.90967 3.50906 6.90967 7.83774C6.90967 12.02 11.0588 16.4329 14.3995 18.7652L13.2799 20.5963H16.215L15.0954 18.7652C18.4361 16.4329 22.5851 12.02 22.5851 7.83774Z" fill="#FF3776"/>
<path d="M8.85562 8.32344C8.85562 8.32344 8.85551 8.32344 8.85562 8.32344C8.58691 8.32344 8.36912 8.10553 8.36912 7.83687C8.36965 4.32037 11.231 1.45947 14.7474 1.45947C15.0161 1.45947 15.2339 1.67727 15.2339 1.94598C15.2339 2.21469 15.0161 2.43248 14.7474 2.43248C11.7673 2.43248 9.34254 4.85691 9.34207 7.83699C9.34201 8.10564 9.12422 8.32344 8.85562 8.32344Z" fill="white"/>
</svg>
