<svg width="30" height="23" viewBox="0 0 30 23" fill="none" xmlns="http://www.w3.org/2000/svg">
<path d="M11.8129 16.4471V14.4792L6.33077 16.0254C6.33077 16.0254 6.72902 13.6826 9.58725 12.8627C10.4541 12.6284 11.2037 12.6284 11.8129 12.7456V4.63951H14.5539C14.2493 3.72583 13.9682 2.99958 13.7339 2.50759C13.3357 1.6876 12.9139 2.22647 12.0002 3.02302C11.3442 3.56183 9.68088 4.75669 7.17414 5.41263C4.66735 6.09206 2.65262 5.90462 1.80919 5.76406C0.614384 5.55319 -0.0181733 5.2955 0.0521373 6.20918C0.099011 7.00574 0.286387 8.24742 0.731568 9.91078C1.66868 13.4718 4.78454 20.3361 10.6884 18.743C12.2346 18.3213 13.3357 17.5013 14.0854 16.4471H11.8129V16.4471ZM2.98061 9.95759L7.17414 8.85648C7.17414 8.85648 7.05702 10.473 5.48734 10.8947C3.91773 11.293 2.98061 9.95759 2.98061 9.95759Z" fill="#E2574C"/>
<path d="M27.6734 4.80351C26.5489 4.99094 23.8782 5.24863 20.5749 4.35838C17.2716 3.46814 15.0693 1.9219 14.2025 1.19566C12.9609 0.164854 12.4221 -0.538014 11.9066 0.539665C11.4381 1.50022 10.8289 3.04646 10.2433 5.22519C8.97815 9.93415 8.04103 19.8675 15.8425 21.9526C23.6673 24.0376 27.814 14.9711 29.0791 10.2622C29.6648 8.08336 29.9225 6.44343 29.9928 5.38919C30.0865 4.17095 29.2665 4.52238 27.6734 4.80351ZM11.9769 8.71591C11.9769 8.71591 13.2186 6.77143 15.327 7.38055C17.4355 7.98967 17.5995 10.309 17.5995 10.309L11.9769 8.71591ZM17.0841 17.267C13.406 16.1894 12.8437 13.2609 12.8437 13.2609L22.7068 16.0019C22.7068 16.0254 20.7154 18.3213 17.0841 17.267ZM20.6451 11.293C20.6451 11.293 21.8399 9.37191 23.8547 9.95759C25.8695 10.5667 26.0335 12.8861 26.0335 12.8861L20.6451 11.293Z" fill="#EFC75E"/>
<path d="M17.3653 17.3373L17.0842 17.267C13.406 16.1893 12.8438 13.2608 12.8438 13.2608L18.0447 14.7133L20.7155 4.3817C20.6686 4.35826 20.6218 4.35826 20.5749 4.35826C17.2716 3.46802 15.0694 1.92178 14.2026 1.19554C12.9609 0.164732 12.4221 -0.538136 11.9066 0.539543C11.4381 1.5001 10.829 3.04633 10.2433 5.22507C9.02504 9.7466 8.11135 19.0708 14.9757 21.6713L16.1471 22.0227L17.3653 17.3373ZM11.9769 8.71585C11.9769 8.71585 13.2186 6.77136 15.3271 7.38048C17.4355 7.98961 17.5995 10.309 17.5995 10.309L11.9769 8.71585Z" fill="#DCB757"/>
<path d="M9.8684 15.0414L6.3308 16.0488C6.3308 16.0488 6.70567 13.8465 9.30609 12.9797L7.2913 5.4126C7.24442 5.43603 7.19761 5.43603 7.1273 5.45947C4.62051 6.1389 2.60577 5.95147 1.76234 5.81091C0.567539 5.60003 -0.0650177 5.34235 0.0052928 6.25603C0.0521665 7.05258 0.239542 8.29426 0.684723 9.95762C1.66871 13.4718 4.78457 20.3361 10.6883 18.743L10.8289 18.6961C10.829 18.6961 9.8684 15.0414 9.8684 15.0414ZM2.98064 9.95756L7.17417 8.85645C7.17417 8.85645 7.05705 10.4729 5.48737 10.8947C3.91776 11.2929 2.98064 9.95756 2.98064 9.95756Z" fill="#D05046"/>
</svg>
