<svg width="18" height="22" viewBox="0 0 18 22" fill="none" xmlns="http://www.w3.org/2000/svg">
<path d="M11.603 8.55C13.443 8.85 14.853 9.54 15.833 10.62C16.813 11.68 17.303 13 17.303 14.58C17.303 15.8 16.9831 16.93 16.3431 17.97C15.703 18.99 14.723 19.81 13.403 20.43C12.103 21.05 10.503 21.36 8.60305 21.36C7.12305 21.36 5.66305 21.17 4.22305 20.79C2.80305 20.39 1.59305 19.83 0.593048 19.11L2.48305 15.39C3.28305 15.99 4.20305 16.46 5.24305 16.8C6.30305 17.12 7.38305 17.28 8.48305 17.28C9.70305 17.28 10.663 17.05 11.363 16.59C12.063 16.11 12.413 15.44 12.413 14.58C12.413 12.86 11.103 12 8.48305 12H6.26305V8.79L10.583 3.9H1.64305V0H16.3431V3.15L11.603 8.55Z" fill="#789CFB"/>
</svg>
