<svg width="30" height="30" viewBox="0 0 30 30" fill="none" xmlns="http://www.w3.org/2000/svg">
<path d="M10.3126 23.4375H19.6874V29.0624H10.3126V23.4375Z" fill="#D7E1F2"/>
<path d="M21.5626 30H8.43743C7.92 30 7.50006 29.58 7.50006 29.0624C7.50006 28.5449 7.92 28.125 8.43743 28.125H21.5626C22.08 28.125 22.4999 28.5449 22.4999 29.0624C22.4999 29.58 22.08 30 21.5626 30V30Z" fill="#E4EDFB"/>
<path d="M30 1.87496C30 0.838992 29.161 0 28.125 0H1.87496C0.838992 0 0 0.838992 0 1.87496V20.625H30V1.87496Z" fill="#80DEEA"/>
<path d="M0 19.6874V23.4375C0 24.4735 0.838992 25.3125 1.87496 25.3125H28.125C29.161 25.3125 30 24.4735 30 23.4375V19.6874H0Z" fill="#E4EDFB"/>
<path d="M8.04929 14.0625L4.29938 10.3126L8.04929 6.56245C8.41501 6.19696 9.00929 6.19696 9.37501 6.56245C9.74072 6.92816 9.74072 7.52245 9.37501 7.88816L6.95058 10.3126L9.37501 12.7368C9.74072 13.1025 9.74072 13.6968 9.37501 14.0625C9.00929 14.4282 8.41501 14.4282 8.04929 14.0625Z" fill="white"/>
<path d="M20.625 14.0625C20.2593 13.6968 20.2593 13.1025 20.625 12.7368L23.0494 10.3126L20.625 7.88816C20.2593 7.52245 20.2593 6.92816 20.625 6.56245C20.9907 6.19696 21.585 6.19696 21.9507 6.56245L25.7006 10.3126L21.9507 14.0625C21.585 14.4282 20.9907 14.4282 20.625 14.0625V14.0625Z" fill="white"/>
<path d="M13.1249 14.0625C12.6619 13.831 12.4735 13.2674 12.705 12.8044L15.6168 6.98147C15.8485 6.5185 16.4119 6.33094 16.8751 6.56243C17.338 6.79414 17.5256 7.3575 17.2941 7.81957L14.3823 13.6425C14.1515 14.1066 13.5881 14.294 13.1249 14.0625V14.0625Z" fill="white"/>
<path d="M14.0625 21.5626H15.9375V23.4376H14.0625V21.5626Z" fill="#77959E"/>
</svg>
