<svg width="29" height="30" viewBox="0 0 29 30" fill="none" xmlns="http://www.w3.org/2000/svg">
<path d="M9.66178 22.3729V25.4237L5.08551 30H21.3567L17.7974 26.4407V23.3899L19.3228 20.8475V17.7966H9.66178V22.3729Z" fill="#C3C3C3"/>
<path d="M8.1093 11.1767C8.10607 10.8989 7.87889 10.6759 7.60082 10.6779L7.59635 10.6735C7.31555 10.6759 7.08986 10.9056 7.09235 11.1864L7.11469 14.7457H4.06856C4.02511 14.7487 3.98241 14.7571 3.94144 14.771C3.72023 14.3614 3.24899 14.1541 2.79738 14.2683C2.346 14.3822 2.02945 14.7884 2.02945 15.2542C2.02945 15.72 2.346 16.1261 2.79738 16.2401C3.24899 16.3543 3.72023 16.147 3.94144 15.7373C3.98241 15.7512 4.02511 15.7597 4.06856 15.7627H7.62788C7.76344 15.7627 7.89354 15.7085 7.98913 15.6122C8.08447 15.5159 8.1376 15.3853 8.13636 15.2497L8.1093 11.1767Z" fill="#85BC94"/>
<path d="M7.62789 5.59327H3.56009V3.55937C3.55712 3.51617 3.54867 3.47347 3.53452 3.43225C3.94443 3.21104 4.15174 2.7398 4.03753 2.28819C3.92357 1.83681 3.51739 1.52051 3.05162 1.52051C2.58585 1.52051 2.17967 1.83681 2.06571 2.28819C1.9515 2.7398 2.15881 3.21104 2.56847 3.43225C2.55457 3.47347 2.54612 3.51617 2.54315 3.55937V6.10174C2.54315 6.38255 2.77082 6.61022 3.05162 6.61022H7.62789C7.90869 6.61022 8.13637 6.38255 8.13637 6.10174C8.13637 5.82094 7.90869 5.59327 7.62789 5.59327Z" fill="#85BC94"/>
<path d="M8.40376 8.55344H8.39606L2.53495 8.64407C2.49547 8.64754 2.45674 8.65623 2.4195 8.66939C2.19828 8.25973 1.72705 8.05242 1.27543 8.16663C0.824058 8.28059 0.507751 8.68677 0.507751 9.15254C0.507751 9.61831 0.824058 10.0245 1.27543 10.1384C1.72705 10.2527 2.19828 10.0453 2.4195 9.63569C2.45947 9.64934 2.50093 9.65803 2.54314 9.66101H2.55133L8.41195 9.57039C8.69275 9.56815 8.91869 9.33875 8.9162 9.05794C8.91397 8.77714 8.68456 8.55121 8.40376 8.55344Z" fill="#85BC94"/>
<path d="M3.05161 16.7796C2.2092 16.7796 1.52618 16.0966 1.52618 15.2542C1.52618 14.4118 2.2092 13.7288 3.05161 13.7288C3.89402 13.7288 4.57703 14.4118 4.57703 15.2542C4.57703 16.0966 3.89402 16.7796 3.05161 16.7796ZM3.05161 14.7457C2.7708 14.7457 2.54313 14.9734 2.54313 15.2542C2.54313 15.535 2.7708 15.7627 3.05161 15.7627C3.33241 15.7627 3.56008 15.535 3.56008 15.2542C3.56008 14.9734 3.33241 14.7457 3.05161 14.7457Z" fill="#6B9777"/>
<path d="M3.05161 4.06782C2.2092 4.06782 1.52618 3.3848 1.52618 2.54239C1.52618 1.69998 2.2092 1.01697 3.05161 1.01697C3.89402 1.01697 4.57703 1.69998 4.57703 2.54239C4.57703 3.3848 3.89402 4.06782 3.05161 4.06782ZM3.05161 2.03392C2.7708 2.03392 2.54313 2.26159 2.54313 2.54239C2.54313 2.82319 2.7708 3.05087 3.05161 3.05087C3.33241 3.05087 3.56008 2.82319 3.56008 2.54239C3.56008 2.26159 3.33241 2.03392 3.05161 2.03392Z" fill="#6B9777"/>
<path d="M1.52619 10.6781C0.729713 10.6783 0.0670576 10.0661 0.00473968 9.27206C-0.0575783 8.47806 0.501297 7.76972 1.28784 7.64582C2.07464 7.52193 2.82444 8.02395 3.00916 8.79859C3.19413 9.57322 2.75194 10.3598 1.99395 10.6043C1.84275 10.653 1.68509 10.6781 1.52619 10.6781ZM1.52619 8.64416C1.4743 8.64465 1.42291 8.65285 1.3735 8.66849C1.10635 8.75439 0.959123 9.04091 1.04503 9.3083C1.13118 9.57545 1.41744 9.72268 1.68484 9.63678C1.92368 9.55981 2.07091 9.32022 2.03119 9.07244C1.99171 8.82441 1.7772 8.64267 1.52619 8.64416Z" fill="#6B9777"/>
<path d="M20.2126 12.2035H16.3991C16.0843 12.2345 15.8022 12.0088 15.7635 11.695C15.8022 11.3812 16.0843 11.1555 16.3991 11.1865H20.2126C20.5275 11.1555 20.8095 11.3812 20.8482 11.695C20.8095 12.0088 20.5275 12.2345 20.2126 12.2035Z" fill="#85BC94"/>
<path d="M19.3228 9.15257H15.255C14.9742 9.15257 14.7465 8.9249 14.7465 8.64409C14.7465 8.36329 14.9742 8.13562 15.255 8.13562H19.3228C19.6036 8.13562 19.8313 8.36329 19.8313 8.64409C19.8313 8.9249 19.6036 9.15257 19.3228 9.15257Z" fill="#85BC94"/>
<path d="M19.3228 6.10167H16.272C15.9912 6.10167 15.7635 5.87399 15.7635 5.59319C15.7635 5.31239 15.9912 5.08472 16.272 5.08472H19.3228C19.6036 5.08472 19.8313 5.31239 19.8313 5.59319C19.8313 5.87399 19.6036 6.10167 19.3228 6.10167Z" fill="#85BC94"/>
<path d="M21.8652 2.54237H17.2889C17.0081 2.54237 16.7804 2.3147 16.7804 2.0339V1.01695H12.7126V3.05085C12.7126 3.33165 12.485 3.55932 12.2042 3.55932C11.9234 3.55932 11.6957 3.33165 11.6957 3.05085V0.508475C11.6957 0.227671 11.9234 0 12.2042 0H17.2889C17.5697 0 17.7974 0.227671 17.7974 0.508475V1.52542H21.8652V2.54237Z" fill="#85BC94"/>
<path d="M14.238 14.2373H15.255V15.2543H14.238V14.2373Z" fill="#85BC94"/>
<path d="M16.2719 14.2373H17.2889V15.2543H16.2719V14.2373Z" fill="#85BC94"/>
<path d="M18.3058 14.2373H21.3567V15.2543H18.3058V14.2373Z" fill="#85BC94"/>
<path d="M11.6957 18.8136C11.4149 18.8136 11.1872 18.5859 11.1872 18.3051V13.7288C11.1872 13.448 11.4149 13.2203 11.6957 13.2203C11.9765 13.2203 12.2041 13.448 12.2041 13.7288V18.3051C12.2041 18.5859 11.9765 18.8136 11.6957 18.8136Z" fill="#85BC94"/>
<path d="M15.4961 8.64412C15.4953 8.50434 15.4861 8.36481 15.469 8.22627L17.2889 6.72816L16.2719 4.96687L14.0625 5.79662C13.8396 5.62804 13.5972 5.48676 13.3405 5.37554L12.9537 3.0509H10.9198L10.5322 5.37355C10.2758 5.48478 10.0334 5.6263 9.81024 5.79463L7.60081 4.96687L6.58386 6.72816L8.40374 8.22627C8.36849 8.5036 8.36849 8.78465 8.40374 9.06198L6.58386 10.5601L7.60081 12.3214L9.81024 11.4916C10.0334 11.66 10.2758 11.8015 10.5322 11.9127L10.6656 12.7119L10.9198 14.2373H12.9537L13.3405 11.9147C13.5972 11.8035 13.8396 11.6622 14.0625 11.4936L16.2719 12.3214L17.2889 10.5601L15.469 9.06198C15.4861 8.92344 15.4953 8.7839 15.4961 8.64412V8.64412ZM11.9367 10.1695C11.0941 10.1695 10.4113 9.48653 10.4113 8.64412C10.4113 7.80171 11.0941 7.1187 11.9367 7.1187C12.7792 7.1187 13.4622 7.80171 13.4622 8.64412C13.4622 9.48653 12.7792 10.1695 11.9367 10.1695Z" fill="#5E8569"/>
<path d="M13.7296 17.7966V25.9322L10.1703 30H5.08551L9.66178 25.4237V17.7966H13.7296Z" fill="#A8A8A8"/>
<path d="M17.7974 24.4068H13.7296V17.7966H19.3228V20.8475L17.7974 23.3899V24.4068Z" fill="#DBDBDB"/>
<path d="M15.7635 24.4067V30H21.3567L17.7974 26.4406V24.4067H15.7635Z" fill="#DBDBDB"/>
<path d="M15.7635 17.7966V21.356L17.7974 23.3899L20.3398 19.8305V17.7966H15.7635Z" fill="#D1D1D1"/>
<path d="M11.1872 20.339H12.2041V21.3559H11.1872V20.339Z" fill="#B9B9B9"/>
<path d="M11.1872 22.3729H12.2041V23.3899H11.1872V22.3729Z" fill="#B9B9B9"/>
<path d="M11.1872 28.8375L12.2041 27.6758V24.4067H11.1872V28.8375Z" fill="#B9B9B9"/>
<path d="M18.8027 21.9829L20.3398 19.8305V17.7966H17.2889V20.8475L18.8027 21.9829Z" fill="#CDCDCD"/>
<path d="M21.8652 1.52539L19.3228 5.08471V11.1864L20.8482 13.2203V15.2542L18.3058 16.2712V20.339C18.3058 20.339 22.3736 22.8813 22.8821 22.8813H25.933V19.8305L26.9499 18.8135V16.7796H28.2012C28.3733 16.7796 28.5337 16.6925 28.6275 16.5482C28.7214 16.404 28.7358 16.222 28.666 16.0648L26.9499 12.2034C27.6012 11.5524 27.9669 10.6692 27.9669 9.74838C27.9666 6.57836 26.1753 3.68045 23.3397 2.26327L21.8652 1.52539Z" fill="#EBEBEB"/>
<path d="M25.4245 12.7118H23.8991C23.6183 12.7118 23.3906 12.4841 23.3906 12.2033C23.3906 11.9225 23.6183 11.6949 23.8991 11.6949H24.916V10.6779C24.916 10.3971 25.1437 10.1694 25.4245 10.1694C25.7053 10.1694 25.933 10.3971 25.933 10.6779V12.2033C25.933 12.4841 25.7053 12.7118 25.4245 12.7118Z" fill="#DBDBDB"/>
<path d="M24.2586 17.437C24.059 17.2444 23.7419 17.2471 23.5458 17.4432C23.3496 17.6394 23.3469 17.9564 23.5396 18.156C24.2842 18.9051 25.2976 19.3249 26.3541 19.322H26.4414L26.9499 18.8135V18.305H26.3541C25.5675 18.3072 24.813 17.9947 24.2586 17.437Z" fill="#DBDBDB"/>
<path d="M20.8482 5.08472H21.8652V7.11861H20.8482V5.08472Z" fill="#F9F9F9"/>
<path d="M20.8482 8.13562H21.8652V9.15257H20.8482V8.13562Z" fill="#F9F9F9"/>
<path d="M20.8482 10.1694H21.8652V11.1864H20.8482V10.1694Z" fill="#F9F9F9"/>
</svg>
