<svg width="34" height="34" viewBox="0 0 34 34" fill="none" xmlns="http://www.w3.org/2000/svg">
<path fill-rule="evenodd" clip-rule="evenodd" d="M12.7647 10.92C12.7647 11.9804 11.9219 12.84 10.8823 12.84C9.84276 12.84 9 11.9804 9 10.92C9 9.85961 9.84276 9 10.8823 9C11.9219 9 12.7647 9.85961 12.7647 10.92ZM9 14.12V25H12.7647V14.12H9ZM14.4588 14.12H17.9098V16.04C17.9098 15.08 19.353 13.8 21.2353 13.8C23.7451 13.8 25 16.4702 25 17.64V24.68H21.549V18.5186C21.549 18.1171 21.2353 16.68 19.9804 16.68C18.4745 16.68 17.9725 17.9057 17.9098 18.5186V25H14.4588V14.12Z" fill="black"/>
</svg>
