<svg width="25" height="25" viewBox="0 0 25 25" fill="none" xmlns="http://www.w3.org/2000/svg">
<circle cx="12.5" cy="12.5" r="12.5" fill="#FDC400"/>
<path d="M17.4169 5H6.87616C6.57319 5 6.32758 5.2194 6.32758 5.49005V18.3713C6.32758 18.642 6.57319 18.8614 6.87616 18.8614H17.4169C17.7199 18.8614 17.9655 18.642 17.9655 18.3713V5.49005C17.9655 5.2194 17.7199 5 17.4169 5ZM7.85579 6.73267C7.85579 6.5297 8.04001 6.36513 8.26723 6.36513H13.1163C13.3436 6.36513 13.5278 6.5297 13.5278 6.73267V11.6058C13.5278 11.8088 13.3436 11.9733 13.1163 11.9733H8.26723C8.04001 11.9733 7.85579 11.8088 7.85579 11.6058V6.73267V6.73267ZM16.0258 16.6299H8.26723C8.04001 16.6299 7.85579 16.4654 7.85579 16.2624C7.85579 16.0594 8.04001 15.8948 8.26723 15.8948H16.0258C16.2531 15.8948 16.4373 16.0594 16.4373 16.2624C16.4373 16.4654 16.2531 16.6299 16.0258 16.6299ZM16.0258 14.0309H8.26723C8.04001 14.0309 7.85579 13.8663 7.85579 13.6633C7.85579 13.4604 8.04001 13.2958 8.26723 13.2958H16.0258C16.2531 13.2958 16.4373 13.4604 16.4373 13.6633C16.4373 13.8663 16.2531 14.0309 16.0258 14.0309ZM16.0258 10.5655H15.056C14.8288 10.5655 14.6446 10.401 14.6446 10.198C14.6446 9.99504 14.8288 9.83047 15.056 9.83047H16.0258C16.2531 9.83047 16.4373 9.99504 16.4373 10.198C16.4373 10.401 16.2531 10.5655 16.0258 10.5655ZM16.0258 8.83288H15.056C14.8288 8.83288 14.6446 8.66831 14.6446 8.46534C14.6446 8.26237 14.8288 8.0978 15.056 8.0978H16.0258C16.2531 8.0978 16.4373 8.26237 16.4373 8.46534C16.4373 8.66831 16.2531 8.83288 16.0258 8.83288Z" fill="white"/>
</svg>
