<svg width="344" height="282" viewBox="0 0 344 282" fill="none" xmlns="http://www.w3.org/2000/svg">
<path fill-rule="evenodd" clip-rule="evenodd" d="M4.72668 232.17C13.0367 189.375 97.1244 213.755 152.251 200.525C207.378 187.295 272.598 125.68 315.762 155.862C358.925 186.044 313 259.003 214.001 275.467C115.002 291.932 -3.58336 274.965 4.72668 232.17Z" fill="#F2F2F2"/>
<g opacity="0.5">
<path opacity="0.5" fill-rule="evenodd" clip-rule="evenodd" d="M26.6896 32.2952C25.8879 33.0956 26.1993 35.94 26.1825 36.9927C26.1567 38.6314 26.2587 40.2555 26.3957 41.8883C26.4875 42.9816 27.005 53.4147 28.445 52.6134C29.2568 52.162 28.7478 49.1439 28.7464 48.1893C28.7431 46.067 28.6548 43.9499 28.5134 41.8323C28.3818 39.8664 28.2992 37.9234 28.3749 35.9537C28.3934 35.473 28.8432 30.1377 26.6896 32.2952Z" fill="#89C5CC"/>
<path opacity="0.5" fill-rule="evenodd" clip-rule="evenodd" d="M61.5987 31.0091C54.712 31.0639 47.828 31.4036 40.9446 31.6117C37.6323 31.7119 34.3221 31.8392 31.0133 32.0228C29.8859 32.0854 27.4677 31.7244 26.5284 32.3251C24.4432 33.6589 27.8061 33.9707 28.7026 33.9381C42.325 33.4442 55.952 32.7936 69.586 32.7629C76.274 32.748 82.9587 32.9384 89.6474 32.8956C92.2042 32.8793 95.0355 31.7778 95.6812 34.7538C96.41 38.1121 95.5726 41.8512 95.3448 45.2257C95.1926 47.4784 95.2468 49.6843 95.3483 51.9351C95.4134 53.3771 95.244 55.0019 95.4988 56.4169C95.7442 57.7795 96.7237 58.5966 97.6217 57.0703C98.1581 56.1582 97.8912 53.9062 97.9269 52.8496C97.9749 51.4265 97.9297 50.004 97.9297 48.5807C97.9293 45.1066 98.4198 41.6463 98.3549 38.173C98.3133 35.9333 98.1943 31.873 95.3694 31.3349C92.2587 30.7422 88.435 31.3382 85.2517 31.3018C77.3638 31.2118 69.4892 30.9474 61.5987 31.0091Z" fill="#89C5CC"/>
<path opacity="0.5" fill-rule="evenodd" clip-rule="evenodd" d="M42.6231 52.738C40.0263 52.738 37.4293 52.7536 34.8327 52.7966C32.6058 52.8334 29.1044 52.3692 27.0317 53.166C25.6127 53.7115 25.2358 55.2956 27.0317 55.7176C28.9904 56.178 31.9423 55.4253 33.9916 55.3892C44.2676 55.2078 54.6424 54.9713 64.904 55.6212C74.5193 56.2299 84.3199 56.8203 93.9495 56.1777C94.7597 56.1236 98.8918 55.9592 97.0063 54.4103C95.9063 53.5062 91.4478 54.1008 90.0182 54.0576C84.9758 53.9054 79.9285 53.8716 74.8877 53.6805C69.9128 53.4918 64.9598 52.9324 59.9832 52.794C54.2014 52.6331 48.4068 52.738 42.6231 52.738Z" fill="#89C5CC"/>
<path opacity="0.5" fill-rule="evenodd" clip-rule="evenodd" d="M40.0249 37.968C44.0724 38.1447 48.0768 44.0146 43.9815 46.8515C40.1397 49.5133 32.9394 46.5961 35.0758 41.4345C34.7686 42.1807 35.464 40.6237 35.4728 40.6133C35.8791 40.1347 36.6085 39.6049 37.1092 39.2276C37.6823 38.7958 38.279 38.3205 38.9699 38.1041C39.4235 37.9621 39.3523 38.4965 40.0249 37.968ZM38.0537 35.8509C36.1594 36.5906 35.2949 37.4249 33.993 38.9347C33.0923 39.9795 31.944 40.5292 31.9542 41.9412C31.9563 42.2537 32.3578 42.5972 32.4272 42.8982C32.523 43.3142 32.412 43.8471 32.488 44.2891C33.2716 48.8498 38.7132 50.3874 42.6963 49.5263C46.1659 48.7763 48.7608 45.4457 47.9571 41.824C47.1478 38.1783 41.7415 34.4085 38.0537 35.8509Z" fill="#89C5CC"/>
<path opacity="0.5" fill-rule="evenodd" clip-rule="evenodd" d="M36.3662 42.2177C36.3662 43.8583 38.9578 43.8583 38.9578 42.2177C38.9578 40.5958 36.3662 40.5261 36.3662 42.2177Z" fill="#89C5CC"/>
<path opacity="0.5" fill-rule="evenodd" clip-rule="evenodd" d="M39.6089 41.8856C39.6089 43.1894 41.6681 43.1894 41.6681 41.8856C41.6681 40.5967 39.6089 40.5417 39.6089 41.8856Z" fill="#89C5CC"/>
<path opacity="0.5" fill-rule="evenodd" clip-rule="evenodd" d="M40.2462 44.5742C39.5867 44.8277 38.7503 44.302 38.209 44.6484C37.2502 45.2621 38.2113 45.8175 38.7252 46.0641C41.0391 47.1744 41.4508 44.1128 40.2462 44.5742Z" fill="#89C5CC"/>
<path opacity="0.5" fill-rule="evenodd" clip-rule="evenodd" d="M75.5834 40.9381C75.5145 40.9674 75.2689 41.0714 75.5834 40.9381V40.9381ZM65.5071 39.4655C63.7754 39.8564 62.3131 41.4737 60.4316 41.2573C58.9897 41.0915 58.0134 39.7001 56.59 39.4978C54.769 39.2389 49.8132 43.3928 52.4188 44.1055C53.939 44.5215 54.7823 41.7435 56.1253 41.5958C57.1877 41.4791 58.6324 42.7819 59.7334 42.9674C61.7871 43.3134 63.1976 42.1821 65.0005 41.4527C66.9597 40.6599 68.0743 41.3737 69.7782 42.2549C71.1231 42.9504 72.3896 43.4032 73.9285 43.1162C75.3728 42.8471 77.1871 41.3619 78.6409 41.5143C80.0648 41.6636 81.081 43.1495 82.5456 43.2875C83.1495 43.3442 84.0484 43.5499 83.9468 42.6182C83.8657 41.8722 83.0333 41.9986 82.5125 41.7274C81.1733 41.03 79.9207 39.7948 78.3044 39.9001C77.0887 39.9795 75.9818 40.8337 74.8615 41.2424C71.1921 42.5807 69.1294 38.6531 65.5071 39.4655Z" fill="#89C5CC"/>
<path opacity="0.5" fill-rule="evenodd" clip-rule="evenodd" d="M68.5726 63.0961C61.4946 63.161 54.3928 63.2662 47.3347 63.8336C45.6614 63.968 28.5753 65.5812 28.6077 65.6974C28.6676 65.9124 30.8652 66.2408 30.8515 66.2916C30.7034 65.9242 30.3648 65.7721 29.836 65.8356C46.0407 65.8356 62.194 64.3847 78.42 64.6457C82.4971 64.7112 86.5895 64.6838 90.6637 64.8123C91.6808 64.8444 94.201 65.5734 94.9998 65.1142C97.0961 63.9087 93.2877 63.7696 92.6569 63.719C84.6717 63.0802 76.5802 63.0162 68.5726 63.0961Z" fill="#69A1AC"/>
<path opacity="0.5" fill-rule="evenodd" clip-rule="evenodd" d="M26.51 66.5351C25.4519 67.596 26.4263 71.4126 26.4679 72.847C26.5282 74.9208 26.4786 77.0094 26.6605 79.0778C26.8683 81.4406 27.1905 83.9579 27.8104 86.2502C28.1519 87.5131 29.3503 89.5201 29.8252 87.2254C30.1642 85.5864 29.6494 83.4122 29.4703 81.7425C29.2306 79.5089 29.1726 77.3046 29.1636 75.0602C29.1556 73.1045 29.1179 71.1407 28.9575 69.1911C28.8742 68.1788 28.365 64.6899 26.51 66.5351Z" fill="#69A1AC"/>
<path opacity="0.5" fill-rule="evenodd" clip-rule="evenodd" d="M53.1319 85.9715C48.1091 86.0577 43.0755 86.1761 38.0612 86.4898C36.006 86.6185 33.9525 86.8101 31.9049 87.0274C31.487 87.0716 26.8622 87.2594 28.9288 88.9662C29.8615 89.7368 33.6984 88.6714 34.9656 88.5603C37.097 88.3735 39.2279 88.2521 41.3655 88.1616C46.3182 87.9513 51.2861 87.7657 56.2437 87.8516C65.2979 88.0087 74.2938 88.0789 83.3505 87.8769C84.6372 87.8483 94.718 88.1176 95.0603 86.7789C95.3362 85.7001 91.7312 86.195 91.0739 86.2146C88.6626 86.2866 86.2511 86.2698 83.8389 86.2576C73.6204 86.2051 63.3425 85.7988 53.1319 85.9715Z" fill="#69A1AC"/>
<path opacity="0.5" fill-rule="evenodd" clip-rule="evenodd" d="M93.3533 64.745C93.5128 69.2171 94.2744 73.684 94.5179 78.1695C94.6291 80.22 94.7602 82.2686 94.8605 84.3198C94.8929 84.9815 94.6263 86.5758 95.4087 86.9564C96.482 87.4784 96.6266 86.4265 96.8275 85.715C97.4079 83.6598 97.0153 80.9901 96.9626 78.8792C96.9117 76.8348 96.9081 74.7869 96.7574 72.7464C96.6029 70.6616 96.1832 68.6163 95.9884 66.5389C95.9061 65.6604 96.1941 64.1984 95.2613 63.6531C94.4552 63.1819 93.3185 63.7757 93.3533 64.745Z" fill="#69A1AC"/>
<path opacity="0.5" fill-rule="evenodd" clip-rule="evenodd" d="M43.9844 72.1842C44.0035 72.1988 44.0224 72.2137 44.0414 72.2286C44.0224 72.2137 44.0033 72.1991 43.9844 72.1842ZM39.7159 70.8592C41.3076 71.3139 42.6149 71.1443 44.1353 72.303C45.3957 73.2638 46.6886 74.6693 47.1067 76.2228C48.0725 79.8119 44.7981 81.7787 41.7283 81.8175C38.584 81.8569 33.9298 81.1277 34.091 77.0973C34.2145 74.0008 36.4755 70.9794 39.7159 70.8592ZM39.8281 68.8309C35.7006 69.0364 32.3713 73.6715 32.407 77.5731C32.4501 82.3017 37.8081 83.52 41.6142 83.5528C45.9099 83.5897 50.1935 80.6235 49.0424 75.7929C48.1201 71.9224 43.7972 68.6247 39.8281 68.8309Z" fill="#69A1AC"/>
<path opacity="0.5" fill-rule="evenodd" clip-rule="evenodd" d="M35.6763 75.1798C35.6763 76.4985 37.7596 76.4985 37.7596 75.1798C37.7596 73.8763 35.6763 73.8203 35.6763 75.1798Z" fill="#69A1AC"/>
<path opacity="0.5" fill-rule="evenodd" clip-rule="evenodd" d="M40.0461 74.6013C40.0461 75.9303 42.1461 75.9303 42.1461 74.6013C42.1461 73.2873 40.0461 73.2309 40.0461 74.6013Z" fill="#69A1AC"/>
<path opacity="0.5" fill-rule="evenodd" clip-rule="evenodd" d="M37.6373 77.6088C36.2812 78.9627 41.0449 81.3361 42.1683 79.4526C43.0911 77.9058 41.0821 78.4186 40.3699 78.335C39.5959 78.2438 38.269 76.9788 37.6373 77.6088Z" fill="#69A1AC"/>
<path opacity="0.5" fill-rule="evenodd" clip-rule="evenodd" d="M75.7234 74.6285C75.5928 74.6834 75.5928 74.6834 75.7234 74.6285V74.6285ZM57.8345 72.4245C56.4615 72.682 51.9555 74.2021 51.8946 75.8312C51.7834 78.7921 56.1964 75.7594 57.1547 75.3698C59.7579 74.312 61.1257 76.47 63.7408 76.5838C66.012 76.6828 68.1003 74.7391 70.2397 74.969C72.4814 75.2097 73.5596 77.5944 76.1474 76.3282C77.5164 75.6585 77.4819 74.6259 75.9451 74.5286C75.0162 74.4698 74.378 74.8537 73.4096 74.454C71.895 73.8294 71.2851 72.8122 69.4726 72.9737C68.105 73.0956 66.869 73.8665 65.534 74.1648C62.4773 74.8478 60.7817 71.8724 57.8345 72.4245Z" fill="#69A1AC"/>
<path opacity="0.5" fill-rule="evenodd" clip-rule="evenodd" d="M86.2694 75.9141C86.175 75.9538 86.175 75.9538 86.2694 75.9141V75.9141ZM86.6158 74.6812C86.6309 74.6878 86.7346 74.8315 86.6158 74.6812V74.6812ZM85.0419 73.7401C84.9827 73.7857 84.9827 73.7857 85.0419 73.7401V73.7401ZM85.0762 73.7285C85.3814 73.9111 87.8353 75.5891 86.0529 75.9843C85.1481 76.1848 84.3995 74.3642 85.0762 73.7285ZM84.2636 71.8696C80.3328 73.6619 84.5627 80.0756 87.6476 77.4697C88.9457 76.3731 89.1165 74.1568 87.8537 73.0144C87.0971 72.3298 85.2908 71.4005 84.2636 71.8696Z" fill="#69A1AC"/>
<path opacity="0.5" fill-rule="evenodd" clip-rule="evenodd" d="M47.3644 97.1438C42.4595 97.1453 37.5115 97.0423 32.6132 97.3331C31.7888 97.382 28.6485 97.2251 28.2238 98.0869C27.4468 99.663 30.6779 98.8806 31.1474 98.8334C40.9004 97.857 51.0884 98.4188 60.8736 98.6971C68.8765 98.9245 76.8365 99.0658 84.8299 99.4783C86.931 99.5867 89.0302 99.7065 91.1299 99.8331C91.8142 99.8744 93.5365 100.328 93.6808 99.2349C93.8142 98.2234 91.6658 98.4518 91.1292 98.4235C86.8612 98.1988 82.5961 97.9636 78.3293 97.7233C68.0592 97.1443 57.6508 97.1419 47.3644 97.1438Z" fill="#89C5CC"/>
<path opacity="0.5" fill-rule="evenodd" clip-rule="evenodd" d="M28.0664 98.8964C27.1503 99.8071 27.5797 103.285 27.5542 104.434C27.5094 106.444 27.4146 108.453 27.372 110.463C27.3277 112.564 27.3892 114.674 27.5135 116.771C27.5655 117.652 28.2884 121.908 29.4265 119.473C29.9349 118.384 29.4142 115.352 29.422 114.119C29.4359 111.874 29.5568 109.639 29.6685 107.397C29.7646 105.47 29.7681 103.542 29.8524 101.614C29.8791 101 29.9517 97.0054 28.0664 98.8964Z" fill="#89C5CC"/>
<path opacity="0.5" fill-rule="evenodd" clip-rule="evenodd" d="M94.5059 116.853C89.7325 117.342 84.8825 117.111 80.0909 117.473C75.9614 117.784 71.8356 117.911 67.6954 117.999C58.3202 118.197 48.9291 118.39 39.5812 119.171C37.4507 119.349 35.3229 119.538 33.1868 119.633C32.1185 119.681 27.6357 119.195 27.3018 120.321C26.7332 122.239 31.5272 121.48 32.5612 121.45C34.835 121.384 37.0982 121.22 39.3656 121.047C48.8972 120.321 58.4652 120.104 68.0172 119.802C73.2122 119.638 78.371 119.258 83.5544 118.912C86.138 118.74 88.7286 118.734 91.3119 118.567C91.9879 118.524 94.3805 118.61 94.8667 118.066C95.2008 117.692 95.2853 116.78 94.5059 116.853Z" fill="#89C5CC"/>
<path opacity="0.5" fill-rule="evenodd" clip-rule="evenodd" d="M92.8877 99.2229C93.0514 103.801 93.3101 108.374 93.4646 112.952C93.5112 114.328 93.0952 116.796 93.8618 118.01C95.0943 119.962 96.0564 117.896 96.2821 116.679C96.9945 112.84 96.2286 108.6 96.0297 104.737C95.9539 103.263 96.4115 99.9835 95.6993 98.6647C95.021 97.4084 92.8269 97.5345 92.8877 99.2229Z" fill="#89C5CC"/>
<path opacity="0.5" fill-rule="evenodd" clip-rule="evenodd" d="M84.8737 105.742C86.7025 106.238 86.9696 110.214 84.9062 110.508C81.8347 110.946 83.178 106.562 84.8737 105.742ZM84.3615 104.161C83.8035 104.144 82.5159 103.99 82.1721 104.444C81.8844 104.824 82.1752 105.626 82.1416 105.988C82.0207 107.281 80.969 108.028 81.4391 109.555C81.7583 110.592 82.6129 111.566 83.6545 111.926C89.1509 113.826 89.084 103.206 84.3615 104.161Z" fill="#89C5CC"/>
<path opacity="0.5" fill-rule="evenodd" clip-rule="evenodd" d="M34.7386 104.875C34.7248 104.892 34.7111 104.91 34.6976 104.927C34.7111 104.91 34.7248 104.892 34.7386 104.875ZM39.0555 102.578C39.034 102.394 39.0125 102.21 38.9909 102.026C41.971 103.433 44.3423 106.049 43.3528 109.562C42.5978 112.241 39.8699 113.192 37.3285 112.53C34.5152 111.798 33.1708 109.479 33.9294 106.631C34.2793 105.318 35.354 103.552 36.7431 103.13C37.3898 102.933 38.8199 103.434 39.0555 102.578ZM37.3129 101.465C36.559 101.516 35.8253 101.83 35.2101 102.26C35.786 101.773 36.5536 101.483 37.3129 101.465ZM37.3344 99.7348C35.4723 99.7917 34.2521 100.919 33.1476 102.273C32.801 102.698 31.629 103.824 31.7741 104.397C31.8888 104.85 32.1891 105.512 32.8213 105.007C29.51 111.607 38.0644 117.235 43.2866 112.646C48.1603 108.363 43.3249 99.534 37.3344 99.7348Z" fill="#89C5CC"/>
<path opacity="0.5" fill-rule="evenodd" clip-rule="evenodd" d="M35.6423 105.865C35.6423 106.744 37.0066 106.744 37.0066 105.865C37.0066 104.986 35.6423 104.986 35.6423 105.865Z" fill="#89C5CC"/>
<path opacity="0.5" fill-rule="evenodd" clip-rule="evenodd" d="M37.9705 106.015C37.9705 106.908 39.3568 106.908 39.3568 106.015C39.3568 105.122 37.9705 105.122 37.9705 106.015Z" fill="#89C5CC"/>
<path opacity="0.5" fill-rule="evenodd" clip-rule="evenodd" d="M39.0269 109.152C38.3783 109.205 36.0044 108.984 35.5878 109.552C34.8914 110.501 36.0028 110.535 36.5486 110.637C37.0403 110.729 39.1776 110.677 39.4788 110.241C39.745 109.855 39.6828 109.096 39.0269 109.152Z" fill="#89C5CC"/>
<path opacity="0.5" fill-rule="evenodd" clip-rule="evenodd" d="M67.629 106.69C67.5176 106.736 67.5176 106.736 67.629 106.69V106.69ZM58.6592 106.034C57.1979 106.142 55.9601 106.982 54.563 107.318C53.0716 107.676 52.4261 107.017 51.0701 106.586C49.6595 106.138 48.656 106.315 47.5222 107.278C46.8798 107.824 45.4703 109.081 45.8718 110.05C46.7913 112.27 48.8725 108.659 49.8513 108.491C51.3784 108.229 52.737 109.564 54.4979 109.182C56.0936 108.836 57.5095 107.74 59.1761 107.729C60.5698 107.719 61.8832 108.481 63.2591 108.666C65.3595 108.948 66.7387 108.202 68.6803 107.648C70.364 107.168 71.5447 107.801 73.1283 108.334C73.8521 108.577 76.2672 109.462 75.8226 107.857C75.697 107.404 72.5143 106.594 72.021 106.438C70.281 105.888 69.1791 106.103 67.5216 106.735C66.1393 107.262 64.9766 107.519 63.4945 107.229C61.8617 106.909 60.3767 105.904 58.6592 106.034Z" fill="#89C5CC"/>
</g>
<g opacity="0.5">
<path opacity="0.5" fill-rule="evenodd" clip-rule="evenodd" d="M125.896 32.4682C126.132 27.3941 126.456 22.3272 126.627 17.2501C126.712 14.7342 126.778 12.2181 126.842 9.70178C126.857 9.14147 126.871 8.58139 126.884 8.02107C126.925 6.11752 126.7 5.96178 128.615 5.79281C137.161 5.03848 145.741 4.78845 154.297 4.10596C164.616 3.28286 174.989 2.71451 185.337 2.45975C189.936 2.34632 194.554 2.11142 199.153 2.25439C200.172 2.28606 202.173 2.02091 202.574 2.81305C202.747 3.15524 202.383 4.33283 202.337 4.72772C202.193 5.96131 202.059 7.19915 201.976 8.43889C201.486 15.7506 201.778 23.2467 203.194 30.4476C199.873 28.5748 195.676 26.9638 191.805 27.2835C187.858 27.6094 184.906 29.8897 181.747 31.9884C179.96 33.1755 179.358 33.4876 177.576 32.3377C176.04 31.3466 174.586 30.2134 173.137 29.1013C170.9 27.3849 168.789 25.5239 166.62 23.7245C162.632 20.4161 157.138 15.7069 151.63 17.0934C147.694 18.0841 144.061 20.2469 140.645 22.3636C135.571 25.5083 130.977 29.3594 125.896 32.4682ZM194.289 0.00107878C174.683 0.00107878 155.223 1.9018 135.671 2.93003C133.629 3.03732 131.594 3.19542 129.56 3.3918C128.204 3.52272 124.887 2.97304 123.999 4.13172C123.406 4.90472 123.915 5.02075 123.999 5.75524C124.104 6.6809 124.042 7.77766 124.014 8.75745C123.949 11.1183 123.881 13.4789 123.827 15.84C123.625 24.7634 123.498 33.6852 123.859 42.6063C123.938 44.5519 124.647 47.2457 124.259 49.1363C123.979 50.505 123.04 51.3381 125.205 51.5909C127.335 51.84 129.94 51.2067 132.072 51.0039C134.216 50.7997 136.36 50.5783 138.507 50.4013C147.842 49.6321 157.268 49.7484 166.627 49.4927C176.071 49.2348 185.518 49.2183 194.965 49.2131C198.917 49.211 203.434 49.4331 207.291 48.3453C208.648 47.9625 208.867 47.7739 208.533 46.4276C208.469 46.1721 208.059 46.0778 207.939 45.6161C207.776 44.9877 207.86 44.2239 207.821 43.5698C207.696 41.4334 207.653 39.2933 207.552 37.1556C207.384 33.5838 206.769 30.1175 206.313 26.5817C205.788 22.4983 205.815 18.3523 205.804 14.2422C205.798 11.9624 205.856 9.6902 206.039 7.4168C206.157 5.95871 206.875 3.78173 206.511 2.42194C206.33 1.74488 206.033 1.20797 205.328 0.916583C204.882 0.73178 204.506 0.876408 204.065 0.829617C203.541 0.774082 203.215 0.700586 202.587 0.558558C199.901 -0.050439 197.027 0.00107878 194.289 0.00107878Z" fill="#69A1AC"/>
<path opacity="0.5" fill-rule="evenodd" clip-rule="evenodd" d="M183.439 9.70873C183.437 11.1297 183.216 13.2266 183.871 14.5646C184.702 16.2619 185.741 15.7313 186.017 14.1364C186.174 13.2226 186.171 10.5181 185.877 9.70873C185.462 8.56305 183.439 7.78272 183.439 9.70873Z" fill="#89C5CC"/>
<path opacity="0.5" fill-rule="evenodd" clip-rule="evenodd" d="M185.823 10.2573C184.489 10.3044 180.604 9.98416 179.701 11.0568C178.153 12.8966 180.848 13.2225 182.006 13.1194C183.345 13.0003 187.483 13.291 188.38 12.2171C189.88 10.4206 186.872 10.2191 185.823 10.2573Z" fill="#89C5CC"/>
<path opacity="0.5" fill-rule="evenodd" clip-rule="evenodd" d="M134.054 57.7288C139.919 58.7476 138.094 67.6895 132.545 65.6184C130.611 64.8967 127.762 62.8114 128.831 60.3543C129.629 58.5186 132.231 57.5539 134.054 57.7288ZM131.626 54.9485C127.812 55.5906 125.204 59.7182 126.512 63.3185C127.774 66.7919 132.559 69.3355 136.088 68.0872C139.456 66.8954 141.137 62.4132 140.001 59.1342C138.815 55.7083 134.949 54.3892 131.626 54.9485Z" fill="#89C5CC"/>
<path opacity="0.5" fill-rule="evenodd" clip-rule="evenodd" d="M167.299 58.7747C165.838 58.8959 164.577 59.9182 163.107 60.0992C161.733 60.2685 160.595 59.7984 159.309 59.4227C157.754 58.9687 156.328 58.769 154.739 59.1724C153.525 59.4808 152.327 60.307 151.066 60.4067C148.584 60.6026 145.7 57.771 143.762 60.9736C142.833 62.509 144.182 63.498 145.571 62.782C147.02 62.0357 146.309 61.7684 148.105 62.2094C149.604 62.5768 150.816 62.7765 152.318 62.2613C153.678 61.7948 154.872 60.941 156.35 60.8451C157.798 60.7513 159.057 61.4106 160.441 61.6951C162.142 62.0449 163.648 61.7802 165.26 61.2468C166.794 60.7394 167.406 60.462 168.953 60.9146C169.933 61.2012 172.074 62.1118 173.028 61.378C174.677 60.1094 172.469 59.9239 171.599 59.7436C170.2 59.4536 168.751 58.6558 167.299 58.7747Z" fill="#89C5CC"/>
<path opacity="0.5" fill-rule="evenodd" clip-rule="evenodd" d="M200.713 57.9225C200.725 57.9315 200.736 57.9405 200.748 57.9495C200.736 57.9405 200.725 57.9315 200.713 57.9225ZM199.28 57.6226C201.411 57.7599 203.717 61.6431 200.892 61.7809C198.904 61.878 196.68 58.4776 199.28 57.6226ZM198.981 54.4451C192.24 56.3274 195.321 65.8305 201.823 64.7328C204.776 64.2342 205.777 60.8127 204.801 58.2801C204.382 57.1923 203.564 56.2751 202.587 55.6491C201.866 55.1873 199.804 54.2156 198.981 54.4451Z" fill="#89C5CC"/>
<path opacity="0.5" fill-rule="evenodd" clip-rule="evenodd" d="M126.498 115.182C126.299 114.298 126.406 112.946 126.395 112.634C126.343 111.169 126.325 109.703 126.269 108.238C126.134 104.748 126.045 101.238 125.776 97.7562C125.519 94.4276 124.87 91.2 124.851 87.8466C124.839 85.5786 124.208 79.832 126.195 78.2915C129.608 76.2995 128.258 83.3275 128.202 84.5438C128.034 88.2058 128.262 91.7064 128.631 95.3453C128.969 98.6805 128.58 102.001 128.451 105.336C128.382 107.107 128.344 108.875 128.211 110.643C128.17 111.194 128.233 113.678 127.944 115.001C128.689 114.969 129.397 115.002 129.792 114.99C132.557 114.907 135.322 114.833 138.087 114.729C148.723 114.329 159.365 114.51 169.999 114.005C180.057 113.527 190.152 113.426 200.217 113.302C201.098 113.379 201.492 114.303 200.926 115.014C200.373 115.709 197.81 115.556 197.011 115.621C194.176 115.849 191.346 115.951 188.503 115.978C182.515 116.035 176.549 116.292 170.571 116.633C159.949 117.238 149.311 117.188 138.683 117.62C136.104 117.725 133.524 117.804 130.943 117.871C129.582 117.907 126.018 118.727 125.344 117.101C124.867 115.952 125.529 115.423 126.498 115.182ZM185.334 73.822C188.552 73.7923 191.752 73.8485 194.965 74.0328C196.39 74.1146 197.815 74.1935 199.241 74.2538C200.064 74.2888 201.947 74.0187 202.669 74.4008C205.506 75.9014 199.727 76.0659 199.024 76.0541C196.076 76.0045 193.134 75.775 190.186 75.7027C179.344 75.4363 168.421 76.0961 157.588 76.5404C152.377 76.7543 147.169 76.7848 141.96 77.0773C139.113 77.2373 136.268 77.4202 133.42 77.5703C132.107 77.6396 130.794 77.7067 129.479 77.7398C128.67 77.7603 127.021 78.0957 126.272 77.7896C125.635 77.529 125.12 77.1645 125.47 76.3923C125.847 75.5611 127.489 75.9149 128.184 75.9014C130.694 75.8527 133.197 75.7119 135.702 75.5585C141.389 75.2104 147.065 74.8032 152.764 74.7061C163.623 74.5208 174.469 73.9227 185.334 73.822ZM200.272 77.523C200.274 76.0339 202.06 75.7345 202.852 76.7471C203.609 77.7158 203.122 80.6485 203.14 81.8075C203.201 85.6264 203.562 89.4233 203.905 93.2248C204.245 96.995 204.486 100.767 204.749 104.543C204.871 106.288 206.212 113.254 204.262 114.271C201.775 115.568 202.244 108.966 202.174 107.762C201.951 103.888 201.67 100.009 201.319 96.1443C200.752 89.8967 200.267 83.7959 200.272 77.523Z" fill="#69A1AC"/>
<path opacity="0.5" fill-rule="evenodd" clip-rule="evenodd" d="M167.414 95.4565C170.825 96.6689 174.218 97.9354 177.595 99.2402C179.402 99.9383 181.199 100.659 183.002 101.367C183.905 101.722 187.661 102.612 187.877 103.514C188.182 104.787 184.178 103.223 183.542 103.019C181.742 102.444 179.966 101.8 178.189 101.16C174.214 99.7282 170.256 98.2507 166.265 96.8621C165.892 96.7322 165.518 96.6027 165.145 96.4737C160.909 98.3764 156.681 100.297 152.467 102.249C150.208 103.295 147.961 104.366 145.719 105.451C144.058 106.256 141.051 108.551 139.221 108.512C138.528 108.496 138.061 108.348 137.989 107.508C137.897 106.435 139.626 105.994 140.325 105.645C142.72 104.447 145.13 103.279 147.547 102.126C152.348 99.8365 157.193 97.6382 162.056 95.4837C162.084 95.4713 162.112 95.4589 162.14 95.4465C159.443 94.5338 156.738 93.6428 154.028 92.7707C152.479 92.2723 141.619 89.5922 142.015 88.1535C142.46 86.5408 152.078 90.3432 153.558 90.8147C157.2 91.9754 160.832 93.169 164.445 94.4168C173.116 90.5214 181.879 86.3707 190.923 83.5363C191.493 83.3581 191.853 83.9454 191.723 84.4381C191.55 85.0976 189.522 85.6315 188.959 85.8829C186.731 86.8776 184.493 87.8477 182.265 88.8431C177.413 91.0113 172.551 93.1592 167.699 95.3289C167.604 95.3714 167.509 95.4139 167.414 95.4565Z" fill="#89C5CC"/>
<path opacity="0.5" fill-rule="evenodd" clip-rule="evenodd" d="M135.341 122.733C137.559 123.122 139.123 125.249 138.88 127.477C138.551 130.488 135.551 131.867 132.779 131.474C129.634 131.029 128.972 128.37 130.496 125.812C130.833 125.246 131.221 124.569 131.835 124.27C132.256 124.066 132.793 124.247 133.133 124.082C134.323 123.502 133.607 122.579 135.341 122.733ZM134.331 120.767C131.625 121.112 126.625 124.244 126.878 127.377C127.098 127.74 127.428 127.889 127.869 127.823C127.763 128.502 127.797 129.173 127.972 129.837C128.229 130.7 128.742 131.407 129.429 131.968C130.845 133.125 132.779 133.408 134.541 133.206C137.832 132.827 140.425 130.578 140.61 127.156C140.791 123.815 137.874 120.319 134.331 120.767Z" fill="#89C5CC"/>
<path opacity="0.5" fill-rule="evenodd" clip-rule="evenodd" d="M147.438 124.844C146.224 125.487 144.303 126.476 143.591 127.698C142.839 128.989 143.618 130.401 145.203 129.79C146.461 129.306 147.261 127.765 148.603 127.272C149.788 126.836 150.265 127.058 151.517 127.492C152.807 127.939 153.934 128.371 155.328 128.261C157.081 128.123 158.599 127.107 160.314 126.876C161.758 126.681 162.949 127.243 164.332 127.467C165.937 127.726 166.986 127.119 168.488 126.803C169.509 126.587 171.309 127.463 172.054 127.135C173.729 126.399 171.957 125.498 171.03 125.201C169.468 124.7 168.507 125.142 167.021 125.558C165.408 126.009 164.711 125.67 163.17 125.255C160.05 124.417 157.64 126.444 154.683 126.075C151.946 125.734 150.308 123.324 147.438 124.844Z" fill="#89C5CC"/>
<path opacity="0.5" fill-rule="evenodd" clip-rule="evenodd" d="M198.446 123.346C201.449 126.161 198.076 130.166 194.765 127.917C193.6 127.125 193.581 125.853 194.488 124.715C195.318 123.674 197.14 123.268 198.446 123.346ZM197.333 121.071C194.528 121.617 191.882 122.904 191.628 126.142C191.38 129.301 194.62 130.768 197.342 130.56C203.454 130.095 203.012 119.974 197.333 121.071Z" fill="#89C5CC"/>
</g>
<path opacity="0.5" fill-rule="evenodd" clip-rule="evenodd" d="M263.782 16.1571C261.538 16.2005 255.997 17.0167 255.173 19.671C254.548 21.6859 256.405 21.2435 257.401 20.5104C258.747 19.5189 259.928 18.9256 261.597 18.6239C267.954 17.4741 274.062 21.5973 280.358 22.1188C282.742 22.3163 285.62 22.445 287.897 21.6727C289.519 21.1227 289.731 19.9235 287.88 19.7408C286.308 19.5857 284.568 20.0747 282.956 20.0608C276.286 20.0037 270.356 16.0317 263.782 16.1571Z" fill="#C1DEE2"/>
<g opacity="0.5">
<path opacity="0.5" fill-rule="evenodd" clip-rule="evenodd" d="M28.0153 142.215C23.7221 142.263 19.4311 142.422 15.1464 142.693C11.0718 142.951 6.65082 142.755 2.6426 143.545C1.50445 143.769 -0.0330113 144.806 1.48035 145.947C2.54407 146.749 6.43581 145.827 7.70604 145.749C12.3839 145.461 17.0641 145.117 21.7485 144.951C26.1832 144.794 30.6177 144.739 35.0545 144.695C35.7319 144.688 36.8564 144.471 37.5309 144.668C38.5002 144.951 38.2703 145.027 38.3428 146.258C38.4744 148.487 38.438 150.724 38.3938 152.955C38.3511 155.114 38.2712 157.273 38.279 159.433C38.2844 160.974 37.7918 164.037 38.5651 165.375C39.6782 167.302 40.8329 165.209 40.9161 163.929C41.0754 161.481 41.004 159.002 41.0047 156.55C41.0052 154.249 41.0217 151.948 40.9407 149.648C40.8818 147.986 41.1193 145.086 40.2243 143.576C39.3127 142.037 37.1179 142.369 35.5164 142.296C33.0183 142.181 30.5156 142.189 28.0153 142.215Z" fill="#89C5CC"/>
<path opacity="0.5" fill-rule="evenodd" clip-rule="evenodd" d="M0.699835 144.992C0.70456 149.315 0.204359 153.61 0.0642466 157.929C-2.10428e-05 159.915 -0.130447 162.095 0.371881 164.044C0.878933 166.012 2.4894 166.439 2.67488 164.242C3.05057 159.792 2.95842 155.179 3.25093 150.694C3.35418 149.111 4.02616 146.209 3.39884 144.726C2.84642 143.42 0.697472 143.169 0.699835 144.992Z" fill="#89C5CC"/>
<path opacity="0.5" fill-rule="evenodd" clip-rule="evenodd" d="M40.9581 164.05C33.5024 165.037 25.708 164.677 18.1991 164.832C14.5966 164.907 10.9948 164.912 7.39175 164.949C6.13428 164.962 2.94098 164.484 1.85315 165.191C0.121472 166.316 2.00035 167.185 3.14678 167.209C10.2571 167.365 17.4466 167.038 24.5555 166.805C27.7495 166.7 30.9539 166.649 34.1394 166.377C36.1005 166.21 38.2435 166.048 40.1479 165.521C40.5536 165.409 41.4371 165.432 41.528 164.879C41.584 164.537 41.4824 163.978 40.9581 164.05Z" fill="#89C5CC"/>
<path opacity="0.5" fill-rule="evenodd" clip-rule="evenodd" d="M9.95502 170.335C7.88286 170.347 1.6385 169.385 0.780341 171.405C-0.363718 174.1 4.09934 173.471 5.29963 173.44C8.02581 173.37 10.7501 173.363 13.477 173.364C16.1526 173.365 18.828 173.348 21.5031 173.284C22.2781 173.266 24.0821 173.587 24.5279 172.654C24.8668 171.945 24.5991 171.385 23.9741 171.01C22.4704 170.106 18.564 170.63 16.8035 170.549C14.5242 170.444 12.2372 170.335 9.95502 170.335Z" fill="#89C5CC"/>
<path opacity="0.5" fill-rule="evenodd" clip-rule="evenodd" d="M35.1641 170.834C33.9799 170.905 31.5845 170.416 30.5236 170.958C29.3179 171.574 29.7427 172.539 30.7838 172.963C31.5046 173.256 34.4619 173.102 35.1641 172.762C35.8961 172.408 36.7238 170.738 35.1641 170.834Z" fill="#89C5CC"/>
<path opacity="0.5" fill-rule="evenodd" clip-rule="evenodd" d="M48.1472 145.416C46.8824 145.763 47.2661 152.944 47.2335 154.082C47.1442 157.201 46.7936 161.123 47.8299 164.127C48.4907 166.041 49.76 165.782 49.5438 163.766C49.3539 161.997 49.028 160.248 48.887 158.467C48.568 154.437 48.134 150.139 48.4352 146.106C48.5635 146.34 49.7633 148.514 50.0457 148.352C49.9604 148.402 48.6618 145.28 48.1472 145.416Z" fill="#89C5CC"/>
<path opacity="0.5" fill-rule="evenodd" clip-rule="evenodd" d="M62.3742 142.771C59.8146 142.809 57.255 142.855 54.6962 142.926C52.6616 142.982 49.4645 142.648 47.5986 143.504C45.3769 144.523 46.4309 146.793 48.5177 146.841C50.3638 146.884 52.3324 146.467 54.1952 146.404C59.2268 146.231 64.2673 146.195 69.3012 146.152C73.8538 146.112 78.5999 146.598 83.1126 145.914C83.782 151.858 81.9716 157.826 82.5874 163.838C82.6828 164.771 82.6401 166.09 83.8283 166.302C85.328 166.571 85.3896 165.085 85.4466 164.022C85.6089 160.985 85.521 157.946 85.7433 154.905C85.9494 152.087 86.355 149.206 86.0122 146.384C85.5907 142.911 83.9263 143.189 80.9842 143.045C74.7703 142.74 68.595 142.68 62.3742 142.771Z" fill="#89C5CC"/>
<path opacity="0.5" fill-rule="evenodd" clip-rule="evenodd" d="M53.7964 163.876C52.4921 163.909 50.3259 163.507 49.4902 164.758C48.6207 166.059 49.6523 167.194 50.9166 167.461C52.4132 167.777 54.3646 167.344 55.9179 167.339C57.5355 167.335 59.1535 167.353 60.7711 167.359C67.7061 167.386 74.6708 167.491 81.6009 167.204C82.5687 167.164 85.3154 167.489 85.9853 166.561C86.5797 165.737 86.1639 164.999 85.3811 164.579C84.0967 163.891 81.4586 164.153 80.0301 164.098C78.2658 164.031 76.4994 164.009 74.7342 163.982C67.7668 163.874 60.7631 163.704 53.7964 163.876Z" fill="#89C5CC"/>
<path opacity="0.5" fill-rule="evenodd" clip-rule="evenodd" d="M59.6629 169.892C57.0676 169.936 54.2987 169.822 51.7292 170.216C49.4699 170.562 49.1918 172.746 51.6238 173.001C53.8587 173.236 56.5684 172.797 58.8142 172.653C59.6119 172.602 60.5395 172.675 60.9218 171.793C61.3209 170.872 60.5579 169.988 59.6629 169.892Z" fill="#89C5CC"/>
<path opacity="0.5" fill-rule="evenodd" clip-rule="evenodd" d="M79.283 170.121C77.8977 170.156 73.8517 169.56 73.1656 171.142C72.0234 173.776 77.5008 172.776 78.5515 172.737C79.8759 172.688 85.0374 173.461 85.0385 171.353C85.0397 169.286 80.5514 170.09 79.283 170.121Z" fill="#89C5CC"/>
<path opacity="0.5" fill-rule="evenodd" clip-rule="evenodd" d="M0.475627 183.21C0.478935 188.002 0.180752 192.839 0.617867 197.618C0.798619 199.595 0.767667 203.382 1.91267 205.058C2.72547 206.247 3.85275 206.164 4.29672 204.736C4.59348 203.781 4.1188 201.871 4.06587 200.849C4.01484 199.869 3.95529 198.889 3.90993 197.908C3.79344 195.382 3.80266 192.86 3.83739 190.332C3.86716 188.164 4.3891 185.295 3.89693 183.21C3.43808 181.267 0.475627 180.812 0.475627 183.21Z" fill="#69A1AC"/>
<path opacity="0.5" fill-rule="evenodd" clip-rule="evenodd" d="M48.6334 178.995C40.32 179.203 31.9879 179.017 23.6817 179.428C19.5854 179.631 15.5051 180.077 11.4293 180.521C9.42686 180.74 7.42558 180.965 5.42667 181.211C4.82345 181.285 -0.18895 181.48 1.69631 183.386C2.5195 184.218 5.13912 183.349 6.17567 183.226C8.18262 182.989 10.1936 182.782 12.2034 182.57C16.0278 182.165 19.8569 181.782 23.6976 181.57C32.743 181.068 41.8258 181.219 50.8802 180.885C53.3294 180.794 55.7714 180.73 58.2216 180.826C58.865 180.851 63.5929 181.092 61.5401 179.345C60.5695 178.519 56.9098 178.946 55.6967 178.921C53.3424 178.872 50.9867 178.936 48.6334 178.995Z" fill="#69A1AC"/>
<path opacity="0.5" fill-rule="evenodd" clip-rule="evenodd" d="M61.5813 204.275C61.5801 204.277 61.5788 204.279 61.5775 204.28C61.1245 204.948 59.4507 204.762 58.7178 204.812C56.4871 204.964 54.2977 205.219 52.0869 205.551C47.6817 206.211 43.3148 206.617 38.8619 206.727C30.0551 206.945 21.212 206.741 12.4184 207.345C10.4708 207.479 8.55266 207.708 6.63691 208.075C5.26887 208.337 2.63248 209.234 2.47251 206.974C2.27948 204.25 9.11264 204.255 11.0664 204.073C19.4555 203.293 27.9825 203.457 36.3973 203.575C40.4665 203.631 44.5281 203.755 48.594 203.507C52.6559 203.258 56.8556 203.323 60.8877 202.887C60.3684 200.873 60.4444 198.355 60.2987 196.298C59.9244 191.016 60.0246 185.715 59.7836 180.428C59.6775 178.098 62.8507 177.745 63.7918 179.631C64.7424 181.536 64.1247 185.315 64.1862 187.427C64.3284 192.316 65.235 197.79 64.2774 202.626C63.9443 204.307 62.5256 205.191 61.5813 204.275Z" fill="#69A1AC"/>
<path opacity="0.5" fill-rule="evenodd" clip-rule="evenodd" d="M66.6952 182.134C65.5721 182.287 64.6353 183.248 65.1367 184.467C65.7682 186.002 67.6492 185.403 68.8918 185.305C72.8415 184.996 76.9652 185.614 80.8671 185.148C81.9327 185.02 83.4787 184.44 82.522 183.008C81.8028 181.932 79.1824 182.121 78.0686 182.018C74.2591 181.665 70.4997 181.759 66.6952 182.134Z" fill="#C1DEE2"/>
<path opacity="0.5" fill-rule="evenodd" clip-rule="evenodd" d="M73.3611 188.831C71.8293 188.934 68.2636 188.853 67.6181 190.596C66.4604 193.723 70.9955 192.621 72.3763 192.443C73.9804 192.236 77.7618 192.79 78.6159 191.234C80.1432 188.452 74.7043 188.739 73.3611 188.831Z" fill="#C1DEE2"/>
<path opacity="0.5" fill-rule="evenodd" clip-rule="evenodd" d="M69.4218 195.693C68.6953 196.42 68.6941 197.718 69.4218 198.445C70.3128 199.335 72.2541 199.15 73.4249 199.215C75.0578 199.306 79.7477 200.17 80.5586 198.247C81.6525 195.653 77.4057 195.707 76.0088 195.56C74.3943 195.39 70.7599 194.354 69.4218 195.693Z" fill="#C1DEE2"/>
<path opacity="0.5" fill-rule="evenodd" clip-rule="evenodd" d="M12.1802 151.285C12.1802 154.074 16.5364 154.074 16.5364 151.285C16.5364 148.511 12.1802 148.468 12.1802 151.285Z" fill="#89C5CC"/>
<path opacity="0.5" fill-rule="evenodd" clip-rule="evenodd" d="M20.4434 151.316C20.4434 154.505 25.4052 154.499 25.4052 151.316C25.4052 148.139 20.4434 148.106 20.4434 151.316Z" fill="#89C5CC"/>
<path opacity="0.5" fill-rule="evenodd" clip-rule="evenodd" d="M15.4447 155.556C13.0328 156.222 15.2547 158.266 16.3747 158.733C18.1546 159.475 20.5837 160.022 22.3641 158.91C23.0724 158.467 23.6475 157.878 23.1284 157.019C22.5753 156.104 21.818 156.511 20.9759 156.595C19.9092 156.703 19.047 156.686 18.0168 156.344C17.248 156.089 16.2832 155.325 15.4447 155.556Z" fill="#89C5CC"/>
<path opacity="0.5" fill-rule="evenodd" clip-rule="evenodd" d="M59.1946 151.461C59.1946 153.348 62.124 153.348 62.124 151.461C62.124 149.575 59.1946 149.575 59.1946 151.461Z" fill="#89C5CC"/>
<path opacity="0.5" fill-rule="evenodd" clip-rule="evenodd" d="M65.6729 151.745C65.6729 153.841 68.9271 153.842 68.9271 151.745C68.9271 149.649 65.6729 149.649 65.6729 151.745Z" fill="#89C5CC"/>
<path opacity="0.5" fill-rule="evenodd" clip-rule="evenodd" d="M65.4317 156.294C63.7222 156.514 58.7781 157.016 58.5014 159.123C58.0747 162.374 63.4921 159.743 64.7285 159.487C66.3033 159.162 67.7096 159.247 69.2818 159.31C70.145 159.345 71.293 159.485 71.2026 158.17C71.0542 156.011 66.9259 156.103 65.4317 156.294Z" fill="#89C5CC"/>
<path opacity="0.5" fill-rule="evenodd" clip-rule="evenodd" d="M22.4517 186.273C21.2127 186.604 19.5918 188.746 20.4443 190.057C21.8421 192.207 22.4585 188.906 23.0436 188.588C24.108 188.01 24.9721 190.123 26.0845 189.014C27.8398 187.265 23.5568 185.977 22.4517 186.273Z" fill="#69A1AC"/>
<path opacity="0.5" fill-rule="evenodd" clip-rule="evenodd" d="M36.6489 184.684C35.1795 184.697 32.0774 186.778 31.8577 188.314C31.7273 189.226 32.3324 190.103 33.3162 190.116C34.6559 190.132 35.0817 188.39 36.243 188.026C37.4958 187.633 37.3098 188.538 38.3917 189.007C39.1835 189.35 40.1737 189.206 40.4488 188.233C40.9676 186.397 38.1588 184.655 36.6489 184.684Z" fill="#69A1AC"/>
<path opacity="0.5" fill-rule="evenodd" clip-rule="evenodd" d="M25.4012 193.479C23.0509 194.856 26.9181 197.808 28.2587 198.178C30.2827 198.734 34.3561 197.695 34.8358 195.222C35.0267 194.238 34.4112 193.347 33.3252 193.523C32.4312 193.668 31.8577 194.79 31.0296 195.192C29.9117 195.734 28.9179 195.697 27.9681 194.881C27.1943 194.216 26.7799 192.675 25.4012 193.479Z" fill="#69A1AC"/>
<path opacity="0.5" fill-rule="evenodd" clip-rule="evenodd" d="M27.1048 213.829C25.005 214.277 22.8705 213.976 20.7605 214.397C18.609 214.827 17.3231 215.64 15.3242 214.821C15.2302 214.781 15.1364 214.741 15.0426 214.702C13.4954 214.035 11.8739 213.838 10.2544 214.9C9.29606 215.528 6.38677 217.702 6.73741 219.029C7.49728 221.904 10.7709 217.395 11.6057 216.956C13.1975 216.118 14.2889 217.188 15.9277 217.49C17.8907 217.852 19.4702 216.815 21.3193 216.402C23.482 215.919 25.9149 215.75 28.1151 215.492C28.9844 215.39 32.2769 216.077 32.5742 214.995C33.0848 213.137 27.9301 213.654 27.1048 213.829Z" fill="#C1DEE2"/>
<path opacity="0.5" fill-rule="evenodd" clip-rule="evenodd" d="M42.2543 219.621C42.3916 219.725 42.2815 219.641 42.2543 219.621V219.621ZM48.1353 213.716C49.9329 213.534 55.6843 212.25 56.8653 214.107C57.6343 215.317 56.4137 219.783 55.2494 220.36C54.3187 220.822 52.1508 220.312 51.1296 220.276C49.2295 220.209 47.3253 220.179 45.4273 220.06C44.7907 220.021 42.7424 220.138 42.2434 219.574C41.6542 218.909 41.6804 215.363 41.5417 214.483C43.1944 215.018 46.4071 213.892 48.1353 213.716ZM51.9738 211.895C49.6715 211.995 47.3697 212.168 45.0847 212.477C43.8109 212.649 42.5203 213.107 41.3439 213.324C40.9647 213.393 40.3492 213.2 39.8842 213.424C38.5254 214.08 39.7153 218.519 40.043 219.705C40.5462 221.526 41.8129 221.822 43.5876 221.993C45.9253 222.22 48.311 222.148 50.6561 222.12C52.9166 222.092 55.9646 222.593 57.2329 220.325C58.0528 218.858 58.9322 215.443 58.2314 213.809C57.3095 211.658 53.8671 211.816 51.9738 211.895Z" fill="#C1DEE2"/>
<path opacity="0.5" fill-rule="evenodd" clip-rule="evenodd" d="M77.7553 220.84C77.6322 220.999 77.6322 220.999 77.7553 220.84V220.84ZM78.2598 220.232C78.2217 220.29 78.045 220.477 78.2598 220.232V220.232ZM72.7694 220.065C73.7842 219.874 74.7995 219.685 75.8155 219.5C74.8533 220.847 73.8402 220.29 72.1966 220.173C72.3875 220.137 72.5785 220.101 72.7694 220.065ZM67.9276 219.589C68.1849 219.503 68.4419 219.416 68.6992 219.33C68.6914 219.526 68.7335 219.71 68.8254 219.88C68.385 219.833 67.945 219.782 67.5056 219.728C67.6462 219.681 67.787 219.635 67.9276 219.589ZM65.6839 217.932C65.6694 217.578 66.2008 217.821 66.5054 217.797C65.9183 218.314 65.6444 218.359 65.6839 217.932ZM73.7081 213.924C73.7854 213.825 73.8877 213.83 74.015 213.939C73.8761 213.985 73.3409 214.212 73.7081 213.924ZM78.9119 213.312C78.9256 213.312 79.2143 213.702 78.9119 213.312V213.312ZM78.7659 213.184C78.8415 213.242 78.8415 213.242 78.7659 213.184V213.184ZM78.1163 213.108C79.1803 213.288 79.0995 214.537 78.1163 213.108V213.108ZM65.6161 213.023C65.3999 213.203 65.4738 213.029 65.6161 213.023V213.023ZM69.685 210.365C67.8786 210.47 64.563 210.364 63.0543 211.327C61.0857 212.583 62.1215 216.907 62.2978 218.803C62.5581 221.605 63.8766 222.403 66.5156 222.697C69.6649 223.048 72.9007 223.114 76.0664 223.031C78.9173 222.956 80.541 221.975 81.0632 218.973C81.2232 218.055 81.6291 216.634 81.6163 215.754C81.6076 215.144 81.3035 214.866 81.1884 214.347C80.5337 211.393 79.4388 211.042 76.4109 210.914C74.1823 210.819 71.8717 210.25 69.685 210.365Z" fill="#89C5CC"/>
</g>
<g opacity="0.5">
<path opacity="0.5" fill-rule="evenodd" clip-rule="evenodd" d="M165.37 142.496C169.963 142.594 175.173 145.136 174.447 150.52C173.915 154.465 170.5 157.667 166.544 157.943C162.293 158.24 157.798 154.977 157.221 150.649C156.571 145.78 160.879 142.399 165.37 142.496ZM163.118 140.304C161.256 140.582 159.477 141.56 157.838 142.436C157.212 142.77 154.039 144.809 156.528 145.316C150.532 154.985 164.642 163.967 172.575 157.682C176.138 154.86 178.013 149.51 175.71 145.321C173.329 140.99 167.681 139.619 163.118 140.304Z" fill="#89C5CC"/>
<path opacity="0.5" fill-rule="evenodd" clip-rule="evenodd" d="M162.02 148.535C162.02 150.34 164.823 150.34 164.823 148.535C164.823 146.729 162.02 146.729 162.02 148.535Z" fill="#89C5CC"/>
<path opacity="0.5" fill-rule="evenodd" clip-rule="evenodd" d="M167.218 148.824C167.218 150.782 170.257 150.782 170.257 148.824C170.257 146.866 167.218 146.866 167.218 148.824Z" fill="#89C5CC"/>
<path opacity="0.5" fill-rule="evenodd" clip-rule="evenodd" d="M163.71 152.696C163.301 154.181 167.965 154.943 168.12 153.224C168.194 152.403 163.995 151.66 163.71 152.696Z" fill="#89C5CC"/>
<path opacity="0.5" fill-rule="evenodd" clip-rule="evenodd" d="M177.381 151.778C182.747 151.134 188.279 151.431 193.671 151.586C195.021 151.625 196.37 151.663 197.719 151.685C198.577 151.7 200.43 152.111 201.179 151.71C204.246 150.065 198.23 149.27 197.379 149.194C192.015 148.753 183.738 148.596 178.359 148.804C176.768 148.866 176.425 151.892 177.381 151.778Z" fill="#89C5CC"/>
<path opacity="0.5" fill-rule="evenodd" clip-rule="evenodd" d="M201.527 178.453C201.573 172.831 201.774 167.17 202.207 161.565C202.383 159.28 202.594 156.998 202.769 154.713C202.851 153.637 203.234 152.13 202.601 151.185C201.949 150.213 200.519 150.01 199.658 150.873C198.626 152.208 198.926 154.449 198.797 156.064C198.6 158.548 198.362 161.029 198.244 163.518C198.015 168.336 197.961 173.237 198.348 178.047C198.531 180.317 198.927 182.532 199.455 184.746C199.695 185.754 201.605 190.243 201.203 190.862C200.581 191.822 195.981 191.459 194.984 191.486C192.424 191.554 189.863 191.599 187.302 191.648C185.109 191.69 182.917 191.72 180.724 191.739C179.854 191.747 174.738 191.592 175.873 192.883C163.184 193.767 150.252 192.291 137.64 191.785C137.003 191.759 135.96 191.578 134.998 191.526C134.883 191.061 134.788 190.646 134.765 190.357C134.599 188.33 134.556 186.297 134.376 184.27C134.047 180.562 133.41 176.892 133.031 173.191C132.652 169.494 132.69 165.785 132.47 162.079C132.432 161.444 132.343 156.241 131.03 154.977C131.652 155.213 132.656 155.244 133.234 155.198C137.912 154.82 142.557 154.007 147.195 153.309C148.522 153.11 151.533 153.251 152.634 152.588C153.587 152.014 153.964 150 152.307 150.163C147.681 150.659 143.081 151.428 138.493 152.185C137.265 152.387 136.041 152.604 134.817 152.825C133.999 152.972 131.842 152.961 131.208 153.454C130.438 154.052 130.356 154.459 130.617 154.73C130.254 154.63 129.819 154.787 129.297 155.31C128.31 156.595 129.238 159.76 129.356 161.267C129.497 163.074 129.567 164.885 129.649 166.696C129.808 170.2 130.175 173.656 130.739 177.118C131.37 180.996 131.908 184.891 132.541 188.768C132.706 189.778 132.921 190.762 133.196 191.737C131.489 192.61 132.649 193.998 134.003 194.245C134.012 194.246 134.023 194.248 134.032 194.249C134.454 195.278 135.044 196.232 135.505 194.853C135.54 194.747 135.557 194.617 135.561 194.471C139.057 194.866 142.899 194.621 146.34 194.761C153.795 195.066 161.296 195.523 168.758 195.291C171.712 195.2 174.675 194.937 177.605 194.543C179.321 194.312 181.044 194.037 182.733 193.654C182.854 193.627 183.038 193.598 183.25 193.563C183.285 193.562 183.32 193.561 183.353 193.56C185.939 193.521 188.523 193.452 191.107 193.345C193.275 193.255 195.454 193.208 197.616 193.004C198.959 192.877 201.797 192.9 202.621 191.55C203.371 190.322 202.118 187.159 201.939 185.78C201.627 183.351 201.507 180.9 201.527 178.453Z" fill="#C1DEE2"/>
<path opacity="0.5" fill-rule="evenodd" clip-rule="evenodd" d="M175.32 162.219C173.254 162.396 171.343 163.366 169.257 163.378C167.507 163.388 165.784 162.865 164.024 162.942C161.959 163.032 160.824 164.368 159.015 164.814C157.575 165.17 156.668 164.068 155.402 163.58C153.803 162.964 152.622 163.282 151.252 164.213C150.245 164.898 147.896 166.433 147.915 167.817C147.969 172.009 152.859 166.218 153.845 166.148C155.155 166.055 156.619 167.548 158.013 167.633C159.856 167.746 161.037 166.558 162.734 166.125C164.45 165.687 166.305 166.224 168.025 166.39C169.988 166.58 171.706 166.142 173.605 165.674C175.445 165.22 177.013 165.244 178.883 165.625C180.145 165.883 183.289 167.379 183.841 165.455C184.593 162.835 176.765 162.096 175.32 162.219Z" fill="#89C5CC"/>
<path opacity="0.5" fill-rule="evenodd" clip-rule="evenodd" d="M175.949 170.214C171.715 170.625 167.455 170.985 163.202 171.101C161.36 171.151 154.278 170.361 154.906 172.702C155.444 174.709 165.081 173.446 167.044 173.293C169.211 173.124 171.375 172.889 173.531 172.616C174.295 172.52 176.141 172.62 176.68 171.979C177.194 171.367 176.94 170.115 175.949 170.214Z" fill="#89C5CC"/>
<path opacity="0.5" fill-rule="evenodd" clip-rule="evenodd" d="M146.74 180.875C146.644 180.915 146.644 180.915 146.74 180.875V180.875ZM147.633 180.863C148.689 180.829 148.462 180.273 149.515 180.563C150.001 180.696 150.051 180.498 150.427 180.962C151.162 181.868 150.47 183.84 149.746 184.57C147.065 187.272 143.847 180.983 147.633 180.863ZM147.633 178.212C140.293 178.458 143.364 189.797 149.753 187.482C152.391 186.526 154.049 182.22 152.497 179.8C151.743 178.623 150.78 178.413 149.515 178.332C149.222 178.313 148.852 178.74 148.669 178.72C148.233 178.674 148.274 178.188 147.633 178.212Z" fill="#89C5CC"/>
<path opacity="0.5" fill-rule="evenodd" clip-rule="evenodd" d="M165.186 181.263C165.055 181.223 167.504 181.935 167.236 181.656C167.807 182.251 167.039 183.657 166.392 183.902C164.826 184.497 163.947 182.061 165.186 181.263ZM166.273 178.189C163.974 178.514 162.201 179.471 161.886 182.027C161.597 184.386 163.191 186.775 165.705 186.821C171.185 186.921 171.352 177.48 166.273 178.189Z" fill="#89C5CC"/>
<path opacity="0.5" fill-rule="evenodd" clip-rule="evenodd" d="M191.29 181.366C191.611 185.555 187.267 181.721 191.29 181.366V181.366ZM189.426 176.885C189.046 177.534 189.37 178.223 189.943 178.601C184.819 179.684 185.98 187.394 191.194 186.255C193.845 185.676 194.333 182.887 193.937 180.585C193.749 179.491 191.022 174.156 189.426 176.885Z" fill="#89C5CC"/>
</g>
<path opacity="0.5" fill-rule="evenodd" clip-rule="evenodd" d="M201.548 180.908C200.02 181.179 196.409 182.866 196.441 184.678C196.49 187.506 199.559 184.417 200.241 184.002C203.908 181.77 208.658 184.662 212.476 185.277C214.227 185.559 217.652 186.081 219.198 184.907C221.948 182.821 215.588 183.343 214.778 183.259C210.376 182.805 205.996 180.113 201.548 180.908Z" fill="#C1DEE2"/>
<g opacity="0.5">
<path opacity="0.5" fill-rule="evenodd" clip-rule="evenodd" d="M273.692 161.023C273.691 163.917 273.544 166.871 274.078 169.73C274.239 170.595 274.366 172.253 275.28 172.702C276.197 173.154 277.086 172.647 277.314 171.707C277.58 170.613 276.997 168.976 276.938 167.827C276.857 166.258 276.851 164.687 276.85 163.117C276.85 161.982 277.223 160.158 275.884 159.574C274.888 159.14 273.692 159.947 273.692 161.023Z" fill="#C1DEE2"/>
<path opacity="0.5" fill-rule="evenodd" clip-rule="evenodd" d="M319.44 156.446C309.852 157.409 300.127 157.609 290.505 158.111C286.057 158.343 280.682 158.047 276.491 159.768C275.714 160.088 272.927 161.868 275.189 162.592C275.894 162.818 276.611 162.058 277.19 161.804C278.154 161.38 279.271 161.249 280.299 161.084C289.042 159.68 298.187 159.924 307.02 159.268C309.284 159.1 311.548 158.927 313.807 158.705C315.421 158.546 318.812 157.383 320.301 157.978C322.846 158.994 322.787 165.599 322.837 167.871C322.863 169.045 321.723 173.262 323.989 172.835C325.803 172.492 325.146 168.112 325.005 166.913C324.634 163.772 324.001 155.984 319.44 156.446Z" fill="#C1DEE2"/>
<path opacity="0.5" fill-rule="evenodd" clip-rule="evenodd" d="M322.975 172.682C314.648 173.434 306.128 172.696 297.766 172.992C293.383 173.147 289.004 173.394 284.621 173.539C282.725 173.602 280.827 173.604 278.93 173.618C278.023 173.624 273.894 174.174 276.449 175.973C277.579 176.769 281.183 176.128 282.481 176.112C284.43 176.089 286.378 176.008 288.325 175.932C292.837 175.755 297.345 175.511 301.859 175.389C306.177 175.272 310.497 175.247 314.814 175.13C316.962 175.072 319.14 175.006 321.269 174.692C321.75 174.621 323.31 174.565 323.644 174.029C323.959 173.523 323.738 172.609 322.975 172.682Z" fill="#89C5CC"/>
<path opacity="0.5" fill-rule="evenodd" clip-rule="evenodd" d="M282.046 166.43C282.001 166.536 282.001 166.536 282.046 166.43V166.43ZM285.652 165.334C285.784 165.389 285.784 165.389 285.652 165.334V165.334ZM285.484 165.303C287.427 167.284 284.438 169.649 282.618 167.715C280.685 165.664 284.232 165.31 285.484 165.303ZM283.422 162.306C276.728 163.498 279.098 172.419 285.351 171.13C288.095 170.564 289.665 167.799 288.72 165.142C288.351 164.105 287.547 162.966 286.426 162.639C285.868 162.476 285.374 162.732 284.841 162.672C284.334 162.615 284.052 162.193 283.422 162.306Z" fill="#C1DEE2"/>
<path opacity="0.5" fill-rule="evenodd" clip-rule="evenodd" d="M309.042 164.817C305.005 164.83 300.968 165.002 296.932 165.078C295.694 165.102 292.512 164.547 292.507 166.499C292.501 168.585 296.046 167.814 297.225 167.786C301.229 167.691 305.242 167.515 309.23 167.134C310.237 167.038 313.724 167.204 313.72 165.834C313.717 164.383 309.855 164.817 309.042 164.817Z" fill="#C1DEE2"/>
<path opacity="0.5" fill-rule="evenodd" clip-rule="evenodd" d="M318.683 178.429C308.699 178.696 298.731 178.79 288.755 179.301C285.024 179.492 281.298 179.634 277.561 179.634C276.841 179.634 275.392 179.355 274.715 179.809C272.877 181.038 274.97 182.093 276.168 182.159C284.363 182.614 292.676 181.482 300.867 181.227C305.661 181.077 310.457 181.033 315.249 180.789C316.557 180.722 317.864 180.645 319.169 180.544C319.92 180.486 321.905 180.645 322.511 180.206C325.16 178.289 319.576 178.404 318.683 178.429Z" fill="#89C5CC"/>
<path opacity="0.5" fill-rule="evenodd" clip-rule="evenodd" d="M272.876 183.31C272.783 185.899 272.773 188.442 273.111 191.016C273.245 192.029 273.306 193.178 274.493 193.436C275.571 193.669 276.118 192.854 276.342 191.95C276.887 189.741 276.407 186.563 276.401 184.269C276.398 183.135 276.397 181.866 274.995 181.61C273.926 181.414 272.917 182.186 272.876 183.31Z" fill="#89C5CC"/>
<path opacity="0.5" fill-rule="evenodd" clip-rule="evenodd" d="M329.265 189.55C313.104 190.402 296.964 191.145 280.792 191.829C279.531 191.882 269.733 191.776 273.158 195.193C274.216 196.248 276.942 195.533 278.31 195.466C280.366 195.365 282.423 195.288 284.48 195.183C292.632 194.768 300.805 194.656 308.951 194.19C313.434 193.934 317.907 193.533 322.367 193.011C324.488 192.763 327.121 192.789 329.107 191.957C330.129 191.53 331.232 189.446 329.265 189.55Z" fill="#89C5CC"/>
<path opacity="0.5" fill-rule="evenodd" clip-rule="evenodd" d="M319.973 176.42C318.744 177.644 319.376 180.059 319.468 181.572C319.596 183.654 319.75 185.737 320.01 187.807C320.179 189.152 320.09 191.246 320.808 192.407C321.648 193.768 323.498 193.617 324.258 192.303C324.93 191.14 324.59 188.695 324.572 187.406C324.548 185.625 324.437 183.841 324.331 182.063C324.243 180.577 324.58 178.196 323.762 176.924C322.932 175.631 321.124 175.274 319.973 176.42Z" fill="#89C5CC"/>
<path opacity="0.5" fill-rule="evenodd" clip-rule="evenodd" d="M283.034 185.919C282.89 186.03 282.89 186.03 283.034 185.919V185.919ZM285.904 185.559C288.583 186.098 284.252 189.225 282.883 187.079C282.669 186.743 282.558 186.331 282.901 186.04C283.215 185.773 283.411 186.245 283.707 186.118C284.217 185.9 285.361 185.539 285.904 185.559ZM285.535 182.992C283.706 183.136 281.192 183.249 280.287 185.082C279.071 187.545 281.151 189.956 283.556 190.33C285.871 190.691 289.328 189.409 289.513 186.708C289.663 184.531 287.592 182.825 285.535 182.992Z" fill="#89C5CC"/>
<path opacity="0.5" fill-rule="evenodd" clip-rule="evenodd" d="M300.802 184.294C298.909 184.324 295.188 183.764 293.539 184.687C291.907 185.6 292.634 187.226 294.123 187.615C295.107 187.872 296.715 187.457 297.74 187.415C299.088 187.361 300.436 187.349 301.785 187.33C304.053 187.3 306.32 187.325 308.588 187.325C310.905 187.325 313.261 187.389 315.573 187.218C318.499 187.003 318.42 184.812 315.559 184.538C310.698 184.073 305.678 184.217 300.802 184.294Z" fill="#89C5CC"/>
<path opacity="0.5" fill-rule="evenodd" clip-rule="evenodd" d="M295.966 208.832C295.966 209.873 296.889 208.832 296.883 208.832C296.889 208.832 295.966 207.791 295.966 208.832Z" fill="#89C5CC"/>
<path opacity="0.5" fill-rule="evenodd" clip-rule="evenodd" d="M275.074 200.452C275.133 203.478 275.172 206.507 275.302 209.53C275.343 210.486 275.069 212.353 276.228 212.84C277.517 213.383 277.918 212.03 278.067 211.114C278.537 208.211 278.076 204.897 278.031 201.959C278.016 200.973 278.229 199.6 277.109 199.108C276.195 198.707 275.055 199.452 275.074 200.452Z" fill="#89C5CC"/>
<path opacity="0.5" fill-rule="evenodd" clip-rule="evenodd" d="M324.832 200.5C324.909 200.68 324.909 200.68 324.832 200.5V200.5ZM324.94 200.469C325.002 200.495 325.253 200.6 324.94 200.469V200.469ZM300.497 198.023C295.852 198.096 291.204 198.151 286.562 198.35C284.58 198.435 282.576 198.504 280.602 198.69C279.204 198.823 275.73 198.878 274.823 200.021C272.951 202.379 276.92 201.736 277.775 201.545C279.331 201.196 280.919 201.084 282.508 201C285.957 200.818 289.407 200.721 292.861 200.652C302.225 200.463 311.595 200.492 320.961 200.449C321.868 200.445 323.507 200.081 324.344 200.448C325.183 200.815 325.136 201.719 325.223 202.769C325.339 204.165 324.418 206.826 325.12 208C326.209 209.822 327.791 208.275 328.034 206.947C328.368 205.112 327.838 202.908 327.319 201.154C326.587 198.679 325.571 198.58 323.177 198.387C320.38 198.161 317.593 198.024 314.787 197.998C310.025 197.954 305.259 197.949 300.497 198.023Z" fill="#89C5CC"/>
<path opacity="0.5" fill-rule="evenodd" clip-rule="evenodd" d="M318.869 210.531C308.794 211.701 298.432 211.012 288.304 211.053C285.841 211.063 283.375 211.083 280.915 211.202C279.615 211.265 276.534 210.907 275.644 211.909C273.767 214.023 277.148 214.33 278.382 214.243C280.878 214.065 283.379 213.984 285.881 213.965C294.694 213.897 303.556 214.308 312.362 213.873C316.051 213.691 319.658 213.06 323.278 212.355C324.081 212.199 329.572 211.155 326.441 209.904C324.59 209.164 320.813 210.304 318.869 210.531Z" fill="#89C5CC"/>
<path opacity="0.5" fill-rule="evenodd" clip-rule="evenodd" d="M289.453 206.662C289.383 206.752 289.383 206.752 289.453 206.662V206.662ZM289.385 206.646C289.361 206.711 289.287 206.871 289.385 206.646V206.646ZM288.75 205.827C288.764 205.846 288.824 205.922 288.75 205.827V205.827ZM288.725 205.821C288.968 206.11 289.131 206.433 289.215 206.789C287.128 207.355 286.323 205.666 288.725 205.821ZM288.593 205.741C288.594 205.742 288.887 205.865 288.593 205.741V205.741ZM285.164 203.226C283.813 204.908 282.698 206.869 284.382 208.79C285.888 210.508 288.918 210.73 290.83 209.583C292.798 208.401 292.628 205.913 291.255 204.289C290.371 203.243 289.654 203.272 288.371 203.101C287.497 202.985 285.905 202.306 285.164 203.226Z" fill="#89C5CC"/>
<path opacity="0.5" fill-rule="evenodd" clip-rule="evenodd" d="M299.13 206.339C299.13 208.58 308.803 207.615 310.524 207.613C311.965 207.611 320.682 208.406 320.056 206.1C319.542 204.206 310.956 205.148 309.128 205.145C307.547 205.143 299.13 204.058 299.13 206.339Z" fill="#89C5CC"/>
</g>
<g opacity="0.5">
<path opacity="0.5" fill-rule="evenodd" clip-rule="evenodd" d="M172.845 227.329C177.69 228.032 182.729 230.311 182.687 235.95C182.651 240.691 178.675 245.737 173.569 245.453C168.973 245.199 164.647 240.174 164.071 235.868C163.773 233.636 164.331 231.234 165.643 229.399C167.363 226.994 170.091 226.998 172.845 227.329ZM170.557 224.264C167.053 224.283 164.489 225.551 162.321 228.226C161.543 229.185 160.639 230.218 160.047 231.305C159.494 232.32 159.591 234.901 161.488 233.691C161.021 238.688 163.941 243.538 168.14 246.099C172.704 248.882 177.862 248.34 181.66 244.438C185.137 240.867 186.361 234.834 183.817 230.418C181.275 226.003 175.385 224.217 170.557 224.264Z" fill="#89C5CC"/>
<path opacity="0.5" fill-rule="evenodd" clip-rule="evenodd" d="M181.064 222.925C178.82 224.569 176.772 226.734 175.071 228.93C173.408 231.076 172.309 233.756 170.311 235.628C169.302 234.529 168.12 231.561 166.108 232.739C164.438 233.716 165.513 235.396 166.327 236.499C168.427 239.347 170.759 240.494 173.452 237.679C175.899 235.123 177.288 231.714 179.575 229.011C180.578 227.825 182.128 226.648 182.927 225.339C183.651 224.152 182.755 221.681 181.064 222.925Z" fill="#89C5CC"/>
</g>
<g opacity="0.5">
<path opacity="0.5" fill-rule="evenodd" clip-rule="evenodd" d="M242.727 59.4836C242.803 59.4721 242.876 59.4639 242.947 59.4594C244.818 59.3408 246.713 59.3898 248.587 59.3464C252.424 59.2575 256.413 59.4672 260.228 59.0179C261.004 58.9174 261.275 59.9121 260.927 60.4278C260.537 61.0066 259.287 60.9771 258.709 61.0628C257.015 61.3135 255.299 61.401 253.591 61.4768C251.796 61.5563 250 61.6157 248.204 61.6657C246.649 61.7086 243.197 62.3592 241.758 61.7082C240.637 61.2009 240.663 60.6375 241.121 60.2011C240.843 59.5912 240.889 58.5925 240.83 58.1132C240.581 56.1046 240.431 54.1217 240.427 52.0959C240.42 48.1277 240.428 44.0065 241.526 40.1655C241.086 39.9731 240.821 39.6893 240.822 39.2802C240.828 36.8511 249.739 37.4311 251.546 37.383C253.767 37.325 255.989 37.3174 258.21 37.3294C259.678 37.3372 261.664 37.0204 263.125 37.3601C265.972 38.0208 265.791 42.9002 265.85 45.2596C265.954 49.4917 265.894 53.9408 265.55 58.1629C265.431 59.6207 264.371 61.4685 263.161 59.4589C262.486 58.3384 262.787 55.721 262.786 54.4831C262.783 50.0821 263.472 45.5481 262.813 41.1697C262.596 39.7343 262.644 39.6374 261.184 39.6676C260.026 39.6916 258.867 39.7301 257.709 39.7544C255.35 39.8039 252.99 39.8362 250.632 39.9226C249.737 39.9556 246.519 40.5177 244.01 40.5156C244.011 40.5356 244.013 40.5557 244.013 40.5762C244.048 42.273 243.216 44.3323 243.103 46.1175C242.831 50.4112 243.155 54.8053 242.753 59.0772C242.741 59.2068 242.735 59.3447 242.727 59.4836Z" fill="#89C5CC"/>
<path opacity="0.5" fill-rule="evenodd" clip-rule="evenodd" d="M276.512 60.7249C276.221 60.4271 275.958 59.9898 275.789 59.4441C275.184 57.4853 275.127 55.3715 275.082 53.3403C274.986 48.9989 275.034 44.65 275.008 40.3071C274.614 39.7782 274.848 39.1733 275.339 38.7513C276.667 37.6117 280.492 37.9009 282.177 37.8118C284.602 37.6834 287.029 37.654 289.457 37.645C292.028 37.632 294.603 37.6783 297.173 37.7573C298.127 37.7865 304.756 37.9533 301.793 39.5606C301.623 39.6527 301.432 39.7296 301.224 39.7934C301.347 40.5237 301.362 41.2778 301.342 41.641C301.216 43.9523 301.162 46.2678 301.06 48.5802C300.945 51.1613 300.836 53.7422 300.747 56.3244C300.7 57.6895 301.167 60.8637 300.087 61.8492C299.359 62.5136 298.861 62.3804 298.526 61.9292C295.941 62.68 289.975 62.1962 288.888 62.1967C286.941 62.1974 276.368 63.449 276.35 61.1965C276.349 61.0218 276.406 60.8652 276.512 60.7249ZM278.23 59.9282C281.18 59.2984 286.68 59.7192 287.837 59.7149C289.992 59.7064 292.148 59.7364 294.302 59.8225C294.973 59.8493 296.615 59.7201 297.912 59.8638C297.9 59.7464 297.892 59.6391 297.888 59.5465C297.77 57.222 297.898 54.8733 297.973 52.5488C298.049 50.2059 298.164 47.865 298.254 45.5226C298.301 44.3178 297.997 41.8029 298.326 40.0689C296.761 40.0392 295.119 39.85 294.063 39.8498C291.584 39.8496 289.107 39.8215 286.628 39.8706C283.951 39.9237 281.245 39.9551 278.587 40.3082C278.441 40.3276 278.266 40.3649 278.073 40.4103C278.477 42.103 277.986 44.8251 277.984 46.3933C277.979 50.7875 278.141 55.1578 278.24 59.5288C278.243 59.672 278.24 59.8051 278.23 59.9282Z" fill="#89C5CC"/>
<path opacity="0.5" fill-rule="evenodd" clip-rule="evenodd" d="M251.624 61.5735C250.031 62.5046 250.89 66.229 251.442 67.5172C252.35 69.6353 254.192 71.2926 256.179 72.3921C260.196 74.6142 265.986 74.024 269.024 77.8765C269.056 77.9164 270.106 78.956 270.345 77.6098C270.541 76.5048 268.581 74.8175 267.821 74.2637C265.661 72.6889 262.89 72.181 260.392 71.3943C257.727 70.5553 254.803 69.0085 253.685 66.2614C253.29 65.2883 254.044 60.1532 251.624 61.5735Z" fill="#C1DEE2"/>
<path opacity="0.5" fill-rule="evenodd" clip-rule="evenodd" d="M288.06 63.364C286.6 63.7667 287.566 65.7765 287.563 66.7828C287.561 68.0382 287.159 69.3521 286.385 70.3539C284.423 72.8947 280.581 73.2754 277.701 74.0038C275.61 74.5331 270.606 75.668 270.41 78.4966C270.191 81.6553 274.609 77.8113 274.982 77.6537C279.111 76.1391 284.453 75.8466 287.64 72.5125C288.956 71.1363 289.733 69.2995 289.857 67.4036C289.926 66.3362 289.938 62.851 288.06 63.364Z" fill="#C1DEE2"/>
<path opacity="0.5" fill-rule="evenodd" clip-rule="evenodd" d="M268.498 80.6728C274.577 79.0714 280.239 83.3308 280.956 89.4583C281.712 95.9247 276.839 101.131 270.411 101.416C264.758 101.667 257.917 97.6189 257.881 91.3824C257.847 85.5381 263.44 82.0028 268.498 80.6728ZM271.423 85.0318C270.384 85.6378 270.193 84.0656 269.457 83.858C268.718 83.65 267.531 84.4272 266.915 84.8804C265.87 85.6501 262.975 90.1301 261.571 87.6971C257.313 95.0505 267.929 100.554 273.966 97.7708C280.597 94.7146 279.306 83.5413 271.461 83.483C271.789 83.93 272.086 84.6433 271.423 85.0318Z" fill="#89C5CC"/>
<path opacity="0.5" fill-rule="evenodd" clip-rule="evenodd" d="M265.896 89.4259C265.896 90.7674 268.015 90.7674 268.015 89.4259C268.015 88.0997 265.896 88.0429 265.896 89.4259Z" fill="#89C5CC"/>
<path opacity="0.5" fill-rule="evenodd" clip-rule="evenodd" d="M269.624 89.1742C269.624 90.8174 272.22 90.8174 272.22 89.1742C272.22 87.5496 269.624 87.4803 269.624 89.1742Z" fill="#89C5CC"/>
<path opacity="0.5" fill-rule="evenodd" clip-rule="evenodd" d="M266.956 93.0032C264.833 94.252 270.905 96.7333 271.144 94.1978C271.248 93.1037 270.188 93.3988 269.482 93.3184C268.806 93.2412 267.597 92.6301 266.956 93.0032Z" fill="#89C5CC"/>
<path opacity="0.5" fill-rule="evenodd" clip-rule="evenodd" d="M266.035 101.863C266.128 105.053 266.083 108.24 266.688 111.386C266.803 111.983 266.883 114.15 267.355 114.594C268.516 115.685 268.536 113.593 268.581 112.791C268.742 109.919 268.44 106.958 268.374 104.08C268.359 103.461 268.524 102.178 268.231 101.578C267.767 100.626 265.99 100.344 266.035 101.863Z" fill="#C1DEE2"/>
<path opacity="0.5" fill-rule="evenodd" clip-rule="evenodd" d="M263.765 99.2767C259.11 104.501 252.701 104.116 246.244 104.573C242.832 104.815 239.383 105.312 236.637 107.518C235.36 108.545 234.259 109.831 233.52 111.296C233.196 111.937 231.662 115.633 233.966 114.756C234.783 114.445 235.587 112.001 236.116 111.278C237.122 109.9 238.41 108.764 239.955 108.025C242.934 106.599 246.492 106.624 249.723 106.443C253.101 106.254 256.726 106.077 259.83 104.608C261.291 103.917 262.661 103.056 263.836 101.945C264.256 101.548 265.157 100.874 265.224 100.267C265.301 99.5735 264.634 98.3035 263.765 99.2767Z" fill="#C1DEE2"/>
<path opacity="0.5" fill-rule="evenodd" clip-rule="evenodd" d="M240.268 115.311C235.896 115.457 231.529 115.634 227.163 115.91C226.268 115.967 223.285 115.786 224.045 117.62C224.654 119.089 228.292 118.117 229.495 118.046C234.045 117.776 238.613 117.682 243.153 117.273C244.173 117.181 248.783 117.217 246.879 115.41C245.974 114.55 241.519 115.268 240.268 115.311Z" fill="#89C5CC"/>
<path opacity="0.5" fill-rule="evenodd" clip-rule="evenodd" d="M221.269 117.42C219.891 119.23 220.524 123.629 220.628 125.805C220.729 127.913 220.32 131.769 223.072 132.096C222.198 131.981 223.735 132.149 223.986 132.162C224.544 132.192 225.106 132.202 225.665 132.208C226.958 132.222 228.251 132.205 229.544 132.179C232.472 132.12 235.407 132.035 238.331 131.873C239.56 131.805 246.228 131.862 246.493 130.585C246.83 128.954 240.437 129.877 239.292 129.929C236.505 130.057 233.713 130.084 230.924 130.12C229.541 130.138 228.157 130.152 226.774 130.125C226.203 130.114 223.942 130.348 223.595 129.967C223.299 129.643 223.53 126.662 223.524 126.206C223.504 124.719 223.505 123.229 223.558 121.743C223.594 120.743 224.135 118.839 223.694 117.9C223.265 116.986 222.016 116.674 221.269 117.42Z" fill="#89C5CC"/>
<path opacity="0.5" fill-rule="evenodd" clip-rule="evenodd" d="M243.782 117.504C243.862 120.816 243.886 124.194 244.668 127.432C244.929 128.51 245.293 130.732 246.376 131.29C247.513 131.876 248.494 131.04 248.568 129.914C248.661 128.498 247.903 126.64 247.748 125.187C247.566 123.493 247.461 121.797 247.399 120.094C247.352 118.813 247.741 116.893 246.52 116.067C245.423 115.325 243.746 116.072 243.782 117.504Z" fill="#89C5CC"/>
<path opacity="0.5" fill-rule="evenodd" clip-rule="evenodd" d="M252.483 116.696C251.123 118.05 251.731 122.339 251.901 124.079C252.025 125.354 253.421 131.625 255.511 128.355C256.436 126.908 255.261 123.083 255.269 121.397C255.275 120.323 255.655 118.964 255.471 117.932C255.229 116.568 253.716 115.464 252.483 116.696Z" fill="#89C5CC"/>
<path opacity="0.5" fill-rule="evenodd" clip-rule="evenodd" d="M284.468 127.888C284.768 128.213 284.9 128.674 284.706 129.126C284.239 130.211 282.518 129.977 281.584 130.055C278.466 130.315 275.333 130.488 272.204 130.516C269.18 130.542 266.156 130.465 263.132 130.494C260.614 130.519 257.99 131.03 255.495 130.927C254.453 130.884 253.34 130.543 253.604 129.197C253.838 128.002 255.04 127.993 256.02 127.893C258.972 127.593 261.926 127.486 264.893 127.497C271.126 127.518 277.354 127.486 283.587 127.454C283.843 127.475 284.085 127.573 284.284 127.722C283.958 127.326 284.114 126.74 284.053 126.168C283.89 124.626 283.784 123.11 283.492 121.569C283.258 120.335 283.081 118.241 281.939 117.465C280.691 116.618 277.922 116.898 276.433 116.86C272.427 116.756 268.397 117.041 264.409 117.403C262.59 117.569 260.749 117.695 258.951 118.021C257.95 118.203 255.012 119.673 254.212 118.769C252.287 116.591 260.749 115.696 261.898 115.578C265.982 115.157 270.071 114.84 274.178 114.801C276.951 114.78 281.697 114.543 283.736 116.819C284.961 118.185 285.391 120.436 285.869 122.14C286.236 123.45 287.231 125.811 286.524 127.163C286.204 127.775 285.688 128.297 284.906 128.08C284.724 128.03 284.58 127.965 284.468 127.888Z" fill="#89C5CC"/>
<path opacity="0.5" fill-rule="evenodd" clip-rule="evenodd" d="M305.35 110.619C305.528 110.848 305.528 110.848 305.35 110.619V110.619ZM277.711 97.1265C275.231 98.5845 279.822 102.863 280.991 103.524C283.623 105.013 287.24 105.238 290.178 105.657C293.897 106.187 297.945 106.382 301.519 107.601C303.042 108.12 304.01 108.931 305.007 110.176C305.513 110.807 306.729 113.527 307.837 112.883C310.068 111.586 304.057 106.145 302.732 105.56C299.721 104.23 296.162 103.857 292.943 103.341C289.949 102.86 286.891 102.503 283.972 101.656C282.366 101.191 281.225 100.44 280.3 99.002C279.723 98.1061 279.25 96.2263 277.711 97.1265Z" fill="#C1DEE2"/>
<path opacity="0.5" fill-rule="evenodd" clip-rule="evenodd" d="M291.019 128.626C290.277 127.203 289.936 124.471 289.87 123.931C289.585 121.606 289.563 119.309 289.603 116.97C289.626 115.685 291.096 115.073 292.048 115.793C293.322 115.26 295.477 115.18 296.635 115.063C298.539 114.871 300.458 114.799 302.367 114.685C306.823 114.419 311.274 113.938 315.738 113.839C317.074 113.811 318.864 113.691 319.932 114.677C321.148 115.8 321.391 118.585 321.755 120.086C322.151 121.716 322.624 123.374 322.789 125.046C322.828 125.437 322.933 126.11 322.886 126.715C323.442 126.791 323.774 127.33 323.718 127.919C323.614 129.013 322.099 129.162 321.213 129.335C318.266 129.91 315.116 129.779 312.128 129.864C305.877 130.04 299.193 131.049 292.966 130.448C291.9 130.345 290.755 129.969 291.019 128.626ZM293.269 127.339C293.517 127.337 293.762 127.342 293.99 127.338C297.133 127.283 300.275 127.188 303.416 127.067C306.62 126.944 309.824 126.807 313.031 126.77C315.579 126.741 318.204 126.961 320.771 126.862C320.219 125.417 320.303 123.143 320.008 121.647C319.716 120.161 319.605 118.4 319.008 117.005C318.336 115.435 317.751 115.798 316.001 115.917C314.201 116.039 312.403 116.211 310.605 116.359C306.652 116.684 302.696 116.89 298.741 117.165C296.689 117.308 294.726 117.894 292.719 118.123C292.689 118.84 292.588 119.562 292.599 120.085C292.633 121.627 292.785 123.157 292.919 124.692C292.973 125.317 293.231 126.394 293.269 127.339Z" fill="#89C5CC"/>
</g>
<path fill-rule="evenodd" clip-rule="evenodd" d="M269.254 103.301C267.41 109.76 265.008 124.279 267.459 126.557H282.969C282.97 126.531 282.972 126.504 282.973 126.478C288.722 125.874 293.193 121.239 293.193 115.612V104.933C293.193 98.895 288.045 94 281.694 94H280.625C274.858 94 270.082 98.0369 269.254 103.301Z" fill="#614797"/>
<path fill-rule="evenodd" clip-rule="evenodd" d="M287.17 113.573C289.634 110.823 291.302 107.452 291.023 103.675C290.22 92.7922 274.288 95.1863 271.189 100.679C268.09 106.171 268.458 120.104 272.463 121.086C274.061 121.477 277.464 120.518 280.927 118.533L278.753 133.156H291.588L287.17 113.573Z" fill="#E9D1BB"/>
<path fill-rule="evenodd" clip-rule="evenodd" d="M283.7 111.735C283.109 117.775 283.346 124.673 285.108 126.31H300.617C301.482 112.034 293.13 117.562 293.13 104.121C292.609 103.637 292.117 103.158 291.631 102.746L291.648 102.35C288.962 97.1225 285.555 94.5085 281.426 94.5085C275.233 94.5085 273.278 97.2486 271.614 99.575C272.859 103.636 277.688 104.238 281.98 106.769C282.486 106.378 283.131 106.144 283.834 106.144C285.458 106.144 286.775 107.396 286.775 108.941C286.775 110.485 285.458 111.737 283.834 111.737C283.789 111.737 283.744 111.736 283.7 111.735Z" fill="#614797"/>
<path fill-rule="evenodd" clip-rule="evenodd" d="M323.677 205.721H262.174C257.448 205.721 253.617 209.364 253.617 213.857V260.641C253.617 265.135 257.448 268.777 262.174 268.777H323.677C328.403 268.777 332.234 265.135 332.234 260.641V213.857C332.234 209.364 328.403 205.721 323.677 205.721ZM315.12 219.959C316.302 219.959 317.259 220.87 317.259 221.993V252.505C317.259 253.628 316.302 254.539 315.12 254.539H270.731C269.549 254.539 268.592 253.628 268.592 252.505V221.993C268.592 220.87 269.549 219.959 270.731 219.959H315.12Z" fill="#C5CFD6"/>
<path fill-rule="evenodd" clip-rule="evenodd" d="M200.586 266.235C211.13 253.992 218.265 244.915 221.989 239.005C228.367 228.886 233.587 219.882 235.234 216.443C239.162 208.241 226.191 204.4 223.255 208.226C218.812 214.016 209.323 232.237 194.788 262.887L200.586 266.235Z" fill="#E9D1BB"/>
<path fill-rule="evenodd" clip-rule="evenodd" d="M222.193 262.675L241.816 215.707C246.013 207.144 225.745 201.516 222.66 205.501C215.657 214.547 199.013 250.234 196.927 252.929L222.193 262.675Z" fill="#2F3676"/>
<path fill-rule="evenodd" clip-rule="evenodd" d="M274.457 253.256C270.634 247.954 256.73 230.117 249.157 222.736C246.981 220.616 244.858 218.58 242.849 216.683C236.88 211.045 224.992 220.522 230.951 225.657C245.79 238.447 267.441 255.712 269.25 257.251C271.786 259.409 276.859 256.588 274.457 253.256Z" fill="#E9D1BB"/>
<path fill-rule="evenodd" clip-rule="evenodd" d="M273.563 250.861C274.88 251.891 275.737 252.733 276.133 253.386C276.615 254.18 277.18 255.416 277.827 257.092C276.858 257.624 268.15 262.404 251.704 271.433C249.729 269.672 249.421 268.304 250.781 267.331C252.14 266.358 253.262 265.538 254.146 264.869L263.162 253.057C263.336 252.83 263.67 252.779 263.909 252.944C263.913 252.947 263.917 252.95 263.922 252.953L265.795 254.325C267.514 254.182 268.796 253.878 269.643 253.414C270.331 253.036 271.12 252.251 272.011 251.057L272.011 251.057C272.353 250.599 273.021 250.491 273.503 250.817C273.523 250.831 273.544 250.845 273.563 250.861Z" fill="#E4E4E4"/>
<path fill-rule="evenodd" clip-rule="evenodd" d="M205.122 264.405C205.72 265.924 206.019 267.06 206.019 267.814C206.019 268.731 205.858 270.069 205.537 271.828C204.418 271.828 194.364 271.828 175.373 271.828C174.589 269.364 175.041 268.034 176.73 267.838C178.419 267.641 179.822 267.464 180.939 267.305L194.959 261.362C195.229 261.248 195.545 261.363 195.665 261.62C195.667 261.624 195.669 261.629 195.671 261.633L196.573 263.712C198.136 264.405 199.406 264.752 200.384 264.752C201.178 264.752 202.275 264.447 203.674 263.837L203.674 263.837C204.211 263.603 204.846 263.827 205.092 264.338C205.103 264.36 205.113 264.382 205.122 264.405Z" fill="#E4E4E4"/>
<path fill-rule="evenodd" clip-rule="evenodd" d="M248.878 218.052C265.188 215.526 276.112 213.798 281.652 212.87C297.441 210.222 302.045 202.143 299.323 184.517H270.231C266.382 185.574 250.296 192.111 221.974 204.13C216.878 206.535 217.827 213.627 218.758 215.963C218.796 216.059 227.387 230.055 244.529 257.952L268.327 243.537L248.833 219.751C248.318 218.765 248.333 218.199 248.878 218.052Z" fill="#5C63AB"/>
<path fill-rule="evenodd" clip-rule="evenodd" d="M251.03 161.791L229.914 159.052C225.69 156.818 221.804 155.306 218.257 154.515C217.258 154.488 215.67 154.833 218.036 156.708C220.402 158.584 222.803 160.658 222.381 161.659C221.96 162.66 219.759 162.288 219.395 163.827C219.152 164.854 222.723 165.02 230.108 164.328L247.242 170.786L251.03 161.791ZM317.363 166.438L305.652 166.48C318.493 193.958 325.189 208.344 325.739 209.64C326.976 212.556 324.358 216.998 323.238 219.384C326.885 220.936 326.496 215.189 331.098 217.224C335.297 219.082 338.492 222.448 343.344 219.602C343.941 219.252 344.594 217.934 343.015 216.904C339.08 214.338 333.409 209.848 332.643 208.37C331.598 206.355 326.505 192.378 317.363 166.438Z" fill="#E9D1BB"/>
<path fill-rule="evenodd" clip-rule="evenodd" d="M285.285 131.122L276.116 131.703C273.858 151.129 261.557 163.399 234.017 159.245L230.359 184.262C256.099 187.425 278.673 177.626 283.299 151.096C284.497 144.228 285.443 137.081 285.285 131.122Z" fill="#AFB9C5"/>
<path fill-rule="evenodd" clip-rule="evenodd" d="M289.809 128.587L275.916 131.613C275.916 154.333 268.304 168.829 264.4 185.534H301.92C302.449 191.306 302.774 197.239 302.943 203.332H331.037C324.67 171.124 311.233 146.207 290.726 128.579H289.816L289.809 128.587Z" fill="#C5CFD6"/>
<path fill-rule="evenodd" clip-rule="evenodd" d="M296.001 153.12C296.968 167.278 296.399 178.082 294.295 185.534H301.921C300.874 174.099 299.026 163.294 296.001 153.12V153.12Z" fill="black" fill-opacity="0.1"/>
</svg>
