<svg width="312" height="124" viewBox="0 0 312 124" fill="none" xmlns="http://www.w3.org/2000/svg">
<path d="M3.59375 42.4453H12.4805C16.5299 42.4453 19.4661 43.0247 21.2891 44.1836C23.125 45.3294 24.043 47.1589 24.043 49.6719C24.043 51.3776 23.6393 52.7773 22.832 53.8711C22.0378 54.9648 20.9766 55.6224 19.6484 55.8438V56.0391C21.4583 56.4427 22.7604 57.1979 23.5547 58.3047C24.362 59.4115 24.7656 60.8828 24.7656 62.7188C24.7656 65.3229 23.8216 67.3542 21.9336 68.8125C20.0586 70.2708 17.5065 71 14.2773 71H3.59375V42.4453ZM9.64844 53.7539H13.1641C14.8047 53.7539 15.9896 53.5 16.7188 52.9922C17.4609 52.4844 17.832 51.6445 17.832 50.4727C17.832 49.3789 17.4284 48.5977 16.6211 48.1289C15.8268 47.6471 14.5638 47.4062 12.832 47.4062H9.64844V53.7539ZM9.64844 58.5586V66H13.5938C15.2604 66 16.4909 65.681 17.2852 65.043C18.0794 64.4049 18.4766 63.4284 18.4766 62.1133C18.4766 59.7435 16.7839 58.5586 13.3984 58.5586H9.64844ZM42.1875 48.7539C42.9948 48.7539 43.6654 48.8125 44.1992 48.9297L43.75 54.5156C43.2682 54.3854 42.6823 54.3203 41.9922 54.3203C40.0911 54.3203 38.6068 54.8086 37.5391 55.7852C36.4844 56.7617 35.957 58.1289 35.957 59.8867V71H30V49.1641H34.5117L35.3906 52.8359H35.6836C36.3607 51.612 37.2721 50.6289 38.418 49.8867C39.5768 49.1315 40.8333 48.7539 42.1875 48.7539ZM62.0312 71L60.8789 68.0312H60.7227C59.7201 69.2943 58.6849 70.1732 57.6172 70.668C56.5625 71.1497 55.1823 71.3906 53.4766 71.3906C51.3802 71.3906 49.7266 70.7917 48.5156 69.5938C47.3177 68.3958 46.7188 66.6901 46.7188 64.4766C46.7188 62.1589 47.526 60.4531 49.1406 59.3594C50.7682 58.2526 53.2161 57.6406 56.4844 57.5234L60.2734 57.4062V56.4492C60.2734 54.2357 59.1406 53.1289 56.875 53.1289C55.1302 53.1289 53.0794 53.6562 50.7227 54.7109L48.75 50.6875C51.263 49.3724 54.0495 48.7148 57.1094 48.7148C60.0391 48.7148 62.2852 49.3529 63.8477 50.6289C65.4102 51.9049 66.1914 53.8451 66.1914 56.4492V71H62.0312ZM60.2734 60.8828L57.9688 60.9609C56.237 61.013 54.9479 61.3255 54.1016 61.8984C53.2552 62.4714 52.832 63.3438 52.832 64.5156C52.832 66.1953 53.7956 67.0352 55.7227 67.0352C57.1029 67.0352 58.2031 66.638 59.0234 65.8438C59.8568 65.0495 60.2734 63.9948 60.2734 62.6797V60.8828ZM92.5 71H86.543V58.2461C86.543 56.6706 86.263 55.4922 85.7031 54.7109C85.1432 53.9167 84.2513 53.5195 83.0273 53.5195C81.3607 53.5195 80.1562 54.0794 79.4141 55.1992C78.6719 56.306 78.3008 58.1484 78.3008 60.7266V71H72.3438V49.1641H76.8945L77.6953 51.957H78.0273C78.6914 50.9023 79.6029 50.1081 80.7617 49.5742C81.9336 49.0273 83.2617 48.7539 84.7461 48.7539C87.2852 48.7539 89.2122 49.444 90.5273 50.8242C91.8424 52.1914 92.5 54.1706 92.5 56.7617V71ZM105.547 71.3906C102.982 71.3906 100.964 70.3945 99.4922 68.4023C98.0339 66.4102 97.3047 63.6497 97.3047 60.1211C97.3047 56.5404 98.0469 53.7539 99.5312 51.7617C101.029 49.7565 103.086 48.7539 105.703 48.7539C108.451 48.7539 110.547 49.8216 111.992 51.957H112.188C111.888 50.3294 111.738 48.8776 111.738 47.6016V40.6094H117.715V71H113.145L111.992 68.168H111.738C110.384 70.3164 108.32 71.3906 105.547 71.3906ZM107.637 66.6445C109.16 66.6445 110.273 66.2018 110.977 65.3164C111.693 64.431 112.083 62.9271 112.148 60.8047V60.1602C112.148 57.8164 111.784 56.1367 111.055 55.1211C110.339 54.1055 109.167 53.5977 107.539 53.5977C106.211 53.5977 105.176 54.1641 104.434 55.2969C103.704 56.4167 103.34 58.0508 103.34 60.1992C103.34 62.3477 103.711 63.9622 104.453 65.043C105.195 66.1107 106.257 66.6445 107.637 66.6445ZM132.988 52.9922C131.725 52.9922 130.736 53.3958 130.02 54.2031C129.303 54.9974 128.893 56.1302 128.789 57.6016H137.148C137.122 56.1302 136.738 54.9974 135.996 54.2031C135.254 53.3958 134.251 52.9922 132.988 52.9922ZM133.828 71.3906C130.312 71.3906 127.565 70.4206 125.586 68.4805C123.607 66.5404 122.617 63.793 122.617 60.2383C122.617 56.5794 123.529 53.7539 125.352 51.7617C127.188 49.7565 129.72 48.7539 132.949 48.7539C136.035 48.7539 138.438 49.6328 140.156 51.3906C141.875 53.1484 142.734 55.5768 142.734 58.6758V61.5664H128.652C128.717 63.2591 129.219 64.5807 130.156 65.5312C131.094 66.4818 132.409 66.957 134.102 66.957C135.417 66.957 136.66 66.8203 137.832 66.5469C139.004 66.2734 140.228 65.8372 141.504 65.2383V69.8477C140.462 70.3685 139.349 70.7526 138.164 71C136.979 71.2604 135.534 71.3906 133.828 71.3906ZM147.324 43.5195C147.324 41.5794 148.405 40.6094 150.566 40.6094C152.728 40.6094 153.809 41.5794 153.809 43.5195C153.809 44.444 153.535 45.1667 152.988 45.6875C152.454 46.1953 151.647 46.4492 150.566 46.4492C148.405 46.4492 147.324 45.4727 147.324 43.5195ZM153.535 71H147.578V49.1641H153.535V71ZM175.039 64.5156C175.039 66.7552 174.258 68.4609 172.695 69.6328C171.146 70.8047 168.822 71.3906 165.723 71.3906C164.134 71.3906 162.78 71.2799 161.66 71.0586C160.54 70.8503 159.492 70.5378 158.516 70.1211V65.1992C159.622 65.7201 160.866 66.1562 162.246 66.5078C163.639 66.8594 164.863 67.0352 165.918 67.0352C168.079 67.0352 169.16 66.4102 169.16 65.1602C169.16 64.6914 169.017 64.3138 168.73 64.0273C168.444 63.7279 167.949 63.3958 167.246 63.0312C166.543 62.6536 165.605 62.2174 164.434 61.7227C162.754 61.0195 161.517 60.3685 160.723 59.7695C159.941 59.1706 159.368 58.487 159.004 57.7188C158.652 56.9375 158.477 55.9805 158.477 54.8477C158.477 52.9076 159.225 51.4102 160.723 50.3555C162.233 49.2878 164.368 48.7539 167.129 48.7539C169.759 48.7539 172.318 49.3268 174.805 50.4727L173.008 54.7695C171.914 54.3008 170.892 53.9167 169.941 53.6172C168.991 53.3177 168.021 53.168 167.031 53.168C165.273 53.168 164.395 53.6432 164.395 54.5938C164.395 55.1276 164.674 55.5898 165.234 55.9805C165.807 56.3711 167.051 56.9505 168.965 57.7188C170.671 58.4089 171.921 59.0534 172.715 59.6523C173.509 60.2513 174.095 60.9414 174.473 61.7227C174.85 62.5039 175.039 63.4349 175.039 64.5156Z" fill="#FD6161"/>
<path d="M3.59375 42.4453H12.4805C16.5299 42.4453 19.4661 43.0247 21.2891 44.1836C23.125 45.3294 24.043 47.1589 24.043 49.6719C24.043 51.3776 23.6393 52.7773 22.832 53.8711C22.0378 54.9648 20.9766 55.6224 19.6484 55.8438V56.0391C21.4583 56.4427 22.7604 57.1979 23.5547 58.3047C24.362 59.4115 24.7656 60.8828 24.7656 62.7188C24.7656 65.3229 23.8216 67.3542 21.9336 68.8125C20.0586 70.2708 17.5065 71 14.2773 71H3.59375V42.4453ZM9.64844 53.7539H13.1641C14.8047 53.7539 15.9896 53.5 16.7188 52.9922C17.4609 52.4844 17.832 51.6445 17.832 50.4727C17.832 49.3789 17.4284 48.5977 16.6211 48.1289C15.8268 47.6471 14.5638 47.4062 12.832 47.4062H9.64844V53.7539ZM9.64844 58.5586V66H13.5938C15.2604 66 16.4909 65.681 17.2852 65.043C18.0794 64.4049 18.4766 63.4284 18.4766 62.1133C18.4766 59.7435 16.7839 58.5586 13.3984 58.5586H9.64844ZM42.1875 48.7539C42.9948 48.7539 43.6654 48.8125 44.1992 48.9297L43.75 54.5156C43.2682 54.3854 42.6823 54.3203 41.9922 54.3203C40.0911 54.3203 38.6068 54.8086 37.5391 55.7852C36.4844 56.7617 35.957 58.1289 35.957 59.8867V71H30V49.1641H34.5117L35.3906 52.8359H35.6836C36.3607 51.612 37.2721 50.6289 38.418 49.8867C39.5768 49.1315 40.8333 48.7539 42.1875 48.7539ZM62.0312 71L60.8789 68.0312H60.7227C59.7201 69.2943 58.6849 70.1732 57.6172 70.668C56.5625 71.1497 55.1823 71.3906 53.4766 71.3906C51.3802 71.3906 49.7266 70.7917 48.5156 69.5938C47.3177 68.3958 46.7188 66.6901 46.7188 64.4766C46.7188 62.1589 47.526 60.4531 49.1406 59.3594C50.7682 58.2526 53.2161 57.6406 56.4844 57.5234L60.2734 57.4062V56.4492C60.2734 54.2357 59.1406 53.1289 56.875 53.1289C55.1302 53.1289 53.0794 53.6562 50.7227 54.7109L48.75 50.6875C51.263 49.3724 54.0495 48.7148 57.1094 48.7148C60.0391 48.7148 62.2852 49.3529 63.8477 50.6289C65.4102 51.9049 66.1914 53.8451 66.1914 56.4492V71H62.0312ZM60.2734 60.8828L57.9688 60.9609C56.237 61.013 54.9479 61.3255 54.1016 61.8984C53.2552 62.4714 52.832 63.3438 52.832 64.5156C52.832 66.1953 53.7956 67.0352 55.7227 67.0352C57.1029 67.0352 58.2031 66.638 59.0234 65.8438C59.8568 65.0495 60.2734 63.9948 60.2734 62.6797V60.8828ZM92.5 71H86.543V58.2461C86.543 56.6706 86.263 55.4922 85.7031 54.7109C85.1432 53.9167 84.2513 53.5195 83.0273 53.5195C81.3607 53.5195 80.1562 54.0794 79.4141 55.1992C78.6719 56.306 78.3008 58.1484 78.3008 60.7266V71H72.3438V49.1641H76.8945L77.6953 51.957H78.0273C78.6914 50.9023 79.6029 50.1081 80.7617 49.5742C81.9336 49.0273 83.2617 48.7539 84.7461 48.7539C87.2852 48.7539 89.2122 49.444 90.5273 50.8242C91.8424 52.1914 92.5 54.1706 92.5 56.7617V71ZM105.547 71.3906C102.982 71.3906 100.964 70.3945 99.4922 68.4023C98.0339 66.4102 97.3047 63.6497 97.3047 60.1211C97.3047 56.5404 98.0469 53.7539 99.5312 51.7617C101.029 49.7565 103.086 48.7539 105.703 48.7539C108.451 48.7539 110.547 49.8216 111.992 51.957H112.188C111.888 50.3294 111.738 48.8776 111.738 47.6016V40.6094H117.715V71H113.145L111.992 68.168H111.738C110.384 70.3164 108.32 71.3906 105.547 71.3906ZM107.637 66.6445C109.16 66.6445 110.273 66.2018 110.977 65.3164C111.693 64.431 112.083 62.9271 112.148 60.8047V60.1602C112.148 57.8164 111.784 56.1367 111.055 55.1211C110.339 54.1055 109.167 53.5977 107.539 53.5977C106.211 53.5977 105.176 54.1641 104.434 55.2969C103.704 56.4167 103.34 58.0508 103.34 60.1992C103.34 62.3477 103.711 63.9622 104.453 65.043C105.195 66.1107 106.257 66.6445 107.637 66.6445ZM132.988 52.9922C131.725 52.9922 130.736 53.3958 130.02 54.2031C129.303 54.9974 128.893 56.1302 128.789 57.6016H137.148C137.122 56.1302 136.738 54.9974 135.996 54.2031C135.254 53.3958 134.251 52.9922 132.988 52.9922ZM133.828 71.3906C130.312 71.3906 127.565 70.4206 125.586 68.4805C123.607 66.5404 122.617 63.793 122.617 60.2383C122.617 56.5794 123.529 53.7539 125.352 51.7617C127.188 49.7565 129.72 48.7539 132.949 48.7539C136.035 48.7539 138.438 49.6328 140.156 51.3906C141.875 53.1484 142.734 55.5768 142.734 58.6758V61.5664H128.652C128.717 63.2591 129.219 64.5807 130.156 65.5312C131.094 66.4818 132.409 66.957 134.102 66.957C135.417 66.957 136.66 66.8203 137.832 66.5469C139.004 66.2734 140.228 65.8372 141.504 65.2383V69.8477C140.462 70.3685 139.349 70.7526 138.164 71C136.979 71.2604 135.534 71.3906 133.828 71.3906ZM147.324 43.5195C147.324 41.5794 148.405 40.6094 150.566 40.6094C152.728 40.6094 153.809 41.5794 153.809 43.5195C153.809 44.444 153.535 45.1667 152.988 45.6875C152.454 46.1953 151.647 46.4492 150.566 46.4492C148.405 46.4492 147.324 45.4727 147.324 43.5195ZM153.535 71H147.578V49.1641H153.535V71ZM175.039 64.5156C175.039 66.7552 174.258 68.4609 172.695 69.6328C171.146 70.8047 168.822 71.3906 165.723 71.3906C164.134 71.3906 162.78 71.2799 161.66 71.0586C160.54 70.8503 159.492 70.5378 158.516 70.1211V65.1992C159.622 65.7201 160.866 66.1562 162.246 66.5078C163.639 66.8594 164.863 67.0352 165.918 67.0352C168.079 67.0352 169.16 66.4102 169.16 65.1602C169.16 64.6914 169.017 64.3138 168.73 64.0273C168.444 63.7279 167.949 63.3958 167.246 63.0312C166.543 62.6536 165.605 62.2174 164.434 61.7227C162.754 61.0195 161.517 60.3685 160.723 59.7695C159.941 59.1706 159.368 58.487 159.004 57.7188C158.652 56.9375 158.477 55.9805 158.477 54.8477C158.477 52.9076 159.225 51.4102 160.723 50.3555C162.233 49.2878 164.368 48.7539 167.129 48.7539C169.759 48.7539 172.318 49.3268 174.805 50.4727L173.008 54.7695C171.914 54.3008 170.892 53.9167 169.941 53.6172C168.991 53.3177 168.021 53.168 167.031 53.168C165.273 53.168 164.395 53.6432 164.395 54.5938C164.395 55.1276 164.674 55.5898 165.234 55.9805C165.807 56.3711 167.051 56.9505 168.965 57.7188C170.671 58.4089 171.921 59.0534 172.715 59.6523C173.509 60.2513 174.095 60.9414 174.473 61.7227C174.85 62.5039 175.039 63.4349 175.039 64.5156Z" fill="#1A73E8"/>
<path d="M12.7969 13.1797C12.7969 15.0651 12.2734 16.5078 11.2266 17.5078C10.1797 18.5026 8.67188 19 6.70312 19H3.50781V7.57812H7.03906C8.85677 7.57812 10.2708 8.06771 11.2812 9.04688C12.2917 10.026 12.7969 11.4036 12.7969 13.1797ZM10.8281 13.2422C10.8281 10.5078 9.54948 9.14062 6.99219 9.14062H5.375V17.4297H6.70312C9.45312 17.4297 10.8281 16.0339 10.8281 13.2422ZM22.3438 19L21.2031 15.8281H16.8359L15.7188 19H13.75L18.0234 7.53125H20.0547L24.3281 19H22.3438ZM20.7109 14.2188L19.6406 11.1094C19.5625 10.901 19.4531 10.5729 19.3125 10.125C19.1771 9.67708 19.0833 9.34896 19.0312 9.14062C18.8906 9.78125 18.6849 10.4818 18.4141 11.2422L17.3828 14.2188H20.7109ZM27.7031 12.8906H29C29.8698 12.8906 30.5 12.7292 30.8906 12.4062C31.2812 12.0833 31.4766 11.6042 31.4766 10.9688C31.4766 10.3229 31.2656 9.85938 30.8438 9.57812C30.4219 9.29688 29.7865 9.15625 28.9375 9.15625H27.7031V12.8906ZM27.7031 14.4375V19H25.8359V7.57812H29.0625C30.5365 7.57812 31.6276 7.85417 32.3359 8.40625C33.0443 8.95833 33.3984 9.79167 33.3984 10.9062C33.3984 12.3281 32.6589 13.3411 31.1797 13.9453L34.4062 19H32.2812L29.5469 14.4375H27.7031ZM43.6328 11.0312C43.6328 12.224 43.2422 13.138 42.4609 13.7734C41.6797 14.4089 40.5677 14.7266 39.125 14.7266H37.9375V19H36.0703V7.57812H39.3594C40.7865 7.57812 41.8542 7.86979 42.5625 8.45312C43.276 9.03646 43.6328 9.89583 43.6328 11.0312ZM37.9375 13.1562H38.9297C39.888 13.1562 40.5911 12.9896 41.0391 12.6562C41.487 12.3229 41.7109 11.8021 41.7109 11.0938C41.7109 10.4375 41.5104 9.94792 41.1094 9.625C40.7083 9.30208 40.0833 9.14062 39.2344 9.14062H37.9375V13.1562ZM53 19L51.8594 15.8281H47.4922L46.375 19H44.4062L48.6797 7.53125H50.7109L54.9844 19H53ZM51.3672 14.2188L50.2969 11.1094C50.2188 10.901 50.1094 10.5729 49.9688 10.125C49.8333 9.67708 49.7396 9.34896 49.6875 9.14062C49.5469 9.78125 49.3411 10.4818 49.0703 11.2422L48.0391 14.2188H51.3672ZM62.375 14.5859L59.4766 10.3594H61.5703L63.5391 13.3828L65.5234 10.3594H67.6016L64.6953 14.5859L67.75 19H65.6719L63.5391 15.7656L61.4141 19H59.3359L62.375 14.5859ZM78.4766 9.01562C77.4036 9.01562 76.5599 9.39583 75.9453 10.1562C75.3307 10.9167 75.0234 11.9661 75.0234 13.3047C75.0234 14.7057 75.3177 15.7656 75.9062 16.4844C76.5 17.2031 77.3568 17.5625 78.4766 17.5625C78.9609 17.5625 79.4297 17.5156 79.8828 17.4219C80.3359 17.3229 80.8073 17.1979 81.2969 17.0469V18.6484C80.401 18.987 79.3854 19.1562 78.25 19.1562C76.5781 19.1562 75.2943 18.651 74.3984 17.6406C73.5026 16.625 73.0547 15.1745 73.0547 13.2891C73.0547 12.1016 73.2708 11.0625 73.7031 10.1719C74.1406 9.28125 74.7708 8.59896 75.5938 8.125C76.4167 7.65104 77.3828 7.41406 78.4922 7.41406C79.6589 7.41406 80.737 7.65885 81.7266 8.14844L81.0547 9.70312C80.6693 9.52083 80.2604 9.36198 79.8281 9.22656C79.401 9.08594 78.9505 9.01562 78.4766 9.01562ZM88.6953 19L85.3828 9.46094H85.3203C85.4089 10.8776 85.4531 12.2057 85.4531 13.4453V19H83.7578V7.57812H86.3906L89.5625 16.6641H89.6094L92.875 7.57812H95.5156V19H93.7188V13.3516C93.7188 12.7839 93.7318 12.0443 93.7578 11.1328C93.7891 10.2214 93.8151 9.66927 93.8359 9.47656H93.7734L90.3438 19H88.6953ZM107.477 7.57812V14.9688C107.477 15.8125 107.294 16.5521 106.93 17.1875C106.57 17.8177 106.047 18.3047 105.359 18.6484C104.677 18.987 103.859 19.1562 102.906 19.1562C101.49 19.1562 100.388 18.7812 99.6016 18.0312C98.8151 17.2812 98.4219 16.25 98.4219 14.9375V7.57812H100.297V14.8047C100.297 15.7474 100.516 16.4427 100.953 16.8906C101.391 17.3385 102.062 17.5625 102.969 17.5625C104.729 17.5625 105.609 16.638 105.609 14.7891V7.57812H107.477Z" fill="#AAAAAA"/>
<path d="M7.15527 110.147L11.3447 102.295H13.3213L8.0791 111.909V118H6.23145V111.995L1 102.295H2.99805L7.15527 110.147ZM25.3848 112.103C25.3848 114.022 24.9014 115.522 23.9346 116.604C22.9678 117.678 21.6322 118.215 19.9277 118.215C18.875 118.215 17.9404 117.968 17.124 117.474C16.3076 116.979 15.6774 116.271 15.2334 115.347C14.7894 114.423 14.5674 113.341 14.5674 112.103C14.5674 110.183 15.0472 108.69 16.0068 107.623C16.9665 106.549 18.2985 106.012 20.0029 106.012C21.6501 106.012 22.957 106.56 23.9238 107.655C24.8978 108.751 25.3848 110.233 25.3848 112.103ZM16.415 112.103C16.415 113.606 16.7158 114.752 17.3174 115.54C17.9189 116.328 18.8034 116.722 19.9707 116.722C21.138 116.722 22.0225 116.331 22.624 115.551C23.2327 114.763 23.5371 113.614 23.5371 112.103C23.5371 110.606 23.2327 109.471 22.624 108.697C22.0225 107.917 21.1309 107.526 19.9492 107.526C18.7819 107.526 17.901 107.91 17.3066 108.676C16.7122 109.442 16.415 110.584 16.415 112.103ZM30.1973 106.227V113.864C30.1973 114.824 30.4157 115.54 30.8525 116.013C31.2894 116.485 31.9733 116.722 32.9043 116.722C34.1361 116.722 35.0348 116.385 35.6006 115.712C36.1735 115.039 36.46 113.939 36.46 112.414V106.227H38.2432V118H36.7715L36.5137 116.421H36.417C36.0518 117.001 35.5433 117.445 34.8916 117.753C34.2471 118.061 33.5094 118.215 32.6787 118.215C31.2464 118.215 30.1722 117.875 29.4561 117.194C28.7471 116.514 28.3926 115.425 28.3926 113.929V106.227H30.1973ZM47.4062 106.012C47.929 106.012 48.3981 106.055 48.8135 106.141L48.5664 107.795C48.0794 107.688 47.6497 107.634 47.2773 107.634C46.3249 107.634 45.5085 108.021 44.8281 108.794C44.1549 109.567 43.8184 110.531 43.8184 111.684V118H42.0352V106.227H43.5068L43.7109 108.407H43.7969C44.2337 107.641 44.7601 107.05 45.376 106.635C45.9919 106.219 46.6686 106.012 47.4062 106.012ZM71.7373 118V110.341C71.7373 109.403 71.5368 108.701 71.1357 108.235C70.7347 107.763 70.1117 107.526 69.2666 107.526C68.1566 107.526 67.3366 107.845 66.8066 108.482C66.2767 109.12 66.0117 110.101 66.0117 111.426V118H64.2285V110.341C64.2285 109.403 64.028 108.701 63.627 108.235C63.2259 107.763 62.5993 107.526 61.7471 107.526C60.6299 107.526 59.8099 107.863 59.2871 108.536C58.7715 109.202 58.5137 110.298 58.5137 111.823V118H56.7305V106.227H58.1807L58.4707 107.838H58.5566C58.8932 107.265 59.3659 106.817 59.9746 106.495C60.5905 106.173 61.278 106.012 62.0371 106.012C63.8776 106.012 65.0807 106.678 65.6465 108.01H65.7324C66.0833 107.394 66.5918 106.907 67.2578 106.549C67.9238 106.191 68.6829 106.012 69.5352 106.012C70.8672 106.012 71.8626 106.355 72.5215 107.043C73.1875 107.723 73.5205 108.815 73.5205 110.319V118H71.7373ZM87.3672 112.103C87.3672 114.022 86.8838 115.522 85.917 116.604C84.9502 117.678 83.6146 118.215 81.9102 118.215C80.8574 118.215 79.9229 117.968 79.1064 117.474C78.29 116.979 77.6598 116.271 77.2158 115.347C76.7718 114.423 76.5498 113.341 76.5498 112.103C76.5498 110.183 77.0296 108.69 77.9893 107.623C78.9489 106.549 80.2809 106.012 81.9854 106.012C83.6325 106.012 84.9395 106.56 85.9062 107.655C86.8802 108.751 87.3672 110.233 87.3672 112.103ZM78.3975 112.103C78.3975 113.606 78.6982 114.752 79.2998 115.54C79.9014 116.328 80.7858 116.722 81.9531 116.722C83.1204 116.722 84.0049 116.331 84.6064 115.551C85.2152 114.763 85.5195 113.614 85.5195 112.103C85.5195 110.606 85.2152 109.471 84.6064 108.697C84.0049 107.917 83.1133 107.526 81.9316 107.526C80.7643 107.526 79.8835 107.91 79.2891 108.676C78.6947 109.442 78.3975 110.584 78.3975 112.103ZM95.9824 106.033C97.5293 106.033 98.7288 106.563 99.5811 107.623C100.44 108.676 100.87 110.169 100.87 112.103C100.87 114.036 100.437 115.54 99.5703 116.614C98.7109 117.681 97.515 118.215 95.9824 118.215C95.2161 118.215 94.5143 118.075 93.877 117.796C93.2467 117.509 92.7168 117.073 92.2871 116.485H92.1582L91.7822 118H90.5039V101.285H92.2871V105.346C92.2871 106.255 92.2585 107.072 92.2012 107.795H92.2871C93.1178 106.62 94.3496 106.033 95.9824 106.033ZM95.7246 107.526C94.5072 107.526 93.6299 107.877 93.0928 108.579C92.5557 109.274 92.2871 110.448 92.2871 112.103C92.2871 113.757 92.5628 114.942 93.1143 115.658C93.6657 116.367 94.5501 116.722 95.7676 116.722C96.8633 116.722 97.6797 116.324 98.2168 115.529C98.7539 114.727 99.0225 113.578 99.0225 112.081C99.0225 110.549 98.7539 109.406 98.2168 108.654C97.6797 107.902 96.849 107.526 95.7246 107.526ZM105.779 118H103.996V106.227H105.779V118ZM103.846 103.036C103.846 102.628 103.946 102.331 104.146 102.145C104.347 101.951 104.598 101.854 104.898 101.854C105.185 101.854 105.432 101.951 105.64 102.145C105.847 102.338 105.951 102.635 105.951 103.036C105.951 103.437 105.847 103.738 105.64 103.938C105.432 104.132 105.185 104.229 104.898 104.229C104.598 104.229 104.347 104.132 104.146 103.938C103.946 103.738 103.846 103.437 103.846 103.036ZM111.344 118H109.561V101.285H111.344V118ZM120.099 118.215C118.358 118.215 116.983 117.685 115.974 116.625C114.971 115.565 114.47 114.093 114.47 112.21C114.47 110.312 114.935 108.805 115.866 107.688C116.804 106.57 118.061 106.012 119.637 106.012C121.112 106.012 122.279 106.499 123.139 107.473C123.998 108.439 124.428 109.718 124.428 111.308V112.436H116.317C116.353 113.818 116.701 114.867 117.359 115.583C118.025 116.299 118.96 116.657 120.163 116.657C121.431 116.657 122.684 116.392 123.923 115.862V117.452C123.293 117.724 122.695 117.918 122.129 118.032C121.57 118.154 120.894 118.215 120.099 118.215ZM119.615 107.505C118.67 107.505 117.914 107.813 117.349 108.429C116.79 109.045 116.461 109.897 116.36 110.985H122.516C122.516 109.861 122.265 109.002 121.764 108.407C121.262 107.806 120.546 107.505 119.615 107.505ZM138.672 118.215C137.906 118.215 137.204 118.075 136.566 117.796C135.936 117.509 135.406 117.073 134.977 116.485H134.848C134.934 117.173 134.977 117.825 134.977 118.44V123.285H133.193V106.227H134.644L134.891 107.838H134.977C135.435 107.193 135.968 106.728 136.577 106.441C137.186 106.155 137.884 106.012 138.672 106.012C140.233 106.012 141.436 106.545 142.281 107.612C143.133 108.679 143.56 110.176 143.56 112.103C143.56 114.036 143.126 115.54 142.26 116.614C141.4 117.681 140.204 118.215 138.672 118.215ZM138.414 107.526C137.211 107.526 136.341 107.859 135.804 108.525C135.267 109.191 134.991 110.251 134.977 111.705V112.103C134.977 113.757 135.252 114.942 135.804 115.658C136.355 116.367 137.24 116.722 138.457 116.722C139.474 116.722 140.269 116.31 140.842 115.486C141.422 114.663 141.712 113.528 141.712 112.081C141.712 110.613 141.422 109.489 140.842 108.708C140.269 107.92 139.46 107.526 138.414 107.526ZM152.057 106.012C152.579 106.012 153.049 106.055 153.464 106.141L153.217 107.795C152.73 107.688 152.3 107.634 151.928 107.634C150.975 107.634 150.159 108.021 149.479 108.794C148.805 109.567 148.469 110.531 148.469 111.684V118H146.686V106.227H148.157L148.361 108.407H148.447C148.884 107.641 149.41 107.05 150.026 106.635C150.642 106.219 151.319 106.012 152.057 106.012ZM157.449 118H155.666V106.227H157.449V118ZM155.516 103.036C155.516 102.628 155.616 102.331 155.816 102.145C156.017 101.951 156.268 101.854 156.568 101.854C156.855 101.854 157.102 101.951 157.31 102.145C157.517 102.338 157.621 102.635 157.621 103.036C157.621 103.437 157.517 103.738 157.31 103.938C157.102 104.132 156.855 104.229 156.568 104.229C156.268 104.229 156.017 104.132 155.816 103.938C155.616 103.738 155.516 103.437 155.516 103.036ZM163.809 118L159.34 106.227H161.252L163.787 113.209C164.36 114.842 164.697 115.902 164.797 116.389H164.883C164.962 116.009 165.209 115.225 165.624 114.036C166.047 112.84 166.988 110.237 168.449 106.227H170.361L165.893 118H163.809ZM179.492 118L179.138 116.324H179.052C178.465 117.062 177.877 117.563 177.29 117.828C176.71 118.086 175.983 118.215 175.109 118.215C173.942 118.215 173.025 117.914 172.359 117.312C171.701 116.711 171.371 115.855 171.371 114.745C171.371 112.368 173.272 111.121 177.075 111.007L179.073 110.942V110.212C179.073 109.288 178.873 108.608 178.472 108.171C178.078 107.727 177.444 107.505 176.57 107.505C175.589 107.505 174.479 107.806 173.24 108.407L172.692 107.043C173.272 106.728 173.906 106.481 174.594 106.302C175.288 106.123 175.983 106.033 176.678 106.033C178.081 106.033 179.12 106.345 179.793 106.968C180.473 107.591 180.813 108.59 180.813 109.965V118H179.492ZM175.464 116.743C176.574 116.743 177.444 116.439 178.074 115.83C178.712 115.221 179.03 114.369 179.03 113.273V112.21L177.247 112.285C175.829 112.335 174.805 112.557 174.175 112.951C173.552 113.338 173.24 113.943 173.24 114.767C173.24 115.411 173.434 115.902 173.82 116.238C174.214 116.575 174.762 116.743 175.464 116.743ZM189.203 118.215C187.499 118.215 186.177 117.692 185.239 116.646C184.308 115.594 183.843 114.108 183.843 112.188C183.843 110.219 184.315 108.697 185.261 107.623C186.213 106.549 187.567 106.012 189.321 106.012C189.887 106.012 190.453 106.073 191.019 106.194C191.584 106.316 192.028 106.459 192.351 106.624L191.803 108.139C191.409 107.981 190.979 107.852 190.514 107.752C190.048 107.645 189.636 107.591 189.278 107.591C186.886 107.591 185.69 109.116 185.69 112.167C185.69 113.614 185.98 114.724 186.561 115.497C187.148 116.271 188.014 116.657 189.16 116.657C190.141 116.657 191.147 116.446 192.179 116.023V117.603C191.391 118.011 190.399 118.215 189.203 118.215ZM193.113 106.227H195.025L197.604 112.94C198.169 114.473 198.52 115.579 198.656 116.26H198.742C198.835 115.895 199.029 115.271 199.322 114.391C199.623 113.503 200.597 110.781 202.244 106.227H204.156L199.097 119.633C198.595 120.958 198.008 121.896 197.335 122.447C196.669 123.006 195.849 123.285 194.875 123.285C194.331 123.285 193.794 123.224 193.264 123.103V121.674C193.658 121.76 194.098 121.803 194.585 121.803C195.81 121.803 196.683 121.115 197.206 119.74L197.861 118.064L193.113 106.227ZM226.79 118V110.341C226.79 109.403 226.59 108.701 226.188 108.235C225.787 107.763 225.164 107.526 224.319 107.526C223.209 107.526 222.389 107.845 221.859 108.482C221.329 109.12 221.064 110.101 221.064 111.426V118H219.281V110.341C219.281 109.403 219.081 108.701 218.68 108.235C218.279 107.763 217.652 107.526 216.8 107.526C215.683 107.526 214.863 107.863 214.34 108.536C213.824 109.202 213.566 110.298 213.566 111.823V118H211.783V106.227H213.233L213.523 107.838H213.609C213.946 107.265 214.419 106.817 215.027 106.495C215.643 106.173 216.331 106.012 217.09 106.012C218.93 106.012 220.133 106.678 220.699 108.01H220.785C221.136 107.394 221.645 106.907 222.311 106.549C222.977 106.191 223.736 106.012 224.588 106.012C225.92 106.012 226.915 106.355 227.574 107.043C228.24 107.723 228.573 108.815 228.573 110.319V118H226.79ZM239.498 118L239.144 116.324H239.058C238.47 117.062 237.883 117.563 237.296 117.828C236.716 118.086 235.989 118.215 235.115 118.215C233.948 118.215 233.031 117.914 232.365 117.312C231.706 116.711 231.377 115.855 231.377 114.745C231.377 112.368 233.278 111.121 237.081 111.007L239.079 110.942V110.212C239.079 109.288 238.879 108.608 238.478 108.171C238.084 107.727 237.45 107.505 236.576 107.505C235.595 107.505 234.485 107.806 233.246 108.407L232.698 107.043C233.278 106.728 233.912 106.481 234.6 106.302C235.294 106.123 235.989 106.033 236.684 106.033C238.087 106.033 239.126 106.345 239.799 106.968C240.479 107.591 240.819 108.59 240.819 109.965V118H239.498ZM235.47 116.743C236.58 116.743 237.45 116.439 238.08 115.83C238.717 115.221 239.036 114.369 239.036 113.273V112.21L237.253 112.285C235.835 112.335 234.811 112.557 234.181 112.951C233.558 113.338 233.246 113.943 233.246 114.767C233.246 115.411 233.439 115.902 233.826 116.238C234.22 116.575 234.768 116.743 235.47 116.743ZM252.561 118V110.384C252.561 109.424 252.342 108.708 251.905 108.235C251.468 107.763 250.785 107.526 249.854 107.526C248.622 107.526 247.719 107.859 247.146 108.525C246.574 109.191 246.287 110.291 246.287 111.823V118H244.504V106.227H245.954L246.244 107.838H246.33C246.695 107.258 247.207 106.81 247.866 106.495C248.525 106.173 249.259 106.012 250.068 106.012C251.486 106.012 252.553 106.355 253.27 107.043C253.986 107.723 254.344 108.815 254.344 110.319V118H252.561ZM265.258 118L264.903 116.324H264.817C264.23 117.062 263.643 117.563 263.056 117.828C262.476 118.086 261.749 118.215 260.875 118.215C259.708 118.215 258.791 117.914 258.125 117.312C257.466 116.711 257.137 115.855 257.137 114.745C257.137 112.368 259.038 111.121 262.841 111.007L264.839 110.942V110.212C264.839 109.288 264.638 108.608 264.237 108.171C263.843 107.727 263.21 107.505 262.336 107.505C261.355 107.505 260.245 107.806 259.006 108.407L258.458 107.043C259.038 106.728 259.672 106.481 260.359 106.302C261.054 106.123 261.749 106.033 262.443 106.033C263.847 106.033 264.885 106.345 265.559 106.968C266.239 107.591 266.579 108.59 266.579 109.965V118H265.258ZM261.229 116.743C262.34 116.743 263.21 116.439 263.84 115.83C264.477 115.221 264.796 114.369 264.796 113.273V112.21L263.013 112.285C261.595 112.335 260.571 112.557 259.94 112.951C259.317 113.338 259.006 113.943 259.006 114.767C259.006 115.411 259.199 115.902 259.586 116.238C259.98 116.575 260.528 116.743 261.229 116.743ZM279.899 106.227V107.354L277.719 107.612C277.919 107.863 278.098 108.192 278.256 108.601C278.413 109.002 278.492 109.456 278.492 109.965C278.492 111.118 278.098 112.038 277.311 112.726C276.523 113.413 275.441 113.757 274.066 113.757C273.715 113.757 273.386 113.728 273.078 113.671C272.319 114.072 271.939 114.577 271.939 115.186C271.939 115.508 272.072 115.748 272.337 115.905C272.602 116.056 273.057 116.131 273.701 116.131H275.785C277.06 116.131 278.037 116.399 278.718 116.937C279.405 117.474 279.749 118.254 279.749 119.278C279.749 120.582 279.226 121.574 278.181 122.254C277.135 122.941 275.61 123.285 273.604 123.285C272.065 123.285 270.876 122.999 270.038 122.426C269.207 121.853 268.792 121.044 268.792 119.998C268.792 119.282 269.021 118.662 269.479 118.14C269.938 117.617 270.582 117.262 271.413 117.076C271.112 116.94 270.858 116.729 270.65 116.442C270.45 116.156 270.35 115.823 270.35 115.443C270.35 115.014 270.464 114.638 270.693 114.315C270.923 113.993 271.284 113.682 271.778 113.381C271.17 113.13 270.672 112.704 270.285 112.103C269.906 111.501 269.716 110.813 269.716 110.04C269.716 108.751 270.103 107.759 270.876 107.064C271.649 106.363 272.745 106.012 274.163 106.012C274.779 106.012 275.334 106.083 275.828 106.227H279.899ZM270.511 119.977C270.511 120.614 270.779 121.097 271.316 121.427C271.854 121.756 272.623 121.921 273.626 121.921C275.123 121.921 276.229 121.695 276.945 121.244C277.669 120.8 278.03 120.195 278.03 119.429C278.03 118.791 277.833 118.347 277.439 118.097C277.046 117.853 276.304 117.731 275.216 117.731H273.078C272.269 117.731 271.639 117.925 271.188 118.312C270.736 118.698 270.511 119.253 270.511 119.977ZM271.478 109.997C271.478 110.821 271.71 111.444 272.176 111.866C272.641 112.289 273.289 112.5 274.12 112.5C275.86 112.5 276.73 111.655 276.73 109.965C276.73 108.196 275.85 107.312 274.088 107.312C273.25 107.312 272.605 107.537 272.154 107.988C271.703 108.439 271.478 109.109 271.478 109.997ZM287.29 118.215C285.55 118.215 284.175 117.685 283.165 116.625C282.162 115.565 281.661 114.093 281.661 112.21C281.661 110.312 282.127 108.805 283.058 107.688C283.996 106.57 285.253 106.012 286.828 106.012C288.303 106.012 289.471 106.499 290.33 107.473C291.189 108.439 291.619 109.718 291.619 111.308V112.436H283.509C283.545 113.818 283.892 114.867 284.551 115.583C285.217 116.299 286.151 116.657 287.354 116.657C288.622 116.657 289.875 116.392 291.114 115.862V117.452C290.484 117.724 289.886 117.918 289.32 118.032C288.762 118.154 288.085 118.215 287.29 118.215ZM286.807 107.505C285.861 107.505 285.106 107.813 284.54 108.429C283.981 109.045 283.652 109.897 283.552 110.985H289.707C289.707 109.861 289.456 109.002 288.955 108.407C288.454 107.806 287.738 107.505 286.807 107.505ZM300.041 106.012C300.564 106.012 301.033 106.055 301.448 106.141L301.201 107.795C300.714 107.688 300.285 107.634 299.912 107.634C298.96 107.634 298.143 108.021 297.463 108.794C296.79 109.567 296.453 110.531 296.453 111.684V118H294.67V106.227H296.142L296.346 108.407H296.432C296.868 107.641 297.395 107.05 298.011 106.635C298.627 106.219 299.303 106.012 300.041 106.012Z" fill="#444444"/>
</svg>
