<svg width="290" height="24" viewBox="0 0 290 24" fill="none" xmlns="http://www.w3.org/2000/svg">
<path d="M6.676 10.356L0.78 1.424H3.486L7.732 8.266L12.11 1.424H14.684L8.788 10.356V17H6.676V10.356ZM15.1235 11.786C15.1235 12.314 15.2042 12.8053 15.3655 13.26C15.5268 13.7 15.7542 14.0813 16.0475 14.404C16.3408 14.712 16.7002 14.9613 17.1255 15.152C17.5508 15.328 18.0275 15.416 18.5555 15.416C19.0835 15.416 19.5602 15.328 19.9855 15.152C20.4108 14.9613 20.7702 14.712 21.0635 14.404C21.3568 14.0813 21.5842 13.7 21.7455 13.26C21.9068 12.8053 21.9875 12.314 21.9875 11.786C21.9875 11.258 21.9068 10.774 21.7455 10.334C21.5842 9.87933 21.3568 9.498 21.0635 9.19C20.7702 8.86733 20.4108 8.618 19.9855 8.442C19.5602 8.25133 19.0835 8.156 18.5555 8.156C18.0275 8.156 17.5508 8.25133 17.1255 8.442C16.7002 8.618 16.3408 8.86733 16.0475 9.19C15.7542 9.498 15.5268 9.87933 15.3655 10.334C15.2042 10.774 15.1235 11.258 15.1235 11.786ZM13.0115 11.786C13.0115 11.0233 13.1508 10.312 13.4295 9.652C13.7228 8.992 14.1188 8.41267 14.6175 7.914C15.1162 7.41533 15.7028 7.02667 16.3775 6.748C17.0522 6.45467 17.7782 6.308 18.5555 6.308C19.3328 6.308 20.0588 6.45467 20.7335 6.748C21.4082 7.02667 21.9948 7.41533 22.4935 7.914C22.9922 8.41267 23.3808 8.992 23.6595 9.652C23.9528 10.312 24.0995 11.0233 24.0995 11.786C24.0995 12.5487 23.9528 13.2673 23.6595 13.942C23.3808 14.602 22.9922 15.1813 22.4935 15.68C21.9948 16.164 21.4082 16.5527 20.7335 16.846C20.0588 17.1247 19.3328 17.264 18.5555 17.264C17.7782 17.264 17.0522 17.1247 16.3775 16.846C15.7028 16.5527 15.1162 16.164 14.6175 15.68C14.1188 15.1813 13.7228 14.602 13.4295 13.942C13.1508 13.2673 13.0115 12.5487 13.0115 11.786ZM35.82 17H33.84V15.394H33.796C33.5467 15.9513 33.114 16.406 32.498 16.758C31.882 17.0953 31.1707 17.264 30.364 17.264C29.8507 17.264 29.3667 17.1833 28.912 17.022C28.4573 16.8753 28.054 16.6407 27.702 16.318C27.3647 15.9953 27.0933 15.5847 26.888 15.086C26.6827 14.5727 26.58 13.9713 26.58 13.282V6.572H28.56V12.732C28.56 13.216 28.626 13.634 28.758 13.986C28.89 14.3233 29.066 14.602 29.286 14.822C29.506 15.0273 29.7553 15.1813 30.034 15.284C30.3273 15.372 30.628 15.416 30.936 15.416C31.3467 15.416 31.728 15.35 32.08 15.218C32.432 15.086 32.74 14.8807 33.004 14.602C33.268 14.3087 33.4733 13.942 33.62 13.502C33.7667 13.062 33.84 12.5413 33.84 11.94V6.572H35.82V17ZM38.8046 6.572H40.7846V8.178H40.8286C40.9606 7.89933 41.1366 7.65 41.3566 7.43C41.5766 7.19533 41.8186 6.99733 42.0826 6.836C42.3613 6.67467 42.6619 6.55 42.9846 6.462C43.3073 6.35933 43.6299 6.308 43.9526 6.308C44.2753 6.308 44.5686 6.352 44.8326 6.44L44.7446 8.574C44.5833 8.53 44.4219 8.49333 44.2606 8.464C44.0993 8.43467 43.9379 8.42 43.7766 8.42C42.8086 8.42 42.0679 8.69133 41.5546 9.234C41.0413 9.77667 40.7846 10.62 40.7846 11.764V17H38.8046V6.572ZM53.0702 6.572H54.9182V8.2H54.9622C55.0062 8.05333 55.1162 7.87 55.2922 7.65C55.4829 7.43 55.7176 7.22467 55.9962 7.034C56.2896 6.82867 56.6269 6.66 57.0082 6.528C57.4042 6.38133 57.8369 6.308 58.3062 6.308C59.0836 6.308 59.7362 6.46933 60.2642 6.792C60.7922 7.11467 61.2249 7.59867 61.5622 8.244C61.8996 7.59867 62.3762 7.11467 62.9922 6.792C63.6082 6.46933 64.2316 6.308 64.8622 6.308C65.6689 6.308 66.3289 6.44 66.8422 6.704C67.3556 6.968 67.7589 7.32 68.0522 7.76C68.3456 8.18533 68.5436 8.67667 68.6462 9.234C68.7636 9.77667 68.8222 10.3413 68.8222 10.928V17H66.8422V11.192C66.8422 10.796 66.8129 10.4147 66.7542 10.048C66.7102 9.68133 66.6076 9.35867 66.4462 9.08C66.2849 8.80133 66.0576 8.58133 65.7642 8.42C65.4709 8.244 65.0822 8.156 64.5982 8.156C63.6449 8.156 62.9629 8.44933 62.5522 9.036C62.1416 9.62267 61.9362 10.378 61.9362 11.302V17H59.9562V11.544C59.9562 11.0453 59.9269 10.5907 59.8682 10.18C59.8242 9.76933 59.7216 9.41733 59.5602 9.124C59.4136 8.816 59.1936 8.58133 58.9002 8.42C58.6216 8.244 58.2402 8.156 57.7562 8.156C57.4042 8.156 57.0596 8.22933 56.7222 8.376C56.3996 8.508 56.1136 8.71333 55.8642 8.992C55.6149 9.27067 55.4169 9.63 55.2702 10.07C55.1236 10.4953 55.0502 11.0013 55.0502 11.588V17H53.0702V6.572ZM73.4106 11.786C73.4106 12.314 73.4913 12.8053 73.6526 13.26C73.8139 13.7 74.0413 14.0813 74.3346 14.404C74.6279 14.712 74.9873 14.9613 75.4126 15.152C75.8379 15.328 76.3146 15.416 76.8426 15.416C77.3706 15.416 77.8473 15.328 78.2726 15.152C78.6979 14.9613 79.0573 14.712 79.3506 14.404C79.6439 14.0813 79.8713 13.7 80.0326 13.26C80.1939 12.8053 80.2746 12.314 80.2746 11.786C80.2746 11.258 80.1939 10.774 80.0326 10.334C79.8713 9.87933 79.6439 9.498 79.3506 9.19C79.0573 8.86733 78.6979 8.618 78.2726 8.442C77.8473 8.25133 77.3706 8.156 76.8426 8.156C76.3146 8.156 75.8379 8.25133 75.4126 8.442C74.9873 8.618 74.6279 8.86733 74.3346 9.19C74.0413 9.498 73.8139 9.87933 73.6526 10.334C73.4913 10.774 73.4106 11.258 73.4106 11.786ZM71.2986 11.786C71.2986 11.0233 71.4379 10.312 71.7166 9.652C72.0099 8.992 72.4059 8.41267 72.9046 7.914C73.4033 7.41533 73.9899 7.02667 74.6646 6.748C75.3393 6.45467 76.0653 6.308 76.8426 6.308C77.6199 6.308 78.3459 6.45467 79.0206 6.748C79.6953 7.02667 80.2819 7.41533 80.7806 7.914C81.2793 8.41267 81.6679 8.992 81.9466 9.652C82.2399 10.312 82.3866 11.0233 82.3866 11.786C82.3866 12.5487 82.2399 13.2673 81.9466 13.942C81.6679 14.602 81.2793 15.1813 80.7806 15.68C80.2819 16.164 79.6953 16.5527 79.0206 16.846C78.3459 17.1247 77.6199 17.264 76.8426 17.264C76.0653 17.264 75.3393 17.1247 74.6646 16.846C73.9899 16.5527 73.4033 16.164 72.9046 15.68C72.4059 15.1813 72.0099 14.602 71.7166 13.942C71.4379 13.2673 71.2986 12.5487 71.2986 11.786ZM84.8671 0.367999H86.8471V8.068H86.8911C87.2431 7.52533 87.7491 7.1 88.4091 6.792C89.0691 6.46933 89.7731 6.308 90.5211 6.308C91.3278 6.308 92.0538 6.44733 92.6991 6.726C93.3591 7.00467 93.9164 7.39333 94.3711 7.892C94.8404 8.376 95.1998 8.95533 95.4491 9.63C95.6984 10.29 95.8231 11.0087 95.8231 11.786C95.8231 12.5633 95.6984 13.282 95.4491 13.942C95.1998 14.602 94.8404 15.1813 94.3711 15.68C93.9164 16.1787 93.3591 16.5673 92.6991 16.846C92.0538 17.1247 91.3278 17.264 90.5211 17.264C89.8171 17.264 89.1278 17.11 88.4531 16.802C87.7931 16.494 87.2724 16.0613 86.8911 15.504H86.8471V17H84.8671V0.367999ZM90.2791 15.416C90.8071 15.416 91.2838 15.328 91.7091 15.152C92.1344 14.9613 92.4938 14.712 92.7871 14.404C93.0804 14.0813 93.3078 13.7 93.4691 13.26C93.6304 12.8053 93.7111 12.314 93.7111 11.786C93.7111 11.258 93.6304 10.774 93.4691 10.334C93.3078 9.87933 93.0804 9.498 92.7871 9.19C92.4938 8.86733 92.1344 8.618 91.7091 8.442C91.2838 8.25133 90.8071 8.156 90.2791 8.156C89.7511 8.156 89.2744 8.25133 88.8491 8.442C88.4238 8.618 88.0644 8.86733 87.7711 9.19C87.4778 9.498 87.2504 9.87933 87.0891 10.334C86.9278 10.774 86.8471 11.258 86.8471 11.786C86.8471 12.314 86.9278 12.8053 87.0891 13.26C87.2504 13.7 87.4778 14.0813 87.7711 14.404C88.0644 14.712 88.4238 14.9613 88.8491 15.152C89.2744 15.328 89.7511 15.416 90.2791 15.416ZM98.4703 6.572H100.45V17H98.4703V6.572ZM98.0083 2.832C98.0083 2.436 98.1476 2.09867 98.4263 1.82C98.7196 1.52667 99.0643 1.38 99.4603 1.38C99.8563 1.38 100.194 1.52667 100.472 1.82C100.766 2.09867 100.912 2.436 100.912 2.832C100.912 3.228 100.766 3.57267 100.472 3.866C100.194 4.14467 99.8563 4.284 99.4603 4.284C99.0643 4.284 98.7196 4.14467 98.4263 3.866C98.1476 3.57267 98.0083 3.228 98.0083 2.832ZM103.755 0.367999H105.735V17H103.755V0.367999ZM110.383 12.512C110.383 12.9667 110.478 13.3847 110.669 13.766C110.874 14.1327 111.138 14.448 111.461 14.712C111.783 14.976 112.157 15.1813 112.583 15.328C113.008 15.4747 113.448 15.548 113.903 15.548C114.519 15.548 115.054 15.4087 115.509 15.13C115.963 14.8367 116.381 14.4553 116.763 13.986L118.259 15.13C117.159 16.5527 115.619 17.264 113.639 17.264C112.817 17.264 112.069 17.1247 111.395 16.846C110.735 16.5673 110.17 16.186 109.701 15.702C109.246 15.2033 108.894 14.624 108.645 13.964C108.395 13.2893 108.271 12.5633 108.271 11.786C108.271 11.0087 108.403 10.29 108.667 9.63C108.945 8.95533 109.319 8.376 109.789 7.892C110.273 7.39333 110.845 7.00467 111.505 6.726C112.165 6.44733 112.883 6.308 113.661 6.308C114.585 6.308 115.362 6.46933 115.993 6.792C116.638 7.11467 117.166 7.54 117.577 8.068C117.987 8.58133 118.281 9.168 118.457 9.828C118.647 10.4733 118.743 11.1333 118.743 11.808V12.512H110.383ZM116.631 10.928C116.616 10.488 116.543 10.0847 116.411 9.718C116.293 9.35133 116.11 9.036 115.861 8.772C115.611 8.49333 115.296 8.28067 114.915 8.134C114.548 7.97267 114.115 7.892 113.617 7.892C113.133 7.892 112.685 7.98733 112.275 8.178C111.879 8.354 111.541 8.58867 111.263 8.882C110.984 9.17533 110.764 9.50533 110.603 9.872C110.456 10.224 110.383 10.576 110.383 10.928H116.631ZM127.234 6.572H129.214V8.068H129.258C129.64 7.51067 130.16 7.078 130.82 6.77C131.495 6.462 132.184 6.308 132.888 6.308C133.695 6.308 134.421 6.44733 135.066 6.726C135.726 7.00467 136.284 7.39333 136.738 7.892C137.208 8.39067 137.567 8.97733 137.816 9.652C138.066 10.312 138.19 11.0233 138.19 11.786C138.19 12.5633 138.066 13.2893 137.816 13.964C137.567 14.624 137.208 15.2033 136.738 15.702C136.284 16.186 135.726 16.5673 135.066 16.846C134.421 17.1247 133.695 17.264 132.888 17.264C132.14 17.264 131.436 17.11 130.776 16.802C130.116 16.4793 129.61 16.0467 129.258 15.504H129.214V23.204H127.234V6.572ZM132.646 8.156C132.118 8.156 131.642 8.25133 131.216 8.442C130.791 8.618 130.432 8.86733 130.138 9.19C129.845 9.498 129.618 9.87933 129.456 10.334C129.295 10.774 129.214 11.258 129.214 11.786C129.214 12.314 129.295 12.8053 129.456 13.26C129.618 13.7 129.845 14.0813 130.138 14.404C130.432 14.712 130.791 14.9613 131.216 15.152C131.642 15.328 132.118 15.416 132.646 15.416C133.174 15.416 133.651 15.328 134.076 15.152C134.502 14.9613 134.861 14.712 135.154 14.404C135.448 14.0813 135.675 13.7 135.836 13.26C135.998 12.8053 136.078 12.314 136.078 11.786C136.078 11.258 135.998 10.774 135.836 10.334C135.675 9.87933 135.448 9.498 135.154 9.19C134.861 8.86733 134.502 8.618 134.076 8.442C133.651 8.25133 133.174 8.156 132.646 8.156ZM140.684 6.572H142.664V8.178H142.708C142.84 7.89933 143.016 7.65 143.236 7.43C143.456 7.19533 143.698 6.99733 143.962 6.836C144.24 6.67467 144.541 6.55 144.864 6.462C145.186 6.35933 145.509 6.308 145.832 6.308C146.154 6.308 146.448 6.352 146.712 6.44L146.624 8.574C146.462 8.53 146.301 8.49333 146.14 8.464C145.978 8.43467 145.817 8.42 145.655 8.42C144.688 8.42 143.947 8.69133 143.434 9.234C142.92 9.77667 142.664 10.62 142.664 11.764V17H140.684V6.572ZM148.98 6.572H150.96V17H148.98V6.572ZM148.518 2.832C148.518 2.436 148.657 2.09867 148.936 1.82C149.229 1.52667 149.574 1.38 149.97 1.38C150.366 1.38 150.703 1.52667 150.982 1.82C151.275 2.09867 151.422 2.436 151.422 2.832C151.422 3.228 151.275 3.57267 150.982 3.866C150.703 4.14467 150.366 4.284 149.97 4.284C149.574 4.284 149.229 4.14467 148.936 3.866C148.657 3.57267 148.518 3.228 148.518 2.832ZM152.857 6.572H155.145L158.269 14.558L161.261 6.572H163.373L159.281 17H157.103L152.857 6.572ZM165.155 7.848C165.713 7.33467 166.358 6.95333 167.091 6.704C167.825 6.44 168.558 6.308 169.291 6.308C170.054 6.308 170.707 6.40333 171.249 6.594C171.807 6.78467 172.261 7.04133 172.613 7.364C172.965 7.68667 173.222 8.06067 173.383 8.486C173.559 8.89667 173.647 9.32933 173.647 9.784V15.108C173.647 15.4747 173.655 15.812 173.669 16.12C173.684 16.428 173.706 16.7213 173.735 17H171.975C171.931 16.472 171.909 15.944 171.909 15.416H171.865C171.425 16.0907 170.905 16.5673 170.303 16.846C169.702 17.1247 169.005 17.264 168.213 17.264C167.729 17.264 167.267 17.198 166.827 17.066C166.387 16.934 165.999 16.736 165.661 16.472C165.339 16.208 165.082 15.8853 164.891 15.504C164.701 15.108 164.605 14.6533 164.605 14.14C164.605 13.4653 164.752 12.9007 165.045 12.446C165.353 11.9913 165.764 11.6247 166.277 11.346C166.805 11.0527 167.414 10.8473 168.103 10.73C168.807 10.598 169.555 10.532 170.347 10.532H171.799V10.092C171.799 9.828 171.748 9.564 171.645 9.3C171.543 9.036 171.389 8.80133 171.183 8.596C170.978 8.376 170.721 8.20733 170.413 8.09C170.105 7.958 169.739 7.892 169.313 7.892C168.932 7.892 168.595 7.92867 168.301 8.002C168.023 8.07533 167.766 8.17067 167.531 8.288C167.297 8.39067 167.084 8.51533 166.893 8.662C166.703 8.80867 166.519 8.948 166.343 9.08L165.155 7.848ZM170.743 11.984C170.274 11.984 169.79 12.0133 169.291 12.072C168.807 12.116 168.36 12.2113 167.949 12.358C167.553 12.5047 167.223 12.71 166.959 12.974C166.71 13.238 166.585 13.5753 166.585 13.986C166.585 14.5873 166.783 15.02 167.179 15.284C167.59 15.548 168.14 15.68 168.829 15.68C169.372 15.68 169.834 15.592 170.215 15.416C170.597 15.2253 170.905 14.9833 171.139 14.69C171.374 14.3967 171.543 14.074 171.645 13.722C171.748 13.3553 171.799 12.996 171.799 12.644V11.984H170.743ZM183.977 9.344C183.611 8.96267 183.222 8.67667 182.811 8.486C182.415 8.28067 181.939 8.178 181.381 8.178C180.839 8.178 180.362 8.28067 179.951 8.486C179.555 8.67667 179.218 8.948 178.939 9.3C178.675 9.63733 178.47 10.0333 178.323 10.488C178.191 10.928 178.125 11.39 178.125 11.874C178.125 12.358 178.206 12.82 178.367 13.26C178.529 13.6853 178.756 14.0593 179.049 14.382C179.343 14.7047 179.695 14.9613 180.105 15.152C180.516 15.328 180.978 15.416 181.491 15.416C182.049 15.416 182.525 15.3207 182.921 15.13C183.317 14.9247 183.684 14.6313 184.021 14.25L185.429 15.658C184.916 16.23 184.315 16.6407 183.625 16.89C182.951 17.1393 182.232 17.264 181.469 17.264C180.663 17.264 179.922 17.132 179.247 16.868C178.587 16.604 178.015 16.2373 177.531 15.768C177.047 15.284 176.673 14.712 176.409 14.052C176.145 13.3773 176.013 12.6367 176.013 11.83C176.013 11.0233 176.145 10.2827 176.409 9.608C176.673 8.93333 177.04 8.354 177.509 7.87C177.993 7.386 178.565 7.012 179.225 6.748C179.9 6.46933 180.648 6.33 181.469 6.33C182.232 6.33 182.958 6.46933 183.647 6.748C184.351 7.012 184.96 7.42267 185.473 7.98L183.977 9.344ZM185.879 6.572H188.167L191.269 14.712H191.313L194.261 6.572H196.395L191.445 19.244C191.269 19.6987 191.085 20.1093 190.895 20.476C190.704 20.8573 190.477 21.18 190.213 21.444C189.949 21.708 189.626 21.9133 189.245 22.06C188.878 22.2067 188.423 22.28 187.881 22.28C187.587 22.28 187.287 22.258 186.979 22.214C186.685 22.1847 186.399 22.1113 186.121 21.994L186.363 20.19C186.759 20.3513 187.155 20.432 187.551 20.432C187.859 20.432 188.115 20.388 188.321 20.3C188.541 20.2267 188.724 20.1093 188.871 19.948C189.032 19.8013 189.164 19.6253 189.267 19.42C189.369 19.2147 189.472 18.98 189.575 18.716L190.213 17.066L185.879 6.572ZM204.256 6.572H206.104V8.2H206.148C206.192 8.05333 206.302 7.87 206.478 7.65C206.668 7.43 206.903 7.22467 207.182 7.034C207.475 6.82867 207.812 6.66 208.194 6.528C208.59 6.38133 209.022 6.308 209.492 6.308C210.269 6.308 210.922 6.46933 211.45 6.792C211.978 7.11467 212.41 7.59867 212.748 8.244C213.085 7.59867 213.562 7.11467 214.178 6.792C214.794 6.46933 215.417 6.308 216.048 6.308C216.854 6.308 217.514 6.44 218.028 6.704C218.541 6.968 218.944 7.32 219.238 7.76C219.531 8.18533 219.729 8.67667 219.832 9.234C219.949 9.77667 220.008 10.3413 220.008 10.928V17H218.028V11.192C218.028 10.796 217.998 10.4147 217.94 10.048C217.896 9.68133 217.793 9.35867 217.632 9.08C217.47 8.80133 217.243 8.58133 216.95 8.42C216.656 8.244 216.268 8.156 215.784 8.156C214.83 8.156 214.148 8.44933 213.738 9.036C213.327 9.62267 213.122 10.378 213.122 11.302V17H211.142V11.544C211.142 11.0453 211.112 10.5907 211.054 10.18C211.01 9.76933 210.907 9.41733 210.746 9.124C210.599 8.816 210.379 8.58133 210.086 8.42C209.807 8.244 209.426 8.156 208.942 8.156C208.59 8.156 208.245 8.22933 207.908 8.376C207.585 8.508 207.299 8.71333 207.05 8.992C206.8 9.27067 206.602 9.63 206.456 10.07C206.309 10.4953 206.236 11.0013 206.236 11.588V17H204.256V6.572ZM223.034 7.848C223.591 7.33467 224.237 6.95333 224.97 6.704C225.703 6.44 226.437 6.308 227.17 6.308C227.933 6.308 228.585 6.40333 229.128 6.594C229.685 6.78467 230.14 7.04133 230.492 7.364C230.844 7.68667 231.101 8.06067 231.262 8.486C231.438 8.89667 231.526 9.32933 231.526 9.784V15.108C231.526 15.4747 231.533 15.812 231.548 16.12C231.563 16.428 231.585 16.7213 231.614 17H229.854C229.81 16.472 229.788 15.944 229.788 15.416H229.744C229.304 16.0907 228.783 16.5673 228.182 16.846C227.581 17.1247 226.884 17.264 226.092 17.264C225.608 17.264 225.146 17.198 224.706 17.066C224.266 16.934 223.877 16.736 223.54 16.472C223.217 16.208 222.961 15.8853 222.77 15.504C222.579 15.108 222.484 14.6533 222.484 14.14C222.484 13.4653 222.631 12.9007 222.924 12.446C223.232 11.9913 223.643 11.6247 224.156 11.346C224.684 11.0527 225.293 10.8473 225.982 10.73C226.686 10.598 227.434 10.532 228.226 10.532H229.678V10.092C229.678 9.828 229.627 9.564 229.524 9.3C229.421 9.036 229.267 8.80133 229.062 8.596C228.857 8.376 228.6 8.20733 228.292 8.09C227.984 7.958 227.617 7.892 227.192 7.892C226.811 7.892 226.473 7.92867 226.18 8.002C225.901 8.07533 225.645 8.17067 225.41 8.288C225.175 8.39067 224.963 8.51533 224.772 8.662C224.581 8.80867 224.398 8.948 224.222 9.08L223.034 7.848ZM228.622 11.984C228.153 11.984 227.669 12.0133 227.17 12.072C226.686 12.116 226.239 12.2113 225.828 12.358C225.432 12.5047 225.102 12.71 224.838 12.974C224.589 13.238 224.464 13.5753 224.464 13.986C224.464 14.5873 224.662 15.02 225.058 15.284C225.469 15.548 226.019 15.68 226.708 15.68C227.251 15.68 227.713 15.592 228.094 15.416C228.475 15.2253 228.783 14.9833 229.018 14.69C229.253 14.3967 229.421 14.074 229.524 13.722C229.627 13.3553 229.678 12.996 229.678 12.644V11.984H228.622ZM234.398 6.572H236.378V8.178H236.422C236.672 7.62067 237.104 7.17333 237.72 6.836C238.336 6.484 239.048 6.308 239.854 6.308C240.353 6.308 240.83 6.38867 241.284 6.55C241.754 6.69667 242.157 6.93133 242.494 7.254C242.846 7.57667 243.125 7.99467 243.33 8.508C243.536 9.00667 243.638 9.60067 243.638 10.29V17H241.658V10.84C241.658 10.356 241.592 9.94533 241.46 9.608C241.328 9.256 241.152 8.97733 240.932 8.772C240.712 8.552 240.456 8.398 240.162 8.31C239.884 8.20733 239.59 8.156 239.282 8.156C238.872 8.156 238.49 8.222 238.138 8.354C237.786 8.486 237.478 8.69867 237.214 8.992C236.95 9.27067 236.745 9.63 236.598 10.07C236.452 10.51 236.378 11.0307 236.378 11.632V17H234.398V6.572ZM246.667 7.848C247.224 7.33467 247.87 6.95333 248.603 6.704C249.336 6.44 250.07 6.308 250.803 6.308C251.566 6.308 252.218 6.40333 252.761 6.594C253.318 6.78467 253.773 7.04133 254.125 7.364C254.477 7.68667 254.734 8.06067 254.895 8.486C255.071 8.89667 255.159 9.32933 255.159 9.784V15.108C255.159 15.4747 255.166 15.812 255.181 16.12C255.196 16.428 255.218 16.7213 255.247 17H253.487C253.443 16.472 253.421 15.944 253.421 15.416H253.377C252.937 16.0907 252.416 16.5673 251.815 16.846C251.214 17.1247 250.517 17.264 249.725 17.264C249.241 17.264 248.779 17.198 248.339 17.066C247.899 16.934 247.51 16.736 247.173 16.472C246.85 16.208 246.594 15.8853 246.403 15.504C246.212 15.108 246.117 14.6533 246.117 14.14C246.117 13.4653 246.264 12.9007 246.557 12.446C246.865 11.9913 247.276 11.6247 247.789 11.346C248.317 11.0527 248.926 10.8473 249.615 10.73C250.319 10.598 251.067 10.532 251.859 10.532H253.311V10.092C253.311 9.828 253.26 9.564 253.157 9.3C253.054 9.036 252.9 8.80133 252.695 8.596C252.49 8.376 252.233 8.20733 251.925 8.09C251.617 7.958 251.25 7.892 250.825 7.892C250.444 7.892 250.106 7.92867 249.813 8.002C249.534 8.07533 249.278 8.17067 249.043 8.288C248.808 8.39067 248.596 8.51533 248.405 8.662C248.214 8.80867 248.031 8.948 247.855 9.08L246.667 7.848ZM252.255 11.984C251.786 11.984 251.302 12.0133 250.803 12.072C250.319 12.116 249.872 12.2113 249.461 12.358C249.065 12.5047 248.735 12.71 248.471 12.974C248.222 13.238 248.097 13.5753 248.097 13.986C248.097 14.5873 248.295 15.02 248.691 15.284C249.102 15.548 249.652 15.68 250.341 15.68C250.884 15.68 251.346 15.592 251.727 15.416C252.108 15.2253 252.416 14.9833 252.651 14.69C252.886 14.3967 253.054 14.074 253.157 13.722C253.26 13.3553 253.311 12.996 253.311 12.644V11.984H252.255ZM268.481 16.912C268.481 17.704 268.342 18.4227 268.063 19.068C267.799 19.728 267.418 20.2927 266.919 20.762C266.42 21.246 265.819 21.62 265.115 21.884C264.411 22.148 263.634 22.28 262.783 22.28C261.786 22.28 260.869 22.1407 260.033 21.862C259.212 21.5833 258.427 21.0993 257.679 20.41L259.021 18.738C259.534 19.2953 260.092 19.7133 260.693 19.992C261.294 20.2853 261.976 20.432 262.739 20.432C263.472 20.432 264.081 20.322 264.565 20.102C265.049 19.8967 265.43 19.6253 265.709 19.288C266.002 18.9507 266.208 18.562 266.325 18.122C266.442 17.6967 266.501 17.264 266.501 16.824V15.284H266.435C266.054 15.9147 265.533 16.384 264.873 16.692C264.228 16.9853 263.546 17.132 262.827 17.132C262.064 17.132 261.353 17 260.693 16.736C260.048 16.4573 259.49 16.0833 259.021 15.614C258.552 15.13 258.185 14.5653 257.921 13.92C257.657 13.26 257.525 12.5487 257.525 11.786C257.525 11.0233 257.65 10.312 257.899 9.652C258.148 8.97733 258.5 8.39067 258.955 7.892C259.424 7.39333 259.982 7.00467 260.627 6.726C261.287 6.44733 262.02 6.308 262.827 6.308C263.531 6.308 264.213 6.462 264.873 6.77C265.548 7.078 266.076 7.51067 266.457 8.068H266.501V6.572H268.481V16.912ZM263.069 8.156C262.541 8.156 262.064 8.25133 261.639 8.442C261.214 8.618 260.854 8.86733 260.561 9.19C260.268 9.498 260.04 9.87933 259.879 10.334C259.718 10.774 259.637 11.258 259.637 11.786C259.637 12.842 259.945 13.6927 260.561 14.338C261.177 14.9687 262.013 15.284 263.069 15.284C264.125 15.284 264.961 14.9687 265.577 14.338C266.193 13.6927 266.501 12.842 266.501 11.786C266.501 11.258 266.42 10.774 266.259 10.334C266.098 9.87933 265.87 9.498 265.577 9.19C265.284 8.86733 264.924 8.618 264.499 8.442C264.074 8.25133 263.597 8.156 263.069 8.156ZM272.976 12.512C272.976 12.9667 273.072 13.3847 273.262 13.766C273.468 14.1327 273.732 14.448 274.054 14.712C274.377 14.976 274.751 15.1813 275.176 15.328C275.602 15.4747 276.042 15.548 276.496 15.548C277.112 15.548 277.648 15.4087 278.102 15.13C278.557 14.8367 278.975 14.4553 279.356 13.986L280.852 15.13C279.752 16.5527 278.212 17.264 276.232 17.264C275.411 17.264 274.663 17.1247 273.988 16.846C273.328 16.5673 272.764 16.186 272.294 15.702C271.84 15.2033 271.488 14.624 271.238 13.964C270.989 13.2893 270.864 12.5633 270.864 11.786C270.864 11.0087 270.996 10.29 271.26 9.63C271.539 8.95533 271.913 8.376 272.382 7.892C272.866 7.39333 273.438 7.00467 274.098 6.726C274.758 6.44733 275.477 6.308 276.254 6.308C277.178 6.308 277.956 6.46933 278.586 6.792C279.232 7.11467 279.76 7.54 280.17 8.068C280.581 8.58133 280.874 9.168 281.05 9.828C281.241 10.4733 281.336 11.1333 281.336 11.808V12.512H272.976ZM279.224 10.928C279.21 10.488 279.136 10.0847 279.004 9.718C278.887 9.35133 278.704 9.036 278.454 8.772C278.205 8.49333 277.89 8.28067 277.508 8.134C277.142 7.97267 276.709 7.892 276.21 7.892C275.726 7.892 275.279 7.98733 274.868 8.178C274.472 8.354 274.135 8.58867 273.856 8.882C273.578 9.17533 273.358 9.50533 273.196 9.872C273.05 10.224 272.976 10.576 272.976 10.928H279.224ZM283.705 6.572H285.685V8.178H285.729C285.861 7.89933 286.037 7.65 286.257 7.43C286.477 7.19533 286.719 6.99733 286.983 6.836C287.262 6.67467 287.562 6.55 287.885 6.462C288.208 6.35933 288.53 6.308 288.853 6.308C289.176 6.308 289.469 6.352 289.733 6.44L289.645 8.574C289.484 8.53 289.322 8.49333 289.161 8.464C289 8.43467 288.838 8.42 288.677 8.42C287.709 8.42 286.968 8.69133 286.455 9.234C285.942 9.77667 285.685 10.62 285.685 11.764V17H283.705V6.572Z" fill="#666666"/>
</svg>
