<svg width="196" height="31" viewBox="0 0 196 31" fill="none" xmlns="http://www.w3.org/2000/svg">
<path d="M0.16 1.68H11.2C12.2667 1.68 13.32 1.81333 14.36 2.08C15.4 2.32 16.32 2.73333 17.12 3.32C17.9467 3.88 18.6133 4.61333 19.12 5.52C19.6267 6.42667 19.88 7.52 19.88 8.8C19.88 10.4 19.4267 11.72 18.52 12.76C17.6133 13.8 16.4267 14.5467 14.96 15V15.08C15.84 15.1867 16.6533 15.44 17.4 15.84C18.1733 16.2133 18.8267 16.7067 19.36 17.32C19.8933 17.9067 20.3067 18.6 20.6 19.4C20.92 20.1733 21.08 21.0133 21.08 21.92C21.08 23.4667 20.7733 24.76 20.16 25.8C19.5467 26.8133 18.7333 27.64 17.72 28.28C16.7333 28.8933 15.5867 29.3333 14.28 29.6C13 29.8667 11.6933 30 10.36 30H0.16V1.68ZM5.2 13.2H9.8C11.48 13.2 12.7333 12.88 13.56 12.24C14.4133 11.5733 14.84 10.7067 14.84 9.64C14.84 8.41333 14.4 7.50667 13.52 6.92C12.6667 6.30667 11.28 6 9.36 6H5.2V13.2ZM5.2 25.68H9.84C10.48 25.68 11.16 25.64 11.88 25.56C12.6267 25.48 13.3067 25.2933 13.92 25C14.5333 24.7067 15.04 24.2933 15.44 23.76C15.84 23.2 16.04 22.4533 16.04 21.52C16.04 20.0267 15.5467 18.9867 14.56 18.4C13.6 17.8133 12.0933 17.52 10.04 17.52H5.2V25.68ZM26.0975 1.68H35.9375C37.2975 1.68 38.6042 1.81333 39.8575 2.08C41.1375 2.32 42.2708 2.74667 43.2575 3.36C44.2442 3.97333 45.0308 4.8 45.6175 5.84C46.2042 6.88 46.4975 8.2 46.4975 9.8C46.4975 11.8533 45.9242 13.5733 44.7775 14.96C43.6575 16.3467 42.0442 17.1867 39.9375 17.48L47.4575 30H41.3775L34.8175 18H31.1375V30H26.0975V1.68ZM35.0575 13.68C35.7775 13.68 36.4975 13.6533 37.2175 13.6C37.9375 13.52 38.5908 13.36 39.1775 13.12C39.7908 12.8533 40.2842 12.4667 40.6575 11.96C41.0308 11.4267 41.2175 10.6933 41.2175 9.76C41.2175 8.93333 41.0442 8.26667 40.6975 7.76C40.3508 7.25333 39.8975 6.88 39.3375 6.64C38.7775 6.37333 38.1508 6.2 37.4575 6.12C36.7908 6.04 36.1375 6 35.4975 6H31.1375V13.68H35.0575ZM60.4528 1.68H64.8128L77.0128 30H71.2528L68.6128 23.52H56.3328L53.7728 30H48.1328L60.4528 1.68ZM66.8528 19.2L62.4928 7.68L58.0528 19.2H66.8528ZM80.16 1.68H86.84L100.56 22.72H100.64V1.68H105.68V30H99.28L85.28 8.28H85.2V30H80.16V1.68ZM111.996 1.68H123.156C125.023 1.68 126.823 1.97333 128.556 2.56C130.289 3.12 131.823 3.98667 133.156 5.16C134.489 6.33333 135.556 7.81333 136.356 9.6C137.156 11.36 137.556 13.44 137.556 15.84C137.556 18.2667 137.089 20.3733 136.156 22.16C135.249 23.92 134.063 25.3867 132.596 26.56C131.156 27.7067 129.543 28.5733 127.756 29.16C125.996 29.72 124.263 30 122.556 30H111.996V1.68ZM120.796 25.44C122.369 25.44 123.849 25.2667 125.236 24.92C126.649 24.5467 127.876 23.9867 128.916 23.24C129.956 22.4667 130.769 21.48 131.356 20.28C131.969 19.0533 132.276 17.5733 132.276 15.84C132.276 14.1333 132.009 12.6667 131.476 11.44C130.943 10.2133 130.196 9.22666 129.236 8.48C128.303 7.70667 127.183 7.14667 125.876 6.8C124.596 6.42666 123.183 6.24 121.636 6.24H117.036V25.44H120.796ZM142.348 1.68H161.108V6.24H147.388V13.2H160.388V17.76H147.388V25.44H161.828V30H142.348V1.68ZM166.681 1.68H171.721V30H166.681V1.68ZM191.813 7.76C191.28 6.98666 190.56 6.42666 189.653 6.08C188.773 5.70666 187.84 5.52 186.853 5.52C186.267 5.52 185.693 5.58666 185.133 5.72C184.6 5.85333 184.107 6.06666 183.653 6.36C183.227 6.65333 182.88 7.04 182.613 7.52C182.347 7.97333 182.213 8.52 182.213 9.16C182.213 10.12 182.547 10.8533 183.213 11.36C183.88 11.8667 184.707 12.3067 185.693 12.68C186.68 13.0533 187.76 13.4133 188.933 13.76C190.107 14.1067 191.187 14.5867 192.173 15.2C193.16 15.8133 193.987 16.6267 194.653 17.64C195.32 18.6533 195.653 20 195.653 21.68C195.653 23.2 195.373 24.5333 194.813 25.68C194.253 26.8 193.493 27.7333 192.533 28.48C191.6 29.2267 190.507 29.7867 189.253 30.16C188 30.5333 186.68 30.72 185.293 30.72C183.533 30.72 181.84 30.4267 180.213 29.84C178.587 29.2533 177.187 28.2667 176.013 26.88L179.813 23.2C180.427 24.1333 181.227 24.8667 182.213 25.4C183.227 25.9067 184.293 26.16 185.413 26.16C186 26.16 186.587 26.08 187.173 25.92C187.76 25.76 188.293 25.52 188.773 25.2C189.253 24.88 189.64 24.48 189.933 24C190.227 23.4933 190.373 22.92 190.373 22.28C190.373 21.24 190.04 20.44 189.373 19.88C188.707 19.32 187.88 18.8533 186.893 18.48C185.907 18.08 184.827 17.7067 183.653 17.36C182.48 17.0133 181.4 16.5467 180.413 15.96C179.427 15.3467 178.6 14.5467 177.933 13.56C177.267 12.5467 176.933 11.2 176.933 9.52C176.933 8.05333 177.227 6.78667 177.813 5.72C178.427 4.65333 179.213 3.77333 180.173 3.08C181.16 2.36 182.28 1.82666 183.533 1.48C184.787 1.13333 186.067 0.96 187.373 0.96C188.867 0.96 190.307 1.18667 191.693 1.64C193.107 2.09333 194.373 2.84 195.493 3.88L191.813 7.76Z" fill="url(#paint0_linear)"/>
<defs>
<linearGradient id="paint0_linear" x1="110.5" y1="-10" x2="110.5" y2="47" gradientUnits="userSpaceOnUse">
<stop stop-color="#1A73E8"/>
<stop offset="1" stop-color="#2E8497"/>
</linearGradient>
</defs>
</svg>
