<svg width="79" height="79" viewBox="0 0 79 79" fill="none" xmlns="http://www.w3.org/2000/svg">
<path d="M43.2262 41.7162H40.2451V68.5428H43.2262V41.7162Z" fill="#424A60"/>
<path d="M69.6206 10.0078L67.5127 7.90018L45.1547 30.2549L47.2627 32.3625L69.6206 10.0078Z" fill="#424A60"/>
<path d="M39.8091 39.8011L37.7012 37.6935L7.89053 67.4995L9.99848 69.6071L39.8091 39.8011Z" fill="#424A60"/>
<path d="M36.8286 28.7479L20.4321 12.3543L18.3241 14.462L34.7205 30.8556L36.8286 28.7479Z" fill="#424A60"/>
<path d="M68.129 60.0482L45.771 37.6935L43.663 39.8012L66.021 62.1558L68.129 60.0482Z" fill="#424A60"/>
<path d="M71.5471 14.9043C75.6631 14.9043 78.9999 11.5679 78.9999 7.45215C78.9999 3.33644 75.6631 0 71.5471 0C67.431 0 64.0942 3.33644 64.0942 7.45215C64.0942 11.5679 67.431 14.9043 71.5471 14.9043Z" fill="#43B05C"/>
<path d="M41.7355 79.0001C45.8516 79.0001 49.1883 75.6638 49.1883 71.5483C49.1883 67.4328 45.8516 64.0965 41.7355 64.0965C37.6195 64.0965 34.2827 67.4328 34.2827 71.5483C34.2827 75.6638 37.6195 79.0001 41.7355 79.0001Z" fill="#7383BF"/>
<path d="M7.45281 76.0115C11.5689 76.0115 14.9056 72.6752 14.9056 68.5597C14.9056 64.4442 11.5689 61.1079 7.45281 61.1079C3.33674 61.1079 0 64.4442 0 68.5597C0 72.6752 3.33674 76.0115 7.45281 76.0115Z" fill="#57D8AB"/>
<path d="M17.8867 16.3828C20.3564 16.3828 22.3584 14.3811 22.3584 11.9119C22.3584 9.44265 20.3564 7.44093 17.8867 7.44093C15.4171 7.44093 13.415 9.44265 13.415 11.9119C13.415 14.3811 15.4171 16.3828 17.8867 16.3828Z" fill="#D75A4A"/>
<path d="M65.5854 64.0755C68.0551 64.0755 70.0571 62.0738 70.0571 59.6045C70.0571 57.1352 68.0551 55.1334 65.5854 55.1334C63.1158 55.1334 61.1138 57.1352 61.1138 59.6045C61.1138 62.0738 63.1158 64.0755 65.5854 64.0755Z" fill="#EBBA16"/>
<path d="M41.7357 46.205C47.4982 46.205 52.1696 41.5342 52.1696 35.7725C52.1696 30.0109 47.4982 25.3401 41.7357 25.3401C35.9732 25.3401 31.3018 30.0109 31.3018 35.7725C31.3018 41.5342 35.9732 46.205 41.7357 46.205Z" fill="#4B6DAA"/>
</svg>
