<svg width="80" height="79" viewBox="0 0 80 79" fill="none" xmlns="http://www.w3.org/2000/svg">
<path d="M79.5039 31.7985V43.1428C79.5039 43.9163 78.9049 44.6038 78.1561 44.432C77.6319 44.346 77.2575 43.8304 77.1826 43.2288L76.2091 31.6266C76.2091 31.2829 75.9096 30.9391 75.5352 30.9391C75.1608 30.9391 74.8612 31.2829 74.8612 31.7126V65.9174C74.8612 66.8628 74.2622 67.7222 73.4385 67.8941C72.5399 67.98 71.7162 67.2925 71.6413 66.2612L70.0688 48.2993C70.0688 47.8696 69.6944 47.5259 69.32 47.5259C68.9455 47.5259 68.646 47.8696 68.646 48.2993L67.4479 66.0893C67.373 67.0347 66.6991 67.8081 65.8005 67.8081H65.501C64.6024 67.8081 63.8536 66.9487 63.8536 65.9174V31.7126C63.8536 31.2829 63.554 30.9391 63.1796 30.9391C62.8801 30.9391 62.6554 31.111 62.5806 31.4547C62.5806 31.025 62.955 30.5953 63.3294 30.5953C63.7038 30.5953 64.0782 30.9391 64.0782 31.4547L65.2763 45.4633C65.3512 46.2367 65.8005 46.8383 66.4744 46.9243C67.373 47.0962 68.1218 46.3227 68.1218 45.3773V31.7126C68.1218 27.8452 66.774 24.3216 64.5275 21.7433C65.8754 20.798 67.4479 20.2823 69.1702 20.1964C74.7864 20.0245 79.5039 25.2669 79.5039 31.7985Z" fill="#2B3B4E"/>
<path d="M69.3958 18.4768C72.0012 18.4768 74.1134 16.0527 74.1134 13.0624C74.1134 10.072 72.0012 7.6479 69.3958 7.6479C66.7904 7.6479 64.6782 10.072 64.6782 13.0624C64.6782 16.0527 66.7904 18.4768 69.3958 18.4768Z" fill="#2B3B4E"/>
<path d="M16.0794 31.4548C16.0794 31.2829 16.1543 31.197 16.1543 31.111C16.0794 31.197 16.0794 31.2829 16.0794 31.4548L16.1543 65.5738C16.1543 66.5191 15.5552 67.3786 14.7315 67.5504C13.8329 67.6364 13.0092 66.9488 12.9344 65.9175L11.3618 47.9557C11.3618 47.526 10.9874 47.1822 10.613 47.1822C10.2386 47.1822 9.93907 47.526 9.93907 47.9557L8.66607 65.8316C8.59119 66.777 7.91725 67.5504 7.01866 67.5504H6.71913C5.82055 67.5504 5.07172 66.691 5.07172 65.6597V31.3689C5.07172 30.9392 4.7722 30.5954 4.39778 30.5954C4.09825 30.5954 3.79873 30.8532 3.72384 31.2829L2.75037 42.8851C2.67549 43.5726 2.2262 44.0883 1.62714 44.0883C0.9532 44.0883 0.503906 43.4867 0.503906 42.7992V31.7126C0.503906 25.3529 4.84708 20.0245 10.3135 19.8527C12.4102 19.7667 14.2822 20.4542 15.9297 21.5715C13.6083 24.2357 12.1855 27.9312 12.1855 31.8845V45.2915C12.1855 46.1509 12.7846 46.9244 13.6083 46.9244C14.3571 46.9244 14.9562 46.3228 14.9562 45.4634L16.0794 31.4548Z" fill="#2B3B4E"/>
<path d="M17.5764 31.5415V34.0334L17.3518 31.3696C17.3518 31.0259 17.1271 30.7681 16.8276 30.6822C17.2769 30.6822 17.5764 31.0259 17.5764 31.5415Z" fill="#2B3B4E"/>
<path d="M10.5384 18.2206C13.1438 18.2206 15.256 15.7964 15.256 12.8061C15.256 9.8158 13.1438 7.39166 10.5384 7.39166C7.93293 7.39166 5.8208 9.8158 5.8208 12.8061C5.8208 15.7964 7.93293 18.2206 10.5384 18.2206Z" fill="#2B3B4E"/>
<path d="M48.2031 30.5954C48.3528 30.5954 48.5026 30.6813 48.6524 30.7673C48.5775 30.7673 48.4277 30.6813 48.3528 30.6813C47.9784 30.6813 47.604 31.0251 47.604 31.5408L47.3794 34.2912V31.5408C47.3794 31.0251 47.7538 30.5954 48.2031 30.5954Z" fill="#FF7058"/>
<path d="M68.0465 31.713V45.3777C68.0465 46.3231 67.2977 47.0965 66.3991 46.9247C65.7252 46.8387 65.2759 46.1512 65.201 45.4637L64.0777 31.4552C64.0777 31.0255 63.7033 30.5958 63.3289 30.5958C62.8796 30.5958 62.5052 31.0255 62.5052 31.5411V72.793C62.5052 73.9103 61.7564 75.0275 60.7829 75.1134C59.6597 75.2853 58.7611 74.34 58.6113 73.1368L56.7393 51.4796C56.6644 50.9639 56.3649 50.6201 55.9156 50.6201C55.4663 50.6201 55.0919 51.0498 55.0919 51.5655L53.4445 73.1368C53.3696 74.254 52.471 75.1994 51.4975 75.1994H51.1231C50.0748 75.1994 49.1762 74.1681 49.1762 72.9649V32.5724L50.2994 46.5809C50.3743 47.3544 50.8985 48.0419 51.5724 48.2138C52.5459 48.3857 53.2947 47.5262 53.2947 46.4949V31.713C53.2947 27.1581 51.5724 23.1189 48.8018 20.2828C50.6738 18.7359 52.9952 17.7905 55.4663 17.7046C62.4303 17.4468 68.0465 23.8064 68.0465 31.713Z" fill="#FF7058"/>
<path d="M55.8414 15.5547C58.9845 15.5547 61.5325 12.6304 61.5325 9.02306C61.5325 5.41575 58.9845 2.49144 55.8414 2.49144C52.6984 2.49144 50.1504 5.41575 50.1504 9.02306C50.1504 12.6304 52.6984 15.5547 55.8414 15.5547Z" fill="#FF7058"/>
<path d="M26.8622 31.9686V46.4926C26.8622 47.4379 27.5361 48.2114 28.3598 48.2114C29.1086 48.2114 29.7826 47.5239 29.8575 46.6645L30.9807 32.4842V72.7905C30.9807 73.9077 30.2319 75.0249 29.2584 75.1109C28.21 75.2828 27.2366 74.3374 27.0868 73.1342L25.1399 51.4771C25.065 50.9615 24.6906 50.6177 24.3162 50.6177C23.8669 50.6177 23.4925 50.9615 23.4925 51.4771L21.9199 73.1342C21.8451 74.2515 20.9465 75.1968 19.973 75.1968H19.5986C18.5502 75.1968 17.6516 74.1655 17.6516 72.9624V31.5389C17.6516 31.0232 17.2772 30.5935 16.8279 30.5935C16.4535 30.5935 16.0791 30.9373 16.0791 31.4529L14.881 45.4613C14.8061 46.3207 14.2071 46.9223 13.5331 46.9223C12.7843 46.9223 12.1104 46.2348 12.1104 45.2894V31.9686C12.1104 24.3198 17.3521 17.8743 23.9418 17.7024C26.7124 17.6165 29.2584 18.5618 31.3551 20.2806C28.5845 23.1167 26.8622 27.3278 26.8622 31.9686Z" fill="#84DBFF"/>
<path d="M16.8272 30.6822C16.5277 30.6822 16.3031 30.8531 16.1533 31.1095C16.2282 30.8531 16.4528 30.5968 16.8272 30.6822C16.7523 30.5968 16.7523 30.5968 16.8272 30.6822Z" fill="#84DBFF"/>
<path d="M32.7783 31.5403V34.2905L32.5537 31.4544C32.5537 31.0246 32.1793 30.5949 31.8049 30.5949C31.73 30.5949 31.5803 30.5949 31.5054 30.6809C31.6551 30.5949 31.8049 30.509 31.9547 30.509C32.4039 30.5949 32.7783 31.0246 32.7783 31.5403Z" fill="#84DBFF"/>
<path d="M24.3165 15.5547C27.4596 15.5547 30.0076 12.6304 30.0076 9.02306C30.0076 5.41575 27.4596 2.49144 24.3165 2.49144C21.1735 2.49144 18.6255 5.41575 18.6255 9.02306C18.6255 12.6304 21.1735 15.5547 24.3165 15.5547Z" fill="#84DBFF"/>
<path d="M39.7421 16.5017C32.5534 16.7596 26.8623 23.7208 26.8623 32.0572V46.5813C26.8623 47.5267 27.5362 48.3002 28.36 48.3002C29.1088 48.3002 29.7827 47.6126 29.8576 46.7532L31.1306 31.5415C31.2055 31.0259 31.505 30.6821 31.9543 30.6821C32.4036 30.6821 32.778 31.1118 32.778 31.6275V76.575C32.778 77.9501 33.7515 78.9814 34.8747 78.9814H35.324C36.4472 78.9814 37.3458 78.036 37.4207 76.7469L39.143 53.1989C39.2179 52.6832 39.5923 52.2535 40.0416 52.2535C40.4909 52.2535 40.9402 52.6832 40.9402 53.1989L43.0369 76.8328C43.1867 78.122 44.235 79.1533 45.3582 78.9814C46.4815 78.8095 47.2303 77.6922 47.2303 76.4031V31.5415C47.2303 31.0259 47.6047 30.5962 48.054 30.5962C48.5033 30.5962 48.8777 30.9399 48.8777 31.4556L50.1507 46.6673C50.2256 47.4408 50.7498 48.1283 51.4237 48.3002C52.3972 48.4721 53.146 47.6126 53.146 46.5813V31.7134C53.3707 23.1192 47.2303 16.2439 39.7421 16.5017Z" fill="#4EA88D"/>
<path d="M31.5052 30.6822C31.2805 30.8541 31.1307 31.1119 31.1307 31.4557L30.981 32.487V31.5417C30.981 31.1979 31.2056 30.8541 31.5052 30.6822Z" fill="#4EA88D"/>
<path d="M40.1171 14.2656C43.5496 14.2656 46.3323 11.0721 46.3323 7.1328C46.3323 3.19346 43.5496 0 40.1171 0C36.6845 0 33.9019 3.19346 33.9019 7.1328C33.9019 11.0721 36.6845 14.2656 40.1171 14.2656Z" fill="#4EA88D"/>
</svg>
