<svg width="20" height="20" viewBox="0 0 20 20" fill="none" xmlns="http://www.w3.org/2000/svg">
<path d="M18.7455 9.14712C18.5871 8.9777 14.8104 5 10 5C5.18961 5 1.41296 8.9777 1.25434 9.14712C0.915221 9.50961 0.915221 10.058 1.25434 10.4204C1.41296 10.5896 5.18961 14.5676 10 14.5676C14.8104 14.5676 18.5871 10.5896 18.7455 10.4204C19.0849 10.058 19.0849 9.50961 18.7455 9.14712ZM10.0091 12.6529C8.35471 12.6529 7.00866 11.3671 7.00866 9.78676C7.00866 8.20618 8.35471 6.92043 10.0091 6.92043C11.6636 6.92043 13.0096 8.20618 13.0096 9.78676C13.0096 11.3671 11.6636 12.6529 10.0091 12.6529ZM5.20472 8.46518C4.94947 9.31057 4.93827 10.2154 5.20055 11.0947C4.46163 10.6317 3.85294 10.1505 3.42683 9.78229C3.8532 9.41258 4.46319 8.92942 5.20472 8.46518ZM14.8221 11.0802C15.0668 10.2505 15.079 9.35859 14.8198 8.48583C15.5486 8.94411 16.1495 9.41905 16.5714 9.78378C16.1497 10.148 15.5499 10.6225 14.8221 11.0802Z" fill="#979797"/>
<path d="M11.0093 9.78691C11.0093 10.3146 10.5617 10.7423 10.0092 10.7423C9.45675 10.7423 9.00903 10.3146 9.00903 9.78691C9.00903 9.25921 9.45675 8.83154 10.0092 8.83154C10.5617 8.83154 11.0093 9.25921 11.0093 9.78691Z" fill="#979797"/>
</svg>
