<svg width="20" height="20" viewBox="0 0 20 20" fill="none" xmlns="http://www.w3.org/2000/svg">
<path d="M4.44752 3.88818C4.44709 3.88818 4.4466 3.88818 4.44617 3.88818C4.29484 3.88818 4.15251 3.94717 4.04504 4.05438C3.93638 4.16277 3.87653 4.30709 3.87653 4.46074V13.0461C3.87653 13.3609 4.13366 13.6177 4.44978 13.6185C5.78247 13.6217 8.01526 13.8994 9.55558 15.5113V6.52652C9.55558 6.4198 9.52832 6.31955 9.47687 6.23658C8.21265 4.20064 5.78323 3.89131 4.44752 3.88818Z" fill="black"/>
<path d="M4.44752 3.88818C4.44709 3.88818 4.4466 3.88818 4.44617 3.88818C4.29484 3.88818 4.15251 3.94717 4.04504 4.05438C3.93638 4.16277 3.87653 4.30709 3.87653 4.46074V13.0461C3.87653 13.3609 4.13366 13.6177 4.44978 13.6185C5.78247 13.6217 8.01526 13.8994 9.55558 15.5113V6.52652C9.55558 6.4198 9.52832 6.31955 9.47687 6.23658C8.21265 4.20064 5.78323 3.89131 4.44752 3.88818Z" fill="#979797"/>
<path d="M16.1235 13.046V4.46062C16.1235 4.30697 16.0637 4.16265 15.955 4.05426C15.8475 3.94705 15.7051 3.88806 15.5539 3.88806C15.5534 3.88806 15.553 3.88806 15.5525 3.88806C14.2169 3.89124 11.7874 4.20057 10.5232 6.23651C10.4717 6.31948 10.4445 6.41973 10.4445 6.52645V15.5112C11.9848 13.8993 14.2176 13.6215 15.5503 13.6184C15.8664 13.6175 16.1235 13.3608 16.1235 13.046Z" fill="black"/>
<path d="M16.1235 13.046V4.46062C16.1235 4.30697 16.0637 4.16265 15.955 4.05426C15.8475 3.94705 15.7051 3.88806 15.5539 3.88806C15.5534 3.88806 15.553 3.88806 15.5525 3.88806C14.2169 3.89124 11.7874 4.20057 10.5232 6.23651C10.4717 6.31948 10.4445 6.41973 10.4445 6.52645V15.5112C11.9848 13.8993 14.2176 13.6215 15.5503 13.6184C15.8664 13.6175 16.1235 13.3608 16.1235 13.046Z" fill="#979797"/>
<path d="M17.4276 5.86792H17.0125V13.0459C17.0125 13.8497 16.3575 14.5052 15.5525 14.5072C14.4221 14.5099 12.5582 14.7309 11.2382 15.9803C13.5212 15.4213 15.9278 15.7847 17.2994 16.0972C17.4707 16.1362 17.6477 16.0959 17.7849 15.9866C17.9216 15.8775 18 15.7144 18 15.5394V6.44037C18.0001 6.12473 17.7432 5.86792 17.4276 5.86792Z" fill="black"/>
<path d="M17.4276 5.86792H17.0125V13.0459C17.0125 13.8497 16.3575 14.5052 15.5525 14.5072C14.4221 14.5099 12.5582 14.7309 11.2382 15.9803C13.5212 15.4213 15.9278 15.7847 17.2994 16.0972C17.4707 16.1362 17.6477 16.0959 17.7849 15.9866C17.9216 15.8775 18 15.7144 18 15.5394V6.44037C18.0001 6.12473 17.7432 5.86792 17.4276 5.86792Z" fill="#979797"/>
<path d="M2.98759 13.0459V5.86792H2.57245C2.25686 5.86792 2 6.12473 2 6.44037V15.5392C2 15.7143 2.07844 15.8773 2.21517 15.9864C2.35227 16.0957 2.52908 16.1362 2.70061 16.0971C4.0722 15.7845 6.47894 15.4211 8.76183 15.9801C7.44185 14.7308 5.57798 14.5098 4.44758 14.5071C3.64256 14.5052 2.98759 13.8497 2.98759 13.0459Z" fill="black"/>
<path d="M2.98759 13.0459V5.86792H2.57245C2.25686 5.86792 2 6.12473 2 6.44037V15.5392C2 15.7143 2.07844 15.8773 2.21517 15.9864C2.35227 16.0957 2.52908 16.1362 2.70061 16.0971C4.0722 15.7845 6.47894 15.4211 8.76183 15.9801C7.44185 14.7308 5.57798 14.5098 4.44758 14.5071C3.64256 14.5052 2.98759 13.8497 2.98759 13.0459Z" fill="#979797"/>
</svg>
