<svg width="22" height="20" viewBox="0 0 22 20" fill="none" xmlns="http://www.w3.org/2000/svg">
<path d="M11.0535 2C6.60909 2 3.05353 5.54694 3.05353 9.98062C3.05353 14.4143 6.60909 17.9612 11.0535 17.9612C11.7647 17.9612 12.3869 17.3405 12.3869 16.6311C12.3869 16.2764 12.2979 16.0104 12.0313 15.7444C11.8535 15.4784 11.6757 15.2124 11.6757 14.8577C11.6757 14.1483 12.298 13.5276 13.0091 13.5276H14.6091C17.098 13.5276 19.0535 11.5767 19.0535 9.09388C19.0535 5.19225 15.498 2 11.0535 2ZM6.16464 9.98062C5.45353 9.98062 4.83131 9.3599 4.83131 8.65051C4.83131 7.94113 5.45353 7.32041 6.16464 7.32041C6.87575 7.32041 7.49798 7.94113 7.49798 8.65051C7.49798 9.3599 6.87575 9.98062 6.16464 9.98062ZM8.83131 6.43368C8.1202 6.43368 7.49798 5.81296 7.49798 5.10357C7.49798 4.39418 8.1202 3.77347 8.83131 3.77347C9.54242 3.77347 10.1646 4.39418 10.1646 5.10357C10.1646 5.81296 9.54242 6.43368 8.83131 6.43368ZM13.2757 6.43368C12.5647 6.43368 11.9424 5.81296 11.9424 5.10357C11.9424 4.39418 12.5647 3.77347 13.2757 3.77347C13.9869 3.77347 14.6091 4.39418 14.6091 5.10357C14.6091 5.81296 13.9869 6.43368 13.2757 6.43368ZM15.9424 9.98062C15.2313 9.98062 14.6091 9.3599 14.6091 8.65051C14.6091 7.94113 15.2313 7.32041 15.9424 7.32041C16.6535 7.32041 17.2757 7.94113 17.2757 8.65051C17.2757 9.3599 16.6535 9.98062 15.9424 9.98062Z" fill="#979797"/>
</svg>
