<svg width="20" height="20" viewBox="0 0 20 20" fill="none" xmlns="http://www.w3.org/2000/svg">
<path d="M14.375 7.125C14.375 9.5 12 11.8379 12 14.25H7.25C7.25 11.9121 4.875 9.5 4.875 7.125C4.875 4.50181 7.00185 2.375 9.625 2.375C12.2482 2.375 14.375 4.50185 14.375 7.125ZM11.4063 16.625H7.84371C7.51555 16.625 7.25 16.8905 7.25 17.2187C7.25 17.547 7.51555 17.8125 7.84371 17.8125H7.95277C8.19749 18.5036 8.85041 19 9.625 19C10.3997 19 11.0527 18.5036 11.2973 17.8125H11.4063C11.7345 17.8125 12 17.547 12 17.2187C12 16.8905 11.7345 16.625 11.4063 16.625ZM11.4063 14.8437H7.84371C7.51555 14.8437 7.25 15.1093 7.25 15.4375C7.25 15.7657 7.51555 16.0313 7.84371 16.0313H11.4063C11.7345 16.0313 12 15.7657 12 15.4375C12 15.1093 11.7345 14.8437 11.4063 14.8437ZM3.15754 4.07739L4.22328 4.69203C4.38798 4.32788 4.58859 3.98696 4.82052 3.66574L3.75129 3.04761L3.15754 4.07739ZM10.2187 1.24781V0H9.03129V1.24781C9.22957 1.22694 9.42086 1.1875 9.625 1.1875C9.82914 1.1875 10.0204 1.22694 10.2187 1.24781ZM7.19203 1.72328L6.57739 0.657541L5.54761 1.25129L6.1657 2.32052C6.48696 2.08856 6.82788 1.88794 7.19203 1.72328ZM16.0924 4.07739L15.4987 3.04761L14.4295 3.6657C14.6614 3.98692 14.8632 4.32788 15.0278 4.692L16.0924 4.07739ZM13.7013 1.25129L12.6737 0.657541L12.0591 1.72328C12.4221 1.88798 12.7642 2.08859 13.0843 2.31938L13.7013 1.25129ZM3.6875 7.125C3.6875 6.9209 3.72694 6.72956 3.74781 6.53125H2.5V7.71871H3.75014C3.72694 7.52163 3.6875 7.3268 3.6875 7.125ZM15.5022 6.53125C15.5231 6.72956 15.5625 6.9209 15.5625 7.125C15.5625 7.3268 15.5231 7.52163 15.4999 7.71871H16.75V6.53125H15.5022ZM14.5269 10.64L15.4987 11.2013L16.0925 10.1726L15.014 9.551C14.8644 9.91975 14.702 10.2816 14.5269 10.64ZM3.15754 10.1726L3.75129 11.2013L4.71498 10.6458C4.54102 10.2862 4.37866 9.9221 4.23141 9.55335L3.15754 10.1726Z" fill="#979797"/>
</svg>
