<svg width="20" height="20" viewBox="0 0 20 20" fill="none" xmlns="http://www.w3.org/2000/svg">
<rect width="20" height="20" fill="white"/>
<path d="M5.44752 3.88818C5.44709 3.88818 5.4466 3.88818 5.44617 3.88818C5.29484 3.88818 5.15251 3.94717 5.04504 4.05438C4.93638 4.16277 4.87653 4.30709 4.87653 4.46074V13.0461C4.87653 13.3609 5.13366 13.6177 5.44978 13.6185C6.78247 13.6217 9.01526 13.8994 10.5556 15.5113V6.52652C10.5556 6.4198 10.5283 6.31955 10.4769 6.23658C9.21265 4.20064 6.78323 3.89131 5.44752 3.88818Z" fill="black"/>
<path d="M5.44752 3.88818C5.44709 3.88818 5.4466 3.88818 5.44617 3.88818C5.29484 3.88818 5.15251 3.94717 5.04504 4.05438C4.93638 4.16277 4.87653 4.30709 4.87653 4.46074V13.0461C4.87653 13.3609 5.13366 13.6177 5.44978 13.6185C6.78247 13.6217 9.01526 13.8994 10.5556 15.5113V6.52652C10.5556 6.4198 10.5283 6.31955 10.4769 6.23658C9.21265 4.20064 6.78323 3.89131 5.44752 3.88818Z" fill="#979797"/>
<path d="M17.1235 13.046V4.46062C17.1235 4.30697 17.0637 4.16265 16.955 4.05426C16.8475 3.94705 16.7051 3.88806 16.5539 3.88806C16.5534 3.88806 16.553 3.88806 16.5525 3.88806C15.2169 3.89124 12.7874 4.20057 11.5232 6.23651C11.4717 6.31948 11.4445 6.41973 11.4445 6.52645V15.5112C12.9848 13.8993 15.2176 13.6215 16.5503 13.6184C16.8664 13.6175 17.1235 13.3608 17.1235 13.046Z" fill="black"/>
<path d="M17.1235 13.046V4.46062C17.1235 4.30697 17.0637 4.16265 16.955 4.05426C16.8475 3.94705 16.7051 3.88806 16.5539 3.88806C16.5534 3.88806 16.553 3.88806 16.5525 3.88806C15.2169 3.89124 12.7874 4.20057 11.5232 6.23651C11.4717 6.31948 11.4445 6.41973 11.4445 6.52645V15.5112C12.9848 13.8993 15.2176 13.6215 16.5503 13.6184C16.8664 13.6175 17.1235 13.3608 17.1235 13.046Z" fill="#979797"/>
<path d="M18.4276 5.86792H18.0125V13.0459C18.0125 13.8497 17.3575 14.5052 16.5525 14.5072C15.4221 14.5099 13.5582 14.7309 12.2382 15.9803C14.5212 15.4213 16.9278 15.7847 18.2994 16.0972C18.4707 16.1362 18.6477 16.0959 18.7849 15.9866C18.9216 15.8775 19 15.7144 19 15.5394V6.44037C19.0001 6.12473 18.7432 5.86792 18.4276 5.86792Z" fill="black"/>
<path d="M18.4276 5.86792H18.0125V13.0459C18.0125 13.8497 17.3575 14.5052 16.5525 14.5072C15.4221 14.5099 13.5582 14.7309 12.2382 15.9803C14.5212 15.4213 16.9278 15.7847 18.2994 16.0972C18.4707 16.1362 18.6477 16.0959 18.7849 15.9866C18.9216 15.8775 19 15.7144 19 15.5394V6.44037C19.0001 6.12473 18.7432 5.86792 18.4276 5.86792Z" fill="#979797"/>
<path d="M3.98759 13.0459V5.86792H3.57245C3.25686 5.86792 3 6.12473 3 6.44037V15.5392C3 15.7143 3.07844 15.8773 3.21517 15.9864C3.35227 16.0957 3.52908 16.1362 3.70061 16.0971C5.0722 15.7845 7.47894 15.4211 9.76183 15.9801C8.44185 14.7308 6.57798 14.5098 5.44758 14.5071C4.64256 14.5052 3.98759 13.8497 3.98759 13.0459Z" fill="black"/>
<path d="M3.98759 13.0459V5.86792H3.57245C3.25686 5.86792 3 6.12473 3 6.44037V15.5392C3 15.7143 3.07844 15.8773 3.21517 15.9864C3.35227 16.0957 3.52908 16.1362 3.70061 16.0971C5.0722 15.7845 7.47894 15.4211 9.76183 15.9801C8.44185 14.7308 6.57798 14.5098 5.44758 14.5071C4.64256 14.5052 3.98759 13.8497 3.98759 13.0459Z" fill="#979797"/>
</svg>
