<svg width="18" height="17" viewBox="0 0 18 17" fill="none" xmlns="http://www.w3.org/2000/svg">
<path fill-rule="evenodd" clip-rule="evenodd" d="M17.1555 5.94544C17.693 5.49814 18 4.87039 18 4.21451C18 2.91167 16.8186 1.85171 15.3663 1.85171C15.2482 1.85171 15.1304 1.85888 15.0134 1.87321C14.9071 1.41858 14.6533 1.00188 14.2756 0.671019C13.7816 0.238274 13.1291 0 12.4385 0C11.6743 0 10.9488 0.298393 10.4471 0.818855C10.436 0.818014 10.4247 0.817585 10.4133 0.817585C9.75466 0.817585 9.13393 1.03455 8.6541 1.42345C8.17423 1.03455 7.55355 0.817585 6.89488 0.817585C6.20422 0.817585 5.55179 1.05586 5.0578 1.48861C4.68006 1.81946 4.42632 2.23617 4.32 2.69079C4.20305 2.67646 4.08519 2.6693 3.96708 2.6693C2.51486 2.6693 1.33337 3.72926 1.33337 5.0321C1.33337 5.58197 1.54919 6.11209 1.9357 6.53269C1.54919 6.95324 1.33337 7.48337 1.33337 8.03328C1.33337 9.33612 2.51481 10.396 3.96708 10.396L3.96894 10.396C3.96407 10.5144 4.02513 10.6323 4.14234 10.7038C4.579 10.9703 5.08998 11.1111 5.61994 11.1111C6.27855 11.1111 6.89934 10.8941 7.37917 10.5052C7.85899 10.8941 8.47978 11.1111 9.13839 11.1111C9.7623 11.1111 10.3606 10.9121 10.8322 10.5557C11.3039 10.9121 11.9022 11.1111 12.5261 11.1111C13.2167 11.1111 13.8692 10.8728 14.3632 10.4401C14.7409 10.1092 14.9947 9.69253 15.101 9.23786C15.218 9.25219 15.3358 9.25935 15.4539 9.25935C16.9061 9.25935 17.6385 8.22873 17.6385 6.94948C17.6385 6.49863 17.3979 6.15312 17.1555 5.94544Z" fill="black"/>
<path d="M6.11797 11.8013C4.79323 11.8013 3.75562 12.4979 3.75562 13.3871C3.75562 14.2764 4.7933 14.973 6.11797 14.973C7.44265 14.973 8.48033 14.2764 8.48033 13.3871C8.48033 12.4979 7.44265 11.8013 6.11797 11.8013Z" fill="black"/>
<path d="M1.66667 14.4443C0.73205 14.4443 0 14.9324 0 15.5554C0 16.1785 0.732096 16.6666 1.66667 16.6666C2.60124 16.6666 3.33333 16.1785 3.33333 15.5554C3.33333 14.9324 2.60124 14.4443 1.66667 14.4443Z" fill="black"/>
</svg>
