<svg width="22" height="12" viewBox="0 0 22 12" fill="none" xmlns="http://www.w3.org/2000/svg">
<path d="M20.9142 5.0687C20.7289 4.86163 16.309 0 10.6793 0C5.04964 0 0.629774 4.86163 0.444139 5.0687C0.047266 5.51175 0.047266 6.18194 0.444139 6.62498C0.629774 6.83176 5.04964 11.6937 10.6793 11.6937C16.309 11.6937 20.7289 6.83176 20.9142 6.62498C21.3114 6.18194 21.3114 5.51175 20.9142 5.0687ZM10.69 9.35349C8.75379 9.35349 7.17849 7.78201 7.17849 5.85049C7.17849 3.91867 8.75379 2.34719 10.69 2.34719C12.6262 2.34719 14.2015 3.91867 14.2015 5.85049C14.2015 7.78201 12.6262 9.35349 10.69 9.35349ZM5.06732 4.23522C4.7686 5.26848 4.75549 6.37442 5.06244 7.44904C4.19767 6.88315 3.48531 6.29506 2.98663 5.84502C3.48562 5.39316 4.1995 4.80263 5.06732 4.23522ZM16.3227 7.4314C16.609 6.4173 16.6233 5.32717 16.32 4.26046C17.1729 4.82058 17.8761 5.40106 18.3699 5.84684C17.8764 6.29202 17.1744 6.8719 16.3227 7.4314Z" fill="white"/>
<path d="M11.8605 5.85053C11.8605 6.49548 11.3366 7.01819 10.69 7.01819C10.0435 7.01819 9.51953 6.49548 9.51953 5.85053C9.51953 5.20557 10.0435 4.68286 10.69 4.68286C11.3366 4.68286 11.8605 5.20557 11.8605 5.85053Z" fill="white"/>
</svg>
