<svg width="30" height="30" viewBox="0 0 30 30" fill="none" xmlns="http://www.w3.org/2000/svg">
<path d="M29.4098 13.9518L24.592 11.543L29.4098 9.13403C30.2715 8.70327 30.2724 7.46913 29.4098 7.03769L15.5816 0.123597C15.2515 -0.0411989 14.8633 -0.0411989 14.5333 0.123597L0.705098 7.03769C-0.156646 7.46868 -0.157561 8.70281 0.705098 9.13403L5.52285 11.543L0.705098 13.9518C-0.156646 14.3828 -0.157561 15.6167 0.705098 16.0481L5.52285 18.4571L0.705098 20.8659C-0.156646 21.2969 -0.157561 22.5308 0.705098 22.9622L14.5333 29.8763C14.8626 30.0409 15.2508 30.0416 15.5816 29.8763L29.4098 22.9622C30.2715 22.5312 30.2724 21.2973 29.4098 20.8659L24.592 18.4571L29.4098 16.0481C30.2715 15.6174 30.2724 14.3832 29.4098 13.9518ZM15.0574 2.48201L26.2651 8.08597L15.0574 13.6897L3.84972 8.08597L15.0574 2.48201ZM26.2651 21.9142L15.0574 27.5179L3.84972 21.9142L8.14333 19.7672L14.5333 22.9622C14.8629 23.1268 15.2508 23.1275 15.5816 22.9622L21.9715 19.7672L26.2651 21.9142ZM15.0574 20.6038L3.84972 15.0001L8.14333 12.8531L14.5333 16.0481C14.8629 16.2127 15.2508 16.2134 15.5816 16.0481L21.9715 12.8531L26.2651 15.0001L15.0574 20.6038Z" fill="black"/>
</svg>
