<svg width="20" height="20" viewBox="0 0 20 20" fill="none" xmlns="http://www.w3.org/2000/svg">
<path d="M17.6541 9.44095L15.0846 8.15628L17.6541 6.87148C18.1136 6.64175 18.1141 5.98354 17.6541 5.75344L10.279 2.06592C10.103 1.97803 9.89594 1.97803 9.71991 2.06592L2.34488 5.75344C1.88528 5.9833 1.8848 6.6415 2.34488 6.87148L4.91435 8.15628L2.34488 9.44095C1.88528 9.67081 1.8848 10.3289 2.34488 10.559L4.91435 11.8438L2.34488 13.1284C1.88528 13.3583 1.8848 14.0164 2.34488 14.2465L9.71991 17.9341C9.89557 18.0218 10.1026 18.0222 10.279 17.9341L17.6541 14.2465C18.1136 14.0166 18.1141 13.3586 17.6541 13.1284L15.0846 11.8438L17.6541 10.559C18.1136 10.3293 18.1141 9.67105 17.6541 9.44095ZM9.99945 3.32373L15.9769 6.31252L9.99945 9.30118L4.02201 6.31252L9.99945 3.32373ZM15.9769 13.6876L9.99945 16.6762L4.02201 13.6876L6.31194 12.5425L9.71991 14.2465C9.8957 14.3343 10.1026 14.3346 10.279 14.2465L13.6869 12.5425L15.9769 13.6876ZM9.99945 12.9887L4.02201 10L6.31194 8.85501L9.71991 10.559C9.8957 10.6468 10.1026 10.6471 10.279 10.559L13.6869 8.85501L15.9769 10L9.99945 12.9887Z" fill="#979797"/>
</svg>
