<svg width="30" height="30" viewBox="0 0 30 30" fill="none" xmlns="http://www.w3.org/2000/svg">
<path d="M14.7509 13.3916C14.522 13.3286 14.2873 13.2943 14.0412 13.2943C12.5703 13.2943 11.374 14.4905 11.374 15.9615C11.374 17.4325 12.5703 18.6287 14.0412 18.6287C15.5122 18.6287 16.7084 17.4325 16.7084 15.9615C16.7084 15.7154 16.6741 15.475 16.6111 15.2518L24.0404 7.82254L25.2423 7.9828L29.0027 4.22239L26.1581 3.84463L25.7803 1L22.0199 4.76041L22.1802 5.96236L14.7509 13.3916Z" fill="black"/>
<path d="M14.3273 10.8389L16.5251 8.64101C13.8293 7.72523 10.7214 8.34338 8.57503 10.4955C5.55869 13.5118 5.55869 18.4112 8.57503 21.4275C11.5914 24.4439 16.4908 24.4439 19.5071 21.4275C21.6592 19.2755 22.2773 16.1733 21.3616 13.4717L19.1637 15.6696C19.2438 17.0776 18.7459 18.5142 17.6698 19.5903C15.6666 21.5935 12.4156 21.5935 10.4123 19.5903C8.40904 17.587 8.40904 14.336 10.4123 12.3327C11.4883 11.2567 12.9192 10.7587 14.3273 10.8389Z" fill="black"/>
<path d="M23.2562 11.5829C25.0592 15.372 24.3895 20.0367 21.253 23.1732C17.2693 27.1569 10.8131 27.1569 6.82949 23.1732C2.84586 19.1896 2.84586 12.7334 6.82949 8.74974C9.96603 5.61321 14.6308 4.94927 18.4198 6.74648L20.5204 4.64592C15.5408 1.78984 9.07314 2.48812 4.82051 6.74076C-0.273502 11.8348 -0.273502 20.0882 4.82051 25.1765C9.91451 30.2705 18.1679 30.2705 23.2562 25.1765C27.5089 20.9238 28.2072 14.4562 25.3511 9.47664L23.2562 11.5829Z" fill="black"/>
</svg>
