<svg width="20" height="20" viewBox="0 0 20 20" fill="none" xmlns="http://www.w3.org/2000/svg">
<path d="M2.39484 9.08463C2.39414 8.91996 2.39346 9.03823 2.39484 9.08463V9.08463Z" fill="#979797"/>
<path d="M10.479 9.82504C12.2579 9.82504 13.7002 8.07336 13.7002 5.91254C13.7002 3.75168 13.2267 2 10.479 2C7.73135 2 7.25775 3.75168 7.25775 5.91254C7.25775 8.07336 8.69999 9.82504 10.479 9.82504Z" fill="#979797"/>
<path d="M16.5629 15.9019C16.5646 15.8658 16.5634 15.6517 16.5629 15.9019V15.9019Z" fill="#979797"/>
<path d="M16.5559 15.6412C16.4963 11.8769 16.0047 10.8043 12.2428 10.1254C12.2428 10.1254 11.7132 10.8002 10.4789 10.8002C9.24464 10.8002 8.715 10.1254 8.715 10.1254C4.99409 10.7969 4.47258 11.8536 4.40401 15.5188C4.39839 15.8181 4.39578 15.8338 4.39478 15.7991C4.39501 15.8642 4.39528 15.9846 4.39528 16.1945C4.39528 16.1945 5.29091 18.0001 10.4789 18.0001C15.6669 18.0001 16.5626 16.1945 16.5626 16.1945C16.5626 16.0597 16.5627 15.9659 16.5628 15.9021C16.5618 15.9235 16.5598 15.8819 16.5559 15.6412Z" fill="#979797"/>
</svg>
