<svg width="1024" height="438" viewBox="0 0 1024 438" fill="none" xmlns="http://www.w3.org/2000/svg">
<g clip-path="url(#clip0)">
<rect width="1024" height="439" transform="translate(0 -1)" fill="black"/>
<path d="M1024 -115H0V398.215H1024V-115Z" fill="url(#paint0_linear)"/>
<path d="M1024 -115H0V398.215H1024V-115Z" fill="url(#paint1_linear)"/>
<path fill-rule="evenodd" clip-rule="evenodd" d="M1024 132.097L1021.87 136.703L1015.98 141.479L1017.34 148.815L1014.02 154.529L1008.55 159.391L1005.23 165.106L995.84 167.238L991.573 172.271L987.307 176.109L982.272 179.435L976.043 178.668L969.131 176.962L960.085 176.621L956.501 170.394L950.101 166.641L945.579 161.524L942.763 155.126L935.68 151.629L926.635 152.824L919.467 153.506L911.957 156.235L903.595 157.174L899.925 163.997L889.856 163.656L884.139 168.176L883.797 176.621L875.008 179.521L872.96 187.026L862.891 188.135L858.368 195.471L848.555 195.812L840.875 191.121L830.635 191.974L824.405 187.879L819.2 183.018L811.947 180.885L805.035 181.568L796.587 179.691L790.443 183.188L785.493 187.709L777.728 189.415L773.205 194.362L766.72 197.603L762.965 202.124L763.477 209.544L756.309 212.359L748.032 213.041L740.864 209.8L733.696 207.838L725.419 207.241L720.213 202.124L711.509 202.379L706.048 197.774L698.368 196.494L692.565 192.315L684.971 190.95L680.021 185.321L671.317 185.747L664.917 182.591L659.2 178.156L652.203 175.512L644.437 173.721L638.805 169.029L630.272 168.176L625.237 162.888L616.619 162.376L611.925 155.041L601.941 158.026L594.688 155.126L586.837 153.762L579.925 157.429L572.075 157.6L565.419 160.756L557.397 161.353L550.229 163.571L544.341 167.835L538.453 172.271L531.2 174.488L523.691 175.171L516.181 175.682L510.123 180.118L502.187 177.9L494.933 180.8L488.192 177.218L481.707 175.085L474.283 173.721L467.285 171.076L458.923 172.185L451.669 169.797L444.587 171.162L437.077 172.271L433.152 178.241L426.496 180.629L418.987 182.335L413.44 186.003L406.016 186.429L397.483 186.685L391.936 180.971L382.891 181.653L375.893 180.032L368.299 179.009L360.619 178.497L353.707 175.597L347.136 173.379L339.541 171.503L337.835 164.679L331.861 161.012L324.352 159.135L317.781 159.306L310.613 159.221H301.909L298.752 167.068L287.829 165.362L283.051 172.612L274.517 174.488L266.069 176.621L258.219 177.729L250.709 173.721L243.371 172.271L235.776 171.674L227.157 173.209L219.136 172.526L212.907 168.006L204.373 168.262L199.339 161.609L191.915 159.647L185.088 156.406L175.531 159.562L168.619 156.576L161.451 153.676L153.344 155.894L145.835 150.521L138.411 156.15L130.56 153.25L123.221 155.724L115.797 157.003L107.861 156.491L101.291 160.329L93.0987 159.818L85.6747 161.268L77.9947 162.206L71.8507 166.641L64.256 167.921L57.9413 171.929L50.3467 173.209L43.008 174.915L35.84 177.218L28.2453 178.326L20.0533 178.156L13.3973 181.568H5.376L0 185.491V393.438L3.75467 392.926L11.1787 395.997L18.944 396.594L26.7093 397.191L34.2187 399.409L42.1547 399.238L50.0053 399.75L57.5147 402.565L65.9627 399.409L73.8133 399.579L81.5787 400.603L89.6853 403.162L97.8773 404.015L105.728 407.171L114.517 405.294L123.136 404.782L131.328 405.976L139.435 407.768L147.797 408.024L154.795 411.606L162.731 410.668L169.557 415.956L178.005 411.862L185.173 415.615L193.109 414.421L200.192 419.197H207.957L216.149 415.359L223.488 418.771L231.509 416.041L238.848 419.282L246.357 420.903L254.293 419.368L261.973 420.221L269.141 423.462L277.589 422.353L285.781 422.694L293.803 425.168L302.165 423.462L310.443 423.035L318.379 426.362L326.827 423.632L334.848 425.765L342.869 428.068L350.805 426.362L358.485 426.874L365.739 430.456L373.589 429.774L381.44 429.432L388.864 431.906L396.629 432.588L404.309 433.185L412.16 432.332L419.84 433.441L427.691 434.124L435.541 433.015L443.392 429.859L451.243 429.944H459.093L466.944 430.371H474.795L482.645 430.797L490.496 434.379L498.347 433.612L506.283 434.635L514.133 429.603L521.984 431.565L529.835 434.124L537.685 433.271L545.536 431.991L553.387 432.332L561.237 429.432L569.088 433.1L576.939 432.247L584.875 432.332L592.725 431.138L600.491 429.091L608.427 432.503L616.363 433.697L624.128 429.347L631.979 430.882L639.915 433.612L647.765 432.929L655.445 428.238L663.296 428.665L671.061 430.115L678.912 431.906L686.507 427.727L694.357 430.541L702.123 430.712L709.888 429.944L717.568 428.921L725.248 427.727L733.269 431.394L740.949 430.285L748.629 428.665L756.48 429.774L763.904 424.741L771.925 429.262L779.605 426.703L787.456 428.409L795.051 426.362L802.645 422.95L810.496 424.4L818.261 424.656L826.197 426.874L833.707 423.632L841.472 423.888L849.408 425.594L857.173 426.191L864.768 423.462L872.363 420.221L880.128 420.647L887.893 420.221L895.573 419.368L903.339 419.538L911.36 423.632L919.125 421.159L927.147 423.462L934.912 420.818L942.763 420.391L950.784 421.585L958.72 422.524L966.4 419.112H974.336L982.272 420.391L990.037 417.321L998.144 420.988L1005.91 417.832L1013.67 415.018L1021.7 418.259L1024 417.918V132.097Z" fill="url(#paint2_linear)"/>
<path fill-rule="evenodd" clip-rule="evenodd" d="M1024 132.097L1021.87 136.703L1015.98 141.479L1017.34 148.815L1014.02 154.529L1008.55 159.391L1005.23 165.106L995.84 167.238L991.573 172.271L987.307 176.109L982.272 179.435L976.043 178.668L969.131 176.962L960.085 176.621L956.501 170.394L950.101 166.641L945.579 161.524L942.763 155.126L935.68 151.629L926.635 152.824L919.467 153.506L911.957 156.235L903.595 157.174L899.925 163.997L889.856 163.656L884.139 168.176L883.797 176.621L875.008 179.521L872.96 187.026L862.891 188.135L858.368 195.471L848.555 195.812L840.875 191.121L830.635 191.974L824.405 187.879L819.2 183.018L811.947 180.885L805.035 181.568L796.587 179.691L790.443 183.188L785.493 187.709L777.728 189.415L773.205 194.362L766.72 197.603L762.965 202.124L763.477 209.544L756.309 212.359L748.032 213.041L740.864 209.8L733.696 207.838L725.419 207.241L720.213 202.124L711.509 202.379L706.048 197.774L698.368 196.494L692.565 192.315L684.971 190.95L680.021 185.321L671.317 185.747L664.917 182.591L659.2 178.156L652.203 175.512L644.437 173.721L638.805 169.029L630.272 168.176L625.237 162.888L616.619 162.376L611.925 155.041L601.941 158.026L594.688 155.126L586.837 153.762L579.925 157.429L572.075 157.6L565.419 160.756L557.397 161.353L550.229 163.571L544.341 167.835L538.453 172.271L531.2 174.488L523.691 175.171L516.181 175.682L510.123 180.118L502.187 177.9L494.933 180.8L488.192 177.218L481.707 175.085L474.283 173.721L467.285 171.076L458.923 172.185L451.669 169.797L444.587 171.162L437.077 172.271L433.152 178.241L426.496 180.629L418.987 182.335L413.44 186.003L406.016 186.429L397.483 186.685L391.936 180.971L382.891 181.653L375.893 180.032L368.299 179.009L360.619 178.497L353.707 175.597L347.136 173.379L339.541 171.503L337.835 164.679L331.861 161.012L324.352 159.135L317.781 159.306L310.613 159.221H301.909L298.752 167.068L287.829 165.362L283.051 172.612L274.517 174.488L266.069 176.621L258.219 177.729L250.709 173.721L243.371 172.271L235.776 171.674L227.157 173.209L219.136 172.526L212.907 168.006L204.373 168.262L199.339 161.609L191.915 159.647L185.088 156.406L175.531 159.562L168.619 156.576L161.451 153.676L153.344 155.894L145.835 150.521L138.411 156.15L130.56 153.25L123.221 155.724L115.797 157.003L107.861 156.491L101.291 160.329L93.0987 159.818L85.6747 161.268L77.9947 162.206L71.8507 166.641L64.256 167.921L57.9413 171.929L50.3467 173.209L43.008 174.915L35.84 177.218L28.2453 178.326L20.0533 178.156L13.3973 181.568H5.376L0 185.491V393.438L3.75467 392.926L11.1787 395.997L18.944 396.594L26.7093 397.191L34.2187 399.409L42.1547 399.238L50.0053 399.75L57.5147 402.565L65.9627 399.409L73.8133 399.579L81.5787 400.603L89.6853 403.162L97.8773 404.015L105.728 407.171L114.517 405.294L123.136 404.782L131.328 405.976L139.435 407.768L147.797 408.024L154.795 411.606L162.731 410.668L169.557 415.956L178.005 411.862L185.173 415.615L193.109 414.421L200.192 419.197H207.957L216.149 415.359L223.488 418.771L231.509 416.041L238.848 419.282L246.357 420.903L254.293 419.368L261.973 420.221L269.141 423.462L277.589 422.353L285.781 422.694L293.803 425.168L302.165 423.462L310.443 423.035L318.379 426.362L326.827 423.632L334.848 425.765L342.869 428.068L350.805 426.362L358.485 426.874L365.739 430.456L373.589 429.774L381.44 429.432L388.864 431.906L396.629 432.588L404.309 433.185L412.16 432.332L419.84 433.441L427.691 434.124L435.541 433.015L443.392 429.859L451.243 429.944H459.093L466.944 430.371H474.795L482.645 430.797L490.496 434.379L498.347 433.612L506.283 434.635L514.133 429.603L521.984 431.565L529.835 434.124L537.685 433.271L545.536 431.991L553.387 432.332L561.237 429.432L569.088 433.1L576.939 432.247L584.875 432.332L592.725 431.138L600.491 429.091L608.427 432.503L616.363 433.697L624.128 429.347L631.979 430.882L639.915 433.612L647.765 432.929L655.445 428.238L663.296 428.665L671.061 430.115L678.912 431.906L686.507 427.727L694.357 430.541L702.123 430.712L709.888 429.944L717.568 428.921L725.248 427.727L733.269 431.394L740.949 430.285L748.629 428.665L756.48 429.774L763.904 424.741L771.925 429.262L779.605 426.703L787.456 428.409L795.051 426.362L802.645 422.95L810.496 424.4L818.261 424.656L826.197 426.874L833.707 423.632L841.472 423.888L849.408 425.594L857.173 426.191L864.768 423.462L872.363 420.221L880.128 420.647L887.893 420.221L895.573 419.368L903.339 419.538L911.36 423.632L919.125 421.159L927.147 423.462L934.912 420.818L942.763 420.391L950.784 421.585L958.72 422.524L966.4 419.112H974.336L982.272 420.391L990.037 417.321L998.144 420.988L1005.91 417.832L1013.67 415.018L1021.7 418.259L1024 417.918V132.097Z" fill="url(#paint3_linear)"/>
<path fill-rule="evenodd" clip-rule="evenodd" d="M1024 132.097L1021.87 136.703L1015.98 141.479L1017.34 148.815L1014.02 154.529L1008.55 159.391L1005.23 165.106L995.84 167.238L991.573 172.271L987.307 176.109L982.272 179.435L976.043 178.668L969.131 176.962L960.085 176.621L956.501 170.394L950.101 166.641L945.579 161.524L942.763 155.126L935.68 151.629L926.635 152.824L919.467 153.506L911.957 156.235L903.595 157.174L899.925 163.997L889.856 163.656L884.139 168.176L883.797 176.621L875.008 179.521L872.96 187.026L862.891 188.135L858.368 195.471L848.555 195.812L840.875 191.121L830.635 191.974L824.405 187.879L819.2 183.018L811.947 180.885L805.035 181.568L796.587 179.691L790.443 183.188L785.493 187.709L777.728 189.415L773.205 194.362L766.72 197.603L762.965 202.124L763.477 209.544L756.309 212.359L748.032 213.041L740.864 209.8L733.696 207.838L725.419 207.241L720.213 202.124L711.509 202.379L706.048 197.774L698.368 196.494L692.565 192.315L684.971 190.95L680.021 185.321L671.317 185.747L664.917 182.591L659.2 178.156L652.203 175.512L644.437 173.721L638.805 169.029L630.272 168.176L625.237 162.888L616.619 162.376L611.925 155.041L601.941 158.026L594.688 155.126L586.837 153.762L579.925 157.429L572.075 157.6L565.419 160.756L557.397 161.353L550.229 163.571L544.341 167.835L538.453 172.271L531.2 174.488L523.691 175.171L516.181 175.682L510.123 180.118L502.187 177.9L494.933 180.8L488.192 177.218L481.707 175.085L474.283 173.721L467.285 171.076L458.923 172.185L451.669 169.797L444.587 171.162L437.077 172.271L433.152 178.241L426.496 180.629L418.987 182.335L413.44 186.003L406.016 186.429L397.483 186.685L391.936 180.971L382.891 181.653L375.893 180.032L368.299 179.009L360.619 178.497L353.707 175.597L347.136 173.379L339.541 171.503L337.835 164.679L331.861 161.012L324.352 159.135L317.781 159.306L310.613 159.221H301.909L298.752 167.068L287.829 165.362L283.051 172.612L274.517 174.488L266.069 176.621L258.219 177.729L250.709 173.721L243.371 172.271L235.776 171.674L227.157 173.209L219.136 172.526L212.907 168.006L204.373 168.262L199.339 161.609L191.915 159.647L185.088 156.406L175.531 159.562L168.619 156.576L161.451 153.676L153.344 155.894L145.835 150.521L138.411 156.15L130.56 153.25L123.221 155.724L115.797 157.003L107.861 156.491L101.291 160.329L93.0987 159.818L85.6747 161.268L77.9947 162.206L71.8507 166.641L64.256 167.921L57.9413 171.929L50.3467 173.209L43.008 174.915L35.84 177.218L28.2453 178.326L20.0533 178.156L13.3973 181.568H5.376L0 185.491V393.438L3.75467 392.926L11.1787 395.997L18.944 396.594L26.7093 397.191L34.2187 399.409L42.1547 399.238L50.0053 399.75L57.5147 402.565L65.9627 399.409L73.8133 399.579L81.5787 400.603L89.6853 403.162L97.8773 404.015L105.728 407.171L114.517 405.294L123.136 404.782L131.328 405.976L139.435 407.768L147.797 408.024L154.795 411.606L162.731 410.668L169.557 415.956L178.005 411.862L185.173 415.615L193.109 414.421L200.192 419.197H207.957L216.149 415.359L223.488 418.771L231.509 416.041L238.848 419.282L246.357 420.903L254.293 419.368L261.973 420.221L269.141 423.462L277.589 422.353L285.781 422.694L293.803 425.168L302.165 423.462L310.443 423.035L318.379 426.362L326.827 423.632L334.848 425.765L342.869 428.068L350.805 426.362L358.485 426.874L365.739 430.456L373.589 429.774L381.44 429.432L388.864 431.906L396.629 432.588L404.309 433.185L412.16 432.332L419.84 433.441L427.691 434.124L435.541 433.015L443.392 429.859L451.243 429.944H459.093L466.944 430.371H474.795L482.645 430.797L490.496 434.379L498.347 433.612L506.283 434.635L514.133 429.603L521.984 431.565L529.835 434.124L537.685 433.271L545.536 431.991L553.387 432.332L561.237 429.432L569.088 433.1L576.939 432.247L584.875 432.332L592.725 431.138L600.491 429.091L608.427 432.503L616.363 433.697L624.128 429.347L631.979 430.882L639.915 433.612L647.765 432.929L655.445 428.238L663.296 428.665L671.061 430.115L678.912 431.906L686.507 427.727L694.357 430.541L702.123 430.712L709.888 429.944L717.568 428.921L725.248 427.727L733.269 431.394L740.949 430.285L748.629 428.665L756.48 429.774L763.904 424.741L771.925 429.262L779.605 426.703L787.456 428.409L795.051 426.362L802.645 422.95L810.496 424.4L818.261 424.656L826.197 426.874L833.707 423.632L841.472 423.888L849.408 425.594L857.173 426.191L864.768 423.462L872.363 420.221L880.128 420.647L887.893 420.221L895.573 419.368L903.339 419.538L911.36 423.632L919.125 421.159L927.147 423.462L934.912 420.818L942.763 420.391L950.784 421.585L958.72 422.524L966.4 419.112H974.336L982.272 420.391L990.037 417.321L998.144 420.988L1005.91 417.832L1013.67 415.018L1021.7 418.259L1024 417.918V132.097Z" fill="url(#paint4_linear)"/>
<path fill-rule="evenodd" clip-rule="evenodd" d="M1024 213.382L1022.89 213.638L1016.58 211.165L1010.26 209.459L1003.09 210.568L996.096 210.738L989.781 209.203L983.552 206.559H976.555L969.472 207.156L963.243 210.141L955.989 208.947L949.163 209.544L943.616 212.53L935.595 210.312L929.365 212.018L922.965 213.979L915.968 211.165L909.056 213.809H902.229L896.597 210.141L889.173 211.932L882.603 209.544L875.861 211.165L870.059 213.127L864.597 215.003L856.064 214.747L852.139 218.671L844.715 219.524L840.021 222.765L834.219 225.324H826.112L818.859 223.532L811.605 224.3L803.755 224.471L797.013 222.935L793.173 218.671L787.371 216.453L779.776 215.685L773.803 213.553L766.208 212.53L760.576 210.056L754.688 207.327L746.752 207.668L739.328 206.644L731.051 207.156L726.357 210.824L720.981 213.468L714.325 215.43L707.584 217.306L702.208 219.694L696.576 222.168L689.323 222.509L681.045 223.191L675.925 219.779L670.805 217.05L662.955 216.282L658.347 213.212L650.667 212.871L645.291 208.947L637.611 210.227L632.405 213.212L624.64 213.894L624.555 218.33L618.069 220.462L614.571 223.618L612.693 227.115L612.352 230.953L603.221 232.659L604.672 237.18L600.917 240.335L593.067 241.444L588.032 243.662L581.803 244.771L574.976 247.585L568.747 244.6L561.323 244.856L557.397 240.677L551.168 239.397L544.939 237.947L536.661 238.288L533.333 234.365L525.739 233.938L520.96 231.294L516.181 228.565L510.891 226.347L503.125 225.921L496.555 224.641L492.8 221.144L486.485 219.609L480.683 217.732L473.088 217.818L467.797 214.832L460.629 214.747L454.656 212.444L448 211.335L441.429 209.971H434.261L426.837 211.506L420.267 209.8L413.013 211.421L406.613 208.521L399.445 209.715L392.789 207.924L385.707 209.288L378.709 210.397L371.968 206.815L364.971 208.777L358.144 206.559L351.147 209.288L344.235 209.459L337.408 206.644L330.411 209.288L323.584 206.559L316.587 208.179L309.589 209.118L302.933 206.644L296.021 206.388L288.683 209.203L281.856 208.435L274.859 208.265L267.861 207.924L262.229 205.109L257.365 202.038L248.917 203.83L243.2 202.038L237.568 199.821L230.656 200.332L223.573 198.285L216.576 200.418L209.579 201.015L203.264 202.977L196.181 203.488L189.013 204H181.504L175.616 206.985L167.339 204.427L160.853 207.582L154.027 205.962L147.541 204.853L139.605 206.9L134.4 203.062H127.317L120.149 203.147L114.261 200.588L107.264 200.759L100.437 202.635L93.3547 201.441L86.1867 201.271L78.848 200.929L72.7893 204.512L65.3653 203.83L58.7947 205.706L51.3707 205.279L43.8613 204.256L37.2053 206.303L30.208 207.327L22.9547 205.279L15.7867 206.132L8.96 204.853L2.38933 203.232L0 203.744V437.109L4.52267 435.488L10.752 438.729L17.408 440.435L25.088 437.877L31.6587 439.924L39.0827 438.729L45.568 441.203L52.5653 441.885L59.648 441.8L66.4747 442.994L73.728 441.715L80.4693 443.762L87.7227 442.653L94.5493 444.018L101.973 441.544L108.8 443.165L115.968 442.397L122.795 443.591H129.877L137.045 442.227L143.872 444.274L150.784 445.127L157.696 446.321L164.864 445.809L171.776 446.747L179.029 443.932L186.027 444.956L192.939 445.809L200.192 443.847L206.933 447.003L213.931 447.259L221.184 444.785L228.267 444.7L235.093 446.321L241.92 448.197L249.259 445.297L256.171 447.174L263.253 445.809L270.165 446.235L277.163 447.088L284.245 445.553L291.243 445.724L297.899 449.562L304.981 448.88L312.064 447.941L319.061 447.515L326.144 446.491L332.971 448.112L339.883 450.5L346.965 449.05L353.963 448.624L360.875 449.732L367.872 449.562L375.04 447.259L381.952 448.624L388.779 451.097L395.861 449.391L402.773 451.097L409.856 449.306L416.768 450.585L423.765 451.353L430.848 449.647L437.76 451.182L444.843 448.88L451.755 451.182L458.752 450.5L465.749 449.135L472.832 448.282L479.744 450.927L486.741 448.624L493.739 450.585L500.651 450.756L507.648 452.206L514.731 449.732L521.728 449.135L528.64 450.927L535.637 451.694L542.635 451.95L549.632 451.097L556.629 449.903L563.627 451.609L570.624 448.709L577.621 452.377L584.619 450.841L591.616 449.221L598.528 451.012L605.525 449.732L612.523 451.182L619.52 449.306L626.517 449.903L633.515 450.585L640.512 451.609L647.509 448.965L654.507 450.159L661.504 451.097L668.501 451.438L675.499 450.159L682.496 452.206L689.493 452.035L696.405 449.988L703.403 449.221L710.4 448.794L717.397 449.306L724.395 448.453L731.392 450.671L738.389 449.647L745.387 448.965L752.384 451.438L759.381 451.268L766.293 448.624L773.376 452.035L780.373 450.415L787.285 448.453L794.283 450.5H801.28L808.277 449.306L815.275 448.112L822.272 448.453L829.269 451.353L836.267 449.477L843.264 449.903L850.261 448.453L857.259 451.012L864.256 449.562L871.253 451.609L878.165 448.112L885.163 448.624L892.16 448.282L899.157 448.624L906.155 450.671L913.152 448.197L920.149 450.756L927.147 449.477L934.144 448.538L941.141 450.585L948.139 451.097L955.136 450.244L962.133 450.415L969.045 448.368L976.128 449.391L983.04 450.074L990.037 448.88L997.035 450.841L1004.03 450.415L1011.03 451.268L1018.03 448.027L1024 449.135V213.382Z" fill="url(#paint5_linear)"/>
<path fill-rule="evenodd" clip-rule="evenodd" d="M1024 213.382L1022.89 213.638L1016.58 211.165L1010.26 209.459L1003.09 210.568L996.096 210.738L989.781 209.203L983.552 206.559H976.555L969.472 207.156L963.243 210.141L955.989 208.947L949.163 209.544L943.616 212.53L935.595 210.312L929.365 212.018L922.965 213.979L915.968 211.165L909.056 213.809H902.229L896.597 210.141L889.173 211.932L882.603 209.544L875.861 211.165L870.059 213.127L864.597 215.003L856.064 214.747L852.139 218.671L844.715 219.524L840.021 222.765L834.219 225.324H826.112L818.859 223.532L811.605 224.3L803.755 224.471L797.013 222.935L793.173 218.671L787.371 216.453L779.776 215.685L773.803 213.553L766.208 212.53L760.576 210.056L754.688 207.327L746.752 207.668L739.328 206.644L731.051 207.156L726.357 210.824L720.981 213.468L714.325 215.43L707.584 217.306L702.208 219.694L696.576 222.168L689.323 222.509L681.045 223.191L675.925 219.779L670.805 217.05L662.955 216.282L658.347 213.212L650.667 212.871L645.291 208.947L637.611 210.227L632.405 213.212L624.64 213.894L624.555 218.33L618.069 220.462L614.571 223.618L612.693 227.115L612.352 230.953L603.221 232.659L604.672 237.18L600.917 240.335L593.067 241.444L588.032 243.662L581.803 244.771L574.976 247.585L568.747 244.6L561.323 244.856L557.397 240.677L551.168 239.397L544.939 237.947L536.661 238.288L533.333 234.365L525.739 233.938L520.96 231.294L516.181 228.565L510.891 226.347L503.125 225.921L496.555 224.641L492.8 221.144L486.485 219.609L480.683 217.732L473.088 217.818L467.797 214.832L460.629 214.747L454.656 212.444L448 211.335L441.429 209.971H434.261L426.837 211.506L420.267 209.8L413.013 211.421L406.613 208.521L399.445 209.715L392.789 207.924L385.707 209.288L378.709 210.397L371.968 206.815L364.971 208.777L358.144 206.559L351.147 209.288L344.235 209.459L337.408 206.644L330.411 209.288L323.584 206.559L316.587 208.179L309.589 209.118L302.933 206.644L296.021 206.388L288.683 209.203L281.856 208.435L274.859 208.265L267.861 207.924L262.229 205.109L257.365 202.038L248.917 203.83L243.2 202.038L237.568 199.821L230.656 200.332L223.573 198.285L216.576 200.418L209.579 201.015L203.264 202.977L196.181 203.488L189.013 204H181.504L175.616 206.985L167.339 204.427L160.853 207.582L154.027 205.962L147.541 204.853L139.605 206.9L134.4 203.062H127.317L120.149 203.147L114.261 200.588L107.264 200.759L100.437 202.635L93.3547 201.441L86.1867 201.271L78.848 200.929L72.7893 204.512L65.3653 203.83L58.7947 205.706L51.3707 205.279L43.8613 204.256L37.2053 206.303L30.208 207.327L22.9547 205.279L15.7867 206.132L8.96 204.853L2.38933 203.232L0 203.744V437.109L4.52267 435.488L10.752 438.729L17.408 440.435L25.088 437.877L31.6587 439.924L39.0827 438.729L45.568 441.203L52.5653 441.885L59.648 441.8L66.4747 442.994L73.728 441.715L80.4693 443.762L87.7227 442.653L94.5493 444.018L101.973 441.544L108.8 443.165L115.968 442.397L122.795 443.591H129.877L137.045 442.227L143.872 444.274L150.784 445.127L157.696 446.321L164.864 445.809L171.776 446.747L179.029 443.932L186.027 444.956L192.939 445.809L200.192 443.847L206.933 447.003L213.931 447.259L221.184 444.785L228.267 444.7L235.093 446.321L241.92 448.197L249.259 445.297L256.171 447.174L263.253 445.809L270.165 446.235L277.163 447.088L284.245 445.553L291.243 445.724L297.899 449.562L304.981 448.88L312.064 447.941L319.061 447.515L326.144 446.491L332.971 448.112L339.883 450.5L346.965 449.05L353.963 448.624L360.875 449.732L367.872 449.562L375.04 447.259L381.952 448.624L388.779 451.097L395.861 449.391L402.773 451.097L409.856 449.306L416.768 450.585L423.765 451.353L430.848 449.647L437.76 451.182L444.843 448.88L451.755 451.182L458.752 450.5L465.749 449.135L472.832 448.282L479.744 450.927L486.741 448.624L493.739 450.585L500.651 450.756L507.648 452.206L514.731 449.732L521.728 449.135L528.64 450.927L535.637 451.694L542.635 451.95L549.632 451.097L556.629 449.903L563.627 451.609L570.624 448.709L577.621 452.377L584.619 450.841L591.616 449.221L598.528 451.012L605.525 449.732L612.523 451.182L619.52 449.306L626.517 449.903L633.515 450.585L640.512 451.609L647.509 448.965L654.507 450.159L661.504 451.097L668.501 451.438L675.499 450.159L682.496 452.206L689.493 452.035L696.405 449.988L703.403 449.221L710.4 448.794L717.397 449.306L724.395 448.453L731.392 450.671L738.389 449.647L745.387 448.965L752.384 451.438L759.381 451.268L766.293 448.624L773.376 452.035L780.373 450.415L787.285 448.453L794.283 450.5H801.28L808.277 449.306L815.275 448.112L822.272 448.453L829.269 451.353L836.267 449.477L843.264 449.903L850.261 448.453L857.259 451.012L864.256 449.562L871.253 451.609L878.165 448.112L885.163 448.624L892.16 448.282L899.157 448.624L906.155 450.671L913.152 448.197L920.149 450.756L927.147 449.477L934.144 448.538L941.141 450.585L948.139 451.097L955.136 450.244L962.133 450.415L969.045 448.368L976.128 449.391L983.04 450.074L990.037 448.88L997.035 450.841L1004.03 450.415L1011.03 451.268L1018.03 448.027L1024 449.135V213.382Z" fill="url(#paint6_linear)"/>
<path fill-rule="evenodd" clip-rule="evenodd" d="M1024 237.521L1017.51 236.924L1010.43 236.326L1006.93 238.288L1000.7 237.435L996.267 241.7L990.635 240.25L983.211 241.103L975.787 238.374L968.533 239.909L961.365 241.785L954.027 242.894L947.712 239.141L941.653 235.474L933.803 234.535L928.085 240.165L923.051 246.135L917.76 244.429L912.64 242.553L908.459 236.241L901.205 233.341L895.488 228.735L890.539 223.276L887.467 217.476L881.408 214.576L875.776 212.7L868.608 211.506L861.525 213.297L856.576 210.738L851.2 211.762L844.459 211.591L838.741 214.662L834.133 219.353L828.245 222.082L821.589 223.191L814.933 223.021L809.045 220.376L802.645 222.765L795.648 224.3L790.869 227.712L785.408 230.185L779.264 231.379L773.12 230.612L766.464 230.185L760.064 229.162L754.091 224.897L747.093 225.153L739.925 228.991L731.733 226.944L725.504 222.168L722.688 215.429L718.848 209.544L711.168 206.815L706.048 202.209L704.256 198.371H699.307L694.528 193.679L694.869 187.282L692.907 181.653L688.555 178.156L685.227 180.8L680.277 181.909L672.768 182.591L665.088 181.397L657.408 183.444L652.373 188.988L647.083 193.253L645.888 200.418L640.085 204.341L633.088 206.388L627.968 209.288L623.189 213.041L617.899 215.941L609.28 220.803H602.112L594.005 220.718L589.056 226.688L583.083 230.697L576.597 233.341L573.013 239.226L570.539 243.747L566.699 247.841L560.725 249.206L555.093 249.035L549.632 251.594L546.987 256.626L540.416 257.65L537.429 260.977L532.309 264.132L526.763 267.032L521.557 269.932L516.523 272.747L511.488 277.182L505.344 273.344L499.712 270.529L492.288 268.994L487.509 264.388L481.365 263.791L475.221 264.815L468.821 264.132L464.213 259.953L458.837 256.115L455.595 250.997L448.171 252.447L442.368 250.741L434.944 253.215L428.8 258.844L421.888 257.65L417.195 255.774L413.184 251.679L406.955 248.268L402.773 242.638L399.531 236.071L395.435 230.015L391.168 224.982L383.829 221.229L381.781 214.235L374.357 212.018L370.005 207.071L363.264 206.729L358.741 201.953L354.304 197.432L348.587 192.315L339.883 191.803L333.141 189.074L332.459 181.824L325.376 180.118L318.891 180.374L311.979 181.141L304.555 178.412L298.155 177.388L288.683 178.582L283.136 178.924L276.395 179.094L271.275 182.165L264.533 183.871L257.536 181.653L248.149 184.638L239.104 184.382L232.533 183.103L227.669 187.794L222.464 191.291L217.088 194.788L210.859 197.944L207.019 203.062L204.288 208.862L198.997 212.785L196.949 219.097L191.232 222.509L187.051 228.309L180.821 232.403L178.005 239.141L170.411 241.871L166.144 245.538L161.792 249.206L156.331 251.424L152.149 255.688L145.493 256.2L138.752 256.285L133.547 252.191L124.928 250.656L116.651 246.306L110.165 245.794L103.68 249.974L97.792 253.385L91.2213 255.859L84.5653 257.991L80.4693 264.132L73.3013 265.668L68.352 270.274L61.7813 271.126L57.856 275.306L52.224 275.732L44.9707 275.562L37.0347 277.353L30.8907 279.826L24.6613 276.926L18.6027 275.732L12.2027 277.268L5.888 276.585L0 275.05V510.974L2.816 511.826L9.55733 512.338L16.2133 513.788L23.1253 512.253L29.696 514.471L36.5227 514.3L43.52 513.106L50.0907 514.897L56.832 515.665L63.744 514.385L70.3147 516.688L76.9707 517.968L83.8827 516.603L90.368 520.1L97.3653 518.224L104.107 518.565L110.677 521.209L117.248 522.829L124.16 520.271L130.56 523.597L137.387 521.806L143.957 523.768L150.613 523.341L157.269 523.512L164.011 523L170.496 524.791L177.237 524.962L183.723 527.094L190.464 526.582L197.035 526.924L203.605 529.482L210.347 527.606L216.917 530.335L223.659 528.971L230.229 530.421L236.971 528.288L243.541 529.653L250.197 530.165L256.853 531.615L263.509 531.274L270.165 529.738L276.821 529.653L283.563 528.971L290.133 530.25L296.789 532.638L303.445 531.103L310.101 529.994L316.757 532.468L323.413 532.041L330.069 531.018L336.64 529.909L343.381 531.785L350.037 532.979L356.693 531.018L363.435 529.312L370.176 532.382L376.917 533.235L383.573 530.591L390.315 529.482L397.056 529.909L403.797 531.444L410.453 530.591H417.195L424.021 532.553L430.592 528.715L437.419 531.785L444.16 532.126L450.816 530.591L457.557 529.397L464.299 531.785L470.955 529.482L477.696 531.018L484.437 528.8L491.179 531.188L497.92 531.956L504.576 529.312L511.317 531.188L518.059 529.568L524.8 530.079L531.456 528.288L538.283 531.103L544.853 527.606L551.595 527.35L558.336 527.265L565.163 531.359L571.819 528.715L578.56 528.885L585.301 531.018L592.043 530.335L598.699 529.482L605.44 530.847L612.096 527.862L618.837 526.838L625.579 528.629L632.32 529.568L639.061 528.544L645.803 529.653L652.459 529.738L659.2 528.032L665.941 526.924L672.683 531.018L679.339 528.203L686.08 527.35H692.821L699.563 530.25L706.304 527.521L712.96 531.529L719.701 527.691L726.528 530.932L733.269 528.374L740.096 529.397L746.837 528.715L753.664 530.335L760.405 529.397L767.232 531.871L773.973 531.785L780.8 531.444L787.541 528.544L794.368 531.018L801.109 529.056L807.851 528.459L814.677 528.374L821.504 531.188L828.245 529.653L834.987 528.118L841.728 528.203L848.555 530.25L855.381 530.847L862.123 529.909L868.949 530.847L875.691 527.265L882.517 528.629L889.259 527.35L896 528.8L902.827 531.103L909.568 527.009L916.395 529.141L923.221 530.762L929.963 529.824L936.789 530.165L943.531 531.359L950.272 530.079L957.099 531.018L963.84 531.529L970.667 527.776L977.408 531.444L984.235 531.188L990.976 531.956L997.803 529.141L1004.63 529.056L1011.37 530.591L1018.11 531.785L1024 532.382V237.521Z" fill="url(#paint7_linear)"/>
<path fill-rule="evenodd" clip-rule="evenodd" d="M1024 237.521L1017.51 236.924L1010.43 236.326L1006.93 238.288L1000.7 237.435L996.267 241.7L990.635 240.25L983.211 241.103L975.787 238.374L968.533 239.909L961.365 241.785L954.027 242.894L947.712 239.141L941.653 235.474L933.803 234.535L928.085 240.165L923.051 246.135L917.76 244.429L912.64 242.553L908.459 236.241L901.205 233.341L895.488 228.735L890.539 223.276L887.467 217.476L881.408 214.576L875.776 212.7L868.608 211.506L861.525 213.297L856.576 210.738L851.2 211.762L844.459 211.591L838.741 214.662L834.133 219.353L828.245 222.082L821.589 223.191L814.933 223.021L809.045 220.376L802.645 222.765L795.648 224.3L790.869 227.712L785.408 230.185L779.264 231.379L773.12 230.612L766.464 230.185L760.064 229.162L754.091 224.897L747.093 225.153L739.925 228.991L731.733 226.944L725.504 222.168L722.688 215.429L718.848 209.544L711.168 206.815L706.048 202.209L704.256 198.371H699.307L694.528 193.679L694.869 187.282L692.907 181.653L688.555 178.156L685.227 180.8L680.277 181.909L672.768 182.591L665.088 181.397L657.408 183.444L652.373 188.988L647.083 193.253L645.888 200.418L640.085 204.341L633.088 206.388L627.968 209.288L623.189 213.041L617.899 215.941L609.28 220.803H602.112L594.005 220.718L589.056 226.688L583.083 230.697L576.597 233.341L573.013 239.226L570.539 243.747L566.699 247.841L560.725 249.206L555.093 249.035L549.632 251.594L546.987 256.626L540.416 257.65L537.429 260.977L532.309 264.132L526.763 267.032L521.557 269.932L516.523 272.747L511.488 277.182L505.344 273.344L499.712 270.529L492.288 268.994L487.509 264.388L481.365 263.791L475.221 264.815L468.821 264.132L464.213 259.953L458.837 256.115L455.595 250.997L448.171 252.447L442.368 250.741L434.944 253.215L428.8 258.844L421.888 257.65L417.195 255.774L413.184 251.679L406.955 248.268L402.773 242.638L399.531 236.071L395.435 230.015L391.168 224.982L383.829 221.229L381.781 214.235L374.357 212.018L370.005 207.071L363.264 206.729L358.741 201.953L354.304 197.432L348.587 192.315L339.883 191.803L333.141 189.074L332.459 181.824L325.376 180.118L318.891 180.374L311.979 181.141L304.555 178.412L298.155 177.388L288.683 178.582L283.136 178.924L276.395 179.094L271.275 182.165L264.533 183.871L257.536 181.653L248.149 184.638L239.104 184.382L232.533 183.103L227.669 187.794L222.464 191.291L217.088 194.788L210.859 197.944L207.019 203.062L204.288 208.862L198.997 212.785L196.949 219.097L191.232 222.509L187.051 228.309L180.821 232.403L178.005 239.141L170.411 241.871L166.144 245.538L161.792 249.206L156.331 251.424L152.149 255.688L145.493 256.2L138.752 256.285L133.547 252.191L124.928 250.656L116.651 246.306L110.165 245.794L103.68 249.974L97.792 253.385L91.2213 255.859L84.5653 257.991L80.4693 264.132L73.3013 265.668L68.352 270.274L61.7813 271.126L57.856 275.306L52.224 275.732L44.9707 275.562L37.0347 277.353L30.8907 279.826L24.6613 276.926L18.6027 275.732L12.2027 277.268L5.888 276.585L0 275.05V510.974L2.816 511.826L9.55733 512.338L16.2133 513.788L23.1253 512.253L29.696 514.471L36.5227 514.3L43.52 513.106L50.0907 514.897L56.832 515.665L63.744 514.385L70.3147 516.688L76.9707 517.968L83.8827 516.603L90.368 520.1L97.3653 518.224L104.107 518.565L110.677 521.209L117.248 522.829L124.16 520.271L130.56 523.597L137.387 521.806L143.957 523.768L150.613 523.341L157.269 523.512L164.011 523L170.496 524.791L177.237 524.962L183.723 527.094L190.464 526.582L197.035 526.924L203.605 529.482L210.347 527.606L216.917 530.335L223.659 528.971L230.229 530.421L236.971 528.288L243.541 529.653L250.197 530.165L256.853 531.615L263.509 531.274L270.165 529.738L276.821 529.653L283.563 528.971L290.133 530.25L296.789 532.638L303.445 531.103L310.101 529.994L316.757 532.468L323.413 532.041L330.069 531.018L336.64 529.909L343.381 531.785L350.037 532.979L356.693 531.018L363.435 529.312L370.176 532.382L376.917 533.235L383.573 530.591L390.315 529.482L397.056 529.909L403.797 531.444L410.453 530.591H417.195L424.021 532.553L430.592 528.715L437.419 531.785L444.16 532.126L450.816 530.591L457.557 529.397L464.299 531.785L470.955 529.482L477.696 531.018L484.437 528.8L491.179 531.188L497.92 531.956L504.576 529.312L511.317 531.188L518.059 529.568L524.8 530.079L531.456 528.288L538.283 531.103L544.853 527.606L551.595 527.35L558.336 527.265L565.163 531.359L571.819 528.715L578.56 528.885L585.301 531.018L592.043 530.335L598.699 529.482L605.44 530.847L612.096 527.862L618.837 526.838L625.579 528.629L632.32 529.568L639.061 528.544L645.803 529.653L652.459 529.738L659.2 528.032L665.941 526.924L672.683 531.018L679.339 528.203L686.08 527.35H692.821L699.563 530.25L706.304 527.521L712.96 531.529L719.701 527.691L726.528 530.932L733.269 528.374L740.096 529.397L746.837 528.715L753.664 530.335L760.405 529.397L767.232 531.871L773.973 531.785L780.8 531.444L787.541 528.544L794.368 531.018L801.109 529.056L807.851 528.459L814.677 528.374L821.504 531.188L828.245 529.653L834.987 528.118L841.728 528.203L848.555 530.25L855.381 530.847L862.123 529.909L868.949 530.847L875.691 527.265L882.517 528.629L889.259 527.35L896 528.8L902.827 531.103L909.568 527.009L916.395 529.141L923.221 530.762L929.963 529.824L936.789 530.165L943.531 531.359L950.272 530.079L957.099 531.018L963.84 531.529L970.667 527.776L977.408 531.444L984.235 531.188L990.976 531.956L997.803 529.141L1004.63 529.056L1011.37 530.591L1018.11 531.785L1024 532.382V237.521Z" fill="url(#paint8_linear)"/>
<path fill-rule="evenodd" clip-rule="evenodd" d="M1024 237.521L1017.51 236.924L1010.43 236.326L1006.93 238.288L1000.7 237.435L996.267 241.7L990.635 240.25L983.211 241.103L975.787 238.374L968.533 239.909L961.365 241.785L954.027 242.894L947.712 239.141L941.653 235.474L933.803 234.535L928.085 240.165L923.051 246.135L917.76 244.429L912.64 242.553L908.459 236.241L901.205 233.341L895.488 228.735L890.539 223.276L887.467 217.476L881.408 214.576L875.776 212.7L868.608 211.506L861.525 213.297L856.576 210.738L851.2 211.762L844.459 211.591L838.741 214.662L834.133 219.353L828.245 222.082L821.589 223.191L814.933 223.021L809.045 220.376L802.645 222.765L795.648 224.3L790.869 227.712L785.408 230.185L779.264 231.379L773.12 230.612L766.464 230.185L760.064 229.162L754.091 224.897L747.093 225.153L739.925 228.991L731.733 226.944L725.504 222.168L722.688 215.429L718.848 209.544L711.168 206.815L706.048 202.209L704.256 198.371H699.307L694.528 193.679L694.869 187.282L692.907 181.653L688.555 178.156L685.227 180.8L680.277 181.909L672.768 182.591L665.088 181.397L657.408 183.444L652.373 188.988L647.083 193.253L645.888 200.418L640.085 204.341L633.088 206.388L627.968 209.288L623.189 213.041L617.899 215.941L609.28 220.803H602.112L594.005 220.718L589.056 226.688L583.083 230.697L576.597 233.341L573.013 239.226L570.539 243.747L566.699 247.841L560.725 249.206L555.093 249.035L549.632 251.594L546.987 256.626L540.416 257.65L537.429 260.977L532.309 264.132L526.763 267.032L521.557 269.932L516.523 272.747L511.488 277.182L505.344 273.344L499.712 270.529L492.288 268.994L487.509 264.388L481.365 263.791L475.221 264.815L468.821 264.132L464.213 259.953L458.837 256.115L455.595 250.997L448.171 252.447L442.368 250.741L434.944 253.215L428.8 258.844L421.888 257.65L417.195 255.774L413.184 251.679L406.955 248.268L402.773 242.638L399.531 236.071L395.435 230.015L391.168 224.982L383.829 221.229L381.781 214.235L374.357 212.018L370.005 207.071L363.264 206.729L358.741 201.953L354.304 197.432L348.587 192.315L339.883 191.803L333.141 189.074L332.459 181.824L325.376 180.118L318.891 180.374L311.979 181.141L304.555 178.412L298.155 177.388L288.683 178.582L283.136 178.924L276.395 179.094L271.275 182.165L264.533 183.871L257.536 181.653L248.149 184.638L239.104 184.382L232.533 183.103L227.669 187.794L222.464 191.291L217.088 194.788L210.859 197.944L207.019 203.062L204.288 208.862L198.997 212.785L196.949 219.097L191.232 222.509L187.051 228.309L180.821 232.403L178.005 239.141L170.411 241.871L166.144 245.538L161.792 249.206L156.331 251.424L152.149 255.688L145.493 256.2L138.752 256.285L133.547 252.191L124.928 250.656L116.651 246.306L110.165 245.794L103.68 249.974L97.792 253.385L91.2213 255.859L84.5653 257.991L80.4693 264.132L73.3013 265.668L68.352 270.274L61.7813 271.126L57.856 275.306L52.224 275.732L44.9707 275.562L37.0347 277.353L30.8907 279.826L24.6613 276.926L18.6027 275.732L12.2027 277.268L5.888 276.585L0 275.05V510.974L2.816 511.826L9.55733 512.338L16.2133 513.788L23.1253 512.253L29.696 514.471L36.5227 514.3L43.52 513.106L50.0907 514.897L56.832 515.665L63.744 514.385L70.3147 516.688L76.9707 517.968L83.8827 516.603L90.368 520.1L97.3653 518.224L104.107 518.565L110.677 521.209L117.248 522.829L124.16 520.271L130.56 523.597L137.387 521.806L143.957 523.768L150.613 523.341L157.269 523.512L164.011 523L170.496 524.791L177.237 524.962L183.723 527.094L190.464 526.582L197.035 526.924L203.605 529.482L210.347 527.606L216.917 530.335L223.659 528.971L230.229 530.421L236.971 528.288L243.541 529.653L250.197 530.165L256.853 531.615L263.509 531.274L270.165 529.738L276.821 529.653L283.563 528.971L290.133 530.25L296.789 532.638L303.445 531.103L310.101 529.994L316.757 532.468L323.413 532.041L330.069 531.018L336.64 529.909L343.381 531.785L350.037 532.979L356.693 531.018L363.435 529.312L370.176 532.382L376.917 533.235L383.573 530.591L390.315 529.482L397.056 529.909L403.797 531.444L410.453 530.591H417.195L424.021 532.553L430.592 528.715L437.419 531.785L444.16 532.126L450.816 530.591L457.557 529.397L464.299 531.785L470.955 529.482L477.696 531.018L484.437 528.8L491.179 531.188L497.92 531.956L504.576 529.312L511.317 531.188L518.059 529.568L524.8 530.079L531.456 528.288L538.283 531.103L544.853 527.606L551.595 527.35L558.336 527.265L565.163 531.359L571.819 528.715L578.56 528.885L585.301 531.018L592.043 530.335L598.699 529.482L605.44 530.847L612.096 527.862L618.837 526.838L625.579 528.629L632.32 529.568L639.061 528.544L645.803 529.653L652.459 529.738L659.2 528.032L665.941 526.924L672.683 531.018L679.339 528.203L686.08 527.35H692.821L699.563 530.25L706.304 527.521L712.96 531.529L719.701 527.691L726.528 530.932L733.269 528.374L740.096 529.397L746.837 528.715L753.664 530.335L760.405 529.397L767.232 531.871L773.973 531.785L780.8 531.444L787.541 528.544L794.368 531.018L801.109 529.056L807.851 528.459L814.677 528.374L821.504 531.188L828.245 529.653L834.987 528.118L841.728 528.203L848.555 530.25L855.381 530.847L862.123 529.909L868.949 530.847L875.691 527.265L882.517 528.629L889.259 527.35L896 528.8L902.827 531.103L909.568 527.009L916.395 529.141L923.221 530.762L929.963 529.824L936.789 530.165L943.531 531.359L950.272 530.079L957.099 531.018L963.84 531.529L970.667 527.776L977.408 531.444L984.235 531.188L990.976 531.956L997.803 529.141L1004.63 529.056L1011.37 530.591L1018.11 531.785L1024 532.382V237.521Z" fill="url(#paint9_linear)"/>
<path fill-rule="evenodd" clip-rule="evenodd" d="M1024 610V291.768L1021.78 291.853L1015.72 294.412L1009.41 294.753L1003.18 295.265L997.035 296.544L991.232 299.103L985.344 300.553L980.48 304.221L975.787 307.888L970.325 310.618L966.229 315.053L960.939 317.953L955.051 320.085L949.589 323.326L943.616 325.8L937.301 325.374L930.901 324.35L924.075 325.629L919.381 331.344L913.408 334.415L906.667 336.035L900.267 338.168L894.976 338.765L889.856 339.447L884.395 337.826L879.787 340.812L874.837 342.262L868.352 344.735L861.099 343.115L855.04 347.55L848.811 349.341L843.008 351.985L837.035 355.056L829.867 354.203L822.955 357.018L815.445 354.032L810.24 357.529L805.717 361.197L801.536 365.121L796.416 367.765L790.955 369.3L784.981 369.897L779.264 366.571L772.949 366.656L768.512 368.106L763.648 367.253L757.419 366.912L751.275 365.291L744.875 364.524L739.243 360.174L733.013 360.856L727.296 363.244L721.92 365.974L715.179 364.182L710.741 369.812L704.256 369.3L698.88 372.2H692.736L686.848 371.432L681.472 374.418L676.181 373.565L669.355 375.612L662.613 378.512L656.555 380.218L650.24 380.474L644.267 378.085L637.525 379.621L630.784 379.194L624.725 375.612L617.984 376.55L614.059 380.303L608.768 378.597L603.904 375.782L597.163 374.162L594.091 368.106L588.629 365.803L582.912 364.268L577.195 362.391L572.075 359.15L568.149 354.885L563.456 351.474L559.445 347.465L556.971 341.324L551.168 339.532L545.536 338.168L539.392 337.571L534.699 333.562L530.091 329.724L525.056 326.738L519.168 324.862L515.243 320.171L509.44 318.294L504.491 315.053L499.456 311.812L493.312 311.726L488.107 308.741L484.523 303.368L477.952 302.344L473.173 298.762L467.285 295.862L460.288 296.459L454.4 293.218L448.427 290.318L445.013 296.544L439.467 298.762L434.261 301.065L428.8 302.771L423.936 300.041L418.219 298.762L413.44 295.862L409.173 292.194L403.456 288.526L397.141 287.162L389.803 289.124L384 287.162L378.795 283.579L373.589 279.912L367.36 278.888L363.008 274.794L356.779 274.965L351.573 273.259H346.027L339.968 272.15L334.677 274.794L328.96 275.306L323.584 273.174L318.379 271.724L313.259 269.079L308.139 265.753L304.64 260.038L298.496 262.171L292.693 263.109L287.317 266.606L280.832 266.35L275.797 271.382L268.971 268.824L263.424 273.259L257.109 272.832L250.88 272.321L244.907 270.188L238.933 270.529L233.557 273.259L228.096 275.05L224.683 280.509L218.624 281.447L213.077 282.385L207.787 285.797L201.813 287.844L195.669 288.1L189.525 289.124L183.04 288.782L176.811 287.503L170.496 287.247L164.267 284.006L158.464 284.262L152.747 286.65L146.944 283.921L141.141 285.626H134.997L129.195 282.982L122.965 282.044L116.651 281.191L110.336 281.447L103.936 281.532L97.536 280.935L91.136 282.044L84.8213 279.144L78.848 278.632L72.8747 278.803L67.2427 280.424L61.5253 282.471L55.808 280.338L50.0053 279.997L44.032 279.741L38.9973 275.221L32.512 275.306L26.5387 273.003L20.48 270.444L16.128 264.985L10.3253 261.744L3.49867 261.488L0 261.915V610H1024Z" fill="#180C1A"/>
<path fill-rule="evenodd" clip-rule="evenodd" d="M1024 610V291.768L1021.78 291.853L1015.72 294.412L1009.41 294.753L1003.18 295.265L997.035 296.544L991.232 299.103L985.344 300.553L980.48 304.221L975.787 307.888L970.325 310.618L966.229 315.053L960.939 317.953L955.051 320.085L949.589 323.326L943.616 325.8L937.301 325.374L930.901 324.35L924.075 325.629L919.381 331.344L913.408 334.415L906.667 336.035L900.267 338.168L894.976 338.765L889.856 339.447L884.395 337.826L879.787 340.812L874.837 342.262L868.352 344.735L861.099 343.115L855.04 347.55L848.811 349.341L843.008 351.985L837.035 355.056L829.867 354.203L822.955 357.018L815.445 354.032L810.24 357.529L805.717 361.197L801.536 365.121L796.416 367.765L790.955 369.3L784.981 369.897L779.264 366.571L772.949 366.656L768.512 368.106L763.648 367.253L757.419 366.912L751.275 365.291L744.875 364.524L739.243 360.174L733.013 360.856L727.296 363.244L721.92 365.974L715.179 364.182L710.741 369.812L704.256 369.3L698.88 372.2H692.736L686.848 371.432L681.472 374.418L676.181 373.565L669.355 375.612L662.613 378.512L656.555 380.218L650.24 380.474L644.267 378.085L637.525 379.621L630.784 379.194L624.725 375.612L617.984 376.55L614.059 380.303L608.768 378.597L603.904 375.782L597.163 374.162L594.091 368.106L588.629 365.803L582.912 364.268L577.195 362.391L572.075 359.15L568.149 354.885L563.456 351.474L559.445 347.465L556.971 341.324L551.168 339.532L545.536 338.168L539.392 337.571L534.699 333.562L530.091 329.724L525.056 326.738L519.168 324.862L515.243 320.171L509.44 318.294L504.491 315.053L499.456 311.812L493.312 311.726L488.107 308.741L484.523 303.368L477.952 302.344L473.173 298.762L467.285 295.862L460.288 296.459L454.4 293.218L448.427 290.318L445.013 296.544L439.467 298.762L434.261 301.065L428.8 302.771L423.936 300.041L418.219 298.762L413.44 295.862L409.173 292.194L403.456 288.526L397.141 287.162L389.803 289.124L384 287.162L378.795 283.579L373.589 279.912L367.36 278.888L363.008 274.794L356.779 274.965L351.573 273.259H346.027L339.968 272.15L334.677 274.794L328.96 275.306L323.584 273.174L318.379 271.724L313.259 269.079L308.139 265.753L304.64 260.038L298.496 262.171L292.693 263.109L287.317 266.606L280.832 266.35L275.797 271.382L268.971 268.824L263.424 273.259L257.109 272.832L250.88 272.321L244.907 270.188L238.933 270.529L233.557 273.259L228.096 275.05L224.683 280.509L218.624 281.447L213.077 282.385L207.787 285.797L201.813 287.844L195.669 288.1L189.525 289.124L183.04 288.782L176.811 287.503L170.496 287.247L164.267 284.006L158.464 284.262L152.747 286.65L146.944 283.921L141.141 285.626H134.997L129.195 282.982L122.965 282.044L116.651 281.191L110.336 281.447L103.936 281.532L97.536 280.935L91.136 282.044L84.8213 279.144L78.848 278.632L72.8747 278.803L67.2427 280.424L61.5253 282.471L55.808 280.338L50.0053 279.997L44.032 279.741L38.9973 275.221L32.512 275.306L26.5387 273.003L20.48 270.444L16.128 264.985L10.3253 261.744L3.49867 261.488L0 261.915V610H1024Z" fill="#0D0B29"/>
<g style="mix-blend-mode:screen" filter="url(#filter0_df)">
<path fill-rule="evenodd" clip-rule="evenodd" d="M326.997 58.2323C326.997 70.041 323.494 81.5845 316.93 91.4031C310.367 101.222 301.037 108.874 290.123 113.393C279.208 117.912 267.197 119.095 255.61 116.791C244.023 114.487 233.38 108.801 225.026 100.451C216.672 92.1007 210.983 81.4621 208.678 69.8803C206.373 58.2985 207.556 46.2937 212.077 35.3838C216.598 24.474 224.255 15.1492 234.078 8.58868C243.901 2.02811 255.45 -1.47357 267.264 -1.47357C283.106 -1.47357 298.299 4.81685 309.502 16.0139C320.704 27.2109 326.997 42.3973 326.997 58.2323V58.2323Z" fill="#EF4136"/>
<path fill-rule="evenodd" clip-rule="evenodd" d="M326.997 58.2323C326.997 70.041 323.494 81.5845 316.93 91.4031C310.367 101.222 301.037 108.874 290.123 113.393C279.208 117.912 267.197 119.095 255.61 116.791C244.023 114.487 233.38 108.801 225.026 100.451C216.672 92.1007 210.983 81.4621 208.678 69.8803C206.373 58.2985 207.556 46.2937 212.077 35.3838C216.598 24.474 224.255 15.1492 234.078 8.58868C243.901 2.02811 255.45 -1.47357 267.264 -1.47357C283.106 -1.47357 298.299 4.81685 309.502 16.0139C320.704 27.2109 326.997 42.3973 326.997 58.2323V58.2323Z" fill="#E8DFAB"/>
</g>
</g>
<defs>
<filter id="filter0_df" x="187.53" y="-21.4736" width="159.467" height="159.412" filterUnits="userSpaceOnUse" color-interpolation-filters="sRGB">
<feFlood flood-opacity="0" result="BackgroundImageFix"/>
<feColorMatrix in="SourceAlpha" type="matrix" values="0 0 0 0 0 0 0 0 0 0 0 0 0 0 0 0 0 0 127 0"/>
<feOffset/>
<feGaussianBlur stdDeviation="10"/>
<feColorMatrix type="matrix" values="0 0 0 0 0.964706 0 0 0 0 0.960784 0 0 0 0 0.839216 0 0 0 0.5 0"/>
<feBlend mode="normal" in2="BackgroundImageFix" result="effect1_dropShadow"/>
<feBlend mode="normal" in="SourceGraphic" in2="effect1_dropShadow" result="shape"/>
<feGaussianBlur stdDeviation="1" result="effect2_foregroundBlur"/>
</filter>
<linearGradient id="paint0_linear" x1="512" y1="302.174" x2="512" y2="-50.0059" gradientUnits="userSpaceOnUse">
<stop stop-color="#FF6460"/>
<stop offset="0.55" stop-color="#FD5646"/>
<stop offset="1" stop-color="#FF9142"/>
</linearGradient>
<linearGradient id="paint1_linear" x1="512" y1="290" x2="512" y2="-100" gradientUnits="userSpaceOnUse">
<stop stop-color="#5950B3"/>
<stop offset="0.55" stop-color="#3D5EB7"/>
<stop offset="1" stop-color="#2C2384"/>
</linearGradient>
<linearGradient id="paint2_linear" x1="61440" y1="14006.5" x2="61440" y2="9913.16" gradientUnits="userSpaceOnUse">
<stop stop-color="#E97980"/>
<stop offset="1" stop-color="#D95153"/>
</linearGradient>
<linearGradient id="paint3_linear" x1="61440" y1="14006.5" x2="61440" y2="9913.16" gradientUnits="userSpaceOnUse">
<stop stop-color="#71C3D7"/>
<stop offset="1" stop-color="#4692B0"/>
</linearGradient>
<linearGradient id="paint4_linear" x1="61440" y1="14006.5" x2="61440" y2="9913.16" gradientUnits="userSpaceOnUse">
<stop stop-color="#4C6FB4"/>
<stop offset="1" stop-color="#577DC7"/>
</linearGradient>
<linearGradient id="paint5_linear" x1="512" y1="334.671" x2="512" y2="215.685" gradientUnits="userSpaceOnUse">
<stop stop-color="#C67085"/>
<stop offset="1" stop-color="#AE4553"/>
</linearGradient>
<linearGradient id="paint6_linear" x1="512" y1="334.671" x2="512" y2="215.685" gradientUnits="userSpaceOnUse">
<stop stop-color="#424DA8"/>
<stop offset="1" stop-color="#424989"/>
</linearGradient>
<linearGradient id="paint7_linear" x1="502.022" y1="548.153" x2="526.625" y2="164.869" gradientUnits="userSpaceOnUse">
<stop stop-color="#573253"/>
<stop offset="1" stop-color="#5A303E"/>
</linearGradient>
<linearGradient id="paint8_linear" x1="502.022" y1="548.153" x2="526.625" y2="164.869" gradientUnits="userSpaceOnUse">
<stop stop-color="#204661"/>
<stop offset="1" stop-color="#1E3B57"/>
</linearGradient>
<linearGradient id="paint9_linear" x1="502.022" y1="548.153" x2="509.841" y2="176.955" gradientUnits="userSpaceOnUse">
<stop stop-color="#1D1247"/>
<stop offset="1" stop-color="#1F1D6C"/>
</linearGradient>
<clipPath id="clip0">
<rect width="1024" height="439" fill="white" transform="translate(0 -1)"/>
</clipPath>
</defs>
</svg>
