<svg width="1440" height="578" viewBox="0 0 1440 578" fill="none" xmlns="http://www.w3.org/2000/svg">
<g clip-path="url(#clip0)">
<path d="M1447.95 -213.762H-28.125V525.265H1447.95V-213.762Z" fill="url(#paint0_linear)"/>
<path fill-rule="evenodd" clip-rule="evenodd" d="M1447.95 148.008L1447.71 148.623L1439.21 155.507L1441.18 166.078L1436.26 174.314L1428.51 181.198L1423.59 189.557L1410.06 192.63L1404.03 199.882L1397.76 205.291L1390.63 210.209L1381.52 209.102L1371.56 206.644L1358.52 206.03L1353.35 197.056L1344.13 191.647L1337.61 184.395L1333.55 175.175L1323.34 170.135L1310.3 171.856L1299.97 172.839L1289.14 176.773L1277.09 178.125L1271.92 187.96L1257.29 187.467L1249.05 193.983L1248.55 206.152L1235.88 210.331L1232.93 221.027L1218.42 222.747L1211.9 233.196L1197.75 233.81L1186.56 227.05L1171.92 228.279L1162.82 222.378L1155.44 215.248L1144.98 212.299L1135.02 213.282L1122.72 210.578L1113.98 215.618L1106.85 222.132L1095.53 224.59L1089.14 231.598L1079.67 236.268L1074.25 242.906L1074.99 253.601L1064.78 257.535L1052.73 258.642L1042.4 253.97L1032.06 251.143L1020.13 250.159L1012.63 242.784L1000.2 243.276L992.209 236.514L981.262 234.793L972.773 228.77L961.826 226.804L954.692 218.691L942.269 219.305L932.92 214.757L924.678 208.364L914.593 204.431L903.399 201.972L895.281 195.212L882.98 193.983L875.723 186.361L863.298 185.624L856.533 175.052L842.141 179.354L831.686 175.175L820.246 173.208L810.406 178.494L799.09 178.74L789.495 183.288L777.933 184.148L767.6 187.221L759.112 193.491L750.625 199.882L740.17 202.955L729.346 204.062L718.398 204.8L709.664 211.068L698.224 207.873L687.892 212.175L678.052 207.013L668.703 203.94L658.001 201.972L647.916 198.039L635.861 199.76L625.406 196.317L615.196 198.285L604.371 199.882L598.712 208.364L589.119 211.929L578.294 214.387L570.299 219.674L559.598 220.166L547.297 220.657L539.301 212.421L526.262 213.282L516.177 211.068L505.229 209.595L494.158 208.856L484.194 204.677L474.723 201.481L463.776 198.777L461.192 188.943L452.706 183.656L441.88 180.952L432.409 181.198L422.076 181.076H409.53L404.855 192.384L389.235 189.926L382.345 200.375L370.045 203.079L357.868 206.152L346.551 207.749L335.603 201.972L325.025 199.882L314.077 199.022L301.777 201.235L290.215 200.129L281.235 193.737L268.934 194.105L261.676 184.517L250.853 181.69L241.012 177.019L227.235 181.566L217.271 177.387L206.94 173.085L195.254 176.281L184.552 168.537L173.728 176.65L162.411 172.47L151.833 176.035L141.254 177.879L129.692 177.142L120.097 182.673L108.412 181.936L97.71 184.025L86.6395 185.378L77.7831 191.769L66.8355 193.613L57.6101 199.392L46.7857 201.235L36.0841 203.57L25.8746 207.013L14.804 208.61L3.1185 208.364L-6.59897 213.282H-18.1616L-27.1409 219.92L-28.125 220.042V518.874L-20.3756 517.645L-9.67411 522.193L1.51943 523.053L12.713 523.914L23.5375 526.987L34.9771 526.864L46.2936 527.601L57.1181 531.659L69.2956 527.111L80.6122 527.233L91.8058 528.831L103.491 532.519L115.3 533.625L126.616 538.173L139.286 535.592L151.709 534.731L163.519 536.453L175.203 539.157L187.381 539.402L197.345 544.566L208.907 543.337L218.625 550.958L230.802 544.934L241.135 550.465L252.574 548.622L262.785 555.506H273.977L285.787 550.097L296.364 554.891L307.927 551.08L318.506 555.628L329.453 557.964L340.893 555.874L351.84 557.103L362.296 561.775L374.473 560.054L386.281 560.546L397.845 564.111L409.899 561.651L421.83 561.037L433.27 565.831L445.448 561.897L457.01 564.97L468.572 568.291L480.012 565.831L491.082 566.692L501.539 571.854L512.855 570.749L524.171 570.257L534.873 573.822L546.067 574.805L557.137 575.665L568.454 574.559L579.648 576.158L590.84 577.141L602.158 575.419L613.474 570.995H624.79L636.107 571.117L647.423 571.61H658.863L670.179 572.224L681.495 577.387L692.813 576.28L704.129 577.755L715.445 570.625L726.763 573.33L738.201 577.018L749.519 575.912L760.835 573.944L772.151 574.436L783.468 570.379L794.784 575.543L806.1 574.436H817.54L828.856 572.839L840.05 569.764L851.49 574.805L862.93 576.526L874.124 570.134L885.44 572.346L896.88 576.28L908.196 575.419L919.389 568.535L930.583 569.15L941.777 571.24L953.093 573.822L964.041 567.798L975.357 571.978L986.674 572.1L997.744 571.117L1008.94 569.642L1020.01 567.798L1031.45 573.085L1042.52 571.486L1053.59 569.15L1064.91 570.871L1075.73 563.497L1087.29 570.134L1098.24 566.446L1109.56 568.905L1120.63 565.831L1131.45 560.914L1142.77 563.004L1154.08 563.497L1165.4 566.692L1176.35 561.897L1187.54 562.39L1198.98 564.726L1210.18 565.586L1221.12 561.775L1231.95 556.981L1243.26 557.718L1254.46 557.103L1265.53 555.874L1276.72 555.998L1288.28 561.897L1299.48 558.332L1311.16 561.651L1322.23 557.842L1333.67 557.349L1345.11 559.071L1356.55 560.422L1367.75 555.383L1379.19 555.506L1390.63 557.349L1401.82 552.801L1413.38 558.21L1424.57 553.538L1435.77 549.482L1447.45 554.154H1447.95V148.008Z" fill="url(#paint1_linear)"/>
<path fill-rule="evenodd" clip-rule="evenodd" d="M1447.95 272.9L1444.01 271.794L1433.56 273.393L1423.46 273.637L1414.36 271.425L1405.39 267.614H1395.42L1385.09 268.475L1376.11 272.777L1365.65 271.057L1355.94 271.917L1347.82 276.219L1336.26 273.023L1327.28 275.481L1318.05 278.309L1307.96 274.252L1298 278.063H1288.04L1280.04 272.777L1269.34 275.359L1259.87 271.917L1250.03 274.252L1241.79 277.08L1233.92 279.784L1221.49 279.416L1215.96 284.947L1205.25 286.298L1198.49 290.848L1190 294.535L1178.32 294.658L1167.86 292.077L1157.53 293.182L1146.21 293.428L1136.37 291.216L1130.84 285.069L1122.6 281.874L1111.65 280.767L1102.91 277.571L1091.97 276.219L1083.85 272.654L1075.36 268.721L1063.92 269.089L1053.22 267.738L1041.29 268.475L1034.52 273.761L1026.77 277.571L1017.18 280.399L1007.46 283.103L999.712 286.545L991.471 290.11L981.138 290.602L969.207 291.585L961.826 286.545L954.323 282.735L943.13 281.506L936.487 277.08L925.417 276.712L917.667 271.057L906.597 272.9L899.093 277.202L887.899 278.185L887.655 284.578L878.428 287.651L873.262 292.077L870.68 297.24L870.187 302.771L857.025 305.229L858.994 311.622L853.581 316.293L842.387 317.892L835.13 320.964L826.151 322.562L816.31 326.619L807.331 322.316L796.629 322.808L790.848 316.785L781.869 314.941L773.013 312.851L761.081 313.342L756.16 307.689L745.336 307.074L738.325 303.139L731.437 299.329L723.81 296.133L712.617 295.518L703.145 293.675L697.856 288.512L688.631 286.422L680.266 283.718L669.319 283.84L661.815 279.538L651.36 279.292L642.749 276.096L633.154 274.498L623.683 272.532H613.351L602.526 274.744L593.177 272.286L582.722 274.622L573.497 270.442L563.164 272.162L553.447 269.581L543.361 271.547L533.274 273.146L523.557 267.86L513.47 270.811L503.63 267.614L493.543 271.547L483.58 271.671L473.739 267.738L463.652 271.547L453.812 267.614L443.725 269.95L433.64 271.303L423.921 267.738L414.082 267.246L403.502 271.425L393.539 270.318L383.576 269.95L373.366 269.458L365.37 265.402L358.359 261.1L346.182 263.68L337.94 261.1L329.7 257.781L319.736 258.64L309.525 255.567L299.44 258.764L289.353 259.625L280.25 262.451L270.041 263.19L259.831 263.927L249.008 263.804L240.397 268.229L228.465 264.541L219.116 268.967L209.277 266.753L199.804 265.033L188.488 268.106L180.984 262.575L170.775 262.451L160.443 262.697L151.955 259.01L141.746 259.255L132.029 261.837L121.819 260.239L111.364 259.993L100.785 259.501L92.1748 264.541L81.4732 263.68L72.0018 266.385L61.3003 265.648L50.4758 264.295L40.8814 267.123L30.6719 268.598L20.3393 265.77L10.0068 266.999L0.0433499 265.156L-9.3051 262.82L-20.2527 265.156L-28.125 264.787V600.865H-28.002L-17.7924 601.48L-6.35296 597.423L2.62647 601.971L12.2209 604.43L23.4145 600.865L32.8859 603.816L43.4644 601.971L52.9359 605.66L62.8993 606.643L73.1088 606.397L83.0724 608.118L93.5279 606.274L103.245 609.223L113.701 607.749L123.541 609.593L134.243 606.028L144.083 608.364L154.292 607.257L164.256 608.979H174.465L184.798 607.135L194.639 610.084L204.602 611.191L214.566 612.912L224.899 612.174L234.862 613.527L245.44 609.593L255.403 610.945L265.366 612.297L275.822 609.347L285.54 613.895L295.626 614.264L306.082 610.822L316.291 610.698L326.132 612.912L336.095 615.616L346.674 611.559L356.514 614.141L366.723 612.297L376.81 612.788L386.774 614.017L396.983 611.928L407.07 612.051L416.787 617.582L426.874 616.722L437.084 615.37L447.293 614.632L457.379 613.28L467.343 615.493L477.183 618.935L487.392 616.846L497.602 616.353L507.566 617.829L517.652 617.582L527.861 614.387L537.948 616.231L547.789 619.796L557.999 617.336L567.962 619.918L578.171 617.214L588.135 619.058L598.222 620.287L608.431 617.829L618.394 619.918L628.604 616.599L638.567 620.041L648.654 618.935L658.74 617.092L668.949 615.862L678.912 619.672L688.999 616.231L699.086 619.058L709.172 619.426L719.259 621.394L729.346 617.952L739.432 616.968L749.519 619.55L759.482 620.655L769.567 621.147L779.655 619.918L789.864 618.197L799.827 620.655L810.037 616.477L820.001 621.762L830.087 619.426L840.174 617.214L850.26 619.796L860.347 617.829L870.434 619.918L880.519 617.336L890.606 618.075L900.692 619.058L910.779 620.533L920.866 616.846L930.952 618.443L941.039 619.796L951.124 620.287L961.211 618.567L971.298 621.394L981.384 621.271L991.471 618.197L1001.43 617.092L1011.52 616.477L1021.61 617.214L1031.69 616.107L1041.78 619.304L1051.87 617.706L1061.95 616.722L1072.04 620.287L1082.13 620.041L1092.21 616.231L1102.3 621.271L1112.39 618.812L1122.35 615.985L1132.56 619.058H1142.65L1152.73 617.336L1162.69 615.616L1172.78 615.985L1182.99 620.287L1192.95 617.46L1203.04 618.197L1213.13 615.985L1223.34 619.796L1233.3 617.706L1243.51 620.655L1253.47 615.493L1263.56 616.353L1273.65 615.862L1283.73 616.353L1293.82 619.181L1303.91 615.739L1313.99 619.304L1324.08 617.582L1334.17 616.231L1344.25 619.058L1354.34 619.796L1364.43 618.567L1374.51 618.812L1384.47 615.862L1394.68 617.336L1404.65 618.321L1414.86 616.722L1424.94 619.426L1434.91 618.935L1444.99 620.041L1447.95 618.689V272.9Z" fill="url(#paint2_linear)"/>
<path fill-rule="evenodd" clip-rule="evenodd" d="M1447.95 228.77L1446.83 227.909L1444.5 219.673L1440.56 211.805L1439.58 202.833L1433.56 195.456L1428.26 188.696L1422.24 189.802L1416.46 196.686L1409.2 205.291L1406.38 212.543L1398.99 217.214L1395.05 223.852L1390.26 231.965L1384.11 239.219L1377.59 246.225L1371.93 253.723L1365.65 261.098L1360.98 269.089L1357.04 277.694L1348.56 283.84L1344.01 290.724L1340.32 298.468L1335.64 306.212L1328.88 311.867L1320.39 318.136L1308.83 321.333L1303.54 330.429L1298 336.206L1295.54 344.811L1285.58 343.214L1279.8 337.803L1271.43 335.1L1260.24 336.698L1252.86 330.06L1245.72 322.808L1235.51 320.84L1230.23 325.388L1225.55 331.78L1215.71 332.272L1205.99 337.927L1193.81 337.435L1182.74 333.994L1175 326.864L1167 319.98L1157.41 316.784L1146.83 315.185L1139.82 320.103L1130.96 323.052L1127.39 331.412L1121 336.452L1114.11 341.861L1108.7 347.515L1099.47 350.834L1091.84 343.582L1083.11 336.82L1079.54 327.478L1073.15 320.594L1062.57 320.963L1058.14 316.661L1049.28 311.867L1043.75 305.843L1037.6 300.558L1030.22 302.893L1021.36 305.843L1016.32 313.71L1013.49 322.562L1008.2 329.814L1002.42 336.698L995.285 343.214L989.994 350.834L990.364 360.423L987.165 368.658L982.983 376.525L976.833 384.147V393.244L972.527 401.357L972.897 410.33L967.731 418.444L966.87 428.646L963.18 437.865L953.585 444.995L944.36 439.34L941.161 430.736L932.92 426.433L927.385 418.69L919.021 414.632L910.533 410.821L903.399 405.413L892.697 401.357L881.996 401.479L867.973 401.725L857.517 396.809L850.629 387.711L838.697 388.203L828.856 388.081L818.893 387.957L809.792 391.154L799.581 393.736L790.602 388.818L780.885 388.081L773.135 388.203L760.958 392.997L750.625 394.35L743.491 387.711L737.218 381.073L728.484 378.369L719.751 379.23L710.034 373.575L702.899 365.462L693.796 360.054L687.032 352.556L681.619 344.319L673.623 337.927L665.013 333.748L655.91 338.05L646.685 340.139L638.445 334.362L627.373 330.921L623.069 321.823L616.672 316.292L610.89 310.023L607.077 302.402L602.895 295.394L591.332 296.01L582.6 302.648L574.481 309.654L564.764 312.359L557.875 318.874L550.371 327.11L544.96 336.82L536.595 333.133L527.369 333.994L519.251 333.625L508.181 330.921L498.464 326.127L489.361 322.193L479.152 325.881L469.065 321.701L458.855 311.744L443.971 315.309L436.838 309.408L429.826 304L420.477 299.451L417.157 290.6L409.776 283.594L400.797 277.939L395.754 268.843L389.111 262.205L377.056 260.115L372.382 268.228L365.494 272.408L357.498 275.604L348.396 279.906L341.262 287.281L330.806 289.495L324.287 297.362L314.816 300.188L308.296 306.582L298.825 309.9L292.552 316.661L287.754 324.651L277.298 327.478L269.918 333.011L263.645 339.648L255.281 344.443L242.242 347.515L234 354.03L226.374 359.316L219.855 358.948L213.459 353.661L204.232 350.466L197.099 345.18L188.734 341.861L180.616 338.05L170.529 338.173L164.133 331.043L155.154 326.003L144.207 323.791L136.457 316.538L124.894 315.555L115.3 311.867L103.614 306.089L99.1861 299.574L89.7147 299.944L80.4893 298.959L71.0177 302.402L60.5623 304.86L52.1979 311.498L40.8814 308.302L31.7789 312.727L24.5215 306.582L14.5581 307.811L5.57861 302.77L-4.26185 298.345L-14.2253 302.402L-21.8517 307.687L-28.125 311.13V694.656L-20.4986 700.311L-10.6582 702.278L-0.571681 702.524L7.79272 708.055L17.0182 710.637L28.0887 712.111L37.0682 717.766L48.2617 718.75L57.1181 722.806L66.0975 726.494L75.815 727.969L84.0563 733.746L93.4048 736.206L103.245 737.557L112.348 741.245L121.819 743.58L132.029 744.687L141.5 748.252L152.817 747.392L161.55 752.677L171.637 754.766L180.862 758.7L191.44 758.946L201.035 761.896L210.876 766.198L221.577 763.372L232.033 764.355L242.734 766.322L253.19 766.198L263.521 764.723L273.608 763.494L283.572 766.322L293.535 762.511L303.498 766.322L313.585 762.757L323.549 761.16L333.512 761.65L343.475 763.003L353.44 762.389L363.525 761.282L373.489 760.79L383.452 762.265L393.417 761.036L403.38 765.584L413.466 763.618L423.429 765.093L433.394 765.215L443.357 763.249L453.442 763.372L463.407 761.16L473.37 764.355L483.334 763.003L493.297 764.723L503.384 763.74L513.347 764.969L523.311 763.864L533.274 766.568L543.237 765.339L553.324 765.83L563.287 764.847L573.251 761.404L583.214 766.937L593.301 762.757L603.264 764.847L613.228 762.265L623.191 763.003L633.154 762.511L643.241 764.601H653.205H663.168L673.131 766.198L683.096 763.74L693.059 763.003L703.145 761.896L713.108 763.126L723.073 766.813L733.036 764.723L743.122 765.954L753.085 763.864L763.049 764.478L773.013 762.389L782.976 767.059L793.062 763.249L803.026 761.282L812.99 762.757L822.953 762.265L832.916 762.635L843.003 765.215L852.967 762.019L862.93 765.584L872.893 761.16L882.856 760.913H892.697L902.907 764.109L912.748 762.757H922.711L932.674 762.265L942.391 759.684L952.601 761.528L962.564 760.299L972.527 760.053L982.122 756.488L992.209 756.98L1001.8 753.906L1012.01 755.136L1021.48 751.079L1031.45 750.711L1041.04 747.514L1051.62 751.817L1061.58 750.833L1070.81 745.178L1081.14 747.145L1090.86 746.285L1100.58 746.409L1110.29 745.302L1119.89 742.351L1129.85 742.966L1139.69 744.933L1149.41 742.597L1159.13 739.893H1168.97L1178.69 744.563L1188.53 741.491L1198.24 743.334L1208.08 742.351L1217.8 745.302L1227.64 745.793L1237.36 744.563L1247.2 745.056L1257.04 741.859L1267.25 744.441H1277.46L1287.67 744.073L1297.88 746.039L1308.21 744.81L1318.42 741.983L1328.63 746.777L1338.84 744.441L1349.17 743.334L1359.38 744.933L1369.47 746.899L1379.8 744.441L1390.13 744.687L1400.1 748.867L1410.55 745.302L1420.76 747.023L1430.97 747.268L1441.31 745.916L1447.95 748.375V228.77Z" fill="url(#paint3_linear)"/>
<path fill-rule="evenodd" clip-rule="evenodd" d="M15.173 768.992C26.2436 804.026 35.469 840.042 47.4006 874.83H1447.95V440.904C1445.88 441.492 1443.87 442.232 1441.91 443.117C1427.4 450.543 1413.91 459.842 1401.82 470.775C1388.53 481.592 1377.22 478.519 1362.58 481.346C1347.94 484.174 1337.24 497.818 1321.87 499.908C1317.31 499.908 1312.52 499.171 1307.96 499.908C1301.15 501.047 1294.47 502.902 1288.04 505.441C1276.6 509.25 1263.44 509.865 1252.98 514.045C1245.41 518.47 1237.41 522.135 1229.12 524.986C1222.97 526.215 1216.82 524.986 1210.3 526.337C1194.68 529.902 1188.28 549.325 1169.83 544.407C1164.72 541.964 1159.14 540.664 1153.47 540.597C1149.16 540.597 1145.47 542.195 1141.17 542.686C1129.61 544.285 1120.26 535.433 1108.57 534.45C1084.96 532.361 1063.06 550.43 1039.57 550.799C1034.89 550.799 1030.09 550.799 1025.42 550.799C1017.67 551.537 1014.97 555.471 1007.59 558.667C996.885 562.228 985.319 562.228 974.618 558.667C966.466 555.054 957.369 554.15 948.665 556.085C943.376 557.929 942.145 561.74 936.364 560.387C931.366 557.579 926.774 554.105 922.711 550.062C911.763 541.334 899.709 537.769 889.376 528.919C877.075 517.487 869.079 504.334 853.213 499.662C829.472 492.778 813.85 472.004 791.709 462.785C786.597 461.822 781.74 459.812 777.441 456.884C771.24 451.539 764.475 446.881 757.267 442.994C749.641 439.798 740.662 437.093 732.666 434.389C717.782 429.472 713.6 450.124 698.594 448.771C689.123 448.034 681.619 436.479 672.639 433.898C663.66 431.316 656.156 430.209 648.038 426.768C637.829 422.588 627.619 419.392 617.534 414.475C609.228 408.625 599.278 405.569 589.119 405.748C575.096 408.084 565.625 413.124 552.217 405.748C545.82 402.306 539.916 391.857 533.888 389.644C527.861 387.432 524.171 391.734 519.497 393.455C499.469 402.372 477.501 406.053 455.657 404.15C438.436 402.306 429.948 416.443 414.45 422.22C404.024 425.007 393.261 426.331 382.469 426.153C371.521 426.153 360.574 424.064 349.134 424.064C336.437 425.487 323.591 424.779 311.126 421.974C291.075 414.598 265.612 417.794 244.087 415.828C231.787 414.721 218.502 420.006 205.463 418.04C197.837 416.811 190.457 412.878 183.199 411.771C166.224 409.313 154.416 393.701 136.457 389.89C125.409 389.363 114.485 387.336 103.983 383.867C90.631 376.523 75.8756 372.082 60.6853 370.837C53.1211 371.637 45.4933 371.637 37.9291 370.837C33.4666 369.332 28.9042 368.141 24.2755 367.272C13.451 366.289 2.13445 368.501 -8.69006 367.272C-15.5213 365.932 -22.0867 363.482 -28.125 360.02V605.01C-26.0339 614.228 -23.9428 623.448 -22.0977 632.791C-12.2754 678.862 0.168425 724.337 15.173 768.992Z" fill="url(#paint4_linear)"/>
<path style="mix-blend-mode:screen" opacity="0.2" d="M1448.44 -19.6885H-28.125V617.377H1448.44V-19.6885Z" fill="url(#paint5_linear)"/>
</g>
<defs>
<linearGradient id="paint0_linear" x1="709.91" y1="525.265" x2="709.91" y2="-216.835" gradientUnits="userSpaceOnUse">
<stop offset="0.08" stop-color="#D2DFE9"/>
<stop offset="0.43" stop-color="#D9EAE8"/>
<stop offset="0.62" stop-color="#E7F1F4"/>
<stop offset="0.76" stop-color="#DDE7EC"/>
<stop offset="0.88" stop-color="#D3E2ED"/>
<stop offset="0.99" stop-color="#B8D7F6"/>
<stop offset="1" stop-color="#D7E9FA"/>
</linearGradient>
<linearGradient id="paint1_linear" x1="709.91" y1="449.421" x2="709.91" y2="183.042" gradientUnits="userSpaceOnUse">
<stop offset="0.08" stop-color="#BFD5D9"/>
<stop offset="0.47" stop-color="#B4CACD"/>
<stop offset="0.68" stop-color="#ACC4CA"/>
<stop offset="0.84" stop-color="#99B6BA"/>
<stop offset="0.97" stop-color="#91B0B5"/>
</linearGradient>
<linearGradient id="paint2_linear" x1="709.91" y1="621.762" x2="709.91" y2="255.567" gradientUnits="userSpaceOnUse">
<stop offset="0.4" stop-color="#ACBEC1"/>
<stop offset="0.65" stop-color="#A0BDC2"/>
<stop offset="0.84375" stop-color="#97B0B5"/>
<stop offset="0.98" stop-color="#87A6AB"/>
</linearGradient>
<linearGradient id="paint3_linear" x1="709.91" y1="767.059" x2="709.91" y2="188.696" gradientUnits="userSpaceOnUse">
<stop offset="0.234375" stop-color="#304F54"/>
<stop offset="0.540945" stop-color="#5F8288"/>
<stop offset="0.744792" stop-color="#7F9A9F"/>
<stop offset="1" stop-color="#7BA7B3"/>
</linearGradient>
<linearGradient id="paint4_linear" x1="709.91" y1="1009.43" x2="709.91" y2="344.55" gradientUnits="userSpaceOnUse">
<stop offset="0.598958" stop-color="#354B4E"/>
<stop offset="1" stop-color="#637C82"/>
</linearGradient>
<linearGradient id="paint5_linear" x1="710.156" y1="715.117" x2="710.156" y2="-66.8004" gradientUnits="userSpaceOnUse">
<stop offset="0.05"/>
<stop offset="0.12" stop-color="#2F3C3A"/>
<stop offset="0.22" stop-color="#3A4746"/>
<stop offset="0.33" stop-color="#748986"/>
<stop offset="0.45" stop-color="#A2CAC5"/>
<stop offset="0.55" stop-color="#D3FFFA"/>
<stop offset="0.61" stop-color="#ABD2CD"/>
<stop offset="0.69" stop-color="#5F8984"/>
<stop offset="0.76" stop-color="#4E5E5C"/>
<stop offset="0.84" stop-color="#313F3D"/>
<stop offset="0.927083" stop-color="#1B2221"/>
<stop offset="1" stop-color="#050606"/>
</linearGradient>
<clipPath id="clip0">
<rect width="1440" height="578" fill="white"/>
</clipPath>
</defs>
</svg>
