<svg width="1024" height="411" viewBox="0 0 1024 411" fill="none" xmlns="http://www.w3.org/2000/svg">
<g clip-path="url(#clip0)">
<path d="M1029.65 -152H-20V373.502H1029.65V-152Z" fill="url(#paint0_linear)"/>
<path fill-rule="evenodd" clip-rule="evenodd" d="M1029.65 105.245L1029.48 105.682L1023.44 110.577L1024.84 118.094L1021.34 123.95L1015.83 128.845L1012.33 134.789L1002.71 136.974L998.423 142.131L993.962 145.977L988.889 149.474L982.416 148.687L975.331 146.939L966.059 146.502L962.385 140.121L955.825 136.275L951.189 131.118L948.302 124.562L941.042 120.978L931.77 122.202L924.423 122.901L916.725 125.698L908.153 126.66L904.479 133.653L894.07 133.303L888.21 137.936L887.86 146.589L878.851 149.561L876.751 157.166L866.43 158.389L861.794 165.819L851.735 166.256L843.775 161.449L833.366 162.323L826.893 158.127L821.645 153.057L814.21 150.96L807.124 151.659L798.377 149.736L792.167 153.32L787.094 157.952L779.046 159.7L774.498 164.683L767.763 168.004L763.914 172.724L764.439 180.329L757.179 183.126L748.606 183.913L741.259 180.591L733.911 178.581L725.427 177.881L720.091 172.637L711.256 172.987L705.571 168.179L697.786 166.955L691.75 162.672L683.965 161.274L678.892 155.505L670.058 155.942L663.41 152.708L657.549 148.162L650.377 145.365L642.417 143.617L636.644 138.81L627.897 137.936L622.736 132.516L613.901 131.992L609.09 124.475L598.856 127.534L591.421 124.562L583.286 123.163L576.289 126.922L568.242 127.097L561.419 130.331L553.197 130.943L545.849 133.128L539.813 137.586L533.778 142.131L526.343 144.316L518.646 145.103L510.861 145.628L504.65 150.085L496.515 147.813L489.168 150.872L482.17 147.201L475.522 145.016L467.912 143.617L460.74 140.82L452.168 142.044L444.733 139.596L437.473 140.995L429.775 142.131L425.751 148.162L418.929 150.697L411.231 152.445L405.546 156.204L397.936 156.554L389.189 156.903L383.503 151.047L374.231 151.659L367.059 150.085L359.274 149.037L351.401 148.512L344.316 145.54L337.581 143.268L329.796 141.345L327.959 134.352L321.924 130.593L314.226 128.67L307.491 128.845L300.143 128.758H291.221L287.897 136.799L276.789 135.051L271.89 142.481L263.143 144.404L254.484 146.589L246.436 147.725L238.651 143.617L231.129 142.131L223.344 141.519L214.597 143.093L206.375 142.306L199.989 137.761L191.242 138.023L186.081 131.205L178.384 129.195L171.386 125.873L161.589 129.107L154.504 126.135L147.157 123.076L138.847 125.349L131.237 119.842L123.54 125.611L115.492 122.639L107.97 125.174L100.447 126.485L92.2251 125.961L85.4024 129.894L77.0927 129.37L69.4827 130.855L61.6103 131.817L55.3124 136.362L47.5275 137.673L40.9672 141.782L33.2698 143.093L25.6598 144.753L18.3997 147.201L10.5273 148.337L2.2176 148.162L-4.6926 151.659H-12.9149L-19.3002 156.379L-20 156.466V368.957L-14.4893 368.083L-6.87937 371.317L1.08048 371.929L9.04032 372.541L16.7378 374.726L24.8726 374.639L32.9199 375.163L40.6173 378.048L49.2769 374.814L57.3242 374.901L65.2841 376.037L73.5938 378.66L81.991 379.446L90.0383 382.68L99.0478 380.845L107.882 380.233L116.28 381.457L124.589 383.38L133.249 383.554L140.334 387.226L148.556 386.352L155.467 391.771L164.126 387.488L171.474 391.421L179.608 390.11L186.869 395.005H194.828L203.226 391.159L210.748 394.568L218.97 391.858L226.493 395.092L234.278 396.753L242.413 395.267L250.197 396.141L257.633 399.463L266.292 398.239L274.689 398.589L282.912 401.124L291.484 399.375L299.968 398.938L308.103 402.347L316.763 399.55L324.985 401.735L333.207 404.096L341.342 402.347L349.214 402.959L356.65 406.63L364.697 405.844L372.744 405.494L380.354 408.029L388.314 408.728L396.186 409.34L404.234 408.553L412.194 409.69L420.153 410.389L428.201 409.165L436.248 406.019H444.295L452.343 406.106L460.39 406.456H468.525L476.572 406.893L484.619 410.564L492.667 409.777L500.714 410.826L508.761 405.756L516.809 407.679L524.943 410.302L532.991 409.515L541.038 408.116L549.085 408.466L557.133 405.581L565.18 409.253L573.227 408.466H581.362L589.409 407.33L597.369 405.144L605.504 408.728L613.639 409.952L621.599 405.407L629.646 406.98L637.781 409.777L645.828 409.165L653.788 404.27L661.748 404.707L669.708 406.193L677.755 408.029L685.54 403.746L693.587 406.718L701.635 406.805L709.507 406.106L717.467 405.057L725.339 403.746L733.474 407.505L741.346 406.368L749.219 404.707L757.266 405.931L764.963 400.687L773.186 405.407L780.971 402.784L789.018 404.533L796.89 402.347L804.588 398.851L812.635 400.337L820.682 400.687L828.73 402.959L836.515 399.55L844.474 399.9L852.609 401.561L860.569 402.173L868.354 399.463L876.051 396.054L884.099 396.578L892.059 396.141L899.931 395.267L907.891 395.355L916.113 399.55L924.073 397.015L932.383 399.375L940.255 396.666L948.39 396.316L956.525 397.54L964.659 398.501L972.619 394.918L980.754 395.005L988.889 396.316L996.849 393.082L1005.07 396.928L1013.03 393.606L1020.99 390.722L1029.3 394.044H1029.65V105.245Z" fill="url(#paint1_linear)"/>
<path fill-rule="evenodd" clip-rule="evenodd" d="M1029.65 194.052L1026.85 193.265L1019.42 194.402L1012.24 194.576L1005.77 193.003L999.385 190.293H992.3L984.953 190.905L978.567 193.964L971.132 192.741L964.222 193.353L958.449 196.412L950.227 194.139L943.841 195.887L937.281 197.898L930.108 195.013L923.023 197.723H915.938L910.253 193.964L902.643 195.8L895.907 193.353L888.91 195.013L883.049 197.024L877.451 198.947L868.616 198.685L864.68 202.618L857.07 203.579L852.259 206.814L846.224 209.436L837.914 209.523L830.479 207.688L823.132 208.474L815.084 208.649L808.087 207.076L804.15 202.705L798.29 200.433L790.505 199.646L784.294 197.373L776.51 196.412L770.737 193.877L764.701 191.08L756.566 191.342L748.956 190.381L740.472 190.905L735.661 194.664L730.15 197.373L723.327 199.384L716.417 201.307L710.906 203.754L705.046 206.289L697.698 206.639L689.214 207.338L683.965 203.754L678.63 201.045L670.67 200.171L665.946 197.024L658.074 196.762L652.563 192.741L644.691 194.052L639.355 197.111L631.395 197.81L631.221 202.356L624.66 204.541L620.986 207.688L619.15 211.359L618.8 215.292L609.44 217.04L610.84 221.586L606.991 224.907L599.031 226.044L593.87 228.229L587.485 229.365L580.487 232.25L574.102 229.19L566.492 229.54L562.381 225.257L555.996 223.946L549.698 222.46L541.213 222.809L537.714 218.789L530.017 218.352L525.031 215.554L520.133 212.845L514.709 210.572L506.75 210.135L500.014 208.824L496.253 205.153L489.693 203.667L483.745 201.744L475.96 201.831L470.624 198.772L463.189 198.597L457.066 196.324L450.243 195.188L443.508 193.79H436.161L428.463 195.363L421.815 193.615L414.38 195.276L407.82 192.304L400.472 193.527L393.562 191.692L386.39 193.09L379.217 194.227L372.307 190.468L365.134 192.566L358.137 190.293L350.964 193.09L343.879 193.178L336.881 190.381L329.708 193.09L322.711 190.293L315.538 191.954L308.366 192.916L301.455 190.381L294.458 190.031L286.935 193.003L279.85 192.216L272.765 191.954L265.505 191.604L259.819 188.72L254.833 185.661L246.174 187.496L240.313 185.661L234.453 183.301L227.368 183.912L220.107 181.727L212.935 184L205.762 184.612L199.289 186.622L192.029 187.147L184.769 187.671L177.072 187.584L170.949 190.73L162.464 188.108L155.816 191.255L148.819 189.681L142.083 188.458L134.036 190.643L128.7 186.71L121.44 186.622L114.093 186.797L108.057 184.175L100.797 184.349L93.8871 186.185L86.627 185.049L79.1919 184.874L71.6695 184.524L65.5465 188.108L57.9365 187.496L51.2013 189.419L43.5913 188.895L35.8939 187.933L29.0712 189.944L21.8111 190.993L14.4635 188.982L7.11596 189.856L0.0308266 188.545L-6.61696 186.884L-14.4019 188.545L-20 188.283V427.259H-19.9125L-12.6524 427.696L-4.51766 424.811L1.86771 428.045L8.69044 429.794L16.6503 427.259L23.3855 429.357L30.908 428.045L37.6433 430.668L44.7284 431.367L51.9885 431.192L59.0737 432.416L66.5087 431.105L73.4189 433.202L80.8539 432.154L87.8516 433.465L95.4615 430.93L102.459 432.591L109.719 431.804L116.804 433.028H124.064L131.412 431.717L138.41 433.814L145.495 434.601L152.58 435.825L159.928 435.3L167.013 436.262L174.535 433.465L181.62 434.426L188.705 435.388L196.14 433.29L203.051 436.524L210.223 436.786L217.658 434.339L224.918 434.251L231.916 435.825L239.001 437.748L246.524 434.863L253.521 436.699L260.781 435.388L267.954 435.737L275.039 436.611L282.299 435.125L289.472 435.213L296.382 439.146L303.555 438.534L310.815 437.573L318.075 437.048L325.247 436.087L332.333 437.66L339.33 440.108L346.59 438.622L353.85 438.272L360.936 439.321L368.108 439.146L375.368 436.874L382.541 438.185L389.539 440.72L396.799 438.971L403.884 440.807L411.144 438.884L418.229 440.195L425.402 441.069L432.662 439.321L439.747 440.807L447.007 438.447L454.092 440.894L461.265 440.108L468.437 438.797L475.697 437.923L482.782 440.632L489.955 438.185L497.128 440.195L504.3 440.457L511.473 441.856L518.646 439.409L525.818 438.709L532.991 440.545L540.076 441.331L547.248 441.681L554.421 440.807L561.681 439.583L568.766 441.331L576.026 438.36L583.112 442.118L590.284 440.457L597.457 438.884L604.629 440.72L611.802 439.321L618.975 440.807L626.147 438.971L633.32 439.496L640.492 440.195L647.665 441.244L654.838 438.622L662.01 439.758L669.183 440.72L676.355 441.069L683.528 439.846L690.701 441.856L697.873 441.769L705.046 439.583L712.131 438.797L719.304 438.36L726.476 438.884L733.649 438.097L740.822 440.37L747.994 439.234L755.167 438.534L762.339 441.069L769.512 440.894L776.685 438.185L783.857 441.769L791.03 440.02L798.115 438.01L805.375 440.195H812.548L819.72 438.971L826.805 437.748L833.978 438.01L841.238 441.069L848.323 439.059L855.496 439.583L862.668 438.01L869.928 440.72L877.014 439.234L884.274 441.331L891.359 437.66L898.531 438.272L905.704 437.923L912.877 438.272L920.049 440.283L927.222 437.835L934.395 440.37L941.567 439.146L948.74 438.185L955.912 440.195L963.085 440.72L970.258 439.846L977.43 440.02L984.515 437.923L991.775 438.971L998.861 439.671L1006.12 438.534L1013.29 440.457L1020.38 440.108L1027.55 440.894L1029.65 439.933V194.052Z" fill="url(#paint2_linear)"/>
<path fill-rule="evenodd" clip-rule="evenodd" d="M1029.65 162.672L1028.86 162.06L1027.2 156.204L1024.4 150.609L1023.7 144.229L1019.42 138.984L1015.65 134.177L1011.37 134.963L1007.26 139.858L1002.1 145.977L1000.09 151.134L994.837 154.455L992.038 159.175L988.626 164.944L984.253 170.102L979.617 175.084L975.593 180.416L971.132 185.66L967.808 191.342L965.009 197.461L958.974 201.831L955.737 206.726L953.113 212.233L949.789 217.739L944.978 221.76L938.943 226.218L930.721 228.491L926.959 234.959L923.023 239.067L921.274 245.186L914.189 244.05L910.078 240.203L904.13 238.281L896.17 239.417L890.922 234.697L885.848 229.54L878.588 228.141L874.827 231.375L871.503 235.92L864.505 236.27L857.595 240.291L848.935 239.941L841.063 237.494L835.552 232.424L829.867 227.529L823.044 225.257L815.522 224.12L810.536 227.617L804.238 229.714L801.701 235.658L797.153 239.242L792.254 243.088L788.406 247.109L781.845 249.469L776.422 244.312L770.212 239.504L767.675 232.861L763.127 227.966L755.604 228.228L752.455 225.169L746.157 221.76L742.221 217.477L737.847 213.719L732.599 215.379L726.301 217.477L722.715 223.071L720.703 229.365L716.942 234.522L712.831 239.417L707.758 244.05L703.996 249.469L704.259 256.287L701.984 262.143L699.01 267.737L694.637 273.157V279.625L691.575 285.394L691.838 291.775L688.164 297.544L687.552 304.799L684.928 311.354L678.105 316.424L671.545 312.403L669.27 306.285L663.41 303.225L659.474 297.719L653.526 294.834L647.49 292.124L642.417 288.278L634.807 285.394L627.197 285.481L617.225 285.656L609.79 282.16L604.892 275.691L596.407 276.041L589.409 275.954L582.324 275.866L575.852 278.139L568.591 279.975L562.206 276.478L555.296 275.954L549.785 276.041L541.126 279.45L533.778 280.412L528.705 275.691L524.244 270.971L518.033 269.048L511.823 269.66L504.913 265.639L499.839 259.87L493.366 256.025L488.556 250.693L484.707 244.836L479.021 240.291L472.898 237.319L466.425 240.378L459.865 241.864L454.005 237.756L446.132 235.309L443.071 228.84L438.522 224.907L434.411 220.449L431.699 215.03L428.725 210.047L420.503 210.485L414.293 215.205L408.52 220.187L401.61 222.11L396.711 226.743L391.375 232.599L387.527 239.504L381.579 236.882L375.018 237.494L369.245 237.232L361.373 235.309L354.463 231.9L347.99 229.103L340.73 231.725L333.557 228.753L326.297 221.673L315.713 224.208L310.64 220.012L305.654 216.166L299.006 212.932L296.645 206.638L291.396 201.656L285.011 197.635L281.425 191.167L276.701 186.447L268.129 184.961L264.805 190.73L259.907 193.702L254.221 195.975L247.748 199.034L242.675 204.278L235.24 205.852L230.604 211.446L223.869 213.456L219.233 218.002L212.498 220.362L208.037 225.169L204.625 230.851L197.19 232.861L191.942 236.795L187.481 241.515L181.533 244.924L172.261 247.109L166.4 251.741L160.977 255.5L156.341 255.238L151.793 251.479L145.232 249.207L140.159 245.448L134.211 243.088L128.438 240.378L121.265 240.466L116.717 235.396L110.332 231.812L102.547 230.239L97.036 225.082L88.8137 224.383L81.991 221.76L73.6813 217.652L70.5323 213.019L63.7971 213.282L57.2368 212.582L50.5015 215.03L43.0665 216.778L37.1185 221.498L29.0712 219.225L22.5983 222.372L17.4375 218.002L10.3524 218.876L3.96701 215.292L-3.03065 212.145L-10.1158 215.03L-15.539 218.788L-20 221.236V493.951L-14.5768 497.972L-7.57914 499.371L-0.406528 499.546L5.54149 503.479L12.1018 505.315L19.9742 506.363L26.3596 510.384L34.3194 511.084L40.6173 513.968L47.0027 516.59L53.9129 517.639L59.7734 521.747L66.4212 523.496L73.4189 524.457L79.8917 527.079L86.627 528.74L93.8871 529.527L100.622 532.062L108.67 531.45L114.88 535.208L122.053 536.694L128.613 539.491L136.135 539.666L142.958 541.764L149.956 544.823L157.566 542.813L165.001 543.512L172.611 544.911L180.046 544.823L187.393 543.774L194.566 542.9L201.651 544.911L208.736 542.201L215.821 544.911L222.994 542.376L230.079 541.24L237.164 541.589L244.249 542.551L251.335 542.114L258.507 541.327L265.592 540.977L272.677 542.026L279.763 541.152L286.848 544.386L294.02 542.988L301.105 544.037L308.191 544.124L315.276 542.726L322.448 542.813L329.534 541.24L336.619 543.512L343.704 542.551L350.789 543.774L357.962 543.075L365.047 543.949L372.132 543.163L379.217 545.086L386.302 544.212L393.475 544.561L400.56 543.862L407.645 541.414L414.73 545.348L421.903 542.376L428.988 543.862L436.073 542.026L443.158 542.551L450.243 542.201L457.416 543.687H464.501H471.586L478.671 544.823L485.757 543.075L492.842 542.551L500.014 541.764L507.099 542.638L514.185 545.26L521.27 543.774L528.442 544.649L535.527 543.163L542.613 543.6L549.698 542.114L556.783 545.435L563.955 542.726L571.041 541.327L578.126 542.376L585.211 542.026L592.296 542.289L599.469 544.124L606.554 541.851L613.639 544.386L620.724 541.24L627.809 541.065H634.807L642.067 543.337L649.065 542.376H656.15L663.235 542.026L670.145 540.191L677.405 541.502L684.49 540.628L691.575 540.453L698.398 537.918L705.571 538.268L712.393 536.082L719.654 536.957L726.389 534.072L733.474 533.81L740.297 531.537L747.819 534.597L754.904 533.897L761.465 529.876L768.812 531.275L775.722 530.663L782.633 530.751L789.543 529.964L796.366 527.866L803.451 528.303L810.448 529.702L817.359 528.041L824.269 526.118H831.266L838.177 529.439L845.174 527.254L852.084 528.565L859.082 527.866L865.992 529.964L872.99 530.313L879.9 529.439L886.898 529.789L893.896 527.516L901.156 529.352H908.416L915.676 529.09L922.936 530.488L930.283 529.614L937.543 527.604L944.804 531.013L952.064 529.352L959.411 528.565L966.671 529.702L973.844 531.1L981.191 529.352L988.539 529.527L995.624 532.499L1003.06 529.964L1010.32 531.188L1017.58 531.362L1024.93 530.401L1029.65 532.149V162.672Z" fill="url(#paint3_linear)"/>
<path fill-rule="evenodd" clip-rule="evenodd" d="M10.7897 546.809C18.6621 571.721 25.2224 597.331 33.7071 622.068H1029.65V313.515C1028.18 313.933 1026.75 314.459 1025.36 315.088C1015.04 320.369 1005.45 326.981 996.849 334.755C987.402 342.447 979.354 340.262 968.945 342.272C958.536 344.283 950.927 353.985 939.993 355.471C936.756 355.471 933.345 354.947 930.108 355.471C925.26 356.281 920.51 357.6 915.938 359.405C907.803 362.114 898.444 362.551 891.009 365.523C885.623 368.67 879.939 371.276 874.04 373.303C869.666 374.177 865.293 373.303 860.657 374.264C849.548 376.799 844.999 390.61 831.879 387.113C828.244 385.376 824.274 384.451 820.245 384.404C817.184 384.404 814.559 385.54 811.498 385.889C803.276 387.026 796.628 380.732 788.318 380.033C771.524 378.547 755.954 391.396 739.247 391.658C735.923 391.658 732.512 391.658 729.188 391.658C723.677 392.183 721.753 394.98 716.505 397.253C708.896 399.785 700.671 399.785 693.062 397.253C687.265 394.684 680.796 394.041 674.606 395.417C670.845 396.728 669.97 399.438 665.859 398.476C662.305 396.479 659.039 394.009 656.15 391.134C648.365 384.928 639.793 382.393 632.445 376.1C623.698 367.971 618.012 358.618 606.729 355.296C589.847 350.401 578.738 335.629 562.993 329.074C559.358 328.389 555.904 326.96 552.847 324.878C548.437 321.077 543.627 317.765 538.501 315.001C533.078 312.728 526.693 310.805 521.007 308.882C510.423 305.386 507.449 320.071 496.778 319.109C490.043 318.585 484.707 310.368 478.321 308.533C471.936 306.697 466.6 305.91 460.827 303.463C453.567 300.491 446.307 298.218 439.135 294.722C433.229 290.562 426.153 288.389 418.929 288.516C408.957 290.177 402.222 293.761 392.688 288.516C388.139 286.069 383.94 278.639 379.654 277.065C375.368 275.492 372.744 278.551 369.42 279.775C355.178 286.116 339.556 288.733 324.023 287.38C311.777 286.069 305.741 296.121 294.72 300.229C287.306 302.211 279.652 303.152 271.978 303.026C264.193 303.026 256.408 301.54 248.273 301.54C239.244 302.552 230.109 302.049 221.245 300.054C206.987 294.809 188.88 297.082 173.573 295.684C164.826 294.897 155.379 298.655 146.107 297.257C140.684 296.383 135.436 293.586 130.275 292.799C118.204 291.051 109.807 279.95 97.036 277.24C89.1799 276.865 81.4113 275.424 73.9437 272.957C64.4487 267.735 53.956 264.577 43.154 263.692C37.775 264.261 32.3508 264.261 26.9718 263.692C23.7985 262.622 20.5541 261.775 17.2626 261.157C9.56515 260.458 1.51783 262.031 -6.1796 261.157C-11.0374 260.204 -15.7061 258.462 -20 256V430.206C-18.513 436.761 -17.026 443.317 -15.7139 449.96C-8.72916 482.72 0.119769 515.056 10.7897 546.809Z" fill="url(#paint4_linear)"/>
<path style="mix-blend-mode:screen" opacity="0.2" d="M1030 -14H-20V439H1030V-14Z" fill="url(#paint5_linear)"/>
</g>
<defs>
<linearGradient id="paint0_linear" x1="504.825" y1="373.502" x2="504.825" y2="-154.185" gradientUnits="userSpaceOnUse">
<stop offset="0.08" stop-color="#D2DFE9"/>
<stop offset="0.43" stop-color="#D9EAE8"/>
<stop offset="0.62" stop-color="#E7F1F4"/>
<stop offset="0.76" stop-color="#DDE7EC"/>
<stop offset="0.88" stop-color="#D3E2ED"/>
<stop offset="0.99" stop-color="#B8D7F6"/>
<stop offset="1" stop-color="#D7E9FA"/>
</linearGradient>
<linearGradient id="paint1_linear" x1="504.825" y1="319.571" x2="504.825" y2="130.156" gradientUnits="userSpaceOnUse">
<stop offset="0.08" stop-color="#BFD5D9"/>
<stop offset="0.47" stop-color="#B4CACD"/>
<stop offset="0.68" stop-color="#ACC4CA"/>
<stop offset="0.84" stop-color="#99B6BA"/>
<stop offset="0.97" stop-color="#91B0B5"/>
</linearGradient>
<linearGradient id="paint2_linear" x1="504.825" y1="442.118" x2="504.825" y2="181.727" gradientUnits="userSpaceOnUse">
<stop offset="0.4" stop-color="#ACBEC1"/>
<stop offset="0.65" stop-color="#A0BDC2"/>
<stop offset="0.84375" stop-color="#97B0B5"/>
<stop offset="0.98" stop-color="#87A6AB"/>
</linearGradient>
<linearGradient id="paint3_linear" x1="504.825" y1="545.435" x2="504.825" y2="134.177" gradientUnits="userSpaceOnUse">
<stop offset="0.234375" stop-color="#304F54"/>
<stop offset="0.540945" stop-color="#5F8288"/>
<stop offset="0.744792" stop-color="#7F9A9F"/>
<stop offset="1" stop-color="#7BA7B3"/>
</linearGradient>
<linearGradient id="paint4_linear" x1="504.825" y1="717.781" x2="504.825" y2="253.727" gradientUnits="userSpaceOnUse">
<stop offset="0.598958" stop-color="#293E41"/>
<stop offset="1" stop-color="#4F7982"/>
</linearGradient>
<linearGradient id="paint5_linear" x1="505" y1="508.5" x2="505" y2="-47.5" gradientUnits="userSpaceOnUse">
<stop offset="0.05"/>
<stop offset="0.12" stop-color="#2F3C3A"/>
<stop offset="0.22" stop-color="#3A4746"/>
<stop offset="0.33" stop-color="#748986"/>
<stop offset="0.45" stop-color="#A2CAC5"/>
<stop offset="0.55" stop-color="#D3FFFA"/>
<stop offset="0.61" stop-color="#ABD2CD"/>
<stop offset="0.69" stop-color="#5F8984"/>
<stop offset="0.76" stop-color="#4E5E5C"/>
<stop offset="0.84" stop-color="#313F3D"/>
<stop offset="0.927083" stop-color="#1B2221"/>
<stop offset="1" stop-color="#050606"/>
</linearGradient>
<clipPath id="clip0">
<rect width="1024" height="411" fill="white"/>
</clipPath>
</defs>
</svg>
