<svg width="1024" height="439" viewBox="0 0 1024 439" fill="none" xmlns="http://www.w3.org/2000/svg">
<g clip-path="url(#clip0)">
<rect width="1024" height="439" fill="black"/>
<path d="M1029.65 -178.617H-20V346.885H1029.65V-178.617Z" fill="url(#paint0_linear)"/>
<path fill-rule="evenodd" clip-rule="evenodd" d="M1029.65 78.6277L1029.48 79.0647L1023.44 83.9596L1024.84 91.4768L1021.34 97.3332L1015.83 102.228L1012.33 108.172L1002.71 110.357L998.423 115.514L993.962 119.36L988.889 122.857L982.416 122.07L975.331 120.322L966.059 119.885L962.385 113.504L955.825 109.658L951.189 104.501L948.302 97.945L941.042 94.3613L931.77 95.585L924.423 96.2843L916.725 99.0814L908.153 100.043L904.479 107.036L894.07 106.686L888.21 111.319L887.86 119.972L878.851 122.944L876.751 130.549L866.43 131.772L861.794 139.202L851.735 139.639L843.775 134.832L833.366 135.706L826.893 131.51L821.645 126.44L814.21 124.343L807.124 125.042L798.377 123.119L792.167 126.703L787.094 131.335L779.046 133.083L774.498 138.066L767.763 141.387L763.914 146.107L764.439 153.712L757.179 156.509L748.606 157.296L741.259 153.974L733.911 151.964L725.427 151.264L720.091 146.02L711.256 146.37L705.571 141.562L697.786 140.338L691.75 136.055L683.965 134.657L678.892 128.888L670.058 129.325L663.41 126.091L657.549 121.545L650.377 118.748L642.417 117L636.644 112.193L627.897 111.319L622.736 105.899L613.901 105.375L609.09 97.8576L598.856 100.917L591.421 97.945L583.286 96.5465L576.289 100.305L568.242 100.48L561.419 103.714L553.197 104.326L545.849 106.511L539.813 110.969L533.778 115.514L526.343 117.699L518.646 118.486L510.861 119.011L504.65 123.468L496.515 121.196L489.168 124.255L482.17 120.584L475.522 118.399L467.912 117L460.74 114.203L452.168 115.427L444.733 112.979L437.473 114.378L429.775 115.514L425.751 121.545L418.929 124.08L411.231 125.828L405.546 129.587L397.936 129.937L389.189 130.286L383.503 124.43L374.231 125.042L367.059 123.468L359.274 122.42L351.401 121.895L344.316 118.923L337.581 116.651L329.796 114.728L327.959 107.735L321.924 103.976L314.226 102.053L307.491 102.228L300.143 102.141H291.221L287.897 110.182L276.789 108.434L271.89 115.864L263.143 117.787L254.484 119.972L246.436 121.108L238.651 117L231.129 115.514L223.344 114.902L214.597 116.476L206.375 115.689L199.989 111.144L191.242 111.406L186.081 104.588L178.384 102.578L171.386 99.2562L161.589 102.49L154.504 99.5184L147.157 96.4591L138.847 98.7317L131.237 93.225L123.54 98.9939L115.492 96.022L107.97 98.5569L100.447 99.868L92.2251 99.3436L85.4024 103.277L77.0927 102.753L69.4827 104.238L61.6103 105.2L55.3124 109.745L47.5275 111.056L40.9672 115.165L33.2698 116.476L25.6598 118.136L18.3997 120.584L10.5273 121.72L2.2176 121.545L-4.6926 125.042H-12.9149L-19.3002 129.762L-20 129.849V342.34L-14.4893 341.466L-6.87937 344.7L1.08048 345.312L9.04032 345.924L16.7378 348.109L24.8726 348.022L32.9199 348.546L40.6173 351.431L49.2769 348.197L57.3242 348.284L65.2841 349.42L73.5938 352.043L81.991 352.829L90.0383 356.063L99.0478 354.228L107.882 353.616L116.28 354.84L124.589 356.763L133.249 356.937L140.334 360.609L148.556 359.735L155.467 365.154L164.126 360.871L171.474 364.804L179.608 363.493L186.869 368.388H194.828L203.226 364.542L210.748 367.951L218.97 365.241L226.493 368.475L234.278 370.136L242.413 368.65L250.197 369.524L257.633 372.846L266.292 371.622L274.689 371.972L282.912 374.507L291.484 372.758L299.968 372.321L308.103 375.73L316.763 372.933L324.985 375.118L333.207 377.479L341.342 375.73L349.214 376.342L356.65 380.013L364.697 379.227L372.744 378.877L380.354 381.412L388.314 382.111L396.186 382.723L404.234 381.936L412.194 383.073L420.153 383.772L428.201 382.548L436.248 379.402H444.295L452.343 379.489L460.39 379.839H468.525L476.572 380.276L484.619 383.947L492.667 383.16L500.714 384.209L508.761 379.139L516.809 381.062L524.943 383.685L532.991 382.898L541.038 381.499L549.085 381.849L557.133 378.964L565.18 382.636L573.227 381.849H581.362L589.409 380.713L597.369 378.527L605.504 382.111L613.639 383.335L621.599 378.79L629.646 380.363L637.781 383.16L645.828 382.548L653.788 377.653L661.748 378.09L669.708 379.576L677.755 381.412L685.54 377.129L693.587 380.101L701.635 380.188L709.507 379.489L717.467 378.44L725.339 377.129L733.474 380.888L741.346 379.751L749.219 378.09L757.266 379.314L764.963 374.07L773.186 378.79L780.971 376.167L789.018 377.916L796.89 375.73L804.588 372.234L812.635 373.72L820.682 374.07L828.73 376.342L836.515 372.933L844.474 373.283L852.609 374.944L860.569 375.556L868.354 372.846L876.051 369.437L884.099 369.961L892.059 369.524L899.931 368.65L907.891 368.738L916.113 372.933L924.073 370.398L932.383 372.758L940.255 370.049L948.39 369.699L956.525 370.923L964.659 371.884L972.619 368.301L980.754 368.388L988.889 369.699L996.849 366.465L1005.07 370.311L1013.03 366.989L1020.99 364.105L1029.3 367.427H1029.65V78.6277Z" fill="url(#paint1_linear)"/>
<path fill-rule="evenodd" clip-rule="evenodd" d="M1029.65 167.435L1026.85 166.648L1019.42 167.785L1012.24 167.959L1005.77 166.386L999.385 163.676H992.3L984.953 164.288L978.567 167.347L971.132 166.124L964.222 166.736L958.449 169.795L950.227 167.522L943.841 169.27L937.281 171.281L930.108 168.396L923.023 171.106H915.938L910.253 167.347L902.643 169.183L895.907 166.736L888.91 168.396L883.049 170.407L877.451 172.33L868.616 172.068L864.68 176.001L857.07 176.962L852.259 180.197L846.224 182.819L837.914 182.906L830.479 181.071L823.132 181.857L815.084 182.032L808.087 180.459L804.15 176.088L798.29 173.816L790.505 173.029L784.294 170.756L776.51 169.795L770.737 167.26L764.701 164.463L756.566 164.725L748.956 163.764L740.472 164.288L735.661 168.047L730.15 170.756L723.327 172.767L716.417 174.69L710.906 177.137L705.046 179.672L697.698 180.022L689.214 180.721L683.965 177.137L678.63 174.428L670.67 173.554L665.946 170.407L658.074 170.145L652.563 166.124L644.691 167.435L639.355 170.494L631.395 171.193L631.221 175.739L624.66 177.924L620.986 181.071L619.15 184.742L618.8 188.675L609.44 190.423L610.84 194.969L606.991 198.29L599.031 199.427L593.87 201.612L587.485 202.748L580.487 205.633L574.102 202.573L566.492 202.923L562.381 198.64L555.996 197.329L549.698 195.843L541.213 196.192L537.714 192.172L530.017 191.735L525.031 188.937L520.133 186.228L514.709 183.955L506.75 183.518L500.014 182.207L496.253 178.536L489.693 177.05L483.745 175.127L475.96 175.214L470.624 172.155L463.189 171.98L457.066 169.707L450.243 168.571L443.508 167.173H436.161L428.463 168.746L421.815 166.998L414.38 168.659L407.82 165.687L400.472 166.91L393.562 165.075L386.39 166.473L379.217 167.61L372.307 163.851L365.134 165.949L358.137 163.676L350.964 166.473L343.879 166.561L336.881 163.764L329.708 166.473L322.711 163.676L315.538 165.337L308.366 166.299L301.455 163.764L294.458 163.414L286.935 166.386L279.85 165.599L272.765 165.337L265.505 164.987L259.819 162.103L254.833 159.044L246.174 160.879L240.313 159.044L234.453 156.684L227.368 157.295L220.107 155.11L212.935 157.383L205.762 157.995L199.289 160.005L192.029 160.53L184.769 161.054L177.072 160.967L170.949 164.113L162.464 161.491L155.816 164.638L148.819 163.064L142.083 161.841L134.036 164.026L128.7 160.093L121.44 160.005L114.093 160.18L108.057 157.558L100.797 157.732L93.8871 159.568L86.627 158.432L79.1919 158.257L71.6695 157.907L65.5465 161.491L57.9365 160.879L51.2013 162.802L43.5913 162.278L35.8939 161.316L29.0712 163.327L21.8111 164.376L14.4635 162.365L7.11596 163.239L0.0308266 161.928L-6.61696 160.267L-14.4019 161.928L-20 161.666V400.642H-19.9125L-12.6524 401.079L-4.51766 398.194L1.86771 401.428L8.69044 403.177L16.6503 400.642L23.3855 402.74L30.908 401.428L37.6433 404.051L44.7284 404.75L51.9885 404.575L59.0737 405.799L66.5087 404.488L73.4189 406.585L80.8539 405.537L87.8516 406.848L95.4615 404.313L102.459 405.974L109.719 405.187L116.804 406.411H124.064L131.412 405.1L138.41 407.197L145.495 407.984L152.58 409.208L159.928 408.683L167.013 409.645L174.535 406.848L181.62 407.809L188.705 408.771L196.14 406.673L203.051 409.907L210.223 410.169L217.658 407.722L224.918 407.634L231.916 409.208L239.001 411.131L246.524 408.246L253.521 410.082L260.781 408.771L267.954 409.12L275.039 409.994L282.299 408.508L289.472 408.596L296.382 412.529L303.555 411.917L310.815 410.956L318.075 410.431L325.247 409.47L332.333 411.043L339.33 413.491L346.59 412.005L353.85 411.655L360.936 412.704L368.108 412.529L375.368 410.257L382.541 411.568L389.539 414.103L396.799 412.354L403.884 414.19L411.144 412.267L418.229 413.578L425.402 414.452L432.662 412.704L439.747 414.19L447.007 411.83L454.092 414.277L461.265 413.491L468.437 412.18L475.697 411.306L482.782 414.015L489.955 411.568L497.128 413.578L504.3 413.84L511.473 415.239L518.646 412.792L525.818 412.092L532.991 413.928L540.076 414.714L547.248 415.064L554.421 414.19L561.681 412.966L568.766 414.714L576.026 411.743L583.112 415.501L590.284 413.84L597.457 412.267L604.629 414.103L611.802 412.704L618.975 414.19L626.147 412.354L633.32 412.879L640.492 413.578L647.665 414.627L654.838 412.005L662.01 413.141L669.183 414.103L676.355 414.452L683.528 413.229L690.701 415.239L697.873 415.152L705.046 412.966L712.131 412.18L719.304 411.743L726.476 412.267L733.649 411.48L740.822 413.753L747.994 412.617L755.167 411.917L762.339 414.452L769.512 414.277L776.685 411.568L783.857 415.152L791.03 413.403L798.115 411.393L805.375 413.578H812.548L819.72 412.354L826.805 411.131L833.978 411.393L841.238 414.452L848.323 412.442L855.496 412.966L862.668 411.393L869.928 414.103L877.014 412.617L884.274 414.714L891.359 411.043L898.531 411.655L905.704 411.306L912.877 411.655L920.049 413.666L927.222 411.218L934.395 413.753L941.567 412.529L948.74 411.568L955.912 413.578L963.085 414.103L970.258 413.229L977.43 413.403L984.515 411.306L991.775 412.354L998.861 413.054L1006.12 411.917L1013.29 413.84L1020.38 413.491L1027.55 414.277L1029.65 413.316V167.435Z" fill="url(#paint2_linear)"/>
<path fill-rule="evenodd" clip-rule="evenodd" d="M1029.65 136.055L1028.86 135.443L1027.2 129.587L1024.4 123.992L1023.7 117.612L1019.42 112.367L1015.65 107.56L1011.37 108.346L1007.26 113.241L1002.1 119.36L1000.09 124.517L994.837 127.838L992.038 132.558L988.626 138.327L984.253 143.485L979.617 148.467L975.593 153.799L971.132 159.043L967.808 164.725L965.009 170.844L958.974 175.214L955.737 180.109L953.113 185.616L949.789 191.122L944.978 195.143L938.943 199.601L930.721 201.874L926.959 208.342L923.023 212.45L921.274 218.569L914.189 217.433L910.078 213.586L904.13 211.664L896.17 212.8L890.922 208.08L885.848 202.923L878.588 201.524L874.827 204.758L871.503 209.303L864.505 209.653L857.595 213.674L848.935 213.324L841.063 210.877L835.552 205.807L829.867 200.912L823.044 198.64L815.522 197.503L810.536 201L804.238 203.097L801.701 209.041L797.153 212.625L792.254 216.471L788.406 220.492L781.845 222.852L776.422 217.695L770.212 212.887L767.675 206.244L763.127 201.349L755.604 201.611L752.455 198.552L746.157 195.143L742.221 190.86L737.847 187.102L732.599 188.762L726.301 190.86L722.715 196.454L720.703 202.748L716.942 207.905L712.831 212.8L707.758 217.433L703.996 222.852L704.259 229.67L701.984 235.526L699.01 241.12L694.637 246.54V253.008L691.575 258.777L691.838 265.158L688.164 270.927L687.552 278.182L684.928 284.737L678.105 289.807L671.545 285.786L669.27 279.668L663.41 276.608L659.474 271.102L653.526 268.217L647.49 265.507L642.417 261.661L634.807 258.777L627.197 258.864L617.225 259.039L609.79 255.543L604.892 249.074L596.407 249.424L589.409 249.337L582.324 249.249L575.852 251.522L568.591 253.358L562.206 249.861L555.296 249.337L549.785 249.424L541.126 252.833L533.778 253.795L528.705 249.074L524.244 244.354L518.033 242.431L511.823 243.043L504.913 239.022L499.839 233.253L493.366 229.408L488.556 224.076L484.707 218.219L479.021 213.674L472.898 210.702L466.425 213.761L459.865 215.247L454.005 211.139L446.132 208.692L443.071 202.223L438.522 198.29L434.411 193.832L431.699 188.413L428.725 183.43L420.503 183.868L414.293 188.588L408.52 193.57L401.61 195.493L396.711 200.126L391.375 205.982L387.527 212.887L381.579 210.265L375.018 210.877L369.245 210.615L361.373 208.692L354.463 205.283L347.99 202.486L340.73 205.108L333.557 202.136L326.297 195.056L315.713 197.591L310.64 193.395L305.654 189.549L299.006 186.315L296.645 180.021L291.396 175.039L285.011 171.018L281.425 164.55L276.701 159.83L268.129 158.344L264.805 164.113L259.907 167.085L254.221 169.358L247.748 172.417L242.675 177.661L235.24 179.235L230.604 184.829L223.869 186.839L219.233 191.385L212.498 193.745L208.037 198.552L204.625 204.234L197.19 206.244L191.942 210.178L187.481 214.898L181.533 218.307L172.261 220.492L166.4 225.124L160.977 228.883L156.341 228.621L151.793 224.862L145.232 222.59L140.159 218.831L134.211 216.471L128.438 213.761L121.265 213.849L116.717 208.779L110.332 205.195L102.547 203.622L97.036 198.465L88.8137 197.766L81.991 195.143L73.6813 191.035L70.5323 186.402L63.7971 186.665L57.2368 185.965L50.5015 188.413L43.0665 190.161L37.1185 194.881L29.0712 192.608L22.5983 195.755L17.4375 191.385L10.3524 192.259L3.96701 188.675L-3.03065 185.528L-10.1158 188.413L-15.539 192.171L-20 194.619V467.334L-14.5768 471.355L-7.57914 472.754L-0.406528 472.929L5.54149 476.862L12.1018 478.698L19.9742 479.746L26.3596 483.767L34.3194 484.467L40.6173 487.351L47.0027 489.973L53.9129 491.022L59.7734 495.13L66.4212 496.879L73.4189 497.84L79.8917 500.462L86.627 502.123L93.8871 502.91L100.622 505.445L108.67 504.833L114.88 508.591L122.053 510.077L128.613 512.874L136.135 513.049L142.958 515.147L149.956 518.206L157.566 516.196L165.001 516.895L172.611 518.294L180.046 518.206L187.393 517.157L194.566 516.283L201.651 518.294L208.736 515.584L215.821 518.294L222.994 515.759L230.079 514.623L237.164 514.972L244.249 515.934L251.335 515.497L258.507 514.71L265.592 514.36L272.677 515.409L279.763 514.535L286.848 517.769L294.02 516.371L301.105 517.42L308.191 517.507L315.276 516.109L322.448 516.196L329.534 514.623L336.619 516.895L343.704 515.934L350.789 517.157L357.962 516.458L365.047 517.332L372.132 516.546L379.217 518.469L386.302 517.595L393.475 517.944L400.56 517.245L407.645 514.797L414.73 518.731L421.903 515.759L428.988 517.245L436.073 515.409L443.158 515.934L450.243 515.584L457.416 517.07H464.501H471.586L478.671 518.206L485.757 516.458L492.842 515.934L500.014 515.147L507.099 516.021L514.185 518.643L521.27 517.157L528.442 518.032L535.527 516.546L542.613 516.983L549.698 515.497L556.783 518.818L563.955 516.109L571.041 514.71L578.126 515.759L585.211 515.409L592.296 515.672L599.469 517.507L606.554 515.234L613.639 517.769L620.724 514.623L627.809 514.448H634.807L642.067 516.72L649.065 515.759H656.15L663.235 515.409L670.145 513.574L677.405 514.885L684.49 514.011L691.575 513.836L698.398 511.301L705.571 511.651L712.393 509.465L719.654 510.34L726.389 507.455L733.474 507.193L740.297 504.92L747.819 507.98L754.904 507.28L761.465 503.259L768.812 504.658L775.722 504.046L782.633 504.134L789.543 503.347L796.366 501.249L803.451 501.686L810.448 503.085L817.359 501.424L824.269 499.501H831.266L838.177 502.822L845.174 500.637L852.084 501.948L859.082 501.249L865.992 503.347L872.99 503.696L879.9 502.822L886.898 503.172L893.896 500.899L901.156 502.735H908.416L915.676 502.473L922.936 503.871L930.283 502.997L937.543 500.987L944.804 504.396L952.064 502.735L959.411 501.948L966.671 503.085L973.844 504.483L981.191 502.735L988.539 502.91L995.624 505.882L1003.06 503.347L1010.32 504.571L1017.58 504.745L1024.93 503.784L1029.65 505.532V136.055Z" fill="url(#paint3_linear)"/>
<path fill-rule="evenodd" clip-rule="evenodd" d="M10.7897 489.099C18.6621 514.011 25.2224 539.621 33.7071 564.358H1029.65V255.805C1028.18 256.223 1026.75 256.749 1025.36 257.378C1015.04 262.659 1005.45 269.271 996.849 277.045C987.402 284.737 979.354 282.552 968.945 284.562C958.536 286.573 950.927 296.275 939.993 297.761C936.756 297.761 933.345 297.237 930.108 297.761C925.26 298.571 920.51 299.89 915.938 301.695C907.803 304.404 898.444 304.841 891.009 307.813C885.623 310.96 879.939 313.566 874.04 315.593C869.666 316.467 865.293 315.593 860.657 316.554C849.548 319.089 844.999 332.9 831.879 329.403C828.244 327.666 824.274 326.741 820.245 326.694C817.184 326.694 814.559 327.83 811.498 328.179C803.276 329.316 796.628 323.022 788.318 322.323C771.524 320.837 755.954 333.686 739.247 333.948C735.923 333.948 732.512 333.948 729.188 333.948C723.677 334.473 721.753 337.27 716.505 339.543C708.896 342.075 700.671 342.075 693.062 339.543C687.265 336.974 680.796 336.331 674.606 337.707C670.845 339.018 669.97 341.728 665.859 340.766C662.305 338.769 659.039 336.299 656.15 333.424C648.365 327.218 639.793 324.683 632.445 318.39C623.698 310.261 618.012 300.908 606.729 297.586C589.847 292.691 578.738 277.919 562.993 271.364C559.358 270.679 555.904 269.25 552.847 267.168C548.437 263.367 543.627 260.055 538.501 257.291C533.078 255.018 526.693 253.095 521.007 251.172C510.423 247.676 507.449 262.361 496.778 261.399C490.043 260.875 484.707 252.658 478.321 250.823C471.936 248.987 466.6 248.2 460.827 245.753C453.567 242.781 446.307 240.508 439.135 237.012C433.229 232.852 426.153 230.679 418.929 230.806C408.957 232.467 402.222 236.051 392.688 230.806C388.139 228.359 383.94 220.929 379.654 219.355C375.368 217.782 372.744 220.841 369.42 222.065C355.178 228.406 339.556 231.023 324.023 229.67C311.777 228.359 305.741 238.411 294.72 242.519C287.306 244.501 279.652 245.442 271.978 245.316C264.193 245.316 256.408 243.83 248.273 243.83C239.244 244.842 230.109 244.339 221.245 242.344C206.987 237.099 188.88 239.372 173.573 237.974C164.826 237.187 155.379 240.945 146.107 239.547C140.684 238.673 135.436 235.876 130.275 235.089C118.204 233.341 109.807 222.24 97.036 219.53C89.1799 219.155 81.4113 217.714 73.9437 215.247C64.4487 210.025 53.956 206.867 43.154 205.982C37.775 206.551 32.3508 206.551 26.9718 205.982C23.7985 204.912 20.5541 204.065 17.2626 203.447C9.56515 202.748 1.51783 204.321 -6.1796 203.447C-11.0374 202.494 -15.7061 200.752 -20 198.29L-20 372.496C-18.513 379.051 -17.026 385.607 -15.7139 392.25C-8.72916 425.01 0.11977 457.346 10.7897 489.099Z" fill="url(#paint4_linear)"/>
<path style="mix-blend-mode:screen" opacity="0.76" d="M1029.65 -48.5525H-20V368.65H1029.65V-48.5525Z" fill="url(#paint5_linear)"/>
<path style="mix-blend-mode:screen" fill-rule="evenodd" clip-rule="evenodd" d="M373.619 -10.9667C373.532 12.3741 366.526 35.1658 353.485 54.5297C340.443 73.8937 321.952 88.9614 300.346 97.8298C278.74 106.698 254.989 108.969 232.092 104.356C209.195 99.7436 188.18 88.4537 171.7 71.9126C155.221 55.3715 144.016 34.3212 139.502 11.4204C134.987 -11.4804 137.365 -35.2045 146.336 -56.7556C155.306 -78.3066 170.466 -96.7178 189.902 -109.664C209.337 -122.61 232.176 -129.51 255.533 -129.493C286.914 -129.401 316.975 -116.867 339.115 -94.6435C361.256 -72.4205 373.665 -42.3253 373.619 -10.9667Z" fill="url(#paint6_radial)"/>
<path style="mix-blend-mode:screen" fill-rule="evenodd" clip-rule="evenodd" d="M145.232 -178.617C87.4071 -161.745 31.9043 -137.757 -20 -107.204L-20 329.84C98.2606 401.166 273.377 446.444 468.787 446.444C709.157 446.444 918.825 378.003 1029.65 276.608V-53.972C973.144 -105.631 891.009 -148.811 792.254 -178.617H145.232Z" fill="url(#paint7_radial)"/>
</g>
<defs>
<linearGradient id="paint0_linear" x1="504.825" y1="346.885" x2="504.825" y2="-180.802" gradientUnits="userSpaceOnUse">
<stop offset="0.08" stop-color="#FBDFEA"/>
<stop offset="0.43" stop-color="#F9DFEA"/>
<stop offset="0.62" stop-color="#F1DEEC"/>
<stop offset="0.76" stop-color="#E3DCEE"/>
<stop offset="0.88" stop-color="#D1DAF1"/>
<stop offset="0.99" stop-color="#B8D7F6"/>
<stop offset="1" stop-color="#B6D7F6"/>
</linearGradient>
<linearGradient id="paint1_linear" x1="504.825" y1="292.954" x2="504.825" y2="103.539" gradientUnits="userSpaceOnUse">
<stop offset="0.08" stop-color="#FBDFEA"/>
<stop offset="0.47" stop-color="#FBDDE8"/>
<stop offset="0.68" stop-color="#FAD5E3"/>
<stop offset="0.84" stop-color="#F8C7DA"/>
<stop offset="0.97" stop-color="#F6B5CD"/>
<stop offset="1" stop-color="#F6B0CA"/>
</linearGradient>
<linearGradient id="paint2_linear" x1="504.825" y1="415.501" x2="504.825" y2="155.11" gradientUnits="userSpaceOnUse">
<stop offset="0.4" stop-color="#CDB6D6"/>
<stop offset="0.65" stop-color="#CBB4D5"/>
<stop offset="0.78" stop-color="#C6ACD0"/>
<stop offset="0.89" stop-color="#BD9EC9"/>
<stop offset="0.98" stop-color="#B08CBE"/>
<stop offset="1" stop-color="#AC85BA"/>
</linearGradient>
<linearGradient id="paint3_linear" x1="504.825" y1="518.818" x2="504.825" y2="107.56" gradientUnits="userSpaceOnUse">
<stop stop-color="#ADACD5"/>
<stop offset="0.41" stop-color="#ABAAD4"/>
<stop offset="0.62" stop-color="#A3A2D0"/>
<stop offset="0.79" stop-color="#9594C9"/>
<stop offset="0.93" stop-color="#8382BF"/>
<stop offset="1" stop-color="#7675B9"/>
</linearGradient>
<linearGradient id="paint4_linear" x1="504.825" y1="660.071" x2="504.825" y2="196.017" gradientUnits="userSpaceOnUse">
<stop stop-color="#6C6F95"/>
<stop offset="0.45" stop-color="#6A6D93"/>
<stop offset="0.69" stop-color="#62658E"/>
<stop offset="0.88" stop-color="#545884"/>
<stop offset="1" stop-color="#474B7A"/>
</linearGradient>
<linearGradient id="paint5_linear" x1="504.825" y1="368.65" x2="504.825" y2="-48.5525" gradientUnits="userSpaceOnUse">
<stop/>
<stop offset="0.05" stop-color="#090708"/>
<stop offset="0.12" stop-color="#201A1D"/>
<stop offset="0.22" stop-color="#463941"/>
<stop offset="0.33" stop-color="#7B6471"/>
<stop offset="0.45" stop-color="#BD9AAF"/>
<stop offset="0.55" stop-color="#FBCCE8"/>
<stop offset="0.61" stop-color="#CFA8BF"/>
<stop offset="0.69" stop-color="#917686"/>
<stop offset="0.76" stop-color="#5D4C56"/>
<stop offset="0.84" stop-color="#352B31"/>
<stop offset="0.9" stop-color="#181316"/>
<stop offset="0.96" stop-color="#060506"/>
<stop offset="1"/>
</linearGradient>
<radialGradient id="paint6_radial" cx="0" cy="0" r="1" gradientUnits="userSpaceOnUse" gradientTransform="translate(256.363 -11.1136) scale(118.471 118.387)">
<stop offset="0.57" stop-color="#F7DBE6"/>
<stop offset="0.62" stop-color="#B6A2AA"/>
<stop offset="0.67" stop-color="#7F7176"/>
<stop offset="0.71" stop-color="#51484C"/>
<stop offset="0.75" stop-color="#2E292B"/>
<stop offset="0.79" stop-color="#151213"/>
<stop offset="0.83" stop-color="#050505"/>
<stop offset="0.86"/>
</radialGradient>
<radialGradient id="paint7_radial" cx="0" cy="0" r="1" gradientUnits="userSpaceOnUse" gradientTransform="translate(468.101 112.311) scale(644.272 335.548)">
<stop stop-color="#F466BA"/>
<stop offset="0.14" stop-color="#B64C8A"/>
<stop offset="0.28" stop-color="#7F3561"/>
<stop offset="0.41" stop-color="#51223E"/>
<stop offset="0.54" stop-color="#2E1323"/>
<stop offset="0.66" stop-color="#150910"/>
<stop offset="0.77" stop-color="#050204"/>
<stop offset="0.86"/>
</radialGradient>
<clipPath id="clip0">
<rect width="1024" height="439" fill="white"/>
</clipPath>
</defs>
</svg>
