<svg width="1024" height="600" viewBox="0 0 1024 600" fill="none" xmlns="http://www.w3.org/2000/svg">
<g clip-path="url(#clip0)">
<path fill-rule="evenodd" clip-rule="evenodd" d="M1024 6.10352e-05H0V600H1024V6.10352e-05ZM241.748 259.859H295.092V245.007H270.472V244.759C273.456 243.439 276.068 241.747 278.306 239.684C280.544 237.539 282.368 235.146 283.777 232.505C285.186 229.865 286.222 227.059 286.886 224.089C287.632 221.118 288.005 218.065 288.005 214.93C288.005 208.328 286.761 202.305 284.274 196.859C281.87 191.33 278.555 186.586 274.327 182.625C270.099 178.664 265.125 175.57 259.405 173.342C253.686 171.114 247.551 170 241.002 170C234.454 170 228.319 171.114 222.599 173.342C216.879 175.487 211.906 178.54 207.678 182.501C203.45 186.462 200.093 191.206 197.606 196.735C195.202 202.264 194 208.328 194 214.93C194 222.026 195.202 228.338 197.606 233.867C200.01 239.395 203.326 244.099 207.554 247.977C211.781 251.855 216.797 254.826 222.599 256.889C228.485 258.869 234.868 259.859 241.748 259.859ZM216.258 225.574C214.848 222.274 214.144 218.725 214.144 214.93C214.144 211.134 214.848 207.586 216.258 204.285C217.667 200.985 219.574 198.138 221.978 195.745C224.464 193.269 227.324 191.33 230.557 189.927C233.79 188.525 237.272 187.823 241.002 187.823C244.733 187.823 248.214 188.525 251.447 189.927C254.68 191.33 257.499 193.269 259.903 195.745C262.39 198.138 264.338 200.985 265.747 204.285C267.156 207.586 267.861 211.134 267.861 214.93C267.861 218.725 267.156 222.274 265.747 225.574C264.338 228.875 262.39 231.763 259.903 234.238C257.499 236.631 254.68 238.529 251.447 239.932C248.214 241.335 244.733 242.036 241.002 242.036C237.272 242.036 233.79 241.335 230.557 239.932C227.324 238.529 224.464 236.631 221.978 234.238C219.574 231.763 217.667 228.875 216.258 225.574ZM321.15 259.859V199.706H302.499V259.859H321.15ZM304.115 173.218C302.043 175.281 301.007 177.798 301.007 180.768C301.007 183.739 302.043 186.297 304.115 188.442C306.27 190.505 308.84 191.537 311.825 191.537C314.809 191.537 317.337 190.505 319.41 188.442C321.565 186.297 322.643 183.739 322.643 180.768C322.643 177.798 321.565 175.281 319.41 173.218C317.337 171.073 314.809 170 311.825 170C308.84 170 306.27 171.073 304.115 173.218ZM372.476 252.309H372.227C370.155 255.527 367.378 257.838 363.896 259.24C360.497 260.643 356.891 261.345 353.078 261.345C350.259 261.345 347.524 260.932 344.871 260.107C342.301 259.364 340.022 258.209 338.032 256.641C336.043 255.073 334.468 253.134 333.307 250.824C332.146 248.513 331.566 245.832 331.566 242.779C331.566 239.313 332.188 236.384 333.431 233.991C334.758 231.598 336.499 229.617 338.654 228.05C340.892 226.482 343.42 225.285 346.239 224.46C349.057 223.553 351.959 222.892 354.943 222.48C358.01 222.067 361.036 221.82 364.02 221.737C367.087 221.655 369.906 221.613 372.476 221.613C372.476 218.313 371.274 215.714 368.87 213.816C366.549 211.835 363.772 210.845 360.539 210.845C357.471 210.845 354.653 211.505 352.083 212.826C349.596 214.063 347.358 215.796 345.368 218.024L335.421 207.875C338.903 204.656 342.964 202.264 347.607 200.696C352.249 199.045 357.057 198.22 362.031 198.22C367.502 198.22 371.978 198.922 375.46 200.324C379.025 201.645 381.843 203.625 383.915 206.266C386.071 208.906 387.563 212.165 388.392 216.044C389.221 219.839 389.635 224.254 389.635 229.287V259.859H372.476V252.309ZM367.875 233.496C366.466 233.496 364.683 233.578 362.528 233.743C360.456 233.826 358.425 234.156 356.435 234.733C354.529 235.311 352.871 236.177 351.461 237.333C350.135 238.488 349.472 240.097 349.472 242.16C349.472 244.388 350.425 246.038 352.332 247.111C354.238 248.183 356.228 248.72 358.3 248.72C360.124 248.72 361.865 248.472 363.523 247.977C365.264 247.482 366.797 246.781 368.124 245.873C369.45 244.965 370.486 243.81 371.232 242.407C372.061 241.005 372.476 239.354 372.476 237.456V233.496H367.875ZM419.243 199.706H401.337V259.859H419.989V229.906C419.989 227.926 420.113 226.028 420.362 224.213C420.611 222.397 421.108 220.788 421.854 219.385C422.683 217.9 423.844 216.745 425.336 215.92C426.828 215.012 428.776 214.558 431.18 214.558C433.584 214.558 435.408 215.053 436.651 216.044C437.978 217.034 438.931 218.313 439.511 219.881C440.174 221.448 440.547 223.181 440.63 225.079C440.796 226.894 440.879 228.668 440.879 230.401V259.859H459.531V226.688C459.531 222.645 459.241 218.89 458.66 215.425C458.08 211.959 456.961 208.947 455.303 206.389C453.728 203.831 451.49 201.851 448.588 200.448C445.687 198.963 441.874 198.22 437.149 198.22C434.91 198.22 432.838 198.509 430.931 199.087C429.025 199.664 427.325 200.407 425.833 201.315C424.341 202.222 423.056 203.254 421.979 204.409C420.901 205.564 420.072 206.719 419.492 207.875H419.243V199.706ZM502.693 172.228H523.831L537.883 228.421H538.131L556.534 172.228H574.564L592.843 229.906H593.092L607.889 172.228H627.535L601.796 259.859H584.512L565.114 199.21H564.865L545.467 259.859H528.805L502.693 172.228ZM666.939 252.309H667.188V259.859H684.347V229.287C684.347 224.254 683.933 219.839 683.104 216.044C682.275 212.165 680.783 208.906 678.627 206.266C676.555 203.625 673.736 201.645 670.172 200.324C666.69 198.922 662.214 198.22 656.743 198.22C651.769 198.22 646.961 199.045 642.319 200.696C637.676 202.264 633.614 204.656 630.133 207.875L640.08 218.024C642.07 215.796 644.308 214.063 646.795 212.826C649.365 211.505 652.183 210.845 655.25 210.845C658.483 210.845 661.26 211.835 663.581 213.816C665.985 215.714 667.188 218.313 667.188 221.613C664.618 221.613 661.799 221.655 658.732 221.737C655.748 221.82 652.722 222.067 649.655 222.48C646.671 222.892 643.769 223.553 640.951 224.46C638.132 225.285 635.604 226.482 633.366 228.05C631.21 229.617 629.47 231.598 628.143 233.991C626.9 236.384 626.278 239.313 626.278 242.779C626.278 245.832 626.858 248.513 628.019 250.824C629.179 253.134 630.754 255.073 632.744 256.641C634.734 258.209 637.013 259.364 639.583 260.107C642.236 260.932 644.971 261.345 647.79 261.345C651.603 261.345 655.209 260.643 658.608 259.24C662.089 257.838 664.866 255.527 666.939 252.309ZM657.24 233.743C659.395 233.578 661.177 233.496 662.587 233.496H667.188V237.456C667.188 239.354 666.773 241.005 665.944 242.407C665.198 243.81 664.162 244.965 662.835 245.873C661.509 246.781 659.976 247.482 658.235 247.977C656.577 248.472 654.836 248.72 653.012 248.72C650.94 248.72 648.95 248.183 647.044 247.111C645.137 246.038 644.184 244.388 644.184 242.16C644.184 240.097 644.847 238.488 646.173 237.333C647.582 236.177 649.24 235.311 651.147 234.733C653.137 234.156 655.167 233.826 657.24 233.743ZM696.049 199.706H713.955V207.875H714.203C714.784 206.719 715.613 205.564 716.69 204.409C717.768 203.254 719.053 202.222 720.545 201.315C722.037 200.407 723.737 199.664 725.643 199.087C727.55 198.509 729.622 198.22 731.86 198.22C736.586 198.22 740.399 198.963 743.3 200.448C746.202 201.851 748.44 203.831 750.015 206.389C751.673 208.947 752.792 211.959 753.372 215.425C753.952 218.89 754.242 222.645 754.242 226.688V259.859H735.591V230.401C735.591 228.668 735.508 226.894 735.342 225.079C735.259 223.181 734.886 221.448 734.223 219.881C733.643 218.313 732.689 217.034 731.363 216.044C730.12 215.053 728.296 214.558 725.892 214.558C723.488 214.558 721.54 215.012 720.048 215.92C718.556 216.745 717.395 217.9 716.566 219.385C715.82 220.788 715.323 222.397 715.074 224.213C714.825 226.028 714.701 227.926 714.701 229.906V259.859H696.049V199.706ZM822.162 280.653C827.965 274.795 830.866 266.172 830.866 254.785V199.706H813.706V207.627H813.458C812.712 206.554 811.717 205.482 810.474 204.409C809.23 203.254 807.738 202.222 805.997 201.315C804.256 200.407 802.267 199.664 800.029 199.087C797.873 198.509 795.469 198.22 792.817 198.22C788.506 198.22 784.651 199.128 781.253 200.943C777.854 202.676 774.952 204.987 772.548 207.875C770.227 210.763 768.404 214.105 767.077 217.9C765.834 221.696 765.212 225.574 765.212 229.535C765.212 234.073 765.917 238.24 767.326 242.036C768.735 245.832 770.725 249.132 773.294 251.938C775.947 254.661 779.097 256.806 782.745 258.374C786.392 259.859 790.454 260.602 794.93 260.602C797.749 260.602 800.733 260.024 803.883 258.869C807.116 257.631 809.81 255.569 811.966 252.68H812.214V258.498C812.214 262.789 810.847 266.296 808.111 269.019C805.458 271.824 801.272 273.227 795.552 273.227C791.739 273.227 788.216 272.525 784.983 271.123C781.833 269.72 778.807 267.822 775.906 265.429L765.585 280.777C769.979 284.243 774.787 286.553 780.009 287.708C785.232 288.946 790.537 289.565 795.925 289.565C807.697 289.565 816.442 286.594 822.162 280.653ZM784.983 235.105C784.237 233.289 783.864 231.391 783.864 229.411C783.864 227.431 784.237 225.574 784.983 223.841C785.729 222.026 786.765 220.458 788.091 219.138C789.501 217.735 791.076 216.621 792.817 215.796C794.64 214.971 796.63 214.558 798.785 214.558C800.858 214.558 802.806 214.971 804.629 215.796C806.453 216.621 808.028 217.735 809.354 219.138C810.764 220.458 811.841 222.026 812.587 223.841C813.333 225.574 813.706 227.431 813.706 229.411C813.706 231.391 813.333 233.289 812.587 235.105C811.841 236.838 810.764 238.405 809.354 239.808C808.028 241.128 806.453 242.201 804.629 243.026C802.806 243.851 800.858 244.264 798.785 244.264C796.63 244.264 794.64 243.851 792.817 243.026C791.076 242.201 789.501 241.128 788.091 239.808C786.765 238.405 785.729 236.838 784.983 235.105Z" fill="white"/>
<path d="M321.901 282.248H320.413V294.536H321.901V295.496H319.261V281.288H321.901V282.248ZM329.465 287.384C329.198 287.064 328.91 286.835 328.601 286.696C328.292 286.547 327.95 286.472 327.577 286.472C327.161 286.472 326.793 286.547 326.473 286.696C326.153 286.835 325.886 287.032 325.673 287.288C325.47 287.544 325.316 287.843 325.209 288.184C325.102 288.515 325.049 288.872 325.049 289.256C325.049 289.64 325.108 290.003 325.225 290.344C325.353 290.675 325.524 290.968 325.737 291.224C325.961 291.48 326.228 291.683 326.537 291.832C326.846 291.971 327.193 292.04 327.577 292.04C328.398 292.04 329.033 291.731 329.481 291.112L330.409 291.992C330.046 292.408 329.62 292.712 329.129 292.904C328.638 293.096 328.121 293.192 327.577 293.192C327.001 293.192 326.473 293.096 325.993 292.904C325.513 292.712 325.102 292.44 324.761 292.088C324.43 291.736 324.169 291.32 323.977 290.84C323.796 290.36 323.705 289.832 323.705 289.256C323.705 288.691 323.796 288.168 323.977 287.688C324.169 287.208 324.436 286.792 324.777 286.44C325.118 286.088 325.524 285.816 325.993 285.624C326.473 285.421 327.001 285.32 327.577 285.32C328.132 285.32 328.654 285.416 329.145 285.608C329.646 285.8 330.084 286.099 330.457 286.504L329.465 287.384ZM331.856 280.904H333.104V286.552H333.136C333.221 286.403 333.339 286.259 333.488 286.12C333.637 285.971 333.813 285.837 334.016 285.72C334.229 285.603 334.464 285.507 334.72 285.432C334.976 285.357 335.248 285.32 335.536 285.32C336.027 285.32 336.448 285.395 336.8 285.544C337.163 285.693 337.461 285.901 337.696 286.168C337.931 286.435 338.101 286.76 338.208 287.144C338.325 287.517 338.384 287.928 338.384 288.376V293H337.136V288.504C337.136 287.875 336.997 287.379 336.72 287.016C336.443 286.653 336.011 286.472 335.424 286.472C335.019 286.472 334.667 286.541 334.368 286.68C334.08 286.819 333.84 287.016 333.648 287.272C333.467 287.528 333.328 287.832 333.232 288.184C333.147 288.536 333.104 288.925 333.104 289.352V293H331.856V280.904ZM340.859 285.512H342.107V293H340.859V285.512ZM340.571 282.584C340.571 282.339 340.656 282.125 340.827 281.944C341.008 281.763 341.227 281.672 341.483 281.672C341.739 281.672 341.952 281.763 342.123 281.944C342.304 282.125 342.395 282.339 342.395 282.584C342.395 282.851 342.309 283.069 342.139 283.24C341.968 283.411 341.749 283.496 341.483 283.496C341.216 283.496 340.997 283.411 340.827 283.24C340.656 283.069 340.571 282.851 340.571 282.584ZM345.054 281.672H346.206V285.512H345.054V281.672ZM348.947 286.472C349.331 286.077 349.785 285.789 350.307 285.608C350.841 285.416 351.379 285.32 351.923 285.32C353.033 285.32 353.833 285.581 354.323 286.104C354.814 286.627 355.059 287.421 355.059 288.488V291.704C355.059 291.917 355.07 292.141 355.091 292.376C355.113 292.6 355.139 292.808 355.171 293H353.971C353.929 292.829 353.902 292.643 353.891 292.44C353.891 292.227 353.891 292.04 353.891 291.88H353.859C353.614 292.264 353.283 292.579 352.867 292.824C352.462 293.069 351.971 293.192 351.395 293.192C351.011 293.192 350.649 293.144 350.307 293.048C349.977 292.952 349.683 292.813 349.427 292.632C349.182 292.44 348.985 292.205 348.835 291.928C348.686 291.651 348.611 291.331 348.611 290.968C348.611 290.349 348.771 289.864 349.091 289.512C349.411 289.16 349.806 288.899 350.275 288.728C350.755 288.557 351.267 288.451 351.811 288.408C352.366 288.365 352.873 288.344 353.331 288.344H353.811V288.12C353.811 287.576 353.646 287.165 353.315 286.888C352.995 286.611 352.542 286.472 351.955 286.472C351.55 286.472 351.15 286.541 350.755 286.68C350.371 286.808 350.03 287.011 349.731 287.288L348.947 286.472ZM352.563 289.4C351.763 289.4 351.129 289.512 350.659 289.736C350.19 289.96 349.955 290.328 349.955 290.84C349.955 291.309 350.11 291.645 350.419 291.848C350.739 292.04 351.134 292.136 351.603 292.136C351.966 292.136 352.281 292.077 352.547 291.96C352.825 291.832 353.054 291.667 353.235 291.464C353.417 291.261 353.555 291.027 353.651 290.76C353.747 290.483 353.801 290.189 353.811 289.88V289.4H352.563ZM357.34 287.288C357.34 286.947 357.33 286.627 357.308 286.328C357.287 286.029 357.276 285.757 357.276 285.512H358.46C358.46 285.715 358.466 285.917 358.476 286.12C358.487 286.323 358.492 286.531 358.492 286.744H358.524C358.61 286.563 358.727 286.387 358.876 286.216C359.036 286.045 359.223 285.896 359.436 285.768C359.65 285.629 359.89 285.523 360.156 285.448C360.423 285.363 360.711 285.32 361.02 285.32C361.511 285.32 361.932 285.395 362.284 285.544C362.647 285.693 362.946 285.901 363.18 286.168C363.415 286.435 363.586 286.76 363.692 287.144C363.81 287.517 363.868 287.928 363.868 288.376V293H362.62V288.504C362.62 287.875 362.482 287.379 362.204 287.016C361.927 286.653 361.495 286.472 360.908 286.472C360.503 286.472 360.151 286.541 359.852 286.68C359.564 286.819 359.324 287.016 359.132 287.272C358.951 287.528 358.812 287.832 358.716 288.184C358.631 288.536 358.588 288.925 358.588 289.352V293H357.34V287.288ZM366.103 281.288H368.743V295.496H366.103V294.536H367.591V282.248H366.103V281.288Z" fill="#999999"/>
</g>
<defs>
<clipPath id="clip0">
<rect width="1024" height="600" fill="white"/>
</clipPath>
</defs>
</svg>
