<svg width="1440" height="800" viewBox="0 0 1440 800" fill="none" xmlns="http://www.w3.org/2000/svg">
<g clip-path="url(#clip0)">
<path fill-rule="evenodd" clip-rule="evenodd" d="M0.00044409 -0.00056616L1440 -9.14182e-05L1440 805L0.000400932 805L0.00044409 -0.00056616ZM552.489 363.009L723.446 192.051L894.534 363.139L814 445.5C815.709 438.404 817.584 428.196 817.581 420.573C817.56 368.634 775.439 326.512 723.499 326.492C671.56 326.471 629.471 368.56 629.492 420.499C629.495 428.126 630.784 438.399 632.5 445.5L552.489 363.009ZM543.966 371.531L495.051 420.446L723.626 649.021L858.014 514.633L723.573 514.58C694.429 514.569 668.376 501.302 651.118 480.482L543.966 371.531ZM651.118 458.952C664.906 484.862 692.181 502.511 723.569 502.523C754.954 502.536 782.213 484.911 795.982 459.015L723.518 386.551L651.118 458.952ZM801.137 447.125C803.984 438.797 805.527 429.863 805.524 420.568C805.506 375.288 768.785 338.566 723.504 338.549C678.224 338.531 641.531 375.223 641.549 420.504C641.553 429.797 643.102 438.729 645.954 447.057L723.512 369.5L801.137 447.125ZM795.982 480.563C788.654 489.4 779.739 496.871 769.672 502.542L870.067 502.58L952.021 420.626L902.5 372L795.982 480.563Z" fill="white"/>
<path d="M598 118.54H600.88V127.36H611.89V118.54H614.77V139.78H611.89V130.06H600.88V139.78H598V118.54Z" fill="#AAAAAA"/>
<path d="M619.756 125.56H622.456V139.78H619.756V125.56ZM619.126 120.46C619.126 119.92 619.316 119.46 619.696 119.08C620.096 118.68 620.566 118.48 621.106 118.48C621.646 118.48 622.106 118.68 622.486 119.08C622.886 119.46 623.086 119.92 623.086 120.46C623.086 121 622.886 121.47 622.486 121.87C622.106 122.25 621.646 122.44 621.106 122.44C620.566 122.44 620.096 122.25 619.696 121.87C619.316 121.47 619.126 121 619.126 120.46Z" fill="#AAAAAA"/>
<path d="M628.613 143.74H626.153L628.223 136.36H631.133L628.613 143.74Z" fill="#AAAAAA"/>
<path d="M644.143 118.54H647.023V139.78H644.143V118.54Z" fill="#AAAAAA"/>
<path d="M653.902 125.92H651.442L653.512 118.54H656.422L653.902 125.92Z" fill="#AAAAAA"/>
<path d="M660.152 125.56H662.672V127.78H662.732C662.792 127.58 662.942 127.33 663.182 127.03C663.442 126.73 663.762 126.45 664.142 126.19C664.542 125.91 665.002 125.68 665.522 125.5C666.062 125.3 666.652 125.2 667.292 125.2C668.352 125.2 669.242 125.42 669.962 125.86C670.682 126.3 671.272 126.96 671.732 127.84C672.192 126.96 672.842 126.3 673.682 125.86C674.522 125.42 675.372 125.2 676.232 125.2C677.332 125.2 678.232 125.38 678.932 125.74C679.632 126.1 680.182 126.58 680.582 127.18C680.982 127.76 681.252 128.43 681.392 129.19C681.552 129.93 681.632 130.7 681.632 131.5V139.78H678.932V131.86C678.932 131.32 678.892 130.8 678.812 130.3C678.752 129.8 678.612 129.36 678.392 128.98C678.172 128.6 677.862 128.3 677.462 128.08C677.062 127.84 676.532 127.72 675.872 127.72C674.572 127.72 673.642 128.12 673.082 128.92C672.522 129.72 672.242 130.75 672.242 132.01V139.78H669.542V132.34C669.542 131.66 669.502 131.04 669.422 130.48C669.362 129.92 669.222 129.44 669.002 129.04C668.802 128.62 668.502 128.3 668.102 128.08C667.722 127.84 667.202 127.72 666.542 127.72C666.062 127.72 665.592 127.82 665.132 128.02C664.692 128.2 664.302 128.48 663.962 128.86C663.622 129.24 663.352 129.73 663.152 130.33C662.952 130.91 662.852 131.6 662.852 132.4V139.78H660.152V125.56Z" fill="#AAAAAA"/>
<path d="M716.668 139.78H704.428C702.928 139.78 701.508 139.51 700.168 138.97C698.828 138.43 697.658 137.68 696.658 136.72C695.658 135.76 694.868 134.62 694.288 133.3C693.708 131.96 693.418 130.5 693.418 128.92C693.418 127.36 693.698 125.92 694.258 124.6C694.818 123.26 695.588 122.1 696.568 121.12C697.568 120.14 698.728 119.38 700.048 118.84C701.388 118.28 702.838 118 704.398 118C705.898 118 707.298 118.27 708.598 118.81C709.918 119.35 711.068 120.1 712.048 121.06C713.028 122 713.798 123.12 714.358 124.42C714.938 125.7 715.228 127.1 715.228 128.62C715.228 129.52 715.118 130.41 714.898 131.29C714.698 132.15 714.388 132.96 713.968 133.72C713.568 134.48 713.058 135.16 712.438 135.76C711.838 136.36 711.148 136.84 710.368 137.2V137.26H716.668V139.78ZM704.308 137.08C705.468 137.08 706.528 136.87 707.488 136.45C708.468 136.01 709.298 135.42 709.978 134.68C710.678 133.92 711.218 133.03 711.598 132.01C711.978 130.99 712.168 129.9 712.168 128.74C712.168 127.62 711.968 126.57 711.568 125.59C711.188 124.61 710.648 123.76 709.948 123.04C709.248 122.32 708.418 121.75 707.458 121.33C706.498 120.91 705.448 120.7 704.308 120.7C703.188 120.7 702.148 120.91 701.188 121.33C700.248 121.75 699.428 122.32 698.728 123.04C698.028 123.76 697.478 124.61 697.078 125.59C696.678 126.55 696.478 127.58 696.478 128.68C696.478 129.84 696.668 130.93 697.048 131.95C697.428 132.97 697.958 133.86 698.638 134.62C699.338 135.38 700.168 135.98 701.128 136.42C702.088 136.86 703.148 137.08 704.308 137.08Z" fill="#AAAAAA"/>
<path d="M719.219 125.56H721.919V139.78H719.219V125.56ZM718.589 120.46C718.589 119.92 718.779 119.46 719.159 119.08C719.559 118.68 720.029 118.48 720.569 118.48C721.109 118.48 721.569 118.68 721.949 119.08C722.349 119.46 722.549 119.92 722.549 120.46C722.549 121 722.349 121.47 721.949 121.87C721.569 122.25 721.109 122.44 720.569 122.44C720.029 122.44 719.559 122.25 719.159 121.87C718.779 121.47 718.589 121 718.589 120.46Z" fill="#AAAAAA"/>
<path d="M726.276 127.3C727.036 126.6 727.916 126.08 728.916 125.74C729.916 125.38 730.916 125.2 731.916 125.2C732.956 125.2 733.846 125.33 734.586 125.59C735.346 125.85 735.966 126.2 736.446 126.64C736.926 127.08 737.276 127.59 737.496 128.17C737.736 128.73 737.856 129.32 737.856 129.94V137.2C737.856 137.7 737.866 138.16 737.886 138.58C737.906 139 737.936 139.4 737.976 139.78H735.576C735.516 139.06 735.486 138.34 735.486 137.62H735.426C734.826 138.54 734.116 139.19 733.296 139.57C732.476 139.95 731.526 140.14 730.446 140.14C729.786 140.14 729.156 140.05 728.556 139.87C727.956 139.69 727.426 139.42 726.966 139.06C726.526 138.7 726.176 138.26 725.916 137.74C725.656 137.2 725.526 136.58 725.526 135.88C725.526 134.96 725.726 134.19 726.126 133.57C726.546 132.95 727.106 132.45 727.806 132.07C728.526 131.67 729.356 131.39 730.296 131.23C731.256 131.05 732.276 130.96 733.356 130.96H735.336V130.36C735.336 130 735.266 129.64 735.126 129.28C734.986 128.92 734.776 128.6 734.496 128.32C734.216 128.02 733.866 127.79 733.446 127.63C733.026 127.45 732.526 127.36 731.946 127.36C731.426 127.36 730.966 127.41 730.566 127.51C730.186 127.61 729.836 127.74 729.516 127.9C729.196 128.04 728.906 128.21 728.646 128.41C728.386 128.61 728.136 128.8 727.896 128.98L726.276 127.3ZM733.896 132.94C733.256 132.94 732.596 132.98 731.916 133.06C731.256 133.12 730.646 133.25 730.086 133.45C729.546 133.65 729.096 133.93 728.736 134.29C728.396 134.65 728.226 135.11 728.226 135.67C728.226 136.49 728.496 137.08 729.036 137.44C729.596 137.8 730.346 137.98 731.286 137.98C732.026 137.98 732.656 137.86 733.176 137.62C733.696 137.36 734.116 137.03 734.436 136.63C734.756 136.23 734.986 135.79 735.126 135.31C735.266 134.81 735.336 134.32 735.336 133.84V132.94H733.896Z" fill="#AAAAAA"/>
<path d="M741.773 125.56H744.473V127.75H744.533C744.873 126.99 745.463 126.38 746.303 125.92C747.143 125.44 748.113 125.2 749.213 125.2C749.893 125.2 750.543 125.31 751.163 125.53C751.803 125.73 752.353 126.05 752.813 126.49C753.293 126.93 753.673 127.5 753.953 128.2C754.233 128.88 754.373 129.69 754.373 130.63V139.78H751.673V131.38C751.673 130.72 751.583 130.16 751.403 129.7C751.223 129.22 750.983 128.84 750.683 128.56C750.383 128.26 750.033 128.05 749.633 127.93C749.253 127.79 748.853 127.72 748.433 127.72C747.873 127.72 747.353 127.81 746.873 127.99C746.393 128.17 745.973 128.46 745.613 128.86C745.253 129.24 744.973 129.73 744.773 130.33C744.573 130.93 744.473 131.64 744.473 132.46V139.78H741.773V125.56Z" fill="#AAAAAA"/>
<path d="M764.782 118.54H767.782L772.462 135.52H772.522L777.532 118.54H780.832L785.842 135.52H785.902L790.582 118.54H793.582L787.402 139.78H784.372L779.212 122.44H779.152L774.022 139.78H770.992L764.782 118.54Z" fill="#AAAAAA"/>
<path d="M795.71 127.3C796.47 126.6 797.35 126.08 798.35 125.74C799.35 125.38 800.35 125.2 801.35 125.2C802.39 125.2 803.28 125.33 804.02 125.59C804.78 125.85 805.4 126.2 805.88 126.64C806.36 127.08 806.71 127.59 806.93 128.17C807.17 128.73 807.29 129.32 807.29 129.94V137.2C807.29 137.7 807.3 138.16 807.32 138.58C807.34 139 807.37 139.4 807.41 139.78H805.01C804.95 139.06 804.92 138.34 804.92 137.62H804.86C804.26 138.54 803.55 139.19 802.73 139.57C801.91 139.95 800.96 140.14 799.88 140.14C799.22 140.14 798.59 140.05 797.99 139.87C797.39 139.69 796.86 139.42 796.4 139.06C795.96 138.7 795.61 138.26 795.35 137.74C795.09 137.2 794.96 136.58 794.96 135.88C794.96 134.96 795.16 134.19 795.56 133.57C795.98 132.95 796.54 132.45 797.24 132.07C797.96 131.67 798.79 131.39 799.73 131.23C800.69 131.05 801.71 130.96 802.79 130.96H804.77V130.36C804.77 130 804.7 129.64 804.56 129.28C804.42 128.92 804.21 128.6 803.93 128.32C803.65 128.02 803.3 127.79 802.88 127.63C802.46 127.45 801.96 127.36 801.38 127.36C800.86 127.36 800.4 127.41 800 127.51C799.62 127.61 799.27 127.74 798.95 127.9C798.63 128.04 798.34 128.21 798.08 128.41C797.82 128.61 797.57 128.8 797.33 128.98L795.71 127.3ZM803.33 132.94C802.69 132.94 802.03 132.98 801.35 133.06C800.69 133.12 800.08 133.25 799.52 133.45C798.98 133.65 798.53 133.93 798.17 134.29C797.83 134.65 797.66 135.11 797.66 135.67C797.66 136.49 797.93 137.08 798.47 137.44C799.03 137.8 799.78 137.98 800.72 137.98C801.46 137.98 802.09 137.86 802.61 137.62C803.13 137.36 803.55 137.03 803.87 136.63C804.19 136.23 804.42 135.79 804.56 135.31C804.7 134.81 804.77 134.32 804.77 133.84V132.94H803.33Z" fill="#AAAAAA"/>
<path d="M811.206 125.56H813.906V127.75H813.966C814.306 126.99 814.896 126.38 815.736 125.92C816.576 125.44 817.546 125.2 818.646 125.2C819.326 125.2 819.976 125.31 820.596 125.53C821.236 125.73 821.786 126.05 822.246 126.49C822.726 126.93 823.106 127.5 823.386 128.2C823.666 128.88 823.806 129.69 823.806 130.63V139.78H821.106V131.38C821.106 130.72 821.016 130.16 820.836 129.7C820.656 129.22 820.416 128.84 820.116 128.56C819.816 128.26 819.466 128.05 819.066 127.93C818.686 127.79 818.286 127.72 817.866 127.72C817.306 127.72 816.786 127.81 816.306 127.99C815.826 128.17 815.406 128.46 815.046 128.86C814.686 129.24 814.406 129.73 814.206 130.33C814.006 130.93 813.906 131.64 813.906 132.46V139.78H811.206V125.56Z" fill="#AAAAAA"/>
<path d="M842.126 139.66C842.126 140.74 841.936 141.72 841.556 142.6C841.196 143.5 840.676 144.27 839.996 144.91C839.316 145.57 838.496 146.08 837.536 146.44C836.576 146.8 835.516 146.98 834.356 146.98C832.996 146.98 831.746 146.79 830.606 146.41C829.486 146.03 828.416 145.37 827.396 144.43L829.226 142.15C829.926 142.91 830.686 143.48 831.506 143.86C832.326 144.26 833.256 144.46 834.296 144.46C835.296 144.46 836.126 144.31 836.786 144.01C837.446 143.73 837.966 143.36 838.346 142.9C838.746 142.44 839.026 141.91 839.186 141.31C839.346 140.73 839.426 140.14 839.426 139.54V137.44H839.336C838.816 138.3 838.106 138.94 837.206 139.36C836.326 139.76 835.396 139.96 834.416 139.96C833.376 139.96 832.406 139.78 831.506 139.42C830.626 139.04 829.866 138.53 829.226 137.89C828.586 137.23 828.086 136.46 827.726 135.58C827.366 134.68 827.186 133.71 827.186 132.67C827.186 131.63 827.356 130.66 827.696 129.76C828.036 128.84 828.516 128.04 829.136 127.36C829.776 126.68 830.536 126.15 831.416 125.77C832.316 125.39 833.316 125.2 834.416 125.2C835.376 125.2 836.306 125.41 837.206 125.83C838.126 126.25 838.846 126.84 839.366 127.6H839.426V125.56H842.126V139.66ZM834.746 127.72C834.026 127.72 833.376 127.85 832.796 128.11C832.216 128.35 831.726 128.69 831.326 129.13C830.926 129.55 830.616 130.07 830.396 130.69C830.176 131.29 830.066 131.95 830.066 132.67C830.066 134.11 830.486 135.27 831.326 136.15C832.166 137.01 833.306 137.44 834.746 137.44C836.186 137.44 837.326 137.01 838.166 136.15C839.006 135.27 839.426 134.11 839.426 132.67C839.426 131.95 839.316 131.29 839.096 130.69C838.876 130.07 838.566 129.55 838.166 129.13C837.766 128.69 837.276 128.35 836.696 128.11C836.116 127.85 835.466 127.72 834.746 127.72Z" fill="#AAAAAA"/>
<path fill-rule="evenodd" clip-rule="evenodd" d="M656.81 258H568H558V268V356.81L568 346.81V268H646.81L656.81 258ZM873 340.19V268H800.81L790.81 258H873H883V268V350.19L873 340.19ZM801.429 573H873V501.429L883 491.429V573V583H873H791.429L801.429 573ZM568 494.81V573H646.19L656.19 583H568H558V573V484.81L568 494.81Z" fill="#EEEEEE"/>
</g>
<defs>
<clipPath id="clip0">
<rect width="1440" height="800" fill="white"/>
</clipPath>
</defs>
</svg>
