<svg width="1024" height="600" viewBox="0 0 1024 600" fill="none" xmlns="http://www.w3.org/2000/svg">
<g clip-path="url(#clip0)">
<path fill-rule="evenodd" clip-rule="evenodd" d="M1024 6.10352e-05H0V600H1024V6.10352e-05ZM241.748 259.859H295.092V245.007H270.472V244.759C273.456 243.439 276.068 241.747 278.306 239.684C280.544 237.539 282.368 235.146 283.777 232.505C285.186 229.865 286.222 227.059 286.886 224.089C287.632 221.118 288.005 218.065 288.005 214.93C288.005 208.328 286.761 202.305 284.274 196.859C281.87 191.33 278.555 186.586 274.327 182.625C270.099 178.664 265.125 175.57 259.405 173.342C253.686 171.114 247.551 170 241.002 170C234.454 170 228.319 171.114 222.599 173.342C216.879 175.487 211.906 178.54 207.678 182.501C203.45 186.462 200.093 191.206 197.606 196.735C195.202 202.264 194 208.328 194 214.93C194 222.026 195.202 228.338 197.606 233.867C200.01 239.395 203.326 244.099 207.554 247.977C211.781 251.855 216.797 254.826 222.599 256.889C228.485 258.869 234.868 259.859 241.748 259.859ZM216.258 225.574C214.848 222.274 214.144 218.725 214.144 214.93C214.144 211.134 214.848 207.586 216.258 204.285C217.667 200.985 219.574 198.138 221.978 195.745C224.464 193.269 227.324 191.33 230.557 189.927C233.79 188.525 237.272 187.823 241.002 187.823C244.733 187.823 248.214 188.525 251.447 189.927C254.68 191.33 257.499 193.269 259.903 195.745C262.39 198.138 264.338 200.985 265.747 204.285C267.156 207.586 267.861 211.134 267.861 214.93C267.861 218.725 267.156 222.274 265.747 225.574C264.338 228.875 262.39 231.763 259.903 234.238C257.499 236.631 254.68 238.529 251.447 239.932C248.214 241.335 244.733 242.036 241.002 242.036C237.272 242.036 233.79 241.335 230.557 239.932C227.324 238.529 224.464 236.631 221.978 234.238C219.574 231.763 217.667 228.875 216.258 225.574ZM321.15 259.859V199.706H302.499V259.859H321.15ZM304.115 173.218C302.043 175.281 301.007 177.798 301.007 180.768C301.007 183.739 302.043 186.297 304.115 188.442C306.27 190.505 308.84 191.537 311.825 191.537C314.809 191.537 317.337 190.505 319.41 188.442C321.565 186.297 322.643 183.739 322.643 180.768C322.643 177.798 321.565 175.281 319.41 173.218C317.337 171.073 314.809 170 311.825 170C308.84 170 306.27 171.073 304.115 173.218ZM372.476 252.309H372.227C370.155 255.527 367.378 257.838 363.896 259.24C360.497 260.643 356.891 261.345 353.078 261.345C350.259 261.345 347.524 260.932 344.871 260.107C342.301 259.364 340.022 258.209 338.032 256.641C336.043 255.073 334.468 253.134 333.307 250.824C332.146 248.513 331.566 245.832 331.566 242.779C331.566 239.313 332.188 236.384 333.431 233.991C334.758 231.598 336.499 229.617 338.654 228.05C340.892 226.482 343.42 225.285 346.239 224.46C349.057 223.553 351.959 222.892 354.943 222.48C358.01 222.067 361.036 221.82 364.02 221.737C367.087 221.655 369.906 221.613 372.476 221.613C372.476 218.313 371.274 215.714 368.87 213.816C366.549 211.835 363.772 210.845 360.539 210.845C357.471 210.845 354.653 211.505 352.083 212.826C349.596 214.063 347.358 215.796 345.368 218.024L335.421 207.875C338.903 204.656 342.964 202.264 347.607 200.696C352.249 199.045 357.057 198.22 362.031 198.22C367.502 198.22 371.978 198.922 375.46 200.324C379.025 201.645 381.843 203.625 383.915 206.266C386.071 208.906 387.563 212.165 388.392 216.044C389.221 219.839 389.635 224.254 389.635 229.287V259.859H372.476V252.309ZM367.875 233.496C366.466 233.496 364.683 233.578 362.528 233.743C360.456 233.826 358.425 234.156 356.435 234.733C354.529 235.311 352.871 236.177 351.461 237.333C350.135 238.488 349.472 240.097 349.472 242.16C349.472 244.388 350.425 246.038 352.332 247.111C354.238 248.183 356.228 248.72 358.3 248.72C360.124 248.72 361.865 248.472 363.523 247.977C365.264 247.482 366.797 246.781 368.124 245.873C369.45 244.965 370.486 243.81 371.232 242.407C372.061 241.005 372.476 239.354 372.476 237.456V233.496H367.875ZM419.243 199.706H401.337V259.859H419.989V229.906C419.989 227.926 420.113 226.028 420.362 224.213C420.611 222.397 421.108 220.788 421.854 219.385C422.683 217.9 423.844 216.745 425.336 215.92C426.828 215.012 428.776 214.558 431.18 214.558C433.584 214.558 435.408 215.053 436.651 216.044C437.978 217.034 438.931 218.313 439.511 219.881C440.174 221.448 440.547 223.181 440.63 225.079C440.796 226.894 440.879 228.668 440.879 230.401V259.859H459.531V226.688C459.531 222.645 459.241 218.89 458.66 215.425C458.08 211.959 456.961 208.947 455.303 206.389C453.728 203.831 451.49 201.851 448.588 200.448C445.687 198.963 441.874 198.22 437.149 198.22C434.91 198.22 432.838 198.509 430.931 199.087C429.025 199.664 427.325 200.407 425.833 201.315C424.341 202.222 423.056 203.254 421.979 204.409C420.901 205.564 420.072 206.719 419.492 207.875H419.243V199.706ZM502.693 172.228H523.831L537.883 228.421H538.131L556.534 172.228H574.564L592.843 229.906H593.092L607.889 172.228H627.535L601.796 259.859H584.512L565.114 199.21H564.865L545.467 259.859H528.805L502.693 172.228ZM666.939 252.309H667.188V259.859H684.347V229.287C684.347 224.254 683.933 219.839 683.104 216.044C682.275 212.165 680.783 208.906 678.627 206.266C676.555 203.625 673.736 201.645 670.172 200.324C666.69 198.922 662.214 198.22 656.743 198.22C651.769 198.22 646.961 199.045 642.319 200.696C637.676 202.264 633.614 204.656 630.133 207.875L640.08 218.024C642.07 215.796 644.308 214.063 646.795 212.826C649.365 211.505 652.183 210.845 655.25 210.845C658.483 210.845 661.26 211.835 663.581 213.816C665.985 215.714 667.188 218.313 667.188 221.613C664.618 221.613 661.799 221.655 658.732 221.737C655.748 221.82 652.722 222.067 649.655 222.48C646.671 222.892 643.769 223.553 640.951 224.46C638.132 225.285 635.604 226.482 633.366 228.05C631.21 229.617 629.47 231.598 628.143 233.991C626.9 236.384 626.278 239.313 626.278 242.779C626.278 245.832 626.858 248.513 628.019 250.824C629.179 253.134 630.754 255.073 632.744 256.641C634.734 258.209 637.013 259.364 639.583 260.107C642.236 260.932 644.971 261.345 647.79 261.345C651.603 261.345 655.209 260.643 658.608 259.24C662.089 257.838 664.866 255.527 666.939 252.309ZM657.24 233.743C659.395 233.578 661.177 233.496 662.587 233.496H667.188V237.456C667.188 239.354 666.773 241.005 665.944 242.407C665.198 243.81 664.162 244.965 662.835 245.873C661.509 246.781 659.976 247.482 658.235 247.977C656.577 248.472 654.836 248.72 653.012 248.72C650.94 248.72 648.95 248.183 647.044 247.111C645.137 246.038 644.184 244.388 644.184 242.16C644.184 240.097 644.847 238.488 646.173 237.333C647.582 236.177 649.24 235.311 651.147 234.733C653.137 234.156 655.167 233.826 657.24 233.743ZM696.049 199.706H713.955V207.875H714.203C714.784 206.719 715.613 205.564 716.69 204.409C717.768 203.254 719.053 202.222 720.545 201.315C722.037 200.407 723.737 199.664 725.643 199.087C727.55 198.509 729.622 198.22 731.86 198.22C736.586 198.22 740.399 198.963 743.3 200.448C746.202 201.851 748.44 203.831 750.015 206.389C751.673 208.947 752.792 211.959 753.372 215.425C753.952 218.89 754.242 222.645 754.242 226.688V259.859H735.591V230.401C735.591 228.668 735.508 226.894 735.342 225.079C735.259 223.181 734.886 221.448 734.223 219.881C733.643 218.313 732.689 217.034 731.363 216.044C730.12 215.053 728.296 214.558 725.892 214.558C723.488 214.558 721.54 215.012 720.048 215.92C718.556 216.745 717.395 217.9 716.566 219.385C715.82 220.788 715.323 222.397 715.074 224.213C714.825 226.028 714.701 227.926 714.701 229.906V259.859H696.049V199.706ZM822.162 280.653C827.965 274.795 830.866 266.172 830.866 254.785V199.706H813.706V207.627H813.458C812.712 206.554 811.717 205.482 810.474 204.409C809.23 203.254 807.738 202.222 805.997 201.315C804.256 200.407 802.267 199.664 800.029 199.087C797.873 198.509 795.469 198.22 792.817 198.22C788.506 198.22 784.651 199.128 781.253 200.943C777.854 202.676 774.952 204.987 772.548 207.875C770.227 210.763 768.404 214.105 767.077 217.9C765.834 221.696 765.212 225.574 765.212 229.535C765.212 234.073 765.917 238.24 767.326 242.036C768.735 245.832 770.725 249.132 773.294 251.938C775.947 254.661 779.097 256.806 782.745 258.374C786.392 259.859 790.454 260.602 794.93 260.602C797.749 260.602 800.733 260.024 803.883 258.869C807.116 257.631 809.81 255.569 811.966 252.68H812.214V258.498C812.214 262.789 810.847 266.296 808.111 269.019C805.458 271.824 801.272 273.227 795.552 273.227C791.739 273.227 788.216 272.525 784.983 271.123C781.833 269.72 778.807 267.822 775.906 265.429L765.585 280.777C769.979 284.243 774.787 286.553 780.009 287.708C785.232 288.946 790.537 289.565 795.925 289.565C807.697 289.565 816.442 286.594 822.162 280.653ZM784.983 235.105C784.237 233.289 783.864 231.391 783.864 229.411C783.864 227.431 784.237 225.574 784.983 223.841C785.729 222.026 786.765 220.458 788.091 219.138C789.501 217.735 791.076 216.621 792.817 215.796C794.64 214.971 796.63 214.558 798.785 214.558C800.858 214.558 802.806 214.971 804.629 215.796C806.453 216.621 808.028 217.735 809.354 219.138C810.764 220.458 811.841 222.026 812.587 223.841C813.333 225.574 813.706 227.431 813.706 229.411C813.706 231.391 813.333 233.289 812.587 235.105C811.841 236.838 810.764 238.405 809.354 239.808C808.028 241.128 806.453 242.201 804.629 243.026C802.806 243.851 800.858 244.264 798.785 244.264C796.63 244.264 794.64 243.851 792.817 243.026C791.076 242.201 789.501 241.128 788.091 239.808C786.765 238.405 785.729 236.838 784.983 235.105Z" fill="white"/>
<path d="M358.405 279.248H356.917L355.189 291.536H356.677L356.549 292.496H353.909L355.893 278.288H358.533L358.405 279.248ZM365.249 284.384C365.025 284.064 364.769 283.835 364.481 283.696C364.193 283.547 363.862 283.472 363.489 283.472C363.073 283.472 362.694 283.547 362.353 283.696C362.022 283.835 361.729 284.032 361.473 284.288C361.228 284.544 361.025 284.843 360.865 285.184C360.716 285.515 360.614 285.872 360.561 286.256C360.508 286.64 360.518 287.003 360.593 287.344C360.668 287.675 360.796 287.968 360.977 288.224C361.169 288.48 361.409 288.683 361.697 288.832C361.985 288.971 362.321 289.04 362.705 289.04C363.516 289.04 364.193 288.731 364.737 288.112L365.537 288.992C365.121 289.408 364.652 289.712 364.129 289.904C363.617 290.096 363.089 290.192 362.545 290.192C361.969 290.192 361.452 290.096 360.993 289.904C360.545 289.712 360.177 289.44 359.889 289.088C359.601 288.736 359.393 288.32 359.265 287.84C359.148 287.36 359.132 286.832 359.217 286.256C359.292 285.691 359.457 285.168 359.713 284.688C359.969 284.208 360.294 283.792 360.689 283.44C361.084 283.088 361.532 282.816 362.033 282.624C362.534 282.421 363.073 282.32 363.649 282.32C364.204 282.32 364.716 282.416 365.185 282.608C365.654 282.8 366.049 283.099 366.369 283.504L365.249 284.384ZM368.552 277.904H369.8L369 283.552H369.032C369.139 283.403 369.277 283.259 369.448 283.12C369.619 282.971 369.816 282.837 370.04 282.72C370.264 282.603 370.509 282.507 370.776 282.432C371.043 282.357 371.32 282.32 371.608 282.32C372.099 282.32 372.509 282.395 372.84 282.544C373.181 282.693 373.448 282.901 373.64 283.168C373.843 283.435 373.971 283.76 374.024 284.144C374.088 284.517 374.088 284.928 374.024 285.376L373.384 290H372.136L372.76 285.504C372.845 284.875 372.776 284.379 372.552 284.016C372.328 283.653 371.923 283.472 371.336 283.472C370.525 283.472 369.896 283.739 369.448 284.272C369.011 284.805 368.733 285.499 368.616 286.352L368.104 290H366.856L368.552 277.904ZM376.899 282.512H378.147L377.107 290H375.859L376.899 282.512ZM377.027 279.584C377.059 279.339 377.176 279.125 377.379 278.944C377.581 278.763 377.811 278.672 378.067 278.672C378.323 278.672 378.525 278.763 378.674 278.944C378.824 279.125 378.883 279.339 378.851 279.584C378.808 279.851 378.691 280.069 378.499 280.24C378.307 280.411 378.077 280.496 377.811 280.496C377.544 280.496 377.336 280.411 377.187 280.24C377.037 280.069 376.984 279.851 377.027 279.584ZM381.622 282.512H380.406L382.022 278.672H383.478L381.622 282.512ZM384.859 283.472C385.307 283.077 385.803 282.789 386.347 282.608C386.902 282.416 387.451 282.32 387.995 282.32C389.105 282.32 389.867 282.581 390.283 283.104C390.699 283.627 390.833 284.421 390.683 285.488L390.235 288.704C390.203 288.917 390.182 289.141 390.171 289.376C390.161 289.6 390.161 289.808 390.171 290H388.971C388.95 289.829 388.95 289.643 388.971 289.44C388.993 289.227 389.014 289.04 389.035 288.88H389.003C388.705 289.264 388.331 289.579 387.883 289.824C387.446 290.069 386.939 290.192 386.363 290.192C385.979 290.192 385.627 290.144 385.307 290.048C384.987 289.952 384.71 289.813 384.475 289.632C384.251 289.44 384.081 289.205 383.963 288.928C383.857 288.651 383.83 288.331 383.883 287.968C383.969 287.349 384.193 286.864 384.555 286.512C384.929 286.16 385.366 285.899 385.867 285.728C386.369 285.557 386.897 285.451 387.451 285.408C388.006 285.365 388.513 285.344 388.971 285.344H389.451L389.483 285.12C389.569 284.576 389.467 284.165 389.179 283.888C388.891 283.611 388.454 283.472 387.867 283.472C387.462 283.472 387.051 283.541 386.635 283.68C386.23 283.808 385.862 284.011 385.531 284.288L384.859 283.472ZM388.059 286.4C387.259 286.4 386.609 286.512 386.107 286.736C385.606 286.96 385.318 287.328 385.243 287.84C385.179 288.309 385.291 288.645 385.579 288.848C385.867 289.04 386.246 289.136 386.715 289.136C387.078 289.136 387.403 289.077 387.691 288.96C387.979 288.832 388.23 288.667 388.443 288.464C388.657 288.261 388.827 288.027 388.955 287.76C389.094 287.483 389.19 287.189 389.243 286.88L389.307 286.4H388.059ZM393.14 284.288C393.194 283.947 393.226 283.627 393.236 283.328C393.258 283.029 393.284 282.757 393.316 282.512H394.5C394.479 282.715 394.458 282.917 394.436 283.12C394.415 283.323 394.388 283.531 394.356 283.744H394.388C394.495 283.563 394.639 283.387 394.82 283.216C395.002 283.045 395.21 282.896 395.444 282.768C395.679 282.629 395.935 282.523 396.212 282.448C396.49 282.363 396.783 282.32 397.092 282.32C397.583 282.32 397.994 282.395 398.324 282.544C398.666 282.693 398.932 282.901 399.124 283.168C399.327 283.435 399.455 283.76 399.508 284.144C399.572 284.517 399.572 284.928 399.508 285.376L398.868 290H397.62L398.244 285.504C398.33 284.875 398.26 284.379 398.036 284.016C397.812 283.653 397.407 283.472 396.82 283.472C396.01 283.472 395.38 283.739 394.932 284.272C394.495 284.805 394.218 285.499 394.1 286.352L393.588 290H392.34L393.14 284.288ZM402.735 278.288H405.375L403.391 292.496H400.751L400.879 291.536H402.367L404.095 279.248H402.607L402.735 278.288Z" fill="#999999"/>
<path d="M337 365.407H342.71C343.525 365.407 344.309 365.487 345.061 365.647C345.828 365.807 346.5 366.079 347.076 366.463C347.651 366.831 348.107 367.335 348.443 367.974C348.795 368.598 348.971 369.382 348.971 370.325C348.971 371.397 348.787 372.26 348.419 372.916C348.051 373.572 347.555 374.084 346.932 374.451C346.308 374.803 345.58 375.043 344.749 375.171C343.933 375.299 343.077 375.363 342.182 375.363H340.023V382.392H337V365.407ZM341.846 372.772C342.278 372.772 342.726 372.756 343.189 372.724C343.653 372.692 344.077 372.596 344.461 372.436C344.861 372.276 345.18 372.037 345.42 371.717C345.676 371.397 345.804 370.949 345.804 370.373C345.804 369.845 345.692 369.43 345.468 369.126C345.244 368.806 344.957 368.566 344.605 368.406C344.253 368.23 343.861 368.118 343.429 368.07C342.997 368.022 342.582 367.998 342.182 367.998H340.023V372.772H341.846Z" fill="#C0CAD2"/>
<path d="M351.402 370.877H354.28V372.7H354.328C354.648 372.029 355.104 371.509 355.696 371.141C356.288 370.773 356.967 370.589 357.735 370.589C357.911 370.589 358.079 370.605 358.239 370.637C358.415 370.669 358.591 370.709 358.766 370.757V373.54C358.527 373.476 358.287 373.428 358.047 373.396C357.823 373.348 357.599 373.324 357.375 373.324C356.703 373.324 356.16 373.452 355.744 373.708C355.344 373.948 355.032 374.228 354.808 374.547C354.6 374.867 354.456 375.187 354.376 375.507C354.312 375.827 354.28 376.067 354.28 376.227V382.392H351.402V370.877Z" fill="#C0CAD2"/>
<path d="M359.728 376.635C359.728 375.723 359.888 374.899 360.208 374.164C360.544 373.412 360.992 372.772 361.552 372.244C362.111 371.717 362.775 371.309 363.543 371.021C364.31 370.733 365.126 370.589 365.99 370.589C366.853 370.589 367.669 370.733 368.437 371.021C369.204 371.309 369.868 371.717 370.428 372.244C370.987 372.772 371.427 373.412 371.747 374.164C372.083 374.899 372.251 375.723 372.251 376.635C372.251 377.546 372.083 378.378 371.747 379.129C371.427 379.865 370.987 380.497 370.428 381.025C369.868 381.552 369.204 381.96 368.437 382.248C367.669 382.536 366.853 382.68 365.99 382.68C365.126 382.68 364.31 382.536 363.543 382.248C362.775 381.96 362.111 381.552 361.552 381.025C360.992 380.497 360.544 379.865 360.208 379.129C359.888 378.378 359.728 377.546 359.728 376.635ZM362.607 376.635C362.607 377.082 362.679 377.514 362.823 377.93C362.983 378.346 363.207 378.714 363.495 379.033C363.799 379.353 364.158 379.609 364.574 379.801C364.99 379.993 365.462 380.089 365.99 380.089C366.517 380.089 366.989 379.993 367.405 379.801C367.821 379.609 368.173 379.353 368.461 379.033C368.764 378.714 368.988 378.346 369.132 377.93C369.292 377.514 369.372 377.082 369.372 376.635C369.372 376.187 369.292 375.755 369.132 375.339C368.988 374.923 368.764 374.555 368.461 374.236C368.173 373.916 367.821 373.66 367.405 373.468C366.989 373.276 366.517 373.18 365.99 373.18C365.462 373.18 364.99 373.276 364.574 373.468C364.158 373.66 363.799 373.916 363.495 374.236C363.207 374.555 362.983 374.923 362.823 375.339C362.679 375.755 362.607 376.187 362.607 376.635Z" fill="#C0CAD2"/>
<path d="M384.062 380.665H384.014C383.598 381.368 383.039 381.88 382.335 382.2C381.631 382.52 380.872 382.68 380.056 382.68C379.16 382.68 378.361 382.528 377.657 382.224C376.969 381.904 376.378 381.472 375.882 380.929C375.386 380.385 375.01 379.745 374.754 379.009C374.498 378.274 374.37 377.482 374.37 376.635C374.37 375.787 374.506 374.995 374.778 374.26C375.05 373.524 375.426 372.884 375.906 372.34C376.402 371.797 376.993 371.373 377.681 371.069C378.369 370.749 379.12 370.589 379.936 370.589C380.48 370.589 380.96 370.645 381.375 370.757C381.791 370.869 382.159 371.013 382.479 371.189C382.799 371.365 383.071 371.557 383.295 371.765C383.518 371.957 383.702 372.148 383.846 372.34H383.918V364.256H386.797V382.392H384.062V380.665ZM377.249 376.635C377.249 377.082 377.321 377.514 377.465 377.93C377.625 378.346 377.849 378.714 378.137 379.033C378.441 379.353 378.801 379.609 379.216 379.801C379.632 379.993 380.104 380.089 380.632 380.089C381.16 380.089 381.631 379.993 382.047 379.801C382.463 379.609 382.815 379.353 383.103 379.033C383.407 378.714 383.63 378.346 383.774 377.93C383.934 377.514 384.014 377.082 384.014 376.635C384.014 376.187 383.934 375.755 383.774 375.339C383.63 374.923 383.407 374.555 383.103 374.236C382.815 373.916 382.463 373.66 382.047 373.468C381.631 373.276 381.16 373.18 380.632 373.18C380.104 373.18 379.632 373.276 379.216 373.468C378.801 373.66 378.441 373.916 378.137 374.236C377.849 374.555 377.625 374.923 377.465 375.339C377.321 375.755 377.249 376.187 377.249 376.635Z" fill="#C0CAD2"/>
<path d="M400.564 382.392H397.829V380.545H397.782C397.51 381.121 397.094 381.624 396.534 382.056C395.974 382.472 395.215 382.68 394.255 382.68C393.487 382.68 392.832 382.56 392.288 382.32C391.76 382.064 391.328 381.728 390.992 381.312C390.657 380.881 390.417 380.393 390.273 379.849C390.129 379.305 390.057 378.738 390.057 378.146V370.877H392.936V376.706C392.936 377.026 392.952 377.386 392.984 377.786C393.016 378.17 393.096 378.538 393.223 378.89C393.367 379.225 393.575 379.513 393.847 379.753C394.135 379.977 394.535 380.089 395.047 380.089C395.526 380.089 395.926 380.009 396.246 379.849C396.582 379.689 396.854 379.473 397.062 379.201C397.286 378.93 397.446 378.618 397.542 378.266C397.638 377.914 397.686 377.546 397.686 377.162V370.877H400.564V382.392Z" fill="#C0CAD2"/>
<path d="M411.701 374.332C411.365 373.98 411.013 373.7 410.645 373.492C410.277 373.284 409.902 373.18 409.518 373.18C408.99 373.18 408.518 373.276 408.102 373.468C407.686 373.66 407.327 373.916 407.023 374.236C406.735 374.555 406.511 374.923 406.351 375.339C406.207 375.755 406.135 376.187 406.135 376.635C406.135 377.082 406.207 377.514 406.351 377.93C406.511 378.346 406.735 378.714 407.023 379.033C407.327 379.353 407.686 379.609 408.102 379.801C408.518 379.993 408.99 380.089 409.518 380.089C409.966 380.089 410.381 380.001 410.765 379.825C411.149 379.633 411.477 379.361 411.749 379.009L413.668 381.073C413.38 381.36 413.044 381.608 412.66 381.816C412.293 382.024 411.917 382.192 411.533 382.32C411.149 382.448 410.781 382.536 410.429 382.584C410.077 382.648 409.774 382.68 409.518 382.68C408.654 382.68 407.838 382.536 407.071 382.248C406.303 381.96 405.639 381.552 405.08 381.025C404.52 380.497 404.072 379.865 403.736 379.129C403.416 378.378 403.256 377.546 403.256 376.635C403.256 375.723 403.416 374.899 403.736 374.164C404.072 373.412 404.52 372.772 405.08 372.244C405.639 371.717 406.303 371.309 407.071 371.021C407.838 370.733 408.654 370.589 409.518 370.589C410.253 370.589 410.989 370.733 411.725 371.021C412.476 371.293 413.132 371.733 413.692 372.34L411.701 374.332Z" fill="#C0CAD2"/>
<path d="M414.062 373.324V370.877H416.437V367.542H419.316V370.877H422.482V373.324H419.316V378.362C419.316 378.938 419.42 379.393 419.627 379.729C419.851 380.065 420.283 380.233 420.923 380.233C421.179 380.233 421.459 380.209 421.763 380.161C422.066 380.097 422.306 380.001 422.482 379.873V382.296C422.178 382.44 421.803 382.536 421.355 382.584C420.923 382.648 420.539 382.68 420.203 382.68C419.436 382.68 418.804 382.592 418.308 382.416C417.828 382.256 417.444 382.008 417.157 381.672C416.885 381.32 416.693 380.889 416.581 380.377C416.485 379.865 416.437 379.273 416.437 378.602V373.324H414.062Z" fill="#C0CAD2"/>
<path d="M432.092 365.407H438.785C439.904 365.407 440.984 365.583 442.023 365.935C443.063 366.271 443.983 366.791 444.782 367.494C445.582 368.198 446.222 369.086 446.701 370.157C447.181 371.213 447.421 372.46 447.421 373.9C447.421 375.355 447.141 376.619 446.582 377.69C446.038 378.746 445.326 379.625 444.446 380.329C443.583 381.017 442.615 381.536 441.544 381.888C440.488 382.224 439.449 382.392 438.425 382.392H432.092V365.407ZM437.369 379.657C438.313 379.657 439.201 379.553 440.032 379.345C440.88 379.121 441.616 378.786 442.239 378.338C442.863 377.874 443.351 377.282 443.703 376.563C444.071 375.827 444.255 374.939 444.255 373.9C444.255 372.876 444.095 371.997 443.775 371.261C443.455 370.525 443.007 369.933 442.431 369.486C441.872 369.022 441.2 368.686 440.416 368.478C439.649 368.254 438.801 368.142 437.873 368.142H435.114V379.657H437.369Z" fill="#C0CAD2"/>
<path d="M452.334 377.642C452.43 378.506 452.766 379.177 453.342 379.657C453.917 380.137 454.613 380.377 455.429 380.377C456.148 380.377 456.748 380.233 457.228 379.945C457.724 379.641 458.155 379.265 458.523 378.818L460.586 380.377C459.915 381.209 459.163 381.8 458.331 382.152C457.5 382.504 456.628 382.68 455.717 382.68C454.853 382.68 454.037 382.536 453.27 382.248C452.502 381.96 451.838 381.552 451.278 381.025C450.719 380.497 450.271 379.865 449.935 379.129C449.615 378.378 449.455 377.546 449.455 376.635C449.455 375.723 449.615 374.899 449.935 374.164C450.271 373.412 450.719 372.772 451.278 372.244C451.838 371.717 452.502 371.309 453.27 371.021C454.037 370.733 454.853 370.589 455.717 370.589C456.516 370.589 457.244 370.733 457.9 371.021C458.571 371.293 459.139 371.693 459.603 372.22C460.083 372.748 460.45 373.404 460.706 374.188C460.978 374.955 461.114 375.843 461.114 376.85V377.642H452.334ZM458.235 375.483C458.219 374.635 457.956 373.972 457.444 373.492C456.932 372.996 456.22 372.748 455.309 372.748C454.445 372.748 453.757 372.996 453.246 373.492C452.75 373.988 452.446 374.651 452.334 375.483H458.235Z" fill="#C0CAD2"/>
<path d="M469.948 374.068C469.388 373.284 468.636 372.892 467.693 372.892C467.309 372.892 466.933 372.988 466.565 373.18C466.197 373.372 466.013 373.684 466.013 374.116C466.013 374.467 466.165 374.723 466.469 374.883C466.773 375.043 467.157 375.179 467.621 375.291C468.084 375.403 468.58 375.523 469.108 375.651C469.652 375.763 470.156 375.947 470.619 376.203C471.083 376.443 471.467 376.778 471.771 377.21C472.075 377.642 472.227 378.234 472.227 378.986C472.227 379.673 472.075 380.257 471.771 380.737C471.483 381.201 471.099 381.576 470.619 381.864C470.156 382.152 469.628 382.36 469.036 382.488C468.444 382.616 467.853 382.68 467.261 382.68C466.365 382.68 465.542 382.552 464.79 382.296C464.038 382.04 463.366 381.576 462.775 380.905L464.694 379.105C465.062 379.521 465.454 379.865 465.869 380.137C466.301 380.393 466.821 380.521 467.429 380.521C467.637 380.521 467.853 380.497 468.076 380.449C468.3 380.401 468.508 380.321 468.7 380.209C468.892 380.097 469.044 379.961 469.156 379.801C469.284 379.625 469.348 379.425 469.348 379.201C469.348 378.802 469.196 378.506 468.892 378.314C468.588 378.122 468.204 377.97 467.741 377.858C467.277 377.73 466.773 377.618 466.229 377.522C465.701 377.41 465.206 377.242 464.742 377.018C464.278 376.778 463.894 376.451 463.59 376.035C463.286 375.619 463.135 375.043 463.135 374.308C463.135 373.668 463.262 373.116 463.518 372.652C463.79 372.172 464.142 371.781 464.574 371.477C465.006 371.173 465.502 370.949 466.061 370.805C466.621 370.661 467.189 370.589 467.765 370.589C468.532 370.589 469.292 370.725 470.044 370.997C470.795 371.253 471.403 371.701 471.867 372.34L469.948 374.068Z" fill="#C0CAD2"/>
<path d="M474.514 370.877H477.392V382.392H474.514V370.877ZM474.106 366.967C474.106 366.503 474.274 366.103 474.61 365.767C474.962 365.415 475.401 365.239 475.929 365.239C476.457 365.239 476.897 365.407 477.249 365.743C477.616 366.063 477.8 366.471 477.8 366.967C477.8 367.462 477.616 367.878 477.249 368.214C476.897 368.534 476.457 368.694 475.929 368.694C475.401 368.694 474.962 368.526 474.61 368.19C474.274 367.838 474.106 367.43 474.106 366.967Z" fill="#C0CAD2"/>
<path d="M492.548 370.877V381.36C492.548 382.4 492.42 383.336 492.164 384.167C491.909 385.015 491.509 385.727 490.965 386.302C490.437 386.894 489.766 387.35 488.95 387.67C488.134 387.99 487.167 388.15 486.047 388.15C484.976 388.15 483.96 388.014 483 387.742C482.041 387.47 481.153 386.974 480.338 386.254L482.065 383.903C482.641 384.431 483.24 384.839 483.864 385.127C484.488 385.415 485.207 385.559 486.023 385.559C486.711 385.559 487.287 385.463 487.75 385.271C488.23 385.079 488.606 384.815 488.878 384.479C489.166 384.143 489.366 383.735 489.478 383.256C489.606 382.792 489.67 382.272 489.67 381.696V380.857H489.622C489.206 381.416 488.654 381.84 487.966 382.128C487.279 382.4 486.575 382.536 485.855 382.536C484.992 382.536 484.208 382.384 483.504 382.08C482.8 381.76 482.193 381.336 481.681 380.809C481.185 380.281 480.801 379.657 480.529 378.938C480.258 378.218 480.122 377.45 480.122 376.635C480.122 375.787 480.25 374.995 480.505 374.26C480.761 373.524 481.137 372.884 481.633 372.34C482.129 371.797 482.721 371.373 483.408 371.069C484.112 370.749 484.912 370.589 485.807 370.589C486.623 370.589 487.383 370.749 488.086 371.069C488.79 371.389 489.35 371.901 489.765 372.604H489.813V370.877H492.548ZM486.407 373.18C485.895 373.18 485.431 373.268 485.016 373.444C484.6 373.604 484.24 373.836 483.936 374.14C483.648 374.427 483.416 374.787 483.24 375.219C483.08 375.635 483 376.099 483 376.611C483 377.074 483.08 377.506 483.24 377.906C483.416 378.306 483.656 378.658 483.96 378.962C484.264 379.265 484.624 379.505 485.04 379.681C485.455 379.857 485.903 379.945 486.383 379.945C486.911 379.945 487.383 379.857 487.798 379.681C488.23 379.505 488.59 379.273 488.878 378.986C489.182 378.682 489.414 378.322 489.574 377.906C489.734 377.49 489.813 377.042 489.813 376.563C489.813 375.555 489.51 374.739 488.902 374.116C488.294 373.492 487.462 373.18 486.407 373.18Z" fill="#C0CAD2"/>
<path d="M495.808 370.877H498.543V372.724H498.591C498.863 372.148 499.279 371.653 499.838 371.237C500.398 370.805 501.158 370.589 502.117 370.589C502.885 370.589 503.533 370.717 504.061 370.973C504.604 371.229 505.044 371.565 505.38 371.981C505.716 372.396 505.956 372.876 506.1 373.42C506.244 373.964 506.316 374.531 506.316 375.123V382.392H503.437V376.563C503.437 376.243 503.421 375.891 503.389 375.507C503.357 375.107 503.269 374.739 503.125 374.403C502.997 374.052 502.789 373.764 502.501 373.54C502.213 373.3 501.821 373.18 501.326 373.18C500.846 373.18 500.438 373.26 500.102 373.42C499.782 373.58 499.51 373.796 499.287 374.068C499.079 374.34 498.927 374.651 498.831 375.003C498.735 375.355 498.687 375.723 498.687 376.107V382.392H495.808V370.877Z" fill="#C0CAD2"/>
<path d="M511.886 377.642C511.982 378.506 512.318 379.177 512.894 379.657C513.47 380.137 514.165 380.377 514.981 380.377C515.701 380.377 516.3 380.233 516.78 379.945C517.276 379.641 517.708 379.265 518.076 378.818L520.139 380.377C519.467 381.209 518.715 381.8 517.884 382.152C517.052 382.504 516.181 382.68 515.269 382.68C514.405 382.68 513.59 382.536 512.822 382.248C512.054 381.96 511.391 381.552 510.831 381.025C510.271 380.497 509.823 379.865 509.487 379.129C509.168 378.378 509.008 377.546 509.008 376.635C509.008 375.723 509.168 374.899 509.487 374.164C509.823 373.412 510.271 372.772 510.831 372.244C511.391 371.717 512.054 371.309 512.822 371.021C513.59 370.733 514.405 370.589 515.269 370.589C516.069 370.589 516.796 370.733 517.452 371.021C518.124 371.293 518.691 371.693 519.155 372.22C519.635 372.748 520.003 373.404 520.259 374.188C520.531 374.955 520.667 375.843 520.667 376.85V377.642H511.886ZM517.788 375.483C517.772 374.635 517.508 373.972 516.996 373.492C516.484 372.996 515.773 372.748 514.861 372.748C513.997 372.748 513.31 372.996 512.798 373.492C512.302 373.988 511.998 374.651 511.886 375.483H517.788Z" fill="#C0CAD2"/>
<path d="M523.359 370.877H526.237V372.7H526.285C526.605 372.029 527.061 371.509 527.653 371.141C528.245 370.773 528.924 370.589 529.692 370.589C529.868 370.589 530.036 370.605 530.196 370.637C530.372 370.669 530.548 370.709 530.724 370.757V373.54C530.484 373.476 530.244 373.428 530.004 373.396C529.78 373.348 529.556 373.324 529.332 373.324C528.66 373.324 528.117 373.452 527.701 373.708C527.301 373.948 526.989 374.228 526.765 374.547C526.557 374.867 526.413 375.187 526.333 375.507C526.269 375.827 526.237 376.067 526.237 376.227V382.392H523.359V370.877Z" fill="#C0CAD2"/>
<path d="M571.946 365.152H578.639C579.758 365.152 580.838 365.327 581.878 365.679C582.917 366.015 583.837 366.535 584.636 367.239C585.436 367.942 586.076 368.83 586.555 369.901C587.035 370.957 587.275 372.204 587.275 373.644C587.275 375.099 586.995 376.363 586.436 377.434C585.892 378.49 585.18 379.369 584.3 380.073C583.437 380.761 582.469 381.281 581.398 381.632C580.342 381.968 579.303 382.136 578.279 382.136H571.946V365.152ZM577.224 379.401C578.167 379.401 579.055 379.297 579.886 379.089C580.734 378.866 581.47 378.53 582.093 378.082C582.717 377.618 583.205 377.026 583.557 376.307C583.925 375.571 584.109 374.683 584.109 373.644C584.109 372.62 583.949 371.741 583.629 371.005C583.309 370.269 582.861 369.678 582.285 369.23C581.726 368.766 581.054 368.43 580.27 368.222C579.503 367.998 578.655 367.886 577.727 367.886H574.968V379.401H577.224Z" fill="#C0CAD2"/>
<path d="M592.188 377.386C592.284 378.25 592.62 378.922 593.196 379.401C593.771 379.881 594.467 380.121 595.283 380.121C596.002 380.121 596.602 379.977 597.082 379.689C597.578 379.385 598.009 379.01 598.377 378.562L600.44 380.121C599.769 380.953 599.017 381.544 598.185 381.896C597.354 382.248 596.482 382.424 595.571 382.424C594.707 382.424 593.891 382.28 593.124 381.992C592.356 381.704 591.692 381.297 591.132 380.769C590.573 380.241 590.125 379.609 589.789 378.874C589.469 378.122 589.309 377.29 589.309 376.379C589.309 375.467 589.469 374.643 589.789 373.908C590.125 373.156 590.573 372.516 591.132 371.989C591.692 371.461 592.356 371.053 593.124 370.765C593.891 370.477 594.707 370.333 595.571 370.333C596.37 370.333 597.098 370.477 597.754 370.765C598.425 371.037 598.993 371.437 599.457 371.965C599.937 372.492 600.304 373.148 600.56 373.932C600.832 374.699 600.968 375.587 600.968 376.595V377.386H592.188ZM598.089 375.227C598.073 374.38 597.81 373.716 597.298 373.236C596.786 372.74 596.074 372.492 595.163 372.492C594.299 372.492 593.611 372.74 593.1 373.236C592.604 373.732 592.3 374.396 592.188 375.227H598.089Z" fill="#C0CAD2"/>
<path d="M602.101 370.621H605.244L608.314 378.682H608.362L611.457 370.621H614.408L609.874 382.136H606.803L602.101 370.621Z" fill="#C0CAD2"/>
<path d="M618.403 377.386C618.499 378.25 618.835 378.922 619.411 379.401C619.987 379.881 620.682 380.121 621.498 380.121C622.218 380.121 622.817 379.977 623.297 379.689C623.793 379.385 624.225 379.01 624.593 378.562L626.656 380.121C625.984 380.953 625.232 381.544 624.401 381.896C623.569 382.248 622.697 382.424 621.786 382.424C620.922 382.424 620.107 382.28 619.339 381.992C618.571 381.704 617.907 381.297 617.348 380.769C616.788 380.241 616.34 379.609 616.004 378.874C615.684 378.122 615.524 377.29 615.524 376.379C615.524 375.467 615.684 374.643 616.004 373.908C616.34 373.156 616.788 372.516 617.348 371.989C617.907 371.461 618.571 371.053 619.339 370.765C620.107 370.477 620.922 370.333 621.786 370.333C622.585 370.333 623.313 370.477 623.969 370.765C624.641 371.037 625.208 371.437 625.672 371.965C626.152 372.492 626.52 373.148 626.776 373.932C627.048 374.699 627.183 375.587 627.183 376.595V377.386H618.403ZM624.305 375.227C624.289 374.38 624.025 373.716 623.513 373.236C623.001 372.74 622.29 372.492 621.378 372.492C620.514 372.492 619.827 372.74 619.315 373.236C618.819 373.732 618.515 374.396 618.403 375.227H624.305Z" fill="#C0CAD2"/>
<path d="M629.924 364H632.802V382.136H629.924V364Z" fill="#C0CAD2"/>
<path d="M635.531 376.379C635.531 375.467 635.691 374.643 636.011 373.908C636.347 373.156 636.795 372.516 637.355 371.989C637.914 371.461 638.578 371.053 639.346 370.765C640.114 370.477 640.929 370.333 641.793 370.333C642.656 370.333 643.472 370.477 644.24 370.765C645.007 371.053 645.671 371.461 646.231 371.989C646.791 372.516 647.23 373.156 647.55 373.908C647.886 374.643 648.054 375.467 648.054 376.379C648.054 377.29 647.886 378.122 647.55 378.874C647.23 379.609 646.791 380.241 646.231 380.769C645.671 381.297 645.007 381.704 644.24 381.992C643.472 382.28 642.656 382.424 641.793 382.424C640.929 382.424 640.114 382.28 639.346 381.992C638.578 381.704 637.914 381.297 637.355 380.769C636.795 380.241 636.347 379.609 636.011 378.874C635.691 378.122 635.531 377.29 635.531 376.379ZM638.41 376.379C638.41 376.826 638.482 377.258 638.626 377.674C638.786 378.09 639.01 378.458 639.298 378.778C639.602 379.097 639.962 379.353 640.377 379.545C640.793 379.737 641.265 379.833 641.793 379.833C642.321 379.833 642.792 379.737 643.208 379.545C643.624 379.353 643.976 379.097 644.264 378.778C644.568 378.458 644.791 378.09 644.935 377.674C645.095 377.258 645.175 376.826 645.175 376.379C645.175 375.931 645.095 375.499 644.935 375.083C644.791 374.667 644.568 374.3 644.264 373.98C643.976 373.66 643.624 373.404 643.208 373.212C642.792 373.02 642.321 372.924 641.793 372.924C641.265 372.924 640.793 373.02 640.377 373.212C639.962 373.404 639.602 373.66 639.298 373.98C639.01 374.3 638.786 374.667 638.626 375.083C638.482 375.499 638.41 375.931 638.41 376.379Z" fill="#C0CAD2"/>
<path d="M650.749 370.621H653.484V372.348H653.532C653.948 371.645 654.508 371.133 655.211 370.813C655.915 370.493 656.675 370.333 657.49 370.333C658.37 370.333 659.162 370.493 659.865 370.813C660.569 371.117 661.169 371.541 661.665 372.085C662.16 372.628 662.536 373.268 662.792 374.004C663.048 374.739 663.176 375.531 663.176 376.379C663.176 377.226 663.04 378.018 662.768 378.754C662.496 379.489 662.112 380.129 661.617 380.673C661.137 381.217 660.553 381.648 659.865 381.968C659.178 382.272 658.426 382.424 657.61 382.424C657.067 382.424 656.587 382.368 656.171 382.256C655.755 382.144 655.387 382 655.067 381.824C654.748 381.648 654.476 381.464 654.252 381.273C654.028 381.065 653.844 380.865 653.7 380.673H653.628V387.606H650.749V370.621ZM660.297 376.379C660.297 375.931 660.217 375.499 660.057 375.083C659.913 374.667 659.689 374.3 659.386 373.98C659.098 373.66 658.746 373.404 658.33 373.212C657.914 373.02 657.442 372.924 656.915 372.924C656.387 372.924 655.915 373.02 655.499 373.212C655.083 373.404 654.724 373.66 654.42 373.98C654.132 374.3 653.908 374.667 653.748 375.083C653.604 375.499 653.532 375.931 653.532 376.379C653.532 376.826 653.604 377.258 653.748 377.674C653.908 378.09 654.132 378.458 654.42 378.778C654.724 379.097 655.083 379.353 655.499 379.545C655.915 379.737 656.387 379.833 656.915 379.833C657.442 379.833 657.914 379.737 658.33 379.545C658.746 379.353 659.098 379.097 659.386 378.778C659.689 378.458 659.913 378.09 660.057 377.674C660.217 377.258 660.297 376.826 660.297 376.379Z" fill="#C0CAD2"/>
<path d="M668.163 377.386C668.259 378.25 668.595 378.922 669.171 379.401C669.746 379.881 670.442 380.121 671.258 380.121C671.977 380.121 672.577 379.977 673.057 379.689C673.553 379.385 673.985 379.01 674.352 378.562L676.415 380.121C675.744 380.953 674.992 381.544 674.16 381.896C673.329 382.248 672.457 382.424 671.546 382.424C670.682 382.424 669.866 382.28 669.099 381.992C668.331 381.704 667.667 381.297 667.107 380.769C666.548 380.241 666.1 379.609 665.764 378.874C665.444 378.122 665.284 377.29 665.284 376.379C665.284 375.467 665.444 374.643 665.764 373.908C666.1 373.156 666.548 372.516 667.107 371.989C667.667 371.461 668.331 371.053 669.099 370.765C669.866 370.477 670.682 370.333 671.546 370.333C672.345 370.333 673.073 370.477 673.729 370.765C674.4 371.037 674.968 371.437 675.432 371.965C675.912 372.492 676.28 373.148 676.535 373.932C676.807 374.699 676.943 375.587 676.943 376.595V377.386H668.163ZM674.064 375.227C674.048 374.38 673.785 373.716 673.273 373.236C672.761 372.74 672.049 372.492 671.138 372.492C670.274 372.492 669.586 372.74 669.075 373.236C668.579 373.732 668.275 374.396 668.163 375.227H674.064Z" fill="#C0CAD2"/>
<path d="M679.635 370.621H682.514V372.444H682.562C682.882 371.773 683.338 371.253 683.929 370.885C684.521 370.517 685.201 370.333 685.969 370.333C686.145 370.333 686.312 370.349 686.472 370.381C686.648 370.413 686.824 370.453 687 370.501V373.284C686.76 373.22 686.52 373.172 686.28 373.14C686.057 373.092 685.833 373.068 685.609 373.068C684.937 373.068 684.393 373.196 683.977 373.452C683.578 373.692 683.266 373.972 683.042 374.292C682.834 374.611 682.69 374.931 682.61 375.251C682.546 375.571 682.514 375.811 682.514 375.971V382.136H679.635V370.621Z" fill="#C0CAD2"/>
<path d="M550.371 374.875V369.598H552.818V374.875H558.096V377.322H552.818V382.6H550.371V377.322H545.094V374.875H550.371Z" fill="#C0CAD2"/>
</g>
<defs>
<clipPath id="clip0">
<rect width="1024" height="600" fill="white"/>
</clipPath>
</defs>
</svg>
