<svg width="1024" height="575" viewBox="0 0 1024 575" fill="none" xmlns="http://www.w3.org/2000/svg">
<g clip-path="url(#clip0)">
<path fill-rule="evenodd" clip-rule="evenodd" d="M1024 0H0V575H1024V0ZM512.5 353C536.524 353 556 333.524 556 309.5C556 285.476 536.524 266 512.5 266C488.476 266 469 285.476 469 309.5C469 333.524 488.476 353 512.5 353Z" fill="white"/>
<path d="M334.66 135.512H339.196V145.664H351.112V135.512H355.648V161H351.112V149.768H339.196V161H334.66V135.512ZM364.404 153.872C364.548 155.168 365.052 156.176 365.916 156.896C366.78 157.616 367.824 157.976 369.048 157.976C370.128 157.976 371.028 157.76 371.748 157.328C372.492 156.872 373.14 156.308 373.692 155.636L376.788 157.976C375.78 159.224 374.652 160.112 373.404 160.64C372.156 161.168 370.848 161.432 369.48 161.432C368.184 161.432 366.96 161.216 365.808 160.784C364.656 160.352 363.66 159.74 362.82 158.948C361.98 158.156 361.308 157.208 360.804 156.104C360.324 154.976 360.084 153.728 360.084 152.36C360.084 150.992 360.324 149.756 360.804 148.652C361.308 147.524 361.98 146.564 362.82 145.772C363.66 144.98 364.656 144.368 365.808 143.936C366.96 143.504 368.184 143.288 369.48 143.288C370.68 143.288 371.772 143.504 372.756 143.936C373.764 144.344 374.616 144.944 375.312 145.736C376.032 146.528 376.584 147.512 376.968 148.688C377.376 149.84 377.58 151.172 377.58 152.684V153.872H364.404ZM373.26 150.632C373.236 149.36 372.84 148.364 372.072 147.644C371.304 146.9 370.236 146.528 368.868 146.528C367.572 146.528 366.54 146.9 365.772 147.644C365.028 148.388 364.572 149.384 364.404 150.632H373.26ZM381.692 133.784H386.012V161H381.692V133.784ZM391.079 133.784H395.399V161H391.079V133.784ZM399.494 152.36C399.494 150.992 399.734 149.756 400.214 148.652C400.718 147.524 401.39 146.564 402.23 145.772C403.07 144.98 404.066 144.368 405.218 143.936C406.37 143.504 407.594 143.288 408.89 143.288C410.186 143.288 411.41 143.504 412.562 143.936C413.714 144.368 414.71 144.98 415.55 145.772C416.39 146.564 417.05 147.524 417.53 148.652C418.034 149.756 418.286 150.992 418.286 152.36C418.286 153.728 418.034 154.976 417.53 156.104C417.05 157.208 416.39 158.156 415.55 158.948C414.71 159.74 413.714 160.352 412.562 160.784C411.41 161.216 410.186 161.432 408.89 161.432C407.594 161.432 406.37 161.216 405.218 160.784C404.066 160.352 403.07 159.74 402.23 158.948C401.39 158.156 400.718 157.208 400.214 156.104C399.734 154.976 399.494 153.728 399.494 152.36ZM403.814 152.36C403.814 153.032 403.922 153.68 404.138 154.304C404.378 154.928 404.714 155.48 405.146 155.96C405.602 156.44 406.142 156.824 406.766 157.112C407.39 157.4 408.098 157.544 408.89 157.544C409.682 157.544 410.39 157.4 411.014 157.112C411.638 156.824 412.166 156.44 412.598 155.96C413.054 155.48 413.39 154.928 413.606 154.304C413.846 153.68 413.966 153.032 413.966 152.36C413.966 151.688 413.846 151.04 413.606 150.416C413.39 149.792 413.054 149.24 412.598 148.76C412.166 148.28 411.638 147.896 411.014 147.608C410.39 147.32 409.682 147.176 408.89 147.176C408.098 147.176 407.39 147.32 406.766 147.608C406.142 147.896 405.602 148.28 405.146 148.76C404.714 149.24 404.378 149.792 404.138 150.416C403.922 151.04 403.814 151.688 403.814 152.36ZM423.771 156.032H428.163L425.103 165.536H421.251L423.771 156.032ZM443.924 135.512H448.46V161H443.924V135.512ZM455.599 135.512H459.991L456.931 145.016H453.079L455.599 135.512ZM464.127 143.72H468.231V146.42H468.303C468.687 145.604 469.299 144.884 470.139 144.26C471.003 143.612 472.155 143.288 473.595 143.288C476.307 143.288 478.107 144.356 478.995 146.492C479.619 145.388 480.399 144.584 481.335 144.08C482.271 143.552 483.387 143.288 484.683 143.288C485.835 143.288 486.807 143.48 487.599 143.864C488.391 144.248 489.027 144.776 489.507 145.448C490.011 146.12 490.371 146.912 490.587 147.824C490.803 148.712 490.911 149.672 490.911 150.704V161H486.591V151.208C486.591 150.68 486.543 150.176 486.447 149.696C486.351 149.192 486.183 148.76 485.943 148.4C485.703 148.016 485.379 147.716 484.971 147.5C484.563 147.284 484.035 147.176 483.387 147.176C482.715 147.176 482.139 147.308 481.659 147.572C481.203 147.812 480.819 148.148 480.507 148.58C480.219 148.988 480.003 149.468 479.859 150.02C479.739 150.548 479.679 151.088 479.679 151.64V161H475.359V150.704C475.359 149.624 475.131 148.772 474.675 148.148C474.219 147.5 473.463 147.176 472.407 147.176C471.687 147.176 471.075 147.296 470.571 147.536C470.091 147.776 469.683 148.1 469.347 148.508C469.035 148.916 468.807 149.384 468.663 149.912C468.519 150.44 468.447 150.992 468.447 151.568V161H464.127V143.72ZM534.04 161H519.208C517.216 161 515.368 160.7 513.664 160.1C511.984 159.476 510.52 158.6 509.272 157.472C508.048 156.32 507.076 154.928 506.356 153.296C505.66 151.64 505.312 149.78 505.312 147.716C505.312 145.844 505.66 144.128 506.356 142.568C507.076 140.984 508.048 139.628 509.272 138.5C510.496 137.348 511.912 136.46 513.52 135.836C515.152 135.188 516.88 134.864 518.704 134.864C520.528 134.864 522.244 135.188 523.852 135.836C525.484 136.46 526.912 137.348 528.136 138.5C529.36 139.628 530.32 140.984 531.016 142.568C531.736 144.128 532.096 145.844 532.096 147.716C532.096 149.06 531.928 150.248 531.592 151.28C531.28 152.288 530.86 153.188 530.332 153.98C529.804 154.748 529.216 155.396 528.568 155.924C527.944 156.452 527.332 156.896 526.732 157.256V157.328H534.04V161ZM518.596 138.968C517.372 138.968 516.232 139.196 515.176 139.652C514.144 140.084 513.244 140.696 512.476 141.488C511.732 142.28 511.144 143.216 510.712 144.296C510.28 145.376 510.064 146.552 510.064 147.824C510.064 149.12 510.28 150.332 510.712 151.46C511.144 152.564 511.744 153.524 512.512 154.34C513.28 155.132 514.18 155.756 515.212 156.212C516.268 156.668 517.42 156.896 518.668 156.896C519.916 156.896 521.068 156.668 522.124 156.212C523.204 155.756 524.128 155.132 524.896 154.34C525.664 153.524 526.264 152.564 526.696 151.46C527.128 150.332 527.344 149.12 527.344 147.824C527.344 146.552 527.128 145.376 526.696 144.296C526.264 143.216 525.664 142.28 524.896 141.488C524.128 140.696 523.204 140.084 522.124 139.652C521.068 139.196 519.892 138.968 518.596 138.968ZM537.012 143.72H541.332V161H537.012V143.72ZM536.4 137.852C536.4 137.156 536.652 136.556 537.156 136.052C537.684 135.524 538.344 135.26 539.136 135.26C539.928 135.26 540.588 135.512 541.116 136.016C541.668 136.496 541.944 137.108 541.944 137.852C541.944 138.596 541.668 139.22 541.116 139.724C540.588 140.204 539.928 140.444 539.136 140.444C538.344 140.444 537.684 140.192 537.156 139.688C536.652 139.16 536.4 138.548 536.4 137.852ZM557.092 158.624H556.984C556.36 159.608 555.568 160.328 554.608 160.784C553.648 161.216 552.592 161.432 551.44 161.432C550.648 161.432 549.868 161.324 549.1 161.108C548.356 160.892 547.684 160.568 547.084 160.136C546.508 159.704 546.04 159.164 545.68 158.516C545.32 157.868 545.14 157.112 545.14 156.248C545.14 155.312 545.308 154.52 545.644 153.872C545.98 153.2 546.424 152.648 546.976 152.216C547.552 151.76 548.212 151.4 548.956 151.136C549.7 150.872 550.468 150.68 551.26 150.56C552.076 150.416 552.892 150.332 553.708 150.308C554.524 150.26 555.292 150.236 556.012 150.236H557.092V149.768C557.092 148.688 556.72 147.884 555.976 147.356C555.232 146.804 554.284 146.528 553.132 146.528C552.22 146.528 551.368 146.696 550.576 147.032C549.784 147.344 549.1 147.776 548.524 148.328L546.256 146.06C547.216 145.076 548.332 144.368 549.604 143.936C550.9 143.504 552.232 143.288 553.6 143.288C554.824 143.288 555.856 143.432 556.696 143.72C557.536 143.984 558.232 144.332 558.784 144.764C559.336 145.196 559.756 145.7 560.044 146.276C560.356 146.828 560.572 147.392 560.692 147.968C560.836 148.544 560.92 149.108 560.944 149.66C560.968 150.188 560.98 150.656 560.98 151.064V161H557.092V158.624ZM556.84 153.26H555.94C555.34 153.26 554.668 153.284 553.924 153.332C553.18 153.38 552.472 153.5 551.8 153.692C551.152 153.86 550.6 154.124 550.144 154.484C549.688 154.82 549.46 155.3 549.46 155.924C549.46 156.332 549.544 156.68 549.712 156.968C549.904 157.232 550.144 157.46 550.432 157.652C550.72 157.844 551.044 157.988 551.404 158.084C551.764 158.156 552.124 158.192 552.484 158.192C553.972 158.192 555.064 157.844 555.76 157.148C556.48 156.428 556.84 155.456 556.84 154.232V153.26ZM565.628 143.72H569.732V146.492H569.804C570.212 145.628 570.836 144.884 571.676 144.26C572.516 143.612 573.656 143.288 575.096 143.288C576.248 143.288 577.22 143.48 578.012 143.864C578.828 144.248 579.488 144.752 579.992 145.376C580.496 146 580.856 146.72 581.072 147.536C581.288 148.352 581.396 149.204 581.396 150.092V161H577.076V152.252C577.076 151.772 577.052 151.244 577.004 150.668C576.956 150.068 576.824 149.516 576.608 149.012C576.416 148.484 576.104 148.052 575.672 147.716C575.24 147.356 574.652 147.176 573.908 147.176C573.188 147.176 572.576 147.296 572.072 147.536C571.592 147.776 571.184 148.1 570.848 148.508C570.536 148.916 570.308 149.384 570.164 149.912C570.02 150.44 569.948 150.992 569.948 151.568V161H565.628V143.72ZM594.504 135.512H599.472L604.26 153.872H604.332L610.056 135.512H614.52L620.136 153.872H620.208L625.212 135.512H629.82L622.404 161H618.084L612.18 141.596H612.108L606.204 161H602.028L594.504 135.512ZM641.748 158.624H641.64C641.016 159.608 640.224 160.328 639.264 160.784C638.304 161.216 637.248 161.432 636.096 161.432C635.304 161.432 634.524 161.324 633.756 161.108C633.012 160.892 632.34 160.568 631.74 160.136C631.164 159.704 630.696 159.164 630.336 158.516C629.976 157.868 629.796 157.112 629.796 156.248C629.796 155.312 629.964 154.52 630.3 153.872C630.636 153.2 631.08 152.648 631.632 152.216C632.208 151.76 632.868 151.4 633.612 151.136C634.356 150.872 635.124 150.68 635.916 150.56C636.732 150.416 637.548 150.332 638.364 150.308C639.18 150.26 639.948 150.236 640.668 150.236H641.748V149.768C641.748 148.688 641.376 147.884 640.632 147.356C639.888 146.804 638.94 146.528 637.788 146.528C636.876 146.528 636.024 146.696 635.232 147.032C634.44 147.344 633.756 147.776 633.18 148.328L630.912 146.06C631.872 145.076 632.988 144.368 634.26 143.936C635.556 143.504 636.888 143.288 638.256 143.288C639.48 143.288 640.512 143.432 641.352 143.72C642.192 143.984 642.888 144.332 643.44 144.764C643.992 145.196 644.412 145.7 644.7 146.276C645.012 146.828 645.228 147.392 645.348 147.968C645.492 148.544 645.576 149.108 645.6 149.66C645.624 150.188 645.636 150.656 645.636 151.064V161H641.748V158.624ZM641.496 153.26H640.596C639.996 153.26 639.324 153.284 638.58 153.332C637.836 153.38 637.128 153.5 636.456 153.692C635.808 153.86 635.256 154.124 634.8 154.484C634.344 154.82 634.116 155.3 634.116 155.924C634.116 156.332 634.2 156.68 634.368 156.968C634.56 157.232 634.8 157.46 635.088 157.652C635.376 157.844 635.7 157.988 636.06 158.084C636.42 158.156 636.78 158.192 637.14 158.192C638.628 158.192 639.72 157.844 640.416 157.148C641.136 156.428 641.496 155.456 641.496 154.232V153.26ZM650.284 143.72H654.388V146.492H654.46C654.868 145.628 655.492 144.884 656.332 144.26C657.172 143.612 658.312 143.288 659.752 143.288C660.904 143.288 661.876 143.48 662.668 143.864C663.484 144.248 664.144 144.752 664.648 145.376C665.152 146 665.512 146.72 665.728 147.536C665.944 148.352 666.052 149.204 666.052 150.092V161H661.732V152.252C661.732 151.772 661.708 151.244 661.66 150.668C661.612 150.068 661.48 149.516 661.264 149.012C661.072 148.484 660.76 148.052 660.328 147.716C659.896 147.356 659.308 147.176 658.564 147.176C657.844 147.176 657.232 147.296 656.728 147.536C656.248 147.776 655.84 148.1 655.504 148.508C655.192 148.916 654.964 149.384 654.82 149.912C654.676 150.44 654.604 150.992 654.604 151.568V161H650.284V143.72ZM688.74 143.72V159.452C688.74 161.012 688.548 162.416 688.164 163.664C687.78 164.936 687.18 166.004 686.364 166.868C685.572 167.756 684.564 168.44 683.34 168.92C682.116 169.4 680.664 169.64 678.984 169.64C677.376 169.64 675.852 169.436 674.412 169.028C672.972 168.62 671.64 167.876 670.416 166.796L673.008 163.268C673.872 164.06 674.772 164.672 675.708 165.104C676.644 165.536 677.724 165.752 678.948 165.752C679.98 165.752 680.844 165.608 681.54 165.32C682.26 165.032 682.824 164.636 683.232 164.132C683.664 163.628 683.964 163.016 684.132 162.296C684.324 161.6 684.42 160.82 684.42 159.956V158.696H684.348C683.724 159.536 682.896 160.172 681.864 160.604C680.832 161.012 679.776 161.216 678.696 161.216C677.4 161.216 676.224 160.988 675.168 160.532C674.112 160.052 673.2 159.416 672.432 158.624C671.688 157.832 671.112 156.896 670.704 155.816C670.296 154.736 670.092 153.584 670.092 152.36C670.092 151.088 670.284 149.9 670.668 148.796C671.052 147.692 671.616 146.732 672.36 145.916C673.104 145.1 673.992 144.464 675.024 144.008C676.08 143.528 677.28 143.288 678.624 143.288C679.848 143.288 680.988 143.528 682.044 144.008C683.1 144.488 683.94 145.256 684.564 146.312H684.636V143.72H688.74ZM679.524 147.176C678.756 147.176 678.06 147.308 677.436 147.572C676.812 147.812 676.272 148.16 675.816 148.616C675.384 149.048 675.036 149.588 674.772 150.236C674.532 150.86 674.412 151.556 674.412 152.324C674.412 153.02 674.532 153.668 674.772 154.268C675.036 154.868 675.396 155.396 675.852 155.852C676.308 156.308 676.848 156.668 677.472 156.932C678.096 157.196 678.768 157.328 679.488 157.328C680.28 157.328 680.988 157.196 681.612 156.932C682.26 156.668 682.8 156.32 683.232 155.888C683.688 155.432 684.036 154.892 684.276 154.268C684.516 153.644 684.636 152.972 684.636 152.252C684.636 150.74 684.18 149.516 683.268 148.58C682.356 147.644 681.108 147.176 679.524 147.176Z" fill="#FF8A8A"/>
<path d="M518.405 173.248H516.917L515.189 185.536H516.677L516.549 186.496H513.909L515.893 172.288H518.533L518.405 173.248ZM525.249 178.384C525.025 178.064 524.769 177.835 524.481 177.696C524.193 177.547 523.862 177.472 523.489 177.472C523.073 177.472 522.694 177.547 522.353 177.696C522.022 177.835 521.729 178.032 521.473 178.288C521.228 178.544 521.025 178.843 520.865 179.184C520.716 179.515 520.614 179.872 520.561 180.256C520.508 180.64 520.518 181.003 520.593 181.344C520.668 181.675 520.796 181.968 520.977 182.224C521.169 182.48 521.409 182.683 521.697 182.832C521.985 182.971 522.321 183.04 522.705 183.04C523.516 183.04 524.193 182.731 524.737 182.112L525.537 182.992C525.121 183.408 524.652 183.712 524.129 183.904C523.617 184.096 523.089 184.192 522.545 184.192C521.969 184.192 521.452 184.096 520.993 183.904C520.545 183.712 520.177 183.44 519.889 183.088C519.601 182.736 519.393 182.32 519.265 181.84C519.148 181.36 519.132 180.832 519.217 180.256C519.292 179.691 519.457 179.168 519.713 178.688C519.969 178.208 520.294 177.792 520.689 177.44C521.084 177.088 521.532 176.816 522.033 176.624C522.534 176.421 523.073 176.32 523.649 176.32C524.204 176.32 524.716 176.416 525.185 176.608C525.654 176.8 526.049 177.099 526.369 177.504L525.249 178.384ZM528.552 171.904H529.8L529 177.552H529.032C529.139 177.403 529.277 177.259 529.448 177.12C529.619 176.971 529.816 176.837 530.04 176.72C530.264 176.603 530.509 176.507 530.776 176.432C531.043 176.357 531.32 176.32 531.608 176.32C532.099 176.32 532.509 176.395 532.84 176.544C533.181 176.693 533.448 176.901 533.64 177.168C533.843 177.435 533.971 177.76 534.024 178.144C534.088 178.517 534.088 178.928 534.024 179.376L533.384 184H532.136L532.76 179.504C532.845 178.875 532.776 178.379 532.552 178.016C532.328 177.653 531.923 177.472 531.336 177.472C530.525 177.472 529.896 177.739 529.448 178.272C529.011 178.805 528.733 179.499 528.616 180.352L528.104 184H526.856L528.552 171.904ZM536.899 176.512H538.147L537.107 184H535.859L536.899 176.512ZM537.027 173.584C537.059 173.339 537.176 173.125 537.379 172.944C537.581 172.763 537.811 172.672 538.067 172.672C538.323 172.672 538.525 172.763 538.674 172.944C538.824 173.125 538.883 173.339 538.851 173.584C538.808 173.851 538.691 174.069 538.499 174.24C538.307 174.411 538.077 174.496 537.811 174.496C537.544 174.496 537.336 174.411 537.187 174.24C537.037 174.069 536.984 173.851 537.027 173.584ZM541.622 176.512H540.406L542.022 172.672H543.478L541.622 176.512ZM544.859 177.472C545.307 177.077 545.803 176.789 546.347 176.608C546.902 176.416 547.451 176.32 547.995 176.32C549.105 176.32 549.867 176.581 550.283 177.104C550.699 177.627 550.833 178.421 550.683 179.488L550.235 182.704C550.203 182.917 550.182 183.141 550.171 183.376C550.161 183.6 550.161 183.808 550.171 184H548.971C548.95 183.829 548.95 183.643 548.971 183.44C548.993 183.227 549.014 183.04 549.035 182.88H549.003C548.705 183.264 548.331 183.579 547.883 183.824C547.446 184.069 546.939 184.192 546.363 184.192C545.979 184.192 545.627 184.144 545.307 184.048C544.987 183.952 544.71 183.813 544.475 183.632C544.251 183.44 544.081 183.205 543.963 182.928C543.857 182.651 543.83 182.331 543.883 181.968C543.969 181.349 544.193 180.864 544.555 180.512C544.929 180.16 545.366 179.899 545.867 179.728C546.369 179.557 546.897 179.451 547.451 179.408C548.006 179.365 548.513 179.344 548.971 179.344H549.451L549.483 179.12C549.569 178.576 549.467 178.165 549.179 177.888C548.891 177.611 548.454 177.472 547.867 177.472C547.462 177.472 547.051 177.541 546.635 177.68C546.23 177.808 545.862 178.011 545.531 178.288L544.859 177.472ZM548.059 180.4C547.259 180.4 546.609 180.512 546.107 180.736C545.606 180.96 545.318 181.328 545.243 181.84C545.179 182.309 545.291 182.645 545.579 182.848C545.867 183.04 546.246 183.136 546.715 183.136C547.078 183.136 547.403 183.077 547.691 182.96C547.979 182.832 548.23 182.667 548.443 182.464C548.657 182.261 548.827 182.027 548.955 181.76C549.094 181.483 549.19 181.189 549.243 180.88L549.307 180.4H548.059ZM553.14 178.288C553.194 177.947 553.226 177.627 553.236 177.328C553.258 177.029 553.284 176.757 553.316 176.512H554.5C554.479 176.715 554.458 176.917 554.436 177.12C554.415 177.323 554.388 177.531 554.356 177.744H554.388C554.495 177.563 554.639 177.387 554.82 177.216C555.002 177.045 555.21 176.896 555.444 176.768C555.679 176.629 555.935 176.523 556.212 176.448C556.49 176.363 556.783 176.32 557.092 176.32C557.583 176.32 557.994 176.395 558.324 176.544C558.666 176.693 558.932 176.901 559.124 177.168C559.327 177.435 559.455 177.76 559.508 178.144C559.572 178.517 559.572 178.928 559.508 179.376L558.868 184H557.62L558.244 179.504C558.33 178.875 558.26 178.379 558.036 178.016C557.812 177.653 557.407 177.472 556.82 177.472C556.01 177.472 555.38 177.739 554.932 178.272C554.495 178.805 554.218 179.499 554.1 180.352L553.588 184H552.34L553.14 178.288ZM562.735 172.288H565.375L563.391 186.496H560.751L560.879 185.536H562.367L564.095 173.248H562.607L562.735 172.288Z" fill="#999999"/>
<path d="M356.253 417.632C356.466 418.048 356.775 418.357 357.181 418.56C357.597 418.752 358.034 418.848 358.493 418.848C358.749 418.848 359.01 418.811 359.277 418.736C359.554 418.651 359.81 418.528 360.045 418.368C360.29 418.208 360.498 418.011 360.669 417.776C360.85 417.541 360.962 417.269 361.005 416.96C361.069 416.523 360.978 416.192 360.733 415.968C360.487 415.733 360.167 415.541 359.773 415.392C359.389 415.232 358.962 415.083 358.493 414.944C358.034 414.795 357.613 414.592 357.229 414.336C356.855 414.08 356.562 413.739 356.349 413.312C356.135 412.875 356.082 412.288 356.189 411.552C356.231 411.221 356.349 410.869 356.541 410.496C356.743 410.123 357.021 409.781 357.373 409.472C357.735 409.163 358.173 408.907 358.685 408.704C359.197 408.491 359.794 408.384 360.477 408.384C360.786 408.384 361.085 408.405 361.373 408.448C361.671 408.48 361.949 408.544 362.205 408.64C362.471 408.736 362.717 408.869 362.941 409.04C363.165 409.211 363.367 409.424 363.549 409.68L362.141 410.816C361.991 410.517 361.751 410.277 361.421 410.096C361.101 409.915 360.717 409.824 360.269 409.824C359.842 409.824 359.479 409.883 359.181 410C358.882 410.107 358.637 410.251 358.445 410.432C358.253 410.603 358.103 410.789 357.997 410.992C357.901 411.195 357.842 411.381 357.821 411.552C357.757 412.032 357.842 412.4 358.077 412.656C358.322 412.912 358.637 413.12 359.021 413.28C359.415 413.44 359.842 413.584 360.301 413.712C360.77 413.84 361.197 414.021 361.581 414.256C361.965 414.48 362.263 414.789 362.477 415.184C362.701 415.568 362.765 416.101 362.669 416.784C362.583 417.328 362.407 417.819 362.141 418.256C361.874 418.693 361.543 419.061 361.149 419.36C360.754 419.659 360.306 419.888 359.805 420.048C359.303 420.208 358.781 420.288 358.237 420.288C357.501 420.288 356.829 420.165 356.221 419.92C355.613 419.664 355.154 419.264 354.845 418.72L356.253 417.632ZM369.063 413.664H366.999L366.519 417.104C366.487 417.317 366.461 417.531 366.439 417.744C366.429 417.947 366.445 418.133 366.487 418.304C366.53 418.464 366.615 418.597 366.743 418.704C366.882 418.8 367.09 418.848 367.367 418.848C367.538 418.848 367.714 418.832 367.895 418.8C368.087 418.768 368.263 418.709 368.423 418.624L368.231 419.936C368.135 419.989 368.023 420.032 367.895 420.064C367.778 420.096 367.655 420.117 367.527 420.128C367.41 420.149 367.293 420.165 367.175 420.176C367.069 420.187 366.978 420.192 366.903 420.192C366.349 420.192 365.927 420.117 365.639 419.968C365.362 419.808 365.165 419.605 365.047 419.36C364.941 419.115 364.893 418.843 364.903 418.544C364.925 418.235 364.957 417.925 364.999 417.616L365.559 413.664H363.895L364.071 412.416H365.735L366.039 410.288H367.479L367.175 412.416H369.239L369.063 413.664ZM376.761 420H375.321L375.481 418.832H375.449C375.204 419.237 374.841 419.568 374.361 419.824C373.881 420.069 373.348 420.192 372.761 420.192C372.388 420.192 372.041 420.133 371.721 420.016C371.412 419.909 371.145 419.739 370.921 419.504C370.708 419.269 370.553 418.971 370.457 418.608C370.361 418.235 370.345 417.797 370.409 417.296L371.097 412.416H372.537L371.913 416.896C371.86 417.248 371.86 417.552 371.913 417.808C371.977 418.053 372.078 418.256 372.217 418.416C372.356 418.565 372.526 418.677 372.729 418.752C372.932 418.816 373.145 418.848 373.369 418.848C373.966 418.848 374.494 418.651 374.953 418.256C375.412 417.851 375.705 417.205 375.833 416.32L376.377 412.416H377.817L376.761 420ZM386.532 420H385.092L385.236 418.912H385.204C384.862 419.317 384.436 419.632 383.924 419.856C383.412 420.08 382.9 420.192 382.388 420.192C381.801 420.192 381.284 420.091 380.836 419.888C380.388 419.685 380.02 419.403 379.732 419.04C379.454 418.677 379.257 418.256 379.14 417.776C379.022 417.296 379.006 416.773 379.092 416.208C379.166 415.643 379.332 415.12 379.588 414.64C379.844 414.149 380.164 413.728 380.548 413.376C380.932 413.013 381.374 412.731 381.876 412.528C382.377 412.325 382.921 412.224 383.508 412.224C384.052 412.224 384.542 412.341 384.98 412.576C385.428 412.8 385.758 413.109 385.972 413.504H386.004L386.788 407.904H388.228L386.532 420ZM382.756 418.848C383.14 418.848 383.492 418.784 383.812 418.656C384.142 418.517 384.43 418.336 384.676 418.112C384.921 417.877 385.124 417.6 385.284 417.28C385.454 416.949 385.566 416.592 385.62 416.208C385.673 415.824 385.662 415.472 385.588 415.152C385.524 414.821 385.396 414.544 385.204 414.32C385.022 414.085 384.788 413.904 384.5 413.776C384.212 413.637 383.876 413.568 383.492 413.568C383.108 413.568 382.75 413.637 382.42 413.776C382.1 413.904 381.812 414.085 381.556 414.32C381.31 414.544 381.108 414.821 380.948 415.152C380.788 415.472 380.681 415.824 380.628 416.208C380.574 416.592 380.58 416.949 380.644 417.28C380.718 417.6 380.846 417.877 381.028 418.112C381.209 418.336 381.444 418.517 381.732 418.656C382.03 418.784 382.372 418.848 382.756 418.848ZM388.857 412.416H390.521L391.945 418.336H391.977L394.953 412.416H396.505L391.609 421.632C391.438 421.963 391.262 422.261 391.081 422.528C390.91 422.805 390.713 423.04 390.489 423.232C390.276 423.424 390.025 423.573 389.737 423.68C389.449 423.787 389.108 423.84 388.713 423.84C388.5 423.84 388.286 423.824 388.073 423.792C387.86 423.771 387.662 423.717 387.481 423.632L387.817 422.32C388.084 422.437 388.366 422.496 388.665 422.496C388.889 422.496 389.081 422.464 389.241 422.4C389.412 422.347 389.556 422.261 389.673 422.144C389.801 422.037 389.913 421.909 390.009 421.76C390.116 421.611 390.217 421.44 390.313 421.248L390.937 420.048L388.857 412.416ZM397.881 412.416H399.321L398.265 420H396.825L397.881 412.416ZM397.929 409.696C397.972 409.408 398.11 409.163 398.345 408.96C398.58 408.747 398.841 408.64 399.129 408.64C399.417 408.64 399.652 408.747 399.833 408.96C400.014 409.163 400.084 409.408 400.041 409.696C399.998 409.984 399.86 410.235 399.625 410.448C399.39 410.651 399.129 410.752 398.841 410.752C398.553 410.752 398.318 410.651 398.137 410.448C397.956 410.235 397.886 409.984 397.929 409.696ZM401.613 412.416H403.053L402.893 413.584H402.925C403.17 413.179 403.533 412.853 404.013 412.608C404.493 412.352 405.026 412.224 405.613 412.224C405.975 412.224 406.317 412.283 406.637 412.4C406.957 412.507 407.223 412.677 407.437 412.912C407.661 413.147 407.821 413.451 407.917 413.824C408.013 414.187 408.023 414.619 407.949 415.12L407.277 420H405.837L406.461 415.52C406.503 415.168 406.493 414.869 406.429 414.624C406.375 414.368 406.279 414.165 406.141 414.016C406.013 413.856 405.847 413.744 405.645 413.68C405.442 413.605 405.229 413.568 405.005 413.568C404.706 413.568 404.418 413.616 404.141 413.712C403.874 413.808 403.629 413.963 403.405 414.176C403.191 414.379 403.01 414.64 402.861 414.96C402.711 415.28 402.605 415.659 402.541 416.096L401.997 420H400.557L401.613 412.416ZM417.047 419.936C416.962 420.512 416.786 421.035 416.519 421.504C416.263 421.984 415.927 422.395 415.511 422.736C415.106 423.088 414.631 423.36 414.087 423.552C413.554 423.744 412.978 423.84 412.359 423.84C411.634 423.84 410.983 423.739 410.407 423.536C409.831 423.333 409.309 422.981 408.839 422.48L409.975 421.264C410.295 421.669 410.658 421.973 411.063 422.176C411.479 422.389 411.965 422.496 412.519 422.496C413.053 422.496 413.506 422.416 413.879 422.256C414.253 422.107 414.557 421.909 414.791 421.664C415.037 421.419 415.223 421.136 415.351 420.816C415.479 420.507 415.57 420.192 415.623 419.872L415.767 418.752H415.719C415.378 419.211 414.957 419.552 414.455 419.776C413.954 419.989 413.442 420.096 412.919 420.096C412.365 420.096 411.863 420 411.415 419.808C410.967 419.605 410.594 419.333 410.295 418.992C410.007 418.64 409.799 418.229 409.671 417.76C409.543 417.28 409.522 416.763 409.607 416.208C409.682 415.653 409.842 415.136 410.087 414.656C410.343 414.165 410.663 413.739 411.047 413.376C411.431 413.013 411.874 412.731 412.375 412.528C412.887 412.325 413.437 412.224 414.023 412.224C414.535 412.224 415.015 412.336 415.463 412.56C415.922 412.784 416.263 413.099 416.487 413.504H416.519L416.663 412.416H418.103L417.047 419.936ZM414.007 413.568C413.623 413.568 413.266 413.637 412.935 413.776C412.615 413.904 412.327 414.085 412.071 414.32C411.826 414.544 411.623 414.821 411.463 415.152C411.303 415.472 411.197 415.824 411.143 416.208C411.026 416.976 411.159 417.595 411.543 418.064C411.927 418.523 412.503 418.752 413.271 418.752C414.039 418.752 414.679 418.523 415.191 418.064C415.703 417.595 416.018 416.976 416.135 416.208C416.189 415.824 416.178 415.472 416.103 415.152C416.039 414.821 415.911 414.544 415.719 414.32C415.538 414.085 415.303 413.904 415.015 413.776C414.727 413.637 414.391 413.568 414.007 413.568ZM425.634 408.672H427.17L426.514 413.376H432.386L433.042 408.672H434.578L432.994 420H431.458L432.178 414.816H426.306L425.586 420H424.05L425.634 408.672ZM445.045 411.12C444.778 410.704 444.416 410.384 443.957 410.16C443.498 409.936 443.008 409.824 442.485 409.824C441.845 409.824 441.248 409.947 440.693 410.192C440.149 410.427 439.658 410.752 439.221 411.168C438.794 411.584 438.442 412.075 438.165 412.64C437.888 413.195 437.701 413.792 437.605 414.432C437.52 415.029 437.536 415.595 437.653 416.128C437.77 416.661 437.984 417.131 438.293 417.536C438.602 417.941 439.002 418.261 439.493 418.496C439.984 418.731 440.56 418.848 441.221 418.848C441.872 418.848 442.458 418.715 442.981 418.448C443.514 418.181 443.984 417.808 444.389 417.328L445.541 418.304C445.445 418.421 445.274 418.592 445.029 418.816C444.784 419.029 444.469 419.248 444.085 419.472C443.701 419.685 443.248 419.872 442.725 420.032C442.213 420.203 441.632 420.288 440.981 420.288C440.085 420.288 439.301 420.117 438.629 419.776C437.957 419.435 437.408 418.987 436.981 418.432C436.554 417.877 436.256 417.253 436.085 416.56C435.914 415.856 435.877 415.147 435.973 414.432C436.101 413.557 436.357 412.752 436.741 412.016C437.136 411.269 437.632 410.629 438.229 410.096C438.826 409.552 439.509 409.131 440.277 408.832C441.045 408.533 441.866 408.384 442.741 408.384C443.488 408.384 444.197 408.528 444.869 408.816C445.552 409.093 446.08 409.536 446.453 410.144L445.045 411.12ZM448.759 408.672H450.295L448.711 420H447.175L448.759 408.672ZM456.673 413.344C457.132 412.971 457.638 412.693 458.193 412.512C458.758 412.32 459.308 412.224 459.841 412.224C460.396 412.224 460.865 412.293 461.249 412.432C461.633 412.571 461.937 412.757 462.161 412.992C462.385 413.227 462.534 413.499 462.609 413.808C462.684 414.107 462.7 414.421 462.657 414.752L462.113 418.624C462.07 418.891 462.038 419.136 462.017 419.36C461.996 419.584 461.985 419.797 461.985 420H460.705C460.716 419.808 460.726 419.616 460.737 419.424C460.758 419.232 460.785 419.04 460.817 418.848H460.785C460.39 419.339 459.958 419.685 459.489 419.888C459.03 420.091 458.513 420.192 457.937 420.192C457.585 420.192 457.254 420.144 456.945 420.048C456.646 419.952 456.39 419.808 456.177 419.616C455.964 419.424 455.804 419.189 455.697 418.912C455.601 418.624 455.58 418.293 455.633 417.92C455.697 417.429 455.862 417.019 456.129 416.688C456.396 416.357 456.732 416.091 457.137 415.888C457.553 415.675 458.017 415.525 458.529 415.44C459.052 415.344 459.601 415.296 460.177 415.296H461.233L461.281 414.976C461.313 414.784 461.302 414.592 461.249 414.4C461.206 414.208 461.121 414.037 460.993 413.888C460.865 413.728 460.694 413.605 460.481 413.52C460.268 413.424 460.006 413.376 459.697 413.376C459.42 413.376 459.169 413.403 458.945 413.456C458.732 413.509 458.534 413.579 458.353 413.664C458.182 413.739 458.017 413.829 457.857 413.936C457.708 414.043 457.558 414.144 457.409 414.24L456.673 413.344ZM460.321 416.352C459.98 416.352 459.628 416.373 459.265 416.416C458.902 416.448 458.566 416.517 458.257 416.624C457.948 416.731 457.686 416.88 457.473 417.072C457.26 417.264 457.132 417.509 457.089 417.808C457.025 418.245 457.126 418.56 457.393 418.752C457.66 418.944 458.044 419.04 458.545 419.04C458.94 419.04 459.281 418.976 459.569 418.848C459.868 418.709 460.118 418.533 460.321 418.32C460.524 418.107 460.678 417.872 460.785 417.616C460.902 417.349 460.977 417.088 461.009 416.832L461.089 416.352H460.321ZM468.954 413.664H466.89L466.41 417.104C466.378 417.317 466.351 417.531 466.33 417.744C466.319 417.947 466.335 418.133 466.378 418.304C466.421 418.464 466.506 418.597 466.634 418.704C466.773 418.8 466.981 418.848 467.258 418.848C467.429 418.848 467.605 418.832 467.786 418.8C467.978 418.768 468.154 418.709 468.314 418.624L468.122 419.936C468.026 419.989 467.914 420.032 467.786 420.064C467.669 420.096 467.546 420.117 467.418 420.128C467.301 420.149 467.183 420.165 467.066 420.176C466.959 420.187 466.869 420.192 466.794 420.192C466.239 420.192 465.818 420.117 465.53 419.968C465.253 419.808 465.055 419.605 464.938 419.36C464.831 419.115 464.783 418.843 464.794 418.544C464.815 418.235 464.847 417.925 464.89 417.616L465.45 413.664H463.786L463.962 412.416H465.626L465.93 410.288H467.37L467.066 412.416H469.13L468.954 413.664ZM483.889 411.12C483.622 410.704 483.26 410.384 482.801 410.16C482.342 409.936 481.852 409.824 481.329 409.824C480.689 409.824 480.092 409.947 479.537 410.192C478.993 410.427 478.502 410.752 478.065 411.168C477.638 411.584 477.286 412.075 477.009 412.64C476.732 413.195 476.545 413.792 476.449 414.432C476.364 415.029 476.38 415.595 476.497 416.128C476.614 416.661 476.828 417.131 477.137 417.536C477.446 417.941 477.846 418.261 478.337 418.496C478.828 418.731 479.404 418.848 480.065 418.848C480.716 418.848 481.302 418.715 481.825 418.448C482.358 418.181 482.828 417.808 483.233 417.328L484.385 418.304C484.289 418.421 484.118 418.592 483.873 418.816C483.628 419.029 483.313 419.248 482.929 419.472C482.545 419.685 482.092 419.872 481.569 420.032C481.057 420.203 480.476 420.288 479.825 420.288C478.929 420.288 478.145 420.117 477.473 419.776C476.801 419.435 476.252 418.987 475.825 418.432C475.398 417.877 475.1 417.253 474.929 416.56C474.758 415.856 474.721 415.147 474.817 414.432C474.945 413.557 475.201 412.752 475.585 412.016C475.98 411.269 476.476 410.629 477.073 410.096C477.67 409.552 478.353 409.131 479.121 408.832C479.889 408.533 480.71 408.384 481.585 408.384C482.332 408.384 483.041 408.528 483.713 408.816C484.396 409.093 484.924 409.536 485.297 410.144L483.889 411.12ZM486.611 413.344C487.069 412.971 487.576 412.693 488.131 412.512C488.696 412.32 489.245 412.224 489.779 412.224C490.333 412.224 490.803 412.293 491.187 412.432C491.571 412.571 491.875 412.757 492.099 412.992C492.323 413.227 492.472 413.499 492.547 413.808C492.621 414.107 492.637 414.421 492.595 414.752L492.051 418.624C492.008 418.891 491.976 419.136 491.955 419.36C491.933 419.584 491.923 419.797 491.923 420H490.643C490.653 419.808 490.664 419.616 490.675 419.424C490.696 419.232 490.723 419.04 490.755 418.848H490.723C490.328 419.339 489.896 419.685 489.427 419.888C488.968 420.091 488.451 420.192 487.875 420.192C487.523 420.192 487.192 420.144 486.883 420.048C486.584 419.952 486.328 419.808 486.115 419.616C485.901 419.424 485.741 419.189 485.635 418.912C485.539 418.624 485.517 418.293 485.571 417.92C485.635 417.429 485.8 417.019 486.067 416.688C486.333 416.357 486.669 416.091 487.075 415.888C487.491 415.675 487.955 415.525 488.467 415.44C488.989 415.344 489.539 415.296 490.115 415.296H491.171L491.219 414.976C491.251 414.784 491.24 414.592 491.187 414.4C491.144 414.208 491.059 414.037 490.931 413.888C490.803 413.728 490.632 413.605 490.419 413.52C490.205 413.424 489.944 413.376 489.635 413.376C489.357 413.376 489.107 413.403 488.883 413.456C488.669 413.509 488.472 413.579 488.291 413.664C488.12 413.739 487.955 413.829 487.795 413.936C487.645 414.043 487.496 414.144 487.347 414.24L486.611 413.344ZM490.259 416.352C489.917 416.352 489.565 416.373 489.203 416.416C488.84 416.448 488.504 416.517 488.195 416.624C487.885 416.731 487.624 416.88 487.411 417.072C487.197 417.264 487.069 417.509 487.027 417.808C486.963 418.245 487.064 418.56 487.331 418.752C487.597 418.944 487.981 419.04 488.483 419.04C488.877 419.04 489.219 418.976 489.507 418.848C489.805 418.709 490.056 418.533 490.259 418.32C490.461 418.107 490.616 417.872 490.723 417.616C490.84 417.349 490.915 417.088 490.947 416.832L491.027 416.352H490.259ZM495.003 412.416H496.443L496.283 413.584H496.315C496.561 413.179 496.913 412.853 497.371 412.608C497.83 412.352 498.299 412.224 498.779 412.224C499.014 412.224 499.222 412.256 499.403 412.32L499.115 413.872C498.998 413.84 498.881 413.813 498.763 413.792C498.657 413.771 498.545 413.76 498.427 413.76C497.723 413.76 497.158 413.957 496.731 414.352C496.305 414.747 496.033 415.36 495.915 416.192L495.387 420H493.947L495.003 412.416ZM507.188 419.936C507.103 420.512 506.927 421.035 506.66 421.504C506.404 421.984 506.068 422.395 505.652 422.736C505.247 423.088 504.772 423.36 504.228 423.552C503.695 423.744 503.119 423.84 502.5 423.84C501.775 423.84 501.124 423.739 500.548 423.536C499.972 423.333 499.449 422.981 498.98 422.48L500.116 421.264C500.436 421.669 500.799 421.973 501.204 422.176C501.62 422.389 502.105 422.496 502.66 422.496C503.193 422.496 503.647 422.416 504.02 422.256C504.393 422.107 504.697 421.909 504.932 421.664C505.177 421.419 505.364 421.136 505.492 420.816C505.62 420.507 505.711 420.192 505.764 419.872L505.908 418.752H505.86C505.519 419.211 505.097 419.552 504.596 419.776C504.095 419.989 503.583 420.096 503.06 420.096C502.505 420.096 502.004 420 501.556 419.808C501.108 419.605 500.735 419.333 500.436 418.992C500.148 418.64 499.94 418.229 499.812 417.76C499.684 417.28 499.663 416.763 499.748 416.208C499.823 415.653 499.983 415.136 500.228 414.656C500.484 414.165 500.804 413.739 501.188 413.376C501.572 413.013 502.015 412.731 502.516 412.528C503.028 412.325 503.577 412.224 504.164 412.224C504.676 412.224 505.156 412.336 505.604 412.56C506.063 412.784 506.404 413.099 506.628 413.504H506.66L506.804 412.416H508.244L507.188 419.936ZM504.148 413.568C503.764 413.568 503.407 413.637 503.076 413.776C502.756 413.904 502.468 414.085 502.212 414.32C501.967 414.544 501.764 414.821 501.604 415.152C501.444 415.472 501.337 415.824 501.284 416.208C501.167 416.976 501.3 417.595 501.684 418.064C502.068 418.523 502.644 418.752 503.412 418.752C504.18 418.752 504.82 418.523 505.332 418.064C505.844 417.595 506.159 416.976 506.276 416.208C506.329 415.824 506.319 415.472 506.244 415.152C506.18 414.821 506.052 414.544 505.86 414.32C505.679 414.085 505.444 413.904 505.156 413.776C504.868 413.637 504.532 413.568 504.148 413.568ZM510.905 416.736C510.863 417.067 510.895 417.371 511.001 417.648C511.108 417.915 511.263 418.144 511.465 418.336C511.679 418.528 511.929 418.677 512.217 418.784C512.516 418.891 512.831 418.944 513.161 418.944C513.609 418.944 514.009 418.843 514.361 418.64C514.724 418.427 515.071 418.149 515.401 417.808L516.361 418.64C515.423 419.675 514.233 420.192 512.793 420.192C512.196 420.192 511.668 420.091 511.209 419.888C510.761 419.685 510.393 419.408 510.105 419.056C509.817 418.693 509.615 418.272 509.497 417.792C509.38 417.301 509.364 416.773 509.449 416.208C509.524 415.643 509.695 415.12 509.961 414.64C510.228 414.149 510.559 413.728 510.953 413.376C511.359 413.013 511.812 412.731 512.313 412.528C512.825 412.325 513.364 412.224 513.929 412.224C514.601 412.224 515.151 412.341 515.577 412.576C516.015 412.811 516.356 413.12 516.601 413.504C516.847 413.877 517.001 414.304 517.065 414.784C517.129 415.253 517.129 415.733 517.065 416.224L516.985 416.736H510.905ZM515.609 415.584C515.641 415.264 515.631 414.971 515.577 414.704C515.524 414.437 515.423 414.208 515.273 414.016C515.124 413.813 514.921 413.659 514.665 413.552C514.409 413.435 514.1 413.376 513.737 413.376C513.385 413.376 513.055 413.445 512.745 413.584C512.436 413.712 512.159 413.883 511.913 414.096C511.679 414.309 511.487 414.549 511.337 414.816C511.188 415.072 511.097 415.328 511.065 415.584H515.609ZM519.316 412.416H520.756L520.596 413.584H520.628C520.873 413.179 521.236 412.853 521.716 412.608C522.196 412.352 522.729 412.224 523.316 412.224C523.679 412.224 524.02 412.283 524.34 412.4C524.66 412.507 524.927 412.677 525.14 412.912C525.364 413.147 525.524 413.451 525.62 413.824C525.716 414.187 525.727 414.619 525.652 415.12L524.98 420H523.54L524.164 415.52C524.207 415.168 524.196 414.869 524.132 414.624C524.079 414.368 523.983 414.165 523.844 414.016C523.716 413.856 523.551 413.744 523.348 413.68C523.145 413.605 522.932 413.568 522.708 413.568C522.409 413.568 522.121 413.616 521.844 413.712C521.577 413.808 521.332 413.963 521.108 414.176C520.895 414.379 520.713 414.64 520.564 414.96C520.415 415.28 520.308 415.659 520.244 416.096L519.7 420H518.26L519.316 412.416ZM528.319 412.416H529.759L528.703 420H527.263L528.319 412.416ZM528.367 409.696C528.409 409.408 528.548 409.163 528.783 408.96C529.017 408.747 529.279 408.64 529.567 408.64C529.855 408.64 530.089 408.747 530.271 408.96C530.452 409.163 530.521 409.408 530.479 409.696C530.436 409.984 530.297 410.235 530.062 410.448C529.828 410.651 529.567 410.752 529.279 410.752C528.991 410.752 528.756 410.651 528.575 410.448C528.393 410.235 528.324 409.984 528.367 409.696ZM532.53 416.736C532.488 417.067 532.52 417.371 532.626 417.648C532.733 417.915 532.888 418.144 533.09 418.336C533.304 418.528 533.554 418.677 533.842 418.784C534.141 418.891 534.456 418.944 534.786 418.944C535.234 418.944 535.634 418.843 535.986 418.64C536.349 418.427 536.696 418.149 537.026 417.808L537.986 418.64C537.048 419.675 535.858 420.192 534.418 420.192C533.821 420.192 533.293 420.091 532.834 419.888C532.386 419.685 532.018 419.408 531.73 419.056C531.442 418.693 531.24 418.272 531.122 417.792C531.005 417.301 530.989 416.773 531.074 416.208C531.149 415.643 531.32 415.12 531.586 414.64C531.853 414.149 532.184 413.728 532.578 413.376C532.984 413.013 533.437 412.731 533.938 412.528C534.45 412.325 534.989 412.224 535.554 412.224C536.226 412.224 536.776 412.341 537.202 412.576C537.64 412.811 537.981 413.12 538.226 413.504C538.472 413.877 538.626 414.304 538.69 414.784C538.754 415.253 538.754 415.733 538.69 416.224L538.61 416.736H532.53ZM537.234 415.584C537.266 415.264 537.256 414.971 537.202 414.704C537.149 414.437 537.048 414.208 536.898 414.016C536.749 413.813 536.546 413.659 536.29 413.552C536.034 413.435 535.725 413.376 535.362 413.376C535.01 413.376 534.68 413.445 534.37 413.584C534.061 413.712 533.784 413.883 533.538 414.096C533.304 414.309 533.112 414.549 532.962 414.816C532.813 415.072 532.722 415.328 532.69 415.584H537.234ZM546.178 408.672H547.682H548.466L550.866 417.248H550.93L555.698 408.672H556.45H557.986L556.402 420H554.866L556.162 410.688H556.13L551.01 420H549.986L547.458 410.688H547.426L546.13 420H544.594L546.178 408.672ZM560.374 416.736C560.331 417.067 560.363 417.371 560.47 417.648C560.577 417.915 560.731 418.144 560.934 418.336C561.147 418.528 561.398 418.677 561.686 418.784C561.985 418.891 562.299 418.944 562.63 418.944C563.078 418.944 563.478 418.843 563.83 418.64C564.193 418.427 564.539 418.149 564.87 417.808L565.83 418.64C564.891 419.675 563.702 420.192 562.262 420.192C561.665 420.192 561.137 420.091 560.678 419.888C560.23 419.685 559.862 419.408 559.574 419.056C559.286 418.693 559.083 418.272 558.966 417.792C558.849 417.301 558.833 416.773 558.918 416.208C558.993 415.643 559.163 415.12 559.43 414.64C559.697 414.149 560.027 413.728 560.422 413.376C560.827 413.013 561.281 412.731 561.782 412.528C562.294 412.325 562.833 412.224 563.398 412.224C564.07 412.224 564.619 412.341 565.046 412.576C565.483 412.811 565.825 413.12 566.07 413.504C566.315 413.877 566.47 414.304 566.534 414.784C566.598 415.253 566.598 415.733 566.534 416.224L566.454 416.736H560.374ZM565.078 415.584C565.11 415.264 565.099 414.971 565.046 414.704C564.993 414.437 564.891 414.208 564.742 414.016C564.593 413.813 564.39 413.659 564.134 413.552C563.878 413.435 563.569 413.376 563.206 413.376C562.854 413.376 562.523 413.445 562.214 413.584C561.905 413.712 561.627 413.883 561.382 414.096C561.147 414.309 560.955 414.549 560.806 414.816C560.657 415.072 560.566 415.328 560.534 415.584H565.078ZM569.537 407.904H570.977L569.281 420H567.841L569.537 407.904ZM573.38 407.904H574.82L573.124 420H571.684L573.38 407.904ZM577.112 416.208C577.059 416.592 577.064 416.949 577.128 417.28C577.203 417.6 577.331 417.877 577.512 418.112C577.693 418.336 577.928 418.517 578.216 418.656C578.515 418.784 578.856 418.848 579.24 418.848C579.624 418.848 579.976 418.784 580.296 418.656C580.627 418.517 580.915 418.336 581.16 418.112C581.405 417.877 581.608 417.6 581.768 417.28C581.939 416.949 582.051 416.592 582.104 416.208C582.157 415.824 582.147 415.472 582.072 415.152C582.008 414.821 581.88 414.544 581.688 414.32C581.507 414.085 581.272 413.904 580.984 413.776C580.696 413.637 580.36 413.568 579.976 413.568C579.592 413.568 579.235 413.637 578.904 413.776C578.584 413.904 578.296 414.085 578.04 414.32C577.795 414.544 577.592 414.821 577.432 415.152C577.272 415.472 577.165 415.824 577.112 416.208ZM575.576 416.208C575.651 415.653 575.827 415.136 576.104 414.656C576.381 414.176 576.728 413.755 577.144 413.392C577.56 413.029 578.024 412.747 578.536 412.544C579.059 412.331 579.603 412.224 580.168 412.224C580.733 412.224 581.245 412.331 581.704 412.544C582.163 412.747 582.547 413.029 582.856 413.392C583.176 413.755 583.405 414.176 583.544 414.656C583.683 415.136 583.715 415.653 583.64 416.208C583.555 416.763 583.373 417.285 583.096 417.776C582.829 418.256 582.488 418.677 582.072 419.04C581.656 419.392 581.187 419.675 580.664 419.888C580.152 420.091 579.613 420.192 579.048 420.192C578.483 420.192 577.965 420.091 577.496 419.888C577.037 419.675 576.653 419.392 576.344 419.04C576.035 418.677 575.805 418.256 575.656 417.776C575.517 417.285 575.491 416.763 575.576 416.208ZM585.972 412.416H587.412L587.252 413.584H587.284C587.529 413.179 587.892 412.853 588.372 412.608C588.852 412.352 589.385 412.224 589.972 412.224C590.335 412.224 590.676 412.283 590.996 412.4C591.316 412.507 591.583 412.677 591.796 412.912C592.02 413.147 592.18 413.451 592.276 413.824C592.372 414.187 592.383 414.619 592.308 415.12L591.636 420H590.196L590.82 415.52C590.863 415.168 590.852 414.869 590.788 414.624C590.735 414.368 590.639 414.165 590.5 414.016C590.372 413.856 590.207 413.744 590.004 413.68C589.801 413.605 589.588 413.568 589.364 413.568C589.065 413.568 588.777 413.616 588.5 413.712C588.233 413.808 587.988 413.963 587.764 414.176C587.551 414.379 587.369 414.64 587.22 414.96C587.071 415.28 586.964 415.659 586.9 416.096L586.356 420H584.916L585.972 412.416ZM601.54 408.672L600.564 415.616C600.511 415.968 600.505 416.336 600.548 416.72C600.601 417.093 600.713 417.44 600.884 417.76C601.065 418.08 601.321 418.341 601.652 418.544C601.993 418.747 602.431 418.848 602.964 418.848C603.497 418.848 603.961 418.747 604.356 418.544C604.751 418.341 605.081 418.08 605.348 417.76C605.615 417.44 605.817 417.093 605.956 416.72C606.105 416.336 606.207 415.968 606.26 415.616L607.236 408.672H608.772L607.764 415.856C607.668 416.517 607.471 417.12 607.172 417.664C606.873 418.197 606.5 418.661 606.052 419.056C605.604 419.451 605.097 419.755 604.532 419.968C603.967 420.181 603.375 420.288 602.756 420.288C602.137 420.288 601.572 420.181 601.06 419.968C600.559 419.755 600.137 419.451 599.796 419.056C599.465 418.661 599.225 418.197 599.076 417.664C598.927 417.12 598.9 416.517 598.996 415.856L600.004 408.672H601.54ZM610.582 412.416H612.022L611.862 413.584H611.894C612.139 413.179 612.502 412.853 612.982 412.608C613.462 412.352 613.995 412.224 614.582 412.224C614.944 412.224 615.286 412.283 615.606 412.4C615.926 412.507 616.192 412.677 616.406 412.912C616.63 413.147 616.79 413.451 616.885 413.824C616.981 414.187 616.992 414.619 616.918 415.12L616.246 420H614.806L615.43 415.52C615.472 415.168 615.462 414.869 615.398 414.624C615.344 414.368 615.248 414.165 615.11 414.016C614.982 413.856 614.816 413.744 614.614 413.68C614.411 413.605 614.198 413.568 613.974 413.568C613.675 413.568 613.387 413.616 613.11 413.712C612.843 413.808 612.598 413.963 612.374 414.176C612.16 414.379 611.979 414.64 611.83 414.96C611.68 415.28 611.574 415.659 611.51 416.096L610.966 420H609.526L610.582 412.416ZM619.584 412.416H621.024L619.968 420H618.528L619.584 412.416ZM619.632 409.696C619.675 409.408 619.813 409.163 620.048 408.96C620.283 408.747 620.544 408.64 620.832 408.64C621.12 408.64 621.355 408.747 621.536 408.96C621.717 409.163 621.787 409.408 621.744 409.696C621.701 409.984 621.563 410.235 621.328 410.448C621.093 410.651 620.832 410.752 620.544 410.752C620.256 410.752 620.021 410.651 619.84 410.448C619.659 410.235 619.589 409.984 619.632 409.696ZM622.404 412.416H624.068L625.524 418.224L628.516 412.416H630.052L626.02 420H624.436L622.404 412.416ZM631.796 416.736C631.753 417.067 631.785 417.371 631.892 417.648C631.999 417.915 632.153 418.144 632.356 418.336C632.569 418.528 632.82 418.677 633.108 418.784C633.407 418.891 633.721 418.944 634.052 418.944C634.5 418.944 634.9 418.843 635.252 418.64C635.615 418.427 635.961 418.149 636.292 417.808L637.252 418.64C636.313 419.675 635.124 420.192 633.684 420.192C633.087 420.192 632.559 420.091 632.1 419.888C631.652 419.685 631.284 419.408 630.996 419.056C630.708 418.693 630.505 418.272 630.388 417.792C630.271 417.301 630.255 416.773 630.34 416.208C630.415 415.643 630.585 415.12 630.852 414.64C631.119 414.149 631.449 413.728 631.844 413.376C632.249 413.013 632.703 412.731 633.204 412.528C633.716 412.325 634.255 412.224 634.82 412.224C635.492 412.224 636.041 412.341 636.468 412.576C636.905 412.811 637.247 413.12 637.492 413.504C637.737 413.877 637.892 414.304 637.956 414.784C638.02 415.253 638.02 415.733 637.956 416.224L637.876 416.736H631.796ZM636.5 415.584C636.532 415.264 636.521 414.971 636.468 414.704C636.415 414.437 636.313 414.208 636.164 414.016C636.015 413.813 635.812 413.659 635.556 413.552C635.3 413.435 634.991 413.376 634.628 413.376C634.276 413.376 633.945 413.445 633.636 413.584C633.327 413.712 633.049 413.883 632.804 414.096C632.569 414.309 632.377 414.549 632.228 414.816C632.079 415.072 631.988 415.328 631.956 415.584H636.5ZM640.207 412.416H641.647L641.487 413.584H641.519C641.764 413.179 642.116 412.853 642.575 412.608C643.033 412.352 643.503 412.224 643.983 412.224C644.217 412.224 644.425 412.256 644.607 412.32L644.319 413.872C644.201 413.84 644.084 413.813 643.967 413.792C643.86 413.771 643.748 413.76 643.631 413.76C642.927 413.76 642.361 413.957 641.935 414.352C641.508 414.747 641.236 415.36 641.119 416.192L640.591 420H639.151L640.207 412.416ZM646.24 412.416H647.68L646.624 420H645.184L646.24 412.416ZM646.288 409.696C646.331 409.408 646.47 409.163 646.704 408.96C646.939 408.747 647.2 408.64 647.488 408.64C647.776 408.64 648.011 408.747 648.192 408.96C648.374 409.163 648.443 409.408 648.4 409.696C648.358 409.984 648.219 410.235 647.984 410.448C647.75 410.651 647.488 410.752 647.2 410.752C646.912 410.752 646.678 410.651 646.496 410.448C646.315 410.235 646.246 409.984 646.288 409.696ZM653.732 414.32C653.593 414.107 653.407 413.931 653.172 413.792C652.948 413.643 652.655 413.568 652.292 413.568C651.951 413.568 651.641 413.643 651.364 413.792C651.097 413.931 650.948 414.139 650.916 414.416C650.884 414.64 650.927 414.821 651.044 414.96C651.172 415.099 651.327 415.211 651.508 415.296C651.7 415.381 651.903 415.445 652.116 415.488C652.329 415.531 652.516 415.568 652.676 415.6C652.975 415.675 653.252 415.765 653.508 415.872C653.764 415.979 653.977 416.117 654.148 416.288C654.329 416.459 654.457 416.667 654.532 416.912C654.607 417.157 654.623 417.456 654.58 417.808C654.516 418.235 654.372 418.603 654.148 418.912C653.935 419.211 653.668 419.456 653.348 419.648C653.028 419.84 652.676 419.979 652.292 420.064C651.919 420.149 651.545 420.192 651.172 420.192C650.543 420.192 650.004 420.096 649.556 419.904C649.119 419.712 648.745 419.36 648.436 418.848L649.636 417.952C649.839 418.187 650.073 418.395 650.34 418.576C650.607 418.757 650.948 418.848 651.364 418.848C651.737 418.848 652.095 418.773 652.436 418.624C652.777 418.464 652.975 418.219 653.028 417.888C653.06 417.675 653.017 417.499 652.9 417.36C652.793 417.221 652.649 417.115 652.468 417.04C652.297 416.955 652.105 416.891 651.892 416.848C651.689 416.795 651.513 416.752 651.364 416.72C651.065 416.645 650.783 416.56 650.516 416.464C650.249 416.368 650.02 416.24 649.828 416.08C649.636 415.92 649.492 415.717 649.396 415.472C649.311 415.227 649.295 414.923 649.348 414.56C649.401 414.165 649.529 413.824 649.732 413.536C649.945 413.237 650.201 412.992 650.5 412.8C650.799 412.608 651.129 412.464 651.492 412.368C651.855 412.272 652.212 412.224 652.564 412.224C653.076 412.224 653.551 412.32 653.988 412.512C654.436 412.704 654.767 413.024 654.98 413.472L653.732 414.32ZM660.97 413.664H658.906L658.426 417.104C658.394 417.317 658.367 417.531 658.346 417.744C658.335 417.947 658.351 418.133 658.394 418.304C658.436 418.464 658.522 418.597 658.65 418.704C658.788 418.8 658.996 418.848 659.274 418.848C659.444 418.848 659.62 418.832 659.802 418.8C659.994 418.768 660.17 418.709 660.33 418.624L660.138 419.936C660.042 419.989 659.93 420.032 659.802 420.064C659.684 420.096 659.562 420.117 659.434 420.128C659.316 420.149 659.199 420.165 659.082 420.176C658.975 420.187 658.884 420.192 658.81 420.192C658.255 420.192 657.834 420.117 657.546 419.968C657.268 419.808 657.071 419.605 656.954 419.36C656.847 419.115 656.799 418.843 656.81 418.544C656.831 418.235 656.863 417.925 656.906 417.616L657.466 413.664H655.802L655.978 412.416H657.642L657.946 410.288H659.386L659.082 412.416H661.146L660.97 413.664ZM662.091 412.416H663.755L665.179 418.336H665.211L668.187 412.416H669.739L664.843 421.632C664.673 421.963 664.497 422.261 664.315 422.528C664.145 422.805 663.947 423.04 663.723 423.232C663.51 423.424 663.259 423.573 662.971 423.68C662.683 423.787 662.342 423.84 661.947 423.84C661.734 423.84 661.521 423.824 661.307 423.792C661.094 423.771 660.897 423.717 660.715 423.632L661.051 422.32C661.318 422.437 661.601 422.496 661.899 422.496C662.123 422.496 662.315 422.464 662.475 422.4C662.646 422.347 662.79 422.261 662.907 422.144C663.035 422.037 663.147 421.909 663.243 421.76C663.35 421.611 663.451 421.44 663.547 421.248L664.171 420.048L662.091 412.416ZM373.282 438.672H374.818L373.426 448.56H378.626L378.434 450H373.234H371.698L373.282 438.672ZM381.323 446.208C381.27 446.592 381.275 446.949 381.339 447.28C381.414 447.6 381.542 447.877 381.723 448.112C381.904 448.336 382.139 448.517 382.427 448.656C382.726 448.784 383.067 448.848 383.451 448.848C383.835 448.848 384.187 448.784 384.507 448.656C384.838 448.517 385.126 448.336 385.371 448.112C385.616 447.877 385.819 447.6 385.979 447.28C386.15 446.949 386.262 446.592 386.315 446.208C386.368 445.824 386.358 445.472 386.283 445.152C386.219 444.821 386.091 444.544 385.899 444.32C385.718 444.085 385.483 443.904 385.195 443.776C384.907 443.637 384.571 443.568 384.187 443.568C383.803 443.568 383.446 443.637 383.115 443.776C382.795 443.904 382.507 444.085 382.251 444.32C382.006 444.544 381.803 444.821 381.643 445.152C381.483 445.472 381.376 445.824 381.323 446.208ZM379.787 446.208C379.862 445.653 380.038 445.136 380.315 444.656C380.592 444.176 380.939 443.755 381.355 443.392C381.771 443.029 382.235 442.747 382.747 442.544C383.27 442.331 383.814 442.224 384.379 442.224C384.944 442.224 385.456 442.331 385.915 442.544C386.374 442.747 386.758 443.029 387.067 443.392C387.387 443.755 387.616 444.176 387.755 444.656C387.894 445.136 387.926 445.653 387.851 446.208C387.766 446.763 387.584 447.285 387.307 447.776C387.04 448.256 386.699 448.677 386.283 449.04C385.867 449.392 385.398 449.675 384.875 449.888C384.363 450.091 383.824 450.192 383.259 450.192C382.694 450.192 382.176 450.091 381.707 449.888C381.248 449.675 380.864 449.392 380.555 449.04C380.246 448.677 380.016 448.256 379.867 447.776C379.728 447.285 379.702 446.763 379.787 446.208ZM390.823 446.208C390.77 446.592 390.775 446.949 390.839 447.28C390.914 447.6 391.042 447.877 391.223 448.112C391.404 448.336 391.639 448.517 391.927 448.656C392.226 448.784 392.567 448.848 392.951 448.848C393.335 448.848 393.687 448.784 394.007 448.656C394.338 448.517 394.626 448.336 394.871 448.112C395.116 447.877 395.319 447.6 395.479 447.28C395.65 446.949 395.762 446.592 395.815 446.208C395.868 445.824 395.858 445.472 395.783 445.152C395.719 444.821 395.591 444.544 395.399 444.32C395.218 444.085 394.983 443.904 394.695 443.776C394.407 443.637 394.071 443.568 393.687 443.568C393.303 443.568 392.946 443.637 392.615 443.776C392.295 443.904 392.007 444.085 391.751 444.32C391.506 444.544 391.303 444.821 391.143 445.152C390.983 445.472 390.876 445.824 390.823 446.208ZM389.287 446.208C389.362 445.653 389.538 445.136 389.815 444.656C390.092 444.176 390.439 443.755 390.855 443.392C391.271 443.029 391.735 442.747 392.247 442.544C392.77 442.331 393.314 442.224 393.879 442.224C394.444 442.224 394.956 442.331 395.415 442.544C395.874 442.747 396.258 443.029 396.567 443.392C396.887 443.755 397.116 444.176 397.255 444.656C397.394 445.136 397.426 445.653 397.351 446.208C397.266 446.763 397.084 447.285 396.807 447.776C396.54 448.256 396.199 448.677 395.783 449.04C395.367 449.392 394.898 449.675 394.375 449.888C393.863 450.091 393.324 450.192 392.759 450.192C392.194 450.192 391.676 450.091 391.207 449.888C390.748 449.675 390.364 449.392 390.055 449.04C389.746 448.677 389.516 448.256 389.367 447.776C389.228 447.285 389.202 446.763 389.287 446.208ZM400.323 437.904H401.763L400.659 445.712L404.387 442.432H406.387L402.371 445.872L405.635 450H403.587L400.611 446.064L400.067 450H398.627L400.323 437.904ZM408.092 442.416H409.532L408.476 450H407.036L408.092 442.416ZM408.14 439.696C408.183 439.408 408.321 439.163 408.556 438.96C408.791 438.747 409.052 438.64 409.34 438.64C409.628 438.64 409.863 438.747 410.044 438.96C410.225 439.163 410.295 439.408 410.252 439.696C410.209 439.984 410.071 440.235 409.836 440.448C409.601 440.651 409.34 440.752 409.052 440.752C408.764 440.752 408.529 440.651 408.348 440.448C408.167 440.235 408.097 439.984 408.14 439.696ZM411.824 442.416H413.264L413.104 443.584H413.136C413.381 443.179 413.744 442.853 414.224 442.608C414.704 442.352 415.237 442.224 415.824 442.224C416.186 442.224 416.528 442.283 416.848 442.4C417.168 442.507 417.434 442.677 417.648 442.912C417.872 443.147 418.032 443.451 418.128 443.824C418.224 444.187 418.234 444.619 418.16 445.12L417.488 450H416.048L416.672 445.52C416.714 445.168 416.704 444.869 416.64 444.624C416.586 444.368 416.49 444.165 416.352 444.016C416.224 443.856 416.058 443.744 415.856 443.68C415.653 443.605 415.44 443.568 415.216 443.568C414.917 443.568 414.629 443.616 414.352 443.712C414.085 443.808 413.84 443.963 413.616 444.176C413.402 444.379 413.221 444.64 413.072 444.96C412.922 445.28 412.816 445.659 412.752 446.096L412.208 450H410.768L411.824 442.416ZM427.258 449.936C427.173 450.512 426.997 451.035 426.73 451.504C426.474 451.984 426.138 452.395 425.722 452.736C425.317 453.088 424.842 453.36 424.298 453.552C423.765 453.744 423.189 453.84 422.57 453.84C421.845 453.84 421.194 453.739 420.618 453.536C420.042 453.333 419.52 452.981 419.05 452.48L420.186 451.264C420.506 451.669 420.869 451.973 421.274 452.176C421.69 452.389 422.176 452.496 422.73 452.496C423.264 452.496 423.717 452.416 424.09 452.256C424.464 452.107 424.768 451.909 425.002 451.664C425.248 451.419 425.434 451.136 425.562 450.816C425.69 450.507 425.781 450.192 425.834 449.872L425.978 448.752H425.93C425.589 449.211 425.168 449.552 424.666 449.776C424.165 449.989 423.653 450.096 423.13 450.096C422.576 450.096 422.074 450 421.626 449.808C421.178 449.605 420.805 449.333 420.506 448.992C420.218 448.64 420.01 448.229 419.882 447.76C419.754 447.28 419.733 446.763 419.818 446.208C419.893 445.653 420.053 445.136 420.298 444.656C420.554 444.165 420.874 443.739 421.258 443.376C421.642 443.013 422.085 442.731 422.586 442.528C423.098 442.325 423.648 442.224 424.234 442.224C424.746 442.224 425.226 442.336 425.674 442.56C426.133 442.784 426.474 443.099 426.698 443.504H426.73L426.874 442.416H428.314L427.258 449.936ZM424.218 443.568C423.834 443.568 423.477 443.637 423.146 443.776C422.826 443.904 422.538 444.085 422.282 444.32C422.037 444.544 421.834 444.821 421.674 445.152C421.514 445.472 421.408 445.824 421.354 446.208C421.237 446.976 421.37 447.595 421.754 448.064C422.138 448.523 422.714 448.752 423.482 448.752C424.25 448.752 424.89 448.523 425.402 448.064C425.914 447.595 426.229 446.976 426.346 446.208C426.4 445.824 426.389 445.472 426.314 445.152C426.25 444.821 426.122 444.544 425.93 444.32C425.749 444.085 425.514 443.904 425.226 443.776C424.938 443.637 424.602 443.568 424.218 443.568ZM435.333 443.664H433.701L433.877 442.416H435.509L435.749 440.72C435.898 439.707 436.197 438.955 436.645 438.464C437.103 437.963 437.807 437.712 438.757 437.712C438.917 437.712 439.082 437.717 439.253 437.728C439.434 437.739 439.621 437.771 439.813 437.824L439.477 439.104C439.349 439.051 439.221 439.013 439.093 438.992C438.965 438.971 438.826 438.96 438.677 438.96C438.41 438.96 438.191 439.003 438.021 439.088C437.85 439.163 437.711 439.275 437.605 439.424C437.498 439.573 437.413 439.755 437.349 439.968C437.295 440.171 437.247 440.405 437.205 440.672L436.965 442.416H438.677L438.501 443.664H436.773L435.893 450H434.453L435.333 443.664ZM440.917 446.208C440.863 446.592 440.869 446.949 440.933 447.28C441.007 447.6 441.135 447.877 441.317 448.112C441.498 448.336 441.733 448.517 442.021 448.656C442.319 448.784 442.661 448.848 443.045 448.848C443.429 448.848 443.781 448.784 444.101 448.656C444.431 448.517 444.719 448.336 444.965 448.112C445.21 447.877 445.413 447.6 445.573 447.28C445.743 446.949 445.855 446.592 445.909 446.208C445.962 445.824 445.951 445.472 445.877 445.152C445.813 444.821 445.685 444.544 445.493 444.32C445.311 444.085 445.077 443.904 444.789 443.776C444.501 443.637 444.165 443.568 443.781 443.568C443.397 443.568 443.039 443.637 442.709 443.776C442.389 443.904 442.101 444.085 441.845 444.32C441.599 444.544 441.397 444.821 441.237 445.152C441.077 445.472 440.97 445.824 440.917 446.208ZM439.381 446.208C439.455 445.653 439.631 445.136 439.909 444.656C440.186 444.176 440.533 443.755 440.949 443.392C441.365 443.029 441.829 442.747 442.341 442.544C442.863 442.331 443.407 442.224 443.973 442.224C444.538 442.224 445.05 442.331 445.509 442.544C445.967 442.747 446.351 443.029 446.661 443.392C446.981 443.755 447.21 444.176 447.349 444.656C447.487 445.136 447.519 445.653 447.445 446.208C447.359 446.763 447.178 447.285 446.901 447.776C446.634 448.256 446.293 448.677 445.877 449.04C445.461 449.392 444.991 449.675 444.469 449.888C443.957 450.091 443.418 450.192 442.853 450.192C442.287 450.192 441.77 450.091 441.301 449.888C440.842 449.675 440.458 449.392 440.149 449.04C439.839 448.677 439.61 448.256 439.461 447.776C439.322 447.285 439.295 446.763 439.381 446.208ZM449.777 442.416H451.217L451.057 443.584H451.089C451.334 443.179 451.686 442.853 452.145 442.608C452.603 442.352 453.073 442.224 453.553 442.224C453.787 442.224 453.995 442.256 454.177 442.32L453.889 443.872C453.771 443.84 453.654 443.813 453.537 443.792C453.43 443.771 453.318 443.76 453.201 443.76C452.497 443.76 451.931 443.957 451.505 444.352C451.078 444.747 450.806 445.36 450.689 446.192L450.161 450H448.721L449.777 442.416ZM460.152 442.416H461.592L461.448 443.504H461.48C461.821 443.099 462.248 442.784 462.76 442.56C463.272 442.336 463.784 442.224 464.296 442.224C464.882 442.224 465.4 442.325 465.848 442.528C466.296 442.731 466.658 443.013 466.936 443.376C467.224 443.739 467.421 444.165 467.528 444.656C467.645 445.136 467.666 445.653 467.592 446.208C467.506 446.773 467.336 447.301 467.08 447.792C466.834 448.272 466.52 448.693 466.136 449.056C465.752 449.408 465.309 449.685 464.808 449.888C464.306 450.091 463.762 450.192 463.176 450.192C462.632 450.192 462.136 450.08 461.688 449.856C461.24 449.621 460.914 449.307 460.712 448.912H460.68L459.896 454.512H458.456L460.152 442.416ZM463.928 443.568C463.544 443.568 463.186 443.637 462.856 443.776C462.536 443.904 462.248 444.085 461.992 444.32C461.746 444.544 461.544 444.821 461.384 445.152C461.224 445.472 461.117 445.824 461.064 446.208C461.01 446.592 461.016 446.949 461.08 447.28C461.154 447.6 461.282 447.877 461.464 448.112C461.645 448.336 461.88 448.517 462.168 448.656C462.466 448.784 462.808 448.848 463.192 448.848C463.576 448.848 463.928 448.784 464.248 448.656C464.578 448.517 464.866 448.336 465.112 448.112C465.357 447.877 465.56 447.6 465.72 447.28C465.89 446.949 466.002 446.592 466.056 446.208C466.109 445.824 466.098 445.472 466.024 445.152C465.96 444.821 465.832 444.544 465.64 444.32C465.458 444.085 465.224 443.904 464.936 443.776C464.648 443.637 464.312 443.568 463.928 443.568ZM469.933 442.416H471.373L471.213 443.584H471.245C471.49 443.179 471.842 442.853 472.301 442.608C472.76 442.352 473.229 442.224 473.709 442.224C473.944 442.224 474.152 442.256 474.333 442.32L474.045 443.872C473.928 443.84 473.81 443.813 473.693 443.792C473.586 443.771 473.474 443.76 473.357 443.76C472.653 443.76 472.088 443.957 471.661 444.352C471.234 444.747 470.962 445.36 470.845 446.192L470.317 450H468.877L469.933 442.416ZM476.214 446.208C476.16 446.592 476.166 446.949 476.23 447.28C476.304 447.6 476.432 447.877 476.614 448.112C476.795 448.336 477.03 448.517 477.318 448.656C477.616 448.784 477.958 448.848 478.342 448.848C478.726 448.848 479.078 448.784 479.398 448.656C479.728 448.517 480.016 448.336 480.262 448.112C480.507 447.877 480.71 447.6 480.87 447.28C481.04 446.949 481.152 446.592 481.206 446.208C481.259 445.824 481.248 445.472 481.174 445.152C481.11 444.821 480.982 444.544 480.79 444.32C480.608 444.085 480.374 443.904 480.086 443.776C479.798 443.637 479.462 443.568 479.078 443.568C478.694 443.568 478.336 443.637 478.006 443.776C477.686 443.904 477.398 444.085 477.142 444.32C476.896 444.544 476.694 444.821 476.534 445.152C476.374 445.472 476.267 445.824 476.214 446.208ZM474.678 446.208C474.752 445.653 474.928 445.136 475.206 444.656C475.483 444.176 475.83 443.755 476.246 443.392C476.662 443.029 477.126 442.747 477.638 442.544C478.16 442.331 478.704 442.224 479.27 442.224C479.835 442.224 480.347 442.331 480.806 442.544C481.264 442.747 481.648 443.029 481.958 443.392C482.278 443.755 482.507 444.176 482.646 444.656C482.784 445.136 482.816 445.653 482.742 446.208C482.656 446.763 482.475 447.285 482.198 447.776C481.931 448.256 481.59 448.677 481.174 449.04C480.758 449.392 480.288 449.675 479.766 449.888C479.254 450.091 478.715 450.192 478.15 450.192C477.584 450.192 477.067 450.091 476.598 449.888C476.139 449.675 475.755 449.392 475.446 449.04C475.136 448.677 474.907 448.256 474.758 447.776C474.619 447.285 474.592 446.763 474.678 446.208ZM491.618 450H490.178L490.322 448.912H490.29C489.948 449.317 489.522 449.632 489.01 449.856C488.498 450.08 487.986 450.192 487.474 450.192C486.887 450.192 486.37 450.091 485.922 449.888C485.474 449.685 485.106 449.403 484.818 449.04C484.54 448.677 484.343 448.256 484.226 447.776C484.108 447.296 484.092 446.773 484.178 446.208C484.252 445.643 484.418 445.12 484.674 444.64C484.93 444.149 485.25 443.728 485.634 443.376C486.018 443.013 486.46 442.731 486.962 442.528C487.463 442.325 488.007 442.224 488.594 442.224C489.138 442.224 489.628 442.341 490.066 442.576C490.514 442.8 490.844 443.109 491.058 443.504H491.09L491.874 437.904H493.314L491.618 450ZM487.842 448.848C488.226 448.848 488.578 448.784 488.898 448.656C489.228 448.517 489.516 448.336 489.762 448.112C490.007 447.877 490.21 447.6 490.37 447.28C490.54 446.949 490.652 446.592 490.706 446.208C490.759 445.824 490.748 445.472 490.674 445.152C490.61 444.821 490.482 444.544 490.29 444.32C490.108 444.085 489.874 443.904 489.586 443.776C489.298 443.637 488.962 443.568 488.578 443.568C488.194 443.568 487.836 443.637 487.506 443.776C487.186 443.904 486.898 444.085 486.642 444.32C486.396 444.544 486.194 444.821 486.034 445.152C485.874 445.472 485.767 445.824 485.714 446.208C485.66 446.592 485.666 446.949 485.73 447.28C485.804 447.6 485.932 447.877 486.114 448.112C486.295 448.336 486.53 448.517 486.818 448.656C487.116 448.784 487.458 448.848 487.842 448.848ZM500.519 450H499.079L499.239 448.832H499.207C498.962 449.237 498.599 449.568 498.119 449.824C497.639 450.069 497.106 450.192 496.519 450.192C496.146 450.192 495.799 450.133 495.479 450.016C495.17 449.909 494.903 449.739 494.679 449.504C494.466 449.269 494.311 448.971 494.215 448.608C494.119 448.235 494.103 447.797 494.167 447.296L494.855 442.416H496.295L495.671 446.896C495.618 447.248 495.618 447.552 495.671 447.808C495.735 448.053 495.836 448.256 495.975 448.416C496.114 448.565 496.284 448.677 496.487 448.752C496.69 448.816 496.903 448.848 497.127 448.848C497.724 448.848 498.252 448.651 498.711 448.256C499.17 447.851 499.463 447.205 499.591 446.32L500.135 442.416H501.575L500.519 450ZM508.882 444.432C508.658 444.155 508.407 443.947 508.13 443.808C507.863 443.659 507.527 443.584 507.122 443.584C506.727 443.584 506.37 443.659 506.05 443.808C505.74 443.947 505.468 444.144 505.234 444.4C504.999 444.645 504.807 444.933 504.658 445.264C504.519 445.584 504.423 445.92 504.37 446.272C504.316 446.624 504.327 446.96 504.402 447.28C504.476 447.589 504.604 447.861 504.786 448.096C504.967 448.331 505.196 448.517 505.474 448.656C505.762 448.784 506.092 448.848 506.466 448.848C506.871 448.848 507.228 448.779 507.538 448.64C507.847 448.491 508.14 448.277 508.418 448L509.298 449.024C508.86 449.44 508.38 449.739 507.858 449.92C507.346 450.101 506.812 450.192 506.258 450.192C505.671 450.192 505.148 450.096 504.69 449.904C504.231 449.712 503.852 449.445 503.554 449.104C503.255 448.752 503.042 448.336 502.914 447.856C502.786 447.365 502.764 446.827 502.85 446.24C502.924 445.653 503.09 445.115 503.346 444.624C503.612 444.133 503.943 443.712 504.338 443.36C504.743 443.008 505.202 442.736 505.714 442.544C506.226 442.341 506.78 442.24 507.378 442.24C507.932 442.24 508.444 442.341 508.914 442.544C509.394 442.736 509.794 443.035 510.114 443.44L508.882 444.432ZM515.352 443.664H513.288L512.808 447.104C512.776 447.317 512.75 447.531 512.728 447.744C512.718 447.947 512.734 448.133 512.776 448.304C512.819 448.464 512.904 448.597 513.032 448.704C513.171 448.8 513.379 448.848 513.656 448.848C513.827 448.848 514.003 448.832 514.184 448.8C514.376 448.768 514.552 448.709 514.712 448.624L514.52 449.936C514.424 449.989 514.312 450.032 514.184 450.064C514.067 450.096 513.944 450.117 513.816 450.128C513.699 450.149 513.582 450.165 513.464 450.176C513.358 450.187 513.267 450.192 513.192 450.192C512.638 450.192 512.216 450.117 511.928 449.968C511.651 449.808 511.454 449.605 511.336 449.36C511.23 449.115 511.182 448.843 511.192 448.544C511.214 448.235 511.246 447.925 511.288 447.616L511.848 443.664H510.184L510.36 442.416H512.024L512.328 440.288H513.768L513.464 442.416H515.528L515.352 443.664ZM528.383 450H526.943L527.087 448.912H527.055C526.714 449.317 526.287 449.632 525.775 449.856C525.263 450.08 524.751 450.192 524.239 450.192C523.653 450.192 523.135 450.091 522.687 449.888C522.239 449.685 521.871 449.403 521.583 449.04C521.306 448.677 521.109 448.256 520.991 447.776C520.874 447.296 520.858 446.773 520.943 446.208C521.018 445.643 521.183 445.12 521.439 444.64C521.695 444.149 522.015 443.728 522.399 443.376C522.783 443.013 523.226 442.731 523.727 442.528C524.229 442.325 524.773 442.224 525.359 442.224C525.903 442.224 526.394 442.341 526.831 442.576C527.279 442.8 527.61 443.109 527.823 443.504H527.855L528.639 437.904H530.079L528.383 450ZM524.607 448.848C524.991 448.848 525.343 448.784 525.663 448.656C525.994 448.517 526.282 448.336 526.527 448.112C526.773 447.877 526.975 447.6 527.135 447.28C527.306 446.949 527.418 446.592 527.471 446.208C527.525 445.824 527.514 445.472 527.439 445.152C527.375 444.821 527.247 444.544 527.055 444.32C526.874 444.085 526.639 443.904 526.351 443.776C526.063 443.637 525.727 443.568 525.343 443.568C524.959 443.568 524.602 443.637 524.271 443.776C523.951 443.904 523.663 444.085 523.407 444.32C523.162 444.544 522.959 444.821 522.799 445.152C522.639 445.472 522.533 445.824 522.479 446.208C522.426 446.592 522.431 446.949 522.495 447.28C522.57 447.6 522.698 447.877 522.879 448.112C523.061 448.336 523.295 448.517 523.583 448.656C523.882 448.784 524.223 448.848 524.607 448.848ZM532.101 446.736C532.058 447.067 532.09 447.371 532.197 447.648C532.303 447.915 532.458 448.144 532.661 448.336C532.874 448.528 533.125 448.677 533.413 448.784C533.711 448.891 534.026 448.944 534.357 448.944C534.805 448.944 535.205 448.843 535.557 448.64C535.919 448.427 536.266 448.149 536.597 447.808L537.557 448.64C536.618 449.675 535.429 450.192 533.989 450.192C533.391 450.192 532.863 450.091 532.405 449.888C531.957 449.685 531.589 449.408 531.301 449.056C531.013 448.693 530.81 448.272 530.693 447.792C530.575 447.301 530.559 446.773 530.645 446.208C530.719 445.643 530.89 445.12 531.157 444.64C531.423 444.149 531.754 443.728 532.149 443.376C532.554 443.013 533.007 442.731 533.509 442.528C534.021 442.325 534.559 442.224 535.125 442.224C535.797 442.224 536.346 442.341 536.773 442.576C537.21 442.811 537.551 443.12 537.797 443.504C538.042 443.877 538.197 444.304 538.261 444.784C538.325 445.253 538.325 445.733 538.261 446.224L538.181 446.736H532.101ZM536.805 445.584C536.837 445.264 536.826 444.971 536.773 444.704C536.719 444.437 536.618 444.208 536.469 444.016C536.319 443.813 536.117 443.659 535.861 443.552C535.605 443.435 535.295 443.376 534.933 443.376C534.581 443.376 534.25 443.445 533.941 443.584C533.631 443.712 533.354 443.883 533.109 444.096C532.874 444.309 532.682 444.549 532.533 444.816C532.383 445.072 532.293 445.328 532.261 445.584H536.805ZM544.271 444.32C544.133 444.107 543.946 443.931 543.711 443.792C543.487 443.643 543.194 443.568 542.831 443.568C542.49 443.568 542.181 443.643 541.903 443.792C541.637 443.931 541.487 444.139 541.455 444.416C541.423 444.64 541.466 444.821 541.583 444.96C541.711 445.099 541.866 445.211 542.047 445.296C542.239 445.381 542.442 445.445 542.655 445.488C542.869 445.531 543.055 445.568 543.215 445.6C543.514 445.675 543.791 445.765 544.047 445.872C544.303 445.979 544.517 446.117 544.687 446.288C544.869 446.459 544.997 446.667 545.071 446.912C545.146 447.157 545.162 447.456 545.119 447.808C545.055 448.235 544.911 448.603 544.687 448.912C544.474 449.211 544.207 449.456 543.887 449.648C543.567 449.84 543.215 449.979 542.831 450.064C542.458 450.149 542.085 450.192 541.711 450.192C541.082 450.192 540.543 450.096 540.095 449.904C539.658 449.712 539.285 449.36 538.975 448.848L540.175 447.952C540.378 448.187 540.613 448.395 540.879 448.576C541.146 448.757 541.487 448.848 541.903 448.848C542.277 448.848 542.634 448.773 542.975 448.624C543.317 448.464 543.514 448.219 543.567 447.888C543.599 447.675 543.557 447.499 543.439 447.36C543.333 447.221 543.189 447.115 543.007 447.04C542.837 446.955 542.645 446.891 542.431 446.848C542.229 446.795 542.053 446.752 541.903 446.72C541.605 446.645 541.322 446.56 541.055 446.464C540.789 446.368 540.559 446.24 540.367 446.08C540.175 445.92 540.031 445.717 539.935 445.472C539.85 445.227 539.834 444.923 539.887 444.56C539.941 444.165 540.069 443.824 540.271 443.536C540.485 443.237 540.741 442.992 541.039 442.8C541.338 442.608 541.669 442.464 542.031 442.368C542.394 442.272 542.751 442.224 543.103 442.224C543.615 442.224 544.09 442.32 544.527 442.512C544.975 442.704 545.306 443.024 545.519 443.472L544.271 444.32ZM547.733 442.416H549.173L548.117 450H546.677L547.733 442.416ZM547.781 439.696C547.823 439.408 547.962 439.163 548.197 438.96C548.431 438.747 548.693 438.64 548.981 438.64C549.269 438.64 549.503 438.747 549.685 438.96C549.866 439.163 549.935 439.408 549.893 439.696C549.85 439.984 549.711 440.235 549.477 440.448C549.242 440.651 548.981 440.752 548.693 440.752C548.405 440.752 548.17 440.651 547.989 440.448C547.807 440.235 547.738 439.984 547.781 439.696ZM558.008 449.936C557.923 450.512 557.747 451.035 557.48 451.504C557.224 451.984 556.888 452.395 556.472 452.736C556.067 453.088 555.592 453.36 555.048 453.552C554.515 453.744 553.939 453.84 553.32 453.84C552.595 453.84 551.944 453.739 551.368 453.536C550.792 453.333 550.27 452.981 549.8 452.48L550.936 451.264C551.256 451.669 551.619 451.973 552.024 452.176C552.44 452.389 552.926 452.496 553.48 452.496C554.014 452.496 554.467 452.416 554.84 452.256C555.214 452.107 555.518 451.909 555.752 451.664C555.998 451.419 556.184 451.136 556.312 450.816C556.44 450.507 556.531 450.192 556.584 449.872L556.728 448.752H556.68C556.339 449.211 555.918 449.552 555.416 449.776C554.915 449.989 554.403 450.096 553.88 450.096C553.326 450.096 552.824 450 552.376 449.808C551.928 449.605 551.555 449.333 551.256 448.992C550.968 448.64 550.76 448.229 550.632 447.76C550.504 447.28 550.483 446.763 550.568 446.208C550.643 445.653 550.803 445.136 551.048 444.656C551.304 444.165 551.624 443.739 552.008 443.376C552.392 443.013 552.835 442.731 553.336 442.528C553.848 442.325 554.398 442.224 554.984 442.224C555.496 442.224 555.976 442.336 556.424 442.56C556.883 442.784 557.224 443.099 557.448 443.504H557.48L557.624 442.416H559.064L558.008 449.936ZM554.968 443.568C554.584 443.568 554.227 443.637 553.896 443.776C553.576 443.904 553.288 444.085 553.032 444.32C552.787 444.544 552.584 444.821 552.424 445.152C552.264 445.472 552.158 445.824 552.104 446.208C551.987 446.976 552.12 447.595 552.504 448.064C552.888 448.523 553.464 448.752 554.232 448.752C555 448.752 555.64 448.523 556.152 448.064C556.664 447.595 556.979 446.976 557.096 446.208C557.15 445.824 557.139 445.472 557.064 445.152C557 444.821 556.872 444.544 556.68 444.32C556.499 444.085 556.264 443.904 555.976 443.776C555.688 443.637 555.352 443.568 554.968 443.568ZM561.246 442.416H562.686L562.526 443.584H562.558C562.803 443.179 563.166 442.853 563.646 442.608C564.126 442.352 564.659 442.224 565.246 442.224C565.608 442.224 565.95 442.283 566.27 442.4C566.59 442.507 566.856 442.677 567.07 442.912C567.294 443.147 567.454 443.451 567.55 443.824C567.646 444.187 567.656 444.619 567.582 445.12L566.91 450H565.47L566.094 445.52C566.136 445.168 566.126 444.869 566.062 444.624C566.008 444.368 565.912 444.165 565.774 444.016C565.646 443.856 565.48 443.744 565.278 443.68C565.075 443.605 564.862 443.568 564.638 443.568C564.339 443.568 564.051 443.616 563.774 443.712C563.507 443.808 563.262 443.963 563.038 444.176C562.824 444.379 562.643 444.64 562.494 444.96C562.344 445.28 562.238 445.659 562.174 446.096L561.63 450H560.19L561.246 442.416ZM570.616 446.736C570.574 447.067 570.606 447.371 570.712 447.648C570.819 447.915 570.974 448.144 571.176 448.336C571.39 448.528 571.64 448.677 571.928 448.784C572.227 448.891 572.542 448.944 572.872 448.944C573.32 448.944 573.72 448.843 574.072 448.64C574.435 448.427 574.782 448.149 575.112 447.808L576.072 448.64C575.134 449.675 573.944 450.192 572.504 450.192C571.907 450.192 571.379 450.091 570.92 449.888C570.472 449.685 570.104 449.408 569.816 449.056C569.528 448.693 569.326 448.272 569.208 447.792C569.091 447.301 569.075 446.773 569.16 446.208C569.235 445.643 569.406 445.12 569.672 444.64C569.939 444.149 570.27 443.728 570.664 443.376C571.07 443.013 571.523 442.731 572.024 442.528C572.536 442.325 573.075 442.224 573.64 442.224C574.312 442.224 574.862 442.341 575.288 442.576C575.726 442.811 576.067 443.12 576.312 443.504C576.558 443.877 576.712 444.304 576.776 444.784C576.84 445.253 576.84 445.733 576.776 446.224L576.696 446.736H570.616ZM575.32 445.584C575.352 445.264 575.342 444.971 575.288 444.704C575.235 444.437 575.134 444.208 574.984 444.016C574.835 443.813 574.632 443.659 574.376 443.552C574.12 443.435 573.811 443.376 573.448 443.376C573.096 443.376 572.766 443.445 572.456 443.584C572.147 443.712 571.87 443.883 571.624 444.096C571.39 444.309 571.198 444.549 571.048 444.816C570.899 445.072 570.808 445.328 570.776 445.584H575.32ZM579.027 442.416H580.467L580.307 443.584H580.339C580.584 443.179 580.936 442.853 581.395 442.608C581.853 442.352 582.323 442.224 582.803 442.224C583.037 442.224 583.245 442.256 583.427 442.32L583.139 443.872C583.021 443.84 582.904 443.813 582.787 443.792C582.68 443.771 582.568 443.76 582.451 443.76C581.747 443.76 581.181 443.957 580.755 444.352C580.328 444.747 580.056 445.36 579.939 446.192L579.411 450H577.971L579.027 442.416ZM589.402 442.416H590.842L590.698 443.504H590.73C591.071 443.099 591.498 442.784 592.01 442.56C592.522 442.336 593.034 442.224 593.546 442.224C594.132 442.224 594.65 442.325 595.098 442.528C595.546 442.731 595.908 443.013 596.186 443.376C596.474 443.739 596.671 444.165 596.778 444.656C596.895 445.136 596.916 445.653 596.842 446.208C596.756 446.773 596.586 447.301 596.33 447.792C596.084 448.272 595.77 448.693 595.386 449.056C595.002 449.408 594.559 449.685 594.058 449.888C593.556 450.091 593.012 450.192 592.426 450.192C591.882 450.192 591.386 450.08 590.938 449.856C590.49 449.621 590.164 449.307 589.962 448.912H589.93L589.146 454.512H587.706L589.402 442.416ZM593.178 443.568C592.794 443.568 592.436 443.637 592.106 443.776C591.786 443.904 591.498 444.085 591.242 444.32C590.996 444.544 590.794 444.821 590.634 445.152C590.474 445.472 590.367 445.824 590.314 446.208C590.26 446.592 590.266 446.949 590.33 447.28C590.404 447.6 590.532 447.877 590.714 448.112C590.895 448.336 591.13 448.517 591.418 448.656C591.716 448.784 592.058 448.848 592.442 448.848C592.826 448.848 593.178 448.784 593.498 448.656C593.828 448.517 594.116 448.336 594.362 448.112C594.607 447.877 594.81 447.6 594.97 447.28C595.14 446.949 595.252 446.592 595.306 446.208C595.359 445.824 595.348 445.472 595.274 445.152C595.21 444.821 595.082 444.544 594.89 444.32C594.708 444.085 594.474 443.904 594.186 443.776C593.898 443.637 593.562 443.568 593.178 443.568ZM599.823 446.208C599.77 446.592 599.775 446.949 599.839 447.28C599.914 447.6 600.042 447.877 600.223 448.112C600.404 448.336 600.639 448.517 600.927 448.656C601.226 448.784 601.567 448.848 601.951 448.848C602.335 448.848 602.687 448.784 603.007 448.656C603.338 448.517 603.626 448.336 603.871 448.112C604.116 447.877 604.319 447.6 604.479 447.28C604.65 446.949 604.762 446.592 604.815 446.208C604.868 445.824 604.858 445.472 604.783 445.152C604.719 444.821 604.591 444.544 604.399 444.32C604.218 444.085 603.983 443.904 603.695 443.776C603.407 443.637 603.071 443.568 602.687 443.568C602.303 443.568 601.946 443.637 601.615 443.776C601.295 443.904 601.007 444.085 600.751 444.32C600.506 444.544 600.303 444.821 600.143 445.152C599.983 445.472 599.876 445.824 599.823 446.208ZM598.287 446.208C598.362 445.653 598.538 445.136 598.815 444.656C599.092 444.176 599.439 443.755 599.855 443.392C600.271 443.029 600.735 442.747 601.247 442.544C601.77 442.331 602.314 442.224 602.879 442.224C603.444 442.224 603.956 442.331 604.415 442.544C604.874 442.747 605.258 443.029 605.567 443.392C605.887 443.755 606.116 444.176 606.255 444.656C606.394 445.136 606.426 445.653 606.351 446.208C606.266 446.763 606.084 447.285 605.807 447.776C605.54 448.256 605.199 448.677 604.783 449.04C604.367 449.392 603.898 449.675 603.375 449.888C602.863 450.091 602.324 450.192 601.759 450.192C601.194 450.192 600.676 450.091 600.207 449.888C599.748 449.675 599.364 449.392 599.055 449.04C598.746 448.677 598.516 448.256 598.367 447.776C598.228 447.285 598.202 446.763 598.287 446.208ZM612.443 444.32C612.304 444.107 612.118 443.931 611.883 443.792C611.659 443.643 611.366 443.568 611.003 443.568C610.662 443.568 610.352 443.643 610.075 443.792C609.808 443.931 609.659 444.139 609.627 444.416C609.595 444.64 609.638 444.821 609.755 444.96C609.883 445.099 610.038 445.211 610.219 445.296C610.411 445.381 610.614 445.445 610.827 445.488C611.04 445.531 611.227 445.568 611.387 445.6C611.686 445.675 611.963 445.765 612.219 445.872C612.475 445.979 612.688 446.117 612.859 446.288C613.04 446.459 613.168 446.667 613.243 446.912C613.318 447.157 613.334 447.456 613.291 447.808C613.227 448.235 613.083 448.603 612.859 448.912C612.646 449.211 612.379 449.456 612.059 449.648C611.739 449.84 611.387 449.979 611.003 450.064C610.63 450.149 610.256 450.192 609.883 450.192C609.254 450.192 608.715 450.096 608.267 449.904C607.83 449.712 607.456 449.36 607.147 448.848L608.347 447.952C608.55 448.187 608.784 448.395 609.051 448.576C609.318 448.757 609.659 448.848 610.075 448.848C610.448 448.848 610.806 448.773 611.147 448.624C611.488 448.464 611.686 448.219 611.739 447.888C611.771 447.675 611.728 447.499 611.611 447.36C611.504 447.221 611.36 447.115 611.179 447.04C611.008 446.955 610.816 446.891 610.603 446.848C610.4 446.795 610.224 446.752 610.075 446.72C609.776 446.645 609.494 446.56 609.227 446.464C608.96 446.368 608.731 446.24 608.539 446.08C608.347 445.92 608.203 445.717 608.107 445.472C608.022 445.227 608.006 444.923 608.059 444.56C608.112 444.165 608.24 443.824 608.443 443.536C608.656 443.237 608.912 442.992 609.211 442.8C609.51 442.608 609.84 442.464 610.203 442.368C610.566 442.272 610.923 442.224 611.275 442.224C611.787 442.224 612.262 442.32 612.699 442.512C613.147 442.704 613.478 443.024 613.691 443.472L612.443 444.32ZM615.904 442.416H617.344L616.288 450H614.848L615.904 442.416ZM615.952 439.696C615.995 439.408 616.134 439.163 616.368 438.96C616.603 438.747 616.864 438.64 617.152 438.64C617.44 438.64 617.675 438.747 617.856 438.96C618.038 439.163 618.107 439.408 618.064 439.696C618.022 439.984 617.883 440.235 617.648 440.448C617.414 440.651 617.152 440.752 616.864 440.752C616.576 440.752 616.342 440.651 616.16 440.448C615.979 440.235 615.91 439.984 615.952 439.696ZM623.524 443.664H621.46L620.98 447.104C620.948 447.317 620.922 447.531 620.9 447.744C620.89 447.947 620.906 448.133 620.948 448.304C620.991 448.464 621.076 448.597 621.204 448.704C621.343 448.8 621.551 448.848 621.828 448.848C621.999 448.848 622.175 448.832 622.356 448.8C622.548 448.768 622.724 448.709 622.884 448.624L622.692 449.936C622.596 449.989 622.484 450.032 622.356 450.064C622.239 450.096 622.116 450.117 621.988 450.128C621.871 450.149 621.754 450.165 621.636 450.176C621.53 450.187 621.439 450.192 621.364 450.192C620.81 450.192 620.388 450.117 620.1 449.968C619.823 449.808 619.626 449.605 619.508 449.36C619.402 449.115 619.354 448.843 619.364 448.544C619.386 448.235 619.418 447.925 619.46 447.616L620.02 443.664H618.356L618.532 442.416H620.196L620.5 440.288H621.94L621.636 442.416H623.7L623.524 443.664ZM625.67 442.416H627.11L626.054 450H624.614L625.67 442.416ZM625.718 439.696C625.761 439.408 625.899 439.163 626.134 438.96C626.369 438.747 626.63 438.64 626.918 438.64C627.206 438.64 627.441 438.747 627.622 438.96C627.803 439.163 627.873 439.408 627.83 439.696C627.787 439.984 627.649 440.235 627.414 440.448C627.179 440.651 626.918 440.752 626.63 440.752C626.342 440.752 626.107 440.651 625.926 440.448C625.745 440.235 625.675 439.984 625.718 439.696ZM630.042 446.208C629.988 446.592 629.994 446.949 630.058 447.28C630.132 447.6 630.26 447.877 630.442 448.112C630.623 448.336 630.858 448.517 631.146 448.656C631.444 448.784 631.786 448.848 632.17 448.848C632.554 448.848 632.906 448.784 633.226 448.656C633.556 448.517 633.844 448.336 634.09 448.112C634.335 447.877 634.538 447.6 634.698 447.28C634.868 446.949 634.98 446.592 635.034 446.208C635.087 445.824 635.076 445.472 635.002 445.152C634.938 444.821 634.81 444.544 634.618 444.32C634.436 444.085 634.202 443.904 633.914 443.776C633.626 443.637 633.29 443.568 632.906 443.568C632.522 443.568 632.164 443.637 631.834 443.776C631.514 443.904 631.226 444.085 630.97 444.32C630.724 444.544 630.522 444.821 630.362 445.152C630.202 445.472 630.095 445.824 630.042 446.208ZM628.506 446.208C628.58 445.653 628.756 445.136 629.034 444.656C629.311 444.176 629.658 443.755 630.074 443.392C630.49 443.029 630.954 442.747 631.466 442.544C631.988 442.331 632.532 442.224 633.098 442.224C633.663 442.224 634.175 442.331 634.634 442.544C635.092 442.747 635.476 443.029 635.786 443.392C636.106 443.755 636.335 444.176 636.474 444.656C636.612 445.136 636.644 445.653 636.57 446.208C636.484 446.763 636.303 447.285 636.026 447.776C635.759 448.256 635.418 448.677 635.002 449.04C634.586 449.392 634.116 449.675 633.594 449.888C633.082 450.091 632.543 450.192 631.978 450.192C631.412 450.192 630.895 450.091 630.426 449.888C629.967 449.675 629.583 449.392 629.274 449.04C628.964 448.677 628.735 448.256 628.586 447.776C628.447 447.285 628.42 446.763 628.506 446.208ZM638.902 442.416H640.342L640.182 443.584H640.214C640.459 443.179 640.822 442.853 641.302 442.608C641.782 442.352 642.315 442.224 642.902 442.224C643.264 442.224 643.606 442.283 643.926 442.4C644.246 442.507 644.512 442.677 644.726 442.912C644.95 443.147 645.11 443.451 645.206 443.824C645.302 444.187 645.312 444.619 645.238 445.12L644.566 450H643.126L643.75 445.52C643.792 445.168 643.782 444.869 643.718 444.624C643.664 444.368 643.568 444.165 643.43 444.016C643.302 443.856 643.136 443.744 642.934 443.68C642.731 443.605 642.518 443.568 642.294 443.568C641.995 443.568 641.707 443.616 641.43 443.712C641.163 443.808 640.918 443.963 640.694 444.176C640.48 444.379 640.299 444.64 640.15 444.96C640 445.28 639.894 445.659 639.83 446.096L639.286 450H637.846L638.902 442.416ZM651.552 444.32C651.414 444.107 651.227 443.931 650.992 443.792C650.768 443.643 650.475 443.568 650.112 443.568C649.771 443.568 649.462 443.643 649.184 443.792C648.918 443.931 648.768 444.139 648.736 444.416C648.704 444.64 648.747 444.821 648.864 444.96C648.992 445.099 649.147 445.211 649.328 445.296C649.52 445.381 649.723 445.445 649.936 445.488C650.15 445.531 650.336 445.568 650.496 445.6C650.795 445.675 651.072 445.765 651.328 445.872C651.584 445.979 651.798 446.117 651.968 446.288C652.15 446.459 652.278 446.667 652.352 446.912C652.427 447.157 652.443 447.456 652.4 447.808C652.336 448.235 652.192 448.603 651.968 448.912C651.755 449.211 651.488 449.456 651.168 449.648C650.848 449.84 650.496 449.979 650.112 450.064C649.739 450.149 649.366 450.192 648.992 450.192C648.363 450.192 647.824 450.096 647.376 449.904C646.939 449.712 646.566 449.36 646.256 448.848L647.456 447.952C647.659 448.187 647.894 448.395 648.16 448.576C648.427 448.757 648.768 448.848 649.184 448.848C649.558 448.848 649.915 448.773 650.256 448.624C650.598 448.464 650.795 448.219 650.848 447.888C650.88 447.675 650.838 447.499 650.72 447.36C650.614 447.221 650.47 447.115 650.288 447.04C650.118 446.955 649.926 446.891 649.712 446.848C649.51 446.795 649.334 446.752 649.184 446.72C648.886 446.645 648.603 446.56 648.336 446.464C648.07 446.368 647.84 446.24 647.648 446.08C647.456 445.92 647.312 445.717 647.216 445.472C647.131 445.227 647.115 444.923 647.168 444.56C647.222 444.165 647.35 443.824 647.552 443.536C647.766 443.237 648.022 442.992 648.32 442.8C648.619 442.608 648.95 442.464 649.312 442.368C649.675 442.272 650.032 442.224 650.384 442.224C650.896 442.224 651.371 442.32 651.808 442.512C652.256 442.704 652.587 443.024 652.8 443.472L651.552 444.32Z" fill="#666666"/>
<rect x="512.5" y="514.5" width="12" height="23.7619" rx="6" stroke="#FD6161"/>
<circle cx="518.545" cy="521.045" r="2.94785" fill="#FD6161"/>
</g>
<defs>
<clipPath id="clip0">
<rect width="1024" height="575" fill="white"/>
</clipPath>
</defs>
</svg>
