<svg width="1440" height="800" viewBox="0 0 1440 800" fill="none" xmlns="http://www.w3.org/2000/svg">
<g clip-path="url(#clip0)">
<path fill-rule="evenodd" clip-rule="evenodd" d="M0.00044409 -0.00044409L1440 3.06521e-05L1440 805L0.000400932 805L0.00044409 -0.00044409ZM552.489 363.009L723.446 192.051L894.534 363.139L814 445.5C815.709 438.404 817.584 428.196 817.581 420.573C817.56 368.634 775.439 326.512 723.499 326.492C671.56 326.471 629.471 368.56 629.492 420.499C629.495 428.126 630.784 438.399 632.5 445.5L552.489 363.009ZM543.966 371.531L495.051 420.446L723.626 649.021L858.014 514.633L723.573 514.581C694.429 514.569 668.376 501.302 651.118 480.482L543.966 371.531ZM651.118 458.952C664.906 484.863 692.181 502.511 723.569 502.524C754.954 502.536 782.214 484.911 795.982 459.015L723.518 386.551L651.118 458.952ZM801.137 447.125C803.984 438.797 805.527 429.864 805.524 420.568C805.506 375.288 768.785 338.567 723.504 338.549C678.224 338.531 641.531 375.224 641.549 420.504C641.553 429.797 643.102 438.729 645.954 447.057L723.512 369.5L801.137 447.125ZM795.982 480.563C788.654 489.4 779.739 496.872 769.672 502.542L870.067 502.581L952.021 420.626L902.5 372L795.982 480.563Z" fill="white"/>
<path fill-rule="evenodd" clip-rule="evenodd" d="M640.81 258H568H558V268V340.81L568 330.81V268H630.81L640.81 258ZM873 324.19V268H816.81L806.81 258H873H883V268V334.19L873 324.19ZM817.619 573H873V517.619L883 507.619V573V583H873H807.619L817.619 573ZM568 511V573H630L640 583H568H558V573V501L568 511Z" fill="#EEEEEE"/>
</g>
<defs>
<clipPath id="clip0">
<rect width="1440" height="800" fill="white"/>
</clipPath>
</defs>
</svg>
