<svg width="17" height="15" viewBox="0 0 17 15" fill="none" xmlns="http://www.w3.org/2000/svg">
<path d="M16.78 15H8.54C7.43333 15 6.40667 14.8333 5.46 14.5C4.52667 14.1533 3.71333 13.6667 3.02 13.04C2.34 12.4 1.8 11.6267 1.4 10.72C1.01333 9.8 0.82 8.76667 0.82 7.62C0.82 6.58 1.01333 5.62667 1.4 4.76C1.8 3.88 2.34 3.12667 3.02 2.5C3.7 1.86 4.48667 1.36667 5.38 1.02C6.28667 0.659999 7.24667 0.48 8.26 0.48C9.27333 0.48 10.2267 0.659999 11.12 1.02C12.0267 1.36667 12.82 1.86 13.5 2.5C14.18 3.12667 14.7133 3.88 15.1 4.76C15.5 5.62667 15.7 6.58 15.7 7.62C15.7 8.36667 15.6067 9.02667 15.42 9.6C15.2467 10.16 15.0133 10.66 14.72 11.1C14.4267 11.5267 14.1 11.8867 13.74 12.18C13.3933 12.4733 13.0533 12.72 12.72 12.92V12.96H16.78V15ZM8.2 2.76C7.52 2.76 6.88667 2.88667 6.3 3.14C5.72667 3.38 5.22667 3.72 4.8 4.16C4.38667 4.6 4.06 5.12 3.82 5.72C3.58 6.32 3.46 6.97333 3.46 7.68C3.46 8.4 3.58 9.07333 3.82 9.7C4.06 10.3133 4.39333 10.8467 4.82 11.3C5.24667 11.74 5.74667 12.0867 6.32 12.34C6.90667 12.5933 7.54667 12.72 8.24 12.72C8.93333 12.72 9.57333 12.5933 10.16 12.34C10.76 12.0867 11.2733 11.74 11.7 11.3C12.1267 10.8467 12.46 10.3133 12.7 9.7C12.94 9.07333 13.06 8.4 13.06 7.68C13.06 6.97333 12.94 6.32 12.7 5.72C12.46 5.12 12.1267 4.6 11.7 4.16C11.2733 3.72 10.76 3.38 10.16 3.14C9.57333 2.88667 8.92 2.76 8.2 2.76Z" fill="url(#paint0_linear)"/>
<defs>
<linearGradient id="paint0_linear" x1="-10.7989" y1="7.81153" x2="12.8415" y2="23.4961" gradientUnits="userSpaceOnUse">
<stop stop-color="#FD6161"/>
<stop offset="1" stop-color="#FF956C"/>
</linearGradient>
</defs>
</svg>
