<svg width="142" height="29" viewBox="0 0 142 29" fill="none" xmlns="http://www.w3.org/2000/svg">
<path fill-rule="evenodd" clip-rule="evenodd" d="M1 28L1 1L28 1L28 28L1 28ZM1.9375 20.744L1.9375 1.9375L20.7435 1.9375V10.69C20.4474 10.2057 20.0898 9.74838 19.6707 9.32928C16.815 6.47357 12.185 6.47357 9.32929 9.32928C6.47358 12.185 6.47358 16.815 9.32929 19.6707C9.74862 20.0901 10.2062 20.4478 10.6908 20.744L1.9375 20.744ZM1.9375 21.6815L1.9375 27.0625L27.0625 27.0625V12.279L19.8033 19.5381L19.8016 19.5365C19.7587 19.5816 19.7151 19.6264 19.6707 19.6707C17.7633 21.5781 15.0643 22.2115 12.6312 21.5709V21.6815L1.9375 21.6815ZM12.6312 20.5963C14.813 21.263 17.2821 20.7336 19.0078 19.0078C20.7334 17.2822 21.263 14.8134 20.5964 12.6317L12.6312 12.6317L12.6312 20.5963ZM20.2263 11.6942C19.925 11.0795 19.5189 10.5033 19.0078 9.99219C16.5182 7.5026 12.4818 7.5026 9.9922 9.99219C7.50261 12.4818 7.50261 16.5182 9.9922 19.0078C10.5031 19.5187 11.0792 19.9248 11.6937 20.226L11.6937 11.6942L20.2263 11.6942ZM21.571 12.6317C21.9022 13.8898 21.8927 15.2189 21.5427 16.473L26.9628 11.0529L27.0625 11.1526V1.9375L21.681 1.9375L21.681 12.6317H21.571Z" stroke="#A35146"/>
<path fill-rule="evenodd" clip-rule="evenodd" d="M1 28L1 1L28 1L28 28L1 28ZM1.9375 20.744L1.9375 1.9375L20.7435 1.9375V10.69C20.4474 10.2057 20.0898 9.74838 19.6707 9.32928C16.815 6.47357 12.185 6.47357 9.32929 9.32928C6.47358 12.185 6.47358 16.815 9.32929 19.6707C9.74862 20.0901 10.2062 20.4478 10.6908 20.744L1.9375 20.744ZM1.9375 21.6815L1.9375 27.0625L27.0625 27.0625V12.279L19.8033 19.5381L19.8016 19.5365C19.7587 19.5816 19.7151 19.6264 19.6707 19.6707C17.7633 21.5781 15.0643 22.2115 12.6312 21.5709V21.6815L1.9375 21.6815ZM12.6312 20.5963C14.813 21.263 17.2821 20.7336 19.0078 19.0078C20.7334 17.2822 21.263 14.8134 20.5964 12.6317L12.6312 12.6317L12.6312 20.5963ZM20.2263 11.6942C19.925 11.0795 19.5189 10.5033 19.0078 9.99219C16.5182 7.5026 12.4818 7.5026 9.9922 9.99219C7.50261 12.4818 7.50261 16.5182 9.9922 19.0078C10.5031 19.5187 11.0792 19.9248 11.6937 20.226L11.6937 11.6942L20.2263 11.6942ZM21.571 12.6317C21.9022 13.8898 21.8927 15.2189 21.5427 16.473L26.9628 11.0529L27.0625 11.1526V1.9375L21.681 1.9375L21.681 12.6317H21.571Z" stroke="#709F97"/>
<path d="M65.9532 21H58.5552C57.6192 21 56.7492 20.832 55.9452 20.496C55.1532 20.16 54.4632 19.704 53.8752 19.128C53.2992 18.54 52.8432 17.85 52.5072 17.058C52.1712 16.254 52.0032 15.39 52.0032 14.466C52.0032 13.542 52.1712 12.684 52.5072 11.892C52.8432 11.088 53.2992 10.398 53.8752 9.822C54.4632 9.234 55.1532 8.772 55.9452 8.436C56.7492 8.1 57.6192 7.932 58.5552 7.932C59.4912 7.932 60.3552 8.1 61.1472 8.436C61.9512 8.772 62.6412 9.234 63.2172 9.822C63.8052 10.398 64.2672 11.088 64.6032 11.892C64.9392 12.684 65.1072 13.542 65.1072 14.466C65.1072 15.006 65.0352 15.546 64.8912 16.086C64.7472 16.614 64.5372 17.112 64.2612 17.58C63.9972 18.036 63.6732 18.45 63.2892 18.822C62.9172 19.182 62.4912 19.464 62.0112 19.668V19.704H65.9532V21ZM53.6232 14.466C53.6232 15.186 53.7492 15.858 54.0012 16.482C54.2532 17.106 54.5952 17.652 55.0272 18.12C55.4712 18.576 55.9932 18.936 56.5932 19.2C57.1932 19.464 57.8472 19.596 58.5552 19.596C59.2512 19.596 59.8992 19.464 60.4992 19.2C61.1112 18.936 61.6332 18.576 62.0652 18.12C62.5092 17.652 62.8572 17.106 63.1092 16.482C63.3612 15.858 63.4872 15.186 63.4872 14.466C63.4872 13.758 63.3612 13.092 63.1092 12.468C62.8692 11.844 62.5272 11.304 62.0832 10.848C61.6512 10.38 61.1352 10.014 60.5352 9.75C59.9352 9.474 59.2752 9.336 58.5552 9.336C57.8352 9.336 57.1752 9.474 56.5752 9.75C55.9752 10.014 55.4532 10.38 55.0092 10.848C54.5772 11.304 54.2352 11.844 53.9832 12.468C53.7432 13.092 53.6232 13.758 53.6232 14.466ZM67.6269 12.576H69.0309V21H67.6269V12.576ZM67.3029 9.282C67.3029 9.006 67.3989 8.766 67.5909 8.562C67.7949 8.358 68.0409 8.256 68.3289 8.256C68.6169 8.256 68.8569 8.358 69.0489 8.562C69.2529 8.766 69.3549 9.006 69.3549 9.282C69.3549 9.582 69.2589 9.828 69.0669 10.02C68.8749 10.212 68.6289 10.308 68.3289 10.308C68.0289 10.308 67.7829 10.212 67.5909 10.02C67.3989 9.828 67.3029 9.582 67.3029 9.282ZM71.7172 13.656C72.1492 13.212 72.6592 12.888 73.2472 12.684C73.8472 12.468 74.4532 12.36 75.0652 12.36C76.3132 12.36 77.2132 12.654 77.7652 13.242C78.3172 13.83 78.5932 14.724 78.5932 15.924V19.542C78.5932 19.782 78.6052 20.034 78.6292 20.298C78.6532 20.55 78.6832 20.784 78.7192 21H77.3692C77.3212 20.808 77.2912 20.598 77.2792 20.37C77.2792 20.13 77.2792 19.92 77.2792 19.74H77.2432C76.9672 20.172 76.5952 20.526 76.1272 20.802C75.6712 21.078 75.1192 21.216 74.4712 21.216C74.0392 21.216 73.6312 21.162 73.2472 21.054C72.8752 20.946 72.5452 20.79 72.2572 20.586C71.9812 20.37 71.7592 20.106 71.5912 19.794C71.4232 19.482 71.3392 19.122 71.3392 18.714C71.3392 18.018 71.5192 17.472 71.8792 17.076C72.2392 16.68 72.6832 16.386 73.2112 16.194C73.7512 16.002 74.3272 15.882 74.9392 15.834C75.5632 15.786 76.1332 15.762 76.6492 15.762H77.1892V15.51C77.1892 14.898 77.0032 14.436 76.6312 14.124C76.2712 13.812 75.7612 13.656 75.1012 13.656C74.6452 13.656 74.1952 13.734 73.7512 13.89C73.3192 14.034 72.9352 14.262 72.5992 14.574L71.7172 13.656ZM75.7852 16.95C74.8852 16.95 74.1712 17.076 73.6432 17.328C73.1152 17.58 72.8512 17.994 72.8512 18.57C72.8512 19.098 73.0252 19.476 73.3732 19.704C73.7332 19.92 74.1772 20.028 74.7052 20.028C75.1132 20.028 75.4672 19.962 75.7672 19.83C76.0792 19.686 76.3372 19.5 76.5412 19.272C76.7452 19.044 76.9012 18.78 77.0092 18.48C77.1172 18.168 77.1772 17.838 77.1892 17.49V16.95H75.7852ZM81.1591 14.574C81.1591 14.19 81.1471 13.83 81.1231 13.494C81.0991 13.158 81.0871 12.852 81.0871 12.576H82.4191C82.4191 12.804 82.4251 13.032 82.4371 13.26C82.4491 13.488 82.4551 13.722 82.4551 13.962H82.4911C82.5871 13.758 82.7191 13.56 82.8871 13.368C83.0671 13.176 83.2771 13.008 83.5171 12.864C83.7571 12.708 84.0271 12.588 84.3271 12.504C84.6271 12.408 84.9511 12.36 85.2991 12.36C85.8511 12.36 86.3251 12.444 86.7211 12.612C87.1291 12.78 87.4651 13.014 87.7291 13.314C87.9931 13.614 88.1851 13.98 88.3051 14.412C88.4371 14.832 88.5031 15.294 88.5031 15.798V21H87.0991V15.942C87.0991 15.234 86.9431 14.676 86.6311 14.268C86.3191 13.86 85.8331 13.656 85.1731 13.656C84.7171 13.656 84.3211 13.734 83.9851 13.89C83.6611 14.046 83.3911 14.268 83.1751 14.556C82.9711 14.844 82.8151 15.186 82.7071 15.582C82.6111 15.978 82.5631 16.416 82.5631 16.896V21H81.1591V14.574ZM94.9469 8.256H96.6209L99.5189 18.84H99.5549L102.687 8.256H104.379L107.493 18.84H107.529L110.481 8.256H112.065L108.321 21H106.683L103.533 10.2H103.497L100.329 21H98.6729L94.9469 8.256ZM112.727 13.656C113.159 13.212 113.669 12.888 114.257 12.684C114.857 12.468 115.463 12.36 116.075 12.36C117.323 12.36 118.223 12.654 118.775 13.242C119.327 13.83 119.603 14.724 119.603 15.924V19.542C119.603 19.782 119.615 20.034 119.639 20.298C119.663 20.55 119.693 20.784 119.729 21H118.379C118.331 20.808 118.301 20.598 118.289 20.37C118.289 20.13 118.289 19.92 118.289 19.74H118.253C117.977 20.172 117.605 20.526 117.137 20.802C116.681 21.078 116.129 21.216 115.481 21.216C115.049 21.216 114.641 21.162 114.257 21.054C113.885 20.946 113.555 20.79 113.267 20.586C112.991 20.37 112.769 20.106 112.601 19.794C112.433 19.482 112.349 19.122 112.349 18.714C112.349 18.018 112.529 17.472 112.889 17.076C113.249 16.68 113.693 16.386 114.221 16.194C114.761 16.002 115.337 15.882 115.949 15.834C116.573 15.786 117.143 15.762 117.659 15.762H118.199V15.51C118.199 14.898 118.013 14.436 117.641 14.124C117.281 13.812 116.771 13.656 116.111 13.656C115.655 13.656 115.205 13.734 114.761 13.89C114.329 14.034 113.945 14.262 113.609 14.574L112.727 13.656ZM116.795 16.95C115.895 16.95 115.181 17.076 114.653 17.328C114.125 17.58 113.861 17.994 113.861 18.57C113.861 19.098 114.035 19.476 114.383 19.704C114.743 19.92 115.187 20.028 115.715 20.028C116.123 20.028 116.477 19.962 116.777 19.83C117.089 19.686 117.347 19.5 117.551 19.272C117.755 19.044 117.911 18.78 118.019 18.48C118.127 18.168 118.187 17.838 118.199 17.49V16.95H116.795ZM122.169 14.574C122.169 14.19 122.157 13.83 122.133 13.494C122.109 13.158 122.097 12.852 122.097 12.576H123.429C123.429 12.804 123.435 13.032 123.447 13.26C123.459 13.488 123.465 13.722 123.465 13.962H123.501C123.597 13.758 123.729 13.56 123.897 13.368C124.077 13.176 124.287 13.008 124.527 12.864C124.767 12.708 125.037 12.588 125.337 12.504C125.637 12.408 125.961 12.36 126.309 12.36C126.861 12.36 127.335 12.444 127.731 12.612C128.139 12.78 128.475 13.014 128.739 13.314C129.003 13.614 129.195 13.98 129.315 14.412C129.447 14.832 129.513 15.294 129.513 15.798V21H128.109V15.942C128.109 15.234 127.953 14.676 127.641 14.268C127.329 13.86 126.843 13.656 126.183 13.656C125.727 13.656 125.331 13.734 124.995 13.89C124.671 14.046 124.401 14.268 124.185 14.556C123.981 14.844 123.825 15.186 123.717 15.582C123.621 15.978 123.573 16.416 123.573 16.896V21H122.169V14.574ZM140.577 20.622C140.577 22.158 140.181 23.322 139.389 24.114C138.609 24.918 137.475 25.32 135.987 25.32C135.159 25.32 134.409 25.2 133.737 24.96C133.077 24.72 132.447 24.306 131.847 23.718L132.855 22.566C133.299 23.046 133.767 23.406 134.259 23.646C134.763 23.898 135.339 24.024 135.987 24.024C136.611 24.024 137.127 23.928 137.535 23.736C137.955 23.556 138.285 23.304 138.525 22.98C138.765 22.668 138.933 22.308 139.029 21.9C139.125 21.492 139.173 21.066 139.173 20.622V19.542H139.137C138.801 20.082 138.363 20.478 137.823 20.73C137.283 20.982 136.731 21.108 136.167 21.108C135.507 21.108 134.901 21 134.349 20.784C133.797 20.568 133.323 20.268 132.927 19.884C132.531 19.5 132.225 19.044 132.009 18.516C131.793 17.988 131.685 17.412 131.685 16.788C131.685 16.104 131.793 15.486 132.009 14.934C132.225 14.382 132.525 13.92 132.909 13.548C133.305 13.164 133.779 12.87 134.331 12.666C134.883 12.462 135.495 12.36 136.167 12.36C136.455 12.36 136.743 12.396 137.031 12.468C137.319 12.528 137.595 12.63 137.859 12.774C138.135 12.906 138.381 13.08 138.597 13.296C138.813 13.5 138.993 13.74 139.137 14.016H139.173V12.576H140.577V20.622ZM133.197 16.788C133.197 17.22 133.275 17.622 133.431 17.994C133.587 18.354 133.797 18.672 134.061 18.948C134.337 19.212 134.655 19.422 135.015 19.578C135.375 19.734 135.759 19.812 136.167 19.812C136.647 19.812 137.073 19.728 137.445 19.56C137.817 19.392 138.129 19.17 138.381 18.894C138.645 18.606 138.843 18.282 138.975 17.922C139.107 17.55 139.173 17.16 139.173 16.752C139.173 16.296 139.101 15.882 138.957 15.51C138.813 15.126 138.609 14.796 138.345 14.52C138.081 14.244 137.763 14.034 137.391 13.89C137.019 13.734 136.611 13.656 136.167 13.656C135.723 13.656 135.315 13.74 134.943 13.908C134.583 14.064 134.271 14.286 134.007 14.574C133.755 14.85 133.557 15.18 133.413 15.564C133.269 15.936 133.197 16.344 133.197 16.788Z" fill="#888888"/>
</svg>
