<svg width="138" height="30" viewBox="0 0 138 30" fill="none" xmlns="http://www.w3.org/2000/svg">
<path d="M61.9532 23H54.5552C53.6192 23 52.7492 22.832 51.9452 22.496C51.1532 22.16 50.4632 21.704 49.8752 21.128C49.2992 20.54 48.8432 19.85 48.5072 19.058C48.1712 18.254 48.0032 17.39 48.0032 16.466C48.0032 15.542 48.1712 14.684 48.5072 13.892C48.8432 13.088 49.2992 12.398 49.8752 11.822C50.4632 11.234 51.1532 10.772 51.9452 10.436C52.7492 10.1 53.6192 9.932 54.5552 9.932C55.4912 9.932 56.3552 10.1 57.1472 10.436C57.9512 10.772 58.6412 11.234 59.2172 11.822C59.8052 12.398 60.2672 13.088 60.6032 13.892C60.9392 14.684 61.1072 15.542 61.1072 16.466C61.1072 17.006 61.0352 17.546 60.8912 18.086C60.7472 18.614 60.5372 19.112 60.2612 19.58C59.9972 20.036 59.6732 20.45 59.2892 20.822C58.9172 21.182 58.4912 21.464 58.0112 21.668V21.704H61.9532V23ZM49.6232 16.466C49.6232 17.186 49.7492 17.858 50.0012 18.482C50.2532 19.106 50.5952 19.652 51.0272 20.12C51.4712 20.576 51.9932 20.936 52.5932 21.2C53.1932 21.464 53.8472 21.596 54.5552 21.596C55.2512 21.596 55.8992 21.464 56.4992 21.2C57.1112 20.936 57.6332 20.576 58.0652 20.12C58.5092 19.652 58.8572 19.106 59.1092 18.482C59.3612 17.858 59.4872 17.186 59.4872 16.466C59.4872 15.758 59.3612 15.092 59.1092 14.468C58.8692 13.844 58.5272 13.304 58.0832 12.848C57.6512 12.38 57.1352 12.014 56.5352 11.75C55.9352 11.474 55.2752 11.336 54.5552 11.336C53.8352 11.336 53.1752 11.474 52.5752 11.75C51.9752 12.014 51.4532 12.38 51.0092 12.848C50.5772 13.304 50.2352 13.844 49.9832 14.468C49.7432 15.092 49.6232 15.758 49.6232 16.466ZM63.6269 14.576H65.0309V23H63.6269V14.576ZM63.3029 11.282C63.3029 11.006 63.3989 10.766 63.5909 10.562C63.7949 10.358 64.0409 10.256 64.3289 10.256C64.6169 10.256 64.8569 10.358 65.0489 10.562C65.2529 10.766 65.3549 11.006 65.3549 11.282C65.3549 11.582 65.2589 11.828 65.0669 12.02C64.8749 12.212 64.6289 12.308 64.3289 12.308C64.0289 12.308 63.7829 12.212 63.5909 12.02C63.3989 11.828 63.3029 11.582 63.3029 11.282ZM67.7172 15.656C68.1492 15.212 68.6592 14.888 69.2472 14.684C69.8472 14.468 70.4532 14.36 71.0652 14.36C72.3132 14.36 73.2132 14.654 73.7652 15.242C74.3172 15.83 74.5932 16.724 74.5932 17.924V21.542C74.5932 21.782 74.6052 22.034 74.6292 22.298C74.6532 22.55 74.6832 22.784 74.7192 23H73.3692C73.3212 22.808 73.2912 22.598 73.2792 22.37C73.2792 22.13 73.2792 21.92 73.2792 21.74H73.2432C72.9672 22.172 72.5952 22.526 72.1272 22.802C71.6712 23.078 71.1192 23.216 70.4712 23.216C70.0392 23.216 69.6312 23.162 69.2472 23.054C68.8752 22.946 68.5452 22.79 68.2572 22.586C67.9812 22.37 67.7592 22.106 67.5912 21.794C67.4232 21.482 67.3392 21.122 67.3392 20.714C67.3392 20.018 67.5192 19.472 67.8792 19.076C68.2392 18.68 68.6832 18.386 69.2112 18.194C69.7512 18.002 70.3272 17.882 70.9392 17.834C71.5632 17.786 72.1332 17.762 72.6492 17.762H73.1892V17.51C73.1892 16.898 73.0032 16.436 72.6312 16.124C72.2712 15.812 71.7612 15.656 71.1012 15.656C70.6452 15.656 70.1952 15.734 69.7512 15.89C69.3192 16.034 68.9352 16.262 68.5992 16.574L67.7172 15.656ZM71.7852 18.95C70.8852 18.95 70.1712 19.076 69.6432 19.328C69.1152 19.58 68.8512 19.994 68.8512 20.57C68.8512 21.098 69.0252 21.476 69.3732 21.704C69.7332 21.92 70.1772 22.028 70.7052 22.028C71.1132 22.028 71.4672 21.962 71.7672 21.83C72.0792 21.686 72.3372 21.5 72.5412 21.272C72.7452 21.044 72.9012 20.78 73.0092 20.48C73.1172 20.168 73.1772 19.838 73.1892 19.49V18.95H71.7852ZM77.1591 16.574C77.1591 16.19 77.1471 15.83 77.1231 15.494C77.0991 15.158 77.0871 14.852 77.0871 14.576H78.4191C78.4191 14.804 78.4251 15.032 78.4371 15.26C78.4491 15.488 78.4551 15.722 78.4551 15.962H78.4911C78.5871 15.758 78.7191 15.56 78.8871 15.368C79.0671 15.176 79.2771 15.008 79.5171 14.864C79.7571 14.708 80.0271 14.588 80.3271 14.504C80.6271 14.408 80.9511 14.36 81.2991 14.36C81.8511 14.36 82.3251 14.444 82.7211 14.612C83.1291 14.78 83.4651 15.014 83.7291 15.314C83.9931 15.614 84.1851 15.98 84.3051 16.412C84.4371 16.832 84.5031 17.294 84.5031 17.798V23H83.0991V17.942C83.0991 17.234 82.9431 16.676 82.6311 16.268C82.3191 15.86 81.8331 15.656 81.1731 15.656C80.7171 15.656 80.3211 15.734 79.9851 15.89C79.6611 16.046 79.3911 16.268 79.1751 16.556C78.9711 16.844 78.8151 17.186 78.7071 17.582C78.6111 17.978 78.5631 18.416 78.5631 18.896V23H77.1591V16.574ZM90.9469 10.256H92.6209L95.5189 20.84H95.5549L98.6869 10.256H100.379L103.493 20.84H103.529L106.481 10.256H108.065L104.321 23H102.683L99.5329 12.2H99.4969L96.3289 23H94.6729L90.9469 10.256ZM108.727 15.656C109.159 15.212 109.669 14.888 110.257 14.684C110.857 14.468 111.463 14.36 112.075 14.36C113.323 14.36 114.223 14.654 114.775 15.242C115.327 15.83 115.603 16.724 115.603 17.924V21.542C115.603 21.782 115.615 22.034 115.639 22.298C115.663 22.55 115.693 22.784 115.729 23H114.379C114.331 22.808 114.301 22.598 114.289 22.37C114.289 22.13 114.289 21.92 114.289 21.74H114.253C113.977 22.172 113.605 22.526 113.137 22.802C112.681 23.078 112.129 23.216 111.481 23.216C111.049 23.216 110.641 23.162 110.257 23.054C109.885 22.946 109.555 22.79 109.267 22.586C108.991 22.37 108.769 22.106 108.601 21.794C108.433 21.482 108.349 21.122 108.349 20.714C108.349 20.018 108.529 19.472 108.889 19.076C109.249 18.68 109.693 18.386 110.221 18.194C110.761 18.002 111.337 17.882 111.949 17.834C112.573 17.786 113.143 17.762 113.659 17.762H114.199V17.51C114.199 16.898 114.013 16.436 113.641 16.124C113.281 15.812 112.771 15.656 112.111 15.656C111.655 15.656 111.205 15.734 110.761 15.89C110.329 16.034 109.945 16.262 109.609 16.574L108.727 15.656ZM112.795 18.95C111.895 18.95 111.181 19.076 110.653 19.328C110.125 19.58 109.861 19.994 109.861 20.57C109.861 21.098 110.035 21.476 110.383 21.704C110.743 21.92 111.187 22.028 111.715 22.028C112.123 22.028 112.477 21.962 112.777 21.83C113.089 21.686 113.347 21.5 113.551 21.272C113.755 21.044 113.911 20.78 114.019 20.48C114.127 20.168 114.187 19.838 114.199 19.49V18.95H112.795ZM118.169 16.574C118.169 16.19 118.157 15.83 118.133 15.494C118.109 15.158 118.097 14.852 118.097 14.576H119.429C119.429 14.804 119.435 15.032 119.447 15.26C119.459 15.488 119.465 15.722 119.465 15.962H119.501C119.597 15.758 119.729 15.56 119.897 15.368C120.077 15.176 120.287 15.008 120.527 14.864C120.767 14.708 121.037 14.588 121.337 14.504C121.637 14.408 121.961 14.36 122.309 14.36C122.861 14.36 123.335 14.444 123.731 14.612C124.139 14.78 124.475 15.014 124.739 15.314C125.003 15.614 125.195 15.98 125.315 16.412C125.447 16.832 125.513 17.294 125.513 17.798V23H124.109V17.942C124.109 17.234 123.953 16.676 123.641 16.268C123.329 15.86 122.843 15.656 122.183 15.656C121.727 15.656 121.331 15.734 120.995 15.89C120.671 16.046 120.401 16.268 120.185 16.556C119.981 16.844 119.825 17.186 119.717 17.582C119.621 17.978 119.573 18.416 119.573 18.896V23H118.169V16.574ZM136.577 22.622C136.577 24.158 136.181 25.322 135.389 26.114C134.609 26.918 133.475 27.32 131.987 27.32C131.159 27.32 130.409 27.2 129.737 26.96C129.077 26.72 128.447 26.306 127.847 25.718L128.855 24.566C129.299 25.046 129.767 25.406 130.259 25.646C130.763 25.898 131.339 26.024 131.987 26.024C132.611 26.024 133.127 25.928 133.535 25.736C133.955 25.556 134.285 25.304 134.525 24.98C134.765 24.668 134.933 24.308 135.029 23.9C135.125 23.492 135.173 23.066 135.173 22.622V21.542H135.137C134.801 22.082 134.363 22.478 133.823 22.73C133.283 22.982 132.731 23.108 132.167 23.108C131.507 23.108 130.901 23 130.349 22.784C129.797 22.568 129.323 22.268 128.927 21.884C128.531 21.5 128.225 21.044 128.009 20.516C127.793 19.988 127.685 19.412 127.685 18.788C127.685 18.104 127.793 17.486 128.009 16.934C128.225 16.382 128.525 15.92 128.909 15.548C129.305 15.164 129.779 14.87 130.331 14.666C130.883 14.462 131.495 14.36 132.167 14.36C132.455 14.36 132.743 14.396 133.031 14.468C133.319 14.528 133.595 14.63 133.859 14.774C134.135 14.906 134.381 15.08 134.597 15.296C134.813 15.5 134.993 15.74 135.137 16.016H135.173V14.576H136.577V22.622ZM129.197 18.788C129.197 19.22 129.275 19.622 129.431 19.994C129.587 20.354 129.797 20.672 130.061 20.948C130.337 21.212 130.655 21.422 131.015 21.578C131.375 21.734 131.759 21.812 132.167 21.812C132.647 21.812 133.073 21.728 133.445 21.56C133.817 21.392 134.129 21.17 134.381 20.894C134.645 20.606 134.843 20.282 134.975 19.922C135.107 19.55 135.173 19.16 135.173 18.752C135.173 18.296 135.101 17.882 134.957 17.51C134.813 17.126 134.609 16.796 134.345 16.52C134.081 16.244 133.763 16.034 133.391 15.89C133.019 15.734 132.611 15.656 132.167 15.656C131.723 15.656 131.315 15.74 130.943 15.908C130.583 16.064 130.271 16.286 130.007 16.574C129.755 16.85 129.557 17.18 129.413 17.564C129.269 17.936 129.197 18.344 129.197 18.788Z" fill="#888888"/>
<path fill-rule="evenodd" clip-rule="evenodd" d="M1 1L27 1V27H1L1 1ZM2.05245 19.8704L2.05245 1.91022L20.0777 1.91022L20.174 10.4668C19.8902 10.0043 19.4512 9.36958 19.0495 8.96934C16.3123 6.24215 11.8745 6.24215 9.13737 8.96934C6.40021 11.6965 6.40021 16.1182 9.13737 18.8454C9.5393 19.2458 10.1483 19.7178 10.6128 20.0006L2.05245 19.8704ZM2.05245 20.7657L2.05245 25.9045H26.1344V11.7863L19.0495 18.8454C17.5136 20.3757 15.4423 21.0473 13.4364 20.8602L2.05245 20.7657ZM12.3022 19.7293C14.3935 20.366 16.76 19.8604 18.4141 18.2123C20.0681 16.5643 20.5756 14.2067 19.9367 12.1231L12.3022 12.1231L12.3022 19.7293ZM19.582 11.2278C19.2932 10.6408 18.9039 10.0905 18.4141 9.60242C16.0279 7.22487 12.159 7.22487 9.77277 9.60242C7.38653 11.98 7.38653 15.8347 9.77277 18.2123C10.2625 18.7002 10.8146 19.088 11.4036 19.3757L11.4036 11.2278L19.582 11.2278ZM21.0719 13.255C21.1514 14.1041 21.0753 14.9649 20.8437 15.7915L26.1344 10.52V1.91022L20.9642 1.95727L21.0719 13.255Z" fill="#FD6161" stroke="#FD6161"/>
</svg>
