<svg width="26" height="26" viewBox="0 0 26 26" fill="none" xmlns="http://www.w3.org/2000/svg">
<path d="M16.5357 10.1392H21.0189L22.313 8.63276L23.8151 10.2966C23.9384 10.4315 24 10.5439 24 10.6338C24 10.7088 23.8922 10.7463 23.6765 10.7463H10.7122C10.0959 10.7463 9.57213 10.8212 9.14076 10.9711L8.30882 10.0268C8.89426 10.1017 9.54132 10.1392 10.25 10.1392H14.9643V8.20557H12.584C11.9524 8.20557 11.4286 8.28801 11.0126 8.45289L10.1807 7.48608C10.7661 7.56103 11.4132 7.5985 12.1218 7.5985H14.9643V5.70985H11.6366C11.0049 5.70985 10.4811 5.79229 10.0651 5.95717L9.23319 4.96788C9.81863 5.05782 10.4657 5.10278 11.1744 5.10278H14.9643C14.9643 3.49893 14.9335 2.46467 14.8718 2L16.8361 2.697C17.0518 2.77195 17.1597 2.8469 17.1597 2.92184C17.1597 2.99679 17.0672 3.10921 16.8824 3.2591L16.5357 3.52891V5.10278H20.2794L21.5735 3.64133L23.0294 5.23769C23.1373 5.37259 23.1912 5.48501 23.1912 5.57495C23.1912 5.66488 23.0833 5.70985 22.8676 5.70985H16.5357V7.5985H18.9391L20.1639 6.18201L21.5735 7.73341C21.7122 7.8833 21.7815 8.00321 21.7815 8.09315C21.7815 8.16809 21.6583 8.20557 21.4118 8.20557H16.5357V10.1392ZM5.90546 9.68951C4.73459 11.3233 3.53291 12.7848 2.30042 14.0739L2 13.849C4.7577 10.0717 6.70658 6.18201 7.84664 2.17987L9.67227 3.30407C9.90336 3.45396 10.0189 3.56638 10.0189 3.64133C10.0189 3.71627 9.90336 3.79122 9.67227 3.86617C9.30252 3.9561 8.97899 4.30835 8.70168 4.92291C8.16247 6.03212 7.53852 7.15632 6.82983 8.2955L7.80042 8.70021C8.03151 8.77516 8.14706 8.85011 8.14706 8.92505C8.14706 9 8.06232 9.11991 7.89286 9.2848L7.43067 9.73448V17.5814C7.43067 19.0503 7.43838 20.1146 7.45378 20.7741C7.48459 21.4336 7.5 21.7859 7.5 21.8308C7.5 22.1756 7.26891 22.4529 6.80672 22.6627C6.34454 22.8876 6.06723 23 5.97479 23C5.7591 23 5.66667 22.7377 5.69748 22.2131C5.7437 21.7034 5.78992 20.8715 5.83613 19.7173C5.88235 18.5782 5.90546 17.6938 5.90546 17.0642V9.68951ZM12.584 17.9186V21.8758C12.584 22.2206 12.3529 22.4904 11.8908 22.6852C11.444 22.8801 11.1667 22.9775 11.0588 22.9775C10.951 22.9775 10.8971 22.8276 10.8971 22.5278L10.9433 20.9989C10.9741 20.3544 10.9895 19.6199 10.9895 18.7955V13.849C10.9895 13.0846 10.9664 12.3051 10.9202 11.5107L12.3761 12.4325H19.1008L20.0252 11.4208L21.5273 12.6799C21.666 12.7998 21.7353 12.8972 21.7353 12.9722C21.7353 13.0321 21.7122 13.0771 21.666 13.1071C21.6352 13.137 21.5581 13.197 21.4349 13.2869L21.0882 13.5343V20.167C21.0882 20.7216 21.0112 21.1488 20.8571 21.4486C20.7185 21.7484 20.4027 22.0557 19.9097 22.3704C19.4321 22.6852 19.1317 22.8426 19.0084 22.8426C18.9006 22.8426 18.8004 22.7302 18.708 22.5054C18.4923 22.0107 18.2304 21.6435 17.9223 21.4036C17.6296 21.1788 17.0595 20.9615 16.2122 20.7516L16.2815 20.3694C17.2213 20.4743 17.9146 20.5268 18.3613 20.5268C18.8235 20.5268 19.1085 20.4743 19.2164 20.3694C19.3396 20.2645 19.4013 20.0621 19.4013 19.7623V17.9186H12.584ZM12.584 13.0621V14.8383H19.4013V13.0621H12.584ZM12.584 15.4679V17.2891H19.4013V15.4679H12.584Z" fill="black"/>
</svg>
