<svg width="103" height="20" viewBox="0 0 103 20" fill="none" xmlns="http://www.w3.org/2000/svg">
<path d="M16.78 15H8.54C7.43333 15 6.40667 14.8333 5.46 14.5C4.52667 14.1533 3.71333 13.6667 3.02 13.04C2.34 12.4 1.8 11.6267 1.4 10.72C1.01333 9.8 0.82 8.76667 0.82 7.62C0.82 6.58 1.01333 5.62667 1.4 4.76C1.8 3.88 2.34 3.12667 3.02 2.5C3.7 1.86 4.48667 1.36667 5.38 1.02C6.28667 0.659999 7.24667 0.48 8.26 0.48C9.27333 0.48 10.2267 0.659999 11.12 1.02C12.0267 1.36667 12.82 1.86 13.5 2.5C14.18 3.12667 14.7133 3.88 15.1 4.76C15.5 5.62667 15.7 6.58 15.7 7.62C15.7 8.36667 15.6067 9.02667 15.42 9.6C15.2467 10.16 15.0133 10.66 14.72 11.1C14.4267 11.5267 14.1 11.8867 13.74 12.18C13.3933 12.4733 13.0533 12.72 12.72 12.92V12.96H16.78V15ZM8.2 2.76C7.52 2.76 6.88667 2.88667 6.3 3.14C5.72667 3.38 5.22667 3.72 4.8 4.16C4.38667 4.6 4.06 5.12 3.82 5.72C3.58 6.32 3.46 6.97333 3.46 7.68C3.46 8.4 3.58 9.07333 3.82 9.7C4.06 10.3133 4.39333 10.8467 4.82 11.3C5.24667 11.74 5.74667 12.0867 6.32 12.34C6.90667 12.5933 7.54667 12.72 8.24 12.72C8.93333 12.72 9.57333 12.5933 10.16 12.34C10.76 12.0867 11.2733 11.74 11.7 11.3C12.1267 10.8467 12.46 10.3133 12.7 9.7C12.94 9.07333 13.06 8.4 13.06 7.68C13.06 6.97333 12.94 6.32 12.7 5.72C12.46 5.12 12.1267 4.6 11.7 4.16C11.2733 3.72 10.76 3.38 10.16 3.14C9.57333 2.88667 8.92 2.76 8.2 2.76ZM18.4313 5.4H20.8313V15H18.4313V5.4ZM18.0913 2.14C18.0913 1.75333 18.2313 1.42 18.5113 1.14C18.8046 0.846666 19.1713 0.699999 19.6113 0.699999C20.0513 0.699999 20.4179 0.84 20.7113 1.12C21.0179 1.38667 21.1713 1.72667 21.1713 2.14C21.1713 2.55333 21.0179 2.9 20.7113 3.18C20.4179 3.44667 20.0513 3.58 19.6113 3.58C19.1713 3.58 18.8046 3.44 18.5113 3.16C18.2313 2.86667 18.0913 2.52667 18.0913 2.14ZM29.5866 13.68H29.5266C29.1799 14.2267 28.7399 14.6267 28.2066 14.88C27.6732 15.12 27.0866 15.24 26.4466 15.24C26.0066 15.24 25.5732 15.18 25.1466 15.06C24.7332 14.94 24.3599 14.76 24.0266 14.52C23.7066 14.28 23.4466 13.98 23.2466 13.62C23.0466 13.26 22.9466 12.84 22.9466 12.36C22.9466 11.84 23.0399 11.4 23.2266 11.04C23.4132 10.6667 23.6599 10.36 23.9666 10.12C24.2866 9.86667 24.6532 9.66667 25.0666 9.52C25.4799 9.37333 25.9066 9.26667 26.3466 9.2C26.7999 9.12 27.2532 9.07333 27.7066 9.06C28.1599 9.03333 28.5866 9.02 28.9866 9.02H29.5866V8.76C29.5866 8.16 29.3799 7.71333 28.9666 7.42C28.5532 7.11333 28.0266 6.96 27.3866 6.96C26.8799 6.96 26.4066 7.05333 25.9666 7.24C25.5266 7.41333 25.1466 7.65333 24.8266 7.96L23.5666 6.7C24.0999 6.15333 24.7199 5.76 25.4266 5.52C26.1466 5.28 26.8866 5.16 27.6466 5.16C28.3266 5.16 28.8999 5.24 29.3666 5.4C29.8332 5.54667 30.2199 5.74 30.5266 5.98C30.8332 6.22 31.0666 6.5 31.2266 6.82C31.3999 7.12667 31.5199 7.44 31.5866 7.76C31.6666 8.08 31.7132 8.39333 31.7266 8.7C31.7399 8.99333 31.7466 9.25333 31.7466 9.48V15H29.5866V13.68ZM29.4466 10.7H28.9466C28.6132 10.7 28.2399 10.7133 27.8266 10.74C27.4132 10.7667 27.0199 10.8333 26.6466 10.94C26.2866 11.0333 25.9799 11.18 25.7266 11.38C25.4732 11.5667 25.3466 11.8333 25.3466 12.18C25.3466 12.4067 25.3932 12.6 25.4866 12.76C25.5932 12.9067 25.7266 13.0333 25.8866 13.14C26.0466 13.2467 26.2266 13.3267 26.4266 13.38C26.6266 13.42 26.8266 13.44 27.0266 13.44C27.8532 13.44 28.4599 13.2467 28.8466 12.86C29.2466 12.46 29.4466 11.92 29.4466 11.24V10.7ZM34.3288 5.4H36.6088V6.94H36.6488C36.8754 6.46 37.2221 6.04667 37.6888 5.7C38.1554 5.34 38.7888 5.16 39.5888 5.16C40.2288 5.16 40.7688 5.26667 41.2088 5.48C41.6621 5.69333 42.0288 5.97333 42.3088 6.32C42.5888 6.66667 42.7888 7.06667 42.9088 7.52C43.0288 7.97333 43.0888 8.44667 43.0888 8.94V15H40.6888V10.14C40.6888 9.87333 40.6754 9.58 40.6488 9.26C40.6221 8.92667 40.5488 8.62 40.4288 8.34C40.3221 8.04667 40.1488 7.80667 39.9088 7.62C39.6688 7.42 39.3421 7.32 38.9288 7.32C38.5288 7.32 38.1888 7.38667 37.9088 7.52C37.6421 7.65333 37.4154 7.83333 37.2288 8.06C37.0554 8.28667 36.9288 8.54667 36.8488 8.84C36.7688 9.13333 36.7288 9.44 36.7288 9.76V15H34.3288V5.4ZM50.3711 0.84H53.1311L55.7911 11.04H55.8311L59.0111 0.84H61.4911L64.6111 11.04H64.6511L67.4311 0.84H69.9911L65.8711 15H63.4711L60.1911 4.22H60.1511L56.8711 15H54.5511L50.3711 0.84ZM76.6178 13.68H76.5578C76.2111 14.2267 75.7711 14.6267 75.2378 14.88C74.7045 15.12 74.1178 15.24 73.4778 15.24C73.0378 15.24 72.6045 15.18 72.1778 15.06C71.7645 14.94 71.3911 14.76 71.0578 14.52C70.7378 14.28 70.4778 13.98 70.2778 13.62C70.0778 13.26 69.9778 12.84 69.9778 12.36C69.9778 11.84 70.0711 11.4 70.2578 11.04C70.4445 10.6667 70.6911 10.36 70.9978 10.12C71.3178 9.86667 71.6845 9.66667 72.0978 9.52C72.5111 9.37333 72.9378 9.26667 73.3778 9.2C73.8311 9.12 74.2845 9.07333 74.7378 9.06C75.1911 9.03333 75.6178 9.02 76.0178 9.02H76.6178V8.76C76.6178 8.16 76.4111 7.71333 75.9978 7.42C75.5845 7.11333 75.0578 6.96 74.4178 6.96C73.9111 6.96 73.4378 7.05333 72.9978 7.24C72.5578 7.41333 72.1778 7.65333 71.8578 7.96L70.5978 6.7C71.1311 6.15333 71.7511 5.76 72.4578 5.52C73.1778 5.28 73.9178 5.16 74.6778 5.16C75.3578 5.16 75.9311 5.24 76.3978 5.4C76.8645 5.54667 77.2511 5.74 77.5578 5.98C77.8645 6.22 78.0978 6.5 78.2578 6.82C78.4311 7.12667 78.5511 7.44 78.6178 7.76C78.6978 8.08 78.7445 8.39333 78.7578 8.7C78.7711 8.99333 78.7778 9.25333 78.7778 9.48V15H76.6178V13.68ZM76.4778 10.7H75.9778C75.6445 10.7 75.2711 10.7133 74.8578 10.74C74.4445 10.7667 74.0511 10.8333 73.6778 10.94C73.3178 11.0333 73.0111 11.18 72.7578 11.38C72.5045 11.5667 72.3778 11.8333 72.3778 12.18C72.3778 12.4067 72.4245 12.6 72.5178 12.76C72.6245 12.9067 72.7578 13.0333 72.9178 13.14C73.0778 13.2467 73.2578 13.3267 73.4578 13.38C73.6578 13.42 73.8578 13.44 74.0578 13.44C74.8845 13.44 75.4911 13.2467 75.8778 12.86C76.2778 12.46 76.4778 11.92 76.4778 11.24V10.7ZM81.36 5.4H83.64V6.94H83.68C83.9067 6.46 84.2533 6.04667 84.72 5.7C85.1867 5.34 85.82 5.16 86.62 5.16C87.26 5.16 87.8 5.26667 88.24 5.48C88.6933 5.69333 89.06 5.97333 89.34 6.32C89.62 6.66667 89.82 7.06667 89.94 7.52C90.06 7.97333 90.12 8.44667 90.12 8.94V15H87.72V10.14C87.72 9.87333 87.7067 9.58 87.68 9.26C87.6533 8.92667 87.58 8.62 87.46 8.34C87.3533 8.04667 87.18 7.80667 86.94 7.62C86.7 7.42 86.3733 7.32 85.96 7.32C85.56 7.32 85.22 7.38667 84.94 7.52C84.6733 7.65333 84.4467 7.83333 84.26 8.06C84.0867 8.28667 83.96 8.54667 83.88 8.84C83.8 9.13333 83.76 9.44 83.76 9.76V15H81.36V5.4ZM102.724 5.4V14.14C102.724 15.0067 102.618 15.7867 102.404 16.48C102.191 17.1867 101.858 17.78 101.404 18.26C100.964 18.7533 100.404 19.1333 99.7244 19.4C99.0444 19.6667 98.2377 19.8 97.3044 19.8C96.411 19.8 95.5644 19.6867 94.7644 19.46C93.9644 19.2333 93.2244 18.82 92.5444 18.22L93.9844 16.26C94.4644 16.7 94.9644 17.04 95.4844 17.28C96.0044 17.52 96.6044 17.64 97.2844 17.64C97.8577 17.64 98.3377 17.56 98.7244 17.4C99.1244 17.24 99.4377 17.02 99.6644 16.74C99.9044 16.46 100.071 16.12 100.164 15.72C100.271 15.3333 100.324 14.9 100.324 14.42V13.72H100.284C99.9377 14.1867 99.4777 14.54 98.9044 14.78C98.331 15.0067 97.7444 15.12 97.1444 15.12C96.4244 15.12 95.771 14.9933 95.1844 14.74C94.5977 14.4733 94.091 14.12 93.6644 13.68C93.251 13.24 92.931 12.72 92.7044 12.12C92.4777 11.52 92.3644 10.88 92.3644 10.2C92.3644 9.49333 92.471 8.83333 92.6844 8.22C92.8977 7.60667 93.211 7.07333 93.6244 6.62C94.0377 6.16667 94.531 5.81333 95.1044 5.56C95.691 5.29333 96.3577 5.16 97.1044 5.16C97.7844 5.16 98.4177 5.29333 99.0044 5.56C99.591 5.82667 100.058 6.25333 100.404 6.84H100.444V5.4H102.724ZM97.6044 7.32C97.1777 7.32 96.791 7.39333 96.4444 7.54C96.0977 7.67333 95.7977 7.86667 95.5444 8.12C95.3044 8.36 95.111 8.66 94.9644 9.02C94.831 9.36667 94.7644 9.75333 94.7644 10.18C94.7644 10.5667 94.831 10.9267 94.9644 11.26C95.111 11.5933 95.311 11.8867 95.5644 12.14C95.8177 12.3933 96.1177 12.5933 96.4644 12.74C96.811 12.8867 97.1844 12.96 97.5844 12.96C98.0244 12.96 98.4177 12.8867 98.7644 12.74C99.1244 12.5933 99.4244 12.4 99.6644 12.16C99.9177 11.9067 100.111 11.6067 100.244 11.26C100.378 10.9133 100.444 10.54 100.444 10.14C100.444 9.3 100.191 8.62 99.6844 8.1C99.1777 7.58 98.4844 7.32 97.6044 7.32Z" fill="url(#paint0_linear)"/>
<defs>
<linearGradient id="paint0_linear" x1="-88.2968" y1="7.81153" x2="-79.1481" y2="57.4414" gradientUnits="userSpaceOnUse">
<stop stop-color="#FD6161"/>
<stop offset="1" stop-color="#FF956C"/>
</linearGradient>
</defs>
</svg>
