<svg width="44" height="16" viewBox="0 0 44 16" fill="none" xmlns="http://www.w3.org/2000/svg">
<path d="M16.78 15H8.54C7.43333 15 6.40667 14.8333 5.46 14.5C4.52667 14.1533 3.71333 13.6667 3.02 13.04C2.34 12.4 1.8 11.6267 1.4 10.72C1.01333 9.8 0.82 8.76667 0.82 7.62C0.82 6.58 1.01333 5.62667 1.4 4.76C1.8 3.88 2.34 3.12667 3.02 2.5C3.7 1.86 4.48667 1.36667 5.38 1.02C6.28667 0.659999 7.24667 0.48 8.26 0.48C9.27333 0.48 10.2267 0.659999 11.12 1.02C12.0267 1.36667 12.82 1.86 13.5 2.5C14.18 3.12667 14.7133 3.88 15.1 4.76C15.5 5.62667 15.7 6.58 15.7 7.62C15.7 8.36667 15.6067 9.02667 15.42 9.6C15.2467 10.16 15.0133 10.66 14.72 11.1C14.4267 11.5267 14.1 11.8867 13.74 12.18C13.3933 12.4733 13.0533 12.72 12.72 12.92V12.96H16.78V15ZM8.2 2.76C7.52 2.76 6.88667 2.88667 6.3 3.14C5.72667 3.38 5.22667 3.72 4.8 4.16C4.38667 4.6 4.06 5.12 3.82 5.72C3.58 6.32 3.46 6.97333 3.46 7.68C3.46 8.4 3.58 9.07333 3.82 9.7C4.06 10.3133 4.39333 10.8467 4.82 11.3C5.24667 11.74 5.74667 12.0867 6.32 12.34C6.90667 12.5933 7.54667 12.72 8.24 12.72C8.93333 12.72 9.57333 12.5933 10.16 12.34C10.76 12.0867 11.2733 11.74 11.7 11.3C12.1267 10.8467 12.46 10.3133 12.7 9.7C12.94 9.07333 13.06 8.4 13.06 7.68C13.06 6.97333 12.94 6.32 12.7 5.72C12.46 5.12 12.1267 4.6 11.7 4.16C11.2733 3.72 10.76 3.38 10.16 3.14C9.57333 2.88667 8.92 2.76 8.2 2.76ZM18.4313 5.4H20.8313V15H18.4313V5.4ZM18.0913 2.14C18.0913 1.75333 18.2313 1.42 18.5113 1.14C18.8046 0.846666 19.1713 0.699999 19.6113 0.699999C20.0513 0.699999 20.4179 0.84 20.7113 1.12C21.0179 1.38667 21.1713 1.72667 21.1713 2.14C21.1713 2.55333 21.0179 2.9 20.7113 3.18C20.4179 3.44667 20.0513 3.58 19.6113 3.58C19.1713 3.58 18.8046 3.44 18.5113 3.16C18.2313 2.86667 18.0913 2.52667 18.0913 2.14ZM29.5866 13.68H29.5266C29.1799 14.2267 28.7399 14.6267 28.2066 14.88C27.6732 15.12 27.0866 15.24 26.4466 15.24C26.0066 15.24 25.5732 15.18 25.1466 15.06C24.7332 14.94 24.3599 14.76 24.0266 14.52C23.7066 14.28 23.4466 13.98 23.2466 13.62C23.0466 13.26 22.9466 12.84 22.9466 12.36C22.9466 11.84 23.0399 11.4 23.2266 11.04C23.4132 10.6667 23.6599 10.36 23.9666 10.12C24.2866 9.86667 24.6532 9.66667 25.0666 9.52C25.4799 9.37333 25.9066 9.26667 26.3466 9.2C26.7999 9.12 27.2532 9.07333 27.7066 9.06C28.1599 9.03333 28.5866 9.02 28.9866 9.02H29.5866V8.76C29.5866 8.16 29.3799 7.71333 28.9666 7.42C28.5532 7.11333 28.0266 6.96 27.3866 6.96C26.8799 6.96 26.4066 7.05333 25.9666 7.24C25.5266 7.41333 25.1466 7.65333 24.8266 7.96L23.5666 6.7C24.0999 6.15333 24.7199 5.76 25.4266 5.52C26.1466 5.28 26.8866 5.16 27.6466 5.16C28.3266 5.16 28.8999 5.24 29.3666 5.4C29.8332 5.54667 30.2199 5.74 30.5266 5.98C30.8332 6.22 31.0666 6.5 31.2266 6.82C31.3999 7.12667 31.5199 7.44 31.5866 7.76C31.6666 8.08 31.7132 8.39333 31.7266 8.7C31.7399 8.99333 31.7466 9.25333 31.7466 9.48V15H29.5866V13.68ZM29.4466 10.7H28.9466C28.6132 10.7 28.2399 10.7133 27.8266 10.74C27.4132 10.7667 27.0199 10.8333 26.6466 10.94C26.2866 11.0333 25.9799 11.18 25.7266 11.38C25.4732 11.5667 25.3466 11.8333 25.3466 12.18C25.3466 12.4067 25.3932 12.6 25.4866 12.76C25.5932 12.9067 25.7266 13.0333 25.8866 13.14C26.0466 13.2467 26.2266 13.3267 26.4266 13.38C26.6266 13.42 26.8266 13.44 27.0266 13.44C27.8532 13.44 28.4599 13.2467 28.8466 12.86C29.2466 12.46 29.4466 11.92 29.4466 11.24V10.7ZM34.3288 5.4H36.6088V6.94H36.6488C36.8754 6.46 37.2221 6.04667 37.6888 5.7C38.1554 5.34 38.7888 5.16 39.5888 5.16C40.2288 5.16 40.7688 5.26667 41.2088 5.48C41.6621 5.69333 42.0288 5.97333 42.3088 6.32C42.5888 6.66667 42.7888 7.06667 42.9088 7.52C43.0288 7.97333 43.0888 8.44667 43.0888 8.94V15H40.6888V10.14C40.6888 9.87333 40.6754 9.58 40.6488 9.26C40.6221 8.92667 40.5488 8.62 40.4288 8.34C40.3221 8.04667 40.1488 7.80667 39.9088 7.62C39.6688 7.42 39.3421 7.32 38.9288 7.32C38.5288 7.32 38.1888 7.38667 37.9088 7.52C37.6421 7.65333 37.4154 7.83333 37.2288 8.06C37.0554 8.28667 36.9288 8.54667 36.8488 8.84C36.7688 9.13333 36.7288 9.44 36.7288 9.76V15H34.3288V5.4Z" fill="url(#paint0_linear)"/>
<defs>
<linearGradient id="paint0_linear" x1="-33.6671" y1="7.81153" x2="-13.5581" y2="49.4061" gradientUnits="userSpaceOnUse">
<stop stop-color="#FD6161"/>
<stop offset="1" stop-color="#FF956C"/>
</linearGradient>
</defs>
</svg>
