<svg width="15" height="15" viewBox="0 0 15 15" fill="none" xmlns="http://www.w3.org/2000/svg">
<g clip-path="url(#clip0)">
<path d="M9.24558 0C4.95737 0 2.161 4.55807 4.12332 8.37708L0.518777 11.982C-0.172217 12.6731 -0.172332 13.7917 0.518777 14.4828C1.20817 15.1723 2.33003 15.1725 3.01954 14.4828C3.17781 14.3247 6.46513 11.037 6.62409 10.8781C10.4373 12.8376 15.0005 10.0497 15.0005 5.75535C15.0005 2.58179 12.4188 0 9.24558 0V0ZM2.39813 13.8614C2.05126 14.2082 1.48706 14.2082 1.14031 13.8614C0.792634 13.5138 0.792634 12.951 1.14031 12.6034L2.82579 10.9178L4.08361 12.1757L2.39813 13.8614ZM4.70503 11.5542L3.44721 10.2962L4.59802 9.14532C4.95004 9.62654 5.37473 10.0513 5.85596 10.4033L4.70503 11.5542ZM9.24558 10.6317C6.55691 10.6317 4.3696 8.44414 4.3696 5.75535C4.3696 3.06644 6.55702 0.878906 9.24558 0.878906C11.9341 0.878906 14.1216 3.06644 14.1216 5.75535C14.1216 8.44414 11.9343 10.6317 9.24558 10.6317V10.6317Z" fill="#888888"/>
<path d="M13.0965 5.4483C13.0269 5.37036 11.3675 3.54068 9.25389 3.54068C7.14028 3.54068 5.48088 5.37036 5.41119 5.4483C5.26219 5.61504 5.26219 5.86726 5.41119 6.034C5.48088 6.11182 7.14028 7.94162 9.25389 7.94162C11.3675 7.94162 13.0269 6.11182 13.0965 6.034C13.2456 5.86726 13.2456 5.61504 13.0965 5.4483V5.4483ZM9.25789 7.06088C8.53096 7.06088 7.93953 6.46945 7.93953 5.74252C7.93953 5.01548 8.53096 4.42405 9.25789 4.42405C9.98482 4.42405 10.5763 5.01548 10.5763 5.74252C10.5763 6.46945 9.98482 7.06088 9.25789 7.06088ZM7.14692 5.13461C7.03476 5.52348 7.02984 5.9397 7.14508 6.34414C6.82042 6.13116 6.55297 5.90984 6.36574 5.74046C6.55308 5.5704 6.8211 5.34816 7.14692 5.13461ZM11.3726 6.3375C11.4801 5.95584 11.4855 5.54557 11.3716 5.14411C11.6918 5.35491 11.9558 5.57338 12.1412 5.74115C11.956 5.90869 11.6924 6.12693 11.3726 6.3375Z" fill="#888888"/>
<path d="M9.69745 5.74252C9.69745 5.98525 9.50072 6.18198 9.258 6.18198C9.01527 6.18198 8.81854 5.98525 8.81854 5.74252C8.81854 5.49979 9.01527 5.30307 9.258 5.30307C9.50072 5.30307 9.69745 5.49979 9.69745 5.74252Z" fill="#888888"/>
</g>
<defs>
<clipPath id="clip0">
<rect width="15" height="15" fill="white"/>
</clipPath>
</defs>
</svg>
