<svg width="15" height="15" viewBox="0 0 15 15" fill="none" xmlns="http://www.w3.org/2000/svg">
<g clip-path="url(#clip0)">
<path d="M14.7048 6.97589L12.2959 5.77151L14.7048 4.56701C15.1356 4.35164 15.1361 3.73457 14.7048 3.51885L7.79067 0.0617984C7.62565 -0.0205995 7.43156 -0.0205995 7.26653 0.0617984L0.352439 3.51885C-0.0784325 3.73434 -0.0788903 4.35141 0.352439 4.56701L2.76132 5.77151L0.352439 6.97589C-0.0784325 7.19138 -0.0788903 7.80834 0.352439 8.02406L2.76132 9.22856L0.352439 10.4329C-0.0784325 10.6484 -0.0788903 11.2654 0.352439 11.4811L7.26653 14.9382C7.43121 15.0204 7.62531 15.0208 7.79067 14.9382L14.7048 11.4811C15.1356 11.2656 15.1361 10.6487 14.7048 10.4329L12.2959 9.22856L14.7048 8.02406C15.1356 7.80868 15.1361 7.19161 14.7048 6.97589V6.97589ZM7.5286 1.241L13.1325 4.04299L7.5286 6.84486L1.92475 4.04299L7.5286 1.241ZM13.1325 10.9571L7.5286 13.7589L1.92475 10.9571L4.07156 9.88362L7.26653 11.4811C7.43133 11.5634 7.62531 11.5637 7.79067 11.4811L10.9856 9.88362L13.1325 10.9571ZM7.5286 10.3019L1.92475 7.50003L4.07156 6.42657L7.26653 8.02406C7.43133 8.10634 7.62531 8.10669 7.79067 8.02406L10.9856 6.42657L13.1325 7.50003L7.5286 10.3019Z" fill="#979797"/>
</g>
<defs>
<clipPath id="clip0">
<rect width="15" height="15" fill="white"/>
</clipPath>
</defs>
</svg>
