<svg width="1024" height="350" viewBox="0 0 1024 350" fill="none" xmlns="http://www.w3.org/2000/svg">
<mask id="mask0" mask-type="alpha" maskUnits="userSpaceOnUse" x="527" y="-23" width="512" height="320">
<path d="M694 -22L528.5 296L1037.5 226V-22H694Z" fill="#C4C4C4" stroke="black"/>
</mask>
<g mask="url(#mask0)">
<rect x="44" y="-88" width="979.555" height="515.356" fill="url(#paint0_radial)"/>
<g filter="url(#filter0_dif)">
<circle cx="635.42" cy="241.42" r="28.4203" fill="url(#paint1_radial)"/>
</g>
<g filter="url(#filter1_dif)">
<circle cx="712.367" cy="115.367" r="47.3672" fill="url(#paint2_radial)"/>
</g>
<g filter="url(#filter2_dif)">
<circle cx="906.051" cy="154.051" r="71.0509" fill="url(#paint3_radial)"/>
</g>
<g filter="url(#filter3_f)">
<circle cx="713.772" cy="202.835" r="1.89469" fill="white"/>
</g>
<g filter="url(#filter4_f)">
<circle cx="783.875" cy="54.1018" r="1.89469" fill="white"/>
</g>
<g filter="url(#filter5_f)">
<circle cx="769.895" cy="192.895" r="1.89469" fill="white"/>
</g>
<g filter="url(#filter6_f)">
<circle cx="984.712" cy="221.782" r="1.89469" fill="white"/>
</g>
<g filter="url(#filter7_f)">
<circle cx="1004.79" cy="11.7894" r="3.78938" fill="white" fill-opacity="0.5"/>
</g>
<g filter="url(#filter8_f)">
<circle cx="1004.79" cy="111.789" r="3.78938" fill="white" fill-opacity="0.5"/>
</g>
<g filter="url(#filter9_f)">
<circle cx="786.718" cy="148.836" r="3.78938" fill="white" fill-opacity="0.5"/>
</g>
<g filter="url(#filter10_f)">
<circle cx="720.405" cy="11.4713" r="3.78938" fill="white"/>
</g>
<g filter="url(#filter11_f)">
<circle cx="626.789" cy="160.789" r="3.78938" fill="white"/>
</g>
<g filter="url(#filter12_f)">
<circle cx="758.297" cy="245.465" r="3.78938" fill="white"/>
</g>
<g filter="url(#filter13_f)">
<circle cx="826.507" cy="2.94515" r="2.84204" fill="white" fill-opacity="0.5"/>
</g>
<g filter="url(#filter14_f)">
<circle cx="685.842" cy="262.842" r="2.84204" fill="white" fill-opacity="0.5"/>
</g>
<g filter="url(#filter15_f)">
<circle cx="858.842" cy="230.842" r="2.84204" fill="white" fill-opacity="0.5"/>
</g>
<g filter="url(#filter16_f)">
<circle cx="831.842" cy="101.842" r="2.84204" fill="white" fill-opacity="0.5"/>
</g>
<g filter="url(#filter17_f)">
<circle cx="805.895" cy="228.947" r="1.42102" fill="white" fill-opacity="0.5"/>
</g>
<g filter="url(#filter18_f)">
<circle cx="796.421" cy="220.421" r="1.42102" fill="white" fill-opacity="0.5"/>
</g>
</g>
<rect width="21.5909" height="2.92957" rx="1.46478" transform="matrix(0.222222 0.974996 -0.974995 0.222225 513.002 319.187)" fill="url(#paint4_linear)"/>
<rect width="21.5909" height="2.92957" rx="1.46478" transform="matrix(0.222222 0.974996 -0.974995 0.222225 513.002 319.187)" fill="url(#paint5_linear)"/>
<rect width="33.0602" height="2.92957" rx="1.46478" transform="matrix(0.626507 0.779416 -0.779417 0.626506 513.665 318.904)" fill="url(#paint6_linear)"/>
<rect width="33.0602" height="2.92957" rx="1.46478" transform="matrix(0.626507 0.779416 -0.779417 0.626506 513.665 318.904)" fill="url(#paint7_linear)"/>
<rect x="513.721" y="319.686" width="31.3765" height="2.92957" rx="1.46478" transform="rotate(104.008 513.721 319.686)" fill="url(#paint8_linear)"/>
<rect x="513.721" y="319.686" width="31.3765" height="2.92957" rx="1.46478" transform="rotate(104.008 513.721 319.686)" fill="url(#paint9_linear)"/>
<g filter="url(#filter19_i)">
<path fill-rule="evenodd" clip-rule="evenodd" d="M493.552 328.081C494.154 327.611 493.344 325.262 491.717 322.788C490.069 320.281 488.207 318.594 487.559 319.021C487.531 319.04 487.505 319.063 487.482 319.089L487.474 319.078L477.175 327.522C477.169 327.525 477.163 327.529 477.158 327.532C476.675 327.85 477.279 329.622 478.507 331.491C479.663 333.248 480.959 334.465 481.511 334.339L481.519 334.352L493.558 328.09L493.552 328.081Z" fill="url(#paint10_linear)"/>
</g>
<g filter="url(#filter20_i)">
<path fill-rule="evenodd" clip-rule="evenodd" d="M515.624 318.47C516.711 317.625 515.251 313.395 512.321 308.939C509.354 304.426 506.002 301.389 504.835 302.157C504.783 302.191 504.737 302.232 504.695 302.28L504.681 302.26L486.133 317.466C486.124 317.471 486.116 317.476 486.108 317.482C485.238 318.054 486.326 321.245 488.538 324.609C490.618 327.772 492.95 329.962 493.944 329.737L493.959 329.76L515.635 318.486L515.624 318.47Z" fill="url(#paint11_linear)"/>
<path fill-rule="evenodd" clip-rule="evenodd" d="M515.624 318.47C516.711 317.625 515.251 313.395 512.321 308.939C509.354 304.426 506.002 301.389 504.835 302.157C504.783 302.191 504.737 302.232 504.695 302.28L504.681 302.26L486.133 317.466C486.124 317.471 486.116 317.476 486.108 317.482C485.238 318.054 486.326 321.245 488.538 324.609C490.618 327.772 492.95 329.962 493.944 329.737L493.959 329.76L515.635 318.486L515.624 318.47Z" fill="url(#paint12_linear)"/>
</g>
<path fill-rule="evenodd" clip-rule="evenodd" d="M552.767 302.092C552.825 302.067 552.881 302.038 552.935 302.004L553.174 301.878L553.144 301.835C554.819 300.14 552.263 292.884 547.243 285.248C542.047 277.345 536.178 272.028 534.135 273.372C534.07 273.415 534.009 273.465 533.953 273.52L533.912 273.46L498.834 302.219C498.819 302.227 498.805 302.236 498.79 302.246C497.296 303.229 499.165 308.713 502.966 314.494C506.54 319.93 510.549 323.693 512.257 323.306L512.283 323.345L552.767 302.092Z" fill="url(#paint13_linear)"/>
<path fill-rule="evenodd" clip-rule="evenodd" d="M552.767 302.092C552.825 302.067 552.881 302.038 552.935 302.004L553.174 301.878L553.144 301.835C554.819 300.14 552.263 292.884 547.243 285.248C542.047 277.345 536.178 272.028 534.135 273.372C534.07 273.415 534.009 273.465 533.953 273.52L533.912 273.46L498.834 302.219C498.819 302.227 498.805 302.236 498.79 302.246C497.296 303.229 499.165 308.713 502.966 314.494C506.54 319.93 510.549 323.693 512.257 323.306L512.283 323.345L552.767 302.092Z" fill="url(#paint14_linear)"/>
<g filter="url(#filter21_i)">
<path fill-rule="evenodd" clip-rule="evenodd" d="M549.512 303.944C551.378 302.491 548.869 295.223 543.835 287.565C538.736 279.809 532.976 274.591 530.971 275.911C530.882 275.969 530.802 276.04 530.73 276.122L530.706 276.087L498.831 302.22C498.817 302.228 498.803 302.236 498.79 302.245C497.295 303.229 499.165 308.713 502.966 314.494C506.539 319.929 510.547 323.692 512.256 323.306L512.282 323.345L549.53 303.971L549.512 303.944Z" fill="url(#paint15_linear)"/>
<path fill-rule="evenodd" clip-rule="evenodd" d="M549.512 303.944C551.378 302.491 548.869 295.223 543.835 287.565C538.736 279.809 532.976 274.591 530.971 275.911C530.882 275.969 530.802 276.04 530.73 276.122L530.706 276.087L498.831 302.22C498.817 302.228 498.803 302.236 498.79 302.245C497.295 303.229 499.165 308.713 502.966 314.494C506.539 319.929 510.547 323.692 512.256 323.306L512.282 323.345L549.53 303.971L549.512 303.944Z" fill="url(#paint16_linear)"/>
</g>
<path d="M66.52 129.836H75.844C78.484 129.836 80.536 130.46 82 131.708C83.488 132.956 84.232 134.804 84.232 137.252C84.232 139.724 83.5 141.572 82.036 142.796C80.572 144.02 78.508 144.632 75.844 144.632H69.328V155H66.52V129.836ZM75.628 142.256C77.428 142.256 78.844 141.896 79.876 141.176C80.908 140.432 81.424 139.124 81.424 137.252C81.424 135.356 80.908 134.048 79.876 133.328C78.844 132.584 77.428 132.212 75.628 132.212H69.328V142.256H75.628ZM87.8247 137.72H90.5247V141.104C91.9167 138.848 94.5207 137.72 98.3367 137.72V139.952C94.1607 139.952 91.5807 141.332 90.5967 144.092V155H87.8247V137.72ZM110.251 155.54C108.379 155.54 106.711 155.168 105.247 154.424C103.807 153.68 102.679 152.624 101.863 151.256C101.071 149.864 100.675 148.244 100.675 146.396C100.675 144.572 101.083 142.964 101.899 141.572C102.715 140.18 103.843 139.1 105.283 138.332C106.747 137.564 108.403 137.18 110.251 137.18C112.099 137.18 113.743 137.564 115.183 138.332C116.647 139.1 117.787 140.18 118.603 141.572C119.419 142.964 119.827 144.572 119.827 146.396C119.827 148.244 119.419 149.864 118.603 151.256C117.811 152.624 116.683 153.68 115.219 154.424C113.779 155.168 112.123 155.54 110.251 155.54ZM110.251 153.344C112.315 153.344 113.959 152.72 115.183 151.472C116.431 150.2 117.055 148.508 117.055 146.396C117.055 144.26 116.431 142.568 115.183 141.32C113.959 140.048 112.315 139.412 110.251 139.412C108.187 139.412 106.531 140.048 105.283 141.32C104.059 142.568 103.447 144.26 103.447 146.396C103.447 148.508 104.059 150.2 105.283 151.472C106.531 152.72 108.187 153.344 110.251 153.344ZM131.93 155.54C130.226 155.54 128.69 155.168 127.322 154.424C125.954 153.68 124.874 152.612 124.082 151.22C123.29 149.828 122.894 148.22 122.894 146.396C122.894 144.596 123.278 143 124.046 141.608C124.838 140.192 125.918 139.1 127.286 138.332C128.678 137.564 130.226 137.18 131.93 137.18C133.586 137.18 135.05 137.48 136.322 138.08C137.618 138.656 138.65 139.508 139.418 140.636V128.396H142.19V155H139.49V151.976C138.578 153.176 137.498 154.076 136.25 154.676C135.026 155.252 133.586 155.54 131.93 155.54ZM132.506 153.344C134.162 153.344 135.602 152.924 136.826 152.084C138.074 151.22 138.938 150.044 139.418 148.556V144.236C138.962 142.748 138.11 141.572 136.862 140.708C135.638 139.844 134.186 139.412 132.506 139.412C131.234 139.412 130.07 139.712 129.014 140.312C127.982 140.888 127.166 141.704 126.566 142.76C125.966 143.816 125.666 145.028 125.666 146.396C125.666 147.764 125.966 148.976 126.566 150.032C127.166 151.088 127.982 151.904 129.014 152.48C130.07 153.056 131.234 153.344 132.506 153.344ZM154.223 155.54C151.919 155.54 150.143 154.916 148.895 153.668C147.671 152.42 147.059 150.752 147.059 148.664V137.72H149.831V148.808C149.831 151.832 151.403 153.344 154.547 153.344C155.867 153.344 157.019 153.056 158.003 152.48C159.011 151.904 159.911 150.992 160.703 149.744V137.72H163.475V155H160.775V152.408C159.215 154.496 157.031 155.54 154.223 155.54ZM177.328 155.54C175.504 155.54 173.86 155.18 172.396 154.46C170.956 153.716 169.828 152.66 169.012 151.292C168.196 149.9 167.788 148.268 167.788 146.396C167.788 144.548 168.196 142.928 169.012 141.536C169.852 140.12 171.004 139.04 172.468 138.296C173.932 137.552 175.588 137.18 177.436 137.18C178.756 137.18 179.92 137.3 180.928 137.54C181.936 137.78 182.836 138.164 183.628 138.692V141.032C182.116 139.952 180.136 139.412 177.688 139.412C175.576 139.412 173.86 140.024 172.54 141.248C171.22 142.472 170.56 144.188 170.56 146.396C170.56 148.604 171.22 150.32 172.54 151.544C173.86 152.744 175.54 153.344 177.58 153.344C178.852 153.344 179.992 153.2 181 152.912C182.008 152.624 182.968 152.18 183.88 151.58V153.92C183.04 154.496 182.092 154.904 181.036 155.144C180.004 155.408 178.768 155.54 177.328 155.54ZM194.604 155.54C192.972 155.54 191.7 155.06 190.788 154.1C189.9 153.14 189.456 151.772 189.456 149.996V139.88H186.756V137.72H189.456V132.536H192.228V137.72H196.584V139.88H192.228V150.068C192.228 151.268 192.468 152.12 192.948 152.624C193.428 153.104 194.304 153.344 195.576 153.344C196.2 153.344 196.86 153.2 197.556 152.912V155.18C196.764 155.42 195.78 155.54 194.604 155.54ZM215.02 129.836H222.796C225.484 129.836 227.812 130.34 229.78 131.348C231.772 132.356 233.296 133.796 234.352 135.668C235.408 137.54 235.936 139.748 235.936 142.292C235.936 146.492 234.736 149.66 232.336 151.796C229.936 153.932 226.564 155 222.22 155H215.02V129.836ZM222.04 152.624C225.832 152.624 228.628 151.76 230.428 150.032C232.228 148.28 233.128 145.7 233.128 142.292C233.128 139.124 232.252 136.652 230.5 134.876C228.748 133.1 226.168 132.212 222.76 132.212H217.828V152.624H222.04ZM249.55 155.54C246.406 155.54 243.946 154.736 242.17 153.128C240.418 151.52 239.542 149.276 239.542 146.396C239.542 143.564 240.334 141.32 241.918 139.664C243.502 138.008 245.758 137.18 248.686 137.18C250.654 137.18 252.322 137.564 253.69 138.332C255.058 139.076 256.09 140.108 256.786 141.428C257.482 142.748 257.83 144.248 257.83 145.928V147.44H242.134C242.23 149.408 242.95 150.884 244.294 151.868C245.662 152.852 247.51 153.344 249.838 153.344C250.966 153.344 252.07 153.248 253.15 153.056C254.254 152.84 255.238 152.552 256.102 152.192V154.532C255.382 154.82 254.398 155.06 253.15 155.252C251.926 155.444 250.726 155.54 249.55 155.54ZM255.238 145.46C255.19 143.588 254.614 142.112 253.51 141.032C252.406 139.952 250.786 139.412 248.65 139.412C246.562 139.412 244.966 139.976 243.862 141.104C242.758 142.208 242.182 143.66 242.134 145.46H255.238ZM268.177 155.54C267.049 155.54 265.837 155.372 264.541 155.036C263.245 154.724 262.237 154.328 261.517 153.848V151.508C262.429 152.06 263.473 152.504 264.649 152.84C265.849 153.176 267.001 153.344 268.105 153.344C269.593 153.344 270.661 153.14 271.309 152.732C271.981 152.3 272.317 151.664 272.317 150.824C272.317 150.176 272.173 149.672 271.885 149.312C271.597 148.928 271.117 148.592 270.445 148.304C269.773 148.016 268.729 147.68 267.313 147.296C265.921 146.912 264.805 146.516 263.965 146.108C263.149 145.676 262.525 145.136 262.093 144.488C261.661 143.84 261.445 143.012 261.445 142.004C261.445 140.444 262.069 139.256 263.317 138.44C264.589 137.6 266.269 137.18 268.357 137.18C269.485 137.18 270.541 137.288 271.525 137.504C272.533 137.696 273.373 137.972 274.045 138.332V140.672C273.349 140.288 272.509 139.988 271.525 139.772C270.541 139.532 269.521 139.412 268.465 139.412C267.073 139.412 266.017 139.616 265.297 140.024C264.577 140.432 264.217 141.092 264.217 142.004C264.217 142.628 264.337 143.108 264.577 143.444C264.841 143.78 265.309 144.092 265.981 144.38C266.677 144.644 267.781 144.98 269.293 145.388C271.453 145.988 272.953 146.696 273.793 147.512C274.657 148.304 275.089 149.408 275.089 150.824C275.089 152.288 274.513 153.44 273.361 154.28C272.233 155.12 270.505 155.54 268.177 155.54ZM281.119 133.976C280.639 133.976 280.231 133.808 279.895 133.472C279.559 133.136 279.391 132.728 279.391 132.248C279.391 131.768 279.559 131.36 279.895 131.024C280.231 130.688 280.639 130.52 281.119 130.52C281.599 130.52 282.007 130.688 282.343 131.024C282.703 131.36 282.883 131.768 282.883 132.248C282.883 132.728 282.703 133.136 282.343 133.472C282.007 133.808 281.599 133.976 281.119 133.976ZM279.751 137.72H282.523V155H279.751V137.72ZM296.862 163.28C295.71 163.28 294.582 163.184 293.478 162.992C292.374 162.8 291.438 162.536 290.67 162.2V159.86C292.494 160.676 294.558 161.084 296.862 161.084C299.214 161.084 300.942 160.544 302.046 159.464C303.174 158.408 303.738 156.8 303.738 154.64V152.084C302.178 154.388 299.706 155.54 296.322 155.54C294.618 155.54 293.07 155.168 291.678 154.424C290.286 153.656 289.194 152.576 288.402 151.184C287.61 149.792 287.214 148.196 287.214 146.396C287.214 144.572 287.61 142.964 288.402 141.572C289.194 140.18 290.274 139.1 291.642 138.332C293.01 137.564 294.546 137.18 296.25 137.18C298.026 137.18 299.502 137.456 300.678 138.008C301.854 138.536 302.898 139.412 303.81 140.636V137.72H306.51V154.28C306.51 157.208 305.718 159.44 304.134 160.976C302.55 162.512 300.126 163.28 296.862 163.28ZM296.826 153.344C298.53 153.344 299.994 152.912 301.218 152.048C302.442 151.184 303.282 149.996 303.738 148.484V144.2C303.258 142.688 302.406 141.512 301.182 140.672C299.958 139.832 298.506 139.412 296.826 139.412C295.554 139.412 294.39 139.712 293.334 140.312C292.302 140.888 291.486 141.704 290.886 142.76C290.286 143.816 289.986 145.028 289.986 146.396C289.986 147.788 290.286 149.012 290.886 150.068C291.486 151.1 292.302 151.904 293.334 152.48C294.39 153.056 295.554 153.344 296.826 153.344ZM311.559 137.72H314.259V140.312C315.099 139.232 316.119 138.44 317.319 137.936C318.543 137.432 319.839 137.18 321.207 137.18C323.487 137.18 325.179 137.78 326.283 138.98C327.411 140.18 327.975 141.788 327.975 143.804V155H325.203V144.056C325.203 142.568 324.843 141.428 324.123 140.636C323.403 139.82 322.251 139.412 320.667 139.412C318.003 139.412 315.891 140.612 314.331 143.012V155H311.559V137.72Z" fill="#FD6161"/>
<path d="M66.52 172.836H82.72V175.212H69.328V184.212H79.372V186.588H69.328V195.624H82.72V198H66.52V172.836ZM87.0513 180.72H89.7513V183.312C90.5913 182.232 91.6113 181.44 92.8113 180.936C94.0353 180.432 95.3313 180.18 96.6993 180.18C98.9793 180.18 100.671 180.78 101.775 181.98C102.903 183.18 103.467 184.788 103.467 186.804V198H100.695V187.056C100.695 185.568 100.335 184.428 99.6153 183.636C98.8953 182.82 97.7433 182.412 96.1593 182.412C93.4953 182.412 91.3833 183.612 89.8232 186.012V198H87.0513V180.72ZM105.984 180.72H108.936L114.408 194.58L119.88 180.72H122.868L115.848 198H112.968L105.984 180.72ZM128.928 176.976C128.448 176.976 128.04 176.808 127.704 176.472C127.368 176.136 127.2 175.728 127.2 175.248C127.2 174.768 127.368 174.36 127.704 174.024C128.04 173.688 128.448 173.52 128.928 173.52C129.408 173.52 129.816 173.688 130.152 174.024C130.512 174.36 130.692 174.768 130.692 175.248C130.692 175.728 130.512 176.136 130.152 176.472C129.816 176.808 129.408 176.976 128.928 176.976ZM127.56 180.72H130.332V198H127.56V180.72ZM141.755 198.54C140.627 198.54 139.415 198.372 138.119 198.036C136.823 197.724 135.815 197.328 135.095 196.848V194.508C136.007 195.06 137.051 195.504 138.227 195.84C139.427 196.176 140.579 196.344 141.683 196.344C143.171 196.344 144.239 196.14 144.887 195.732C145.559 195.3 145.895 194.664 145.895 193.824C145.895 193.176 145.751 192.672 145.463 192.312C145.175 191.928 144.695 191.592 144.023 191.304C143.351 191.016 142.307 190.68 140.891 190.296C139.499 189.912 138.383 189.516 137.543 189.108C136.727 188.676 136.103 188.136 135.671 187.488C135.239 186.84 135.023 186.012 135.023 185.004C135.023 183.444 135.647 182.256 136.895 181.44C138.167 180.6 139.847 180.18 141.935 180.18C143.063 180.18 144.119 180.288 145.103 180.504C146.111 180.696 146.951 180.972 147.623 181.332V183.672C146.927 183.288 146.087 182.988 145.103 182.772C144.119 182.532 143.099 182.412 142.043 182.412C140.651 182.412 139.595 182.616 138.875 183.024C138.155 183.432 137.795 184.092 137.795 185.004C137.795 185.628 137.915 186.108 138.155 186.444C138.419 186.78 138.887 187.092 139.559 187.38C140.255 187.644 141.359 187.98 142.871 188.388C145.031 188.988 146.531 189.696 147.371 190.512C148.235 191.304 148.667 192.408 148.667 193.824C148.667 195.288 148.091 196.44 146.939 197.28C145.811 198.12 144.083 198.54 141.755 198.54ZM154.697 176.976C154.217 176.976 153.809 176.808 153.473 176.472C153.137 176.136 152.969 175.728 152.969 175.248C152.969 174.768 153.137 174.36 153.473 174.024C153.809 173.688 154.217 173.52 154.697 173.52C155.177 173.52 155.585 173.688 155.921 174.024C156.281 174.36 156.461 174.768 156.461 175.248C156.461 175.728 156.281 176.136 155.921 176.472C155.585 176.808 155.177 176.976 154.697 176.976ZM153.329 180.72H156.101V198H153.329V180.72ZM170.368 198.54C168.496 198.54 166.828 198.168 165.364 197.424C163.924 196.68 162.796 195.624 161.98 194.256C161.188 192.864 160.792 191.244 160.792 189.396C160.792 187.572 161.2 185.964 162.016 184.572C162.832 183.18 163.96 182.1 165.4 181.332C166.864 180.564 168.52 180.18 170.368 180.18C172.216 180.18 173.86 180.564 175.3 181.332C176.764 182.1 177.904 183.18 178.72 184.572C179.536 185.964 179.944 187.572 179.944 189.396C179.944 191.244 179.536 192.864 178.72 194.256C177.928 195.624 176.8 196.68 175.336 197.424C173.896 198.168 172.24 198.54 170.368 198.54ZM170.368 196.344C172.432 196.344 174.076 195.72 175.3 194.472C176.548 193.2 177.172 191.508 177.172 189.396C177.172 187.26 176.548 185.568 175.3 184.32C174.076 183.048 172.432 182.412 170.368 182.412C168.304 182.412 166.648 183.048 165.4 184.32C164.176 185.568 163.564 187.26 163.564 189.396C163.564 191.508 164.176 193.2 165.4 194.472C166.648 195.72 168.304 196.344 170.368 196.344ZM184.258 180.72H186.958V183.312C187.798 182.232 188.818 181.44 190.018 180.936C191.242 180.432 192.538 180.18 193.906 180.18C196.186 180.18 197.878 180.78 198.982 181.98C200.11 183.18 200.674 184.788 200.674 186.804V198H197.902V187.056C197.902 185.568 197.542 184.428 196.822 183.636C196.102 182.82 194.95 182.412 193.366 182.412C190.702 182.412 188.59 183.612 187.03 186.012V198H184.258V180.72ZM207.256 176.976C206.776 176.976 206.368 176.808 206.032 176.472C205.696 176.136 205.528 175.728 205.528 175.248C205.528 174.768 205.696 174.36 206.032 174.024C206.368 173.688 206.776 173.52 207.256 173.52C207.736 173.52 208.144 173.688 208.48 174.024C208.84 174.36 209.02 174.768 209.02 175.248C209.02 175.728 208.84 176.136 208.48 176.472C208.144 176.808 207.736 176.976 207.256 176.976ZM205.888 180.72H208.66V198H205.888V180.72ZM214.071 180.72H216.771V183.312C217.611 182.232 218.631 181.44 219.831 180.936C221.055 180.432 222.351 180.18 223.719 180.18C225.999 180.18 227.691 180.78 228.795 181.98C229.923 183.18 230.487 184.788 230.487 186.804V198H227.715V187.056C227.715 185.568 227.355 184.428 226.635 183.636C225.915 182.82 224.763 182.412 223.179 182.412C220.515 182.412 218.403 183.612 216.843 186.012V198H214.071V180.72ZM244.268 206.28C243.116 206.28 241.988 206.184 240.884 205.992C239.78 205.8 238.844 205.536 238.076 205.2V202.86C239.9 203.676 241.964 204.084 244.268 204.084C246.62 204.084 248.348 203.544 249.452 202.464C250.58 201.408 251.144 199.8 251.144 197.64V195.084C249.584 197.388 247.112 198.54 243.728 198.54C242.024 198.54 240.476 198.168 239.084 197.424C237.692 196.656 236.6 195.576 235.808 194.184C235.016 192.792 234.62 191.196 234.62 189.396C234.62 187.572 235.016 185.964 235.808 184.572C236.6 183.18 237.68 182.1 239.048 181.332C240.416 180.564 241.952 180.18 243.656 180.18C245.432 180.18 246.908 180.456 248.084 181.008C249.26 181.536 250.304 182.412 251.216 183.636V180.72H253.916V197.28C253.916 200.208 253.124 202.44 251.54 203.976C249.956 205.512 247.532 206.28 244.268 206.28ZM244.232 196.344C245.936 196.344 247.4 195.912 248.624 195.048C249.848 194.184 250.688 192.996 251.144 191.484V187.2C250.664 185.688 249.812 184.512 248.588 183.672C247.364 182.832 245.912 182.412 244.232 182.412C242.96 182.412 241.796 182.712 240.74 183.312C239.708 183.888 238.892 184.704 238.292 185.76C237.692 186.816 237.392 188.028 237.392 189.396C237.392 190.788 237.692 192.012 238.292 193.068C238.892 194.1 239.708 194.904 240.74 195.48C241.796 196.056 242.96 196.344 244.232 196.344ZM278.689 198.54C276.601 198.54 274.945 198.024 273.721 196.992C272.521 195.936 271.921 194.496 271.921 192.672C271.921 190.776 272.509 189.324 273.685 188.316C274.861 187.284 276.565 186.768 278.797 186.768C281.293 186.768 283.441 187.284 285.241 188.316V187.02C285.241 185.46 284.797 184.308 283.909 183.564C283.021 182.796 281.617 182.412 279.697 182.412C277.657 182.412 275.773 182.796 274.045 183.564V181.224C274.765 180.912 275.677 180.66 276.781 180.468C277.885 180.276 278.941 180.18 279.949 180.18C282.685 180.18 284.713 180.804 286.033 182.052C287.353 183.276 288.013 184.98 288.013 187.164V198H285.421V195.768C283.909 197.616 281.665 198.54 278.689 198.54ZM279.373 196.272C280.669 196.272 281.833 196.02 282.865 195.516C283.921 194.988 284.713 194.256 285.241 193.32V190.548C284.305 189.996 283.369 189.6 282.433 189.36C281.521 189.096 280.489 188.964 279.337 188.964C277.705 188.964 276.517 189.276 275.773 189.9C275.053 190.5 274.693 191.424 274.693 192.672C274.693 195.072 276.253 196.272 279.373 196.272ZM316.792 198.54C315.136 198.54 313.684 198.252 312.436 197.676C311.212 197.076 310.144 196.176 309.232 194.976V198H306.532V171.396H309.304V183.636C310.048 182.508 311.092 181.656 312.436 181.08C313.78 180.48 315.232 180.18 316.792 180.18C318.496 180.18 320.032 180.564 321.4 181.332C322.792 182.1 323.872 183.192 324.64 184.608C325.432 186 325.828 187.596 325.828 189.396C325.828 191.22 325.432 192.828 324.64 194.22C323.848 195.612 322.768 196.68 321.4 197.424C320.032 198.168 318.496 198.54 316.792 198.54ZM316.216 196.344C317.488 196.344 318.64 196.056 319.672 195.48C320.728 194.904 321.556 194.088 322.156 193.032C322.756 191.976 323.056 190.764 323.056 189.396C323.056 188.028 322.756 186.816 322.156 185.76C321.556 184.704 320.728 183.888 319.672 183.312C318.64 182.712 317.488 182.412 316.216 182.412C314.584 182.412 313.132 182.844 311.86 183.708C310.612 184.572 309.76 185.748 309.304 187.236V191.556C309.784 193.044 310.636 194.22 311.86 195.084C313.108 195.924 314.56 196.344 316.216 196.344ZM339.445 198.54C336.301 198.54 333.841 197.736 332.065 196.128C330.313 194.52 329.437 192.276 329.437 189.396C329.437 186.564 330.229 184.32 331.813 182.664C333.397 181.008 335.653 180.18 338.581 180.18C340.549 180.18 342.217 180.564 343.585 181.332C344.953 182.076 345.985 183.108 346.681 184.428C347.377 185.748 347.725 187.248 347.725 188.928V190.44H332.029C332.125 192.408 332.845 193.884 334.189 194.868C335.557 195.852 337.405 196.344 339.733 196.344C340.861 196.344 341.965 196.248 343.045 196.056C344.149 195.84 345.133 195.552 345.997 195.192V197.532C345.277 197.82 344.293 198.06 343.045 198.252C341.821 198.444 340.621 198.54 339.445 198.54ZM345.133 188.46C345.085 186.588 344.509 185.112 343.405 184.032C342.301 182.952 340.681 182.412 338.545 182.412C336.457 182.412 334.861 182.976 333.757 184.104C332.653 185.208 332.077 186.66 332.029 188.46H345.133ZM358.467 198.54C356.835 198.54 355.563 198.06 354.651 197.1C353.763 196.14 353.319 194.772 353.319 192.996V182.88H350.619V180.72H353.319V175.536H356.091V180.72H360.447V182.88H356.091V193.068C356.091 194.268 356.331 195.12 356.811 195.624C357.291 196.104 358.167 196.344 359.439 196.344C360.063 196.344 360.723 196.2 361.419 195.912V198.18C360.627 198.42 359.643 198.54 358.467 198.54ZM370.701 198.54C369.069 198.54 367.797 198.06 366.885 197.1C365.997 196.14 365.553 194.772 365.553 192.996V182.88H362.853V180.72H365.553V175.536H368.325V180.72H372.681V182.88H368.325V193.068C368.325 194.268 368.565 195.12 369.045 195.624C369.525 196.104 370.401 196.344 371.673 196.344C372.297 196.344 372.957 196.2 373.653 195.912V198.18C372.861 198.42 371.877 198.54 370.701 198.54ZM386.73 198.54C383.586 198.54 381.126 197.736 379.35 196.128C377.598 194.52 376.722 192.276 376.722 189.396C376.722 186.564 377.514 184.32 379.098 182.664C380.682 181.008 382.938 180.18 385.866 180.18C387.834 180.18 389.502 180.564 390.87 181.332C392.238 182.076 393.27 183.108 393.966 184.428C394.662 185.748 395.01 187.248 395.01 188.928V190.44H379.314C379.41 192.408 380.13 193.884 381.474 194.868C382.842 195.852 384.69 196.344 387.018 196.344C388.146 196.344 389.25 196.248 390.33 196.056C391.434 195.84 392.418 195.552 393.282 195.192V197.532C392.562 197.82 391.578 198.06 390.33 198.252C389.106 198.444 387.906 198.54 386.73 198.54ZM392.418 188.46C392.37 186.588 391.794 185.112 390.69 184.032C389.586 182.952 387.966 182.412 385.83 182.412C383.742 182.412 382.146 182.976 381.042 184.104C379.938 185.208 379.362 186.66 379.314 188.46H392.418ZM399.344 180.72H402.044V184.104C403.436 181.848 406.04 180.72 409.856 180.72V182.952C405.68 182.952 403.1 184.332 402.116 187.092V198H399.344V180.72ZM428.378 182.88H425.678V180.72H428.378V176.904C428.378 175.032 428.882 173.616 429.89 172.656C430.922 171.696 432.302 171.216 434.03 171.216C434.942 171.216 435.794 171.336 436.586 171.576V173.916C435.914 173.604 435.218 173.448 434.498 173.448C433.346 173.448 432.494 173.748 431.942 174.348C431.414 174.924 431.15 175.824 431.15 177.048V180.72H435.542V182.88H431.15V198H428.378V182.88ZM444.473 198.54C442.169 198.54 440.393 197.916 439.145 196.668C437.921 195.42 437.309 193.752 437.309 191.664V180.72H440.081V191.808C440.081 194.832 441.653 196.344 444.797 196.344C446.117 196.344 447.269 196.056 448.253 195.48C449.261 194.904 450.161 193.992 450.953 192.744V180.72H453.725V198H451.025V195.408C449.465 197.496 447.281 198.54 444.473 198.54ZM465.166 198.54C463.534 198.54 462.262 198.06 461.35 197.1C460.462 196.14 460.018 194.772 460.018 192.996V182.88H457.318V180.72H460.018V175.536H462.79V180.72H467.146V182.88H462.79V193.068C462.79 194.268 463.03 195.12 463.51 195.624C463.99 196.104 464.866 196.344 466.138 196.344C466.762 196.344 467.422 196.2 468.118 195.912V198.18C467.326 198.42 466.342 198.54 465.166 198.54ZM478.715 198.54C476.411 198.54 474.635 197.916 473.387 196.668C472.163 195.42 471.551 193.752 471.551 191.664V180.72H474.323V191.808C474.323 194.832 475.895 196.344 479.039 196.344C480.359 196.344 481.511 196.056 482.495 195.48C483.503 194.904 484.403 193.992 485.195 192.744V180.72H487.967V198H485.267V195.408C483.707 197.496 481.523 198.54 478.715 198.54ZM493 180.72H495.7V184.104C497.092 181.848 499.696 180.72 503.512 180.72V182.952C499.336 182.952 496.756 184.332 495.772 187.092V198H493V180.72ZM515.296 198.54C512.152 198.54 509.692 197.736 507.916 196.128C506.164 194.52 505.288 192.276 505.288 189.396C505.288 186.564 506.08 184.32 507.664 182.664C509.248 181.008 511.504 180.18 514.432 180.18C516.4 180.18 518.068 180.564 519.436 181.332C520.804 182.076 521.836 183.108 522.532 184.428C523.228 185.748 523.576 187.248 523.576 188.928V190.44H507.88C507.976 192.408 508.696 193.884 510.04 194.868C511.408 195.852 513.256 196.344 515.584 196.344C516.712 196.344 517.816 196.248 518.896 196.056C520 195.84 520.984 195.552 521.848 195.192V197.532C521.128 197.82 520.144 198.06 518.896 198.252C517.672 198.444 516.472 198.54 515.296 198.54ZM520.984 188.46C520.936 186.588 520.36 185.112 519.256 184.032C518.152 182.952 516.532 182.412 514.396 182.412C512.308 182.412 510.712 182.976 509.608 184.104C508.504 185.208 507.928 186.66 507.88 188.46H520.984Z" fill="#262626"/>
<defs>
<filter id="filter0_dif" x="597" y="203" width="76.8407" height="76.8407" filterUnits="userSpaceOnUse" color-interpolation-filters="sRGB">
<feFlood flood-opacity="0" result="BackgroundImageFix"/>
<feColorMatrix in="SourceAlpha" type="matrix" values="0 0 0 0 0 0 0 0 0 0 0 0 0 0 0 0 0 0 127 0"/>
<feOffset/>
<feGaussianBlur stdDeviation="5"/>
<feColorMatrix type="matrix" values="0 0 0 0 1 0 0 0 0 1 0 0 0 0 1 0 0 0 0.25 0"/>
<feBlend mode="normal" in2="BackgroundImageFix" result="effect1_dropShadow"/>
<feBlend mode="normal" in="SourceGraphic" in2="effect1_dropShadow" result="shape"/>
<feColorMatrix in="SourceAlpha" type="matrix" values="0 0 0 0 0 0 0 0 0 0 0 0 0 0 0 0 0 0 127 0" result="hardAlpha"/>
<feOffset/>
<feGaussianBlur stdDeviation="20"/>
<feComposite in2="hardAlpha" operator="arithmetic" k2="-1" k3="1"/>
<feColorMatrix type="matrix" values="0 0 0 0 1 0 0 0 0 1 0 0 0 0 1 0 0 0 0.65 0"/>
<feBlend mode="normal" in2="shape" result="effect2_innerShadow"/>
<feGaussianBlur stdDeviation="0.25" result="effect3_foregroundBlur"/>
</filter>
<filter id="filter1_dif" x="655" y="58" width="114.734" height="114.734" filterUnits="userSpaceOnUse" color-interpolation-filters="sRGB">
<feFlood flood-opacity="0" result="BackgroundImageFix"/>
<feColorMatrix in="SourceAlpha" type="matrix" values="0 0 0 0 0 0 0 0 0 0 0 0 0 0 0 0 0 0 127 0"/>
<feOffset/>
<feGaussianBlur stdDeviation="5"/>
<feColorMatrix type="matrix" values="0 0 0 0 1 0 0 0 0 1 0 0 0 0 1 0 0 0 0.25 0"/>
<feBlend mode="normal" in2="BackgroundImageFix" result="effect1_dropShadow"/>
<feBlend mode="normal" in="SourceGraphic" in2="effect1_dropShadow" result="shape"/>
<feColorMatrix in="SourceAlpha" type="matrix" values="0 0 0 0 0 0 0 0 0 0 0 0 0 0 0 0 0 0 127 0" result="hardAlpha"/>
<feOffset dy="10"/>
<feGaussianBlur stdDeviation="15"/>
<feComposite in2="hardAlpha" operator="arithmetic" k2="-1" k3="1"/>
<feColorMatrix type="matrix" values="0 0 0 0 1 0 0 0 0 1 0 0 0 0 1 0 0 0 0.55 0"/>
<feBlend mode="normal" in2="shape" result="effect2_innerShadow"/>
<feGaussianBlur stdDeviation="0.5" result="effect3_foregroundBlur"/>
</filter>
<filter id="filter2_dif" x="825" y="73" width="162.102" height="162.102" filterUnits="userSpaceOnUse" color-interpolation-filters="sRGB">
<feFlood flood-opacity="0" result="BackgroundImageFix"/>
<feColorMatrix in="SourceAlpha" type="matrix" values="0 0 0 0 0 0 0 0 0 0 0 0 0 0 0 0 0 0 127 0"/>
<feOffset/>
<feGaussianBlur stdDeviation="5"/>
<feColorMatrix type="matrix" values="0 0 0 0 1 0 0 0 0 1 0 0 0 0 1 0 0 0 0.25 0"/>
<feBlend mode="normal" in2="BackgroundImageFix" result="effect1_dropShadow"/>
<feBlend mode="normal" in="SourceGraphic" in2="effect1_dropShadow" result="shape"/>
<feColorMatrix in="SourceAlpha" type="matrix" values="0 0 0 0 0 0 0 0 0 0 0 0 0 0 0 0 0 0 127 0" result="hardAlpha"/>
<feOffset/>
<feGaussianBlur stdDeviation="15"/>
<feComposite in2="hardAlpha" operator="arithmetic" k2="-1" k3="1"/>
<feColorMatrix type="matrix" values="0 0 0 0 1 0 0 0 0 1 0 0 0 0 1 0 0 0 0.55 0"/>
<feBlend mode="normal" in2="shape" result="effect2_innerShadow"/>
<feGaussianBlur stdDeviation="0.25" result="effect3_foregroundBlur"/>
</filter>
<filter id="filter3_f" x="707.877" y="196.94" width="11.7894" height="11.7894" filterUnits="userSpaceOnUse" color-interpolation-filters="sRGB">
<feFlood flood-opacity="0" result="BackgroundImageFix"/>
<feBlend mode="normal" in="SourceGraphic" in2="BackgroundImageFix" result="shape"/>
<feGaussianBlur stdDeviation="2" result="effect1_foregroundBlur"/>
</filter>
<filter id="filter4_f" x="777.98" y="48.2071" width="11.7894" height="11.7894" filterUnits="userSpaceOnUse" color-interpolation-filters="sRGB">
<feFlood flood-opacity="0" result="BackgroundImageFix"/>
<feBlend mode="normal" in="SourceGraphic" in2="BackgroundImageFix" result="shape"/>
<feGaussianBlur stdDeviation="2" result="effect1_foregroundBlur"/>
</filter>
<filter id="filter5_f" x="764" y="187" width="11.7894" height="11.7894" filterUnits="userSpaceOnUse" color-interpolation-filters="sRGB">
<feFlood flood-opacity="0" result="BackgroundImageFix"/>
<feBlend mode="normal" in="SourceGraphic" in2="BackgroundImageFix" result="shape"/>
<feGaussianBlur stdDeviation="2" result="effect1_foregroundBlur"/>
</filter>
<filter id="filter6_f" x="978.817" y="215.887" width="11.7894" height="11.7894" filterUnits="userSpaceOnUse" color-interpolation-filters="sRGB">
<feFlood flood-opacity="0" result="BackgroundImageFix"/>
<feBlend mode="normal" in="SourceGraphic" in2="BackgroundImageFix" result="shape"/>
<feGaussianBlur stdDeviation="2" result="effect1_foregroundBlur"/>
</filter>
<filter id="filter7_f" x="997" y="4" width="15.5788" height="15.5788" filterUnits="userSpaceOnUse" color-interpolation-filters="sRGB">
<feFlood flood-opacity="0" result="BackgroundImageFix"/>
<feBlend mode="normal" in="SourceGraphic" in2="BackgroundImageFix" result="shape"/>
<feGaussianBlur stdDeviation="2" result="effect1_foregroundBlur"/>
</filter>
<filter id="filter8_f" x="997" y="104" width="15.5788" height="15.5788" filterUnits="userSpaceOnUse" color-interpolation-filters="sRGB">
<feFlood flood-opacity="0" result="BackgroundImageFix"/>
<feBlend mode="normal" in="SourceGraphic" in2="BackgroundImageFix" result="shape"/>
<feGaussianBlur stdDeviation="2" result="effect1_foregroundBlur"/>
</filter>
<filter id="filter9_f" x="778.929" y="141.047" width="15.5788" height="15.5788" filterUnits="userSpaceOnUse" color-interpolation-filters="sRGB">
<feFlood flood-opacity="0" result="BackgroundImageFix"/>
<feBlend mode="normal" in="SourceGraphic" in2="BackgroundImageFix" result="shape"/>
<feGaussianBlur stdDeviation="2" result="effect1_foregroundBlur"/>
</filter>
<filter id="filter10_f" x="712.615" y="3.68188" width="15.5788" height="15.5788" filterUnits="userSpaceOnUse" color-interpolation-filters="sRGB">
<feFlood flood-opacity="0" result="BackgroundImageFix"/>
<feBlend mode="normal" in="SourceGraphic" in2="BackgroundImageFix" result="shape"/>
<feGaussianBlur stdDeviation="2" result="effect1_foregroundBlur"/>
</filter>
<filter id="filter11_f" x="619" y="153" width="15.5788" height="15.5788" filterUnits="userSpaceOnUse" color-interpolation-filters="sRGB">
<feFlood flood-opacity="0" result="BackgroundImageFix"/>
<feBlend mode="normal" in="SourceGraphic" in2="BackgroundImageFix" result="shape"/>
<feGaussianBlur stdDeviation="2" result="effect1_foregroundBlur"/>
</filter>
<filter id="filter12_f" x="750.508" y="237.676" width="15.5788" height="15.5788" filterUnits="userSpaceOnUse" color-interpolation-filters="sRGB">
<feFlood flood-opacity="0" result="BackgroundImageFix"/>
<feBlend mode="normal" in="SourceGraphic" in2="BackgroundImageFix" result="shape"/>
<feGaussianBlur stdDeviation="2" result="effect1_foregroundBlur"/>
</filter>
<filter id="filter13_f" x="819.665" y="-3.89688" width="13.6841" height="13.6841" filterUnits="userSpaceOnUse" color-interpolation-filters="sRGB">
<feFlood flood-opacity="0" result="BackgroundImageFix"/>
<feBlend mode="normal" in="SourceGraphic" in2="BackgroundImageFix" result="shape"/>
<feGaussianBlur stdDeviation="2" result="effect1_foregroundBlur"/>
</filter>
<filter id="filter14_f" x="679" y="256" width="13.6841" height="13.6841" filterUnits="userSpaceOnUse" color-interpolation-filters="sRGB">
<feFlood flood-opacity="0" result="BackgroundImageFix"/>
<feBlend mode="normal" in="SourceGraphic" in2="BackgroundImageFix" result="shape"/>
<feGaussianBlur stdDeviation="2" result="effect1_foregroundBlur"/>
</filter>
<filter id="filter15_f" x="852" y="224" width="13.6841" height="13.6841" filterUnits="userSpaceOnUse" color-interpolation-filters="sRGB">
<feFlood flood-opacity="0" result="BackgroundImageFix"/>
<feBlend mode="normal" in="SourceGraphic" in2="BackgroundImageFix" result="shape"/>
<feGaussianBlur stdDeviation="2" result="effect1_foregroundBlur"/>
</filter>
<filter id="filter16_f" x="825" y="95" width="13.6841" height="13.6841" filterUnits="userSpaceOnUse" color-interpolation-filters="sRGB">
<feFlood flood-opacity="0" result="BackgroundImageFix"/>
<feBlend mode="normal" in="SourceGraphic" in2="BackgroundImageFix" result="shape"/>
<feGaussianBlur stdDeviation="2" result="effect1_foregroundBlur"/>
</filter>
<filter id="filter17_f" x="800.474" y="223.526" width="10.842" height="10.842" filterUnits="userSpaceOnUse" color-interpolation-filters="sRGB">
<feFlood flood-opacity="0" result="BackgroundImageFix"/>
<feBlend mode="normal" in="SourceGraphic" in2="BackgroundImageFix" result="shape"/>
<feGaussianBlur stdDeviation="2" result="effect1_foregroundBlur"/>
</filter>
<filter id="filter18_f" x="791" y="215" width="10.842" height="10.842" filterUnits="userSpaceOnUse" color-interpolation-filters="sRGB">
<feFlood flood-opacity="0" result="BackgroundImageFix"/>
<feBlend mode="normal" in="SourceGraphic" in2="BackgroundImageFix" result="shape"/>
<feGaussianBlur stdDeviation="2" result="effect1_foregroundBlur"/>
</filter>
<filter id="filter19_i" x="476.402" y="317.977" width="18.1376" height="17.5172" filterUnits="userSpaceOnUse" color-interpolation-filters="sRGB">
<feFlood flood-opacity="0" result="BackgroundImageFix"/>
<feBlend mode="normal" in="SourceGraphic" in2="BackgroundImageFix" result="shape"/>
<feColorMatrix in="SourceAlpha" type="matrix" values="0 0 0 0 0 0 0 0 0 0 0 0 0 0 0 0 0 0 127 0" result="hardAlpha"/>
<feOffset/>
<feGaussianBlur stdDeviation="2"/>
<feComposite in2="hardAlpha" operator="arithmetic" k2="-1" k3="1"/>
<feColorMatrix type="matrix" values="0 0 0 0 1 0 0 0 0 1 0 0 0 0 1 0 0 0 0.55 0"/>
<feBlend mode="normal" in2="shape" result="effect1_innerShadow"/>
</filter>
<filter id="filter20_i" x="484.749" y="300.278" width="32.6564" height="31.5398" filterUnits="userSpaceOnUse" color-interpolation-filters="sRGB">
<feFlood flood-opacity="0" result="BackgroundImageFix"/>
<feBlend mode="normal" in="SourceGraphic" in2="BackgroundImageFix" result="shape"/>
<feColorMatrix in="SourceAlpha" type="matrix" values="0 0 0 0 0 0 0 0 0 0 0 0 0 0 0 0 0 0 127 0" result="hardAlpha"/>
<feOffset/>
<feGaussianBlur stdDeviation="2"/>
<feComposite in2="hardAlpha" operator="arithmetic" k2="-1" k3="1"/>
<feColorMatrix type="matrix" values="0 0 0 0 1 0 0 0 0 1 0 0 0 0 1 0 0 0 0.55 0"/>
<feBlend mode="normal" in2="shape" result="effect1_innerShadow"/>
</filter>
<filter id="filter21_i" x="496.454" y="272.682" width="56.1179" height="54.1997" filterUnits="userSpaceOnUse" color-interpolation-filters="sRGB">
<feFlood flood-opacity="0" result="BackgroundImageFix"/>
<feBlend mode="normal" in="SourceGraphic" in2="BackgroundImageFix" result="shape"/>
<feColorMatrix in="SourceAlpha" type="matrix" values="0 0 0 0 0 0 0 0 0 0 0 0 0 0 0 0 0 0 127 0" result="hardAlpha"/>
<feOffset/>
<feGaussianBlur stdDeviation="2"/>
<feComposite in2="hardAlpha" operator="arithmetic" k2="-1" k3="1"/>
<feColorMatrix type="matrix" values="0 0 0 0 1 0 0 0 0 1 0 0 0 0 1 0 0 0 0.55 0"/>
<feBlend mode="normal" in2="shape" result="effect1_innerShadow"/>
</filter>
<radialGradient id="paint0_radial" cx="0" cy="0" r="1" gradientUnits="userSpaceOnUse" gradientTransform="translate(533.777 341.463) rotate(-41.1142) scale(706.408 805.379)">
<stop stop-color="#FFDAC9"/>
<stop offset="0.322917" stop-color="#EA7BA2"/>
<stop offset="0.447917" stop-color="#E56297"/>
<stop offset="0.8125" stop-color="#9A2A7D"/>
<stop offset="1" stop-color="#731677"/>
</radialGradient>
<radialGradient id="paint1_radial" cx="0" cy="0" r="1" gradientUnits="userSpaceOnUse" gradientTransform="translate(635.747 213) rotate(87.6507) scale(63.7544 104.216)">
<stop stop-color="#FFBD3E"/>
<stop offset="0.489583" stop-color="#FF9871"/>
<stop offset="0.692708" stop-color="#FF8150"/>
<stop offset="1" stop-color="#FF8F64"/>
</radialGradient>
<radialGradient id="paint2_radial" cx="0" cy="0" r="1" gradientUnits="userSpaceOnUse" gradientTransform="translate(694.841 68) rotate(68.9433) scale(101.513 165.939)">
<stop stop-color="#FF94B4"/>
<stop offset="0.380208" stop-color="#FF769F"/>
<stop offset="0.692708" stop-color="#FD6161"/>
<stop offset="1" stop-color="#FF7B7B"/>
</radialGradient>
<radialGradient id="paint3_radial" cx="0" cy="0" r="1" gradientUnits="userSpaceOnUse" gradientTransform="translate(945.325 107.279) rotate(122.595) scale(139.849 228.605)">
<stop stop-color="#E56272"/>
<stop offset="0.380208" stop-color="#D058B9"/>
<stop offset="0.598958" stop-color="#AB4BE7"/>
<stop offset="0.692708" stop-color="#7A29CB"/>
<stop offset="0.8125" stop-color="#924DD1"/>
<stop offset="1" stop-color="#984FCE"/>
</radialGradient>
<linearGradient id="paint4_linear" x1="3.12287" y1="0.668499" x2="3.45148" y2="3.5595" gradientUnits="userSpaceOnUse">
<stop stop-color="#FF7777"/>
<stop offset="0.166667" stop-color="#FF8A8A"/>
<stop offset="0.333333" stop-color="#FFA6A6"/>
<stop offset="0.505208" stop-color="#FE9393"/>
<stop offset="0.848958" stop-color="#EC7777"/>
<stop offset="1" stop-color="#DC5C5C"/>
</linearGradient>
<linearGradient id="paint5_linear" x1="2.28815e-08" y1="0.264467" x2="0.616602" y2="5.07432" gradientUnits="userSpaceOnUse">
<stop stop-color="#F27190"/>
<stop offset="0.432292" stop-color="#BD9AE9"/>
<stop offset="0.635417" stop-color="#8254BE"/>
<stop offset="1" stop-color="#571EA3"/>
</linearGradient>
<linearGradient id="paint6_linear" x1="4.78175" y1="0.668499" x2="4.99795" y2="3.58081" gradientUnits="userSpaceOnUse">
<stop stop-color="#FF7777"/>
<stop offset="0.166667" stop-color="#FF8A8A"/>
<stop offset="0.333333" stop-color="#FFA6A6"/>
<stop offset="0.505208" stop-color="#FE9393"/>
<stop offset="0.848958" stop-color="#EC7777"/>
<stop offset="1" stop-color="#DC5C5C"/>
</linearGradient>
<linearGradient id="paint7_linear" x1="3.50362e-08" y1="0.264467" x2="0.40646" y2="5.11934" gradientUnits="userSpaceOnUse">
<stop stop-color="#F27190"/>
<stop offset="0.432292" stop-color="#BD9AE9"/>
<stop offset="0.635417" stop-color="#8254BE"/>
<stop offset="1" stop-color="#571EA3"/>
</linearGradient>
<linearGradient id="paint8_linear" x1="518.259" y1="320.354" x2="518.487" y2="323.265" gradientUnits="userSpaceOnUse">
<stop stop-color="#FF7777"/>
<stop offset="0.166667" stop-color="#FF8A8A"/>
<stop offset="0.333333" stop-color="#FFA6A6"/>
<stop offset="0.505208" stop-color="#FE9393"/>
<stop offset="0.848958" stop-color="#EC7777"/>
<stop offset="1" stop-color="#DC5C5C"/>
</linearGradient>
<linearGradient id="paint9_linear" x1="513.721" y1="319.95" x2="514.149" y2="324.802" gradientUnits="userSpaceOnUse">
<stop stop-color="#F27190"/>
<stop offset="0.432292" stop-color="#BD9AE9"/>
<stop offset="0.635417" stop-color="#8254BE"/>
<stop offset="1" stop-color="#571EA3"/>
</linearGradient>
<linearGradient id="paint10_linear" x1="477.835" y1="319.41" x2="489.572" y2="335.274" gradientUnits="userSpaceOnUse">
<stop stop-color="#F27190"/>
<stop offset="0.432292" stop-color="#BD9AE9"/>
<stop offset="0.635417" stop-color="#8254BE"/>
<stop offset="1" stop-color="#571EA3"/>
</linearGradient>
<linearGradient id="paint11_linear" x1="492.002" y1="310.025" x2="503.473" y2="325.983" gradientUnits="userSpaceOnUse">
<stop stop-color="#FFD78A"/>
<stop offset="0.166667" stop-color="#FFEBC5"/>
<stop offset="0.333333" stop-color="#FFD88D"/>
<stop offset="0.505208" stop-color="#FFCE6F"/>
<stop offset="0.848958" stop-color="#FFB169"/>
<stop offset="1" stop-color="#FF6767"/>
</linearGradient>
<linearGradient id="paint12_linear" x1="492.002" y1="310.025" x2="503.473" y2="325.983" gradientUnits="userSpaceOnUse">
<stop stop-color="#E4DDED"/>
<stop offset="0.223958" stop-color="#F7F2FC"/>
<stop offset="0.390625" stop-color="#E0D9E9"/>
<stop offset="0.588542" stop-color="#CEC3DB"/>
<stop offset="0.848958" stop-color="#B6AFBF"/>
<stop offset="1" stop-color="#6F6877"/>
</linearGradient>
<linearGradient id="paint13_linear" x1="509.697" y1="287.573" x2="530.513" y2="316.72" gradientUnits="userSpaceOnUse">
<stop stop-color="#FFD78A"/>
<stop offset="0.166667" stop-color="#FFEBC5"/>
<stop offset="0.333333" stop-color="#FFD88D"/>
<stop offset="0.505208" stop-color="#FFCE6F"/>
<stop offset="0.848958" stop-color="#FFB169"/>
<stop offset="1" stop-color="#FF9167"/>
</linearGradient>
<linearGradient id="paint14_linear" x1="509.697" y1="287.573" x2="530.513" y2="316.72" gradientUnits="userSpaceOnUse">
<stop stop-color="#E4DDED"/>
<stop offset="0.223958" stop-color="#F7F2FC"/>
<stop offset="0.390625" stop-color="#E0D9E9"/>
<stop offset="0.588542" stop-color="#CEC3DB"/>
<stop offset="0.848958" stop-color="#B6AFBF"/>
<stop offset="1" stop-color="#6F6877"/>
</linearGradient>
<linearGradient id="paint15_linear" x1="507.626" y1="284.625" x2="528.633" y2="316.854" gradientUnits="userSpaceOnUse">
<stop stop-color="#FF7777"/>
<stop offset="0.166667" stop-color="#FF8A8A"/>
<stop offset="0.333333" stop-color="#FFA6A6"/>
<stop offset="0.505208" stop-color="#FE9393"/>
<stop offset="0.848958" stop-color="#EC7777"/>
<stop offset="1" stop-color="#DC5C5C"/>
</linearGradient>
<linearGradient id="paint16_linear" x1="500.886" y1="277.116" x2="537.2" y2="326.198" gradientUnits="userSpaceOnUse">
<stop stop-color="#F27190"/>
<stop offset="0.432292" stop-color="#BD9AE9"/>
<stop offset="0.635417" stop-color="#8254BE"/>
<stop offset="1" stop-color="#571EA3"/>
</linearGradient>
</defs>
</svg>
