<svg width="1024" height="413" viewBox="0 0 1024 413" fill="none" xmlns="http://www.w3.org/2000/svg">
<mask id="mask0" mask-type="alpha" maskUnits="userSpaceOnUse" x="491" y="-355" width="943" height="724">
<path d="M866.501 -354L492.001 368L1432.5 166.5L866.501 -354Z" fill="#C4C4C4" stroke="black"/>
</mask>
<g mask="url(#mask0)">
<rect x="8.00098" y="-73" width="1034" height="544" fill="url(#paint0_radial)"/>
<g filter="url(#filter0_dif)">
<circle cx="645.001" cy="262" r="30" fill="url(#paint1_radial)"/>
</g>
<g filter="url(#filter1_dif)">
<circle cx="718.001" cy="143" r="50" fill="url(#paint2_radial)"/>
</g>
<g filter="url(#filter2_dif)">
<circle cx="887.001" cy="125" r="75" fill="url(#paint3_radial)"/>
</g>
<g filter="url(#filter3_f)">
<circle cx="715.001" cy="234" r="2" fill="white"/>
</g>
<g filter="url(#filter4_f)">
<circle cx="789.001" cy="77" r="2" fill="white"/>
</g>
<g filter="url(#filter5_f)">
<circle cx="946.001" cy="179" r="2" fill="white"/>
</g>
<g filter="url(#filter6_f)">
<circle cx="1001" cy="254" r="2" fill="white"/>
</g>
<g filter="url(#filter7_f)">
<circle cx="940.001" cy="-2" r="2" fill="white"/>
</g>
<g filter="url(#filter8_f)">
<circle cx="998.001" cy="45" r="4" fill="white" fill-opacity="0.5"/>
</g>
<g filter="url(#filter9_f)">
<circle cx="993.001" cy="166" r="4" fill="white" fill-opacity="0.5"/>
</g>
<g filter="url(#filter10_f)">
<circle cx="792.001" cy="177" r="4" fill="white" fill-opacity="0.5"/>
</g>
<g filter="url(#filter11_f)">
<circle cx="722.001" cy="32" r="4" fill="white"/>
</g>
<g filter="url(#filter12_f)">
<circle cx="644.001" cy="172" r="4" fill="white"/>
</g>
<g filter="url(#filter13_f)">
<circle cx="762.001" cy="279" r="4" fill="white"/>
</g>
<g filter="url(#filter14_f)">
<circle cx="834.001" cy="23" r="3" fill="white" fill-opacity="0.5"/>
</g>
<g filter="url(#filter15_f)">
<circle cx="719.001" cy="10" r="3" fill="white" fill-opacity="0.5"/>
</g>
<g filter="url(#filter16_f)">
<circle cx="683.001" cy="315" r="3" fill="white" fill-opacity="0.5"/>
</g>
<g filter="url(#filter17_f)">
<circle cx="868.001" cy="230" r="3" fill="white" fill-opacity="0.5"/>
</g>
<g filter="url(#filter18_f)">
<circle cx="828.501" cy="285.5" r="1.5" fill="white" fill-opacity="0.5"/>
</g>
<g filter="url(#filter19_f)">
<circle cx="818.501" cy="276.5" r="1.5" fill="white" fill-opacity="0.5"/>
</g>
</g>
<rect width="22.11" height="3" rx="1.5" transform="matrix(0.222222 0.974996 -0.974995 0.222225 488.851 376.708)" fill="url(#paint4_linear)"/>
<rect width="22.11" height="3" rx="1.5" transform="matrix(0.222222 0.974996 -0.974995 0.222225 488.851 376.708)" fill="url(#paint5_linear)"/>
<rect width="33.855" height="3" rx="1.5" transform="matrix(0.626507 0.779416 -0.779417 0.626506 489.529 376.418)" fill="url(#paint6_linear)"/>
<rect width="33.855" height="3" rx="1.5" transform="matrix(0.626507 0.779416 -0.779417 0.626506 489.529 376.418)" fill="url(#paint7_linear)"/>
<rect x="489.586" y="377.218" width="32.1309" height="3" rx="1.5" transform="rotate(104.008 489.586 377.218)" fill="url(#paint8_linear)"/>
<rect x="489.586" y="377.218" width="32.1309" height="3" rx="1.5" transform="rotate(104.008 489.586 377.218)" fill="url(#paint9_linear)"/>
<g filter="url(#filter20_i)">
<path fill-rule="evenodd" clip-rule="evenodd" d="M468.933 385.815C469.55 385.334 468.719 382.928 467.053 380.395C465.366 377.828 463.46 376.101 462.796 376.537C462.767 376.557 462.74 376.58 462.716 376.607L462.709 376.596L452.161 385.243C452.155 385.246 452.15 385.25 452.145 385.253C451.65 385.579 452.269 387.394 453.527 389.307C454.71 391.106 456.037 392.352 456.602 392.223L456.611 392.236L468.939 385.824L468.933 385.815Z" fill="url(#paint10_linear)"/>
</g>
<g filter="url(#filter21_i)">
<path fill-rule="evenodd" clip-rule="evenodd" d="M491.536 375.973C492.648 375.107 491.153 370.776 488.153 366.213C485.114 361.591 481.682 358.482 480.487 359.268C480.434 359.303 480.386 359.345 480.343 359.394L480.329 359.373L461.335 374.945C461.326 374.95 461.318 374.955 461.31 374.961C460.419 375.547 461.533 378.815 463.798 382.26C465.928 385.499 468.316 387.741 469.335 387.511L469.35 387.534L491.546 375.989L491.536 375.973Z" fill="url(#paint11_linear)"/>
<path fill-rule="evenodd" clip-rule="evenodd" d="M491.536 375.973C492.648 375.107 491.153 370.776 488.153 366.213C485.114 361.591 481.682 358.482 480.487 359.268C480.434 359.303 480.386 359.345 480.343 359.394L480.329 359.373L461.335 374.945C461.326 374.95 461.318 374.955 461.31 374.961C460.419 375.547 461.533 378.815 463.798 382.26C465.928 385.499 468.316 387.741 469.335 387.511L469.35 387.534L491.546 375.989L491.536 375.973Z" fill="url(#paint12_linear)"/>
</g>
<path fill-rule="evenodd" clip-rule="evenodd" d="M529.57 359.202C529.63 359.176 529.688 359.145 529.744 359.11L529.987 358.982L529.957 358.938C531.673 357.202 529.055 349.772 523.914 341.952C518.593 333.859 512.584 328.414 510.491 329.791C510.424 329.835 510.362 329.886 510.304 329.943L510.263 329.881L474.34 359.332C474.326 359.34 474.311 359.349 474.297 359.358C472.766 360.366 474.681 365.981 478.573 371.901C482.233 377.468 486.338 381.321 488.087 380.925L488.113 380.965L529.57 359.202Z" fill="url(#paint13_linear)"/>
<path fill-rule="evenodd" clip-rule="evenodd" d="M529.57 359.202C529.63 359.176 529.688 359.145 529.744 359.11L529.987 358.982L529.957 358.938C531.673 357.202 529.055 349.772 523.914 341.952C518.593 333.859 512.584 328.414 510.491 329.791C510.424 329.835 510.362 329.886 510.304 329.943L510.263 329.881L474.34 359.332C474.326 359.34 474.311 359.349 474.297 359.358C472.766 360.366 474.681 365.981 478.573 371.901C482.233 377.468 486.338 381.321 488.087 380.925L488.113 380.965L529.57 359.202Z" fill="url(#paint14_linear)"/>
<g filter="url(#filter22_i)">
<path fill-rule="evenodd" clip-rule="evenodd" d="M526.238 361.098C528.149 359.609 525.58 352.166 520.424 344.325C515.202 336.383 509.305 331.039 507.252 332.39C507.16 332.45 507.078 332.523 507.005 332.607L506.98 332.571L474.34 359.331C474.325 359.34 474.311 359.349 474.296 359.358C472.766 360.365 474.68 365.981 478.573 371.901C482.232 377.467 486.337 381.321 488.087 380.925L488.113 380.965L526.257 361.126L526.238 361.098Z" fill="url(#paint15_linear)"/>
<path fill-rule="evenodd" clip-rule="evenodd" d="M526.238 361.098C528.149 359.609 525.58 352.166 520.424 344.325C515.202 336.383 509.305 331.039 507.252 332.39C507.16 332.45 507.078 332.523 507.005 332.607L506.98 332.571L474.34 359.331C474.325 359.34 474.311 359.349 474.296 359.358C472.766 360.365 474.68 365.981 478.573 371.901C482.232 377.467 486.337 381.321 488.087 380.925L488.113 380.965L526.257 361.126L526.238 361.098Z" fill="url(#paint16_linear)"/>
</g>
<defs>
<filter id="filter0_dif" x="605.001" y="222" width="80" height="80" filterUnits="userSpaceOnUse" color-interpolation-filters="sRGB">
<feFlood flood-opacity="0" result="BackgroundImageFix"/>
<feColorMatrix in="SourceAlpha" type="matrix" values="0 0 0 0 0 0 0 0 0 0 0 0 0 0 0 0 0 0 127 0"/>
<feOffset/>
<feGaussianBlur stdDeviation="5"/>
<feColorMatrix type="matrix" values="0 0 0 0 1 0 0 0 0 1 0 0 0 0 1 0 0 0 0.25 0"/>
<feBlend mode="normal" in2="BackgroundImageFix" result="effect1_dropShadow"/>
<feBlend mode="normal" in="SourceGraphic" in2="effect1_dropShadow" result="shape"/>
<feColorMatrix in="SourceAlpha" type="matrix" values="0 0 0 0 0 0 0 0 0 0 0 0 0 0 0 0 0 0 127 0" result="hardAlpha"/>
<feOffset/>
<feGaussianBlur stdDeviation="20"/>
<feComposite in2="hardAlpha" operator="arithmetic" k2="-1" k3="1"/>
<feColorMatrix type="matrix" values="0 0 0 0 1 0 0 0 0 1 0 0 0 0 1 0 0 0 0.65 0"/>
<feBlend mode="normal" in2="shape" result="effect2_innerShadow"/>
<feGaussianBlur stdDeviation="0.25" result="effect3_foregroundBlur"/>
</filter>
<filter id="filter1_dif" x="658.001" y="83" width="120" height="120" filterUnits="userSpaceOnUse" color-interpolation-filters="sRGB">
<feFlood flood-opacity="0" result="BackgroundImageFix"/>
<feColorMatrix in="SourceAlpha" type="matrix" values="0 0 0 0 0 0 0 0 0 0 0 0 0 0 0 0 0 0 127 0"/>
<feOffset/>
<feGaussianBlur stdDeviation="5"/>
<feColorMatrix type="matrix" values="0 0 0 0 1 0 0 0 0 1 0 0 0 0 1 0 0 0 0.25 0"/>
<feBlend mode="normal" in2="BackgroundImageFix" result="effect1_dropShadow"/>
<feBlend mode="normal" in="SourceGraphic" in2="effect1_dropShadow" result="shape"/>
<feColorMatrix in="SourceAlpha" type="matrix" values="0 0 0 0 0 0 0 0 0 0 0 0 0 0 0 0 0 0 127 0" result="hardAlpha"/>
<feOffset dy="10"/>
<feGaussianBlur stdDeviation="15"/>
<feComposite in2="hardAlpha" operator="arithmetic" k2="-1" k3="1"/>
<feColorMatrix type="matrix" values="0 0 0 0 1 0 0 0 0 1 0 0 0 0 1 0 0 0 0.55 0"/>
<feBlend mode="normal" in2="shape" result="effect2_innerShadow"/>
<feGaussianBlur stdDeviation="0.5" result="effect3_foregroundBlur"/>
</filter>
<filter id="filter2_dif" x="802.001" y="40" width="170" height="170" filterUnits="userSpaceOnUse" color-interpolation-filters="sRGB">
<feFlood flood-opacity="0" result="BackgroundImageFix"/>
<feColorMatrix in="SourceAlpha" type="matrix" values="0 0 0 0 0 0 0 0 0 0 0 0 0 0 0 0 0 0 127 0"/>
<feOffset/>
<feGaussianBlur stdDeviation="5"/>
<feColorMatrix type="matrix" values="0 0 0 0 1 0 0 0 0 1 0 0 0 0 1 0 0 0 0.25 0"/>
<feBlend mode="normal" in2="BackgroundImageFix" result="effect1_dropShadow"/>
<feBlend mode="normal" in="SourceGraphic" in2="effect1_dropShadow" result="shape"/>
<feColorMatrix in="SourceAlpha" type="matrix" values="0 0 0 0 0 0 0 0 0 0 0 0 0 0 0 0 0 0 127 0" result="hardAlpha"/>
<feOffset/>
<feGaussianBlur stdDeviation="15"/>
<feComposite in2="hardAlpha" operator="arithmetic" k2="-1" k3="1"/>
<feColorMatrix type="matrix" values="0 0 0 0 1 0 0 0 0 1 0 0 0 0 1 0 0 0 0.55 0"/>
<feBlend mode="normal" in2="shape" result="effect2_innerShadow"/>
<feGaussianBlur stdDeviation="0.25" result="effect3_foregroundBlur"/>
</filter>
<filter id="filter3_f" x="709.001" y="228" width="12" height="12" filterUnits="userSpaceOnUse" color-interpolation-filters="sRGB">
<feFlood flood-opacity="0" result="BackgroundImageFix"/>
<feBlend mode="normal" in="SourceGraphic" in2="BackgroundImageFix" result="shape"/>
<feGaussianBlur stdDeviation="2" result="effect1_foregroundBlur"/>
</filter>
<filter id="filter4_f" x="783.001" y="71" width="12" height="12" filterUnits="userSpaceOnUse" color-interpolation-filters="sRGB">
<feFlood flood-opacity="0" result="BackgroundImageFix"/>
<feBlend mode="normal" in="SourceGraphic" in2="BackgroundImageFix" result="shape"/>
<feGaussianBlur stdDeviation="2" result="effect1_foregroundBlur"/>
</filter>
<filter id="filter5_f" x="940.001" y="173" width="12" height="12" filterUnits="userSpaceOnUse" color-interpolation-filters="sRGB">
<feFlood flood-opacity="0" result="BackgroundImageFix"/>
<feBlend mode="normal" in="SourceGraphic" in2="BackgroundImageFix" result="shape"/>
<feGaussianBlur stdDeviation="2" result="effect1_foregroundBlur"/>
</filter>
<filter id="filter6_f" x="995.001" y="248" width="12" height="12" filterUnits="userSpaceOnUse" color-interpolation-filters="sRGB">
<feFlood flood-opacity="0" result="BackgroundImageFix"/>
<feBlend mode="normal" in="SourceGraphic" in2="BackgroundImageFix" result="shape"/>
<feGaussianBlur stdDeviation="2" result="effect1_foregroundBlur"/>
</filter>
<filter id="filter7_f" x="934.001" y="-8" width="12" height="12" filterUnits="userSpaceOnUse" color-interpolation-filters="sRGB">
<feFlood flood-opacity="0" result="BackgroundImageFix"/>
<feBlend mode="normal" in="SourceGraphic" in2="BackgroundImageFix" result="shape"/>
<feGaussianBlur stdDeviation="2" result="effect1_foregroundBlur"/>
</filter>
<filter id="filter8_f" x="990.001" y="37" width="16" height="16" filterUnits="userSpaceOnUse" color-interpolation-filters="sRGB">
<feFlood flood-opacity="0" result="BackgroundImageFix"/>
<feBlend mode="normal" in="SourceGraphic" in2="BackgroundImageFix" result="shape"/>
<feGaussianBlur stdDeviation="2" result="effect1_foregroundBlur"/>
</filter>
<filter id="filter9_f" x="985.001" y="158" width="16" height="16" filterUnits="userSpaceOnUse" color-interpolation-filters="sRGB">
<feFlood flood-opacity="0" result="BackgroundImageFix"/>
<feBlend mode="normal" in="SourceGraphic" in2="BackgroundImageFix" result="shape"/>
<feGaussianBlur stdDeviation="2" result="effect1_foregroundBlur"/>
</filter>
<filter id="filter10_f" x="784.001" y="169" width="16" height="16" filterUnits="userSpaceOnUse" color-interpolation-filters="sRGB">
<feFlood flood-opacity="0" result="BackgroundImageFix"/>
<feBlend mode="normal" in="SourceGraphic" in2="BackgroundImageFix" result="shape"/>
<feGaussianBlur stdDeviation="2" result="effect1_foregroundBlur"/>
</filter>
<filter id="filter11_f" x="714.001" y="24" width="16" height="16" filterUnits="userSpaceOnUse" color-interpolation-filters="sRGB">
<feFlood flood-opacity="0" result="BackgroundImageFix"/>
<feBlend mode="normal" in="SourceGraphic" in2="BackgroundImageFix" result="shape"/>
<feGaussianBlur stdDeviation="2" result="effect1_foregroundBlur"/>
</filter>
<filter id="filter12_f" x="636.001" y="164" width="16" height="16" filterUnits="userSpaceOnUse" color-interpolation-filters="sRGB">
<feFlood flood-opacity="0" result="BackgroundImageFix"/>
<feBlend mode="normal" in="SourceGraphic" in2="BackgroundImageFix" result="shape"/>
<feGaussianBlur stdDeviation="2" result="effect1_foregroundBlur"/>
</filter>
<filter id="filter13_f" x="754.001" y="271" width="16" height="16" filterUnits="userSpaceOnUse" color-interpolation-filters="sRGB">
<feFlood flood-opacity="0" result="BackgroundImageFix"/>
<feBlend mode="normal" in="SourceGraphic" in2="BackgroundImageFix" result="shape"/>
<feGaussianBlur stdDeviation="2" result="effect1_foregroundBlur"/>
</filter>
<filter id="filter14_f" x="827.001" y="16" width="14" height="14" filterUnits="userSpaceOnUse" color-interpolation-filters="sRGB">
<feFlood flood-opacity="0" result="BackgroundImageFix"/>
<feBlend mode="normal" in="SourceGraphic" in2="BackgroundImageFix" result="shape"/>
<feGaussianBlur stdDeviation="2" result="effect1_foregroundBlur"/>
</filter>
<filter id="filter15_f" x="712.001" y="3" width="14" height="14" filterUnits="userSpaceOnUse" color-interpolation-filters="sRGB">
<feFlood flood-opacity="0" result="BackgroundImageFix"/>
<feBlend mode="normal" in="SourceGraphic" in2="BackgroundImageFix" result="shape"/>
<feGaussianBlur stdDeviation="2" result="effect1_foregroundBlur"/>
</filter>
<filter id="filter16_f" x="676.001" y="308" width="14" height="14" filterUnits="userSpaceOnUse" color-interpolation-filters="sRGB">
<feFlood flood-opacity="0" result="BackgroundImageFix"/>
<feBlend mode="normal" in="SourceGraphic" in2="BackgroundImageFix" result="shape"/>
<feGaussianBlur stdDeviation="2" result="effect1_foregroundBlur"/>
</filter>
<filter id="filter17_f" x="861.001" y="223" width="14" height="14" filterUnits="userSpaceOnUse" color-interpolation-filters="sRGB">
<feFlood flood-opacity="0" result="BackgroundImageFix"/>
<feBlend mode="normal" in="SourceGraphic" in2="BackgroundImageFix" result="shape"/>
<feGaussianBlur stdDeviation="2" result="effect1_foregroundBlur"/>
</filter>
<filter id="filter18_f" x="823.001" y="280" width="11" height="11" filterUnits="userSpaceOnUse" color-interpolation-filters="sRGB">
<feFlood flood-opacity="0" result="BackgroundImageFix"/>
<feBlend mode="normal" in="SourceGraphic" in2="BackgroundImageFix" result="shape"/>
<feGaussianBlur stdDeviation="2" result="effect1_foregroundBlur"/>
</filter>
<filter id="filter19_f" x="813.001" y="271" width="11" height="11" filterUnits="userSpaceOnUse" color-interpolation-filters="sRGB">
<feFlood flood-opacity="0" result="BackgroundImageFix"/>
<feBlend mode="normal" in="SourceGraphic" in2="BackgroundImageFix" result="shape"/>
<feGaussianBlur stdDeviation="2" result="effect1_foregroundBlur"/>
</filter>
<filter id="filter20_i" x="451.372" y="375.469" width="18.5732" height="17.9383" filterUnits="userSpaceOnUse" color-interpolation-filters="sRGB">
<feFlood flood-opacity="0" result="BackgroundImageFix"/>
<feBlend mode="normal" in="SourceGraphic" in2="BackgroundImageFix" result="shape"/>
<feColorMatrix in="SourceAlpha" type="matrix" values="0 0 0 0 0 0 0 0 0 0 0 0 0 0 0 0 0 0 127 0" result="hardAlpha"/>
<feOffset/>
<feGaussianBlur stdDeviation="2"/>
<feComposite in2="hardAlpha" operator="arithmetic" k2="-1" k3="1"/>
<feColorMatrix type="matrix" values="0 0 0 0 1 0 0 0 0 1 0 0 0 0 1 0 0 0 0.55 0"/>
<feBlend mode="normal" in2="shape" result="effect1_innerShadow"/>
</filter>
<filter id="filter21_i" x="459.918" y="357.344" width="33.4411" height="32.298" filterUnits="userSpaceOnUse" color-interpolation-filters="sRGB">
<feFlood flood-opacity="0" result="BackgroundImageFix"/>
<feBlend mode="normal" in="SourceGraphic" in2="BackgroundImageFix" result="shape"/>
<feColorMatrix in="SourceAlpha" type="matrix" values="0 0 0 0 0 0 0 0 0 0 0 0 0 0 0 0 0 0 127 0" result="hardAlpha"/>
<feOffset/>
<feGaussianBlur stdDeviation="2"/>
<feComposite in2="hardAlpha" operator="arithmetic" k2="-1" k3="1"/>
<feColorMatrix type="matrix" values="0 0 0 0 1 0 0 0 0 1 0 0 0 0 1 0 0 0 0.55 0"/>
<feBlend mode="normal" in2="shape" result="effect1_innerShadow"/>
</filter>
<filter id="filter22_i" x="471.904" y="329.084" width="57.4673" height="55.5029" filterUnits="userSpaceOnUse" color-interpolation-filters="sRGB">
<feFlood flood-opacity="0" result="BackgroundImageFix"/>
<feBlend mode="normal" in="SourceGraphic" in2="BackgroundImageFix" result="shape"/>
<feColorMatrix in="SourceAlpha" type="matrix" values="0 0 0 0 0 0 0 0 0 0 0 0 0 0 0 0 0 0 127 0" result="hardAlpha"/>
<feOffset/>
<feGaussianBlur stdDeviation="2"/>
<feComposite in2="hardAlpha" operator="arithmetic" k2="-1" k3="1"/>
<feColorMatrix type="matrix" values="0 0 0 0 1 0 0 0 0 1 0 0 0 0 1 0 0 0 0.55 0"/>
<feBlend mode="normal" in2="shape" result="effect1_innerShadow"/>
</filter>
<radialGradient id="paint0_radial" cx="0" cy="0" r="1" gradientUnits="userSpaceOnUse" gradientTransform="translate(525.001 380.333) rotate(-41.1142) scale(745.672 850.143)">
<stop stop-color="#FFDAC9"/>
<stop offset="0.322917" stop-color="#EA7BA2"/>
<stop offset="0.447917" stop-color="#E56297"/>
<stop offset="0.8125" stop-color="#9A2A7D"/>
<stop offset="1" stop-color="#731677"/>
</radialGradient>
<radialGradient id="paint1_radial" cx="0" cy="0" r="1" gradientUnits="userSpaceOnUse" gradientTransform="translate(645.346 232) rotate(87.6507) scale(67.2979 110.009)">
<stop stop-color="#FFBD3E"/>
<stop offset="0.489583" stop-color="#FF9871"/>
<stop offset="0.692708" stop-color="#FF8150"/>
<stop offset="1" stop-color="#FF8F64"/>
</radialGradient>
<radialGradient id="paint2_radial" cx="0" cy="0" r="1" gradientUnits="userSpaceOnUse" gradientTransform="translate(699.501 93) rotate(68.9433) scale(107.155 175.162)">
<stop stop-color="#FF94B4"/>
<stop offset="0.380208" stop-color="#FF769F"/>
<stop offset="0.692708" stop-color="#FD6161"/>
<stop offset="1" stop-color="#FF7B7B"/>
</radialGradient>
<radialGradient id="paint3_radial" cx="0" cy="0" r="1" gradientUnits="userSpaceOnUse" gradientTransform="translate(928.458 75.6281) rotate(122.595) scale(147.622 241.311)">
<stop stop-color="#E56272"/>
<stop offset="0.380208" stop-color="#D058B9"/>
<stop offset="0.598958" stop-color="#AB4BE7"/>
<stop offset="0.692708" stop-color="#7A29CB"/>
<stop offset="0.8125" stop-color="#924DD1"/>
<stop offset="1" stop-color="#984FCE"/>
</radialGradient>
<linearGradient id="paint4_linear" x1="3.19795" y1="0.684571" x2="3.53447" y2="3.64508" gradientUnits="userSpaceOnUse">
<stop stop-color="#FF7777"/>
<stop offset="0.166667" stop-color="#FF8A8A"/>
<stop offset="0.333333" stop-color="#FFA6A6"/>
<stop offset="0.505208" stop-color="#FE9393"/>
<stop offset="0.848958" stop-color="#EC7777"/>
<stop offset="1" stop-color="#DC5C5C"/>
</linearGradient>
<linearGradient id="paint5_linear" x1="2.34316e-08" y1="0.270826" x2="0.631427" y2="5.19632" gradientUnits="userSpaceOnUse">
<stop stop-color="#F27190"/>
<stop offset="0.432292" stop-color="#BD9AE9"/>
<stop offset="0.635417" stop-color="#8254BE"/>
<stop offset="1" stop-color="#571EA3"/>
</linearGradient>
<linearGradient id="paint6_linear" x1="4.89672" y1="0.684571" x2="5.11811" y2="3.6669" gradientUnits="userSpaceOnUse">
<stop stop-color="#FF7777"/>
<stop offset="0.166667" stop-color="#FF8A8A"/>
<stop offset="0.333333" stop-color="#FFA6A6"/>
<stop offset="0.505208" stop-color="#FE9393"/>
<stop offset="0.848958" stop-color="#EC7777"/>
<stop offset="1" stop-color="#DC5C5C"/>
</linearGradient>
<linearGradient id="paint7_linear" x1="3.58785e-08" y1="0.270826" x2="0.416232" y2="5.24242" gradientUnits="userSpaceOnUse">
<stop stop-color="#F27190"/>
<stop offset="0.432292" stop-color="#BD9AE9"/>
<stop offset="0.635417" stop-color="#8254BE"/>
<stop offset="1" stop-color="#571EA3"/>
</linearGradient>
<linearGradient id="paint8_linear" x1="494.233" y1="377.903" x2="494.466" y2="380.883" gradientUnits="userSpaceOnUse">
<stop stop-color="#FF7777"/>
<stop offset="0.166667" stop-color="#FF8A8A"/>
<stop offset="0.333333" stop-color="#FFA6A6"/>
<stop offset="0.505208" stop-color="#FE9393"/>
<stop offset="0.848958" stop-color="#EC7777"/>
<stop offset="1" stop-color="#DC5C5C"/>
</linearGradient>
<linearGradient id="paint9_linear" x1="489.586" y1="377.489" x2="490.024" y2="382.457" gradientUnits="userSpaceOnUse">
<stop stop-color="#F27190"/>
<stop offset="0.432292" stop-color="#BD9AE9"/>
<stop offset="0.635417" stop-color="#8254BE"/>
<stop offset="1" stop-color="#571EA3"/>
</linearGradient>
<linearGradient id="paint10_linear" x1="452.839" y1="376.936" x2="464.858" y2="393.181" gradientUnits="userSpaceOnUse">
<stop stop-color="#F27190"/>
<stop offset="0.432292" stop-color="#BD9AE9"/>
<stop offset="0.635417" stop-color="#8254BE"/>
<stop offset="1" stop-color="#571EA3"/>
</linearGradient>
<linearGradient id="paint11_linear" x1="467.345" y1="367.325" x2="479.093" y2="383.667" gradientUnits="userSpaceOnUse">
<stop stop-color="#FFD78A"/>
<stop offset="0.166667" stop-color="#FFEBC5"/>
<stop offset="0.333333" stop-color="#FFD88D"/>
<stop offset="0.505208" stop-color="#FFCE6F"/>
<stop offset="0.848958" stop-color="#FFB169"/>
<stop offset="1" stop-color="#FF6767"/>
</linearGradient>
<linearGradient id="paint12_linear" x1="467.345" y1="367.325" x2="479.093" y2="383.667" gradientUnits="userSpaceOnUse">
<stop stop-color="#E4DDED"/>
<stop offset="0.223958" stop-color="#F7F2FC"/>
<stop offset="0.390625" stop-color="#E0D9E9"/>
<stop offset="0.588542" stop-color="#CEC3DB"/>
<stop offset="0.848958" stop-color="#B6AFBF"/>
<stop offset="1" stop-color="#6F6877"/>
</linearGradient>
<linearGradient id="paint13_linear" x1="485.466" y1="344.333" x2="506.783" y2="374.181" gradientUnits="userSpaceOnUse">
<stop stop-color="#FFD78A"/>
<stop offset="0.166667" stop-color="#FFEBC5"/>
<stop offset="0.333333" stop-color="#FFD88D"/>
<stop offset="0.505208" stop-color="#FFCE6F"/>
<stop offset="0.848958" stop-color="#FFB169"/>
<stop offset="1" stop-color="#FF9167"/>
</linearGradient>
<linearGradient id="paint14_linear" x1="485.466" y1="344.333" x2="506.783" y2="374.181" gradientUnits="userSpaceOnUse">
<stop stop-color="#E4DDED"/>
<stop offset="0.223958" stop-color="#F7F2FC"/>
<stop offset="0.390625" stop-color="#E0D9E9"/>
<stop offset="0.588542" stop-color="#CEC3DB"/>
<stop offset="0.848958" stop-color="#B6AFBF"/>
<stop offset="1" stop-color="#6F6877"/>
</linearGradient>
<linearGradient id="paint15_linear" x1="483.345" y1="341.315" x2="504.857" y2="374.318" gradientUnits="userSpaceOnUse">
<stop stop-color="#FF7777"/>
<stop offset="0.166667" stop-color="#FF8A8A"/>
<stop offset="0.333333" stop-color="#FFA6A6"/>
<stop offset="0.505208" stop-color="#FE9393"/>
<stop offset="0.848958" stop-color="#EC7777"/>
<stop offset="1" stop-color="#DC5C5C"/>
</linearGradient>
<linearGradient id="paint16_linear" x1="476.443" y1="333.625" x2="513.63" y2="383.886" gradientUnits="userSpaceOnUse">
<stop stop-color="#F27190"/>
<stop offset="0.432292" stop-color="#BD9AE9"/>
<stop offset="0.635417" stop-color="#8254BE"/>
<stop offset="1" stop-color="#571EA3"/>
</linearGradient>
</defs>
</svg>
