<svg width="1024" height="439" viewBox="0 0 1024 439" fill="none" xmlns="http://www.w3.org/2000/svg">
<g clip-path="url(#clip0)">
<rect width="1024" height="439" fill="black"/>
<path d="M1079.35 -217H-76V362.048H1079.35V-217Z" fill="url(#paint0_linear)"/>
<path d="M1079.35 -217H-76V362.048H1079.35V-217Z" fill="url(#paint1_linear)"/>
<path fill-rule="evenodd" clip-rule="evenodd" d="M1079.35 61.7937L1076.95 66.9904L1070.3 72.3796L1071.84 80.6558L1068.09 87.1036L1061.93 92.589L1058.17 99.0368L1047.58 101.443L1042.77 107.121L1037.95 111.451L1032.27 115.204L1025.25 114.338L1017.45 112.413L1007.24 112.029L1003.2 105.003L995.976 100.769L990.874 94.9949L987.696 87.7772L979.705 83.8316L969.5 85.1789L961.412 85.9488L952.94 89.0283L943.504 90.0869L939.364 97.7857L928.003 97.4008L921.552 102.501L921.167 112.029L911.25 115.301L908.94 123.769L897.579 125.02L892.476 133.297L881.404 133.681L872.739 128.389L861.185 129.351L854.157 124.732L848.284 119.246L840.1 116.84L832.301 117.61L822.77 115.493L815.837 119.439L810.253 124.539L801.492 126.464L796.389 132.045L789.072 135.702L784.835 140.803L785.413 149.175L777.326 152.351L767.987 153.121L759.899 149.464L751.812 147.251L742.472 146.577L736.599 140.803L726.779 141.092L720.617 135.895L711.952 134.451L705.405 129.736L696.836 128.196L691.252 121.845L681.431 122.326L674.21 118.765L667.759 113.761L659.865 110.777L651.103 108.757L644.749 103.464L635.121 102.501L629.44 96.5347L619.716 95.9572L614.421 87.681L603.156 91.0492L594.972 87.7772L586.114 86.2375L578.316 90.3756L569.458 90.5681L561.948 94.1288L552.898 94.8024L544.811 97.3045L538.167 102.116L531.524 107.121L523.34 109.623L514.868 110.393L506.395 110.97L499.559 115.974L490.605 113.472L482.421 116.744L474.815 112.702L467.498 110.296L459.122 108.757L451.227 105.773L441.791 107.024L433.608 104.33L425.616 105.869L417.144 107.121L412.715 113.857L405.205 116.552L396.733 118.476L390.474 122.614L382.098 123.096L372.47 123.384L366.212 116.937L356.006 117.706L348.111 115.878L339.543 114.723L330.877 114.146L323.079 110.874L315.665 108.372L307.096 106.254L305.171 98.5556L298.431 94.4175L289.959 92.3003L282.545 92.4928L274.458 92.3965H264.637L261.075 101.25L248.751 99.3255L243.359 107.505L233.731 109.623L224.2 112.029L215.342 113.28L206.869 108.757L198.589 107.121L190.02 106.447L180.296 108.179L171.246 107.409L164.217 102.309L154.59 102.597L148.909 95.0911L140.533 92.8777L132.83 89.2208L122.047 92.7815L114.248 89.4132L106.161 86.1412L97.0143 88.6434L88.5417 82.5805L80.1654 88.9321L71.3077 85.6601L63.0277 88.4509L54.6513 89.8944L45.6973 89.317L38.2838 93.6476L29.041 93.0702L20.6647 94.7062L11.9995 95.7648L5.06738 100.769L-3.5015 102.213L-10.6262 106.736L-19.1951 108.179L-27.4751 110.104L-35.5626 112.702L-44.1315 113.953L-53.3743 113.761L-60.8841 117.61H-69.9344L-76 122.037V356.659L-71.7637 356.081L-63.3874 359.546L-54.6259 360.219L-45.8645 360.893L-37.3919 363.395L-28.4379 363.203L-19.5802 363.78L-11.1076 366.956L-1.57591 363.395L7.2818 363.588L16.0432 364.742L25.1898 367.63L34.4326 368.592L43.2904 372.153L53.2071 370.035L62.9314 369.458L72.1742 370.805L81.3208 372.826L90.7562 373.115L98.6511 377.157L107.605 376.098L115.307 382.065L124.839 377.446L132.927 381.68L141.881 380.333L149.872 385.722H158.633L167.876 381.391L176.156 385.241L185.206 382.161L193.486 385.818L201.959 387.646L210.913 385.914L219.578 386.877L227.666 390.534L237.197 389.282L246.44 389.667L255.49 392.458L264.926 390.534L274.265 390.052L283.219 393.805L292.751 390.726L301.801 393.132L310.851 395.73L319.805 393.805L328.47 394.383L336.654 398.425L345.512 397.655L354.37 397.27L362.746 400.061L371.507 400.831L380.172 401.504L389.03 400.542L397.695 401.793L406.553 402.563L415.411 401.312L424.269 397.751L433.126 397.847H441.984L450.842 398.329H459.699L468.557 398.81L477.415 402.852L486.273 401.985L495.227 403.14L504.084 397.462L512.942 399.676L521.8 402.563L530.657 401.601L539.515 400.157L548.373 400.542L557.231 397.27L566.088 401.408L574.946 400.446L583.9 400.542L592.758 399.195L601.519 396.885L610.473 400.734L619.427 402.082L628.189 397.174L637.046 398.906L646 401.985L654.858 401.216L663.523 395.923L672.381 396.404L681.142 398.04L690 400.061L698.569 395.345L707.427 398.521L716.188 398.714L724.95 397.847L733.615 396.693L742.28 395.345L751.33 399.483L759.995 398.232L768.66 396.404L777.518 397.655L785.894 391.977L794.945 397.078L803.61 394.19L812.468 396.115L821.037 393.805L829.605 389.956L838.463 391.592L847.225 391.881L856.179 394.383L864.651 390.726L873.413 391.015L882.367 392.939L891.128 393.613L899.697 390.534L908.266 386.877L917.027 387.358L925.789 386.877L934.454 385.914L943.215 386.107L952.266 390.726L961.027 387.935L970.077 390.534L978.839 387.55L987.696 387.069L996.747 388.416L1005.7 389.475L1014.37 385.626H1023.32L1032.27 387.069L1041.04 383.605L1050.18 387.743L1058.94 384.182L1067.7 381.006L1076.76 384.663L1079.35 384.278V61.7937Z" fill="url(#paint2_linear)"/>
<path fill-rule="evenodd" clip-rule="evenodd" d="M1079.35 61.7937L1076.95 66.9904L1070.3 72.3796L1071.84 80.6558L1068.09 87.1036L1061.93 92.589L1058.17 99.0368L1047.58 101.443L1042.77 107.121L1037.95 111.451L1032.27 115.204L1025.25 114.338L1017.45 112.413L1007.24 112.029L1003.2 105.003L995.976 100.769L990.874 94.9949L987.696 87.7772L979.705 83.8316L969.5 85.1789L961.412 85.9488L952.94 89.0283L943.504 90.0869L939.364 97.7857L928.003 97.4008L921.552 102.501L921.167 112.029L911.25 115.301L908.94 123.769L897.579 125.02L892.476 133.297L881.404 133.681L872.739 128.389L861.185 129.351L854.157 124.732L848.284 119.246L840.1 116.84L832.301 117.61L822.77 115.493L815.837 119.439L810.253 124.539L801.492 126.464L796.389 132.045L789.072 135.702L784.835 140.803L785.413 149.175L777.326 152.351L767.987 153.121L759.899 149.464L751.812 147.251L742.472 146.577L736.599 140.803L726.779 141.092L720.617 135.895L711.952 134.451L705.405 129.736L696.836 128.196L691.252 121.845L681.431 122.326L674.21 118.765L667.759 113.761L659.865 110.777L651.103 108.757L644.749 103.464L635.121 102.501L629.44 96.5347L619.716 95.9572L614.421 87.681L603.156 91.0492L594.972 87.7772L586.114 86.2375L578.316 90.3756L569.458 90.5681L561.948 94.1288L552.898 94.8024L544.811 97.3045L538.167 102.116L531.524 107.121L523.34 109.623L514.868 110.393L506.395 110.97L499.559 115.974L490.605 113.472L482.421 116.744L474.815 112.702L467.498 110.296L459.122 108.757L451.227 105.773L441.791 107.024L433.608 104.33L425.616 105.869L417.144 107.121L412.715 113.857L405.205 116.552L396.733 118.476L390.474 122.614L382.098 123.096L372.47 123.384L366.212 116.937L356.006 117.706L348.111 115.878L339.543 114.723L330.877 114.146L323.079 110.874L315.665 108.372L307.096 106.254L305.171 98.5556L298.431 94.4175L289.959 92.3003L282.545 92.4928L274.458 92.3965H264.637L261.075 101.25L248.751 99.3255L243.359 107.505L233.731 109.623L224.2 112.029L215.342 113.28L206.869 108.757L198.589 107.121L190.02 106.447L180.296 108.179L171.246 107.409L164.217 102.309L154.59 102.597L148.909 95.0911L140.533 92.8777L132.83 89.2208L122.047 92.7815L114.248 89.4132L106.161 86.1412L97.0143 88.6434L88.5417 82.5805L80.1654 88.9321L71.3077 85.6601L63.0277 88.4509L54.6513 89.8944L45.6973 89.317L38.2838 93.6476L29.041 93.0702L20.6647 94.7062L11.9995 95.7648L5.06738 100.769L-3.5015 102.213L-10.6262 106.736L-19.1951 108.179L-27.4751 110.104L-35.5626 112.702L-44.1315 113.953L-53.3743 113.761L-60.8841 117.61H-69.9344L-76 122.037V356.659L-71.7637 356.081L-63.3874 359.546L-54.6259 360.219L-45.8645 360.893L-37.3919 363.395L-28.4379 363.203L-19.5802 363.78L-11.1076 366.956L-1.57591 363.395L7.2818 363.588L16.0432 364.742L25.1898 367.63L34.4326 368.592L43.2904 372.153L53.2071 370.035L62.9314 369.458L72.1742 370.805L81.3208 372.826L90.7562 373.115L98.6511 377.157L107.605 376.098L115.307 382.065L124.839 377.446L132.927 381.68L141.881 380.333L149.872 385.722H158.633L167.876 381.391L176.156 385.241L185.206 382.161L193.486 385.818L201.959 387.646L210.913 385.914L219.578 386.877L227.666 390.534L237.197 389.282L246.44 389.667L255.49 392.458L264.926 390.534L274.265 390.052L283.219 393.805L292.751 390.726L301.801 393.132L310.851 395.73L319.805 393.805L328.47 394.383L336.654 398.425L345.512 397.655L354.37 397.27L362.746 400.061L371.507 400.831L380.172 401.504L389.03 400.542L397.695 401.793L406.553 402.563L415.411 401.312L424.269 397.751L433.126 397.847H441.984L450.842 398.329H459.699L468.557 398.81L477.415 402.852L486.273 401.985L495.227 403.14L504.084 397.462L512.942 399.676L521.8 402.563L530.657 401.601L539.515 400.157L548.373 400.542L557.231 397.27L566.088 401.408L574.946 400.446L583.9 400.542L592.758 399.195L601.519 396.885L610.473 400.734L619.427 402.082L628.189 397.174L637.046 398.906L646 401.985L654.858 401.216L663.523 395.923L672.381 396.404L681.142 398.04L690 400.061L698.569 395.345L707.427 398.521L716.188 398.714L724.95 397.847L733.615 396.693L742.28 395.345L751.33 399.483L759.995 398.232L768.66 396.404L777.518 397.655L785.894 391.977L794.945 397.078L803.61 394.19L812.468 396.115L821.037 393.805L829.605 389.956L838.463 391.592L847.225 391.881L856.179 394.383L864.651 390.726L873.413 391.015L882.367 392.939L891.128 393.613L899.697 390.534L908.266 386.877L917.027 387.358L925.789 386.877L934.454 385.914L943.215 386.107L952.266 390.726L961.027 387.935L970.077 390.534L978.839 387.55L987.696 387.069L996.747 388.416L1005.7 389.475L1014.37 385.626H1023.32L1032.27 387.069L1041.04 383.605L1050.18 387.743L1058.94 384.182L1067.7 381.006L1076.76 384.663L1079.35 384.278V61.7937Z" fill="url(#paint3_linear)"/>
<path fill-rule="evenodd" clip-rule="evenodd" d="M1079.35 61.7937L1076.95 66.9904L1070.3 72.3796L1071.84 80.6558L1068.09 87.1036L1061.93 92.589L1058.17 99.0368L1047.58 101.443L1042.77 107.121L1037.95 111.451L1032.27 115.204L1025.25 114.338L1017.45 112.413L1007.24 112.029L1003.2 105.003L995.976 100.769L990.874 94.9949L987.696 87.7772L979.705 83.8316L969.5 85.1789L961.412 85.9488L952.94 89.0283L943.504 90.0869L939.364 97.7857L928.003 97.4008L921.552 102.501L921.167 112.029L911.25 115.301L908.94 123.769L897.579 125.02L892.476 133.297L881.404 133.681L872.739 128.389L861.185 129.351L854.157 124.732L848.284 119.246L840.1 116.84L832.301 117.61L822.77 115.493L815.837 119.439L810.253 124.539L801.492 126.464L796.389 132.045L789.072 135.702L784.835 140.803L785.413 149.175L777.326 152.351L767.987 153.121L759.899 149.464L751.812 147.251L742.472 146.577L736.599 140.803L726.779 141.092L720.617 135.895L711.952 134.451L705.405 129.736L696.836 128.196L691.252 121.845L681.431 122.326L674.21 118.765L667.759 113.761L659.865 110.777L651.103 108.757L644.749 103.464L635.121 102.501L629.44 96.5347L619.716 95.9572L614.421 87.681L603.156 91.0492L594.972 87.7772L586.114 86.2375L578.316 90.3756L569.458 90.5681L561.948 94.1288L552.898 94.8024L544.811 97.3045L538.167 102.116L531.524 107.121L523.34 109.623L514.868 110.393L506.395 110.97L499.559 115.974L490.605 113.472L482.421 116.744L474.815 112.702L467.498 110.296L459.122 108.757L451.227 105.773L441.791 107.024L433.608 104.33L425.616 105.869L417.144 107.121L412.715 113.857L405.205 116.552L396.733 118.476L390.474 122.614L382.098 123.096L372.47 123.384L366.212 116.937L356.006 117.706L348.111 115.878L339.543 114.723L330.877 114.146L323.079 110.874L315.665 108.372L307.096 106.254L305.171 98.5556L298.431 94.4175L289.959 92.3003L282.545 92.4928L274.458 92.3965H264.637L261.075 101.25L248.751 99.3255L243.359 107.505L233.731 109.623L224.2 112.029L215.342 113.28L206.869 108.757L198.589 107.121L190.02 106.447L180.296 108.179L171.246 107.409L164.217 102.309L154.59 102.597L148.909 95.0911L140.533 92.8777L132.83 89.2208L122.047 92.7815L114.248 89.4132L106.161 86.1412L97.0143 88.6434L88.5417 82.5805L80.1654 88.9321L71.3077 85.6601L63.0277 88.4509L54.6513 89.8944L45.6973 89.317L38.2838 93.6476L29.041 93.0702L20.6647 94.7062L11.9995 95.7648L5.06738 100.769L-3.5015 102.213L-10.6262 106.736L-19.1951 108.179L-27.4751 110.104L-35.5626 112.702L-44.1315 113.953L-53.3743 113.761L-60.8841 117.61H-69.9344L-76 122.037V356.659L-71.7637 356.081L-63.3874 359.546L-54.6259 360.219L-45.8645 360.893L-37.3919 363.395L-28.4379 363.203L-19.5802 363.78L-11.1076 366.956L-1.57591 363.395L7.2818 363.588L16.0432 364.742L25.1898 367.63L34.4326 368.592L43.2904 372.153L53.2071 370.035L62.9314 369.458L72.1742 370.805L81.3208 372.826L90.7562 373.115L98.6511 377.157L107.605 376.098L115.307 382.065L124.839 377.446L132.927 381.68L141.881 380.333L149.872 385.722H158.633L167.876 381.391L176.156 385.241L185.206 382.161L193.486 385.818L201.959 387.646L210.913 385.914L219.578 386.877L227.666 390.534L237.197 389.282L246.44 389.667L255.49 392.458L264.926 390.534L274.265 390.052L283.219 393.805L292.751 390.726L301.801 393.132L310.851 395.73L319.805 393.805L328.47 394.383L336.654 398.425L345.512 397.655L354.37 397.27L362.746 400.061L371.507 400.831L380.172 401.504L389.03 400.542L397.695 401.793L406.553 402.563L415.411 401.312L424.269 397.751L433.126 397.847H441.984L450.842 398.329H459.699L468.557 398.81L477.415 402.852L486.273 401.985L495.227 403.14L504.084 397.462L512.942 399.676L521.8 402.563L530.657 401.601L539.515 400.157L548.373 400.542L557.231 397.27L566.088 401.408L574.946 400.446L583.9 400.542L592.758 399.195L601.519 396.885L610.473 400.734L619.427 402.082L628.189 397.174L637.046 398.906L646 401.985L654.858 401.216L663.523 395.923L672.381 396.404L681.142 398.04L690 400.061L698.569 395.345L707.427 398.521L716.188 398.714L724.95 397.847L733.615 396.693L742.28 395.345L751.33 399.483L759.995 398.232L768.66 396.404L777.518 397.655L785.894 391.977L794.945 397.078L803.61 394.19L812.468 396.115L821.037 393.805L829.605 389.956L838.463 391.592L847.225 391.881L856.179 394.383L864.651 390.726L873.413 391.015L882.367 392.939L891.128 393.613L899.697 390.534L908.266 386.877L917.027 387.358L925.789 386.877L934.454 385.914L943.215 386.107L952.266 390.726L961.027 387.935L970.077 390.534L978.839 387.55L987.696 387.069L996.747 388.416L1005.7 389.475L1014.37 385.626H1023.32L1032.27 387.069L1041.04 383.605L1050.18 387.743L1058.94 384.182L1067.7 381.006L1076.76 384.663L1079.35 384.278V61.7937Z" fill="url(#paint4_linear)"/>
<path fill-rule="evenodd" clip-rule="evenodd" d="M1079.35 153.506L1078.1 153.795L1070.98 151.004L1063.85 149.079L1055.77 150.33L1047.87 150.523L1040.75 148.791L1033.72 145.807H1025.82L1017.83 146.481L1010.8 149.849L1002.62 148.502L994.917 149.175L988.659 152.544L979.609 150.042L972.581 151.966L965.36 154.18L957.465 151.004L949.666 153.987H941.964L935.609 149.849L927.233 151.87L919.819 149.175L912.213 151.004L905.666 153.217L899.504 155.335L889.876 155.046L885.448 159.473L877.071 160.435L871.776 164.092L865.229 166.979H856.082L847.899 164.958L839.715 165.824L830.857 166.017L823.251 164.284L818.918 159.473L812.371 156.971L803.802 156.104L797.063 153.699L788.494 152.544L782.14 149.753L775.496 146.673L766.542 147.058L758.166 145.903L748.827 146.481L743.532 150.619L737.466 153.602L729.956 155.816L722.35 157.933L716.284 160.627L709.93 163.418L701.746 163.803L692.407 164.573L686.63 160.724L680.854 157.644L671.996 156.778L666.797 153.314L658.132 152.929L652.066 148.502L643.401 149.945L637.528 153.314L628.766 154.083L628.67 159.088L621.353 161.494L617.405 165.054L615.287 169L614.902 173.331L604.6 175.255L606.237 180.356L602.001 183.916L593.143 185.167L587.462 187.67L580.434 188.921L572.732 192.096L565.703 188.728L557.327 189.017L552.898 184.301L545.87 182.858L538.841 181.222L529.502 181.607L525.747 177.18L517.178 176.699L511.787 173.715L506.395 170.636L500.426 168.134L491.664 167.653L484.251 166.209L480.014 162.263L472.89 160.531L466.343 158.414L457.774 158.51L451.804 155.142L443.717 155.046L436.977 152.447L429.468 151.196L422.054 149.657H413.967L405.59 151.389L398.177 149.464L389.993 151.293L382.772 148.021L374.685 149.368L367.175 147.347L359.184 148.887L351.289 150.138L343.683 146.096L335.788 148.309L328.085 145.807L320.19 148.887L312.392 149.079L304.689 145.903L296.794 148.887L289.092 145.807L281.197 147.636L273.302 148.694L265.792 145.903L257.994 145.615L249.714 148.791L242.011 147.924L234.116 147.732L226.221 147.347L219.867 144.171L214.379 140.707L204.847 142.728L198.397 140.707L192.042 138.205L184.244 138.782L176.252 136.472L168.357 138.878L160.463 139.552L153.338 141.765L145.347 142.343L137.259 142.92H128.787L122.143 146.288L112.804 143.401L105.487 146.962L97.7846 145.134L90.4673 143.883L81.5133 146.192L75.6403 141.862H67.6491L59.5616 141.958L52.9183 139.071L45.0234 139.263L37.321 141.38L29.3298 140.033L21.2423 139.841L12.9623 139.456L6.12645 143.498L-2.24987 142.728L-9.66339 144.845L-18.0397 144.364L-26.5123 143.209L-34.0221 145.519L-41.917 146.673L-50.1008 144.364L-58.1883 145.326L-65.8906 143.883L-73.3042 142.054L-76 142.631V405.931L-70.8972 404.103L-63.8688 407.76L-56.359 409.684L-47.6938 406.797L-40.2803 409.107L-31.904 407.76L-24.5867 410.551L-16.6918 411.32L-8.7006 411.224L-0.998235 412.571L7.18553 411.128L14.7916 413.438L22.9754 412.187L30.6777 413.726L39.0541 410.935L46.7564 412.764L54.8439 411.898L62.5463 413.245H70.5375L78.6249 411.705L86.3273 414.015L94.126 414.977L101.925 416.325L110.012 415.747L117.811 416.806L125.994 413.63L133.889 414.785L141.688 415.747L149.872 413.534L157.478 417.095L165.373 417.383L173.557 414.592L181.548 414.496L189.25 416.325L196.953 418.442L205.233 415.17L213.031 417.287L221.022 415.747L228.821 416.228L236.716 417.191L244.707 415.459L252.602 415.651L260.112 419.982L268.103 419.212L276.094 418.153L283.989 417.672L291.98 416.517L299.683 418.346L307.481 421.04L315.473 419.404L323.368 418.923L331.166 420.174L339.061 419.982L347.149 417.383L354.947 418.923L362.65 421.714L370.641 419.789L378.439 421.714L386.431 419.693L394.229 421.136L402.124 422.003L410.115 420.078L417.914 421.81L425.905 419.212L433.704 421.81L441.599 421.04L449.494 419.5L457.485 418.538L465.284 421.521L473.179 418.923L481.073 421.136L488.872 421.329L496.767 422.965L504.758 420.174L512.653 419.5L520.452 421.521L528.347 422.387L536.242 422.676L544.137 421.714L552.032 420.367L559.926 422.291L567.821 419.019L575.716 423.157L583.611 421.425L591.506 419.597L599.305 421.618L607.2 420.174L615.095 421.81L622.989 419.693L630.884 420.367L638.779 421.136L646.674 422.291L654.569 419.308L662.464 420.655L670.359 421.714L678.254 422.099L686.149 420.655L694.044 422.965L701.939 422.772L709.737 420.463L717.632 419.597L725.527 419.115L733.422 419.693L741.317 418.731L749.212 421.233L757.107 420.078L765.002 419.308L772.897 422.099L780.792 421.906L788.59 418.923L796.581 422.772L804.476 420.944L812.275 418.731L820.17 421.04H828.065L835.96 419.693L843.855 418.346L851.75 418.731L859.645 422.003L867.54 419.885L875.434 420.367L883.329 418.731L891.224 421.618L899.119 419.982L907.014 422.291L914.813 418.346L922.708 418.923L930.603 418.538L938.498 418.923L946.393 421.233L954.287 418.442L962.182 421.329L970.077 419.885L977.972 418.827L985.867 421.136L993.762 421.714L1001.66 420.751L1009.55 420.944L1017.35 418.634L1025.34 419.789L1033.14 420.559L1041.04 419.212L1048.93 421.425L1056.83 420.944L1064.72 421.906L1072.61 418.249L1079.35 419.5V153.506Z" fill="url(#paint5_linear)"/>
<path fill-rule="evenodd" clip-rule="evenodd" d="M1079.35 153.506L1078.1 153.795L1070.98 151.004L1063.85 149.079L1055.77 150.33L1047.87 150.523L1040.75 148.791L1033.72 145.807H1025.82L1017.83 146.481L1010.8 149.849L1002.62 148.502L994.917 149.175L988.659 152.544L979.609 150.042L972.581 151.966L965.36 154.18L957.465 151.004L949.666 153.987H941.964L935.609 149.849L927.233 151.87L919.819 149.175L912.213 151.004L905.666 153.217L899.504 155.335L889.876 155.046L885.448 159.473L877.071 160.435L871.776 164.092L865.229 166.979H856.082L847.899 164.958L839.715 165.824L830.857 166.017L823.251 164.284L818.918 159.473L812.371 156.971L803.802 156.104L797.063 153.699L788.494 152.544L782.14 149.753L775.496 146.673L766.542 147.058L758.166 145.903L748.827 146.481L743.532 150.619L737.466 153.602L729.956 155.816L722.35 157.933L716.284 160.627L709.93 163.418L701.746 163.803L692.407 164.573L686.63 160.724L680.854 157.644L671.996 156.778L666.797 153.314L658.132 152.929L652.066 148.502L643.401 149.945L637.528 153.314L628.766 154.083L628.67 159.088L621.353 161.494L617.405 165.054L615.287 169L614.902 173.331L604.6 175.255L606.237 180.356L602.001 183.916L593.143 185.167L587.462 187.67L580.434 188.921L572.732 192.096L565.703 188.728L557.327 189.017L552.898 184.301L545.87 182.858L538.841 181.222L529.502 181.607L525.747 177.18L517.178 176.699L511.787 173.715L506.395 170.636L500.426 168.134L491.664 167.653L484.251 166.209L480.014 162.263L472.89 160.531L466.343 158.414L457.774 158.51L451.804 155.142L443.717 155.046L436.977 152.447L429.468 151.196L422.054 149.657H413.967L405.59 151.389L398.177 149.464L389.993 151.293L382.772 148.021L374.685 149.368L367.175 147.347L359.184 148.887L351.289 150.138L343.683 146.096L335.788 148.309L328.085 145.807L320.19 148.887L312.392 149.079L304.689 145.903L296.794 148.887L289.092 145.807L281.197 147.636L273.302 148.694L265.792 145.903L257.994 145.615L249.714 148.791L242.011 147.924L234.116 147.732L226.221 147.347L219.867 144.171L214.379 140.707L204.847 142.728L198.397 140.707L192.042 138.205L184.244 138.782L176.252 136.472L168.357 138.878L160.463 139.552L153.338 141.765L145.347 142.343L137.259 142.92H128.787L122.143 146.288L112.804 143.401L105.487 146.962L97.7846 145.134L90.4673 143.883L81.5133 146.192L75.6403 141.862H67.6491L59.5616 141.958L52.9183 139.071L45.0234 139.263L37.321 141.38L29.3298 140.033L21.2423 139.841L12.9623 139.456L6.12645 143.498L-2.24987 142.728L-9.66339 144.845L-18.0397 144.364L-26.5123 143.209L-34.0221 145.519L-41.917 146.673L-50.1008 144.364L-58.1883 145.326L-65.8906 143.883L-73.3042 142.054L-76 142.631V405.931L-70.8972 404.103L-63.8688 407.76L-56.359 409.684L-47.6938 406.797L-40.2803 409.107L-31.904 407.76L-24.5867 410.551L-16.6918 411.32L-8.7006 411.224L-0.998235 412.571L7.18553 411.128L14.7916 413.438L22.9754 412.187L30.6777 413.726L39.0541 410.935L46.7564 412.764L54.8439 411.898L62.5463 413.245H70.5375L78.6249 411.705L86.3273 414.015L94.126 414.977L101.925 416.325L110.012 415.747L117.811 416.806L125.994 413.63L133.889 414.785L141.688 415.747L149.872 413.534L157.478 417.095L165.373 417.383L173.557 414.592L181.548 414.496L189.25 416.325L196.953 418.442L205.233 415.17L213.031 417.287L221.022 415.747L228.821 416.228L236.716 417.191L244.707 415.459L252.602 415.651L260.112 419.982L268.103 419.212L276.094 418.153L283.989 417.672L291.98 416.517L299.683 418.346L307.481 421.04L315.473 419.404L323.368 418.923L331.166 420.174L339.061 419.982L347.149 417.383L354.947 418.923L362.65 421.714L370.641 419.789L378.439 421.714L386.431 419.693L394.229 421.136L402.124 422.003L410.115 420.078L417.914 421.81L425.905 419.212L433.704 421.81L441.599 421.04L449.494 419.5L457.485 418.538L465.284 421.521L473.179 418.923L481.073 421.136L488.872 421.329L496.767 422.965L504.758 420.174L512.653 419.5L520.452 421.521L528.347 422.387L536.242 422.676L544.137 421.714L552.032 420.367L559.926 422.291L567.821 419.019L575.716 423.157L583.611 421.425L591.506 419.597L599.305 421.618L607.2 420.174L615.095 421.81L622.989 419.693L630.884 420.367L638.779 421.136L646.674 422.291L654.569 419.308L662.464 420.655L670.359 421.714L678.254 422.099L686.149 420.655L694.044 422.965L701.939 422.772L709.737 420.463L717.632 419.597L725.527 419.115L733.422 419.693L741.317 418.731L749.212 421.233L757.107 420.078L765.002 419.308L772.897 422.099L780.792 421.906L788.59 418.923L796.581 422.772L804.476 420.944L812.275 418.731L820.17 421.04H828.065L835.96 419.693L843.855 418.346L851.75 418.731L859.645 422.003L867.54 419.885L875.434 420.367L883.329 418.731L891.224 421.618L899.119 419.982L907.014 422.291L914.813 418.346L922.708 418.923L930.603 418.538L938.498 418.923L946.393 421.233L954.287 418.442L962.182 421.329L970.077 419.885L977.972 418.827L985.867 421.136L993.762 421.714L1001.66 420.751L1009.55 420.944L1017.35 418.634L1025.34 419.789L1033.14 420.559L1041.04 419.212L1048.93 421.425L1056.83 420.944L1064.72 421.906L1072.61 418.249L1079.35 419.5V153.506Z" fill="url(#paint6_linear)"/>
<path fill-rule="evenodd" clip-rule="evenodd" d="M1079.35 180.74L1072.04 180.067L1064.05 179.393L1060.1 181.607L1053.07 180.644L1048.06 185.456L1041.71 183.82L1033.33 184.782L1024.96 181.703L1016.77 183.435L1008.69 185.552L1000.41 186.803L993.281 182.569L986.445 178.431L977.587 177.372L971.136 183.724L965.456 190.46L959.487 188.535L953.71 186.418L948.992 179.297L940.808 176.025L934.358 170.828L928.773 164.669L925.307 158.125L918.471 154.853L912.117 152.736L904.029 151.389L896.038 153.41L890.454 150.523L884.388 151.677L876.782 151.485L870.332 154.949L865.133 160.242L858.489 163.322L850.979 164.573L843.47 164.38L836.826 161.397L829.605 164.092L821.71 165.824L816.319 169.673L810.157 172.464L803.225 173.811L796.293 172.945L788.783 172.464L781.562 171.309L774.822 166.498L766.927 166.786L758.84 171.117L749.597 168.807L742.569 163.418L739.391 155.815L735.059 149.175L726.394 146.096L720.617 140.899L718.595 136.568H713.011L707.619 131.275L708.004 124.058L705.79 117.706L700.88 113.761L697.125 116.744L691.541 117.995L683.068 118.765L674.403 117.418L665.738 119.727L660.057 125.983L654.088 130.794L652.74 138.878L646.193 143.305L638.298 145.615L632.521 148.887L627.13 153.121L621.16 156.393L611.436 161.878H603.348L594.202 161.782L588.618 168.519L581.878 173.042L574.561 176.025L570.517 182.665L567.725 187.766L563.392 192.385L556.653 193.925L550.298 193.732L544.137 196.619L541.152 202.297L533.738 203.452L530.369 207.205L524.592 210.766L518.334 214.038L512.461 217.31L506.78 220.486L501.1 225.49L494.167 221.159L487.813 217.983L479.437 216.251L474.045 211.055L467.113 210.381L460.181 211.536L452.96 210.766L447.761 206.05L441.695 201.72L438.036 195.946L429.66 197.582L423.113 195.657L414.737 198.448L407.805 204.799L400.006 203.452L394.711 201.335L390.186 196.715L383.157 192.866L378.439 186.515L374.781 179.104L370.159 172.272L365.345 166.594L357.065 162.359L354.755 154.468L346.378 151.966L341.468 146.384L333.862 145.999L328.759 140.61L323.753 135.51L317.302 129.736L307.481 129.158L299.875 126.079L299.105 117.899L291.114 115.974L283.797 116.263L275.998 117.129L267.622 114.049L260.401 112.895L249.714 114.242L243.456 114.627L235.849 114.819L230.073 118.284L222.467 120.208L214.572 117.706L203.981 121.075L193.775 120.786L186.362 119.342L180.874 124.635L175.001 128.581L168.935 132.527L161.907 136.087L157.574 141.861L154.493 148.405L148.524 152.832L146.213 159.954L139.762 163.803L135.045 170.347L128.016 174.966L124.839 182.569L116.27 185.648L111.456 189.787L106.546 193.925L100.384 196.427L95.6664 201.239L88.1566 201.816L80.5505 201.912L74.6775 197.293L64.9533 195.561L55.6141 190.653L48.2969 190.075L40.9796 194.791L34.3364 198.64L26.9228 201.431L19.413 203.837L14.7916 210.766L6.70413 212.498L1.11992 217.695L-6.29361 218.657L-10.7225 223.373L-17.0769 223.854L-25.2607 223.661L-34.2147 225.682L-41.1468 228.473L-48.1752 225.201L-55.0111 223.854L-62.232 225.586L-69.3567 224.816L-76 223.084V489.271L-72.8228 490.233L-65.2167 490.811L-57.7069 492.447L-49.9082 490.714L-42.4947 493.216L-34.7924 493.024L-26.8974 491.677L-19.4839 493.698L-11.8778 494.564L-4.07918 493.12L3.33434 495.718L10.8442 497.162L18.6428 495.622L25.96 499.568L33.855 497.451L41.461 497.836L48.8746 500.819L56.2881 502.647L64.0867 499.76L71.3077 503.514L79.0101 501.493L86.4236 503.706L93.9334 503.225L101.443 503.417L109.049 502.84L116.367 504.861L123.973 505.053L131.29 507.459L138.896 506.882L146.309 507.267L153.723 510.154L161.329 508.037L168.743 511.116L176.349 509.576L183.762 511.212L191.368 508.806L198.782 510.346L206.292 510.924L213.801 512.56L221.311 512.175L228.821 510.442L236.331 510.346L243.937 509.576L251.35 511.02L258.86 513.715L266.37 511.982L273.88 510.731L281.39 513.522L288.899 513.041L296.409 511.886L303.823 510.635L311.429 512.752L318.939 514.099L326.448 511.886L334.055 509.961L341.661 513.426L349.267 514.388L356.777 511.405L364.383 510.154L371.989 510.635L379.595 512.367L387.105 511.405H394.711L402.413 513.618L409.827 509.288L417.529 512.752L425.135 513.137L432.645 511.405L440.251 510.058L447.857 512.752L455.367 510.154L462.973 511.886L470.579 509.384L478.185 512.079L485.791 512.945L493.301 509.961L500.907 512.079L508.513 510.25L516.119 510.827L523.629 508.806L531.331 511.982L538.745 508.037L546.351 507.748L553.957 507.652L561.659 512.271L569.169 509.288L576.775 509.48L584.381 511.886L591.987 511.116L599.497 510.154L607.103 511.694L614.613 508.325L622.219 507.171L629.825 509.191L637.431 510.25L645.038 509.095L652.644 510.346L660.153 510.442L667.759 508.518L675.366 507.267L682.972 511.886L690.481 508.71L698.088 507.748H705.694L713.3 511.02L720.906 507.94L728.416 512.463L736.022 508.133L743.724 511.79L751.33 508.903L759.033 510.058L766.639 509.288L774.341 511.116L781.947 510.058L789.649 512.848L797.255 512.752L804.958 512.367L812.564 509.095L820.266 511.886L827.872 509.673L835.478 508.999L843.181 508.903L850.883 512.079L858.489 510.346L866.095 508.614L873.701 508.71L881.404 511.02L889.106 511.694L896.712 510.635L904.415 511.694L912.021 507.652L919.723 509.191L927.329 507.748L934.935 509.384L942.638 511.982L950.244 507.363L957.946 509.769L965.648 511.597L973.255 510.539L980.957 510.924L988.563 512.271L996.169 510.827L1003.87 511.886L1011.48 512.463L1019.18 508.229L1026.79 512.367L1034.49 512.079L1042.09 512.945L1049.8 509.769L1057.5 509.673L1065.11 511.405L1072.71 512.752L1079.35 513.426V180.74Z" fill="url(#paint7_linear)"/>
<path fill-rule="evenodd" clip-rule="evenodd" d="M1079.35 180.74L1072.04 180.067L1064.05 179.393L1060.1 181.607L1053.07 180.644L1048.06 185.456L1041.71 183.82L1033.33 184.782L1024.96 181.703L1016.77 183.435L1008.69 185.552L1000.41 186.803L993.281 182.569L986.445 178.431L977.587 177.372L971.136 183.724L965.456 190.46L959.487 188.535L953.71 186.418L948.992 179.297L940.808 176.025L934.358 170.828L928.773 164.669L925.307 158.125L918.471 154.853L912.117 152.736L904.029 151.389L896.038 153.41L890.454 150.523L884.388 151.677L876.782 151.485L870.332 154.949L865.133 160.242L858.489 163.322L850.979 164.573L843.47 164.38L836.826 161.397L829.605 164.092L821.71 165.824L816.319 169.673L810.157 172.464L803.225 173.811L796.293 172.945L788.783 172.464L781.562 171.309L774.822 166.498L766.927 166.786L758.84 171.117L749.597 168.807L742.569 163.418L739.391 155.815L735.059 149.175L726.394 146.096L720.617 140.899L718.595 136.568H713.011L707.619 131.275L708.004 124.058L705.79 117.706L700.88 113.761L697.125 116.744L691.541 117.995L683.068 118.765L674.403 117.418L665.738 119.727L660.057 125.983L654.088 130.794L652.74 138.878L646.193 143.305L638.298 145.615L632.521 148.887L627.13 153.121L621.16 156.393L611.436 161.878H603.348L594.202 161.782L588.618 168.519L581.878 173.042L574.561 176.025L570.517 182.665L567.725 187.766L563.392 192.385L556.653 193.925L550.298 193.732L544.137 196.619L541.152 202.297L533.738 203.452L530.369 207.205L524.592 210.766L518.334 214.038L512.461 217.31L506.78 220.486L501.1 225.49L494.167 221.159L487.813 217.983L479.437 216.251L474.045 211.055L467.113 210.381L460.181 211.536L452.96 210.766L447.761 206.05L441.695 201.72L438.036 195.946L429.66 197.582L423.113 195.657L414.737 198.448L407.805 204.799L400.006 203.452L394.711 201.335L390.186 196.715L383.157 192.866L378.439 186.515L374.781 179.104L370.159 172.272L365.345 166.594L357.065 162.359L354.755 154.468L346.378 151.966L341.468 146.384L333.862 145.999L328.759 140.61L323.753 135.51L317.302 129.736L307.481 129.158L299.875 126.079L299.105 117.899L291.114 115.974L283.797 116.263L275.998 117.129L267.622 114.049L260.401 112.895L249.714 114.242L243.456 114.627L235.849 114.819L230.073 118.284L222.467 120.208L214.572 117.706L203.981 121.075L193.775 120.786L186.362 119.342L180.874 124.635L175.001 128.581L168.935 132.527L161.907 136.087L157.574 141.861L154.493 148.405L148.524 152.832L146.213 159.954L139.762 163.803L135.045 170.347L128.016 174.966L124.839 182.569L116.27 185.648L111.456 189.787L106.546 193.925L100.384 196.427L95.6664 201.239L88.1566 201.816L80.5505 201.912L74.6775 197.293L64.9533 195.561L55.6141 190.653L48.2969 190.075L40.9796 194.791L34.3364 198.64L26.9228 201.431L19.413 203.837L14.7916 210.766L6.70413 212.498L1.11992 217.695L-6.29361 218.657L-10.7225 223.373L-17.0769 223.854L-25.2607 223.661L-34.2147 225.682L-41.1468 228.473L-48.1752 225.201L-55.0111 223.854L-62.232 225.586L-69.3567 224.816L-76 223.084V489.271L-72.8228 490.233L-65.2167 490.811L-57.7069 492.447L-49.9082 490.714L-42.4947 493.216L-34.7924 493.024L-26.8974 491.677L-19.4839 493.698L-11.8778 494.564L-4.07918 493.12L3.33434 495.718L10.8442 497.162L18.6428 495.622L25.96 499.568L33.855 497.451L41.461 497.836L48.8746 500.819L56.2881 502.647L64.0867 499.76L71.3077 503.514L79.0101 501.493L86.4236 503.706L93.9334 503.225L101.443 503.417L109.049 502.84L116.367 504.861L123.973 505.053L131.29 507.459L138.896 506.882L146.309 507.267L153.723 510.154L161.329 508.037L168.743 511.116L176.349 509.576L183.762 511.212L191.368 508.806L198.782 510.346L206.292 510.924L213.801 512.56L221.311 512.175L228.821 510.442L236.331 510.346L243.937 509.576L251.35 511.02L258.86 513.715L266.37 511.982L273.88 510.731L281.39 513.522L288.899 513.041L296.409 511.886L303.823 510.635L311.429 512.752L318.939 514.099L326.448 511.886L334.055 509.961L341.661 513.426L349.267 514.388L356.777 511.405L364.383 510.154L371.989 510.635L379.595 512.367L387.105 511.405H394.711L402.413 513.618L409.827 509.288L417.529 512.752L425.135 513.137L432.645 511.405L440.251 510.058L447.857 512.752L455.367 510.154L462.973 511.886L470.579 509.384L478.185 512.079L485.791 512.945L493.301 509.961L500.907 512.079L508.513 510.25L516.119 510.827L523.629 508.806L531.331 511.982L538.745 508.037L546.351 507.748L553.957 507.652L561.659 512.271L569.169 509.288L576.775 509.48L584.381 511.886L591.987 511.116L599.497 510.154L607.103 511.694L614.613 508.325L622.219 507.171L629.825 509.191L637.431 510.25L645.038 509.095L652.644 510.346L660.153 510.442L667.759 508.518L675.366 507.267L682.972 511.886L690.481 508.71L698.088 507.748H705.694L713.3 511.02L720.906 507.94L728.416 512.463L736.022 508.133L743.724 511.79L751.33 508.903L759.033 510.058L766.639 509.288L774.341 511.116L781.947 510.058L789.649 512.848L797.255 512.752L804.958 512.367L812.564 509.095L820.266 511.886L827.872 509.673L835.478 508.999L843.181 508.903L850.883 512.079L858.489 510.346L866.095 508.614L873.701 508.71L881.404 511.02L889.106 511.694L896.712 510.635L904.415 511.694L912.021 507.652L919.723 509.191L927.329 507.748L934.935 509.384L942.638 511.982L950.244 507.363L957.946 509.769L965.648 511.597L973.255 510.539L980.957 510.924L988.563 512.271L996.169 510.827L1003.87 511.886L1011.48 512.463L1019.18 508.229L1026.79 512.367L1034.49 512.079L1042.09 512.945L1049.8 509.769L1057.5 509.673L1065.11 511.405L1072.71 512.752L1079.35 513.426V180.74Z" fill="url(#paint8_linear)"/>
<path fill-rule="evenodd" clip-rule="evenodd" d="M1079.35 180.74L1072.04 180.067L1064.05 179.393L1060.1 181.607L1053.07 180.644L1048.06 185.456L1041.71 183.82L1033.33 184.782L1024.96 181.703L1016.77 183.435L1008.69 185.552L1000.41 186.803L993.281 182.569L986.445 178.431L977.587 177.372L971.136 183.724L965.456 190.46L959.487 188.535L953.71 186.418L948.992 179.297L940.808 176.025L934.358 170.828L928.773 164.669L925.307 158.125L918.471 154.853L912.117 152.736L904.029 151.389L896.038 153.41L890.454 150.523L884.388 151.677L876.782 151.485L870.332 154.949L865.133 160.242L858.489 163.322L850.979 164.573L843.47 164.38L836.826 161.397L829.605 164.092L821.71 165.824L816.319 169.673L810.157 172.464L803.225 173.811L796.293 172.945L788.783 172.464L781.562 171.309L774.822 166.498L766.927 166.786L758.84 171.117L749.597 168.807L742.569 163.418L739.391 155.815L735.059 149.175L726.394 146.096L720.617 140.899L718.595 136.568H713.011L707.619 131.275L708.004 124.058L705.79 117.706L700.88 113.761L697.125 116.744L691.541 117.995L683.068 118.765L674.403 117.418L665.738 119.727L660.057 125.983L654.088 130.794L652.74 138.878L646.193 143.305L638.298 145.615L632.521 148.887L627.13 153.121L621.16 156.393L611.436 161.878H603.348L594.202 161.782L588.618 168.519L581.878 173.042L574.561 176.025L570.517 182.665L567.725 187.766L563.392 192.385L556.653 193.925L550.298 193.732L544.137 196.619L541.152 202.297L533.738 203.452L530.369 207.205L524.592 210.766L518.334 214.038L512.461 217.31L506.78 220.486L501.1 225.49L494.167 221.159L487.813 217.983L479.437 216.251L474.045 211.055L467.113 210.381L460.181 211.536L452.96 210.766L447.761 206.05L441.695 201.72L438.036 195.946L429.66 197.582L423.113 195.657L414.737 198.448L407.805 204.799L400.006 203.452L394.711 201.335L390.186 196.715L383.157 192.866L378.439 186.515L374.781 179.104L370.159 172.272L365.345 166.594L357.065 162.359L354.755 154.468L346.378 151.966L341.468 146.384L333.862 145.999L328.759 140.61L323.753 135.51L317.302 129.736L307.481 129.158L299.875 126.079L299.105 117.899L291.114 115.974L283.797 116.263L275.998 117.129L267.622 114.049L260.401 112.895L249.714 114.242L243.456 114.627L235.849 114.819L230.073 118.284L222.467 120.208L214.572 117.706L203.981 121.075L193.775 120.786L186.362 119.342L180.874 124.635L175.001 128.581L168.935 132.527L161.907 136.087L157.574 141.861L154.493 148.405L148.524 152.832L146.213 159.954L139.762 163.803L135.045 170.347L128.016 174.966L124.839 182.569L116.27 185.648L111.456 189.787L106.546 193.925L100.384 196.427L95.6664 201.239L88.1566 201.816L80.5505 201.912L74.6775 197.293L64.9533 195.561L55.6141 190.653L48.2969 190.075L40.9796 194.791L34.3364 198.64L26.9228 201.431L19.413 203.837L14.7916 210.766L6.70413 212.498L1.11992 217.695L-6.29361 218.657L-10.7225 223.373L-17.0769 223.854L-25.2607 223.661L-34.2147 225.682L-41.1468 228.473L-48.1752 225.201L-55.0111 223.854L-62.232 225.586L-69.3567 224.816L-76 223.084V489.271L-72.8228 490.233L-65.2167 490.811L-57.7069 492.447L-49.9082 490.714L-42.4947 493.216L-34.7924 493.024L-26.8974 491.677L-19.4839 493.698L-11.8778 494.564L-4.07918 493.12L3.33434 495.718L10.8442 497.162L18.6428 495.622L25.96 499.568L33.855 497.451L41.461 497.836L48.8746 500.819L56.2881 502.647L64.0867 499.76L71.3077 503.514L79.0101 501.493L86.4236 503.706L93.9334 503.225L101.443 503.417L109.049 502.84L116.367 504.861L123.973 505.053L131.29 507.459L138.896 506.882L146.309 507.267L153.723 510.154L161.329 508.037L168.743 511.116L176.349 509.576L183.762 511.212L191.368 508.806L198.782 510.346L206.292 510.924L213.801 512.56L221.311 512.175L228.821 510.442L236.331 510.346L243.937 509.576L251.35 511.02L258.86 513.715L266.37 511.982L273.88 510.731L281.39 513.522L288.899 513.041L296.409 511.886L303.823 510.635L311.429 512.752L318.939 514.099L326.448 511.886L334.055 509.961L341.661 513.426L349.267 514.388L356.777 511.405L364.383 510.154L371.989 510.635L379.595 512.367L387.105 511.405H394.711L402.413 513.618L409.827 509.288L417.529 512.752L425.135 513.137L432.645 511.405L440.251 510.058L447.857 512.752L455.367 510.154L462.973 511.886L470.579 509.384L478.185 512.079L485.791 512.945L493.301 509.961L500.907 512.079L508.513 510.25L516.119 510.827L523.629 508.806L531.331 511.982L538.745 508.037L546.351 507.748L553.957 507.652L561.659 512.271L569.169 509.288L576.775 509.48L584.381 511.886L591.987 511.116L599.497 510.154L607.103 511.694L614.613 508.325L622.219 507.171L629.825 509.191L637.431 510.25L645.038 509.095L652.644 510.346L660.153 510.442L667.759 508.518L675.366 507.267L682.972 511.886L690.481 508.71L698.088 507.748H705.694L713.3 511.02L720.906 507.94L728.416 512.463L736.022 508.133L743.724 511.79L751.33 508.903L759.033 510.058L766.639 509.288L774.341 511.116L781.947 510.058L789.649 512.848L797.255 512.752L804.958 512.367L812.564 509.095L820.266 511.886L827.872 509.673L835.478 508.999L843.181 508.903L850.883 512.079L858.489 510.346L866.095 508.614L873.701 508.71L881.404 511.02L889.106 511.694L896.712 510.635L904.415 511.694L912.021 507.652L919.723 509.191L927.329 507.748L934.935 509.384L942.638 511.982L950.244 507.363L957.946 509.769L965.648 511.597L973.255 510.539L980.957 510.924L988.563 512.271L996.169 510.827L1003.87 511.886L1011.48 512.463L1019.18 508.229L1026.79 512.367L1034.49 512.079L1042.09 512.945L1049.8 509.769L1057.5 509.673L1065.11 511.405L1072.71 512.752L1079.35 513.426V180.74Z" fill="url(#paint9_linear)"/>
<path fill-rule="evenodd" clip-rule="evenodd" d="M1079.35 601V241.946L1076.85 242.042L1070.02 244.929L1062.89 245.314L1055.86 245.892L1048.93 247.335L1042.38 250.222L1035.74 251.858L1030.25 255.996L1024.96 260.134L1018.79 263.214L1014.17 268.218L1008.2 271.49L1001.56 273.896L995.399 277.553L988.659 280.344L981.534 279.863L974.314 278.708L966.611 280.151L961.316 286.599L954.576 290.064L946.97 291.892L939.749 294.298L933.78 294.972L928.003 295.742L921.841 293.913L916.642 297.281L911.058 298.917L903.741 301.708L895.557 299.88L888.721 304.884L881.693 306.905L875.146 309.888L868.406 313.353L860.319 312.39L852.52 315.566L844.047 312.198L838.174 316.143L833.071 320.282L828.354 324.708L822.577 327.692L816.415 329.424L809.676 330.098L803.225 326.344L796.1 326.441L791.094 328.077L785.606 327.114L778.577 326.729L771.645 324.901L764.424 324.035L758.07 319.127L751.041 319.897L744.591 322.591L738.525 325.671L730.919 323.65L725.912 330.001L718.595 329.424L712.529 332.696H705.597L698.954 331.83L692.888 335.198L686.919 334.236L679.217 336.545L671.611 339.817L664.775 341.742L657.65 342.031L650.911 339.336L643.304 341.068L635.698 340.587L628.863 336.545L621.256 337.604L616.828 341.838L610.858 339.914L605.37 336.738L597.764 334.909L594.298 328.077L588.136 325.478L581.686 323.746L575.235 321.629L569.458 317.972L565.029 313.16L559.734 309.311L555.209 304.788L552.417 297.859L545.87 295.838L539.515 294.298L532.583 293.624L527.288 289.101L522.089 284.771L516.408 281.402L509.765 279.285L505.336 273.992L498.789 271.875L493.205 268.218L487.524 264.561L480.592 264.465L474.719 261.097L470.675 255.034L463.262 253.879L457.87 249.837L451.227 246.565L443.332 247.239L436.689 243.582L429.949 240.31L426.098 247.335L419.84 249.837L413.967 252.436L407.805 254.36L402.317 251.281L395.866 249.837L390.474 246.565L385.66 242.427L379.21 238.289L372.085 236.749L363.805 238.963L357.258 236.749L351.385 232.707L345.512 228.569L338.483 227.414L333.573 222.795L326.545 222.988L320.672 221.063H314.414L307.578 219.812L301.608 222.795L295.158 223.373L289.092 220.967L283.219 219.331L277.442 216.347L271.665 212.594L267.718 206.146L260.786 208.552L254.239 209.611L248.173 213.557L240.856 213.268L235.175 218.946L227.473 216.059L221.215 221.063L214.09 220.582L207.062 220.004L200.322 217.598L193.583 217.983L187.517 221.063L181.355 223.084L177.504 229.243L170.668 230.302L164.41 231.36L158.441 235.21L151.701 237.519L144.769 237.808L137.837 238.963L130.52 238.578L123.491 237.134L116.367 236.846L109.338 233.189L102.791 233.477L96.3404 236.172L89.7934 233.092L83.2464 235.017H76.3142L69.7672 232.034L62.7388 230.975L55.6141 230.013L48.4895 230.302L41.2685 230.398L34.0475 229.724L26.8266 230.975L19.7019 227.703L12.9623 227.126L6.22273 227.318L-0.131718 229.147L-6.58245 231.456L-13.0332 229.05L-19.5802 228.666L-26.3198 228.377L-32.0002 223.276L-39.3175 223.373L-46.0571 220.774L-52.8929 217.887L-57.8032 211.728L-64.3502 208.071L-72.0525 207.782L-76 208.264V601H1079.35Z" fill="#180C1A"/>
<path fill-rule="evenodd" clip-rule="evenodd" d="M1079.35 601V241.946L1076.85 242.042L1070.02 244.929L1062.89 245.314L1055.86 245.892L1048.93 247.335L1042.38 250.222L1035.74 251.858L1030.25 255.996L1024.96 260.134L1018.79 263.214L1014.17 268.218L1008.2 271.49L1001.56 273.896L995.399 277.553L988.659 280.344L981.534 279.863L974.314 278.708L966.611 280.151L961.316 286.599L954.576 290.064L946.97 291.892L939.749 294.298L933.78 294.972L928.003 295.742L921.841 293.913L916.642 297.281L911.058 298.917L903.741 301.708L895.557 299.88L888.721 304.884L881.693 306.905L875.146 309.888L868.406 313.353L860.319 312.39L852.52 315.566L844.047 312.198L838.174 316.143L833.071 320.282L828.354 324.708L822.577 327.692L816.415 329.424L809.676 330.098L803.225 326.344L796.1 326.441L791.094 328.077L785.606 327.114L778.577 326.729L771.645 324.901L764.424 324.035L758.07 319.127L751.041 319.897L744.591 322.591L738.525 325.671L730.919 323.65L725.912 330.001L718.595 329.424L712.529 332.696H705.597L698.954 331.83L692.888 335.198L686.919 334.236L679.217 336.545L671.611 339.817L664.775 341.742L657.65 342.031L650.911 339.336L643.304 341.068L635.698 340.587L628.863 336.545L621.256 337.604L616.828 341.838L610.858 339.914L605.37 336.738L597.764 334.909L594.298 328.077L588.136 325.478L581.686 323.746L575.235 321.629L569.458 317.972L565.029 313.16L559.734 309.311L555.209 304.788L552.417 297.859L545.87 295.838L539.515 294.298L532.583 293.624L527.288 289.101L522.089 284.771L516.408 281.402L509.765 279.285L505.336 273.992L498.789 271.875L493.205 268.218L487.524 264.561L480.592 264.465L474.719 261.097L470.675 255.034L463.262 253.879L457.87 249.837L451.227 246.565L443.332 247.239L436.689 243.582L429.949 240.31L426.098 247.335L419.84 249.837L413.967 252.436L407.805 254.36L402.317 251.281L395.866 249.837L390.474 246.565L385.66 242.427L379.21 238.289L372.085 236.749L363.805 238.963L357.258 236.749L351.385 232.707L345.512 228.569L338.483 227.414L333.573 222.795L326.545 222.988L320.672 221.063H314.414L307.578 219.812L301.608 222.795L295.158 223.373L289.092 220.967L283.219 219.331L277.442 216.347L271.665 212.594L267.718 206.146L260.786 208.552L254.239 209.611L248.173 213.557L240.856 213.268L235.175 218.946L227.473 216.059L221.215 221.063L214.09 220.582L207.062 220.004L200.322 217.598L193.583 217.983L187.517 221.063L181.355 223.084L177.504 229.243L170.668 230.302L164.41 231.36L158.441 235.21L151.701 237.519L144.769 237.808L137.837 238.963L130.52 238.578L123.491 237.134L116.367 236.846L109.338 233.189L102.791 233.477L96.3404 236.172L89.7934 233.092L83.2464 235.017H76.3142L69.7672 232.034L62.7388 230.975L55.6141 230.013L48.4895 230.302L41.2685 230.398L34.0475 229.724L26.8266 230.975L19.7019 227.703L12.9623 227.126L6.22273 227.318L-0.131718 229.147L-6.58245 231.456L-13.0332 229.05L-19.5802 228.666L-26.3198 228.377L-32.0002 223.276L-39.3175 223.373L-46.0571 220.774L-52.8929 217.887L-57.8032 211.728L-64.3502 208.071L-72.0525 207.782L-76 208.264V601H1079.35Z" fill="#0D0B29"/>
<g style="mix-blend-mode:screen" filter="url(#filter0_df)">
<path fill-rule="evenodd" clip-rule="evenodd" d="M292.943 -21.5461C292.943 -8.2226 288.99 4.80168 281.585 15.8797C274.179 26.9578 263.653 35.5921 251.338 40.6908C239.023 45.7895 225.472 47.1235 212.399 44.5242C199.325 41.9249 187.317 35.5091 177.891 26.0879C168.466 16.6668 162.047 4.66359 159.446 -8.40388C156.846 -21.4713 158.181 -35.0161 163.282 -47.3254C168.383 -59.6347 177.021 -70.1556 188.104 -77.5578C199.187 -84.9599 212.218 -88.9108 225.547 -88.9108C243.422 -88.9108 260.564 -81.8134 273.203 -69.1801C285.842 -56.5468 292.943 -39.4123 292.943 -21.5461V-21.5461Z" fill="#EF4136"/>
<path fill-rule="evenodd" clip-rule="evenodd" d="M292.943 -21.5461C292.943 -8.2226 288.99 4.80168 281.585 15.8797C274.179 26.9578 263.653 35.5921 251.338 40.6908C239.023 45.7895 225.472 47.1235 212.399 44.5242C199.325 41.9249 187.317 35.5091 177.891 26.0879C168.466 16.6668 162.047 4.66359 159.446 -8.40388C156.846 -21.4713 158.181 -35.0161 163.282 -47.3254C168.383 -59.6347 177.021 -70.1556 188.104 -77.5578C199.187 -84.9599 212.218 -88.9108 225.547 -88.9108C243.422 -88.9108 260.564 -81.8134 273.203 -69.1801C285.842 -56.5468 292.943 -39.4123 292.943 -21.5461V-21.5461Z" fill="#E8DFAB"/>
</g>
</g>
<defs>
<filter id="filter0_df" x="138.151" y="-108.911" width="174.791" height="174.729" filterUnits="userSpaceOnUse" color-interpolation-filters="sRGB">
<feFlood flood-opacity="0" result="BackgroundImageFix"/>
<feColorMatrix in="SourceAlpha" type="matrix" values="0 0 0 0 0 0 0 0 0 0 0 0 0 0 0 0 0 0 127 0"/>
<feOffset/>
<feGaussianBlur stdDeviation="10"/>
<feColorMatrix type="matrix" values="0 0 0 0 0.964706 0 0 0 0 0.960784 0 0 0 0 0.839216 0 0 0 0.5 0"/>
<feBlend mode="normal" in2="BackgroundImageFix" result="effect1_dropShadow"/>
<feBlend mode="normal" in="SourceGraphic" in2="effect1_dropShadow" result="shape"/>
<feGaussianBlur stdDeviation="1" result="effect2_foregroundBlur"/>
</filter>
<linearGradient id="paint0_linear" x1="501.677" y1="253.687" x2="501.677" y2="-143.669" gradientUnits="userSpaceOnUse">
<stop stop-color="#FF6460"/>
<stop offset="0.55" stop-color="#FD5646"/>
<stop offset="1" stop-color="#FF9142"/>
</linearGradient>
<linearGradient id="paint1_linear" x1="501.677" y1="239.952" x2="501.677" y2="-200.076" gradientUnits="userSpaceOnUse">
<stop stop-color="#5950B3"/>
<stop offset="0.55" stop-color="#3D5EB7"/>
<stop offset="1" stop-color="#2C2384"/>
</linearGradient>
<linearGradient id="paint2_linear" x1="69245.3" y1="15716" x2="69245.3" y2="11097.5" gradientUnits="userSpaceOnUse">
<stop stop-color="#E97980"/>
<stop offset="1" stop-color="#D95153"/>
</linearGradient>
<linearGradient id="paint3_linear" x1="69245.3" y1="15716" x2="69245.3" y2="11097.5" gradientUnits="userSpaceOnUse">
<stop stop-color="#71C3D7"/>
<stop offset="1" stop-color="#4692B0"/>
</linearGradient>
<linearGradient id="paint4_linear" x1="69245.3" y1="15716" x2="69245.3" y2="11097.5" gradientUnits="userSpaceOnUse">
<stop stop-color="#4C6FB4"/>
<stop offset="1" stop-color="#577DC7"/>
</linearGradient>
<linearGradient id="paint5_linear" x1="501.677" y1="290.353" x2="501.677" y2="156.104" gradientUnits="userSpaceOnUse">
<stop stop-color="#C67085"/>
<stop offset="1" stop-color="#AE4553"/>
</linearGradient>
<linearGradient id="paint6_linear" x1="501.677" y1="290.353" x2="501.677" y2="156.104" gradientUnits="userSpaceOnUse">
<stop stop-color="#424DA8"/>
<stop offset="1" stop-color="#424989"/>
</linearGradient>
<linearGradient id="paint7_linear" x1="490.419" y1="531.22" x2="518.179" y2="98.7694" gradientUnits="userSpaceOnUse">
<stop stop-color="#573253"/>
<stop offset="1" stop-color="#5A303E"/>
</linearGradient>
<linearGradient id="paint8_linear" x1="490.419" y1="531.22" x2="518.179" y2="98.7694" gradientUnits="userSpaceOnUse">
<stop stop-color="#204661"/>
<stop offset="1" stop-color="#1E3B57"/>
</linearGradient>
<linearGradient id="paint9_linear" x1="490.419" y1="531.22" x2="499.242" y2="112.405" gradientUnits="userSpaceOnUse">
<stop stop-color="#1D1247"/>
<stop offset="1" stop-color="#1F1D6C"/>
</linearGradient>
<clipPath id="clip0">
<rect width="1024" height="439" fill="white"/>
</clipPath>
</defs>
</svg>
