<svg width="386" height="22" viewBox="0 0 386 22" fill="none" xmlns="http://www.w3.org/2000/svg">
<path d="M10.284 1.622H12.44L15.322 17H13.1L12.352 13.172H5.554L3.266 17H0.89L10.284 1.622ZM12.154 11.302L10.9 4.108L6.61 11.302H12.154ZM21.0001 1.622H23.2661L20.0101 17H17.7441L21.0001 1.622ZM24.0228 9.542H31.0408L30.6448 11.368H23.6268L24.0228 9.542ZM40.8348 1.622H42.9908L45.8728 17H43.6508L42.9028 13.172H36.1048L33.8168 17H31.4408L40.8348 1.622ZM42.7048 11.302L41.4508 4.108L37.1608 11.302H42.7048ZM52.3226 17.33C51.4572 17.33 50.6799 17.1613 49.9906 16.824C49.3159 16.472 48.7806 15.9733 48.3846 15.328C48.0032 14.6827 47.8126 13.9273 47.8126 13.062C47.8126 12.7247 47.8639 12.2847 47.9666 11.742C48.2012 10.6273 48.6339 9.64467 49.2646 8.794C49.9099 7.94333 50.7019 7.28333 51.6406 6.814C52.5792 6.34467 53.6059 6.11 54.7206 6.11C56.6126 6.11 57.9326 6.68933 58.6806 7.848L60.1986 0.742H62.4206L58.9666 17H56.8106L57.1186 15.46C56.3999 16.1053 55.6592 16.582 54.8966 16.89C54.1339 17.1833 53.2759 17.33 52.3226 17.33ZM53.2026 15.57C54.1119 15.57 54.9552 15.3353 55.7326 14.866C56.5246 14.382 57.1479 13.7367 57.6026 12.93L58.1086 10.554C58.0352 9.74733 57.6979 9.102 57.0966 8.618C56.4952 8.134 55.7399 7.892 54.8306 7.892C53.6572 7.892 52.6526 8.244 51.8166 8.948C50.9952 9.63733 50.4599 10.5687 50.2106 11.742C50.1372 12.05 50.1006 12.402 50.1006 12.798C50.1006 13.678 50.3646 14.36 50.8926 14.844C51.4206 15.328 52.1906 15.57 53.2026 15.57ZM66.5237 17.33C65.6731 17.33 64.9031 17.154 64.2137 16.802C63.5391 16.45 63.0037 15.9513 62.6077 15.306C62.2264 14.6607 62.0357 13.9053 62.0357 13.04C62.0357 12.6293 62.0797 12.1967 62.1677 11.742C62.4024 10.642 62.8497 9.66667 63.5097 8.816C64.1697 7.96533 64.9691 7.30533 65.9077 6.836C66.8611 6.352 67.8657 6.11 68.9217 6.11C70.8137 6.11 72.1337 6.68933 72.8817 7.848L73.1897 6.44H75.4117L73.1677 17H71.0117L71.3197 15.46C70.6011 16.1053 69.8604 16.582 69.0977 16.89C68.3351 17.1833 67.4771 17.33 66.5237 17.33ZM67.4037 15.57C68.3131 15.57 69.1564 15.3353 69.9337 14.866C70.7257 14.382 71.3491 13.7367 71.8037 12.93L72.3097 10.554C72.2364 9.74733 71.8991 9.102 71.2977 8.618C70.6964 8.134 69.9411 7.892 69.0317 7.892C67.9464 7.892 66.9637 8.25133 66.0837 8.97C65.2184 9.674 64.6611 10.598 64.4117 11.742C64.3091 12.2553 64.2577 12.6733 64.2577 12.996C64.2577 14.712 65.3064 15.57 67.4037 15.57ZM78.2752 6.44H80.4312L80.0792 8.002C81.4432 6.74067 83.0492 6.11 84.8972 6.11C86.2612 6.11 87.3538 6.49133 88.1752 7.254C88.9965 8.01667 89.4072 9.05067 89.4072 10.356C89.4072 10.8107 89.3558 11.2653 89.2532 11.72C89.0185 12.8347 88.5785 13.8173 87.9332 14.668C87.3025 15.5187 86.5178 16.1787 85.5792 16.648C84.6552 17.1027 83.6285 17.33 82.4992 17.33C80.7245 17.33 79.4045 16.7507 78.5392 15.592L77.2192 21.818H74.9972L78.2752 6.44ZM82.3672 15.57C83.4672 15.57 84.4498 15.218 85.3152 14.514C86.1952 13.7953 86.7598 12.864 87.0092 11.72C87.0825 11.412 87.1192 11.0527 87.1192 10.642C87.1192 9.77667 86.8552 9.102 86.3272 8.618C85.7992 8.134 85.0218 7.892 83.9952 7.892C83.1005 7.892 82.2645 8.12667 81.4872 8.596C80.7098 9.06533 80.0865 9.71067 79.6172 10.532L79.1112 12.908C79.1992 13.7293 79.5218 14.382 80.0792 14.866C80.6512 15.3353 81.4138 15.57 82.3672 15.57ZM93.7632 17.33C92.8685 17.33 92.1938 17.1247 91.7392 16.714C91.2845 16.2887 91.0572 15.68 91.0572 14.888C91.0572 14.5507 91.1012 14.184 91.1892 13.788L92.3772 8.156H90.7712L91.1452 6.44H92.7512L93.4112 3.272H95.6552L94.9952 6.44H97.5912L97.2172 8.156H94.6212L93.4552 13.634C93.3818 14.03 93.3452 14.3233 93.3452 14.514C93.3452 14.8953 93.4478 15.1667 93.6532 15.328C93.8732 15.4893 94.2398 15.57 94.7532 15.57C94.9732 15.57 95.2225 15.548 95.5012 15.504C95.7945 15.4453 96.0512 15.372 96.2712 15.284L95.8972 17.044C95.3105 17.2347 94.5992 17.33 93.7632 17.33ZM103.73 17.33C102.116 17.33 100.84 16.9633 99.9017 16.23C98.9777 15.482 98.5157 14.4333 98.5157 13.084C98.5157 12.644 98.567 12.1967 98.6697 11.742C99.051 9.982 99.821 8.60333 100.98 7.606C102.153 6.60867 103.693 6.11 105.6 6.11C106.582 6.11 107.426 6.29333 108.13 6.66C108.834 7.012 109.362 7.50333 109.714 8.134C110.08 8.76467 110.264 9.476 110.264 10.268C110.264 10.664 110.22 11.0747 110.132 11.5L109.89 12.6H100.606C100.576 12.864 100.562 13.0547 100.562 13.172C100.562 14.008 100.87 14.6167 101.486 14.998C102.102 15.3793 103.062 15.57 104.368 15.57C105.042 15.57 105.739 15.5113 106.458 15.394C107.176 15.262 107.822 15.0933 108.394 14.888L108.02 16.67C107.506 16.8607 106.846 17.0147 106.04 17.132C105.248 17.264 104.478 17.33 103.73 17.33ZM108.13 11.038C108.188 10.6567 108.218 10.3853 108.218 10.224C108.218 8.66933 107.198 7.892 105.16 7.892C104.045 7.892 103.114 8.178 102.366 8.75C101.632 9.322 101.156 10.0847 100.936 11.038H108.13ZM116.41 17.33C115.545 17.33 114.768 17.1613 114.078 16.824C113.404 16.472 112.868 15.9733 112.472 15.328C112.091 14.6827 111.9 13.9273 111.9 13.062C111.9 12.7247 111.952 12.2847 112.054 11.742C112.289 10.6273 112.722 9.64467 113.352 8.794C113.998 7.94333 114.79 7.28333 115.728 6.814C116.667 6.34467 117.694 6.11 118.808 6.11C120.7 6.11 122.02 6.68933 122.768 7.848L124.286 0.742H126.508L123.054 17H120.898L121.206 15.46C120.488 16.1053 119.747 16.582 118.984 16.89C118.222 17.1833 117.364 17.33 116.41 17.33ZM117.29 15.57C118.2 15.57 119.043 15.3353 119.82 14.866C120.612 14.382 121.236 13.7367 121.69 12.93L122.196 10.554C122.123 9.74733 121.786 9.102 121.184 8.618C120.583 8.134 119.828 7.892 118.918 7.892C117.745 7.892 116.74 8.244 115.904 8.948C115.083 9.63733 114.548 10.5687 114.298 11.742C114.225 12.05 114.188 12.402 114.188 12.798C114.188 13.678 114.452 14.36 114.98 14.844C115.508 15.328 116.278 15.57 117.29 15.57ZM140.814 3.514H136.04L136.436 1.622H148.25L147.854 3.514H143.08L140.22 17H137.954L140.814 3.514ZM147.562 6.44H149.718L149.3 8.332C149.872 7.68667 150.591 7.21 151.456 6.902C152.336 6.594 153.304 6.44 154.36 6.44L153.986 8.178C152.857 8.178 151.852 8.36133 150.972 8.728C150.092 9.09467 149.41 9.674 148.926 10.466L147.54 17H145.318L147.562 6.44ZM158.133 17.33C157.282 17.33 156.512 17.154 155.823 16.802C155.148 16.45 154.613 15.9513 154.217 15.306C153.836 14.6607 153.645 13.9053 153.645 13.04C153.645 12.6293 153.689 12.1967 153.777 11.742C154.012 10.642 154.459 9.66667 155.119 8.816C155.779 7.96533 156.578 7.30533 157.517 6.836C158.47 6.352 159.475 6.11 160.531 6.11C162.423 6.11 163.743 6.68933 164.491 7.848L164.799 6.44H167.021L164.777 17H162.621L162.929 15.46C162.21 16.1053 161.47 16.582 160.707 16.89C159.944 17.1833 159.086 17.33 158.133 17.33ZM159.013 15.57C159.922 15.57 160.766 15.3353 161.543 14.866C162.335 14.382 162.958 13.7367 163.413 12.93L163.919 10.554C163.846 9.74733 163.508 9.102 162.907 8.618C162.306 8.134 161.55 7.892 160.641 7.892C159.556 7.892 158.573 8.25133 157.693 8.97C156.828 9.674 156.27 10.598 156.021 11.742C155.918 12.2553 155.867 12.6733 155.867 12.996C155.867 14.712 156.916 15.57 159.013 15.57ZM169.885 6.44H172.041L171.711 7.958C172.356 7.32733 173.067 6.86533 173.845 6.572C174.637 6.264 175.429 6.11 176.221 6.11C177.335 6.11 178.179 6.396 178.751 6.968C179.337 7.54 179.631 8.29533 179.631 9.234C179.631 9.51267 179.594 9.85 179.521 10.246L178.091 17H175.869L177.255 10.466C177.343 10.0407 177.387 9.674 177.387 9.366C177.387 8.85267 177.225 8.47867 176.903 8.244C176.595 8.00933 176.067 7.892 175.319 7.892C174.615 7.892 173.925 8.06067 173.251 8.398C172.576 8.72067 171.945 9.21933 171.359 9.894L169.863 17H167.641L169.885 6.44ZM184.638 17.33C183.905 17.33 183.142 17.2347 182.35 17.044C181.573 16.868 180.986 16.626 180.59 16.318L180.986 14.426C181.485 14.778 182.086 15.0567 182.79 15.262C183.509 15.4673 184.213 15.57 184.902 15.57C185.694 15.57 186.295 15.4747 186.706 15.284C187.117 15.0933 187.366 14.7853 187.454 14.36C187.483 14.2133 187.498 14.1107 187.498 14.052C187.498 13.8173 187.417 13.6193 187.256 13.458C187.095 13.2967 186.838 13.15 186.486 13.018C186.149 12.8713 185.628 12.688 184.924 12.468C183.941 12.16 183.201 11.808 182.702 11.412C182.218 11.0013 181.976 10.4733 181.976 9.828C181.976 9.62267 181.998 9.41 182.042 9.19C182.497 7.13667 184.191 6.11 187.124 6.11C187.828 6.11 188.495 6.176 189.126 6.308C189.771 6.44 190.277 6.62333 190.644 6.858L190.27 8.706C189.903 8.45667 189.419 8.25867 188.818 8.112C188.217 7.96533 187.593 7.892 186.948 7.892C186.171 7.892 185.555 7.98733 185.1 8.178C184.66 8.36867 184.389 8.706 184.286 9.19C184.257 9.33667 184.242 9.432 184.242 9.476C184.242 9.71067 184.323 9.90133 184.484 10.048C184.66 10.1947 184.917 10.334 185.254 10.466C185.606 10.5833 186.149 10.752 186.882 10.972C187.894 11.2653 188.635 11.6173 189.104 12.028C189.573 12.4387 189.808 12.9667 189.808 13.612C189.808 13.744 189.779 13.986 189.72 14.338C189.295 16.3327 187.601 17.33 184.638 17.33ZM196.289 17.33C195.439 17.33 194.669 17.154 193.979 16.802C193.305 16.45 192.769 15.9513 192.373 15.306C191.992 14.6607 191.801 13.9053 191.801 13.04C191.801 12.6293 191.845 12.1967 191.933 11.742C192.168 10.642 192.615 9.66667 193.275 8.816C193.935 7.96533 194.735 7.30533 195.673 6.836C196.627 6.352 197.631 6.11 198.687 6.11C200.579 6.11 201.899 6.68933 202.647 7.848L202.955 6.44H205.177L202.933 17H200.777L201.085 15.46C200.367 16.1053 199.626 16.582 198.863 16.89C198.101 17.1833 197.243 17.33 196.289 17.33ZM197.169 15.57C198.079 15.57 198.922 15.3353 199.699 14.866C200.491 14.382 201.115 13.7367 201.569 12.93L202.075 10.554C202.002 9.74733 201.665 9.102 201.063 8.618C200.462 8.134 199.707 7.892 198.797 7.892C197.712 7.892 196.729 8.25133 195.849 8.97C194.984 9.674 194.427 10.598 194.177 11.742C194.075 12.2553 194.023 12.6733 194.023 12.996C194.023 14.712 195.072 15.57 197.169 15.57ZM210.845 17.33C209.378 17.33 208.183 16.9487 207.259 16.186C206.35 15.4233 205.895 14.3747 205.895 13.04C205.895 12.6293 205.939 12.1967 206.027 11.742C206.408 9.982 207.23 8.60333 208.491 7.606C209.767 6.60867 211.366 6.11 213.287 6.11C214.9 6.11 216.125 6.42533 216.961 7.056L216.565 8.882C215.758 8.222 214.607 7.892 213.111 7.892C211.938 7.892 210.904 8.222 210.009 8.882C209.129 9.542 208.55 10.4953 208.271 11.742C208.183 12.182 208.139 12.5853 208.139 12.952C208.139 13.832 208.41 14.492 208.953 14.932C209.51 15.3573 210.339 15.57 211.439 15.57C212.92 15.57 214.277 15.218 215.509 14.514L215.113 16.318C214.526 16.67 213.888 16.9267 213.199 17.088C212.51 17.2493 211.725 17.33 210.845 17.33ZM221.38 17.33C220.486 17.33 219.811 17.1247 219.356 16.714C218.902 16.2887 218.674 15.68 218.674 14.888C218.674 14.5507 218.718 14.184 218.806 13.788L219.994 8.156H218.388L218.762 6.44H220.368L221.028 3.272H223.272L222.612 6.44H225.208L224.834 8.156H222.238L221.072 13.634C220.999 14.03 220.962 14.3233 220.962 14.514C220.962 14.8953 221.065 15.1667 221.27 15.328C221.49 15.4893 221.857 15.57 222.37 15.57C222.59 15.57 222.84 15.548 223.118 15.504C223.412 15.4453 223.668 15.372 223.888 15.284L223.514 17.044C222.928 17.2347 222.216 17.33 221.38 17.33ZM229.609 4.372C229.286 4.372 229.03 4.27667 228.839 4.086C228.648 3.89533 228.553 3.65333 228.553 3.36C228.553 2.93467 228.714 2.568 229.037 2.26C229.374 1.93733 229.748 1.776 230.159 1.776C230.482 1.776 230.738 1.87133 230.929 2.062C231.134 2.25267 231.237 2.502 231.237 2.81C231.237 3.23533 231.068 3.602 230.731 3.91C230.408 4.218 230.034 4.372 229.609 4.372ZM228.047 6.44H230.313L228.069 17H225.803L228.047 6.44ZM236.605 17.33C235.065 17.33 233.848 16.956 232.953 16.208C232.073 15.46 231.633 14.426 231.633 13.106C231.633 12.6513 231.684 12.1967 231.787 11.742C232.022 10.6127 232.469 9.62267 233.129 8.772C233.804 7.92133 234.64 7.26867 235.637 6.814C236.649 6.34467 237.771 6.11 239.003 6.11C240.543 6.11 241.753 6.49867 242.633 7.276C243.528 8.03867 243.975 9.08 243.975 10.4C243.975 10.84 243.924 11.2873 243.821 11.742C243.454 13.4727 242.626 14.8367 241.335 15.834C240.059 16.8313 238.482 17.33 236.605 17.33ZM236.979 15.57C238.123 15.57 239.106 15.218 239.927 14.514C240.748 13.81 241.284 12.886 241.533 11.742C241.621 11.302 241.665 10.8913 241.665 10.51C241.665 8.76467 240.646 7.892 238.607 7.892C237.463 7.892 236.48 8.23667 235.659 8.926C234.838 9.61533 234.302 10.554 234.053 11.742C233.965 12.1527 233.921 12.5413 233.921 12.908C233.921 13.7587 234.17 14.4187 234.669 14.888C235.168 15.3427 235.938 15.57 236.979 15.57ZM247.379 6.44H249.535L249.205 7.958C249.85 7.32733 250.561 6.86533 251.339 6.572C252.131 6.264 252.923 6.11 253.715 6.11C254.829 6.11 255.673 6.396 256.245 6.968C256.831 7.54 257.125 8.29533 257.125 9.234C257.125 9.51267 257.088 9.85 257.015 10.246L255.585 17H253.363L254.749 10.466C254.837 10.0407 254.881 9.674 254.881 9.366C254.881 8.85267 254.719 8.47867 254.397 8.244C254.089 8.00933 253.561 7.892 252.813 7.892C252.109 7.892 251.419 8.06067 250.745 8.398C250.07 8.72067 249.439 9.21933 248.853 9.894L247.357 17H245.135L247.379 6.44ZM269.725 1.622H279.867L279.471 3.514H271.573L270.539 8.376H276.435L276.039 10.246H270.143L269.109 15.13H277.007L276.611 17H266.469L269.725 1.622ZM283.629 11.478L280.571 6.44H283.101L285.213 9.938L288.843 6.44H291.373L286.159 11.478L289.525 17H287.017L284.553 13.018L280.439 17H277.931L283.629 11.478ZM294.193 6.44H296.349L295.997 8.002C297.361 6.74067 298.967 6.11 300.815 6.11C302.179 6.11 303.272 6.49133 304.093 7.254C304.914 8.01667 305.325 9.05067 305.325 10.356C305.325 10.8107 305.274 11.2653 305.171 11.72C304.936 12.8347 304.496 13.8173 303.851 14.668C303.22 15.5187 302.436 16.1787 301.497 16.648C300.573 17.1027 299.546 17.33 298.417 17.33C296.642 17.33 295.322 16.7507 294.457 15.592L293.137 21.818H290.915L294.193 6.44ZM298.285 15.57C299.385 15.57 300.368 15.218 301.233 14.514C302.113 13.7953 302.678 12.864 302.927 11.72C303 11.412 303.037 11.0527 303.037 10.642C303.037 9.77667 302.773 9.102 302.245 8.618C301.717 8.134 300.94 7.892 299.913 7.892C299.018 7.892 298.182 8.12667 297.405 8.596C296.628 9.06533 296.004 9.71067 295.535 10.532L295.029 12.908C295.117 13.7293 295.44 14.382 295.997 14.866C296.569 15.3353 297.332 15.57 298.285 15.57ZM312.193 17.33C310.579 17.33 309.303 16.9633 308.365 16.23C307.441 15.482 306.979 14.4333 306.979 13.084C306.979 12.644 307.03 12.1967 307.133 11.742C307.514 9.982 308.284 8.60333 309.443 7.606C310.616 6.60867 312.156 6.11 314.063 6.11C315.045 6.11 315.889 6.29333 316.593 6.66C317.297 7.012 317.825 7.50333 318.177 8.134C318.543 8.76467 318.727 9.476 318.727 10.268C318.727 10.664 318.683 11.0747 318.595 11.5L318.353 12.6H309.069C309.039 12.864 309.025 13.0547 309.025 13.172C309.025 14.008 309.333 14.6167 309.949 14.998C310.565 15.3793 311.525 15.57 312.831 15.57C313.505 15.57 314.202 15.5113 314.921 15.394C315.639 15.262 316.285 15.0933 316.857 14.888L316.483 16.67C315.969 16.8607 315.309 17.0147 314.503 17.132C313.711 17.264 312.941 17.33 312.193 17.33ZM316.593 11.038C316.651 10.6567 316.681 10.3853 316.681 10.224C316.681 8.66933 315.661 7.892 313.623 7.892C312.508 7.892 311.577 8.178 310.829 8.75C310.095 9.322 309.619 10.0847 309.399 11.038H316.593ZM322.101 6.44H324.257L323.839 8.332C324.411 7.68667 325.13 7.21 325.995 6.902C326.875 6.594 327.843 6.44 328.899 6.44L328.525 8.178C327.396 8.178 326.391 8.36133 325.511 8.728C324.631 9.09467 323.949 9.674 323.465 10.466L322.079 17H319.857L322.101 6.44ZM332.626 4.372C332.304 4.372 332.047 4.27667 331.856 4.086C331.666 3.89533 331.57 3.65333 331.57 3.36C331.57 2.93467 331.732 2.568 332.054 2.26C332.392 1.93733 332.766 1.776 333.176 1.776C333.499 1.776 333.756 1.87133 333.946 2.062C334.152 2.25267 334.254 2.502 334.254 2.81C334.254 3.23533 334.086 3.602 333.748 3.91C333.426 4.218 333.052 4.372 332.626 4.372ZM331.064 6.44H333.33L331.086 17H328.82L331.064 6.44ZM339.864 17.33C338.251 17.33 336.975 16.9633 336.036 16.23C335.112 15.482 334.65 14.4333 334.65 13.084C334.65 12.644 334.702 12.1967 334.804 11.742C335.186 9.982 335.956 8.60333 337.114 7.606C338.288 6.60867 339.828 6.11 341.734 6.11C342.717 6.11 343.56 6.29333 344.264 6.66C344.968 7.012 345.496 7.50333 345.848 8.134C346.215 8.76467 346.398 9.476 346.398 10.268C346.398 10.664 346.354 11.0747 346.266 11.5L346.024 12.6H336.74C336.711 12.864 336.696 13.0547 336.696 13.172C336.696 14.008 337.004 14.6167 337.62 14.998C338.236 15.3793 339.197 15.57 340.502 15.57C341.177 15.57 341.874 15.5113 342.592 15.394C343.311 15.262 343.956 15.0933 344.528 14.888L344.154 16.67C343.641 16.8607 342.981 17.0147 342.174 17.132C341.382 17.264 340.612 17.33 339.864 17.33ZM344.264 11.038C344.323 10.6567 344.352 10.3853 344.352 10.224C344.352 8.66933 343.333 7.892 341.294 7.892C340.18 7.892 339.248 8.178 338.5 8.75C337.767 9.322 337.29 10.0847 337.07 11.038H344.264ZM349.773 6.44H351.929L351.599 7.958C352.245 7.32733 352.956 6.86533 353.733 6.572C354.525 6.264 355.317 6.11 356.109 6.11C357.224 6.11 358.067 6.396 358.639 6.968C359.226 7.54 359.519 8.29533 359.519 9.234C359.519 9.51267 359.483 9.85 359.409 10.246L357.979 17H355.757L357.143 10.466C357.231 10.0407 357.275 9.674 357.275 9.366C357.275 8.85267 357.114 8.47867 356.791 8.244C356.483 8.00933 355.955 7.892 355.207 7.892C354.503 7.892 353.814 8.06067 353.139 8.398C352.465 8.72067 351.834 9.21933 351.247 9.894L349.751 17H347.529L349.773 6.44ZM366.199 17.33C364.732 17.33 363.537 16.9487 362.613 16.186C361.703 15.4233 361.249 14.3747 361.249 13.04C361.249 12.6293 361.293 12.1967 361.381 11.742C361.762 9.982 362.583 8.60333 363.845 7.606C365.121 6.60867 366.719 6.11 368.641 6.11C370.254 6.11 371.479 6.42533 372.315 7.056L371.919 8.882C371.112 8.222 369.961 7.892 368.465 7.892C367.291 7.892 366.257 8.222 365.363 8.882C364.483 9.542 363.903 10.4953 363.625 11.742C363.537 12.182 363.493 12.5853 363.493 12.952C363.493 13.832 363.764 14.492 364.307 14.932C364.864 15.3573 365.693 15.57 366.793 15.57C368.274 15.57 369.631 15.218 370.863 14.514L370.467 16.318C369.88 16.67 369.242 16.9267 368.553 17.088C367.863 17.2493 367.079 17.33 366.199 17.33ZM378.472 17.33C376.859 17.33 375.583 16.9633 374.644 16.23C373.72 15.482 373.258 14.4333 373.258 13.084C373.258 12.644 373.309 12.1967 373.412 11.742C373.793 9.982 374.563 8.60333 375.722 7.606C376.895 6.60867 378.435 6.11 380.342 6.11C381.325 6.11 382.168 6.29333 382.872 6.66C383.576 7.012 384.104 7.50333 384.456 8.134C384.823 8.76467 385.006 9.476 385.006 10.268C385.006 10.664 384.962 11.0747 384.874 11.5L384.632 12.6H375.348C375.319 12.864 375.304 13.0547 375.304 13.172C375.304 14.008 375.612 14.6167 376.228 14.998C376.844 15.3793 377.805 15.57 379.11 15.57C379.785 15.57 380.481 15.5113 381.2 15.394C381.919 15.262 382.564 15.0933 383.136 14.888L382.762 16.67C382.249 16.8607 381.589 17.0147 380.782 17.132C379.99 17.264 379.22 17.33 378.472 17.33ZM382.872 11.038C382.931 10.6567 382.96 10.3853 382.96 10.224C382.96 8.66933 381.941 7.892 379.902 7.892C378.787 7.892 377.856 8.178 377.108 8.75C376.375 9.322 375.898 10.0847 375.678 11.038H382.872Z" fill="#609BCA"/>
<path d="M10.284 1.622H12.44L15.322 17H13.1L12.352 13.172H5.554L3.266 17H0.89L10.284 1.622ZM12.154 11.302L10.9 4.108L6.61 11.302H12.154ZM21.0001 1.622H23.2661L20.0101 17H17.7441L21.0001 1.622ZM24.0228 9.542H31.0408L30.6448 11.368H23.6268L24.0228 9.542ZM40.8348 1.622H42.9908L45.8728 17H43.6508L42.9028 13.172H36.1048L33.8168 17H31.4408L40.8348 1.622ZM42.7048 11.302L41.4508 4.108L37.1608 11.302H42.7048ZM52.3226 17.33C51.4572 17.33 50.6799 17.1613 49.9906 16.824C49.3159 16.472 48.7806 15.9733 48.3846 15.328C48.0032 14.6827 47.8126 13.9273 47.8126 13.062C47.8126 12.7247 47.8639 12.2847 47.9666 11.742C48.2012 10.6273 48.6339 9.64467 49.2646 8.794C49.9099 7.94333 50.7019 7.28333 51.6406 6.814C52.5792 6.34467 53.6059 6.11 54.7206 6.11C56.6126 6.11 57.9326 6.68933 58.6806 7.848L60.1986 0.742H62.4206L58.9666 17H56.8106L57.1186 15.46C56.3999 16.1053 55.6592 16.582 54.8966 16.89C54.1339 17.1833 53.2759 17.33 52.3226 17.33ZM53.2026 15.57C54.1119 15.57 54.9552 15.3353 55.7326 14.866C56.5246 14.382 57.1479 13.7367 57.6026 12.93L58.1086 10.554C58.0352 9.74733 57.6979 9.102 57.0966 8.618C56.4952 8.134 55.7399 7.892 54.8306 7.892C53.6572 7.892 52.6526 8.244 51.8166 8.948C50.9952 9.63733 50.4599 10.5687 50.2106 11.742C50.1372 12.05 50.1006 12.402 50.1006 12.798C50.1006 13.678 50.3646 14.36 50.8926 14.844C51.4206 15.328 52.1906 15.57 53.2026 15.57ZM66.5237 17.33C65.6731 17.33 64.9031 17.154 64.2137 16.802C63.5391 16.45 63.0037 15.9513 62.6077 15.306C62.2264 14.6607 62.0357 13.9053 62.0357 13.04C62.0357 12.6293 62.0797 12.1967 62.1677 11.742C62.4024 10.642 62.8497 9.66667 63.5097 8.816C64.1697 7.96533 64.9691 7.30533 65.9077 6.836C66.8611 6.352 67.8657 6.11 68.9217 6.11C70.8137 6.11 72.1337 6.68933 72.8817 7.848L73.1897 6.44H75.4117L73.1677 17H71.0117L71.3197 15.46C70.6011 16.1053 69.8604 16.582 69.0977 16.89C68.3351 17.1833 67.4771 17.33 66.5237 17.33ZM67.4037 15.57C68.3131 15.57 69.1564 15.3353 69.9337 14.866C70.7257 14.382 71.3491 13.7367 71.8037 12.93L72.3097 10.554C72.2364 9.74733 71.8991 9.102 71.2977 8.618C70.6964 8.134 69.9411 7.892 69.0317 7.892C67.9464 7.892 66.9637 8.25133 66.0837 8.97C65.2184 9.674 64.6611 10.598 64.4117 11.742C64.3091 12.2553 64.2577 12.6733 64.2577 12.996C64.2577 14.712 65.3064 15.57 67.4037 15.57ZM78.2752 6.44H80.4312L80.0792 8.002C81.4432 6.74067 83.0492 6.11 84.8972 6.11C86.2612 6.11 87.3538 6.49133 88.1752 7.254C88.9965 8.01667 89.4072 9.05067 89.4072 10.356C89.4072 10.8107 89.3558 11.2653 89.2532 11.72C89.0185 12.8347 88.5785 13.8173 87.9332 14.668C87.3025 15.5187 86.5178 16.1787 85.5792 16.648C84.6552 17.1027 83.6285 17.33 82.4992 17.33C80.7245 17.33 79.4045 16.7507 78.5392 15.592L77.2192 21.818H74.9972L78.2752 6.44ZM82.3672 15.57C83.4672 15.57 84.4498 15.218 85.3152 14.514C86.1952 13.7953 86.7598 12.864 87.0092 11.72C87.0825 11.412 87.1192 11.0527 87.1192 10.642C87.1192 9.77667 86.8552 9.102 86.3272 8.618C85.7992 8.134 85.0218 7.892 83.9952 7.892C83.1005 7.892 82.2645 8.12667 81.4872 8.596C80.7098 9.06533 80.0865 9.71067 79.6172 10.532L79.1112 12.908C79.1992 13.7293 79.5218 14.382 80.0792 14.866C80.6512 15.3353 81.4138 15.57 82.3672 15.57ZM93.7632 17.33C92.8685 17.33 92.1938 17.1247 91.7392 16.714C91.2845 16.2887 91.0572 15.68 91.0572 14.888C91.0572 14.5507 91.1012 14.184 91.1892 13.788L92.3772 8.156H90.7712L91.1452 6.44H92.7512L93.4112 3.272H95.6552L94.9952 6.44H97.5912L97.2172 8.156H94.6212L93.4552 13.634C93.3818 14.03 93.3452 14.3233 93.3452 14.514C93.3452 14.8953 93.4478 15.1667 93.6532 15.328C93.8732 15.4893 94.2398 15.57 94.7532 15.57C94.9732 15.57 95.2225 15.548 95.5012 15.504C95.7945 15.4453 96.0512 15.372 96.2712 15.284L95.8972 17.044C95.3105 17.2347 94.5992 17.33 93.7632 17.33ZM103.73 17.33C102.116 17.33 100.84 16.9633 99.9017 16.23C98.9777 15.482 98.5157 14.4333 98.5157 13.084C98.5157 12.644 98.567 12.1967 98.6697 11.742C99.051 9.982 99.821 8.60333 100.98 7.606C102.153 6.60867 103.693 6.11 105.6 6.11C106.582 6.11 107.426 6.29333 108.13 6.66C108.834 7.012 109.362 7.50333 109.714 8.134C110.08 8.76467 110.264 9.476 110.264 10.268C110.264 10.664 110.22 11.0747 110.132 11.5L109.89 12.6H100.606C100.576 12.864 100.562 13.0547 100.562 13.172C100.562 14.008 100.87 14.6167 101.486 14.998C102.102 15.3793 103.062 15.57 104.368 15.57C105.042 15.57 105.739 15.5113 106.458 15.394C107.176 15.262 107.822 15.0933 108.394 14.888L108.02 16.67C107.506 16.8607 106.846 17.0147 106.04 17.132C105.248 17.264 104.478 17.33 103.73 17.33ZM108.13 11.038C108.188 10.6567 108.218 10.3853 108.218 10.224C108.218 8.66933 107.198 7.892 105.16 7.892C104.045 7.892 103.114 8.178 102.366 8.75C101.632 9.322 101.156 10.0847 100.936 11.038H108.13ZM116.41 17.33C115.545 17.33 114.768 17.1613 114.078 16.824C113.404 16.472 112.868 15.9733 112.472 15.328C112.091 14.6827 111.9 13.9273 111.9 13.062C111.9 12.7247 111.952 12.2847 112.054 11.742C112.289 10.6273 112.722 9.64467 113.352 8.794C113.998 7.94333 114.79 7.28333 115.728 6.814C116.667 6.34467 117.694 6.11 118.808 6.11C120.7 6.11 122.02 6.68933 122.768 7.848L124.286 0.742H126.508L123.054 17H120.898L121.206 15.46C120.488 16.1053 119.747 16.582 118.984 16.89C118.222 17.1833 117.364 17.33 116.41 17.33ZM117.29 15.57C118.2 15.57 119.043 15.3353 119.82 14.866C120.612 14.382 121.236 13.7367 121.69 12.93L122.196 10.554C122.123 9.74733 121.786 9.102 121.184 8.618C120.583 8.134 119.828 7.892 118.918 7.892C117.745 7.892 116.74 8.244 115.904 8.948C115.083 9.63733 114.548 10.5687 114.298 11.742C114.225 12.05 114.188 12.402 114.188 12.798C114.188 13.678 114.452 14.36 114.98 14.844C115.508 15.328 116.278 15.57 117.29 15.57ZM140.814 3.514H136.04L136.436 1.622H148.25L147.854 3.514H143.08L140.22 17H137.954L140.814 3.514ZM147.562 6.44H149.718L149.3 8.332C149.872 7.68667 150.591 7.21 151.456 6.902C152.336 6.594 153.304 6.44 154.36 6.44L153.986 8.178C152.857 8.178 151.852 8.36133 150.972 8.728C150.092 9.09467 149.41 9.674 148.926 10.466L147.54 17H145.318L147.562 6.44ZM158.133 17.33C157.282 17.33 156.512 17.154 155.823 16.802C155.148 16.45 154.613 15.9513 154.217 15.306C153.836 14.6607 153.645 13.9053 153.645 13.04C153.645 12.6293 153.689 12.1967 153.777 11.742C154.012 10.642 154.459 9.66667 155.119 8.816C155.779 7.96533 156.578 7.30533 157.517 6.836C158.47 6.352 159.475 6.11 160.531 6.11C162.423 6.11 163.743 6.68933 164.491 7.848L164.799 6.44H167.021L164.777 17H162.621L162.929 15.46C162.21 16.1053 161.47 16.582 160.707 16.89C159.944 17.1833 159.086 17.33 158.133 17.33ZM159.013 15.57C159.922 15.57 160.766 15.3353 161.543 14.866C162.335 14.382 162.958 13.7367 163.413 12.93L163.919 10.554C163.846 9.74733 163.508 9.102 162.907 8.618C162.306 8.134 161.55 7.892 160.641 7.892C159.556 7.892 158.573 8.25133 157.693 8.97C156.828 9.674 156.27 10.598 156.021 11.742C155.918 12.2553 155.867 12.6733 155.867 12.996C155.867 14.712 156.916 15.57 159.013 15.57ZM169.885 6.44H172.041L171.711 7.958C172.356 7.32733 173.067 6.86533 173.845 6.572C174.637 6.264 175.429 6.11 176.221 6.11C177.335 6.11 178.179 6.396 178.751 6.968C179.337 7.54 179.631 8.29533 179.631 9.234C179.631 9.51267 179.594 9.85 179.521 10.246L178.091 17H175.869L177.255 10.466C177.343 10.0407 177.387 9.674 177.387 9.366C177.387 8.85267 177.225 8.47867 176.903 8.244C176.595 8.00933 176.067 7.892 175.319 7.892C174.615 7.892 173.925 8.06067 173.251 8.398C172.576 8.72067 171.945 9.21933 171.359 9.894L169.863 17H167.641L169.885 6.44ZM184.638 17.33C183.905 17.33 183.142 17.2347 182.35 17.044C181.573 16.868 180.986 16.626 180.59 16.318L180.986 14.426C181.485 14.778 182.086 15.0567 182.79 15.262C183.509 15.4673 184.213 15.57 184.902 15.57C185.694 15.57 186.295 15.4747 186.706 15.284C187.117 15.0933 187.366 14.7853 187.454 14.36C187.483 14.2133 187.498 14.1107 187.498 14.052C187.498 13.8173 187.417 13.6193 187.256 13.458C187.095 13.2967 186.838 13.15 186.486 13.018C186.149 12.8713 185.628 12.688 184.924 12.468C183.941 12.16 183.201 11.808 182.702 11.412C182.218 11.0013 181.976 10.4733 181.976 9.828C181.976 9.62267 181.998 9.41 182.042 9.19C182.497 7.13667 184.191 6.11 187.124 6.11C187.828 6.11 188.495 6.176 189.126 6.308C189.771 6.44 190.277 6.62333 190.644 6.858L190.27 8.706C189.903 8.45667 189.419 8.25867 188.818 8.112C188.217 7.96533 187.593 7.892 186.948 7.892C186.171 7.892 185.555 7.98733 185.1 8.178C184.66 8.36867 184.389 8.706 184.286 9.19C184.257 9.33667 184.242 9.432 184.242 9.476C184.242 9.71067 184.323 9.90133 184.484 10.048C184.66 10.1947 184.917 10.334 185.254 10.466C185.606 10.5833 186.149 10.752 186.882 10.972C187.894 11.2653 188.635 11.6173 189.104 12.028C189.573 12.4387 189.808 12.9667 189.808 13.612C189.808 13.744 189.779 13.986 189.72 14.338C189.295 16.3327 187.601 17.33 184.638 17.33ZM196.289 17.33C195.439 17.33 194.669 17.154 193.979 16.802C193.305 16.45 192.769 15.9513 192.373 15.306C191.992 14.6607 191.801 13.9053 191.801 13.04C191.801 12.6293 191.845 12.1967 191.933 11.742C192.168 10.642 192.615 9.66667 193.275 8.816C193.935 7.96533 194.735 7.30533 195.673 6.836C196.627 6.352 197.631 6.11 198.687 6.11C200.579 6.11 201.899 6.68933 202.647 7.848L202.955 6.44H205.177L202.933 17H200.777L201.085 15.46C200.367 16.1053 199.626 16.582 198.863 16.89C198.101 17.1833 197.243 17.33 196.289 17.33ZM197.169 15.57C198.079 15.57 198.922 15.3353 199.699 14.866C200.491 14.382 201.115 13.7367 201.569 12.93L202.075 10.554C202.002 9.74733 201.665 9.102 201.063 8.618C200.462 8.134 199.707 7.892 198.797 7.892C197.712 7.892 196.729 8.25133 195.849 8.97C194.984 9.674 194.427 10.598 194.177 11.742C194.075 12.2553 194.023 12.6733 194.023 12.996C194.023 14.712 195.072 15.57 197.169 15.57ZM210.845 17.33C209.378 17.33 208.183 16.9487 207.259 16.186C206.35 15.4233 205.895 14.3747 205.895 13.04C205.895 12.6293 205.939 12.1967 206.027 11.742C206.408 9.982 207.23 8.60333 208.491 7.606C209.767 6.60867 211.366 6.11 213.287 6.11C214.9 6.11 216.125 6.42533 216.961 7.056L216.565 8.882C215.758 8.222 214.607 7.892 213.111 7.892C211.938 7.892 210.904 8.222 210.009 8.882C209.129 9.542 208.55 10.4953 208.271 11.742C208.183 12.182 208.139 12.5853 208.139 12.952C208.139 13.832 208.41 14.492 208.953 14.932C209.51 15.3573 210.339 15.57 211.439 15.57C212.92 15.57 214.277 15.218 215.509 14.514L215.113 16.318C214.526 16.67 213.888 16.9267 213.199 17.088C212.51 17.2493 211.725 17.33 210.845 17.33ZM221.38 17.33C220.486 17.33 219.811 17.1247 219.356 16.714C218.902 16.2887 218.674 15.68 218.674 14.888C218.674 14.5507 218.718 14.184 218.806 13.788L219.994 8.156H218.388L218.762 6.44H220.368L221.028 3.272H223.272L222.612 6.44H225.208L224.834 8.156H222.238L221.072 13.634C220.999 14.03 220.962 14.3233 220.962 14.514C220.962 14.8953 221.065 15.1667 221.27 15.328C221.49 15.4893 221.857 15.57 222.37 15.57C222.59 15.57 222.84 15.548 223.118 15.504C223.412 15.4453 223.668 15.372 223.888 15.284L223.514 17.044C222.928 17.2347 222.216 17.33 221.38 17.33ZM229.609 4.372C229.286 4.372 229.03 4.27667 228.839 4.086C228.648 3.89533 228.553 3.65333 228.553 3.36C228.553 2.93467 228.714 2.568 229.037 2.26C229.374 1.93733 229.748 1.776 230.159 1.776C230.482 1.776 230.738 1.87133 230.929 2.062C231.134 2.25267 231.237 2.502 231.237 2.81C231.237 3.23533 231.068 3.602 230.731 3.91C230.408 4.218 230.034 4.372 229.609 4.372ZM228.047 6.44H230.313L228.069 17H225.803L228.047 6.44ZM236.605 17.33C235.065 17.33 233.848 16.956 232.953 16.208C232.073 15.46 231.633 14.426 231.633 13.106C231.633 12.6513 231.684 12.1967 231.787 11.742C232.022 10.6127 232.469 9.62267 233.129 8.772C233.804 7.92133 234.64 7.26867 235.637 6.814C236.649 6.34467 237.771 6.11 239.003 6.11C240.543 6.11 241.753 6.49867 242.633 7.276C243.528 8.03867 243.975 9.08 243.975 10.4C243.975 10.84 243.924 11.2873 243.821 11.742C243.454 13.4727 242.626 14.8367 241.335 15.834C240.059 16.8313 238.482 17.33 236.605 17.33ZM236.979 15.57C238.123 15.57 239.106 15.218 239.927 14.514C240.748 13.81 241.284 12.886 241.533 11.742C241.621 11.302 241.665 10.8913 241.665 10.51C241.665 8.76467 240.646 7.892 238.607 7.892C237.463 7.892 236.48 8.23667 235.659 8.926C234.838 9.61533 234.302 10.554 234.053 11.742C233.965 12.1527 233.921 12.5413 233.921 12.908C233.921 13.7587 234.17 14.4187 234.669 14.888C235.168 15.3427 235.938 15.57 236.979 15.57ZM247.379 6.44H249.535L249.205 7.958C249.85 7.32733 250.561 6.86533 251.339 6.572C252.131 6.264 252.923 6.11 253.715 6.11C254.829 6.11 255.673 6.396 256.245 6.968C256.831 7.54 257.125 8.29533 257.125 9.234C257.125 9.51267 257.088 9.85 257.015 10.246L255.585 17H253.363L254.749 10.466C254.837 10.0407 254.881 9.674 254.881 9.366C254.881 8.85267 254.719 8.47867 254.397 8.244C254.089 8.00933 253.561 7.892 252.813 7.892C252.109 7.892 251.419 8.06067 250.745 8.398C250.07 8.72067 249.439 9.21933 248.853 9.894L247.357 17H245.135L247.379 6.44ZM269.725 1.622H279.867L279.471 3.514H271.573L270.539 8.376H276.435L276.039 10.246H270.143L269.109 15.13H277.007L276.611 17H266.469L269.725 1.622ZM283.629 11.478L280.571 6.44H283.101L285.213 9.938L288.843 6.44H291.373L286.159 11.478L289.525 17H287.017L284.553 13.018L280.439 17H277.931L283.629 11.478ZM294.193 6.44H296.349L295.997 8.002C297.361 6.74067 298.967 6.11 300.815 6.11C302.179 6.11 303.272 6.49133 304.093 7.254C304.914 8.01667 305.325 9.05067 305.325 10.356C305.325 10.8107 305.274 11.2653 305.171 11.72C304.936 12.8347 304.496 13.8173 303.851 14.668C303.22 15.5187 302.436 16.1787 301.497 16.648C300.573 17.1027 299.546 17.33 298.417 17.33C296.642 17.33 295.322 16.7507 294.457 15.592L293.137 21.818H290.915L294.193 6.44ZM298.285 15.57C299.385 15.57 300.368 15.218 301.233 14.514C302.113 13.7953 302.678 12.864 302.927 11.72C303 11.412 303.037 11.0527 303.037 10.642C303.037 9.77667 302.773 9.102 302.245 8.618C301.717 8.134 300.94 7.892 299.913 7.892C299.018 7.892 298.182 8.12667 297.405 8.596C296.628 9.06533 296.004 9.71067 295.535 10.532L295.029 12.908C295.117 13.7293 295.44 14.382 295.997 14.866C296.569 15.3353 297.332 15.57 298.285 15.57ZM312.193 17.33C310.579 17.33 309.303 16.9633 308.365 16.23C307.441 15.482 306.979 14.4333 306.979 13.084C306.979 12.644 307.03 12.1967 307.133 11.742C307.514 9.982 308.284 8.60333 309.443 7.606C310.616 6.60867 312.156 6.11 314.063 6.11C315.045 6.11 315.889 6.29333 316.593 6.66C317.297 7.012 317.825 7.50333 318.177 8.134C318.543 8.76467 318.727 9.476 318.727 10.268C318.727 10.664 318.683 11.0747 318.595 11.5L318.353 12.6H309.069C309.039 12.864 309.025 13.0547 309.025 13.172C309.025 14.008 309.333 14.6167 309.949 14.998C310.565 15.3793 311.525 15.57 312.831 15.57C313.505 15.57 314.202 15.5113 314.921 15.394C315.639 15.262 316.285 15.0933 316.857 14.888L316.483 16.67C315.969 16.8607 315.309 17.0147 314.503 17.132C313.711 17.264 312.941 17.33 312.193 17.33ZM316.593 11.038C316.651 10.6567 316.681 10.3853 316.681 10.224C316.681 8.66933 315.661 7.892 313.623 7.892C312.508 7.892 311.577 8.178 310.829 8.75C310.095 9.322 309.619 10.0847 309.399 11.038H316.593ZM322.101 6.44H324.257L323.839 8.332C324.411 7.68667 325.13 7.21 325.995 6.902C326.875 6.594 327.843 6.44 328.899 6.44L328.525 8.178C327.396 8.178 326.391 8.36133 325.511 8.728C324.631 9.09467 323.949 9.674 323.465 10.466L322.079 17H319.857L322.101 6.44ZM332.626 4.372C332.304 4.372 332.047 4.27667 331.856 4.086C331.666 3.89533 331.57 3.65333 331.57 3.36C331.57 2.93467 331.732 2.568 332.054 2.26C332.392 1.93733 332.766 1.776 333.176 1.776C333.499 1.776 333.756 1.87133 333.946 2.062C334.152 2.25267 334.254 2.502 334.254 2.81C334.254 3.23533 334.086 3.602 333.748 3.91C333.426 4.218 333.052 4.372 332.626 4.372ZM331.064 6.44H333.33L331.086 17H328.82L331.064 6.44ZM339.864 17.33C338.251 17.33 336.975 16.9633 336.036 16.23C335.112 15.482 334.65 14.4333 334.65 13.084C334.65 12.644 334.702 12.1967 334.804 11.742C335.186 9.982 335.956 8.60333 337.114 7.606C338.288 6.60867 339.828 6.11 341.734 6.11C342.717 6.11 343.56 6.29333 344.264 6.66C344.968 7.012 345.496 7.50333 345.848 8.134C346.215 8.76467 346.398 9.476 346.398 10.268C346.398 10.664 346.354 11.0747 346.266 11.5L346.024 12.6H336.74C336.711 12.864 336.696 13.0547 336.696 13.172C336.696 14.008 337.004 14.6167 337.62 14.998C338.236 15.3793 339.197 15.57 340.502 15.57C341.177 15.57 341.874 15.5113 342.592 15.394C343.311 15.262 343.956 15.0933 344.528 14.888L344.154 16.67C343.641 16.8607 342.981 17.0147 342.174 17.132C341.382 17.264 340.612 17.33 339.864 17.33ZM344.264 11.038C344.323 10.6567 344.352 10.3853 344.352 10.224C344.352 8.66933 343.333 7.892 341.294 7.892C340.18 7.892 339.248 8.178 338.5 8.75C337.767 9.322 337.29 10.0847 337.07 11.038H344.264ZM349.773 6.44H351.929L351.599 7.958C352.245 7.32733 352.956 6.86533 353.733 6.572C354.525 6.264 355.317 6.11 356.109 6.11C357.224 6.11 358.067 6.396 358.639 6.968C359.226 7.54 359.519 8.29533 359.519 9.234C359.519 9.51267 359.483 9.85 359.409 10.246L357.979 17H355.757L357.143 10.466C357.231 10.0407 357.275 9.674 357.275 9.366C357.275 8.85267 357.114 8.47867 356.791 8.244C356.483 8.00933 355.955 7.892 355.207 7.892C354.503 7.892 353.814 8.06067 353.139 8.398C352.465 8.72067 351.834 9.21933 351.247 9.894L349.751 17H347.529L349.773 6.44ZM366.199 17.33C364.732 17.33 363.537 16.9487 362.613 16.186C361.703 15.4233 361.249 14.3747 361.249 13.04C361.249 12.6293 361.293 12.1967 361.381 11.742C361.762 9.982 362.583 8.60333 363.845 7.606C365.121 6.60867 366.719 6.11 368.641 6.11C370.254 6.11 371.479 6.42533 372.315 7.056L371.919 8.882C371.112 8.222 369.961 7.892 368.465 7.892C367.291 7.892 366.257 8.222 365.363 8.882C364.483 9.542 363.903 10.4953 363.625 11.742C363.537 12.182 363.493 12.5853 363.493 12.952C363.493 13.832 363.764 14.492 364.307 14.932C364.864 15.3573 365.693 15.57 366.793 15.57C368.274 15.57 369.631 15.218 370.863 14.514L370.467 16.318C369.88 16.67 369.242 16.9267 368.553 17.088C367.863 17.2493 367.079 17.33 366.199 17.33ZM378.472 17.33C376.859 17.33 375.583 16.9633 374.644 16.23C373.72 15.482 373.258 14.4333 373.258 13.084C373.258 12.644 373.309 12.1967 373.412 11.742C373.793 9.982 374.563 8.60333 375.722 7.606C376.895 6.60867 378.435 6.11 380.342 6.11C381.325 6.11 382.168 6.29333 382.872 6.66C383.576 7.012 384.104 7.50333 384.456 8.134C384.823 8.76467 385.006 9.476 385.006 10.268C385.006 10.664 384.962 11.0747 384.874 11.5L384.632 12.6H375.348C375.319 12.864 375.304 13.0547 375.304 13.172C375.304 14.008 375.612 14.6167 376.228 14.998C376.844 15.3793 377.805 15.57 379.11 15.57C379.785 15.57 380.481 15.5113 381.2 15.394C381.919 15.262 382.564 15.0933 383.136 14.888L382.762 16.67C382.249 16.8607 381.589 17.0147 380.782 17.132C379.99 17.264 379.22 17.33 378.472 17.33ZM382.872 11.038C382.931 10.6567 382.96 10.3853 382.96 10.224C382.96 8.66933 381.941 7.892 379.902 7.892C378.787 7.892 377.856 8.178 377.108 8.75C376.375 9.322 375.898 10.0847 375.678 11.038H382.872Z" fill="#666666"/>
</svg>
