<svg width="30" height="30" viewBox="0 0 30 30" fill="none" xmlns="http://www.w3.org/2000/svg">
<path d="M7.45375 19.188L19.4139 15.7203L17.6488 9.63257L5.68869 13.1002L7.45375 19.188Z" fill="#31978C"/>
<path d="M16.5547 10.5898L7.12664 13.3234C7.22819 13.6736 7.01839 14.0422 6.65814 14.1466L7.71344 17.7863C8.07372 17.6819 8.44813 17.8811 8.54965 18.2313L17.9777 15.4977C17.8762 15.1474 18.0859 14.7789 18.4463 14.6744L17.3909 11.0347C17.0306 11.1392 16.6562 10.94 16.5547 10.5898Z" fill="#44C4A1"/>
<path d="M14.1927 13.9345C13.8602 12.7877 12.8562 12.0709 11.9502 12.3336C11.0441 12.5963 10.5792 13.739 10.9117 14.8858C11.2442 16.0327 12.2483 16.7495 13.1543 16.4868C14.0603 16.2241 14.5252 15.0814 14.1927 13.9345Z" fill="#31978C"/>
<path d="M17.1034 13.4379C17.3103 13.4902 17.5204 13.3648 17.5727 13.1579C17.625 12.951 17.4997 12.7409 17.2928 12.6887C17.0859 12.6364 16.8758 12.7617 16.8235 12.9686C16.7712 13.1755 16.8966 13.3856 17.1034 13.4379Z" fill="#31978C"/>
<path d="M12.9483 16.1085L12.8629 15.8139C12.4833 15.8832 12.1098 15.8326 11.7429 15.6621L11.9357 15.2257C12.2185 15.3565 12.4848 15.406 12.7355 15.3743L12.5085 14.5915C12.1834 14.6071 11.9331 14.5761 11.7576 14.4987C11.5821 14.4213 11.4606 14.2662 11.3932 14.0336C11.3258 13.801 11.3517 13.5872 11.4716 13.3919C11.5916 13.1968 11.78 13.0548 12.0371 12.9657L11.9786 12.7639L12.2367 12.6891L12.2963 12.8948C12.5984 12.8307 12.9074 12.8504 13.2233 12.9542L13.0686 13.4014C12.8543 13.3265 12.6396 13.3042 12.4238 13.3346L12.6437 14.093L12.6559 14.0895C12.9862 14.0726 13.2419 14.1049 13.4229 14.1864C13.6042 14.268 13.7289 14.4266 13.7971 14.6618C13.8653 14.8972 13.8375 15.1132 13.7135 15.3093C13.5897 15.5057 13.3928 15.6502 13.1222 15.7432L13.2064 16.0336L12.9483 16.1085ZM11.9086 13.5868C11.8575 13.6671 11.8452 13.7523 11.8713 13.8425C11.8974 13.9326 11.9451 13.996 12.0141 14.0328C12.0828 14.0698 12.1999 14.0905 12.3646 14.0953L12.1622 13.3972C12.0442 13.4432 11.9597 13.5063 11.9086 13.5868ZM13.2709 15.1096C13.3282 15.0261 13.3434 14.9371 13.3161 14.8429C13.2888 14.7488 13.2376 14.6827 13.1625 14.6447C13.0871 14.6067 12.9618 14.587 12.7865 14.5853L12.997 15.3114C13.1222 15.2607 13.2134 15.1934 13.2709 15.1096Z" fill="#44C4A1"/>
<path d="M12.2729 17.7909L14.5953 17.1176L12.8303 11.0298L10.5078 11.7031L12.2729 17.7909Z" fill="#F6C358"/>
<path d="M12.445 17.7418L12.6226 17.6903L10.8575 11.6025L10.6799 11.654L12.445 17.7418Z" fill="white"/>
<path d="M14.2459 17.2185L14.4235 17.167L12.6585 11.0792L12.4809 11.1307L14.2459 17.2185Z" fill="white"/>
<path d="M5.6662 19.3219L18.0975 20.0382L18.4621 13.7106L6.03083 12.9943L5.6662 19.3219Z" fill="#3EA69B"/>
<path d="M6.1705 18.4436L6.43115 13.9242C6.68083 13.9387 6.89488 13.7479 6.90929 13.4983L17.5331 14.111C17.5187 14.3607 17.7094 14.5748 17.9591 14.5892L17.6984 19.1085C17.4487 19.0941 17.2347 19.2848 17.2203 19.5345L6.59647 18.9217C6.61088 18.6721 6.42018 18.458 6.1705 18.4436Z" fill="#44C4A1"/>
<path d="M13.7694 16.6142C13.8381 15.4221 13.1303 14.4118 12.1886 14.3575C11.2469 14.3033 10.4278 15.2256 10.3591 16.4177C10.2904 17.6097 10.9982 18.62 11.9399 18.6743C12.8816 18.7286 13.7007 17.8062 13.7694 16.6142Z" fill="#3EA69B"/>
<path d="M16.799 17.1693C17.0059 17.2216 17.216 17.0963 17.2683 16.8894C17.3206 16.6825 17.1952 16.4724 16.9883 16.4201C16.7814 16.3678 16.5713 16.4932 16.519 16.7001C16.4668 16.907 16.5921 17.1171 16.799 17.1693Z" fill="#3EA69B"/>
<path d="M7.14056 16.6123C7.34745 16.6646 7.55755 16.5393 7.60983 16.3324C7.66211 16.1255 7.53677 15.9154 7.32987 15.8631C7.12298 15.8108 6.91288 15.9362 6.8606 16.143C6.80832 16.3499 6.93366 16.56 7.14056 16.6123Z" fill="#3EA69B"/>
<path d="M11.8723 18.2491L11.89 17.943C11.509 17.8818 11.1737 17.7096 10.8846 17.4265L11.2118 17.0793C11.4348 17.297 11.6695 17.4324 11.9164 17.486L11.9633 16.6724C11.6516 16.5787 11.4259 16.4661 11.2863 16.3346C11.1466 16.2031 11.0838 16.0164 11.0977 15.7746C11.1116 15.5328 11.2074 15.3399 11.3855 15.1957C11.5637 15.0517 11.7886 14.9806 12.0608 14.9823L12.0729 14.7726L12.3411 14.7881L12.3288 15.0019C12.635 15.0421 12.9197 15.1637 13.183 15.3669L12.888 15.737C12.7109 15.5949 12.516 15.5024 12.3024 15.459L12.2569 16.2474L12.2696 16.2481C12.5867 16.3423 12.817 16.4579 12.9604 16.5951C13.1042 16.7325 13.1688 16.9236 13.1547 17.1681C13.1406 17.4128 13.0424 17.6071 12.8602 17.7507C12.6779 17.8946 12.4441 17.9652 12.158 17.9627L12.1406 18.2646L11.8723 18.2491ZM11.7326 15.5252C11.6576 15.5838 11.6176 15.6601 11.6122 15.7538C11.6068 15.8475 11.6305 15.9232 11.6833 15.9808C11.7358 16.0386 11.8393 16.0971 11.993 16.1565L12.0349 15.431C11.9083 15.4349 11.8075 15.4663 11.7326 15.5252ZM12.5094 17.4149C12.5913 17.3553 12.6352 17.2765 12.6408 17.1785C12.6465 17.0808 12.6202 17.0014 12.5621 16.9405C12.5036 16.8796 12.3921 16.8192 12.2274 16.7592L12.1839 17.514C12.3188 17.5079 12.4272 17.4748 12.5094 17.4149Z" fill="#44C4A1"/>
<path d="M20.523 22.0125L15.6412 25.6249C15.438 25.7625 15.2227 25.85 14.9955 25.9125C14.8043 25.975 14.589 26 14.3859 26C14.3859 26 12.3773 26 10.8111 26H8.98175C8.52763 26 8.06123 25.8874 7.64274 25.6749L3 23.2625V16H6.49508C7.09279 16 7.6667 16.1874 8.15691 16.525L10.8111 18.3749L10.9905 18.5H13.8C14.4576 18.5 14.9955 19.0625 14.9955 19.75C14.9955 20.4375 14.4576 21 13.8 21H8.30034C7.96555 21 7.70264 21.2749 7.70264 21.6249C7.70264 21.975 7.95357 22.2375 8.28836 22.25H15.139C15.2347 22.25 15.3303 22.225 15.426 22.175L19.0883 20.0124C19.71 19.5374 20.4035 19.7625 20.7621 20.2624C21.1567 20.8125 21.0492 21.5999 20.523 22.0125Z" fill="#FFDBC0"/>
<path d="M1.99991 25H0.66658C0.298243 25 0 24.7204 0 24.3749V15.6249C0 15.2796 0.298243 15 0.66658 15H1.99991C3.10284 15 4 15.8411 4 16.8749V23.1249C4 24.1589 3.10284 25 1.99991 25Z" fill="#4A696F"/>
<path d="M27.1523 11.8066H30V12.9623H27.1523V16H25.8477V12.9623H23V11.8066H25.8477V9H27.1523V11.8066Z" fill="#44C4A1"/>
</svg>
