<svg width="30" height="30" viewBox="0 0 30 30" fill="none" xmlns="http://www.w3.org/2000/svg">
<g clip-path="url(#clip0)">
<path d="M17 8.28636C15.6853 11.4803 15.0247 14.5684 14.5027 18C12.7004 17.8675 11.8749 17.7683 10.092 17.4683C10.4095 14.012 10.5098 10.8564 10 7.44248C13.0223 6.69503 14.2447 6.84239 17 8.28636Z" fill="#3EA69B"/>
<path d="M13.3437 18C12.2171 17.8784 11.669 17.8108 10.5463 17.655C10.5917 17.2325 10.3475 16.8567 10 16.8111C10.2305 13.8304 10.2997 11.1203 10.109 8.14539C10.6196 7.9985 11.0239 7.59857 10.9996 7.18897C12.7867 6.83862 13.7063 6.95204 15.3595 7.72673C15.2399 8.11858 15.5387 8.60525 16 8.87201C15.1168 11.7145 14.5477 14.363 14.0719 17.3133C13.7241 17.2731 13.3988 17.5787 13.3437 18Z" fill="#44C4A1"/>
<path d="M12.8614 11.0392C13.902 11.1664 14.5646 12.1083 14.4066 12.9018C14.2487 13.6953 13.4086 14.182 12.4972 14.0706C11.5859 13.9592 10.8854 13.2842 10.9198 12.4756C10.9544 11.667 11.821 10.9121 12.8614 11.0392Z" fill="#3EA69B"/>
<path d="M13.2363 7.91904C13.4665 7.94717 13.6279 8.13586 13.5993 8.32411C13.5707 8.51235 13.3723 8.63167 13.1539 8.60497C12.9356 8.57828 12.7712 8.4146 12.788 8.22496C12.8047 8.03524 13.0062 7.89091 13.2363 7.91904Z" fill="#3EA69B"/>
<path d="M12.204 16.5072C12.0504 16.4887 11.9075 16.6273 11.8847 16.8166C11.8619 17.0059 11.9679 17.1744 12.1215 17.1929C12.2751 17.2113 12.418 17.0728 12.4408 16.8835C12.4635 16.6941 12.3575 16.5257 12.204 16.5072Z" fill="#3EA69B"/>
<path d="M13.9553 13.268C13.8529 13.2454 13.8016 13.2346 13.6989 13.2138C13.6061 13.5219 13.4284 13.7805 13.1702 14C13.0679 13.8793 13.0163 13.8191 12.9116 13.6993C13.1104 13.5267 13.2458 13.343 13.3146 13.1417C13.0402 13.0942 12.9024 13.0738 12.6258 13.0406C12.5244 13.2987 12.4152 13.484 12.2971 13.5972C12.1789 13.7103 12.0211 13.7575 11.821 13.7424C11.6208 13.7274 11.4645 13.6476 11.3484 13.5009C11.2325 13.3543 11.1758 13.1704 11.1804 12.9453C11.1083 12.9443 11.0723 12.944 11 12.9438C11.0059 12.8554 11.0087 12.8111 11.0142 12.7227C11.0886 12.7224 11.1258 12.7224 11.2001 12.723C11.2377 12.4683 11.3451 12.2268 11.531 12C11.6634 12.0925 11.7286 12.1402 11.8569 12.2379C11.7254 12.3877 11.6399 12.5526 11.5969 12.7318C11.8702 12.7419 12.0067 12.7504 12.2786 12.775C12.2791 12.7707 12.2793 12.7686 12.2798 12.7643C12.3782 12.4994 12.4931 12.3088 12.6242 12.1945C12.7555 12.08 12.9323 12.0369 13.1497 12.0717C13.3673 12.1066 13.5311 12.2137 13.6376 12.3842C13.7446 12.5547 13.7784 12.7581 13.7449 12.9945C13.847 13.0159 13.8982 13.027 14 13.0502C13.9819 13.1372 13.973 13.1808 13.9553 13.268ZM11.6369 13.208C11.6842 13.2705 11.7471 13.3042 11.8261 13.3095C11.905 13.3147 11.97 13.2957 12.0213 13.2525C12.0726 13.2093 12.1276 13.1234 12.1865 12.9951C11.9387 12.9737 11.8145 12.9659 11.5656 12.9558C11.5655 13.0616 11.5894 13.1454 11.6369 13.208ZM13.3093 12.638C13.2652 12.5633 13.2003 12.5184 13.1151 12.505C13.03 12.4916 12.9583 12.5075 12.9007 12.5521C12.843 12.597 12.7822 12.6871 12.7187 12.8225C12.9777 12.8551 13.1069 12.8749 13.3639 12.9208C13.3715 12.8073 13.3535 12.713 13.3093 12.638Z" fill="#44C4A1"/>
<path d="M19 11.3846C16.8709 14.0372 15.3741 16.8248 13.9061 20C12.2855 19.2117 11.5544 18.8128 10 17.8673C11.2869 14.5931 12.2875 11.5347 12.8009 8C15.7974 8.37078 16.8799 8.96188 19 11.3846Z" fill="#3EA69B"/>
<path d="M12.8294 19C11.7951 18.4823 11.2944 18.2224 10.2737 17.6739C10.4395 17.2932 10.3166 16.8524 10 16.6852C11.0838 13.9664 11.9358 11.4442 12.618 8.57992C13.1454 8.62472 13.6453 8.39362 13.7411 8C15.5394 8.31075 16.3796 8.74671 17.7242 10.0668C17.497 10.3923 17.6395 10.9567 18 11.3726C16.3367 13.7276 15.0279 16.0131 13.72 18.6155C13.4015 18.4531 13.004 18.6238 12.8294 19Z" fill="#44C4A1"/>
<path d="M14.4245 12.3586C15.3642 12.8551 15.7133 13.9929 15.3355 14.6934C14.9576 15.3939 14.0285 15.5556 13.2055 15.1208C12.3826 14.6859 11.9205 13.7892 12.1869 13.0298C12.4533 12.2704 13.485 11.8622 14.4245 12.3586Z" fill="#3EA69B"/>
<path d="M15.6792 9.51557C15.8871 9.62541 15.984 9.86372 15.9027 10.0331C15.8214 10.2024 15.6007 10.2448 15.4035 10.1406C15.2063 10.0364 15.0994 9.82092 15.1701 9.64596C15.2407 9.47091 15.4715 9.40576 15.6792 9.51557Z" fill="#3EA69B"/>
<path d="M12.2265 17.3388C12.3658 17.4124 12.4163 17.6119 12.3395 17.784C12.2629 17.9562 12.0887 18.0367 11.9506 17.9637C11.8125 17.8907 11.7619 17.6915 11.8375 17.5187C11.913 17.3459 12.0872 17.2652 12.2265 17.3388Z" fill="#3EA69B"/>
<path d="M14.8791 14.4529C14.7832 14.3857 14.7351 14.3526 14.6382 14.2874C14.4372 14.6121 14.1673 14.8451 13.8295 15C13.768 14.8176 13.7366 14.7264 13.6724 14.5442C13.9337 14.4206 14.1347 14.2588 14.2743 14.0498C14.0131 13.8848 13.8806 13.8061 13.6122 13.6571C13.4198 13.9197 13.2448 14.0939 13.0858 14.1798C12.9267 14.2656 12.7506 14.2581 12.5532 14.1609C12.3558 14.0636 12.2254 13.9077 12.1588 13.6894C12.0925 13.4712 12.0992 13.2327 12.1821 12.9703C12.1095 12.9404 12.0731 12.9257 12 12.8968C12.0367 12.7952 12.055 12.7445 12.0913 12.6428C12.1668 12.672 12.2044 12.6869 12.2794 12.7171C12.4061 12.4331 12.5988 12.1922 12.866 12C12.9678 12.1612 13.0172 12.2432 13.1131 12.4089C12.9278 12.5324 12.7839 12.6921 12.678 12.8853C12.9512 13.0059 13.0864 13.0702 13.3531 13.2071C13.3551 13.2023 13.3561 13.1999 13.3581 13.1951C13.5499 12.9232 13.7326 12.7451 13.905 12.6632C14.0778 12.581 14.2717 12.6008 14.4797 12.7281C14.6879 12.8555 14.8163 13.0465 14.8649 13.289C14.9138 13.5317 14.8773 13.7839 14.7611 14.0481C14.8571 14.1138 14.9049 14.1473 15 14.215C14.9514 14.31 14.9273 14.3576 14.8791 14.4529ZM12.5529 13.4603C12.5791 13.5526 12.631 13.617 12.7091 13.6547C12.7872 13.6923 12.8595 13.6958 12.9266 13.6655C12.9936 13.6351 13.0791 13.5561 13.1833 13.429C12.94 13.3053 12.8169 13.2468 12.5685 13.1359C12.5316 13.26 12.5266 13.368 12.5529 13.4603ZM14.4442 13.4564C14.4256 13.3512 14.3755 13.2727 14.2939 13.223C14.2125 13.1734 14.1343 13.1636 14.0605 13.193C13.9865 13.2228 13.8935 13.3043 13.7822 13.4381C14.033 13.5794 14.1569 13.654 14.4011 13.81C14.4483 13.6799 14.4629 13.5621 14.4442 13.4564Z" fill="#44C4A1"/>
<path d="M16 16.3629C16 15.5759 15.3694 14.9379 14.5916 14.9379H14.4959C13.1505 14.8138 12.0855 14.8586 11.3396 14.9379H11.1523V14.9593C10.4707 15.0427 10.1041 15.1487 10.1041 15.1487L10.0293 13L9.04167 13.2067C8.47864 13.3314 7.96747 13.6231 7.57654 14.0431L5.42112 16.3585C4.88479 16.9347 4.12928 17.2625 3.33764 17.2625H3.065L2 24.915L4.69799 24.9384C8.53198 26.4373 13.1469 25.9101 13.1469 25.9101H13.5434C14.3213 25.9101 14.9518 25.2721 14.9518 24.4851C14.9518 23.9118 14.6163 23.4188 14.1338 23.1927H14.2312C15.0091 23.1927 15.6397 22.5547 15.6397 21.7678C15.6397 21.2022 15.3131 20.715 14.8411 20.4848C15.4997 20.3655 16 19.7842 16 19.0835C16 18.4448 15.5845 17.9042 15.012 17.7232C15.5845 17.5422 16 17.0017 16 16.3629Z" fill="#FFDBC0"/>
<path d="M4 24.5V18.5C4 17.1193 2.88071 16 1.5 16C0.119288 16 -1 17.1193 -1 18.5V24.5C-1 25.8807 0.119288 27 1.5 27C2.88071 27 4 25.8807 4 24.5Z" fill="#27A2DB"/>
<path d="M1.5 26C1.77614 26 2 25.7761 2 25.5C2 25.2239 1.77614 25 1.5 25C1.22386 25 1 25.2239 1 25.5C1 25.7761 1.22386 26 1.5 26Z" fill="#1C75A1"/>
<path d="M29 14H21V12H29V14Z" fill="#E9001E"/>
</g>
<defs>
<clipPath id="clip0">
<rect width="30" height="30" fill="white"/>
</clipPath>
</defs>
</svg>
