<svg width="30" height="30" viewBox="0 0 30 30" fill="none" xmlns="http://www.w3.org/2000/svg">
<path d="M28.125 7.73438H1.875V26.0156H28.125V7.73438Z" fill="#FFE1B2"/>
<path d="M28.125 23.2031H1.875V26.0156H28.125V23.2031Z" fill="#FFB980"/>
<path d="M28.125 6.79688H1.875V10.0781H28.125V6.79688Z" fill="#FFB980"/>
<path d="M11.25 11.0156H4.6875C4.42863 11.0156 4.21875 11.2255 4.21875 11.4844V25.5469H11.7188V11.4844C11.7188 11.2255 11.5089 11.0156 11.25 11.0156Z" fill="#7E5C62"/>
<path d="M29.5312 26.4844H0.46875C0.209648 26.4844 0 26.2747 0 26.0156C0 25.7565 0.209648 25.5469 0.46875 25.5469H29.5312C29.7904 25.5469 30 25.7565 30 26.0156C30 26.2747 29.7904 26.4844 29.5312 26.4844Z" fill="#5C546A"/>
<path d="M10.3125 19.9219C10.0534 19.9219 9.84375 19.7122 9.84375 19.4531V18.5156C9.84375 18.2565 10.0534 18.0469 10.3125 18.0469C10.5716 18.0469 10.7812 18.2565 10.7812 18.5156V19.4531C10.7812 19.7122 10.5716 19.9219 10.3125 19.9219Z" fill="#5C546A"/>
<path d="M2.34375 9.14062C1.56709 9.14062 0.9375 8.51104 0.9375 7.73438V4.45312C0.9375 3.93533 1.35721 3.51562 1.875 3.51562H3.75V7.73438C3.75 8.51104 3.12041 9.14062 2.34375 9.14062Z" fill="#FF4F19"/>
<path d="M5.15625 9.14062C4.37959 9.14062 3.75 8.51104 3.75 7.73438V3.51562H6.5625V7.73438C6.5625 8.51104 5.93291 9.14062 5.15625 9.14062Z" fill="#E9001E"/>
<path d="M7.96875 9.14062C7.19209 9.14062 6.5625 8.51104 6.5625 7.73438V3.51562H9.375V7.73438C9.375 8.51104 8.74541 9.14062 7.96875 9.14062Z" fill="#FF4F19"/>
<path d="M10.7812 9.14062C10.0046 9.14062 9.375 8.51104 9.375 7.73438V3.51562H12.1875V7.73438C12.1875 8.51104 11.5579 9.14062 10.7812 9.14062Z" fill="#E9001E"/>
<path d="M13.5938 9.14062C12.8171 9.14062 12.1875 8.51104 12.1875 7.73438V3.51562H15V7.73438C15 8.51104 14.3704 9.14062 13.5938 9.14062Z" fill="#FF4F19"/>
<path d="M16.4062 9.14062C15.6296 9.14062 15 8.51104 15 7.73438V3.51562H17.8125V7.73438C17.8125 8.51104 17.1829 9.14062 16.4062 9.14062Z" fill="#E9001E"/>
<path d="M19.2188 9.14062C18.4421 9.14062 17.8125 8.51104 17.8125 7.73438V3.51562H20.625V7.73438C20.625 8.51104 19.9954 9.14062 19.2188 9.14062Z" fill="#FF4F19"/>
<path d="M22.0312 9.14062C21.2546 9.14062 20.625 8.51104 20.625 7.73438V3.51562H23.4375V7.73438C23.4375 8.51104 22.8079 9.14062 22.0312 9.14062Z" fill="#E9001E"/>
<path d="M24.8438 9.14062C24.0671 9.14062 23.4375 8.51104 23.4375 7.73438V3.51562H26.25V7.73438C26.25 8.51104 25.6204 9.14062 24.8438 9.14062Z" fill="#FF4F19"/>
<path d="M27.6562 9.14062C26.8796 9.14062 26.25 8.51104 26.25 7.73438V3.51562H28.125C28.6428 3.51562 29.0625 3.93533 29.0625 4.45312V7.73438C29.0625 8.51104 28.4329 9.14062 27.6562 9.14062Z" fill="#E9001E"/>
<path d="M25.7812 11.4844H14.0625C13.8036 11.4844 13.5938 11.6943 13.5938 11.9531V21.3281C13.5938 21.587 13.8036 21.7969 14.0625 21.7969H25.7812C26.0401 21.7969 26.25 21.587 26.25 21.3281V11.9531C26.25 11.6943 26.0401 11.4844 25.7812 11.4844Z" fill="#53DCFF"/>
<path d="M23.2961 21.7969H25.7812C26.0401 21.7969 26.2499 21.587 26.2499 21.3281V20.7732L16.9611 11.4844H13.5937C13.4276 11.4844 13.2886 11.5758 13.2053 11.7061L23.2961 21.7969Z" fill="#B3F4FF"/>
<path d="M19.5737 11.4844L26.2499 18.1606V16.1719L21.5624 11.4844H19.5737Z" fill="white"/>
<path d="M25.7812 22.2656H14.0625C13.5457 22.2656 13.125 21.8449 13.125 21.3281V11.9531C13.125 11.4363 13.5457 11.0156 14.0625 11.0156H25.7812C26.298 11.0156 26.7188 11.4363 26.7188 11.9531V21.3281C26.7188 21.8449 26.298 22.2656 25.7812 22.2656ZM14.0625 11.9531V21.3281H25.7822L25.7812 11.9531H14.0625Z" fill="#7E5C62"/>
<path d="M10.3125 17.1094H5.625C5.36613 17.1094 5.15625 16.8995 5.15625 16.6406V12.4219C5.15625 12.163 5.36613 11.9531 5.625 11.9531H10.3125C10.5714 11.9531 10.7812 12.163 10.7812 12.4219V16.6406C10.7812 16.8995 10.5714 17.1094 10.3125 17.1094Z" fill="#53DCFF"/>
<path d="M7.97455 11.9531H5.625C5.36613 11.9531 5.15625 12.163 5.15625 12.4219V13.1123L9.15328 17.1094H10.3125C10.5714 17.1094 10.7812 16.8995 10.7812 16.6406V14.7598L7.97455 11.9531Z" fill="#B3F4FF"/>
</svg>
