<svg width="337" height="162" viewBox="0 0 337 162" fill="none" xmlns="http://www.w3.org/2000/svg">
<path d="M3.76953 14.4453H12.2461C16.1784 14.4453 19.0169 15.0182 20.7617 16.1641C22.5195 17.3099 23.3984 19.1198 23.3984 21.5938C23.3984 23.2604 22.9688 24.6471 22.1094 25.7539C21.25 26.8607 20.013 27.5573 18.3984 27.8438V28.0391C20.4036 28.4167 21.875 29.1654 22.8125 30.2852C23.763 31.3919 24.2383 32.8958 24.2383 34.7969C24.2383 37.362 23.3398 39.3737 21.543 40.832C19.7591 42.2773 17.2721 43 14.082 43H3.76953V14.4453ZM8.4375 26.2422H12.9297C14.8828 26.2422 16.3086 25.9362 17.207 25.3242C18.1055 24.6992 18.5547 23.6445 18.5547 22.1602C18.5547 20.819 18.0664 19.849 17.0898 19.25C16.1263 18.651 14.5898 18.3516 12.4805 18.3516H8.4375V26.2422ZM8.4375 30.0312V39.0742H13.3984C15.3516 39.0742 16.8229 38.7031 17.8125 37.9609C18.8151 37.2057 19.3164 36.0208 19.3164 34.4062C19.3164 32.9219 18.8086 31.8216 17.793 31.1055C16.7773 30.3893 15.2344 30.0312 13.1641 30.0312H8.4375ZM39.1211 43.3906C35.7617 43.3906 33.1315 42.4141 31.2305 40.4609C29.3424 38.4948 28.3984 35.793 28.3984 32.3555C28.3984 28.8268 29.2773 26.0534 31.0352 24.0352C32.793 22.0169 35.2083 21.0078 38.2812 21.0078C41.1328 21.0078 43.3854 21.8737 45.0391 23.6055C46.6927 25.3372 47.5195 27.7201 47.5195 30.7539V33.2344H33.125C33.1901 35.3307 33.7565 36.9453 34.8242 38.0781C35.8919 39.1979 37.3958 39.7578 39.3359 39.7578C40.612 39.7578 41.7969 39.6406 42.8906 39.4062C43.9974 39.1589 45.1823 38.7552 46.4453 38.1953V41.9258C45.3255 42.4596 44.1927 42.8372 43.0469 43.0586C41.901 43.2799 40.5924 43.3906 39.1211 43.3906ZM38.2812 24.4844C36.8229 24.4844 35.651 24.9466 34.7656 25.8711C33.8932 26.7956 33.3724 28.1432 33.2031 29.9141H43.0078C42.9818 28.1302 42.5521 26.7826 41.7188 25.8711C40.8854 24.9466 39.7396 24.4844 38.2812 24.4844ZM66.25 43L65.332 39.9922H65.1758C64.1341 41.3073 63.0859 42.2057 62.0312 42.6875C60.9766 43.1562 59.6224 43.3906 57.9688 43.3906C55.8464 43.3906 54.1862 42.8177 52.9883 41.6719C51.8034 40.526 51.2109 38.9049 51.2109 36.8086C51.2109 34.582 52.0378 32.9023 53.6914 31.7695C55.3451 30.6367 57.8646 30.0182 61.25 29.9141L64.9805 29.7969V28.6445C64.9805 27.2643 64.6549 26.2357 64.0039 25.5586C63.3659 24.8685 62.3698 24.5234 61.0156 24.5234C59.9089 24.5234 58.8477 24.6862 57.832 25.0117C56.8164 25.3372 55.8398 25.7214 54.9023 26.1641L53.418 22.8828C54.5898 22.2708 55.8724 21.8086 57.2656 21.4961C58.6589 21.1706 59.974 21.0078 61.2109 21.0078C63.9583 21.0078 66.0286 21.6068 67.4219 22.8047C68.8281 24.0026 69.5312 25.8841 69.5312 28.4492V43H66.25ZM59.4141 39.875C61.0807 39.875 62.4154 39.4128 63.418 38.4883C64.4336 37.5508 64.9414 36.2422 64.9414 34.5625V32.6875L62.168 32.8047C60.0065 32.8828 58.431 33.2474 57.4414 33.8984C56.4648 34.5365 55.9766 35.5195 55.9766 36.8477C55.9766 37.8112 56.263 38.5599 56.8359 39.0938C57.4089 39.6146 58.2682 39.875 59.4141 39.875ZM91.1719 43L90.5273 40.168H90.293C89.6549 41.1706 88.7435 41.9583 87.5586 42.5312C86.3867 43.1042 85.0456 43.3906 83.5352 43.3906C80.918 43.3906 78.9648 42.7396 77.6758 41.4375C76.3867 40.1354 75.7422 38.1628 75.7422 35.5195V21.3984H80.3711V34.7188C80.3711 36.3724 80.7096 37.6159 81.3867 38.4492C82.0638 39.2695 83.125 39.6797 84.5703 39.6797C86.4974 39.6797 87.9102 39.1068 88.8086 37.9609C89.7201 36.8021 90.1758 34.8685 90.1758 32.1602V21.3984H94.7852V43H91.1719ZM109.375 39.6797C110.495 39.6797 111.615 39.5039 112.734 39.1523V42.6094C112.227 42.8307 111.569 43.013 110.762 43.1562C109.967 43.3125 109.141 43.3906 108.281 43.3906C103.932 43.3906 101.758 41.099 101.758 36.5156V24.875H98.8086V22.8438L101.973 21.1641L103.535 16.5938H106.367V21.3984H112.52V24.875H106.367V36.4375C106.367 37.5443 106.641 38.3646 107.188 38.8984C107.747 39.4193 108.477 39.6797 109.375 39.6797ZM113.789 21.3984H118.789L123.184 33.6445C123.848 35.3893 124.29 37.0299 124.512 38.5664H124.668C124.785 37.8503 125 36.9844 125.312 35.9688C125.625 34.9401 127.279 30.0833 130.273 21.3984H135.234L125.996 45.8711C124.316 50.3633 121.517 52.6094 117.598 52.6094C116.582 52.6094 115.592 52.4987 114.629 52.2773V48.6445C115.319 48.8008 116.107 48.8789 116.992 48.8789C119.206 48.8789 120.762 47.5964 121.66 45.0312L122.461 43L113.789 21.3984ZM155.273 30.6367H147.5V27.1602H155.273V19.1914H158.789V27.1602H166.582V30.6367H158.789V38.5664H155.273V30.6367Z" fill="#FD6161"/>
<path d="M3.7666 90.1504H7.39648C9.10156 90.1504 10.335 90.4053 11.0967 90.915C11.8584 91.4248 12.2393 92.2305 12.2393 93.332C12.2393 94.0938 12.0254 94.7236 11.5977 95.2217C11.1758 95.7139 10.5576 96.0332 9.74316 96.1797V96.2676C11.6943 96.6016 12.6699 97.627 12.6699 99.3438C12.6699 100.492 12.2803 101.389 11.501 102.033C10.7275 102.678 9.64355 103 8.24902 103H3.7666V90.1504ZM5.26074 95.6523H7.72168C8.77637 95.6523 9.53516 95.4883 9.99805 95.1602C10.4609 94.8262 10.6924 94.2666 10.6924 93.4814C10.6924 92.7607 10.4346 92.2422 9.91895 91.9258C9.40332 91.6035 8.58301 91.4424 7.45801 91.4424H5.26074V95.6523ZM5.26074 96.918V101.726H7.94141C8.97852 101.726 9.75781 101.526 10.2793 101.128C10.8066 100.724 11.0703 100.094 11.0703 99.2383C11.0703 98.4414 10.8008 97.8555 10.2617 97.4805C9.72852 97.1055 8.91406 96.918 7.81836 96.918H5.26074ZM19.6133 93.1914C20.041 93.1914 20.4248 93.2266 20.7646 93.2969L20.5625 94.6504C20.1641 94.5625 19.8125 94.5186 19.5078 94.5186C18.7285 94.5186 18.0605 94.835 17.5039 95.4678C16.9531 96.1006 16.6777 96.8887 16.6777 97.832V103H15.2188V93.3672H16.4229L16.5898 95.1514H16.6602C17.0176 94.5244 17.4482 94.041 17.9521 93.7012C18.4561 93.3613 19.0098 93.1914 19.6133 93.1914ZM24.0254 103H22.5664V93.3672H24.0254V103ZM22.4434 90.7568C22.4434 90.4229 22.5254 90.1797 22.6895 90.0273C22.8535 89.8691 23.0586 89.79 23.3047 89.79C23.5391 89.79 23.7412 89.8691 23.9111 90.0273C24.0811 90.1855 24.166 90.4287 24.166 90.7568C24.166 91.085 24.0811 91.3311 23.9111 91.4951C23.7412 91.6533 23.5391 91.7324 23.3047 91.7324C23.0586 91.7324 22.8535 91.6533 22.6895 91.4951C22.5254 91.3311 22.4434 91.085 22.4434 90.7568ZM33.7109 103V96.7686C33.7109 95.9834 33.5322 95.3975 33.1748 95.0107C32.8174 94.624 32.2578 94.4307 31.4961 94.4307C30.4883 94.4307 29.75 94.7031 29.2812 95.248C28.8125 95.793 28.5781 96.6924 28.5781 97.9463V103H27.1191V93.3672H28.3057L28.543 94.6855H28.6133C28.9121 94.2109 29.3311 93.8447 29.8701 93.5869C30.4092 93.3232 31.0098 93.1914 31.6719 93.1914C32.832 93.1914 33.7051 93.4727 34.291 94.0352C34.877 94.5918 35.1699 95.4854 35.1699 96.7158V103H33.7109ZM46.0596 93.3672V94.29L44.2754 94.501C44.4395 94.7061 44.5859 94.9756 44.7148 95.3096C44.8438 95.6377 44.9082 96.0098 44.9082 96.4258C44.9082 97.3691 44.5859 98.1221 43.9414 98.6846C43.2969 99.2471 42.4121 99.5283 41.2871 99.5283C41 99.5283 40.7305 99.5049 40.4785 99.458C39.8574 99.7861 39.5469 100.199 39.5469 100.697C39.5469 100.961 39.6553 101.157 39.8721 101.286C40.0889 101.409 40.4609 101.471 40.9883 101.471H42.6934C43.7363 101.471 44.5361 101.69 45.0928 102.13C45.6553 102.569 45.9365 103.208 45.9365 104.046C45.9365 105.112 45.5088 105.924 44.6533 106.48C43.7979 107.043 42.5498 107.324 40.9092 107.324C39.6494 107.324 38.6768 107.09 37.9912 106.621C37.3115 106.152 36.9717 105.49 36.9717 104.635C36.9717 104.049 37.1592 103.542 37.5342 103.114C37.9092 102.687 38.4365 102.396 39.1162 102.244C38.8701 102.133 38.6621 101.96 38.4922 101.726C38.3281 101.491 38.2461 101.219 38.2461 100.908C38.2461 100.557 38.3398 100.249 38.5273 99.9854C38.7148 99.7217 39.0107 99.4668 39.415 99.2207C38.917 99.0156 38.5098 98.667 38.1934 98.1748C37.8828 97.6826 37.7275 97.1201 37.7275 96.4873C37.7275 95.4326 38.0439 94.6211 38.6768 94.0527C39.3096 93.4785 40.2061 93.1914 41.3662 93.1914C41.8701 93.1914 42.3242 93.25 42.7285 93.3672H46.0596ZM38.3779 104.617C38.3779 105.139 38.5977 105.534 39.0371 105.804C39.4766 106.073 40.1064 106.208 40.9268 106.208C42.1514 106.208 43.0566 106.023 43.6426 105.654C44.2344 105.291 44.5303 104.796 44.5303 104.169C44.5303 103.647 44.3691 103.284 44.0469 103.079C43.7246 102.88 43.1182 102.78 42.2275 102.78H40.4785C39.8164 102.78 39.3008 102.938 38.9316 103.255C38.5625 103.571 38.3779 104.025 38.3779 104.617ZM39.1689 96.4521C39.1689 97.126 39.3594 97.6357 39.7402 97.9814C40.1211 98.3271 40.6514 98.5 41.3311 98.5C42.7549 98.5 43.4668 97.8086 43.4668 96.4258C43.4668 94.9785 42.7461 94.2549 41.3047 94.2549C40.6191 94.2549 40.0918 94.4395 39.7227 94.8086C39.3535 95.1777 39.1689 95.7256 39.1689 96.4521ZM57.1953 93.209C58.4609 93.209 59.4424 93.6426 60.1396 94.5098C60.8428 95.3711 61.1943 96.5928 61.1943 98.1748C61.1943 99.7568 60.8398 100.987 60.1309 101.866C59.4277 102.739 58.4492 103.176 57.1953 103.176C56.5684 103.176 55.9941 103.062 55.4727 102.833C54.957 102.599 54.5234 102.241 54.1719 101.761H54.0664L53.7588 103H52.7129V89.3242H54.1719V92.6465C54.1719 93.3906 54.1484 94.0586 54.1016 94.6504H54.1719C54.8516 93.6895 55.8594 93.209 57.1953 93.209ZM56.9844 94.4307C55.9883 94.4307 55.2705 94.7178 54.8311 95.292C54.3916 95.8604 54.1719 96.8213 54.1719 98.1748C54.1719 99.5283 54.3975 100.498 54.8486 101.084C55.2998 101.664 56.0234 101.954 57.0195 101.954C57.916 101.954 58.584 101.629 59.0234 100.979C59.4629 100.322 59.6826 99.3818 59.6826 98.1572C59.6826 96.9033 59.4629 95.9688 59.0234 95.3535C58.584 94.7383 57.9043 94.4307 56.9844 94.4307ZM67.8213 103.176C66.3975 103.176 65.2725 102.742 64.4463 101.875C63.626 101.008 63.2158 99.8037 63.2158 98.2627C63.2158 96.71 63.5967 95.4766 64.3584 94.5625C65.126 93.6484 66.1543 93.1914 67.4434 93.1914C68.6504 93.1914 69.6055 93.5898 70.3086 94.3867C71.0117 95.1777 71.3633 96.2236 71.3633 97.5244V98.4473H64.7275C64.7568 99.5781 65.041 100.437 65.5801 101.022C66.125 101.608 66.8896 101.901 67.874 101.901C68.9111 101.901 69.9365 101.685 70.9502 101.251V102.552C70.4346 102.774 69.9453 102.933 69.4824 103.026C69.0254 103.126 68.4717 103.176 67.8213 103.176ZM67.4258 94.4131C66.6523 94.4131 66.0342 94.665 65.5713 95.1689C65.1143 95.6729 64.8447 96.3701 64.7627 97.2607H69.7988C69.7988 96.3408 69.5938 95.6377 69.1836 95.1514C68.7734 94.6592 68.1875 94.4131 67.4258 94.4131ZM79.7832 103L79.4932 101.629H79.4229C78.9424 102.232 78.4619 102.643 77.9814 102.859C77.5068 103.07 76.9121 103.176 76.1973 103.176C75.2422 103.176 74.4922 102.93 73.9473 102.438C73.4082 101.945 73.1387 101.245 73.1387 100.337C73.1387 98.3916 74.6943 97.3721 77.8057 97.2783L79.4404 97.2256V96.6279C79.4404 95.8721 79.2764 95.3154 78.9482 94.958C78.626 94.5947 78.1074 94.4131 77.3926 94.4131C76.5898 94.4131 75.6816 94.6592 74.668 95.1514L74.2197 94.0352C74.6943 93.7773 75.2129 93.5752 75.7754 93.4287C76.3438 93.2822 76.9121 93.209 77.4805 93.209C78.6289 93.209 79.4785 93.4639 80.0293 93.9736C80.5859 94.4834 80.8643 95.3008 80.8643 96.4258V103H79.7832ZM76.4873 101.972C77.3955 101.972 78.1074 101.723 78.623 101.225C79.1445 100.727 79.4053 100.029 79.4053 99.1328V98.2627L77.9463 98.3242C76.7861 98.3652 75.9482 98.5469 75.4326 98.8691C74.9229 99.1855 74.668 99.6807 74.668 100.354C74.668 100.882 74.8262 101.283 75.1426 101.559C75.4648 101.834 75.9131 101.972 76.4873 101.972ZM85.25 93.3672V99.6162C85.25 100.401 85.4287 100.987 85.7861 101.374C86.1436 101.761 86.7031 101.954 87.4648 101.954C88.4727 101.954 89.208 101.679 89.6709 101.128C90.1396 100.577 90.374 99.6777 90.374 98.4297V93.3672H91.833V103H90.6289L90.418 101.708H90.3389C90.04 102.183 89.624 102.546 89.0908 102.798C88.5635 103.05 87.96 103.176 87.2803 103.176C86.1084 103.176 85.2295 102.897 84.6436 102.341C84.0635 101.784 83.7734 100.894 83.7734 99.6689V93.3672H85.25ZM98.0469 101.972C98.3047 101.972 98.5537 101.954 98.7939 101.919C99.0342 101.878 99.2246 101.837 99.3652 101.796V102.912C99.207 102.988 98.9727 103.05 98.6621 103.097C98.3574 103.149 98.082 103.176 97.8359 103.176C95.9727 103.176 95.041 102.194 95.041 100.231V94.501H93.6611V93.7979L95.041 93.1914L95.6562 91.1348H96.5V93.3672H99.2949V94.501H96.5V100.17C96.5 100.75 96.6377 101.195 96.9131 101.506C97.1885 101.816 97.5664 101.972 98.0469 101.972ZM99.7695 93.3672H101.334L103.443 98.8604C103.906 100.114 104.193 101.02 104.305 101.576H104.375C104.451 101.277 104.609 100.768 104.85 100.047C105.096 99.3203 105.893 97.0938 107.24 93.3672H108.805L104.665 104.336C104.255 105.42 103.774 106.188 103.224 106.639C102.679 107.096 102.008 107.324 101.211 107.324C100.766 107.324 100.326 107.274 99.8926 107.175V106.006C100.215 106.076 100.575 106.111 100.974 106.111C101.976 106.111 102.69 105.549 103.118 104.424L103.654 103.053L99.7695 93.3672ZM120.969 103L120.679 101.629H120.608C120.128 102.232 119.647 102.643 119.167 102.859C118.692 103.07 118.098 103.176 117.383 103.176C116.428 103.176 115.678 102.93 115.133 102.438C114.594 101.945 114.324 101.245 114.324 100.337C114.324 98.3916 115.88 97.3721 118.991 97.2783L120.626 97.2256V96.6279C120.626 95.8721 120.462 95.3154 120.134 94.958C119.812 94.5947 119.293 94.4131 118.578 94.4131C117.775 94.4131 116.867 94.6592 115.854 95.1514L115.405 94.0352C115.88 93.7773 116.398 93.5752 116.961 93.4287C117.529 93.2822 118.098 93.209 118.666 93.209C119.814 93.209 120.664 93.4639 121.215 93.9736C121.771 94.4834 122.05 95.3008 122.05 96.4258V103H120.969ZM117.673 101.972C118.581 101.972 119.293 101.723 119.809 101.225C120.33 100.727 120.591 100.029 120.591 99.1328V98.2627L119.132 98.3242C117.972 98.3652 117.134 98.5469 116.618 98.8691C116.108 99.1855 115.854 99.6807 115.854 100.354C115.854 100.882 116.012 101.283 116.328 101.559C116.65 101.834 117.099 101.972 117.673 101.972ZM131.656 103V96.7686C131.656 95.9834 131.478 95.3975 131.12 95.0107C130.763 94.624 130.203 94.4307 129.441 94.4307C128.434 94.4307 127.695 94.7031 127.227 95.248C126.758 95.793 126.523 96.6924 126.523 97.9463V103H125.064V93.3672H126.251L126.488 94.6855H126.559C126.857 94.2109 127.276 93.8447 127.815 93.5869C128.354 93.3232 128.955 93.1914 129.617 93.1914C130.777 93.1914 131.65 93.4727 132.236 94.0352C132.822 94.5918 133.115 95.4854 133.115 96.7158V103H131.656ZM142.678 101.708H142.599C141.925 102.687 140.917 103.176 139.575 103.176C138.315 103.176 137.334 102.745 136.631 101.884C135.934 101.022 135.585 99.7979 135.585 98.21C135.585 96.6221 135.937 95.3887 136.64 94.5098C137.343 93.6309 138.321 93.1914 139.575 93.1914C140.882 93.1914 141.884 93.666 142.581 94.6152H142.695L142.634 93.9209L142.599 93.2441V89.3242H144.058V103H142.871L142.678 101.708ZM139.76 101.954C140.756 101.954 141.477 101.685 141.922 101.146C142.373 100.601 142.599 99.7246 142.599 98.5176V98.21C142.599 96.8447 142.37 95.8721 141.913 95.292C141.462 94.7061 140.738 94.4131 139.742 94.4131C138.887 94.4131 138.23 94.7471 137.773 95.415C137.322 96.0771 137.097 97.0146 137.097 98.2275C137.097 99.458 137.322 100.387 137.773 101.014C138.225 101.641 138.887 101.954 139.76 101.954ZM153.295 103H151.836V93.3672H153.295V103ZM151.713 90.7568C151.713 90.4229 151.795 90.1797 151.959 90.0273C152.123 89.8691 152.328 89.79 152.574 89.79C152.809 89.79 153.011 89.8691 153.181 90.0273C153.351 90.1855 153.436 90.4287 153.436 90.7568C153.436 91.085 153.351 91.3311 153.181 91.4951C153.011 91.6533 152.809 91.7324 152.574 91.7324C152.328 91.7324 152.123 91.6533 151.959 91.4951C151.795 91.3311 151.713 91.085 151.713 90.7568ZM162.98 103V96.7686C162.98 95.9834 162.802 95.3975 162.444 95.0107C162.087 94.624 161.527 94.4307 160.766 94.4307C159.758 94.4307 159.02 94.7031 158.551 95.248C158.082 95.793 157.848 96.6924 157.848 97.9463V103H156.389V93.3672H157.575L157.812 94.6855H157.883C158.182 94.2109 158.601 93.8447 159.14 93.5869C159.679 93.3232 160.279 93.1914 160.941 93.1914C162.102 93.1914 162.975 93.4727 163.561 94.0352C164.146 94.5918 164.439 95.4854 164.439 96.7158V103H162.98ZM174.002 101.708H173.923C173.249 102.687 172.241 103.176 170.899 103.176C169.64 103.176 168.658 102.745 167.955 101.884C167.258 101.022 166.909 99.7979 166.909 98.21C166.909 96.6221 167.261 95.3887 167.964 94.5098C168.667 93.6309 169.646 93.1914 170.899 93.1914C172.206 93.1914 173.208 93.666 173.905 94.6152H174.02L173.958 93.9209L173.923 93.2441V89.3242H175.382V103H174.195L174.002 101.708ZM171.084 101.954C172.08 101.954 172.801 101.685 173.246 101.146C173.697 100.601 173.923 99.7246 173.923 98.5176V98.21C173.923 96.8447 173.694 95.8721 173.237 95.292C172.786 94.7061 172.062 94.4131 171.066 94.4131C170.211 94.4131 169.555 94.7471 169.098 95.415C168.646 96.0771 168.421 97.0146 168.421 98.2275C168.421 99.458 168.646 100.387 169.098 101.014C169.549 101.641 170.211 101.954 171.084 101.954ZM182.554 103.176C181.13 103.176 180.005 102.742 179.179 101.875C178.358 101.008 177.948 99.8037 177.948 98.2627C177.948 96.71 178.329 95.4766 179.091 94.5625C179.858 93.6484 180.887 93.1914 182.176 93.1914C183.383 93.1914 184.338 93.5898 185.041 94.3867C185.744 95.1777 186.096 96.2236 186.096 97.5244V98.4473H179.46C179.489 99.5781 179.773 100.437 180.312 101.022C180.857 101.608 181.622 101.901 182.606 101.901C183.644 101.901 184.669 101.685 185.683 101.251V102.552C185.167 102.774 184.678 102.933 184.215 103.026C183.758 103.126 183.204 103.176 182.554 103.176ZM182.158 94.4131C181.385 94.4131 180.767 94.665 180.304 95.1689C179.847 95.6729 179.577 96.3701 179.495 97.2607H184.531C184.531 96.3408 184.326 95.6377 183.916 95.1514C183.506 94.6592 182.92 94.4131 182.158 94.4131ZM193.074 103.176C192.447 103.176 191.873 103.062 191.352 102.833C190.836 102.599 190.402 102.241 190.051 101.761H189.945C190.016 102.323 190.051 102.856 190.051 103.36V107.324H188.592V93.3672H189.778L189.98 94.6855H190.051C190.426 94.1582 190.862 93.7773 191.36 93.543C191.858 93.3086 192.43 93.1914 193.074 93.1914C194.352 93.1914 195.336 93.6279 196.027 94.501C196.725 95.374 197.073 96.5986 197.073 98.1748C197.073 99.7568 196.719 100.987 196.01 101.866C195.307 102.739 194.328 103.176 193.074 103.176ZM192.863 94.4307C191.879 94.4307 191.167 94.7031 190.728 95.248C190.288 95.793 190.062 96.6602 190.051 97.8496V98.1748C190.051 99.5283 190.276 100.498 190.728 101.084C191.179 101.664 191.902 101.954 192.898 101.954C193.73 101.954 194.381 101.617 194.85 100.943C195.324 100.27 195.562 99.3408 195.562 98.1572C195.562 96.9561 195.324 96.0361 194.85 95.3975C194.381 94.7529 193.719 94.4307 192.863 94.4307ZM203.7 103.176C202.276 103.176 201.151 102.742 200.325 101.875C199.505 101.008 199.095 99.8037 199.095 98.2627C199.095 96.71 199.476 95.4766 200.237 94.5625C201.005 93.6484 202.033 93.1914 203.322 93.1914C204.529 93.1914 205.484 93.5898 206.188 94.3867C206.891 95.1777 207.242 96.2236 207.242 97.5244V98.4473H200.606C200.636 99.5781 200.92 100.437 201.459 101.022C202.004 101.608 202.769 101.901 203.753 101.901C204.79 101.901 205.815 101.685 206.829 101.251V102.552C206.313 102.774 205.824 102.933 205.361 103.026C204.904 103.126 204.351 103.176 203.7 103.176ZM203.305 94.4131C202.531 94.4131 201.913 94.665 201.45 95.1689C200.993 95.6729 200.724 96.3701 200.642 97.2607H205.678C205.678 96.3408 205.473 95.6377 205.062 95.1514C204.652 94.6592 204.066 94.4131 203.305 94.4131ZM216.33 103V96.7686C216.33 95.9834 216.151 95.3975 215.794 95.0107C215.437 94.624 214.877 94.4307 214.115 94.4307C213.107 94.4307 212.369 94.7031 211.9 95.248C211.432 95.793 211.197 96.6924 211.197 97.9463V103H209.738V93.3672H210.925L211.162 94.6855H211.232C211.531 94.2109 211.95 93.8447 212.489 93.5869C213.028 93.3232 213.629 93.1914 214.291 93.1914C215.451 93.1914 216.324 93.4727 216.91 94.0352C217.496 94.5918 217.789 95.4854 217.789 96.7158V103H216.33ZM227.352 101.708H227.272C226.599 102.687 225.591 103.176 224.249 103.176C222.989 103.176 222.008 102.745 221.305 101.884C220.607 101.022 220.259 99.7979 220.259 98.21C220.259 96.6221 220.61 95.3887 221.313 94.5098C222.017 93.6309 222.995 93.1914 224.249 93.1914C225.556 93.1914 226.558 93.666 227.255 94.6152H227.369L227.308 93.9209L227.272 93.2441V89.3242H228.731V103H227.545L227.352 101.708ZM224.434 101.954C225.43 101.954 226.15 101.685 226.596 101.146C227.047 100.601 227.272 99.7246 227.272 98.5176V98.21C227.272 96.8447 227.044 95.8721 226.587 95.292C226.136 94.7061 225.412 94.4131 224.416 94.4131C223.561 94.4131 222.904 94.7471 222.447 95.415C221.996 96.0771 221.771 97.0146 221.771 98.2275C221.771 99.458 221.996 100.387 222.447 101.014C222.898 101.641 223.561 101.954 224.434 101.954ZM235.903 103.176C234.479 103.176 233.354 102.742 232.528 101.875C231.708 101.008 231.298 99.8037 231.298 98.2627C231.298 96.71 231.679 95.4766 232.44 94.5625C233.208 93.6484 234.236 93.1914 235.525 93.1914C236.732 93.1914 237.688 93.5898 238.391 94.3867C239.094 95.1777 239.445 96.2236 239.445 97.5244V98.4473H232.81C232.839 99.5781 233.123 100.437 233.662 101.022C234.207 101.608 234.972 101.901 235.956 101.901C236.993 101.901 238.019 101.685 239.032 101.251V102.552C238.517 102.774 238.027 102.933 237.564 103.026C237.107 103.126 236.554 103.176 235.903 103.176ZM235.508 94.4131C234.734 94.4131 234.116 94.665 233.653 95.1689C233.196 95.6729 232.927 96.3701 232.845 97.2607H237.881C237.881 96.3408 237.676 95.6377 237.266 95.1514C236.855 94.6592 236.27 94.4131 235.508 94.4131ZM248.533 103V96.7686C248.533 95.9834 248.354 95.3975 247.997 95.0107C247.64 94.624 247.08 94.4307 246.318 94.4307C245.311 94.4307 244.572 94.7031 244.104 95.248C243.635 95.793 243.4 96.6924 243.4 97.9463V103H241.941V93.3672H243.128L243.365 94.6855H243.436C243.734 94.2109 244.153 93.8447 244.692 93.5869C245.231 93.3232 245.832 93.1914 246.494 93.1914C247.654 93.1914 248.527 93.4727 249.113 94.0352C249.699 94.5918 249.992 95.4854 249.992 96.7158V103H248.533ZM256.848 103.176C255.453 103.176 254.372 102.748 253.604 101.893C252.843 101.031 252.462 99.8154 252.462 98.2451C252.462 96.6338 252.849 95.3887 253.622 94.5098C254.401 93.6309 255.509 93.1914 256.944 93.1914C257.407 93.1914 257.87 93.2412 258.333 93.3408C258.796 93.4404 259.159 93.5576 259.423 93.6924L258.975 94.9316C258.652 94.8027 258.301 94.6973 257.92 94.6152C257.539 94.5273 257.202 94.4834 256.909 94.4834C254.952 94.4834 253.974 95.7314 253.974 98.2275C253.974 99.4111 254.211 100.319 254.686 100.952C255.166 101.585 255.875 101.901 256.812 101.901C257.615 101.901 258.438 101.729 259.282 101.383V102.675C258.638 103.009 257.826 103.176 256.848 103.176ZM265.646 103.176C264.222 103.176 263.097 102.742 262.271 101.875C261.45 101.008 261.04 99.8037 261.04 98.2627C261.04 96.71 261.421 95.4766 262.183 94.5625C262.95 93.6484 263.979 93.1914 265.268 93.1914C266.475 93.1914 267.43 93.5898 268.133 94.3867C268.836 95.1777 269.188 96.2236 269.188 97.5244V98.4473H262.552C262.581 99.5781 262.865 100.437 263.404 101.022C263.949 101.608 264.714 101.901 265.698 101.901C266.735 101.901 267.761 101.685 268.774 101.251V102.552C268.259 102.774 267.77 102.933 267.307 103.026C266.85 103.126 266.296 103.176 265.646 103.176ZM265.25 94.4131C264.477 94.4131 263.858 94.665 263.396 95.1689C262.938 95.6729 262.669 96.3701 262.587 97.2607H267.623C267.623 96.3408 267.418 95.6377 267.008 95.1514C266.598 94.6592 266.012 94.4131 265.25 94.4131ZM279.471 101.972C279.729 101.972 279.978 101.954 280.218 101.919C280.458 101.878 280.648 101.837 280.789 101.796V102.912C280.631 102.988 280.396 103.05 280.086 103.097C279.781 103.149 279.506 103.176 279.26 103.176C277.396 103.176 276.465 102.194 276.465 100.231V94.501H275.085V93.7979L276.465 93.1914L277.08 91.1348H277.924V93.3672H280.719V94.501H277.924V100.17C277.924 100.75 278.062 101.195 278.337 101.506C278.612 101.816 278.99 101.972 279.471 101.972ZM291.037 98.1748C291.037 99.7451 290.642 100.973 289.851 101.857C289.06 102.736 287.967 103.176 286.572 103.176C285.711 103.176 284.946 102.974 284.278 102.569C283.61 102.165 283.095 101.585 282.731 100.829C282.368 100.073 282.187 99.1885 282.187 98.1748C282.187 96.6045 282.579 95.3828 283.364 94.5098C284.149 93.6309 285.239 93.1914 286.634 93.1914C287.981 93.1914 289.051 93.6396 289.842 94.5361C290.639 95.4326 291.037 96.6455 291.037 98.1748ZM283.698 98.1748C283.698 99.4053 283.944 100.343 284.437 100.987C284.929 101.632 285.652 101.954 286.607 101.954C287.562 101.954 288.286 101.635 288.778 100.996C289.276 100.352 289.525 99.4111 289.525 98.1748C289.525 96.9502 289.276 96.0215 288.778 95.3887C288.286 94.75 287.557 94.4307 286.59 94.4307C285.635 94.4307 284.914 94.7441 284.428 95.3711C283.941 95.998 283.698 96.9326 283.698 98.1748ZM301.391 101.972C301.648 101.972 301.897 101.954 302.138 101.919C302.378 101.878 302.568 101.837 302.709 101.796V102.912C302.551 102.988 302.316 103.05 302.006 103.097C301.701 103.149 301.426 103.176 301.18 103.176C299.316 103.176 298.385 102.194 298.385 100.231V94.501H297.005V93.7979L298.385 93.1914L299 91.1348H299.844V93.3672H302.639V94.501H299.844V100.17C299.844 100.75 299.981 101.195 300.257 101.506C300.532 101.816 300.91 101.972 301.391 101.972ZM311.234 103V96.7686C311.234 95.9834 311.056 95.3975 310.698 95.0107C310.341 94.624 309.781 94.4307 309.02 94.4307C308.006 94.4307 307.265 94.7061 306.796 95.2568C306.333 95.8076 306.102 96.71 306.102 97.9639V103H304.643V89.3242H306.102V93.4639C306.102 93.9619 306.078 94.375 306.031 94.7031H306.119C306.406 94.2402 306.813 93.877 307.341 93.6133C307.874 93.3438 308.48 93.209 309.16 93.209C310.338 93.209 311.22 93.4902 311.806 94.0527C312.397 94.6094 312.693 95.4971 312.693 96.7158V103H311.234ZM319.769 103.176C318.345 103.176 317.22 102.742 316.394 101.875C315.573 101.008 315.163 99.8037 315.163 98.2627C315.163 96.71 315.544 95.4766 316.306 94.5625C317.073 93.6484 318.102 93.1914 319.391 93.1914C320.598 93.1914 321.553 93.5898 322.256 94.3867C322.959 95.1777 323.311 96.2236 323.311 97.5244V98.4473H316.675C316.704 99.5781 316.988 100.437 317.527 101.022C318.072 101.608 318.837 101.901 319.821 101.901C320.858 101.901 321.884 101.685 322.897 101.251V102.552C322.382 102.774 321.893 102.933 321.43 103.026C320.973 103.126 320.419 103.176 319.769 103.176ZM319.373 94.4131C318.6 94.4131 317.981 94.665 317.519 95.1689C317.062 95.6729 316.792 96.3701 316.71 97.2607H321.746C321.746 96.3408 321.541 95.6377 321.131 95.1514C320.721 94.6592 320.135 94.4131 319.373 94.4131ZM5.65625 132L2 122.367H3.56445L5.63867 128.08C6.10742 129.416 6.38281 130.283 6.46484 130.682H6.53516C6.59961 130.371 6.80176 129.729 7.1416 128.757C7.4873 127.778 8.25781 125.648 9.45312 122.367H11.0176L7.36133 132H5.65625ZM14.0234 132H12.5645V122.367H14.0234V132ZM12.4414 119.757C12.4414 119.423 12.5234 119.18 12.6875 119.027C12.8516 118.869 13.0566 118.79 13.3027 118.79C13.5371 118.79 13.7393 118.869 13.9092 119.027C14.0791 119.186 14.1641 119.429 14.1641 119.757C14.1641 120.085 14.0791 120.331 13.9092 120.495C13.7393 120.653 13.5371 120.732 13.3027 120.732C13.0566 120.732 12.8516 120.653 12.6875 120.495C12.5234 120.331 12.4414 120.085 12.4414 119.757ZM23.3311 129.372C23.3311 130.269 22.9971 130.96 22.3291 131.446C21.6611 131.933 20.7236 132.176 19.5166 132.176C18.2393 132.176 17.2432 131.974 16.5283 131.569V130.216C16.9912 130.45 17.4863 130.635 18.0137 130.77C18.5469 130.904 19.0596 130.972 19.5518 130.972C20.3135 130.972 20.8994 130.852 21.3096 130.611C21.7197 130.365 21.9248 129.993 21.9248 129.495C21.9248 129.12 21.7607 128.801 21.4326 128.537C21.1104 128.268 20.4775 127.951 19.5342 127.588C18.6377 127.254 17.999 126.964 17.6182 126.718C17.2432 126.466 16.9619 126.182 16.7744 125.865C16.5928 125.549 16.502 125.171 16.502 124.731C16.502 123.946 16.8213 123.328 17.46 122.877C18.0986 122.42 18.9746 122.191 20.0879 122.191C21.125 122.191 22.1387 122.402 23.1289 122.824L22.6104 124.011C21.6436 123.612 20.7676 123.413 19.9824 123.413C19.291 123.413 18.7695 123.521 18.418 123.738C18.0664 123.955 17.8906 124.254 17.8906 124.635C17.8906 124.893 17.9551 125.112 18.084 125.294C18.2188 125.476 18.4326 125.648 18.7256 125.812C19.0186 125.977 19.5811 126.214 20.4131 126.524C21.5557 126.94 22.3262 127.359 22.7246 127.781C23.1289 128.203 23.3311 128.733 23.3311 129.372ZM27.084 122.367V128.616C27.084 129.401 27.2627 129.987 27.6201 130.374C27.9775 130.761 28.5371 130.954 29.2988 130.954C30.3066 130.954 31.042 130.679 31.5049 130.128C31.9736 129.577 32.208 128.678 32.208 127.43V122.367H33.667V132H32.4629L32.252 130.708H32.1729C31.874 131.183 31.458 131.546 30.9248 131.798C30.3975 132.05 29.7939 132.176 29.1143 132.176C27.9424 132.176 27.0635 131.897 26.4775 131.341C25.8975 130.784 25.6074 129.894 25.6074 128.669V122.367H27.084ZM42.6934 132L42.4033 130.629H42.333C41.8525 131.232 41.3721 131.643 40.8916 131.859C40.417 132.07 39.8223 132.176 39.1074 132.176C38.1523 132.176 37.4023 131.93 36.8574 131.438C36.3184 130.945 36.0488 130.245 36.0488 129.337C36.0488 127.392 37.6045 126.372 40.7158 126.278L42.3506 126.226V125.628C42.3506 124.872 42.1865 124.315 41.8584 123.958C41.5361 123.595 41.0176 123.413 40.3027 123.413C39.5 123.413 38.5918 123.659 37.5781 124.151L37.1299 123.035C37.6045 122.777 38.123 122.575 38.6855 122.429C39.2539 122.282 39.8223 122.209 40.3906 122.209C41.5391 122.209 42.3887 122.464 42.9395 122.974C43.4961 123.483 43.7744 124.301 43.7744 125.426V132H42.6934ZM39.3975 130.972C40.3057 130.972 41.0176 130.723 41.5332 130.225C42.0547 129.727 42.3154 129.029 42.3154 128.133V127.263L40.8564 127.324C39.6963 127.365 38.8584 127.547 38.3428 127.869C37.833 128.186 37.5781 128.681 37.5781 129.354C37.5781 129.882 37.7363 130.283 38.0527 130.559C38.375 130.834 38.8232 130.972 39.3975 130.972ZM48.248 132H46.7891V118.324H48.248V132ZM52.8008 132H51.3418V118.324H52.8008V132ZM54.3652 122.367H55.9297L58.0391 127.86C58.502 129.114 58.7891 130.02 58.9004 130.576H58.9707C59.0469 130.277 59.2051 129.768 59.4453 129.047C59.6914 128.32 60.4883 126.094 61.8359 122.367H63.4004L59.2607 133.336C58.8506 134.42 58.3701 135.188 57.8193 135.639C57.2744 136.096 56.6035 136.324 55.8066 136.324C55.3613 136.324 54.9219 136.274 54.4883 136.175V135.006C54.8105 135.076 55.1709 135.111 55.5693 135.111C56.5713 135.111 57.2861 134.549 57.7139 133.424L58.25 132.053L54.3652 122.367ZM71.0996 132H69.6406V122.367H71.0996V132ZM69.5176 119.757C69.5176 119.423 69.5996 119.18 69.7637 119.027C69.9277 118.869 70.1328 118.79 70.3789 118.79C70.6133 118.79 70.8154 118.869 70.9854 119.027C71.1553 119.186 71.2402 119.429 71.2402 119.757C71.2402 120.085 71.1553 120.331 70.9854 120.495C70.8154 120.653 70.6133 120.732 70.3789 120.732C70.1328 120.732 69.9277 120.653 69.7637 120.495C69.5996 120.331 69.5176 120.085 69.5176 119.757ZM86.4717 132V125.733C86.4717 124.966 86.3076 124.392 85.9795 124.011C85.6514 123.624 85.1416 123.431 84.4502 123.431C83.542 123.431 82.8711 123.691 82.4375 124.213C82.0039 124.734 81.7871 125.537 81.7871 126.621V132H80.3281V125.733C80.3281 124.966 80.1641 124.392 79.8359 124.011C79.5078 123.624 78.9951 123.431 78.2979 123.431C77.3838 123.431 76.7129 123.706 76.2852 124.257C75.8633 124.802 75.6523 125.698 75.6523 126.946V132H74.1934V122.367H75.3799L75.6172 123.686H75.6875C75.9629 123.217 76.3496 122.851 76.8477 122.587C77.3516 122.323 77.9141 122.191 78.5352 122.191C80.041 122.191 81.0254 122.736 81.4883 123.826H81.5586C81.8457 123.322 82.2617 122.924 82.8066 122.631C83.3516 122.338 83.9727 122.191 84.6699 122.191C85.7598 122.191 86.5742 122.473 87.1133 123.035C87.6582 123.592 87.9307 124.485 87.9307 125.716V132H86.4717ZM95.4277 132.176C94.8008 132.176 94.2266 132.062 93.7051 131.833C93.1895 131.599 92.7559 131.241 92.4043 130.761H92.2988C92.3691 131.323 92.4043 131.856 92.4043 132.36V136.324H90.9453V122.367H92.1318L92.334 123.686H92.4043C92.7793 123.158 93.2158 122.777 93.7139 122.543C94.2119 122.309 94.7832 122.191 95.4277 122.191C96.7051 122.191 97.6895 122.628 98.3809 123.501C99.0781 124.374 99.4268 125.599 99.4268 127.175C99.4268 128.757 99.0723 129.987 98.3633 130.866C97.6602 131.739 96.6816 132.176 95.4277 132.176ZM95.2168 123.431C94.2324 123.431 93.5205 123.703 93.0811 124.248C92.6416 124.793 92.416 125.66 92.4043 126.85V127.175C92.4043 128.528 92.6299 129.498 93.0811 130.084C93.5322 130.664 94.2559 130.954 95.252 130.954C96.084 130.954 96.7344 130.617 97.2031 129.943C97.6777 129.27 97.915 128.341 97.915 127.157C97.915 125.956 97.6777 125.036 97.2031 124.397C96.7344 123.753 96.0723 123.431 95.2168 123.431ZM107.908 132L107.618 130.629H107.548C107.067 131.232 106.587 131.643 106.106 131.859C105.632 132.07 105.037 132.176 104.322 132.176C103.367 132.176 102.617 131.93 102.072 131.438C101.533 130.945 101.264 130.245 101.264 129.337C101.264 127.392 102.819 126.372 105.931 126.278L107.565 126.226V125.628C107.565 124.872 107.401 124.315 107.073 123.958C106.751 123.595 106.232 123.413 105.518 123.413C104.715 123.413 103.807 123.659 102.793 124.151L102.345 123.035C102.819 122.777 103.338 122.575 103.9 122.429C104.469 122.282 105.037 122.209 105.605 122.209C106.754 122.209 107.604 122.464 108.154 122.974C108.711 123.483 108.989 124.301 108.989 125.426V132H107.908ZM104.612 130.972C105.521 130.972 106.232 130.723 106.748 130.225C107.27 129.727 107.53 129.029 107.53 128.133V127.263L106.071 127.324C104.911 127.365 104.073 127.547 103.558 127.869C103.048 128.186 102.793 128.681 102.793 129.354C102.793 129.882 102.951 130.283 103.268 130.559C103.59 130.834 104.038 130.972 104.612 130.972ZM113.463 132H112.004V122.367H113.463V132ZM111.881 119.757C111.881 119.423 111.963 119.18 112.127 119.027C112.291 118.869 112.496 118.79 112.742 118.79C112.977 118.79 113.179 118.869 113.349 119.027C113.519 119.186 113.604 119.429 113.604 119.757C113.604 120.085 113.519 120.331 113.349 120.495C113.179 120.653 112.977 120.732 112.742 120.732C112.496 120.732 112.291 120.653 112.127 120.495C111.963 120.331 111.881 120.085 111.881 119.757ZM120.951 122.191C121.379 122.191 121.763 122.227 122.103 122.297L121.9 123.65C121.502 123.562 121.15 123.519 120.846 123.519C120.066 123.519 119.398 123.835 118.842 124.468C118.291 125.101 118.016 125.889 118.016 126.832V132H116.557V122.367H117.761L117.928 124.151H117.998C118.355 123.524 118.786 123.041 119.29 122.701C119.794 122.361 120.348 122.191 120.951 122.191ZM127.974 132.176C126.55 132.176 125.425 131.742 124.599 130.875C123.778 130.008 123.368 128.804 123.368 127.263C123.368 125.71 123.749 124.477 124.511 123.562C125.278 122.648 126.307 122.191 127.596 122.191C128.803 122.191 129.758 122.59 130.461 123.387C131.164 124.178 131.516 125.224 131.516 126.524V127.447H124.88C124.909 128.578 125.193 129.437 125.732 130.022C126.277 130.608 127.042 130.901 128.026 130.901C129.063 130.901 130.089 130.685 131.103 130.251V131.552C130.587 131.774 130.098 131.933 129.635 132.026C129.178 132.126 128.624 132.176 127.974 132.176ZM127.578 123.413C126.805 123.413 126.187 123.665 125.724 124.169C125.267 124.673 124.997 125.37 124.915 126.261H129.951C129.951 125.341 129.746 124.638 129.336 124.151C128.926 123.659 128.34 123.413 127.578 123.413ZM140.568 130.708H140.489C139.815 131.687 138.808 132.176 137.466 132.176C136.206 132.176 135.225 131.745 134.521 130.884C133.824 130.022 133.476 128.798 133.476 127.21C133.476 125.622 133.827 124.389 134.53 123.51C135.233 122.631 136.212 122.191 137.466 122.191C138.772 122.191 139.774 122.666 140.472 123.615H140.586L140.524 122.921L140.489 122.244V118.324H141.948V132H140.762L140.568 130.708ZM137.65 130.954C138.646 130.954 139.367 130.685 139.812 130.146C140.264 129.601 140.489 128.725 140.489 127.518V127.21C140.489 125.845 140.261 124.872 139.804 124.292C139.353 123.706 138.629 123.413 137.633 123.413C136.777 123.413 136.121 123.747 135.664 124.415C135.213 125.077 134.987 126.015 134.987 127.228C134.987 128.458 135.213 129.387 135.664 130.014C136.115 130.641 136.777 130.954 137.65 130.954ZM152.838 130.972C153.096 130.972 153.345 130.954 153.585 130.919C153.825 130.878 154.016 130.837 154.156 130.796V131.912C153.998 131.988 153.764 132.05 153.453 132.097C153.148 132.149 152.873 132.176 152.627 132.176C150.764 132.176 149.832 131.194 149.832 129.231V123.501H148.452V122.798L149.832 122.191L150.447 120.135H151.291V122.367H154.086V123.501H151.291V129.17C151.291 129.75 151.429 130.195 151.704 130.506C151.979 130.816 152.357 130.972 152.838 130.972ZM162.682 132V125.769C162.682 124.983 162.503 124.397 162.146 124.011C161.788 123.624 161.229 123.431 160.467 123.431C159.453 123.431 158.712 123.706 158.243 124.257C157.78 124.808 157.549 125.71 157.549 126.964V132H156.09V118.324H157.549V122.464C157.549 122.962 157.525 123.375 157.479 123.703H157.566C157.854 123.24 158.261 122.877 158.788 122.613C159.321 122.344 159.928 122.209 160.607 122.209C161.785 122.209 162.667 122.49 163.253 123.053C163.845 123.609 164.141 124.497 164.141 125.716V132H162.682ZM171.541 122.191C171.969 122.191 172.353 122.227 172.692 122.297L172.49 123.65C172.092 123.562 171.74 123.519 171.436 123.519C170.656 123.519 169.988 123.835 169.432 124.468C168.881 125.101 168.605 125.889 168.605 126.832V132H167.146V122.367H168.351L168.518 124.151H168.588C168.945 123.524 169.376 123.041 169.88 122.701C170.384 122.361 170.938 122.191 171.541 122.191ZM182.809 127.175C182.809 128.745 182.413 129.973 181.622 130.857C180.831 131.736 179.738 132.176 178.344 132.176C177.482 132.176 176.718 131.974 176.05 131.569C175.382 131.165 174.866 130.585 174.503 129.829C174.14 129.073 173.958 128.188 173.958 127.175C173.958 125.604 174.351 124.383 175.136 123.51C175.921 122.631 177.011 122.191 178.405 122.191C179.753 122.191 180.822 122.64 181.613 123.536C182.41 124.433 182.809 125.646 182.809 127.175ZM175.47 127.175C175.47 128.405 175.716 129.343 176.208 129.987C176.7 130.632 177.424 130.954 178.379 130.954C179.334 130.954 180.058 130.635 180.55 129.996C181.048 129.352 181.297 128.411 181.297 127.175C181.297 125.95 181.048 125.021 180.55 124.389C180.058 123.75 179.328 123.431 178.361 123.431C177.406 123.431 176.686 123.744 176.199 124.371C175.713 124.998 175.47 125.933 175.47 127.175ZM186.746 122.367V128.616C186.746 129.401 186.925 129.987 187.282 130.374C187.64 130.761 188.199 130.954 188.961 130.954C189.969 130.954 190.704 130.679 191.167 130.128C191.636 129.577 191.87 128.678 191.87 127.43V122.367H193.329V132H192.125L191.914 130.708H191.835C191.536 131.183 191.12 131.546 190.587 131.798C190.06 132.05 189.456 132.176 188.776 132.176C187.604 132.176 186.726 131.897 186.14 131.341C185.56 130.784 185.27 129.894 185.27 128.669V122.367H186.746ZM204.315 122.367V123.29L202.531 123.501C202.695 123.706 202.842 123.976 202.971 124.31C203.1 124.638 203.164 125.01 203.164 125.426C203.164 126.369 202.842 127.122 202.197 127.685C201.553 128.247 200.668 128.528 199.543 128.528C199.256 128.528 198.986 128.505 198.734 128.458C198.113 128.786 197.803 129.199 197.803 129.697C197.803 129.961 197.911 130.157 198.128 130.286C198.345 130.409 198.717 130.471 199.244 130.471H200.949C201.992 130.471 202.792 130.69 203.349 131.13C203.911 131.569 204.192 132.208 204.192 133.046C204.192 134.112 203.765 134.924 202.909 135.48C202.054 136.043 200.806 136.324 199.165 136.324C197.905 136.324 196.933 136.09 196.247 135.621C195.567 135.152 195.228 134.49 195.228 133.635C195.228 133.049 195.415 132.542 195.79 132.114C196.165 131.687 196.692 131.396 197.372 131.244C197.126 131.133 196.918 130.96 196.748 130.726C196.584 130.491 196.502 130.219 196.502 129.908C196.502 129.557 196.596 129.249 196.783 128.985C196.971 128.722 197.267 128.467 197.671 128.221C197.173 128.016 196.766 127.667 196.449 127.175C196.139 126.683 195.983 126.12 195.983 125.487C195.983 124.433 196.3 123.621 196.933 123.053C197.565 122.479 198.462 122.191 199.622 122.191C200.126 122.191 200.58 122.25 200.984 122.367H204.315ZM196.634 133.617C196.634 134.139 196.854 134.534 197.293 134.804C197.732 135.073 198.362 135.208 199.183 135.208C200.407 135.208 201.312 135.023 201.898 134.654C202.49 134.291 202.786 133.796 202.786 133.169C202.786 132.647 202.625 132.284 202.303 132.079C201.98 131.88 201.374 131.78 200.483 131.78H198.734C198.072 131.78 197.557 131.938 197.188 132.255C196.818 132.571 196.634 133.025 196.634 133.617ZM197.425 125.452C197.425 126.126 197.615 126.636 197.996 126.981C198.377 127.327 198.907 127.5 199.587 127.5C201.011 127.5 201.723 126.809 201.723 125.426C201.723 123.979 201.002 123.255 199.561 123.255C198.875 123.255 198.348 123.439 197.979 123.809C197.609 124.178 197.425 124.726 197.425 125.452ZM212.885 132V125.769C212.885 124.983 212.706 124.397 212.349 124.011C211.991 123.624 211.432 123.431 210.67 123.431C209.656 123.431 208.915 123.706 208.446 124.257C207.983 124.808 207.752 125.71 207.752 126.964V132H206.293V118.324H207.752V122.464C207.752 122.962 207.729 123.375 207.682 123.703H207.77C208.057 123.24 208.464 122.877 208.991 122.613C209.524 122.344 210.131 122.209 210.811 122.209C211.988 122.209 212.87 122.49 213.456 123.053C214.048 123.609 214.344 124.497 214.344 125.716V132H212.885ZM224.135 132L220.479 122.367H222.043L224.117 128.08C224.586 129.416 224.861 130.283 224.943 130.682H225.014C225.078 130.371 225.28 129.729 225.62 128.757C225.966 127.778 226.736 125.648 227.932 122.367H229.496L225.84 132H224.135ZM239.357 127.175C239.357 128.745 238.962 129.973 238.171 130.857C237.38 131.736 236.287 132.176 234.893 132.176C234.031 132.176 233.267 131.974 232.599 131.569C231.931 131.165 231.415 130.585 231.052 129.829C230.688 129.073 230.507 128.188 230.507 127.175C230.507 125.604 230.899 124.383 231.685 123.51C232.47 122.631 233.56 122.191 234.954 122.191C236.302 122.191 237.371 122.64 238.162 123.536C238.959 124.433 239.357 125.646 239.357 127.175ZM232.019 127.175C232.019 128.405 232.265 129.343 232.757 129.987C233.249 130.632 233.973 130.954 234.928 130.954C235.883 130.954 236.606 130.635 237.099 129.996C237.597 129.352 237.846 128.411 237.846 127.175C237.846 125.95 237.597 125.021 237.099 124.389C236.606 123.75 235.877 123.431 234.91 123.431C233.955 123.431 233.234 123.744 232.748 124.371C232.262 124.998 232.019 125.933 232.019 127.175ZM243.383 132H241.924V122.367H243.383V132ZM241.801 119.757C241.801 119.423 241.883 119.18 242.047 119.027C242.211 118.869 242.416 118.79 242.662 118.79C242.896 118.79 243.099 118.869 243.269 119.027C243.438 119.186 243.523 119.429 243.523 119.757C243.523 120.085 243.438 120.331 243.269 120.495C243.099 120.653 242.896 120.732 242.662 120.732C242.416 120.732 242.211 120.653 242.047 120.495C241.883 120.331 241.801 120.085 241.801 119.757ZM250.326 132.176C248.932 132.176 247.851 131.748 247.083 130.893C246.321 130.031 245.94 128.815 245.94 127.245C245.94 125.634 246.327 124.389 247.101 123.51C247.88 122.631 248.987 122.191 250.423 122.191C250.886 122.191 251.349 122.241 251.812 122.341C252.274 122.44 252.638 122.558 252.901 122.692L252.453 123.932C252.131 123.803 251.779 123.697 251.398 123.615C251.018 123.527 250.681 123.483 250.388 123.483C248.431 123.483 247.452 124.731 247.452 127.228C247.452 128.411 247.689 129.319 248.164 129.952C248.645 130.585 249.354 130.901 250.291 130.901C251.094 130.901 251.917 130.729 252.761 130.383V131.675C252.116 132.009 251.305 132.176 250.326 132.176ZM259.124 132.176C257.7 132.176 256.575 131.742 255.749 130.875C254.929 130.008 254.519 128.804 254.519 127.263C254.519 125.71 254.899 124.477 255.661 123.562C256.429 122.648 257.457 122.191 258.746 122.191C259.953 122.191 260.908 122.59 261.611 123.387C262.314 124.178 262.666 125.224 262.666 126.524V127.447H256.03C256.06 128.578 256.344 129.437 256.883 130.022C257.428 130.608 258.192 130.901 259.177 130.901C260.214 130.901 261.239 130.685 262.253 130.251V131.552C261.737 131.774 261.248 131.933 260.785 132.026C260.328 132.126 259.774 132.176 259.124 132.176ZM258.729 123.413C257.955 123.413 257.337 123.665 256.874 124.169C256.417 124.673 256.147 125.37 256.065 126.261H261.102C261.102 125.341 260.896 124.638 260.486 124.151C260.076 123.659 259.49 123.413 258.729 123.413ZM9.4707 161L9.18066 159.629H9.11035C8.62988 160.232 8.14941 160.643 7.66895 160.859C7.19434 161.07 6.59961 161.176 5.88477 161.176C4.92969 161.176 4.17969 160.93 3.63477 160.438C3.0957 159.945 2.82617 159.245 2.82617 158.337C2.82617 156.392 4.38184 155.372 7.49316 155.278L9.12793 155.226V154.628C9.12793 153.872 8.96387 153.315 8.63574 152.958C8.31348 152.595 7.79492 152.413 7.08008 152.413C6.27734 152.413 5.36914 152.659 4.35547 153.151L3.90723 152.035C4.38184 151.777 4.90039 151.575 5.46289 151.429C6.03125 151.282 6.59961 151.209 7.16797 151.209C8.31641 151.209 9.16602 151.464 9.7168 151.974C10.2734 152.483 10.5518 153.301 10.5518 154.426V161H9.4707ZM6.1748 159.972C7.08301 159.972 7.79492 159.723 8.31055 159.225C8.83203 158.727 9.09277 158.029 9.09277 157.133V156.263L7.63379 156.324C6.47363 156.365 5.63574 156.547 5.12012 156.869C4.61035 157.186 4.35547 157.681 4.35547 158.354C4.35547 158.882 4.51367 159.283 4.83008 159.559C5.15234 159.834 5.60059 159.972 6.1748 159.972ZM19.7803 158.372C19.7803 159.269 19.4463 159.96 18.7783 160.446C18.1104 160.933 17.1729 161.176 15.9658 161.176C14.6885 161.176 13.6924 160.974 12.9775 160.569V159.216C13.4404 159.45 13.9355 159.635 14.4629 159.77C14.9961 159.904 15.5088 159.972 16.001 159.972C16.7627 159.972 17.3486 159.852 17.7588 159.611C18.1689 159.365 18.374 158.993 18.374 158.495C18.374 158.12 18.21 157.801 17.8818 157.537C17.5596 157.268 16.9268 156.951 15.9834 156.588C15.0869 156.254 14.4482 155.964 14.0674 155.718C13.6924 155.466 13.4111 155.182 13.2236 154.865C13.042 154.549 12.9512 154.171 12.9512 153.731C12.9512 152.946 13.2705 152.328 13.9092 151.877C14.5479 151.42 15.4238 151.191 16.5371 151.191C17.5742 151.191 18.5879 151.402 19.5781 151.824L19.0596 153.011C18.0928 152.612 17.2168 152.413 16.4316 152.413C15.7402 152.413 15.2188 152.521 14.8672 152.738C14.5156 152.955 14.3398 153.254 14.3398 153.635C14.3398 153.893 14.4043 154.112 14.5332 154.294C14.668 154.476 14.8818 154.648 15.1748 154.812C15.4678 154.977 16.0303 155.214 16.8623 155.524C18.0049 155.94 18.7754 156.359 19.1738 156.781C19.5781 157.203 19.7803 157.733 19.7803 158.372ZM28.376 158.372C28.376 159.269 28.042 159.96 27.374 160.446C26.7061 160.933 25.7686 161.176 24.5615 161.176C23.2842 161.176 22.2881 160.974 21.5732 160.569V159.216C22.0361 159.45 22.5312 159.635 23.0586 159.77C23.5918 159.904 24.1045 159.972 24.5967 159.972C25.3584 159.972 25.9443 159.852 26.3545 159.611C26.7646 159.365 26.9697 158.993 26.9697 158.495C26.9697 158.12 26.8057 157.801 26.4775 157.537C26.1553 157.268 25.5225 156.951 24.5791 156.588C23.6826 156.254 23.0439 155.964 22.6631 155.718C22.2881 155.466 22.0068 155.182 21.8193 154.865C21.6377 154.549 21.5469 154.171 21.5469 153.731C21.5469 152.946 21.8662 152.328 22.5049 151.877C23.1436 151.42 24.0195 151.191 25.1328 151.191C26.1699 151.191 27.1836 151.402 28.1738 151.824L27.6553 153.011C26.6885 152.612 25.8125 152.413 25.0273 152.413C24.3359 152.413 23.8145 152.521 23.4629 152.738C23.1113 152.955 22.9355 153.254 22.9355 153.635C22.9355 153.893 23 154.112 23.1289 154.294C23.2637 154.476 23.4775 154.648 23.7705 154.812C24.0635 154.977 24.626 155.214 25.458 155.524C26.6006 155.94 27.3711 156.359 27.7695 156.781C28.1738 157.203 28.376 157.733 28.376 158.372ZM32.2168 161H30.7578V151.367H32.2168V161ZM30.6348 148.757C30.6348 148.423 30.7168 148.18 30.8809 148.027C31.0449 147.869 31.25 147.79 31.4961 147.79C31.7305 147.79 31.9326 147.869 32.1025 148.027C32.2725 148.186 32.3574 148.429 32.3574 148.757C32.3574 149.085 32.2725 149.331 32.1025 149.495C31.9326 149.653 31.7305 149.732 31.4961 149.732C31.25 149.732 31.0449 149.653 30.8809 149.495C30.7168 149.331 30.6348 149.085 30.6348 148.757ZM41.5244 158.372C41.5244 159.269 41.1904 159.96 40.5225 160.446C39.8545 160.933 38.917 161.176 37.71 161.176C36.4326 161.176 35.4365 160.974 34.7217 160.569V159.216C35.1846 159.45 35.6797 159.635 36.207 159.77C36.7402 159.904 37.2529 159.972 37.7451 159.972C38.5068 159.972 39.0928 159.852 39.5029 159.611C39.9131 159.365 40.1182 158.993 40.1182 158.495C40.1182 158.12 39.9541 157.801 39.626 157.537C39.3037 157.268 38.6709 156.951 37.7275 156.588C36.8311 156.254 36.1924 155.964 35.8115 155.718C35.4365 155.466 35.1553 155.182 34.9678 154.865C34.7861 154.549 34.6953 154.171 34.6953 153.731C34.6953 152.946 35.0146 152.328 35.6533 151.877C36.292 151.42 37.168 151.191 38.2812 151.191C39.3184 151.191 40.332 151.402 41.3223 151.824L40.8037 153.011C39.8369 152.612 38.9609 152.413 38.1758 152.413C37.4844 152.413 36.9629 152.521 36.6113 152.738C36.2598 152.955 36.084 153.254 36.084 153.635C36.084 153.893 36.1484 154.112 36.2773 154.294C36.4121 154.476 36.626 154.648 36.9189 154.812C37.2119 154.977 37.7744 155.214 38.6064 155.524C39.749 155.94 40.5195 156.359 40.918 156.781C41.3223 157.203 41.5244 157.733 41.5244 158.372ZM47.0176 159.972C47.2754 159.972 47.5244 159.954 47.7646 159.919C48.0049 159.878 48.1953 159.837 48.3359 159.796V160.912C48.1777 160.988 47.9434 161.05 47.6328 161.097C47.3281 161.149 47.0527 161.176 46.8066 161.176C44.9434 161.176 44.0117 160.194 44.0117 158.231V152.501H42.6318V151.798L44.0117 151.191L44.627 149.135H45.4707V151.367H48.2656V152.501H45.4707V158.17C45.4707 158.75 45.6084 159.195 45.8838 159.506C46.1592 159.816 46.5371 159.972 47.0176 159.972ZM56.1934 161L55.9033 159.629H55.833C55.3525 160.232 54.8721 160.643 54.3916 160.859C53.917 161.07 53.3223 161.176 52.6074 161.176C51.6523 161.176 50.9023 160.93 50.3574 160.438C49.8184 159.945 49.5488 159.245 49.5488 158.337C49.5488 156.392 51.1045 155.372 54.2158 155.278L55.8506 155.226V154.628C55.8506 153.872 55.6865 153.315 55.3584 152.958C55.0361 152.595 54.5176 152.413 53.8027 152.413C53 152.413 52.0918 152.659 51.0781 153.151L50.6299 152.035C51.1045 151.777 51.623 151.575 52.1855 151.429C52.7539 151.282 53.3223 151.209 53.8906 151.209C55.0391 151.209 55.8887 151.464 56.4395 151.974C56.9961 152.483 57.2744 153.301 57.2744 154.426V161H56.1934ZM52.8975 159.972C53.8057 159.972 54.5176 159.723 55.0332 159.225C55.5547 158.727 55.8154 158.029 55.8154 157.133V156.263L54.3564 156.324C53.1963 156.365 52.3584 156.547 51.8428 156.869C51.333 157.186 51.0781 157.681 51.0781 158.354C51.0781 158.882 51.2363 159.283 51.5527 159.559C51.875 159.834 52.3232 159.972 52.8975 159.972ZM66.8809 161V154.769C66.8809 153.983 66.7021 153.397 66.3447 153.011C65.9873 152.624 65.4277 152.431 64.666 152.431C63.6582 152.431 62.9199 152.703 62.4512 153.248C61.9824 153.793 61.748 154.692 61.748 155.946V161H60.2891V151.367H61.4756L61.7129 152.686H61.7832C62.082 152.211 62.501 151.845 63.04 151.587C63.5791 151.323 64.1797 151.191 64.8418 151.191C66.002 151.191 66.875 151.473 67.4609 152.035C68.0469 152.592 68.3398 153.485 68.3398 154.716V161H66.8809ZM74.457 159.972C74.7148 159.972 74.9639 159.954 75.2041 159.919C75.4443 159.878 75.6348 159.837 75.7754 159.796V160.912C75.6172 160.988 75.3828 161.05 75.0723 161.097C74.7676 161.149 74.4922 161.176 74.2461 161.176C72.3828 161.176 71.4512 160.194 71.4512 158.231V152.501H70.0713V151.798L71.4512 151.191L72.0664 149.135H72.9102V151.367H75.7051V152.501H72.9102V158.17C72.9102 158.75 73.0479 159.195 73.3232 159.506C73.5986 159.816 73.9766 159.972 74.457 159.972ZM77.498 160.068C77.498 159.676 77.5859 159.38 77.7617 159.181C77.9434 158.976 78.2012 158.873 78.5352 158.873C78.875 158.873 79.1387 158.976 79.3262 159.181C79.5195 159.38 79.6162 159.676 79.6162 160.068C79.6162 160.449 79.5195 160.742 79.3262 160.947C79.1328 161.152 78.8691 161.255 78.5352 161.255C78.2363 161.255 77.9873 161.164 77.7881 160.982C77.5947 160.795 77.498 160.49 77.498 160.068Z" fill="#222222"/>
</svg>
