<svg width="77" height="77" viewBox="0 0 77 77" fill="none" xmlns="http://www.w3.org/2000/svg">
<circle cx="38.5" cy="38.5" r="38.5" fill="#FACFDD"/>
<path d="M32.4735 28.2226L26.7671 31.6668C26.7671 31.6668 15.1628 26.3675 14.4004 25.0215C12.7637 22.1383 13.6562 17.8593 16.752 14.7634L32.4735 28.2226Z" fill="#FF6161"/>
<path d="M33.6668 24.7671L31.3423 29.3538L16.7521 14.7633C19.8683 11.6471 24.1847 10.7624 27.0668 12.4433C28.4139 13.2273 33.6668 24.7671 33.6668 24.7671Z" fill="#FFAD9E"/>
<path d="M42.8822 31.8329L38.3576 38.6197L30.2169 28.2167L33.6668 24.7668L42.8822 31.8329Z" fill="#C2FBFF"/>
<path d="M39.4888 37.4888L33.8332 40.8822L26.767 31.6669L30.2169 28.217L39.4888 37.4888Z" fill="#71E2F0"/>
<path d="M45.1438 34.0947L41.7505 39.7503L36.0948 43.1437L33.8326 40.8815L42.8816 31.8325L45.1438 34.0947Z" fill="#C2FBFF"/>
<path d="M40.6198 38.6199L48.7683 44.5062L63.2422 61.2423C62.1088 62.3757 60.3386 62.4763 59.0853 61.5578L36.0954 43.1443L40.6198 38.6199Z" fill="#FF6161"/>
<path d="M63.2424 61.2423L40.6198 38.6199L45.1442 34.0955C45.1442 34.0955 63.5578 57.0855 63.5543 57.0866C64.4764 58.3386 64.3757 60.1089 63.2424 61.2423Z" fill="#FFAD9E"/>
<path d="M52.2007 17.4985L38.9577 30.7415L47.2586 39.0423L60.5015 25.7993C58.2235 28.0774 54.5177 28.0663 52.2258 25.7743C49.9338 23.4824 49.9227 19.7766 52.2007 17.4985Z" fill="#C2001B"/>
<path d="M63.2497 14.7503C59.9156 13.9332 54.8265 14.8727 52.2007 17.4985C49.9227 19.7765 49.9338 23.4823 52.2257 25.7743C54.5177 28.0662 58.2235 28.0773 60.5015 25.7993C63.1275 23.1733 64.0667 18.0844 63.2497 14.7503Z" fill="#FF0F27"/>
<path d="M50.9626 36.445L37.0925 50.3152L30.1751 43.3979L46.2588 31.7412L50.9626 36.445Z" fill="#C2FBFF"/>
<path d="M32.3888 45.6111L46.2586 31.7412L41.5549 27.0375L27.685 40.9073L32.3888 45.6111Z" fill="white"/>
<path d="M39.4811 50.1399L23.2157 66.4053L17.4052 60.5948L24.3613 49.2116L33.6706 44.3293L39.4811 50.1399Z" fill="#FF0F27"/>
<path d="M17.4053 60.5947L33.6705 44.3296L27.8601 38.5192L11.5949 54.7843L17.4053 60.5947Z" fill="#FF6161"/>
</svg>
