<svg width="77" height="77" viewBox="0 0 77 77" fill="none" xmlns="http://www.w3.org/2000/svg">
<circle cx="38.5" cy="38.5" r="38.5" fill="#FDC400" fill-opacity="0.3"/>
<path d="M41.5085 57.0458H35.2177C28.0509 57.0458 22.2412 51.236 22.2412 44.0692V29.1219C22.2412 20.2181 29.4591 13 38.3631 13C47.267 13 54.4849 20.2181 54.4849 29.1219V44.0692C54.485 51.236 48.6752 57.0458 41.5085 57.0458Z" fill="#606572"/>
<path d="M38.3631 13C37.9392 13 37.5193 13.0166 37.1038 13.0486C45.4191 13.691 51.9665 20.6418 51.9665 29.1219V44.0692C51.9665 51.236 46.1567 57.0458 38.9899 57.0458H41.5084C48.6752 57.0458 54.485 51.236 54.485 44.0692V29.122C54.4851 20.218 47.267 13 38.3631 13Z" fill="#3B4254"/>
<path d="M52.1715 59.2212H24.5083L24.7416 55.5201C24.915 52.7736 26.8493 50.4569 29.5216 49.7969L33.5415 48.8035C33.7405 48.7546 33.8793 48.5769 33.8793 48.3724V39.3746H42.8459V48.3834C42.8459 48.5879 42.986 48.7656 43.1837 48.8145L47.1582 49.7968C49.8304 50.4568 51.7649 52.7735 51.9382 55.52L52.1715 59.2212Z" fill="#F9C295"/>
<path d="M51.9382 55.5201C51.7648 52.7735 49.8305 50.4568 47.1582 49.7968L43.1838 48.8146C42.986 48.7658 42.846 48.588 42.846 48.3835V39.3748H40.5656V48.3835C40.5656 48.588 40.7057 48.7658 40.9034 48.8146L44.8778 49.7968C47.55 50.4568 49.4845 52.7735 49.6578 55.5201L49.8911 59.2211H52.1715L51.9382 55.5201Z" fill="#E8A26A"/>
<path d="M33.8795 46.8961C35.3875 47.7101 36.9457 48.1356 38.3632 48.1356C39.7804 48.1356 41.3384 47.7101 42.8461 46.8963V39.3746H33.8795V46.8961V46.8961Z" fill="#E8A26A"/>
<path d="M49.9254 34.5832C48.534 41.7165 42.7691 45.8217 38.3631 45.8217C34.2132 45.8217 28.8562 42.1799 27.0866 35.7944C34.9733 34.6713 41.6215 27.3591 43.2853 23.1157C43.2853 23.1158 43.2853 32.4602 49.9254 34.5832Z" fill="#F9C295"/>
<path d="M46.912 32.7975C46.5379 40.6 41.6122 45.3259 37.6381 45.7844C37.8829 45.8081 38.1251 45.8216 38.363 45.8216C42.769 45.8216 48.5339 41.7164 49.9253 34.583C48.7126 34.1953 47.7223 33.5661 46.912 32.7975Z" fill="#E8A26A"/>
<path d="M51.7607 16.4557C51.2129 18.4725 50.4513 19.2341 48.4345 19.7819C48.0165 19.8954 48.0165 20.4899 48.4345 20.6034C50.4513 21.1512 51.2129 21.9128 51.7607 23.9295C51.8743 24.3476 52.4687 24.3476 52.5823 23.9295C53.13 21.9127 53.8916 21.1511 55.9084 20.6034C56.3265 20.4899 56.3265 19.8954 55.9084 19.7819C53.8916 19.2341 53.13 18.4725 52.5823 16.4557C52.4688 16.0377 51.8743 16.0377 51.7607 16.4557Z" fill="#FEE9A1"/>
<path d="M55.4059 48.1679L50.1435 43.3045C49.1352 42.3727 49.4709 40.704 50.761 40.2344L57.2477 37.8734C58.5379 37.4037 59.8675 38.4663 59.6941 39.8283L58.789 46.9365L55.4059 48.1679Z" fill="#FEE9A1"/>
<path d="M57.2476 37.8734L55.6035 38.4717C56.6354 38.0962 57.7982 39.2195 57.7432 40.5383L57.4555 47.4218L58.789 46.9365L59.6941 39.8282C59.8675 38.4663 58.5378 37.4037 57.2476 37.8734Z" fill="#FDCA67"/>
<path d="M57.5318 40.3898C57.4008 39.6393 57.0801 38.7655 56.6594 38.0875L55.2436 38.6029C55.5364 38.9828 55.9366 39.7697 56.0886 40.6416L56.4204 42.5419C56.49 42.9403 56.8692 43.2071 57.2679 43.1375C57.6664 43.0679 57.9331 42.6884 57.8635 42.29L57.5318 40.3898Z" fill="#DDA84A"/>
<path d="M52.1606 42.3444L53.128 44.0135C53.2639 44.2479 53.5096 44.3787 53.7624 44.3787C53.887 44.3787 54.0133 44.3469 54.129 44.2799C54.479 44.0771 54.5983 43.6288 54.3955 43.2789L53.428 41.6098C52.9841 40.844 52.7848 39.9842 52.7649 39.5049L51.3498 40.0199C51.4632 40.8099 51.7786 41.6854 52.1606 42.3444Z" fill="#DDA84A"/>
<path d="M55.1389 48.6726L58.0595 56.697C58.4795 57.851 59.7556 58.446 60.9096 58.026C62.0636 57.606 62.6586 56.3299 62.2386 55.1759L59.318 47.1515C59.1775 46.7656 58.7507 46.5666 58.3648 46.707L55.5833 47.7194C55.1974 47.8599 54.9984 48.2867 55.1389 48.6726Z" fill="#FD7BA2"/>
<path d="M62.2386 55.1759L59.318 47.1516C59.1775 46.7655 58.7507 46.5666 58.3648 46.707L56.9141 47.235C57.1392 47.1531 57.4355 47.3996 57.576 47.7855L60.4966 55.8098C60.8478 56.7748 60.7607 57.7237 60.3297 58.1526C60.5233 58.1367 60.7181 58.0955 60.9095 58.0259C62.0636 57.6059 62.6587 56.3299 62.2386 55.1759Z" fill="#E9488E"/>
<path d="M60.4566 50.2802L59.9557 48.9037H59.9556L55.7766 50.4248H55.7765L56.2775 51.8013L60.4566 50.2802Z" fill="#606572"/>
<path d="M59.9556 48.9037L58.2137 49.5378L58.7147 50.9143L60.4567 50.2803L59.9557 48.9037H59.9556Z" fill="#3B4254"/>
<path d="M27.2675 44.8838V52.0968H20.6223V41.8244C20.6223 41.7001 20.6503 41.5856 20.7075 41.4857C21.1205 40.7717 22.903 41.0301 24.6904 42.062C26.2269 42.949 27.2675 44.1186 27.2675 44.8838Z" fill="#FF7870"/>
<path d="M25.0403 42.2745V52.0966H27.2674V44.8837C27.2674 44.1783 26.3824 43.1291 25.0403 42.2745Z" fill="#D7352E"/>
<path d="M27.274 52.0968H20.6157C20.0696 52.0968 19.6268 52.5396 19.6268 53.0857V62.0113C19.6268 62.5573 20.0695 63.0001 20.6157 63.0001H27.274C27.8201 63.0001 28.2629 62.5573 28.2629 62.0113V53.0857C28.2629 52.5395 27.8201 52.0968 27.274 52.0968Z" fill="#78BAF6"/>
<path d="M27.274 52.0968H25.047C25.5931 52.0968 26.0359 52.5396 26.0359 53.0857V62.0112C26.0359 62.5572 25.5932 63 25.047 63H27.274C27.8201 63 28.2629 62.5572 28.2629 62.0112V53.0857C28.2629 52.5395 27.8201 52.0968 27.274 52.0968Z" fill="#1885DA"/>
<path d="M27.2675 44.8838C27.2675 45.0092 27.2395 45.1238 27.181 45.2237C26.7692 45.9378 24.9854 45.6794 23.1981 44.6474C21.6616 43.7604 20.6224 42.5895 20.6224 41.8244C20.6224 41.7001 20.6504 41.5856 20.7076 41.4857C21.1206 40.7717 22.9031 41.0301 24.6905 42.062C26.227 42.949 27.2675 44.1186 27.2675 44.8838Z" fill="#FF9794"/>
<path d="M28.2629 54.3473H19.6268V55.8121H28.2629V54.3473Z" fill="#606572"/>
<path d="M28.2628 54.3473H26.0358V55.8121H28.2628V54.3473Z" fill="#3B4254"/>
</svg>
