<svg width="77" height="77" viewBox="0 0 77 77" fill="none" xmlns="http://www.w3.org/2000/svg">
<circle cx="38.5" cy="38.5" r="38.5" fill="#CFE0FA"/>
<path d="M32.9948 24.6846L37.7887 19.8906L41.4699 23.5718L36.6759 28.3657L32.9948 24.6846Z" fill="#DC4D41"/>
<path d="M22.3224 29.591L34.9063 17.0071L38.5017 20.6024L25.9177 33.1867L22.3224 29.591Z" fill="#EA6B65"/>
<path d="M44.4942 15.8087L46.2917 17.6062L36.1041 27.7934L39.6999 31.3891L49.8874 21.2019L51.6849 22.9994L53.4831 14.0112L44.4942 15.8087Z" fill="#EA6B65"/>
<path d="M17.2374 50.9832H24.0168V61.1528H17.2374V50.9832Z" fill="#F3AF3E"/>
<path d="M29.1018 45.051H35.8813V61.1529H29.1018V45.051Z" fill="#99D8AA"/>
<path d="M40.9659 36.5762H47.7458V61.1524H40.9659V36.5762Z" fill="#6CBAE5"/>
<path d="M52.8304 28.949H59.6102V61.1523H52.8304V28.949Z" fill="#EA6B65"/>
</svg>
