<svg width="30" height="30" viewBox="0 0 30 30" fill="none" xmlns="http://www.w3.org/2000/svg">
<path d="M15 14.672C18.3355 14.672 21.0397 11.3876 21.0397 7.33603C21.0397 3.2844 20.1519 0 15 0C9.84814 0 8.96014 3.2844 8.96014 7.33603C8.96014 11.3876 11.6643 14.672 15 14.672Z" fill="black"/>
<path d="M3.59219 25.8732C3.59116 25.6261 3.59013 25.8036 3.59219 25.8732V25.8732Z" fill="black"/>
<path d="M26.4073 26.0661C26.4105 25.9984 26.4084 25.5968 26.4073 26.0661V26.0661Z" fill="black"/>
<path d="M26.3944 25.5769C26.2826 18.519 25.3608 16.5079 18.3071 15.2349C18.3071 15.2349 17.3142 16.5001 14.9999 16.5001C12.6856 16.5001 11.6925 15.2349 11.6925 15.2349C4.71582 16.494 3.73799 18.4753 3.60942 25.3476C3.59887 25.9088 3.59399 25.9383 3.5921 25.8731C3.59253 25.9952 3.59304 26.221 3.59304 26.6146C3.59304 26.6146 5.27236 30 14.9999 30C24.7273 30 26.4068 26.6146 26.4068 26.6146C26.4068 26.3617 26.4069 26.1858 26.4072 26.0662C26.4053 26.1064 26.4015 26.0284 26.3944 25.5769Z" fill="black"/>
</svg>
